<?xml version="1.0" encoding="us-ascii" standalone="no"?><svg xmlns="http://www.w3.org/2000/svg" xmlns:xlink="http://www.w3.org/1999/xlink" contentStyleType="text/css" height="950px" preserveAspectRatio="none" style="width:433px;height:950px;background:#FFFFFF;" version="1.1" viewBox="0 0 433 950" width="433px" zoomAndPan="magnify"><defs/><g><rect fill="#DDDDDD" height="95.4844" id="_legend" rx="7.5" ry="7.5" style="stroke:#000000;stroke-width:1.0;" width="253" x="12" y="12"/><text fill="#000000" font-family="sans-serif" font-size="14" font-weight="bold" lengthAdjust="spacing" textLength="64" x="22" y="31.9951">Variable</text><text fill="#000000" font-family="sans-serif" font-size="14" font-weight="bold" lengthAdjust="spacing" textLength="39" x="116" y="31.9951">Type</text><text fill="#000000" font-family="sans-serif" font-size="14" font-weight="bold" lengthAdjust="spacing" textLength="90" x="165" y="31.9951">Initial Value</text><text fill="#000000" font-family="sans-serif" font-size="14" lengthAdjust="spacing" textLength="54" x="21" y="48.292">counter</text><text fill="#000000" font-family="sans-serif" font-size="14" lengthAdjust="spacing" textLength="17" x="115" y="48.292">int</text><text fill="#000000" font-family="sans-serif" font-size="14" lengthAdjust="spacing" textLength="9" x="164" y="48.292">0</text><text fill="#000000" font-family="sans-serif" font-size="14" lengthAdjust="spacing" textLength="86" x="21" y="64.5889">temperature</text><text fill="#000000" font-family="sans-serif" font-size="14" lengthAdjust="spacing" textLength="17" x="115" y="64.5889">int</text><text fill="#000000" font-family="sans-serif" font-size="14" lengthAdjust="spacing" textLength="18" x="164" y="64.5889">25</text><text fill="#000000" font-family="sans-serif" font-size="14" lengthAdjust="spacing" textLength="56" x="21" y="80.8857">enabled</text><text fill="#000000" font-family="sans-serif" font-size="14" lengthAdjust="spacing" textLength="17" x="115" y="80.8857">int</text><text fill="#000000" font-family="sans-serif" font-size="14" lengthAdjust="spacing" textLength="9" x="164" y="80.8857">1</text><text fill="#000000" font-family="sans-serif" font-size="14" lengthAdjust="spacing" textLength="24" x="21" y="97.1826">flag</text><text fill="#000000" font-family="sans-serif" font-size="14" lengthAdjust="spacing" textLength="17" x="115" y="97.1826">int</text><text fill="#000000" font-family="sans-serif" font-size="14" lengthAdjust="spacing" textLength="9" x="164" y="97.1826">0</text><line style="stroke:#000000;stroke-width:1.0;" x1="17" x2="260" y1="19" y2="19"/><line style="stroke:#000000;stroke-width:1.0;" x1="17" x2="260" y1="35.2969" y2="35.2969"/><line style="stroke:#000000;stroke-width:1.0;" x1="17" x2="260" y1="51.5938" y2="51.5938"/><line style="stroke:#000000;stroke-width:1.0;" x1="17" x2="260" y1="67.8906" y2="67.8906"/><line style="stroke:#000000;stroke-width:1.0;" x1="17" x2="260" y1="84.1875" y2="84.1875"/><line style="stroke:#000000;stroke-width:1.0;" x1="17" x2="260" y1="100.4844" y2="100.4844"/><line style="stroke:#000000;stroke-width:1.0;" x1="17" x2="17" y1="19" y2="100.4844"/><line style="stroke:#000000;stroke-width:1.0;" x1="111" x2="111" y1="19" y2="100.4844"/><line style="stroke:#000000;stroke-width:1.0;" x1="160" x2="160" y1="19" y2="100.4844"/><line style="stroke:#000000;stroke-width:1.0;" x1="260" x2="260" y1="19" y2="100.4844"/><path d="M19.5,206.4844 L407.3251,206.4844 A12.5,12.5 0 0 1 419.8251,218.9844 L419.8251,232.7813 L7,232.7813 L7,218.9844 A12.5,12.5 0 0 1 19.5,206.4844 " fill="#ADD8E6" style="stroke:#ADD8E6;stroke-width:1.0;"/><rect fill="none" height="657.5938" rx="12.5" ry="12.5" style="stroke:#181818;stroke-width:0.5;" width="412.8251" x="7" y="206.4844"/><line style="stroke:#181818;stroke-width:0.5;" x1="7" x2="419.8251" y1="232.7813" y2="232.7813"/><text fill="#000000" font-family="sans-serif" font-size="14" lengthAdjust="spacing" textLength="51" x="187.9125" y="224.4795">System</text><rect fill="#F1F1F1" height="40" rx="12.5" ry="12.5" style="stroke:#181818;stroke-width:0.5;" width="50" x="89.8251" y="300.7813"/><text fill="#000000" font-family="sans-serif" font-size="14" lengthAdjust="spacing" textLength="24" x="102.8251" y="325.6279">Idle</text><path d="M37.3251,458.7813 L191.8251,458.7813 A12.5,12.5 0 0 1 204.3251,471.2813 L204.3251,485.0781 L24.8251,485.0781 L24.8251,471.2813 A12.5,12.5 0 0 1 37.3251,458.7813 " fill="#ADD8E6" style="stroke:#ADD8E6;stroke-width:1.0;"/><rect fill="none" height="395.2969" rx="12.5" ry="12.5" style="stroke:#181818;stroke-width:0.5;" width="179.5" x="24.8251" y="458.7813"/><line style="stroke:#181818;stroke-width:0.5;" x1="24.8251" x2="204.3251" y1="485.0781" y2="485.0781"/><text fill="#000000" font-family="sans-serif" font-size="14" lengthAdjust="spacing" textLength="52" x="88.5751" y="476.7764">Cooling</text><rect fill="#D3D3D3" height="40" rx="12.5" ry="12.5" style="stroke:#808080;stroke-width:1.0;stroke-dasharray:1.0,3.0;" width="59" x="36.8251" y="553.0781"/><text fill="#000000" font-family="sans-serif" font-size="14" font-style="italic" lengthAdjust="spacing" textLength="49" x="41.8251" y="577.9248">Decide</text><rect fill="#F1F1F1" height="40" rx="12.5" ry="12.5" style="stroke:#181818;stroke-width:0.5;" width="51" x="40.8251" y="646.0781"/><text fill="#000000" font-family="sans-serif" font-size="14" lengthAdjust="spacing" textLength="41" x="45.8251" y="670.9248">Active</text><rect fill="#F1F1F1" height="40" rx="12.5" ry="12.5" style="stroke:#181818;stroke-width:0.5;" width="50" x="41.3251" y="804.0781"/><text fill="#000000" font-family="sans-serif" font-size="14" lengthAdjust="spacing" textLength="38" x="47.3251" y="828.9248">Done</text><ellipse cx="66.3251" cy="506.0781" fill="#181818" rx="10" ry="10" style="stroke:none;stroke-width:1.0;"/><!--link *start*system__cooling to system__cooling__decide--><g id="link_*start*system__cooling_system__cooling__decide"><path d="M66.3251,516.3881 C66.3251,524.3281 66.3251,536.1181 66.3251,546.8081 " fill="none" id="*start*system__cooling-to-system__cooling__decide" style="stroke:#181818;stroke-width:1.0;"/><polygon fill="#181818" points="66.3251,551.5981,70.3251,542.5981,66.3251,546.5981,62.3251,542.5981,66.3251,551.5981" style="stroke:#181818;stroke-width:1.0;"/></g><!--link system__cooling__decide to system__cooling__active--><g id="link_system__cooling__decide_system__cooling__active"><path d="M66.3251,593.3781 C66.3251,607.0081 66.3251,625.4081 66.3251,640.1481 " fill="none" id="system__cooling__decide-to-system__cooling__active" style="stroke:#181818;stroke-width:1.0;"/><polygon fill="#181818" points="66.3251,644.8081,70.3251,635.8081,66.3251,639.8081,62.3251,635.8081,66.3251,644.8081" style="stroke:#181818;stroke-width:1.0;"/><text fill="#000000" font-family="sans-serif" font-size="13" lengthAdjust="spacing" textLength="98" x="67.3251" y="624.145">Decide.Confirm</text></g><!--link system__cooling__active to system__cooling__done--><g id="link_system__cooling__active_system__cooling__done"><path d="M66.3251,686.5181 C66.3251,714.6981 66.3251,766.9081 66.3251,797.9681 " fill="none" id="system__cooling__active-to-system__cooling__done" style="stroke:#181818;stroke-width:1.0;"/><polygon fill="#181818" points="66.3251,802.8781,70.3251,793.8781,66.3251,797.8781,62.3251,793.8781,66.3251,802.8781" style="stroke:#181818;stroke-width:1.0;"/><text fill="#000000" font-family="sans-serif" font-size="13" lengthAdjust="spacing" textLength="127" x="67.3251" y="717.145">temperature &lt;= 20</text><path d="M85.3251,726.2109 L85.3251,781.2109 L176.3251,781.2109 L176.3251,736.2109 L166.3251,726.2109 L85.3251,726.2109 " fill="#FEFFDD" style="stroke:#181818;stroke-width:0.5;"/><path d="M166.3251,726.2109 L166.3251,736.2109 L176.3251,736.2109 L166.3251,726.2109 " fill="#FEFFDD" style="stroke:#181818;stroke-width:0.5;"/><text fill="#000000" font-family="sans-serif" font-size="13" lengthAdjust="spacing" textLength="48" x="91.3251" y="743.2778">effect {</text><text fill="#000000" font-family="sans-serif" font-size="13" lengthAdjust="spacing" textLength="54" x="107.3251" y="758.4106">flag = 1;</text><text fill="#000000" font-family="sans-serif" font-size="13" lengthAdjust="spacing" textLength="8" x="91.3251" y="773.5435">}</text></g><ellipse cx="114.8251" cy="253.7813" fill="#181818" rx="10" ry="10" style="stroke:none;stroke-width:1.0;"/><!--link *start*system to system__idle--><g id="link_*start*system_system__idle"><path d="M114.8251,264.0912 C114.8251,272.0313 114.8251,283.8212 114.8251,294.5113 " fill="none" id="*start*system-to-system__idle" style="stroke:#181818;stroke-width:1.0;"/><polygon fill="#181818" points="114.8251,299.3013,118.8251,290.3013,114.8251,294.3013,110.8251,290.3013,114.8251,299.3013" style="stroke:#181818;stroke-width:1.0;"/></g><!--link system__idle to system__cooling--><g id="link_system__idle_system__cooling"><path d="M89.6351,329.3412 C75.5351,335.0113 59.1651,344.3313 50.8251,358.7813 C34.2151,387.5613 29.6851,420.1713 32.2851,452.9713 " fill="none" id="system__idle-to-system__cooling" style="stroke:#181818;stroke-width:1.0;"/><polygon fill="#181818" points="32.8051,457.6613,35.9666,448.3336,32.3485,452.6821,28,449.0641,32.8051,457.6613" style="stroke:#181818;stroke-width:1.0;"/><text fill="#000000" font-family="sans-serif" font-size="13" lengthAdjust="spacing" textLength="105" x="51.8251" y="404.3481">Idle.StartCooling</text></g><!--link system__idle to system__cooling--><g id="link_system__idle_system__cooling"><path d="M140.0551,337.3713 C147.1451,343.1413 153.9651,350.3713 157.8251,358.7813 C171.2551,388.0513 175.6751,420.5113 174.6551,452.9013 " fill="none" id="system__idle-to-system__cooling-1" style="stroke:#181818;stroke-width:1.0;"/><polygon fill="#181818" points="174.4251,457.5213,178.8068,448.7008,174.6391,452.5258,170.8141,448.3582,174.4251,457.5213" style="stroke:#181818;stroke-width:1.0;"/><text fill="#000000" font-family="sans-serif" font-size="13" lengthAdjust="spacing" textLength="235" x="174.8251" y="371.8481">temperature &gt; 30 &amp;&amp; enabled == 1</text><path d="M246.8251,380.9141 L246.8251,435.9141 L337.8251,435.9141 L337.8251,390.9141 L327.8251,380.9141 L246.8251,380.9141 " fill="#FEFFDD" style="stroke:#181818;stroke-width:0.5;"/><path d="M327.8251,380.9141 L327.8251,390.9141 L337.8251,390.9141 L327.8251,380.9141 " fill="#FEFFDD" style="stroke:#181818;stroke-width:0.5;"/><text fill="#000000" font-family="sans-serif" font-size="13" lengthAdjust="spacing" textLength="48" x="252.8251" y="397.981">effect {</text><text fill="#000000" font-family="sans-serif" font-size="13" lengthAdjust="spacing" textLength="54" x="268.8251" y="413.1138">flag = 1;</text><text fill="#000000" font-family="sans-serif" font-size="13" lengthAdjust="spacing" textLength="8" x="252.8251" y="428.2466">}</text></g><ellipse cx="213.5" cy="136.4844" fill="#181818" rx="10" ry="10" style="stroke:none;stroke-width:1.0;"/><ellipse cx="213.5" cy="934.4844" fill="none" rx="10" ry="10" style="stroke:#181818;stroke-width:1.0;"/><ellipse cx="214" cy="934.9844" fill="#181818" rx="6" ry="6" style="stroke:none;stroke-width:1.0;"/><!--link *start* to system--><g id="link_*start*_system"><path d="M213.5,146.9044 C213.5,157.5044 213.5,176.4144 213.5,200.3744 " fill="none" id="*start*-to-system" style="stroke:#181818;stroke-width:1.0;"/><polygon fill="#181818" points="213.5,205.2244,217.5,196.2244,213.5,200.2244,209.5,196.2244,213.5,205.2244" style="stroke:#181818;stroke-width:1.0;"/></g><!--link system to *end*--><g id="link_system_*end*"><path d="M213.5,864.7844 C213.5,887.6344 213.5,906.4044 213.5,918.5144 " fill="none" id="system-to-*end*" style="stroke:#181818;stroke-width:1.0;"/><polygon fill="#181818" points="213.5,923.2244,217.5,914.2244,213.5,918.2244,209.5,914.2244,213.5,923.2244" style="stroke:#181818;stroke-width:1.0;"/></g><!--SRC=[ZLF1Qjj04BtlLmmEv128SH9oQMr3uz0IwCsbbr3CPdUaB5xlYjKu86h_UqShHLxP4bG7IRmty_RDq-ZTQ0JS5LI1nb85Kv3nJeXoQrmXWzn1IP8G_Wg09wcsUV1xfrVU-Z2V5oNkjLykuQV9t-b7aDLGbVAxmfU6yBFmoUwnBlH1OpYNQbM-UqThgYmcb25fZH978Ipcw3IGBy1YHkAmWDyo6Fbc4VZzLrN4vuipPAHbZa-4WpY0Ob-40GvW7F5z5b7Y0318sWVicFl7IA6hHNK7tqKqipBlQR2RnXCd5_EQhAkIPISWIoZZA_IJg0E5Djp92tSdfPkDOI0jM7blZSjxDQh11dMJrcTK_8s7EZSR7Jb8ChvY0gVQ4w4-L_gco7oCACd8NPpjtTZ9p7JLhpT_uFPsEURlf3hYVx2tSGHVe0bWkl8kCs4tBjOs31jXkooLBify0VUpJirvdjSxuF9j1sAMeQBaazHNt9q5t7tjqEEfWPUwLX8d-3oRqsOam91fjbklrNHDCb2xF__RcCwvX8SPN5ztVyA2lOl1aI_6xO_QpDEDU1JzqKJxczG8C_y0]--></g></svg>