<svg xmlns="http://www.w3.org/2000/svg" xmlns:xlink="http://www.w3.org/1999/xlink" version="1.1" data-diagram-type="STATE" style="width:456px;height:967px;background:#FFFFFF;" width="456px" height="967px" viewBox="0 0 456 967" zoomAndPan="magnify" preserveAspectRatio="none" contentStyleType="text/css"><?plantuml 1.2026.7beta8?><defs/><g font-family="sans-serif" lengthAdjust="spacing"><g class="legend" data-source-line="10"><rect x="12" y="12" width="260.024" height="95.484" fill="#DDD" style="stroke:#000;stroke-width:1;" rx="7.5" ry="7.5"/><text x="21.874" y="31.995" fill="#000" font-size="14" textLength="65.748" font-weight="700">Variable</text><text x="119.081" y="31.995" fill="#000" font-size="14" textLength="38.192" font-weight="700">Type</text><text x="167.021" y="31.995" fill="#000" font-size="14" textLength="95.129" font-weight="700">Initial Value</text><text x="21.45" y="48.292" fill="#000" font-size="14" textLength="53.867">counter</text><text x="118.657" y="48.292" fill="#000" font-size="14" textLength="18.252">int</text><text x="166.598" y="48.292" fill="#000" font-size="14">0</text><text x="21.45" y="64.589" fill="#000" font-size="14" textLength="88.307">temperature</text><text x="118.657" y="64.589" fill="#000" font-size="14" textLength="18.252">int</text><text x="166.598" y="64.589" fill="#000" font-size="14" textLength="17.814">25</text><text x="21.45" y="80.886" fill="#000" font-size="14" textLength="56.342">enabled</text><text x="118.657" y="80.886" fill="#000" font-size="14" textLength="18.252">int</text><text x="166.598" y="80.886" fill="#000" font-size="14">1</text><text x="21.45" y="97.183" fill="#000" font-size="14" textLength="26.284">flag</text><text x="118.657" y="97.183" fill="#000" font-size="14" textLength="18.252">int</text><text x="166.598" y="97.183" fill="#000" font-size="14">0</text><line x1="17" y1="19" x2="267.024" y2="19" style="stroke:#000;stroke-width:1;"/><line x1="17" y1="35.297" x2="267.024" y2="35.297" style="stroke:#000;stroke-width:1;"/><line x1="17" y1="51.594" x2="267.024" y2="51.594" style="stroke:#000;stroke-width:1;"/><line x1="17" y1="67.891" x2="267.024" y2="67.891" style="stroke:#000;stroke-width:1;"/><line x1="17" y1="84.188" x2="267.024" y2="84.188" style="stroke:#000;stroke-width:1;"/><line x1="17" y1="100.484" x2="267.024" y2="100.484" style="stroke:#000;stroke-width:1;"/><line x1="17" y1="19" x2="17" y2="100.484" style="stroke:#000;stroke-width:1;"/><line x1="114.207" y1="19" x2="114.207" y2="100.484" style="stroke:#000;stroke-width:1;"/><line x1="162.147" y1="19" x2="162.147" y2="100.484" style="stroke:#000;stroke-width:1;"/><line x1="267.024" y1="19" x2="267.024" y2="100.484" style="stroke:#000;stroke-width:1;"/></g><g class="entity" data-qualified-name="system" id="ent0001" data-source-line="18"><path d="M19.5,206.484 L429.295,206.484 A12.5,12.5 0 0 1 441.795,218.984 L441.795,232.781 L7,232.781 L7,218.984 A12.5,12.5 0 0 1 19.5,206.484" fill="#ADD8E6"/><path d="M7,232.781 L441.795,232.781 L441.795,858.578 A12.5,12.5 0 0 1 429.295,871.078 L19.5,871.078 A12.5,12.5 0 0 1 7,858.578 L7,232.781" fill="#ADD8E6"/><rect x="7" y="206.484" width="434.795" height="664.594" fill="none" style="stroke:#181818;stroke-width:0.5;" rx="12.5" ry="12.5"/><line x1="7" y1="232.781" x2="441.795" y2="232.781" style="stroke:#181818;stroke-width:0.5;"/><text x="198.295" y="224.479" fill="#000" font-size="14" textLength="52.206">System</text><rect x="91.92" y="300.781" width="50" height="40" fill="#F1F1F1" style="stroke:#181818;stroke-width:0.5;" rx="12.5" ry="12.5"/><text x="104.161" y="325.628" fill="#000" font-size="14" textLength="25.519">Idle</text><g class="entity" data-qualified-name="system.system__cooling" id="ent0003" data-source-line="20"><path d="M31.5,458.781 L202.331,458.781 A12.5,12.5 0 0 1 214.831,471.281 L214.831,485.078 L19,485.078 L19,471.281 A12.5,12.5 0 0 1 31.5,458.781" fill="#ADD8E6"/><path d="M19,485.078 L214.831,485.078 L214.831,844.578 A12.5,12.5 0 0 1 202.331,857.078 L31.5,857.078 A12.5,12.5 0 0 1 19,844.578 L19,485.078" fill="#ADD8E6"/><rect x="19" y="458.781" width="195.831" height="398.297" fill="none" style="stroke:#181818;stroke-width:0.5;" rx="12.5" ry="12.5"/><line x1="19" y1="485.078" x2="214.831" y2="485.078" style="stroke:#181818;stroke-width:0.5;"/><text x="90.693" y="476.776" fill="#000" font-size="14" textLength="52.445">Cooling</text><rect x="31" y="553.078" width="58.48" height="40" fill="#D3D3D3" style="stroke:#808080;stroke-width:1;stroke-dasharray:1,3;" rx="12.5" ry="12.5"/><text x="36" y="577.925" fill="#000" font-size="14" textLength="48.48" font-style="italic">Decide</text><rect x="33.46" y="646.078" width="53.552" height="40" fill="#F1F1F1" style="stroke:#181818;stroke-width:0.5;" rx="12.5" ry="12.5"/><text x="38.46" y="670.925" fill="#000" font-size="14" textLength="43.552">Active</text><rect x="35.24" y="804.078" width="50" height="40" fill="#F1F1F1" style="stroke:#181818;stroke-width:0.5;" rx="12.5" ry="12.5"/><text x="41.824" y="828.925" fill="#000" font-size="14" textLength="36.832">Done</text><g class="start_entity" data-qualified-name="system.system__cooling..start.system__cooling" id="ent0007" data-source-line="24"><ellipse cx="60.24" cy="506.078" rx="10" ry="10" fill="#222" style="stroke:#222;stroke-width:1;"/></g><!--link *start*system__cooling to system__cooling__decide--><g class="link" data-entity-1="ent0007" data-entity-2="ent0004" id="lnk8" data-source-line="24" data-link-type="dependency"><path d="M60.24,516.388 C60.24,525.798 60.24,535.618 60.24,547.598" style="stroke:#181818;stroke-width:1;" fill="none" id="*start*system__cooling-to-system__cooling__decide"/><polygon points="60.24,552.598,64.24,543.598,60.24,547.598,56.24,543.598,60.24,552.598" fill="#181818" style="stroke:#181818;stroke-width:1;stroke-linejoin:miter;stroke-miterlimit:10;"/></g><!--link system__cooling__decide to system__cooling__active--><g class="link" data-entity-1="ent0004" data-entity-2="ent0005" id="lnk9" data-source-line="25" data-link-type="dependency"><path d="M60.24,593.378 C60.24,608.818 60.24,625.368 60.24,640.808" style="stroke:#181818;stroke-width:1;" fill="none" id="system__cooling__decide-to-system__cooling__active"/><polygon points="60.24,645.808,64.24,636.808,60.24,640.808,56.24,636.808,60.24,645.808" fill="#181818" style="stroke:#181818;stroke-width:1;stroke-linejoin:miter;stroke-miterlimit:10;"/><text x="61.24" y="624.145" fill="#000" font-size="13" textLength="100.617">Decide.Confirm</text></g><!--link system__cooling__active to system__cooling__done--><g class="link" data-entity-1="ent0005" data-entity-2="ent0006" id="lnk10" data-source-line="26" data-link-type="dependency"><path d="M60.24,686.518 C60.24,716.578 60.24,768.978 60.24,798.878" style="stroke:#181818;stroke-width:1;" fill="none" id="system__cooling__active-to-system__cooling__done"/><polygon points="60.24,803.878,64.24,794.878,60.24,798.878,56.24,794.878,60.24,803.878" fill="#181818" style="stroke:#181818;stroke-width:1;stroke-linejoin:miter;stroke-miterlimit:10;"/><text x="61.24" y="717.145" fill="#000" font-size="13" textLength="128.591">temperature &lt;= 20</text><path d="M78.663,726.211 L78.663,781.211 L171.663,781.211 L171.663,736.211 L161.663,726.211 L78.663,726.211" style="stroke:#181818;stroke-width:0.5;" fill="#FEFFDD"/><path d="M161.663,726.211 L161.663,736.211 L171.663,736.211 L161.663,726.211" style="stroke:#181818;stroke-width:0.5;" fill="#FEFFDD"/><text x="84.663" y="743.278" fill="#000" font-size="13" textLength="49.797">effect {</text><text x="101.193" y="758.411" fill="#000" font-size="13" textLength="56.215">flag = 1;</text><text x="84.663" y="773.543" fill="#000" font-size="13">}</text></g></g><g class="start_entity" data-qualified-name="system..start.system" id="ent0011" data-source-line="33"><ellipse cx="116.92" cy="253.781" rx="10" ry="10" fill="#222" style="stroke:#222;stroke-width:1;"/></g><!--link *start*system to system__idle--><g class="link" data-entity-1="ent0011" data-entity-2="ent0002" id="lnk12" data-source-line="33" data-link-type="dependency"><path d="M116.92,264.101 C116.92,273.501 116.92,283.321 116.92,295.311" style="stroke:#181818;stroke-width:1;" fill="none" id="*start*system-to-system__idle"/><polygon points="116.92,300.311,120.92,291.311,116.92,295.311,112.92,291.311,116.92,300.311" fill="#181818" style="stroke:#181818;stroke-width:1;stroke-linejoin:miter;stroke-miterlimit:10;"/></g><!--link system__idle to system__cooling--><g class="link" data-entity-1="ent0002" data-entity-2="ent0003" id="lnk13" data-source-line="34" data-link-type="dependency"><path d="M91.67,329.111 C77.29,334.731 60.47,344.081 51.92,358.781 C33.6,390.291 46.61,404.731 51.92,440.781 C52.77,446.601 52.851,447.553 53.931,453.463" style="stroke:#181818;stroke-width:1;" fill="none" id="system__idle-to-system__cooling"/><polygon points="54.83,458.381,57.147,448.809,53.931,453.463,49.277,450.247,54.83,458.381" fill="#181818" style="stroke:#181818;stroke-width:1;stroke-linejoin:miter;stroke-miterlimit:10;"/><text x="52.92" y="404.348" fill="#000" font-size="13" textLength="108.285">Idle.StartCooling</text></g><!--link system__idle to system__cooling--><g class="link" data-entity-1="ent0002" data-entity-2="ent0003" id="lnk14" data-source-line="35" data-link-type="dependency"><path d="M142.34,336.431 C150.09,342.301 157.68,349.821 161.92,358.781 C176.51,389.671 180.991,419.188 179.201,453.468" style="stroke:#181818;stroke-width:1;" fill="none" id="system__idle-to-system__cooling-1"/><polygon points="178.94,458.461,183.404,449.682,179.201,453.468,175.415,449.265,178.94,458.461" fill="#181818" style="stroke:#181818;stroke-width:1;stroke-linejoin:miter;stroke-miterlimit:10;"/><text x="179.92" y="371.848" fill="#000" font-size="13" textLength="236.875">temperature > 30 &amp;&amp; enabled == 1</text><path d="M251.486,380.914 L251.486,435.914 L344.486,435.914 L344.486,390.914 L334.486,380.914 L251.486,380.914" style="stroke:#181818;stroke-width:0.5;" fill="#FEFFDD"/><path d="M334.486,380.914 L334.486,390.914 L344.486,390.914 L334.486,380.914" style="stroke:#181818;stroke-width:0.5;" fill="#FEFFDD"/><text x="257.486" y="397.981" fill="#000" font-size="13" textLength="49.797">effect {</text><text x="274.015" y="413.114" fill="#000" font-size="13" textLength="56.215">flag = 1;</text><text x="257.486" y="428.247" fill="#000" font-size="13">}</text></g></g><g class="start_entity" data-qualified-name=".start." id="ent0015" data-source-line="42"><ellipse cx="224.4" cy="136.484" rx="10" ry="10" fill="#222" style="stroke:#222;stroke-width:1;"/></g><g class="end_entity" data-qualified-name=".end." id="ent0017" data-source-line="43"><ellipse cx="224.4" cy="942.074" rx="11" ry="11" fill="none" style="stroke:#222;stroke-width:1;"/><ellipse cx="224.4" cy="942.074" rx="6" ry="6" fill="#222" style="stroke:#222;stroke-width:1;"/></g><!--link *start* to system--><g class="link" data-entity-1="ent0015" data-entity-2="ent0001" id="lnk16" data-source-line="42" data-link-type="dependency"><path d="M224.4,146.594 C224.4,157.944 224.4,174.154 224.4,201.054" style="stroke:#181818;stroke-width:1;" fill="none" id="*start*-to-system"/><polygon points="224.4,206.054,228.4,197.054,224.4,201.054,220.4,197.054,224.4,206.054" fill="#181818" style="stroke:#181818;stroke-width:1;stroke-linejoin:miter;stroke-miterlimit:10;"/></g><!--link system to *end*--><g class="link" data-entity-1="ent0001" data-entity-2="ent0017" id="lnk18" data-source-line="43" data-link-type="dependency"><path d="M224.4,871.174 C224.4,897.814 224.4,914.014 224.4,925.804" style="stroke:#181818;stroke-width:1;" fill="none" id="system-to-*end*"/><polygon points="224.4,930.804,228.4,921.804,224.4,925.804,220.4,921.804,224.4,930.804" fill="#181818" style="stroke:#181818;stroke-width:1;stroke-linejoin:miter;stroke-miterlimit:10;"/></g><?plantuml-src ZLF1Qjj04BtlLmmEv128SH9oQMr3uz0IwCsbbr3CPdUaB5xlYjKu86h_UqShHLxP4bG7IRmty_RDq-ZTQ0JS5LI1nb85Kv3nJeXoQrmXWzn1IP8G_Wg09wcsUV1xfrVU-Z2V5oNkjLykuQV9t-b7aDLGbVAxmfU6yBFmoUwnBlH1OpYNQbM-UqThgYmcb25fZH978Ipcw3IGBy1YHkAmWDyo6Fbc4VZzLrN4vuipPAHbZa-4WpY0Ob-40GvW7F5z5b7Y0318sWVicFl7IA6hHNK7tqKqipBlQR2RnXCd5_EQhAkIPISWIoZZA_IJg0E5Djp92tSdfPkDOI0jM7blZSjxDQh11dMJrcTK_8s7EZSR7Jb8ChvY0gVQ4w4-L_gco7oCACd8NPpjtTZ9p7JLhpT_uFPsEURlf3hYVx2tSGHVe0bWkl8kCs4tBjOs31jXkooLBify0VUpJirvdjSxuF9j1sAMeQBaazHNt9q5t7tjqEEfWPUwLX8d-3oRqsOam91fjbklrNHDCb2xF__RcCwvX8SPN5ztVyA2lOl1aI_6xO_QpDEDU1JzqKJxczG8C_y0?></g></svg>