<svg xmlns="http://www.w3.org/2000/svg" xmlns:xlink="http://www.w3.org/1999/xlink" contentStyleType="text/css" data-diagram-type="STATE" height="526px" preserveAspectRatio="none" style="width:269px;height:526px;background:#FFFFFF;" version="1.1" viewBox="0 0 269 526" width="269px" zoomAndPan="magnify"><?plantuml 1.2026.3beta4?><defs/><g><g class="legend" data-source-line="10"><rect fill="#DDDDDD" height="46.5938" rx="7.5" ry="7.5" style="stroke:#000000;stroke-width:1;" width="238.3135" x="12" y="12"/><text fill="#000000" font-family="sans-serif" font-size="14" font-weight="bold" lengthAdjust="spacing" textLength="65.748" x="21.874" y="31.9951">Variable</text><text fill="#000000" font-family="sans-serif" font-size="14" font-weight="bold" lengthAdjust="spacing" textLength="38.1924" x="97.3701" y="31.9951">Type</text><text fill="#000000" font-family="sans-serif" font-size="14" font-weight="bold" lengthAdjust="spacing" textLength="95.1289" x="145.3105" y="31.9951">Initial Value</text><text fill="#000000" font-family="sans-serif" font-size="14" lengthAdjust="spacing" textLength="36.1348" x="21.4502" y="48.292">trace</text><text fill="#000000" font-family="sans-serif" font-size="14" lengthAdjust="spacing" textLength="18.252" x="96.9463" y="48.292">int</text><text fill="#000000" font-family="sans-serif" font-size="14" lengthAdjust="spacing" textLength="8.9072" x="144.8867" y="48.292">0</text><line style="stroke:#000000;stroke-width:1;" x1="17" x2="245.3135" y1="19" y2="19"/><line style="stroke:#000000;stroke-width:1;" x1="17" x2="245.3135" y1="35.2969" y2="35.2969"/><line style="stroke:#000000;stroke-width:1;" x1="17" x2="245.3135" y1="51.5938" y2="51.5938"/><line style="stroke:#000000;stroke-width:1;" x1="17" x2="17" y1="19" y2="51.5938"/><line style="stroke:#000000;stroke-width:1;" x1="92.4961" x2="92.4961" y1="19" y2="51.5938"/><line style="stroke:#000000;stroke-width:1;" x1="140.4365" x2="140.4365" y1="19" y2="51.5938"/><line style="stroke:#000000;stroke-width:1;" x1="245.3135" x2="245.3135" y1="19" y2="51.5938"/></g><path d="M36.0835,157.5938 L225.23,157.5938 A12.5,12.5 0 0 1 237.73,170.0938 L237.73,272.7031 L23.5835,272.7031 L23.5835,170.0938 A12.5,12.5 0 0 1 36.0835,157.5938" fill="#ADD8E6"/><rect fill="none" height="273.3125" rx="12.5" ry="12.5" style="stroke:#181818;stroke-width:0.5;" width="214.1465" x="23.5835" y="157.5938"/><line style="stroke:#181818;stroke-width:0.5;" x1="23.5835" x2="237.73" y1="272.7031" y2="272.7031"/><line style="stroke:#181818;stroke-width:0.5;" x1="23.5835" x2="237.73" y1="183.8906" y2="183.8906"/><text fill="#000000" font-family="sans-serif" font-size="14" lengthAdjust="spacing" textLength="32.3477" x="114.4829" y="175.5889">Root</text><text fill="#000000" font-family="sans-serif" font-size="12" lengthAdjust="spacing" textLength="116.7832" x="28.5835" y="195.0293">&gt;&gt; during before {</text><text fill="#000000" font-family="sans-serif" font-size="12" lengthAdjust="spacing" textLength="137.8887" x="43.8413" y="208.998">trace = trace * 10 + 1;</text><text fill="#000000" font-family="sans-serif" font-size="12" lengthAdjust="spacing" textLength="7.6348" x="28.5835" y="222.9668">}</text><text fill="#000000" font-family="sans-serif" font-size="12" lengthAdjust="spacing" textLength="106.5" x="28.5835" y="236.9355">&gt;&gt; during after {</text><text fill="#000000" font-family="sans-serif" font-size="12" lengthAdjust="spacing" textLength="137.8887" x="43.8413" y="250.9043">trace = trace * 10 + 3;</text><text fill="#000000" font-family="sans-serif" font-size="12" lengthAdjust="spacing" textLength="7.6348" x="28.5835" y="264.873">}</text><g class="entity" data-qualified-name="root.root__a" id="ent0003"><rect fill="#F1F1F1" height="78.2031" rx="12.5" ry="12.5" style="stroke:#181818;stroke-width:0.5;" width="173.1465" x="35.5835" y="339.7031"/><line style="stroke:#181818;stroke-width:0.5;" x1="35.5835" x2="208.73" y1="366" y2="366"/><text fill="#000000" font-family="sans-serif" font-size="14" lengthAdjust="spacing" textLength="9.5771" x="117.3682" y="357.6982">A</text><text fill="#000000" font-family="sans-serif" font-size="12" lengthAdjust="spacing" textLength="50.1621" x="40.5835" y="382.1387">during {</text><text fill="#000000" font-family="sans-serif" font-size="12" lengthAdjust="spacing" textLength="137.8887" x="55.8413" y="396.1074">trace = trace * 10 + 2;</text><text fill="#000000" font-family="sans-serif" font-size="12" lengthAdjust="spacing" textLength="7.6348" x="40.5835" y="410.0762">}</text></g><g class="start_entity" data-qualified-name="root..start.root" data-source-line="18" id="ent0002"><ellipse cx="122.1535" cy="293.7031" fill="#222222" rx="10" ry="10" style="stroke:#222222;stroke-width:1;"/></g><!--link *start*root to root__a--><g class="link" data-entity-1="ent0002" data-entity-2="ent0003" data-link-type="dependency" data-source-line="18" id="lnk3"><path d="M122.1535,303.9131 C122.1535,312.6131 122.1535,320.2731 122.1535,333.5031" fill="none" id="*start*root-to-root__a" style="stroke:#181818;stroke-width:1;"/><polygon fill="#181818" points="122.1535,339.5031,126.1535,330.5031,122.1535,334.5031,118.1535,330.5031,122.1535,339.5031" style="stroke:#181818;stroke-width:1;"/></g><g class="start_entity" data-qualified-name=".start." data-source-line="21" id="ent0004"><ellipse cx="130.6535" cy="87.5938" fill="#222222" rx="10" ry="10" style="stroke:#222222;stroke-width:1;"/></g><g class="end_entity" data-qualified-name=".end." data-source-line="22" id="ent0006"><ellipse cx="130.6535" cy="501.9038" fill="none" rx="11" ry="11" style="stroke:#222222;stroke-width:1;"/><ellipse cx="130.6535" cy="501.9038" fill="#222222" rx="6" ry="6" style="stroke:#222222;stroke-width:1;"/></g><!--link *start* to root--><g class="link" data-entity-1="ent0004" data-entity-2="ent0002" data-link-type="dependency" data-source-line="21" id="lnk5"><path d="M130.6535,97.9138 C130.6535,109.8838 130.6535,126.1338 130.6535,151.4638" fill="none" id="*start*-to-root" style="stroke:#181818;stroke-width:1;"/><polygon fill="#181818" points="130.6535,157.4638,134.6535,148.4638,130.6535,152.4638,126.6535,148.4638,130.6535,157.4638" style="stroke:#181818;stroke-width:1;"/></g><!--link root to *end*--><g class="link" data-entity-1="ent0002" data-entity-2="ent0006" data-link-type="dependency" data-source-line="22" id="lnk7"><path d="M130.6535,431.2738 C130.6535,456.3738 130.6535,472.5138 130.6535,484.7738" fill="none" id="root-to-*end*" style="stroke:#181818;stroke-width:1;"/><polygon fill="#181818" points="130.6535,490.7738,134.6535,481.7738,130.6535,485.7738,126.6535,481.7738,130.6535,490.7738" style="stroke:#181818;stroke-width:1;"/></g><?plantuml-src VL31JW913BtFLpGSCIIWDmGICT6OU5BZHGmfEzrbmZ2TTBk73V3lpYuheZ5Sfc_Qr_VQhfqbe6tK6YoLcRYeZeCnvSQ5Y89RA1MLO6S0vfXj2k4gs7lsB9D9BAcoF9l1iolM-YXO_yVAU1kvT4hVnBclg26oM9A_KftA0mTzrThJMSafUfUPWp6U2WeMb2DuojNif_2Eud3b2H9-gsCRdu9JXpxLaYFipHvKC4i8ND3q3bCkwHpLqixjfhqNPkq1bY09mE_vcpD0TvBUtOcrN69Rw32CmLRYGW6xHMZoHzjf5_im6i8LNDykmg5j--X_mc0mEqaTJ6izXkJO2QqePw6BUgD6Rn5-UZ1NaeijD-q8v_P7v-QNiby0?></g></svg>