<svg xmlns="http://www.w3.org/2000/svg" xmlns:xlink="http://www.w3.org/1999/xlink" contentStyleType="text/css" data-diagram-type="STATE" height="694px" preserveAspectRatio="none" style="width:269px;height:694px;background:#FFFFFF;" version="1.1" viewBox="0 0 269 694" width="269px" zoomAndPan="magnify"><?plantuml 1.2026.3beta4?><defs/><g><g class="legend" data-source-line="10"><rect fill="#DDDDDD" height="46.5938" rx="7.5" ry="7.5" style="stroke:#000000;stroke-width:1;" width="238.3135" x="12" y="12"/><text fill="#000000" font-family="sans-serif" font-size="14" font-weight="bold" lengthAdjust="spacing" textLength="65.748" x="21.874" y="31.9951">Variable</text><text fill="#000000" font-family="sans-serif" font-size="14" font-weight="bold" lengthAdjust="spacing" textLength="38.1924" x="97.3701" y="31.9951">Type</text><text fill="#000000" font-family="sans-serif" font-size="14" font-weight="bold" lengthAdjust="spacing" textLength="95.1289" x="145.3105" y="31.9951">Initial Value</text><text fill="#000000" font-family="sans-serif" font-size="14" lengthAdjust="spacing" textLength="53.8672" x="21.4502" y="48.292">counter</text><text fill="#000000" font-family="sans-serif" font-size="14" lengthAdjust="spacing" textLength="18.252" x="96.9463" y="48.292">int</text><text fill="#000000" font-family="sans-serif" font-size="14" lengthAdjust="spacing" textLength="8.9072" x="144.8867" y="48.292">0</text><line style="stroke:#000000;stroke-width:1;" x1="17" x2="245.3135" y1="19" y2="19"/><line style="stroke:#000000;stroke-width:1;" x1="17" x2="245.3135" y1="35.2969" y2="35.2969"/><line style="stroke:#000000;stroke-width:1;" x1="17" x2="245.3135" y1="51.5938" y2="51.5938"/><line style="stroke:#000000;stroke-width:1;" x1="17" x2="17" y1="19" y2="51.5938"/><line style="stroke:#000000;stroke-width:1;" x1="92.4961" x2="92.4961" y1="19" y2="51.5938"/><line style="stroke:#000000;stroke-width:1;" x1="140.4365" x2="140.4365" y1="19" y2="51.5938"/><line style="stroke:#000000;stroke-width:1;" x1="245.3135" x2="245.3135" y1="19" y2="51.5938"/></g><path d="M67.7393,157.5938 L193.5742,157.5938 A12.5,12.5 0 0 1 206.0742,170.0938 L206.0742,183.8906 L55.2393,183.8906 L55.2393,170.0938 A12.5,12.5 0 0 1 67.7393,157.5938" fill="#ADD8E6"/><rect fill="none" height="440.5938" rx="12.5" ry="12.5" style="stroke:#181818;stroke-width:0.5;" width="150.835" x="55.2393" y="157.5938"/><line style="stroke:#181818;stroke-width:0.5;" x1="55.2393" x2="206.0742" y1="183.8906" y2="183.8906"/><text fill="#000000" font-family="sans-serif" font-size="14" lengthAdjust="spacing" textLength="32.3477" x="114.4829" y="175.5889">Root</text><rect fill="#F1F1F1" height="40" rx="12.5" ry="12.5" style="stroke:#181818;stroke-width:0.5;" width="50" x="99.6593" y="251.8906"/><text fill="#000000" font-family="sans-serif" font-size="14" lengthAdjust="spacing" textLength="9.5771" x="119.8707" y="276.7373">A</text><path d="M79.7393,344.8906 L169.5742,344.8906 A12.5,12.5 0 0 1 182.0742,357.3906 L182.0742,371.1875 L67.2393,371.1875 L67.2393,357.3906 A12.5,12.5 0 0 1 79.7393,344.8906" fill="#ADD8E6"/><rect fill="none" height="240.2969" rx="12.5" ry="12.5" style="stroke:#181818;stroke-width:0.5;" width="114.835" x="67.2393" y="344.8906"/><line style="stroke:#181818;stroke-width:0.5;" x1="67.2393" x2="182.0742" y1="371.1875" y2="371.1875"/><text fill="#000000" font-family="sans-serif" font-size="14" lengthAdjust="spacing" textLength="9.6045" x="119.8545" y="362.8857">B</text><rect fill="#F1F1F1" height="40" rx="12.5" ry="12.5" style="stroke:#181818;stroke-width:0.5;" width="50" x="79.2393" y="439.1875"/><text fill="#000000" font-family="sans-serif" font-size="14" lengthAdjust="spacing" textLength="18.5117" x="94.9834" y="464.0342">B1</text><rect fill="#F1F1F1" height="40" rx="12.5" ry="12.5" style="stroke:#181818;stroke-width:0.5;" width="50" x="79.2393" y="532.1875"/><text fill="#000000" font-family="sans-serif" font-size="14" lengthAdjust="spacing" textLength="18.5117" x="94.9834" y="557.0342">B2</text><g class="start_entity" data-qualified-name="root.root__b..start.root__b" data-source-line="20" id="ent0002"><ellipse cx="104.2393" cy="392.1875" fill="#222222" rx="10" ry="10" style="stroke:#222222;stroke-width:1;"/></g><!--link *start*root__b to root__b__b1--><g class="link" data-entity-1="ent0002" data-entity-2="ent0005" data-link-type="dependency" data-source-line="20" id="lnk3"><path d="M104.2393,402.4975 C104.2393,411.9075 104.2393,420.7275 104.2393,432.7075" fill="none" id="*start*root__b-to-root__b__b1" style="stroke:#181818;stroke-width:1;"/><polygon fill="#181818" points="104.2393,438.7075,108.2393,429.7075,104.2393,433.7075,100.2393,429.7075,104.2393,438.7075" style="stroke:#181818;stroke-width:1;"/></g><!--link root__b__b1 to root__b__b2--><g class="link" data-entity-1="ent0005" data-entity-2="ent0006" data-link-type="dependency" data-source-line="21" id="lnk4"><path d="M104.2393,479.4875 C104.2393,494.9275 104.2393,510.4775 104.2393,525.9175" fill="none" id="root__b__b1-to-root__b__b2" style="stroke:#181818;stroke-width:1;"/><polygon fill="#181818" points="104.2393,531.9175,108.2393,522.9175,104.2393,526.9175,100.2393,522.9175,104.2393,531.9175" style="stroke:#181818;stroke-width:1;"/><text fill="#000000" font-family="sans-serif" font-size="13" lengthAdjust="spacing" textLength="51.835" x="105.2393" y="510.2544">B1.Next</text></g><g class="start_entity" data-qualified-name="root..start.root" data-source-line="23" id="ent0005"><ellipse cx="124.6593" cy="204.8906" fill="#222222" rx="10" ry="10" style="stroke:#222222;stroke-width:1;"/></g><!--link *start*root to root__a--><g class="link" data-entity-1="ent0005" data-entity-2="ent0003" data-link-type="dependency" data-source-line="23" id="lnk6"><path d="M124.6593,215.2106 C124.6593,224.6106 124.6593,233.4306 124.6593,245.4206" fill="none" id="*start*root-to-root__a" style="stroke:#181818;stroke-width:1;"/><polygon fill="#181818" points="124.6593,251.4206,128.6593,242.4206,124.6593,246.4206,120.6593,242.4206,124.6593,251.4206" style="stroke:#181818;stroke-width:1;"/></g><!--link root__a to root__b--><g class="link" data-entity-1="ent0003" data-entity-2="ent0004" data-link-type="dependency" data-source-line="24" id="lnk7"><path d="M124.6593,292.2706 C124.6593,305.5606 124.6593,318.4206 124.6593,338.8206" fill="none" id="root__a-to-root__b" style="stroke:#181818;stroke-width:1;"/><polygon fill="#181818" points="124.6593,344.8206,128.6593,335.8206,124.6593,339.8206,120.6593,335.8206,124.6593,344.8206" style="stroke:#181818;stroke-width:1;"/><text fill="#000000" font-family="sans-serif" font-size="13" lengthAdjust="spacing" textLength="39.9712" x="125.6593" y="322.9575">A.GoB</text></g><g class="start_entity" data-qualified-name=".start." data-source-line="26" id="ent0008"><ellipse cx="130.6593" cy="87.5938" fill="#222222" rx="10" ry="10" style="stroke:#222222;stroke-width:1;"/></g><g class="end_entity" data-qualified-name=".end." data-source-line="27" id="ent0010"><ellipse cx="130.6593" cy="669.1838" fill="none" rx="11" ry="11" style="stroke:#222222;stroke-width:1;"/><ellipse cx="130.6593" cy="669.1838" fill="#222222" rx="6" ry="6" style="stroke:#222222;stroke-width:1;"/></g><!--link *start* to root--><g class="link" data-entity-1="ent0008" data-entity-2="ent0002" data-link-type="dependency" data-source-line="26" id="lnk9"><path d="M130.6593,97.8537 C130.6593,109.4738 130.6593,125.0738 130.6593,151.3138" fill="none" id="*start*-to-root" style="stroke:#181818;stroke-width:1;"/><polygon fill="#181818" points="130.6593,157.3138,134.6593,148.3138,130.6593,152.3138,126.6593,148.3138,130.6593,157.3138" style="stroke:#181818;stroke-width:1;"/></g><!--link root to *end*--><g class="link" data-entity-1="ent0002" data-entity-2="ent0010" data-link-type="dependency" data-source-line="27" id="lnk11"><path d="M130.6593,598.5238 C130.6593,624.5638 130.6593,640.1238 130.6593,652.0638" fill="none" id="root-to-*end*" style="stroke:#181818;stroke-width:1;"/><polygon fill="#181818" points="130.6593,658.0638,134.6593,649.0638,130.6593,653.0638,126.6593,649.0638,130.6593,658.0638" style="stroke:#181818;stroke-width:1;"/></g><?plantuml-src RP71QiCm38RlVWgHuw1boN5qWQQmCXWxR6ENCOgRQAcfOnb7WOMbxpurxOhN5e8ZIvz--vStfaB0ndCF5RPbC9uDEQNQhN5U1zr0oveHVXH0eSjj7QXprO8iXTdCjzXLbEVmPEeDBuFkhr4bDPvQm_W75hR3FKYXmd0kTLHv8CUlt5kCIeQrDQNQAMMnHbS1amUBNwo6UtZNmUYrHP3uhVVZ_z4PDjfAJKw4GGrGohqO0mnW7CjwArbHEkY9wz5hyaB42UWMWWJmty5-470SIZ8_KQkLZWj5L5XVLOZXDARbIo-8x8p8JiJ7pITC9ldLxYXtncHm1qKwVSPl7kcTkjGw63h6SR_qpgTBAkGbuWurJck_a-ml?></g></svg>