<svg xmlns="http://www.w3.org/2000/svg" xmlns:xlink="http://www.w3.org/1999/xlink" contentStyleType="text/css" data-diagram-type="STATE" height="522px" preserveAspectRatio="none" style="width:322px;height:522px;background:#FFFFFF;" version="1.1" viewBox="0 0 322 522" width="322px" zoomAndPan="magnify"><?plantuml 1.2026.3beta4?><defs/><g><g class="legend" data-source-line="10"><rect fill="#DDDDDD" height="46.5938" rx="7.5" ry="7.5" style="stroke:#000000;stroke-width:1;" width="238.3135" x="12" y="12"/><text fill="#000000" font-family="sans-serif" font-size="14" font-weight="bold" lengthAdjust="spacing" textLength="65.748" x="21.874" y="31.9951">Variable</text><text fill="#000000" font-family="sans-serif" font-size="14" font-weight="bold" lengthAdjust="spacing" textLength="38.1924" x="97.3701" y="31.9951">Type</text><text fill="#000000" font-family="sans-serif" font-size="14" font-weight="bold" lengthAdjust="spacing" textLength="95.1289" x="145.3105" y="31.9951">Initial Value</text><text fill="#000000" font-family="sans-serif" font-size="14" lengthAdjust="spacing" textLength="53.8672" x="21.4502" y="48.292">counter</text><text fill="#000000" font-family="sans-serif" font-size="14" lengthAdjust="spacing" textLength="18.252" x="96.9463" y="48.292">int</text><text fill="#000000" font-family="sans-serif" font-size="14" lengthAdjust="spacing" textLength="8.9072" x="144.8867" y="48.292">0</text><line style="stroke:#000000;stroke-width:1;" x1="17" x2="245.3135" y1="19" y2="19"/><line style="stroke:#000000;stroke-width:1;" x1="17" x2="245.3135" y1="35.2969" y2="35.2969"/><line style="stroke:#000000;stroke-width:1;" x1="17" x2="245.3135" y1="51.5938" y2="51.5938"/><line style="stroke:#000000;stroke-width:1;" x1="17" x2="17" y1="19" y2="51.5938"/><line style="stroke:#000000;stroke-width:1;" x1="92.4961" x2="92.4961" y1="19" y2="51.5938"/><line style="stroke:#000000;stroke-width:1;" x1="140.4365" x2="140.4365" y1="19" y2="51.5938"/><line style="stroke:#000000;stroke-width:1;" x1="245.3135" x2="245.3135" y1="19" y2="51.5938"/></g><path d="M19.5,157.5938 L294.8472,157.5938 A12.5,12.5 0 0 1 307.3472,170.0938 L307.3472,183.8906 L7,183.8906 L7,170.0938 A12.5,12.5 0 0 1 19.5,157.5938" fill="#ADD8E6"/><rect fill="none" height="269.3125" rx="12.5" ry="12.5" style="stroke:#181818;stroke-width:0.5;" width="300.3472" x="7" y="157.5938"/><line style="stroke:#181818;stroke-width:0.5;" x1="7" x2="307.3472" y1="183.8906" y2="183.8906"/><text fill="#000000" font-family="sans-serif" font-size="14" lengthAdjust="spacing" textLength="32.3477" x="140.9998" y="175.5889">Root</text><g class="entity" data-qualified-name="root.root__a" id="ent0003"><rect fill="#F1F1F1" height="162.0156" rx="12.5" ry="12.5" style="stroke:#181818;stroke-width:0.5;" width="189.916" x="19" y="251.8906"/><line style="stroke:#181818;stroke-width:0.5;" x1="19" x2="208.916" y1="278.1875" y2="278.1875"/><text fill="#000000" font-family="sans-serif" font-size="14" lengthAdjust="spacing" textLength="9.5771" x="109.1694" y="269.8857">A</text><text fill="#000000" font-family="sans-serif" font-size="12" lengthAdjust="spacing" textLength="43.459" x="24" y="294.3262">enter {</text><text fill="#000000" font-family="sans-serif" font-size="12" lengthAdjust="spacing" textLength="139.3887" x="39.2578" y="308.2949">counter = counter + 1;</text><text fill="#000000" font-family="sans-serif" font-size="12" lengthAdjust="spacing" textLength="7.6348" x="24" y="322.2637">}</text><text fill="#000000" font-family="sans-serif" font-size="12" lengthAdjust="spacing" textLength="50.1621" x="24" y="336.2324">during {</text><text fill="#000000" font-family="sans-serif" font-size="12" lengthAdjust="spacing" textLength="147.0234" x="39.2578" y="350.2012">counter = counter + 10;</text><text fill="#000000" font-family="sans-serif" font-size="12" lengthAdjust="spacing" textLength="7.6348" x="24" y="364.1699">}</text><text fill="#000000" font-family="sans-serif" font-size="12" lengthAdjust="spacing" textLength="33.9727" x="24" y="378.1387">exit {</text><text fill="#000000" font-family="sans-serif" font-size="12" lengthAdjust="spacing" textLength="154.6582" x="39.2578" y="392.1074">counter = counter + 100;</text><text fill="#000000" font-family="sans-serif" font-size="12" lengthAdjust="spacing" textLength="7.6348" x="24" y="406.0762">}</text></g><g class="start_entity" data-qualified-name="root..start.root" data-source-line="18" id="ent0002"><ellipse cx="113.96" cy="204.8906" fill="#222222" rx="10" ry="10" style="stroke:#222222;stroke-width:1;"/></g><!--link *start*root to root__a--><g class="link" data-entity-1="ent0002" data-entity-2="ent0003" data-link-type="dependency" data-source-line="18" id="lnk3"><path d="M113.96,215.3706 C113.96,223.7806 113.96,230.9706 113.96,245.5006" fill="none" id="*start*root-to-root__a" style="stroke:#181818;stroke-width:1;"/><polygon fill="#181818" points="113.96,251.5006,117.96,242.5006,113.96,246.5006,109.96,242.5006,113.96,251.5006" style="stroke:#181818;stroke-width:1;"/></g><!--link root__a to root__a--><g class="link" data-entity-1="ent0003" data-entity-2="ent0003" data-link-type="dependency" data-source-line="19" id="lnk4"><path d="M209.14,317.0906 C219.93,320.0506 226.92,325.3206 226.92,332.9006 C226.92,340.4806 225.7162,344.1633 214.9262,347.1233" fill="none" id="root__a-to-root__a" style="stroke:#181818;stroke-width:1;"/><polygon fill="#181818" points="209.14,348.7106,218.8776,350.1871,213.9619,347.3879,216.7611,342.4722,209.14,348.7106" style="stroke:#181818;stroke-width:1;"/><text fill="#000000" font-family="sans-serif" font-size="13" lengthAdjust="spacing" textLength="44.4272" x="232.92" y="337.4675">A.Loop</text></g><g class="start_entity" data-qualified-name=".start." data-source-line="21" id="ent0005"><ellipse cx="157.17" cy="87.5938" fill="#222222" rx="10" ry="10" style="stroke:#222222;stroke-width:1;"/></g><g class="end_entity" data-qualified-name=".end." data-source-line="22" id="ent0007"><ellipse cx="157.17" cy="497.9038" fill="none" rx="11" ry="11" style="stroke:#222222;stroke-width:1;"/><ellipse cx="157.17" cy="497.9038" fill="#222222" rx="6" ry="6" style="stroke:#222222;stroke-width:1;"/></g><!--link *start* to root--><g class="link" data-entity-1="ent0005" data-entity-2="ent0002" data-link-type="dependency" data-source-line="21" id="lnk6"><path d="M157.17,97.8238 C157.17,109.7538 157.17,126.0038 157.17,151.2838" fill="none" id="*start*-to-root" style="stroke:#181818;stroke-width:1;"/><polygon fill="#181818" points="157.17,157.2838,161.17,148.2838,157.17,152.2838,153.17,148.2838,157.17,157.2838" style="stroke:#181818;stroke-width:1;"/></g><!--link root to *end*--><g class="link" data-entity-1="ent0002" data-entity-2="ent0007" data-link-type="dependency" data-source-line="22" id="lnk8"><path d="M157.17,427.3838 C157.17,452.4138 157.17,468.5238 157.17,480.7738" fill="none" id="root-to-*end*" style="stroke:#181818;stroke-width:1;"/><polygon fill="#181818" points="157.17,486.7738,161.17,477.7738,157.17,481.7738,153.17,477.7738,157.17,486.7738" style="stroke:#181818;stroke-width:1;"/></g><?plantuml-src VL31IWCn4BtdAuOUbKgzQbje1KNeISMBbH8tutPeDXEIMN3fzj_DfjjIfVIIlBnvcNblrcGGiFBIWC5O1F92x9IA6t9U1rr152q8MmKmryMc35mxyy2MmtZi8zQ6frDOKBcMfw2RSwg2Ay-H10_2kQsn4t8m6FwtwhiyifDNQIoUb4YqfKBjbB9OeZCWxC7YjwXs0kywaFwo20c_DJxVpuw4j4srD15QrKAHV0a6Q86Sf7EKsDHfto-bpba7Bymo01qX901_4tIBW7ufWzbHjLhfNEWnt07cGTkbw-Z3tCaHNSFj_TBjbixKWLnvKJZQA_67vB8k2xEFZwjF60wdPxsTyCddx6R1xDDMJx-edBnx9VON?></g></svg>