<svg xmlns="http://www.w3.org/2000/svg" xmlns:xlink="http://www.w3.org/1999/xlink" contentStyleType="text/css" data-diagram-type="STATE" height="1041px" preserveAspectRatio="none" style="width:539px;height:1041px;background:#FFFFFF;" version="1.1" viewBox="0 0 539 1041" width="539px" zoomAndPan="magnify"><?plantuml 1.2026.3beta4?><defs/><g><g class="legend" data-source-line="10"><rect fill="#DDDDDD" height="95.4844" rx="7.5" ry="7.5" style="stroke:#000000;stroke-width:1;" width="284.2715" x="12" y="12"/><text fill="#000000" font-family="sans-serif" font-size="14" font-weight="bold" lengthAdjust="spacing" textLength="65.748" x="21.874" y="31.9951">Variable</text><text fill="#000000" font-family="sans-serif" font-size="14" font-weight="bold" lengthAdjust="spacing" textLength="38.1924" x="143.3281" y="31.9951">Type</text><text fill="#000000" font-family="sans-serif" font-size="14" font-weight="bold" lengthAdjust="spacing" textLength="95.1289" x="191.2686" y="31.9951">Initial Value</text><text fill="#000000" font-family="sans-serif" font-size="14" lengthAdjust="spacing" textLength="80.2197" x="21.4502" y="48.292">green_ticks</text><text fill="#000000" font-family="sans-serif" font-size="14" lengthAdjust="spacing" textLength="18.252" x="142.9043" y="48.292">int</text><text fill="#000000" font-family="sans-serif" font-size="14" lengthAdjust="spacing" textLength="8.9072" x="190.8447" y="48.292">0</text><text fill="#000000" font-family="sans-serif" font-size="14" lengthAdjust="spacing" textLength="112.5537" x="21.4502" y="64.5889">request_latched</text><text fill="#000000" font-family="sans-serif" font-size="14" lengthAdjust="spacing" textLength="18.252" x="142.9043" y="64.5889">int</text><text fill="#000000" font-family="sans-serif" font-size="14" lengthAdjust="spacing" textLength="8.9072" x="190.8447" y="64.5889">0</text><text fill="#000000" font-family="sans-serif" font-size="14" lengthAdjust="spacing" textLength="84.1709" x="21.4502" y="80.8857">yellow_ticks</text><text fill="#000000" font-family="sans-serif" font-size="14" lengthAdjust="spacing" textLength="18.252" x="142.9043" y="80.8857">int</text><text fill="#000000" font-family="sans-serif" font-size="14" lengthAdjust="spacing" textLength="8.9072" x="190.8447" y="80.8857">0</text><text fill="#000000" font-family="sans-serif" font-size="14" lengthAdjust="spacing" textLength="71.5039" x="21.4502" y="97.1826">walk_ticks</text><text fill="#000000" font-family="sans-serif" font-size="14" lengthAdjust="spacing" textLength="18.252" x="142.9043" y="97.1826">int</text><text fill="#000000" font-family="sans-serif" font-size="14" lengthAdjust="spacing" textLength="8.9072" x="190.8447" y="97.1826">0</text><line style="stroke:#000000;stroke-width:1;" x1="17" x2="291.2715" y1="19" y2="19"/><line style="stroke:#000000;stroke-width:1;" x1="17" x2="291.2715" y1="35.2969" y2="35.2969"/><line style="stroke:#000000;stroke-width:1;" x1="17" x2="291.2715" y1="51.5938" y2="51.5938"/><line style="stroke:#000000;stroke-width:1;" x1="17" x2="291.2715" y1="67.8906" y2="67.8906"/><line style="stroke:#000000;stroke-width:1;" x1="17" x2="291.2715" y1="84.1875" y2="84.1875"/><line style="stroke:#000000;stroke-width:1;" x1="17" x2="291.2715" y1="100.4844" y2="100.4844"/><line style="stroke:#000000;stroke-width:1;" x1="17" x2="17" y1="19" y2="100.4844"/><line style="stroke:#000000;stroke-width:1;" x1="138.4541" x2="138.4541" y1="19" y2="100.4844"/><line style="stroke:#000000;stroke-width:1;" x1="186.3945" x2="186.3945" y1="19" y2="100.4844"/><line style="stroke:#000000;stroke-width:1;" x1="291.2715" x2="291.2715" y1="19" y2="100.4844"/></g><path d="M19.5,206.4844 L512.11,206.4844 A12.5,12.5 0 0 1 524.61,218.9844 L524.61,232.7813 L7,232.7813 L7,218.9844 A12.5,12.5 0 0 1 19.5,206.4844" fill="#ADD8E6"/><rect fill="none" height="739.0038" rx="12.5" ry="12.5" style="stroke:#181818;stroke-width:0.5;" width="517.61" x="7" y="206.4844"/><line style="stroke:#181818;stroke-width:0.5;" x1="7" x2="524.61" y1="232.7813" y2="232.7813"/><text fill="#000000" font-family="sans-serif" font-size="14" lengthAdjust="spacing" textLength="32.3477" x="249.6312" y="224.4795">Root</text><g class="entity" data-qualified-name="root.root__main_green" id="ent0003"><rect fill="#F1F1F1" height="78.2031" rx="12.5" ry="12.5" style="stroke:#181818;stroke-width:0.5;" width="219.8223" x="88.79" y="307.6813"/><line style="stroke:#181818;stroke-width:0.5;" x1="88.79" x2="308.6123" y1="333.9781" y2="333.9781"/><text fill="#000000" font-family="sans-serif" font-size="14" lengthAdjust="spacing" textLength="76.125" x="160.6386" y="325.6764">MainGreen</text><text fill="#000000" font-family="sans-serif" font-size="12" lengthAdjust="spacing" textLength="50.1621" x="93.79" y="350.1168">during {</text><text fill="#000000" font-family="sans-serif" font-size="12" lengthAdjust="spacing" textLength="184.5645" x="109.0478" y="364.0855">green_ticks = green_ticks + 1;</text><text fill="#000000" font-family="sans-serif" font-size="12" lengthAdjust="spacing" textLength="7.6348" x="93.79" y="378.0543">}</text></g><path d="M77.31,540.7813 L320.0895,540.7813 A12.5,12.5 0 0 1 332.5895,553.2813 L332.5895,567.0781 L64.81,567.0781 L64.81,553.2813 A12.5,12.5 0 0 1 77.31,540.7813" fill="#ADD8E6"/><rect fill="none" height="391.7069" rx="12.5" ry="12.5" style="stroke:#181818;stroke-width:0.5;" width="267.7795" x="64.81" y="540.7813"/><line style="stroke:#181818;stroke-width:0.5;" x1="64.81" x2="332.5895" y1="567.0781" y2="567.0781"/><text fill="#000000" font-family="sans-serif" font-size="14" lengthAdjust="spacing" textLength="116.2383" x="140.5806" y="558.7764">PedestrianPhase</text><g class="entity" data-qualified-name="root.root__pedestrian_phase.root__pedestrian_phase__main_yellow" id="ent0005"><rect fill="#F1F1F1" height="78.2031" rx="12.5" ry="12.5" style="stroke:#181818;stroke-width:0.5;" width="226.5957" x="76.81" y="635.0781"/><line style="stroke:#181818;stroke-width:0.5;" x1="76.81" x2="303.4057" y1="661.375" y2="661.375"/><text fill="#000000" font-family="sans-serif" font-size="14" lengthAdjust="spacing" textLength="78.3809" x="150.9174" y="653.0732">MainYellow</text><text fill="#000000" font-family="sans-serif" font-size="12" lengthAdjust="spacing" textLength="50.1621" x="81.81" y="677.5137">during {</text><text fill="#000000" font-family="sans-serif" font-size="12" lengthAdjust="spacing" textLength="191.3379" x="97.0678" y="691.4824">yellow_ticks = yellow_ticks + 1;</text><text fill="#000000" font-family="sans-serif" font-size="12" lengthAdjust="spacing" textLength="7.6348" x="81.81" y="705.4512">}</text></g><g class="entity" data-qualified-name="root.root__pedestrian_phase.root__pedestrian_phase__ped_walk" id="ent0006"><rect fill="#F1F1F1" height="78.2031" rx="12.5" ry="12.5" style="stroke:#181818;stroke-width:0.5;" width="204.8809" x="87.67" y="766.2881"/><line style="stroke:#181818;stroke-width:0.5;" x1="87.67" x2="292.5509" y1="792.585" y2="792.585"/><text fill="#000000" font-family="sans-serif" font-size="14" lengthAdjust="spacing" textLength="60.3613" x="159.9298" y="784.2832">PedWalk</text><text fill="#000000" font-family="sans-serif" font-size="12" lengthAdjust="spacing" textLength="50.1621" x="92.67" y="808.7237">during {</text><text fill="#000000" font-family="sans-serif" font-size="12" lengthAdjust="spacing" textLength="169.623" x="107.9278" y="822.6924">walk_ticks = walk_ticks + 1;</text><text fill="#000000" font-family="sans-serif" font-size="12" lengthAdjust="spacing" textLength="7.6348" x="92.67" y="836.6612">}</text></g><g class="start_entity" data-qualified-name="root.root__pedestrian_phase..start.root__pedestrian_phase" data-source-line="26" id="ent0002"><ellipse cx="190.11" cy="588.0781" fill="#222222" rx="10" ry="10" style="stroke:#222222;stroke-width:1;"/></g><g class="end_entity" data-qualified-name="root.root__pedestrian_phase..end.root__pedestrian_phase" data-source-line="28" id="ent0005"><ellipse cx="190.11" cy="908.4881" fill="none" rx="11" ry="11" style="stroke:#222222;stroke-width:1;"/><ellipse cx="190.11" cy="908.4881" fill="#222222" rx="6" ry="6" style="stroke:#222222;stroke-width:1;"/></g><!--link *start*root__pedestrian_phase to root__pedestrian_phase__main_yellow--><g class="link" data-entity-1="ent0002" data-entity-2="ent0005" data-link-type="dependency" data-source-line="26" id="lnk3"><path d="M190.11,598.4081 C190.11,607.2981 190.11,615.3081 190.11,628.8081" fill="none" id="*start*root__pedestrian_phase-to-root__pedestrian_phase__main_yellow" style="stroke:#181818;stroke-width:1;"/><polygon fill="#181818" points="190.11,634.8081,194.11,625.8081,190.11,629.8081,186.11,625.8081,190.11,634.8081" style="stroke:#181818;stroke-width:1;"/></g><!--link root__pedestrian_phase__main_yellow to root__pedestrian_phase__ped_walk--><g class="link" data-entity-1="ent0005" data-entity-2="ent0006" data-link-type="dependency" data-source-line="27" id="lnk4"><path d="M190.11,713.5981 C190.11,730.1081 190.11,743.3781 190.11,759.8981" fill="none" id="root__pedestrian_phase__main_yellow-to-root__pedestrian_phase__ped_walk" style="stroke:#181818;stroke-width:1;"/><polygon fill="#181818" points="190.11,765.8981,194.11,756.8981,190.11,760.8981,186.11,756.8981,190.11,765.8981" style="stroke:#181818;stroke-width:1;"/><text fill="#000000" font-family="sans-serif" font-size="13" lengthAdjust="spacing" textLength="116.4795" x="191.11" y="744.355">yellow_ticks &gt;= 1</text></g><!--link root__pedestrian_phase__ped_walk to *end*root__pedestrian_phase--><g class="link" data-entity-1="ent0006" data-entity-2="ent0005" data-link-type="dependency" data-source-line="28" id="lnk6"><path d="M190.11,844.8981 C190.11,863.6481 190.11,878.7481 190.11,891.0281" fill="none" id="root__pedestrian_phase__ped_walk-to-*end*root__pedestrian_phase" style="stroke:#181818;stroke-width:1;"/><polygon fill="#181818" points="190.11,897.0281,194.11,888.0281,190.11,892.0281,186.11,888.0281,190.11,897.0281" style="stroke:#181818;stroke-width:1;"/><text fill="#000000" font-family="sans-serif" font-size="13" lengthAdjust="spacing" textLength="104.7173" x="191.11" y="875.555">walk_ticks &gt;= 2</text></g><g class="start_entity" data-qualified-name="root..start.root" data-source-line="30" id="ent0007"><ellipse cx="198.7" cy="253.7813" fill="#222222" rx="10" ry="10" style="stroke:#222222;stroke-width:1;"/></g><!--link *start*root to root__main_green--><g class="link" data-entity-1="ent0007" data-entity-2="ent0003" data-link-type="dependency" data-source-line="30" id="lnk8"><path d="M198.7,264.1813 C198.7,274.4413 198.7,285.5413 198.7,301.4513" fill="none" id="*start*root-to-root__main_green" style="stroke:#181818;stroke-width:1;"/><polygon fill="#181818" points="198.7,307.4513,202.7,298.4513,198.7,302.4513,194.7,298.4513,198.7,307.4513" style="stroke:#181818;stroke-width:1;"/></g><!--link root__main_green to root__pedestrian_phase--><g class="link" data-entity-1="ent0003" data-entity-2="ent0004" data-link-type="dependency" data-source-line="31" id="lnk9"><path d="M88.4,374.3513 C71.53,383.2113 56.25,395.0313 45.7,410.7813 C18,452.1413 30.44,475.4013 45.7,522.7813 C50.58,537.9413 54.2701,547.5931 61.6901,562.1831" fill="none" id="root__main_green-to-root__pedestrian_phase" style="stroke:#181818;stroke-width:1;"/><polygon fill="#181818" points="64.41,567.5313,63.8956,557.6958,62.1434,563.0745,56.7648,561.3223,64.41,567.5313" style="stroke:#181818;stroke-width:1;"/><text fill="#000000" font-family="sans-serif" font-size="13" lengthAdjust="spacing" textLength="284.1846" x="46.7" y="423.8481">request_latched == 1 &amp;&amp; green_ticks &gt;= 3</text><path d="M104.0564,432.9141 L104.0564,517.9141 L273.0564,517.9141 L273.0564,442.9141 L263.0564,432.9141 L104.0564,432.9141" fill="#FEFFDD" style="stroke:#181818;stroke-width:0.5;"/><path d="M263.0564,432.9141 L263.0564,442.9141 L273.0564,442.9141 L263.0564,432.9141" fill="#FEFFDD" style="stroke:#181818;stroke-width:0.5;"/><text fill="#000000" font-family="sans-serif" font-size="13" lengthAdjust="spacing" textLength="49.7974" x="110.0564" y="449.981">effect {</text><text fill="#000000" font-family="sans-serif" font-size="13" lengthAdjust="spacing" textLength="131.9424" x="126.5857" y="465.1138">request_latched = 0;</text><text fill="#000000" font-family="sans-serif" font-size="13" lengthAdjust="spacing" textLength="105.5869" x="126.5857" y="480.2466">yellow_ticks = 0;</text><text fill="#000000" font-family="sans-serif" font-size="13" lengthAdjust="spacing" textLength="93.8247" x="126.5857" y="495.3794">walk_ticks = 0;</text><text fill="#000000" font-family="sans-serif" font-size="13" lengthAdjust="spacing" textLength="8.271" x="110.0564" y="510.5122">}</text></g><!--link root__main_green to root__main_green--><g class="link" data-entity-1="ent0003" data-entity-2="ent0003" data-link-type="dependency" data-source-line="39" id="lnk10"><path d="M308.77,336.9213 C319.67,338.9013 326.61,342.1813 326.61,346.7813 C326.61,351.3813 325.5743,353.6041 314.6743,355.5741" fill="none" id="root__main_green-to-root__main_green" style="stroke:#181818;stroke-width:1;"/><polygon fill="#181818" points="308.77,356.6413,318.3379,358.9768,313.6903,355.752,316.9151,351.1043,308.77,356.6413" style="stroke:#181818;stroke-width:1;"/><text fill="#000000" font-family="sans-serif" font-size="13" lengthAdjust="spacing" textLength="152.2993" x="340.1962" y="318.8481">MainGreen.PedRequest</text><path d="M331.61,332.9141 L331.61,387.9141 L500.61,387.9141 L500.61,342.9141 L490.61,332.9141 L331.61,332.9141" fill="#FEFFDD" style="stroke:#181818;stroke-width:0.5;"/><path d="M490.61,332.9141 L490.61,342.9141 L500.61,342.9141 L490.61,332.9141" fill="#FEFFDD" style="stroke:#181818;stroke-width:0.5;"/><text fill="#000000" font-family="sans-serif" font-size="13" lengthAdjust="spacing" textLength="49.7974" x="337.61" y="349.981">effect {</text><text fill="#000000" font-family="sans-serif" font-size="13" lengthAdjust="spacing" textLength="131.9424" x="354.1393" y="365.1138">request_latched = 1;</text><text fill="#000000" font-family="sans-serif" font-size="13" lengthAdjust="spacing" textLength="8.271" x="337.61" y="380.2466">}</text></g><!--link root__pedestrian_phase to root__main_green--><g class="link" data-entity-1="ent0004" data-entity-2="ent0003" data-link-type="dependency" data-source-line="45" id="lnk11"><path d="M326.04,540.3413 C328.12,534.5113 330.02,528.6513 331.7,522.7813 C345.42,474.9313 358.32,452.8513 331.7,410.7813 C325.69,401.2813 322.5584,396.859 313.6384,389.969" fill="none" id="root__pedestrian_phase-to-root__main_green" style="stroke:#181818;stroke-width:1;"/><polygon fill="#181818" points="308.89,386.3013,313.5674,394.9685,312.847,389.3577,318.4578,388.6373,308.89,386.3013" style="stroke:#181818;stroke-width:1;"/><path d="M351.7,424.2813 L351.7,509.2813 L494.7,509.2813 L494.7,434.2813 L484.7,424.2813 L351.7,424.2813" fill="#FEFFDD" style="stroke:#181818;stroke-width:0.5;"/><path d="M484.7,424.2813 L484.7,434.2813 L494.7,434.2813 L484.7,424.2813" fill="#FEFFDD" style="stroke:#181818;stroke-width:0.5;"/><text fill="#000000" font-family="sans-serif" font-size="13" lengthAdjust="spacing" textLength="49.7974" x="357.7" y="441.3481">effect {</text><text fill="#000000" font-family="sans-serif" font-size="13" lengthAdjust="spacing" textLength="101.918" x="374.2293" y="456.481">green_ticks = 0;</text><text fill="#000000" font-family="sans-serif" font-size="13" lengthAdjust="spacing" textLength="105.5869" x="374.2293" y="471.6138">yellow_ticks = 0;</text><text fill="#000000" font-family="sans-serif" font-size="13" lengthAdjust="spacing" textLength="93.8247" x="374.2293" y="486.7466">walk_ticks = 0;</text><text fill="#000000" font-family="sans-serif" font-size="13" lengthAdjust="spacing" textLength="8.271" x="357.7" y="501.8794">}</text></g><g class="start_entity" data-qualified-name=".start." data-source-line="54" id="ent0012"><ellipse cx="265.81" cy="136.4844" fill="#222222" rx="10" ry="10" style="stroke:#222222;stroke-width:1;"/></g><g class="end_entity" data-qualified-name=".end." data-source-line="55" id="ent0014"><ellipse cx="265.81" cy="1016.4844" fill="none" rx="11" ry="11" style="stroke:#222222;stroke-width:1;"/><ellipse cx="265.81" cy="1016.4844" fill="#222222" rx="6" ry="6" style="stroke:#222222;stroke-width:1;"/></g><!--link *start* to root--><g class="link" data-entity-1="ent0012" data-entity-2="ent0002" data-link-type="dependency" data-source-line="54" id="lnk13"><path d="M265.81,146.6144 C265.81,157.9644 265.81,173.2044 265.81,200.3744" fill="none" id="*start*-to-root" style="stroke:#181818;stroke-width:1;"/><polygon fill="#181818" points="265.81,206.3744,269.81,197.3744,265.81,201.3744,261.81,197.3744,265.81,206.3744" style="stroke:#181818;stroke-width:1;"/></g><!--link root to *end*--><g class="link" data-entity-1="ent0002" data-entity-2="ent0014" data-link-type="dependency" data-source-line="55" id="lnk15"><path d="M265.81,945.5144 C265.81,972.3644 265.81,987.5344 265.81,999.2744" fill="none" id="root-to-*end*" style="stroke:#181818;stroke-width:1;"/><polygon fill="#181818" points="265.81,1005.2744,269.81,996.2744,265.81,1000.2744,261.81,996.2744,265.81,1005.2744" style="stroke:#181818;stroke-width:1;"/></g><?plantuml-src hLJ1Qjmm4BthAuOzvD2IacrlIRo751eABOIqj9Ia6DMUzOhLIgey9fZi_dibsJ6ITxCE9HVRqepVlFTcf9Ke4N1Zg8KIwy8AGq8hnkgrK8PRle6QE24yCe0hNgmhgnjLVjHIsyjBKsDJwiK2leXgHTUMjuUo2hqnkXQ4JubNia6Vg6s9TWpLetpIYhvHAp4A2U9I56p7cCGALGca3KXS4jjcy8DRmVz81FVzlJNX_La94bowcAi8MxQ5oYAgd4Inhc4BGf5xdeM8nRyDrfHBJiKAor6qHIdrmy4V7xXS7mWuVXrBvsLmS7QhDSs0rs3T1wI-U7kXjthsbGjrxOaEsNc-SNjvO1yonvjm3cLZXQhWyLxvX5XebgpUmlpYNktYWZVeUa_EFtMpuZL6PSqGoOqF7QGzeluhU7K4f2VUUJeWl21tJsNIbYnTnZfJhJzTnuxISpkvR-iajwV4FMBHK6JnOapgxirlE3rTlBfHnp0ZqebXYmpcBrViAtZsvx4y1_4-G7GAKtLJ8_myPrTaV3mpHnPEJfB9TjK_16YbNQUr0YbKrqDSBh6WQ5ptuE3iOWYEfYgA96tjzpkf_ZhoPQUa9KTsEEZlt5JUTfJ-My1yWiwUgSzsPhfwUhkybdKx5WyC2zTaFsR_0000?></g></svg>