<svg xmlns="http://www.w3.org/2000/svg" xmlns:xlink="http://www.w3.org/1999/xlink" contentStyleType="text/css" data-diagram-type="STATE" height="493px" preserveAspectRatio="none" style="width:269px;height:493px;background:#FFFFFF;" version="1.1" viewBox="0 0 269 493" width="269px" zoomAndPan="magnify"><?plantuml 1.2026.3beta4?><defs/><g><g class="legend" data-source-line="10"><rect fill="#DDDDDD" height="46.5938" rx="7.5" ry="7.5" style="stroke:#000000;stroke-width:1;" width="238.3135" x="12" y="12"/><text fill="#000000" font-family="sans-serif" font-size="14" font-weight="bold" lengthAdjust="spacing" textLength="65.748" x="21.874" y="31.9951">Variable</text><text fill="#000000" font-family="sans-serif" font-size="14" font-weight="bold" lengthAdjust="spacing" textLength="38.1924" x="97.3701" y="31.9951">Type</text><text fill="#000000" font-family="sans-serif" font-size="14" font-weight="bold" lengthAdjust="spacing" textLength="95.1289" x="145.3105" y="31.9951">Initial Value</text><text fill="#000000" font-family="sans-serif" font-size="14" lengthAdjust="spacing" textLength="53.8672" x="21.4502" y="48.292">counter</text><text fill="#000000" font-family="sans-serif" font-size="14" lengthAdjust="spacing" textLength="18.252" x="96.9463" y="48.292">int</text><text fill="#000000" font-family="sans-serif" font-size="14" lengthAdjust="spacing" textLength="8.9072" x="144.8867" y="48.292">0</text><line style="stroke:#000000;stroke-width:1;" x1="17" x2="245.3135" y1="19" y2="19"/><line style="stroke:#000000;stroke-width:1;" x1="17" x2="245.3135" y1="35.2969" y2="35.2969"/><line style="stroke:#000000;stroke-width:1;" x1="17" x2="245.3135" y1="51.5938" y2="51.5938"/><line style="stroke:#000000;stroke-width:1;" x1="17" x2="17" y1="19" y2="51.5938"/><line style="stroke:#000000;stroke-width:1;" x1="92.4961" x2="92.4961" y1="19" y2="51.5938"/><line style="stroke:#000000;stroke-width:1;" x1="140.4365" x2="140.4365" y1="19" y2="51.5938"/><line style="stroke:#000000;stroke-width:1;" x1="245.3135" x2="245.3135" y1="19" y2="51.5938"/></g><path d="M96.1304,157.5938 L165.1831,157.5938 A12.5,12.5 0 0 1 177.6831,170.0938 L177.6831,183.8906 L83.6304,183.8906 L83.6304,170.0938 A12.5,12.5 0 0 1 96.1304,157.5938" fill="#ADD8E6"/><rect fill="none" height="240.2969" rx="12.5" ry="12.5" style="stroke:#181818;stroke-width:0.5;" width="94.0527" x="83.6304" y="157.5938"/><line style="stroke:#181818;stroke-width:0.5;" x1="83.6304" x2="177.6831" y1="183.8906" y2="183.8906"/><text fill="#000000" font-family="sans-serif" font-size="14" lengthAdjust="spacing" textLength="32.3477" x="114.4829" y="175.5889">Root</text><rect fill="#F1F1F1" height="40" rx="12.5" ry="12.5" style="stroke:#181818;stroke-width:0.5;" width="50" x="95.6304" y="251.8906"/><text fill="#000000" font-family="sans-serif" font-size="14" lengthAdjust="spacing" textLength="9.5771" x="115.8418" y="276.7373">A</text><rect fill="#F1F1F1" height="40" rx="12.5" ry="12.5" style="stroke:#181818;stroke-width:0.5;" width="50" x="95.6304" y="344.8906"/><text fill="#000000" font-family="sans-serif" font-size="14" lengthAdjust="spacing" textLength="9.6045" x="115.8281" y="369.7373">B</text><g class="start_entity" data-qualified-name="root..start.root" data-source-line="18" id="ent0002"><ellipse cx="120.6304" cy="204.8906" fill="#222222" rx="10" ry="10" style="stroke:#222222;stroke-width:1;"/></g><!--link *start*root to root__a--><g class="link" data-entity-1="ent0002" data-entity-2="ent0003" data-link-type="dependency" data-source-line="18" id="lnk3"><path d="M120.6304,215.2006 C120.6304,224.6106 120.6304,233.4306 120.6304,245.4106" fill="none" id="*start*root-to-root__a" style="stroke:#181818;stroke-width:1;"/><polygon fill="#181818" points="120.6304,251.4106,124.6304,242.4106,120.6304,246.4106,116.6304,242.4106,120.6304,251.4106" style="stroke:#181818;stroke-width:1;"/></g><!--link root__a to root__b--><g class="link" data-entity-1="ent0003" data-entity-2="ent0004" data-link-type="dependency" data-source-line="19" id="lnk4"><path d="M120.6304,292.1906 C120.6304,307.6306 120.6304,323.1806 120.6304,338.6206" fill="none" id="root__a-to-root__b" style="stroke:#181818;stroke-width:1;"/><polygon fill="#181818" points="120.6304,344.6206,124.6304,335.6206,120.6304,339.6206,116.6304,335.6206,120.6304,344.6206" style="stroke:#181818;stroke-width:1;"/><text fill="#000000" font-family="sans-serif" font-size="13" lengthAdjust="spacing" textLength="31.0527" x="121.6304" y="322.9575">A.Go</text></g><g class="start_entity" data-qualified-name=".start." data-source-line="21" id="ent0005"><ellipse cx="130.6604" cy="87.5938" fill="#222222" rx="10" ry="10" style="stroke:#222222;stroke-width:1;"/></g><g class="end_entity" data-qualified-name=".end." data-source-line="22" id="ent0007"><ellipse cx="130.6604" cy="468.8938" fill="none" rx="11" ry="11" style="stroke:#222222;stroke-width:1;"/><ellipse cx="130.6604" cy="468.8938" fill="#222222" rx="6" ry="6" style="stroke:#222222;stroke-width:1;"/></g><!--link *start* to root--><g class="link" data-entity-1="ent0005" data-entity-2="ent0002" data-link-type="dependency" data-source-line="21" id="lnk6"><path d="M130.6604,97.9237 C130.6604,109.9438 130.6604,126.2538 130.6604,151.1438" fill="none" id="*start*-to-root" style="stroke:#181818;stroke-width:1;"/><polygon fill="#181818" points="130.6604,157.1438,134.6604,148.1438,130.6604,152.1438,126.6604,148.1438,130.6604,157.1438" style="stroke:#181818;stroke-width:1;"/></g><!--link root to *end*--><g class="link" data-entity-1="ent0002" data-entity-2="ent0007" data-link-type="dependency" data-source-line="22" id="lnk8"><path d="M130.6604,398.2638 C130.6604,422.9738 130.6604,439.2438 130.6604,451.6238" fill="none" id="root-to-*end*" style="stroke:#181818;stroke-width:1;"/><polygon fill="#181818" points="130.6604,457.6238,134.6604,448.6238,130.6604,452.6238,126.6604,448.6238,130.6604,457.6238" style="stroke:#181818;stroke-width:1;"/></g><?plantuml-src RL31IiGm4BtdAuOUXHNFiXQsWelWISMBo39jnkwmQIOaqqEn_hjfhT8LBydalJSly-R8be2we0DOIatae2pUc7HY7p1Y1qbH2JuCG8NDgOtIUtihJk9s6nBrLieI7hWzwZxYy9-gaIv8OgKVOULwceGIBSM_LelBdNXzqi7HYc95nutvDCPHIzw2IW17xsh66tZ1o5WxWbm_3s6-xpqheyjS_X56CqAJvrAAC09xpUTLHhFJjrzEFMSj7aMq04mGSm7d2QP5mBAKOlUhEXnmJLGhefw9ruits6pAC_5Ih_0Qhc5tkPSSSjrWva6cLqQ_0000?></g></svg>