<svg xmlns="http://www.w3.org/2000/svg" xmlns:xlink="http://www.w3.org/1999/xlink" contentStyleType="text/css" data-diagram-type="STATE" height="570px" preserveAspectRatio="none" style="width:269px;height:570px;background:#FFFFFF;" version="1.1" viewBox="0 0 269 570" width="269px" zoomAndPan="magnify"><?plantuml 1.2026.3beta4?><defs/><g><g class="legend" data-source-line="10"><rect fill="#DDDDDD" height="46.5938" rx="7.5" ry="7.5" style="stroke:#000000;stroke-width:1;" width="238.3135" x="12" y="12"/><text fill="#000000" font-family="sans-serif" font-size="14" font-weight="bold" lengthAdjust="spacing" textLength="65.748" x="21.874" y="31.9951">Variable</text><text fill="#000000" font-family="sans-serif" font-size="14" font-weight="bold" lengthAdjust="spacing" textLength="38.1924" x="97.3701" y="31.9951">Type</text><text fill="#000000" font-family="sans-serif" font-size="14" font-weight="bold" lengthAdjust="spacing" textLength="95.1289" x="145.3105" y="31.9951">Initial Value</text><text fill="#000000" font-family="sans-serif" font-size="14" lengthAdjust="spacing" textLength="53.8672" x="21.4502" y="48.292">counter</text><text fill="#000000" font-family="sans-serif" font-size="14" lengthAdjust="spacing" textLength="18.252" x="96.9463" y="48.292">int</text><text fill="#000000" font-family="sans-serif" font-size="14" lengthAdjust="spacing" textLength="8.9072" x="144.8867" y="48.292">0</text><line style="stroke:#000000;stroke-width:1;" x1="17" x2="245.3135" y1="19" y2="19"/><line style="stroke:#000000;stroke-width:1;" x1="17" x2="245.3135" y1="35.2969" y2="35.2969"/><line style="stroke:#000000;stroke-width:1;" x1="17" x2="245.3135" y1="51.5938" y2="51.5938"/><line style="stroke:#000000;stroke-width:1;" x1="17" x2="17" y1="19" y2="51.5938"/><line style="stroke:#000000;stroke-width:1;" x1="92.4961" x2="92.4961" y1="19" y2="51.5938"/><line style="stroke:#000000;stroke-width:1;" x1="140.4365" x2="140.4365" y1="19" y2="51.5938"/><line style="stroke:#000000;stroke-width:1;" x1="245.3135" x2="245.3135" y1="19" y2="51.5938"/></g><path d="M34.0161,157.5938 L227.2974,157.5938 A12.5,12.5 0 0 1 239.7974,170.0938 L239.7974,183.8906 L21.5161,183.8906 L21.5161,170.0938 A12.5,12.5 0 0 1 34.0161,157.5938" fill="#ADD8E6"/><rect fill="none" height="316.71" rx="12.5" ry="12.5" style="stroke:#181818;stroke-width:0.5;" width="218.2813" x="21.5161" y="157.5938"/><line style="stroke:#181818;stroke-width:0.5;" x1="21.5161" x2="239.7974" y1="183.8906" y2="183.8906"/><text fill="#000000" font-family="sans-serif" font-size="14" lengthAdjust="spacing" textLength="32.3477" x="114.4829" y="175.5889">Root</text><g class="entity" data-qualified-name="root.root__a" id="ent0003"><rect fill="#F1F1F1" height="78.2031" rx="12.5" ry="12.5" style="stroke:#181818;stroke-width:0.5;" width="174.6465" x="37.3361" y="251.8906"/><line style="stroke:#181818;stroke-width:0.5;" x1="37.3361" x2="211.9826" y1="278.1875" y2="278.1875"/><text fill="#000000" font-family="sans-serif" font-size="14" lengthAdjust="spacing" textLength="9.5771" x="119.8708" y="269.8857">A</text><text fill="#000000" font-family="sans-serif" font-size="12" lengthAdjust="spacing" textLength="50.1621" x="42.3361" y="294.3262">during {</text><text fill="#000000" font-family="sans-serif" font-size="12" lengthAdjust="spacing" textLength="139.3887" x="57.5939" y="308.2949">counter = counter + 1;</text><text fill="#000000" font-family="sans-serif" font-size="12" lengthAdjust="spacing" textLength="7.6348" x="42.3361" y="322.2637">}</text></g><g class="entity" data-qualified-name="root.root__b" id="ent0004"><rect fill="#F1F1F1" height="78.2031" rx="12.5" ry="12.5" style="stroke:#181818;stroke-width:0.5;" width="182.2813" x="33.5161" y="383.1006"/><line style="stroke:#181818;stroke-width:0.5;" x1="33.5161" x2="215.7974" y1="409.3975" y2="409.3975"/><text fill="#000000" font-family="sans-serif" font-size="14" lengthAdjust="spacing" textLength="9.6045" x="119.8545" y="401.0957">B</text><text fill="#000000" font-family="sans-serif" font-size="12" lengthAdjust="spacing" textLength="50.1621" x="38.5161" y="425.5362">during {</text><text fill="#000000" font-family="sans-serif" font-size="12" lengthAdjust="spacing" textLength="147.0234" x="53.7739" y="439.5049">counter = counter + 10;</text><text fill="#000000" font-family="sans-serif" font-size="12" lengthAdjust="spacing" textLength="7.6348" x="38.5161" y="453.4737">}</text></g><g class="start_entity" data-qualified-name="root..start.root" data-source-line="20" id="ent0002"><ellipse cx="124.6561" cy="204.8906" fill="#222222" rx="10" ry="10" style="stroke:#222222;stroke-width:1;"/></g><!--link *start*root to root__a--><g class="link" data-entity-1="ent0002" data-entity-2="ent0003" data-link-type="dependency" data-source-line="20" id="lnk3"><path d="M124.6561,215.2206 C124.6561,224.1106 124.6561,232.1206 124.6561,245.6206" fill="none" id="*start*root-to-root__a" style="stroke:#181818;stroke-width:1;"/><polygon fill="#181818" points="124.6561,251.6206,128.6561,242.6206,124.6561,246.6206,120.6561,242.6206,124.6561,251.6206" style="stroke:#181818;stroke-width:1;"/></g><!--link root__a to root__b--><g class="link" data-entity-1="ent0003" data-entity-2="ent0004" data-link-type="dependency" data-source-line="21" id="lnk4"><path d="M124.6561,330.4106 C124.6561,346.9206 124.6561,360.1906 124.6561,376.7106" fill="none" id="root__a-to-root__b" style="stroke:#181818;stroke-width:1;"/><polygon fill="#181818" points="124.6561,382.7106,128.6561,373.7106,124.6561,377.7106,120.6561,373.7106,124.6561,382.7106" style="stroke:#181818;stroke-width:1;"/><text fill="#000000" font-family="sans-serif" font-size="13" lengthAdjust="spacing" textLength="31.0527" x="125.6561" y="361.1675">A.Go</text></g><g class="start_entity" data-qualified-name=".start." data-source-line="23" id="ent0005"><ellipse cx="130.6561" cy="87.5938" fill="#222222" rx="10" ry="10" style="stroke:#222222;stroke-width:1;"/></g><g class="end_entity" data-qualified-name=".end." data-source-line="24" id="ent0007"><ellipse cx="130.6561" cy="545.3038" fill="none" rx="11" ry="11" style="stroke:#222222;stroke-width:1;"/><ellipse cx="130.6561" cy="545.3038" fill="#222222" rx="6" ry="6" style="stroke:#222222;stroke-width:1;"/></g><!--link *start* to root--><g class="link" data-entity-1="ent0005" data-entity-2="ent0002" data-link-type="dependency" data-source-line="23" id="lnk6"><path d="M130.6561,98.0338 C130.6561,109.8737 130.6561,125.7337 130.6561,151.1737" fill="none" id="*start*-to-root" style="stroke:#181818;stroke-width:1;"/><polygon fill="#181818" points="130.6561,157.1737,134.6561,148.1737,130.6561,152.1737,126.6561,148.1737,130.6561,157.1737" style="stroke:#181818;stroke-width:1;"/></g><!--link root to *end*--><g class="link" data-entity-1="ent0002" data-entity-2="ent0007" data-link-type="dependency" data-source-line="24" id="lnk8"><path d="M130.6561,474.5438 C130.6561,499.7938 130.6561,515.6338 130.6561,527.8638" fill="none" id="root-to-*end*" style="stroke:#181818;stroke-width:1;"/><polygon fill="#181818" points="130.6561,533.8638,134.6561,524.8638,130.6561,528.8638,126.6561,524.8638,130.6561,533.8638" style="stroke:#181818;stroke-width:1;"/></g><?plantuml-src ZP31JiCm38RlUGfhHz3GkC9MQKLYGk84Y0j3KzQOpbeQHwbxgDQzEsdfIfbsu98uzf_F_hqZWu25bneCbbaWByHEgN9FpkkW2oX52y910QGws-U1AsSUs7AOpts9bU4aWMVATx8AkhwaohZmN9BWIPZQ2biX1uFX7DLJ7jd9gzGMHoKIRIbJHwKivkWC27km-2MgMS2x3gIt5Y76RxNlxYT7Gjh6Mkm8ZMeWYtC91cY0dCHp5hEHzCEBhZklanTccO0k8SG0_Zfe5m7zKYRBGRNPwAxGnt07fWhaSZYiNPi_DLuCqJNStg_TSOnBHxZj2BVz7susy3wkFc4wJIvEzfjliSkR5SUDZZ-epdNxYjbl?></g></svg>