<svg xmlns="http://www.w3.org/2000/svg" xmlns:xlink="http://www.w3.org/1999/xlink" contentStyleType="text/css" data-diagram-type="STATE" height="782px" preserveAspectRatio="none" style="width:520px;height:782px;background:#FFFFFF;" version="1.1" viewBox="0 0 520 782" width="520px" zoomAndPan="magnify"><?plantuml 1.2026.3beta4?><defs/><g><g class="legend" data-source-line="10"><rect fill="#DDDDDD" height="46.5938" rx="7.5" ry="7.5" style="stroke:#000000;stroke-width:1;" width="238.3135" x="12" y="12"/><text fill="#000000" font-family="sans-serif" font-size="14" font-weight="bold" lengthAdjust="spacing" textLength="65.748" x="21.874" y="31.9951">Variable</text><text fill="#000000" font-family="sans-serif" font-size="14" font-weight="bold" lengthAdjust="spacing" textLength="38.1924" x="97.3701" y="31.9951">Type</text><text fill="#000000" font-family="sans-serif" font-size="14" font-weight="bold" lengthAdjust="spacing" textLength="95.1289" x="145.3105" y="31.9951">Initial Value</text><text fill="#000000" font-family="sans-serif" font-size="14" lengthAdjust="spacing" textLength="53.8672" x="21.4502" y="48.292">counter</text><text fill="#000000" font-family="sans-serif" font-size="14" lengthAdjust="spacing" textLength="18.252" x="96.9463" y="48.292">int</text><text fill="#000000" font-family="sans-serif" font-size="14" lengthAdjust="spacing" textLength="8.9072" x="144.8867" y="48.292">0</text><line style="stroke:#000000;stroke-width:1;" x1="17" x2="245.3135" y1="19" y2="19"/><line style="stroke:#000000;stroke-width:1;" x1="17" x2="245.3135" y1="35.2969" y2="35.2969"/><line style="stroke:#000000;stroke-width:1;" x1="17" x2="245.3135" y1="51.5938" y2="51.5938"/><line style="stroke:#000000;stroke-width:1;" x1="17" x2="17" y1="19" y2="51.5938"/><line style="stroke:#000000;stroke-width:1;" x1="92.4961" x2="92.4961" y1="19" y2="51.5938"/><line style="stroke:#000000;stroke-width:1;" x1="140.4365" x2="140.4365" y1="19" y2="51.5938"/><line style="stroke:#000000;stroke-width:1;" x1="245.3135" x2="245.3135" y1="19" y2="51.5938"/></g><path d="M19.5,157.5938 L492.596,157.5938 A12.5,12.5 0 0 1 505.096,170.0938 L505.096,183.8906 L7,183.8906 L7,170.0938 A12.5,12.5 0 0 1 19.5,157.5938" fill="#ADD8E6"/><rect fill="none" height="529.2938" rx="12.5" ry="12.5" style="stroke:#181818;stroke-width:0.5;" width="498.096" x="7" y="157.5938"/><line style="stroke:#181818;stroke-width:0.5;" x1="7" x2="505.096" y1="183.8906" y2="183.8906"/><text fill="#000000" font-family="sans-serif" font-size="14" lengthAdjust="spacing" textLength="32.3477" x="239.8742" y="175.5889">Root</text><g class="entity" data-qualified-name="root.root__a" id="ent0003"><rect fill="#F1F1F1" height="78.2031" rx="12.5" ry="12.5" style="stroke:#181818;stroke-width:0.5;" width="174.6465" x="178.82" y="251.8906"/><line style="stroke:#181818;stroke-width:0.5;" x1="178.82" x2="353.4665" y1="278.1875" y2="278.1875"/><text fill="#000000" font-family="sans-serif" font-size="14" lengthAdjust="spacing" textLength="9.5771" x="261.3547" y="269.8857">A</text><text fill="#000000" font-family="sans-serif" font-size="12" lengthAdjust="spacing" textLength="50.1621" x="183.82" y="294.3262">during {</text><text fill="#000000" font-family="sans-serif" font-size="12" lengthAdjust="spacing" textLength="139.3887" x="199.0778" y="308.2949">counter = counter + 1;</text><text fill="#000000" font-family="sans-serif" font-size="12" lengthAdjust="spacing" textLength="7.6348" x="183.82" y="322.2637">}</text></g><path d="M31.5,383.0906 L260.7813,383.0906 A12.5,12.5 0 0 1 273.2813,395.5906 L273.2813,409.3875 L19,409.3875 L19,395.5906 A12.5,12.5 0 0 1 31.5,383.0906" fill="#ADD8E6"/><rect fill="none" height="290.7969" rx="12.5" ry="12.5" style="stroke:#181818;stroke-width:0.5;" width="254.2813" x="19" y="383.0906"/><line style="stroke:#181818;stroke-width:0.5;" x1="19" x2="273.2813" y1="409.3875" y2="409.3875"/><text fill="#000000" font-family="sans-serif" font-size="14" lengthAdjust="spacing" textLength="9.6045" x="141.3384" y="401.0857">B</text><path d="M43.5,476.3875 L236.7813,476.3875 A12.5,12.5 0 0 1 249.2813,488.8875 L249.2813,502.6844 L31,502.6844 L31,488.8875 A12.5,12.5 0 0 1 43.5,476.3875" fill="#ADD8E6"/><rect fill="none" height="184.5" rx="12.5" ry="12.5" style="stroke:#181818;stroke-width:0.5;" width="218.2813" x="31" y="476.3875"/><line style="stroke:#181818;stroke-width:0.5;" x1="31" x2="249.2813" y1="502.6844" y2="502.6844"/><text fill="#000000" font-family="sans-serif" font-size="14" lengthAdjust="spacing" textLength="18.5117" x="130.8848" y="494.3826">B1</text><g class="entity" data-qualified-name="root.root__b.root__b__b1.root__b__b1__b1a" id="ent0006"><rect fill="#F1F1F1" height="78.2031" rx="12.5" ry="12.5" style="stroke:#181818;stroke-width:0.5;" width="182.2813" x="43" y="569.6844"/><line style="stroke:#181818;stroke-width:0.5;" x1="43" x2="225.2813" y1="595.9813" y2="595.9813"/><text fill="#000000" font-family="sans-serif" font-size="14" lengthAdjust="spacing" textLength="27.0908" x="120.5952" y="587.6795">B1a</text><text fill="#000000" font-family="sans-serif" font-size="12" lengthAdjust="spacing" textLength="50.1621" x="48" y="612.1199">during {</text><text fill="#000000" font-family="sans-serif" font-size="12" lengthAdjust="spacing" textLength="147.0234" x="63.2578" y="626.0887">counter = counter + 10;</text><text fill="#000000" font-family="sans-serif" font-size="12" lengthAdjust="spacing" textLength="7.6348" x="48" y="640.0574">}</text></g><g class="start_entity" data-qualified-name="root.root__b.root__b__b1..start.root__b__b1" data-source-line="22" id="ent0002"><ellipse cx="134.14" cy="523.6844" fill="#222222" rx="10" ry="10" style="stroke:#222222;stroke-width:1;"/></g><!--link *start*root__b__b1 to root__b__b1__b1a--><g class="link" data-entity-1="ent0002" data-entity-2="ent0006" data-link-type="dependency" data-source-line="22" id="lnk3"><path d="M134.14,533.8944 C134.14,542.5944 134.14,550.2544 134.14,563.4844" fill="none" id="*start*root__b__b1-to-root__b__b1__b1a" style="stroke:#181818;stroke-width:1;"/><polygon fill="#181818" points="134.14,569.4844,138.14,560.4844,134.14,564.4844,130.14,560.4844,134.14,569.4844" style="stroke:#181818;stroke-width:1;"/></g><g class="start_entity" data-qualified-name="root.root__b..start.root__b" data-source-line="24" id="ent0004"><ellipse cx="140.14" cy="430.3875" fill="#222222" rx="10" ry="10" style="stroke:#222222;stroke-width:1;"/></g><!--link *start*root__b to root__b__b1--><g class="link" data-entity-1="ent0004" data-entity-2="ent0005" data-link-type="dependency" data-source-line="24" id="lnk5"><path d="M140.14,440.7575 C140.14,448.9275 140.14,455.7175 140.14,470.0875" fill="none" id="*start*root__b-to-root__b__b1" style="stroke:#181818;stroke-width:1;"/><polygon fill="#181818" points="140.14,476.0875,144.14,467.0875,140.14,471.0875,136.14,467.0875,140.14,476.0875" style="stroke:#181818;stroke-width:1;"/></g><g class="entity" data-qualified-name="root.root__c" id="ent0007"><rect fill="#F1F1F1" height="78.2031" rx="12.5" ry="12.5" style="stroke:#181818;stroke-width:0.5;" width="189.916" x="291.18" y="489.3906"/><line style="stroke:#181818;stroke-width:0.5;" x1="291.18" x2="481.096" y1="515.6875" y2="515.6875"/><text fill="#000000" font-family="sans-serif" font-size="14" lengthAdjust="spacing" textLength="9.7754" x="381.2503" y="507.3857">C</text><text fill="#000000" font-family="sans-serif" font-size="12" lengthAdjust="spacing" textLength="50.1621" x="296.18" y="531.8262">during {</text><text fill="#000000" font-family="sans-serif" font-size="12" lengthAdjust="spacing" textLength="154.6582" x="311.4378" y="545.7949">counter = counter + 100;</text><text fill="#000000" font-family="sans-serif" font-size="12" lengthAdjust="spacing" textLength="7.6348" x="296.18" y="559.7637">}</text></g><g class="start_entity" data-qualified-name="root..start.root" data-source-line="28" id="ent0006"><ellipse cx="266.14" cy="204.8906" fill="#222222" rx="10" ry="10" style="stroke:#222222;stroke-width:1;"/></g><!--link *start*root to root__a--><g class="link" data-entity-1="ent0006" data-entity-2="ent0003" data-link-type="dependency" data-source-line="28" id="lnk7"><path d="M266.14,215.2106 C266.14,224.1106 266.14,232.1206 266.14,245.6206" fill="none" id="*start*root-to-root__a" style="stroke:#181818;stroke-width:1;"/><polygon fill="#181818" points="266.14,251.6206,270.14,242.6206,266.14,246.6206,262.14,242.6206,266.14,251.6206" style="stroke:#181818;stroke-width:1;"/></g><!--link root__a to root__b--><g class="link" data-entity-1="ent0003" data-entity-2="ent0004" data-link-type="dependency" data-source-line="29" id="lnk8"><path d="M246.59,330.3506 C238.96,345.3406 232.4033,358.1942 222.6133,377.4142" fill="none" id="root__a-to-root__b" style="stroke:#181818;stroke-width:1;"/><polygon fill="#181818" points="219.89,382.7606,227.5392,376.5566,222.1594,378.3053,220.4106,372.9255,219.89,382.7606" style="stroke:#181818;stroke-width:1;"/><text fill="#000000" font-family="sans-serif" font-size="13" lengthAdjust="spacing" textLength="39.9712" x="239.14" y="361.1575">A.GoB</text></g><!--link root__a to root__c--><g class="link" data-entity-1="ent0003" data-entity-2="ent0007" data-link-type="dependency" data-source-line="30" id="lnk9"><path d="M285.69,330.3506 C308,374.1506 341.5663,440.0145 363.8763,483.8045" fill="none" id="root__a-to-root__c" style="stroke:#181818;stroke-width:1;"/><polygon fill="#181818" points="366.6,489.1506,366.0785,479.3156,364.3302,484.6955,358.9503,482.9472,366.6,489.1506" style="stroke:#181818;stroke-width:1;"/><text fill="#000000" font-family="sans-serif" font-size="13" lengthAdjust="spacing" textLength="40.1299" x="302.14" y="361.1575">A.GoC</text></g><g class="start_entity" data-qualified-name=".start." data-source-line="32" id="ent0010"><ellipse cx="256.05" cy="87.5938" fill="#222222" rx="10" ry="10" style="stroke:#222222;stroke-width:1;"/></g><g class="end_entity" data-qualified-name=".end." data-source-line="33" id="ent0012"><ellipse cx="256.05" cy="757.8838" fill="none" rx="11" ry="11" style="stroke:#222222;stroke-width:1;"/><ellipse cx="256.05" cy="757.8838" fill="#222222" rx="6" ry="6" style="stroke:#222222;stroke-width:1;"/></g><!--link *start* to root--><g class="link" data-entity-1="ent0010" data-entity-2="ent0002" data-link-type="dependency" data-source-line="32" id="lnk11"><path d="M256.05,97.8338 C256.05,109.3238 256.05,124.6937 256.05,151.1837" fill="none" id="*start*-to-root" style="stroke:#181818;stroke-width:1;"/><polygon fill="#181818" points="256.05,157.1837,260.05,148.1837,256.05,152.1837,252.05,148.1837,256.05,157.1837" style="stroke:#181818;stroke-width:1;"/></g><!--link root to *end*--><g class="link" data-entity-1="ent0002" data-entity-2="ent0012" data-link-type="dependency" data-source-line="33" id="lnk13"><path d="M256.05,687.3438 C256.05,713.4237 256.05,728.6338 256.05,740.5038" fill="none" id="root-to-*end*" style="stroke:#181818;stroke-width:1;"/><polygon fill="#181818" points="256.05,746.5038,260.05,737.5038,256.05,741.5038,252.05,737.5038,256.05,746.5038" style="stroke:#181818;stroke-width:1;"/></g><?plantuml-src ZL9DRy8m3BtdLrWSDp71TGCaYZGqQQTjscLCA2IcHAH9bBg7YlBVbtQbf0WagdwuUS_FpqvsIY9WvgW4YRdmof6oXh5yhupZdcUG4oU40mD8kDYdtXP6BgosVZ9nEHRIpcRmhj8TBJqlhx64pPpD5U69cEW2QwBr4lsbLAloQWrzKganWXHnhGGxCgOnHIE1h0EDMsBL5BwvLtoZ4KByLRhc-sOKAQu35Yf2nIeGmHUXXmgKeV0UXTMWzAyNkcvw7NnOImFWEVWGGB-3UX3G3cKmxrZhDM-0DePda8LN9eN3ojJhfyBJBdg4ySlA76Ev99BRNAqRaySnEzpZcnczB7wPLZ-ynxq4x-jcrBLpkduUVc4udDqkTgPVeR8pepM_YAoBQDpYJeDdX_ro_QsBR0JT-TFI9ZTmqUABS2PZHTQSc_elhFu1?></g></svg>