<svg xmlns="http://www.w3.org/2000/svg" xmlns:xlink="http://www.w3.org/1999/xlink" contentStyleType="text/css" data-diagram-type="STATE" height="1090px" preserveAspectRatio="none" style="width:596px;height:1090px;background:#FFFFFF;" version="1.1" viewBox="0 0 596 1090" width="596px" zoomAndPan="magnify"><?plantuml 1.2026.3beta4?><defs/><g><g class="legend" data-source-line="10"><rect fill="#DDDDDD" height="79.1875" rx="7.5" ry="7.5" style="stroke:#000000;stroke-width:1;" width="267.5234" x="12" y="12"/><text fill="#000000" font-family="sans-serif" font-size="14" font-weight="bold" lengthAdjust="spacing" textLength="65.748" x="21.874" y="31.9951">Variable</text><text fill="#000000" font-family="sans-serif" font-size="14" font-weight="bold" lengthAdjust="spacing" textLength="38.1924" x="126.5801" y="31.9951">Type</text><text fill="#000000" font-family="sans-serif" font-size="14" font-weight="bold" lengthAdjust="spacing" textLength="95.1289" x="174.5205" y="31.9951">Initial Value</text><text fill="#000000" font-family="sans-serif" font-size="14" lengthAdjust="spacing" textLength="63.5195" x="21.4502" y="48.292">door_pos</text><text fill="#000000" font-family="sans-serif" font-size="14" lengthAdjust="spacing" textLength="18.252" x="126.1563" y="48.292">int</text><text fill="#000000" font-family="sans-serif" font-size="14" lengthAdjust="spacing" textLength="8.9072" x="174.0967" y="48.292">0</text><text fill="#000000" font-family="sans-serif" font-size="14" lengthAdjust="spacing" textLength="30.2148" x="21.4502" y="64.5889">hold</text><text fill="#000000" font-family="sans-serif" font-size="14" lengthAdjust="spacing" textLength="18.252" x="126.1563" y="64.5889">int</text><text fill="#000000" font-family="sans-serif" font-size="14" lengthAdjust="spacing" textLength="8.9072" x="174.0967" y="64.5889">0</text><text fill="#000000" font-family="sans-serif" font-size="14" lengthAdjust="spacing" textLength="95.8057" x="21.4502" y="80.8857">reopen_count</text><text fill="#000000" font-family="sans-serif" font-size="14" lengthAdjust="spacing" textLength="18.252" x="126.1563" y="80.8857">int</text><text fill="#000000" font-family="sans-serif" font-size="14" lengthAdjust="spacing" textLength="8.9072" x="174.0967" y="80.8857">0</text><line style="stroke:#000000;stroke-width:1;" x1="17" x2="274.5234" y1="19" y2="19"/><line style="stroke:#000000;stroke-width:1;" x1="17" x2="274.5234" y1="35.2969" y2="35.2969"/><line style="stroke:#000000;stroke-width:1;" x1="17" x2="274.5234" y1="51.5938" y2="51.5938"/><line style="stroke:#000000;stroke-width:1;" x1="17" x2="274.5234" y1="67.8906" y2="67.8906"/><line style="stroke:#000000;stroke-width:1;" x1="17" x2="274.5234" y1="84.1875" y2="84.1875"/><line style="stroke:#000000;stroke-width:1;" x1="17" x2="17" y1="19" y2="84.1875"/><line style="stroke:#000000;stroke-width:1;" x1="121.7061" x2="121.7061" y1="19" y2="84.1875"/><line style="stroke:#000000;stroke-width:1;" x1="169.6465" x2="169.6465" y1="19" y2="84.1875"/><line style="stroke:#000000;stroke-width:1;" x1="274.5234" x2="274.5234" y1="19" y2="84.1875"/></g><path d="M19.5,190.1875 L569.0086,190.1875 A12.5,12.5 0 0 1 581.5086,202.6875 L581.5086,216.4844 L7,216.4844 L7,202.6875 A12.5,12.5 0 0 1 19.5,190.1875" fill="#ADD8E6"/><rect fill="none" height="804.11" rx="12.5" ry="12.5" style="stroke:#181818;stroke-width:0.5;" width="574.5086" x="7" y="190.1875"/><line style="stroke:#181818;stroke-width:0.5;" x1="7" x2="581.5086" y1="216.4844" y2="216.4844"/><text fill="#000000" font-family="sans-serif" font-size="14" lengthAdjust="spacing" textLength="32.3477" x="278.0805" y="208.1826">Root</text><g class="entity" data-qualified-name="root.root__closed" id="ent0003"><rect fill="#F1F1F1" height="78.2031" rx="12.5" ry="12.5" style="stroke:#181818;stroke-width:0.5;" width="90.5176" x="292.9" y="284.4844"/><line style="stroke:#181818;stroke-width:0.5;" x1="292.9" x2="383.4176" y1="310.7813" y2="310.7813"/><text fill="#000000" font-family="sans-serif" font-size="14" lengthAdjust="spacing" textLength="47.0244" x="314.6466" y="302.4795">Closed</text><text fill="#000000" font-family="sans-serif" font-size="12" lengthAdjust="spacing" textLength="50.1621" x="297.9" y="326.9199">during {</text><text fill="#000000" font-family="sans-serif" font-size="12" lengthAdjust="spacing" textLength="55.2598" x="313.1578" y="340.8887">hold = 0;</text><text fill="#000000" font-family="sans-serif" font-size="12" lengthAdjust="spacing" textLength="7.6348" x="297.9" y="354.8574">}</text></g><g class="entity" data-qualified-name="root.root__opening" id="ent0004"><rect fill="#F1F1F1" height="78.2031" rx="12.5" ry="12.5" style="stroke:#181818;stroke-width:0.5;" width="198.8281" x="153.74" y="480.6844"/><line style="stroke:#181818;stroke-width:0.5;" x1="153.74" x2="352.5681" y1="506.9812" y2="506.9812"/><text fill="#000000" font-family="sans-serif" font-size="14" lengthAdjust="spacing" textLength="59.042" x="223.6331" y="498.6795">Opening</text><text fill="#000000" font-family="sans-serif" font-size="12" lengthAdjust="spacing" textLength="50.1621" x="158.74" y="523.1199">during {</text><text fill="#000000" font-family="sans-serif" font-size="12" lengthAdjust="spacing" textLength="163.5703" x="173.9978" y="537.0887">door_pos = door_pos + 50;</text><text fill="#000000" font-family="sans-serif" font-size="12" lengthAdjust="spacing" textLength="7.6348" x="158.74" y="551.0574">}</text></g><g class="entity" data-qualified-name="root.root__opened" id="ent0005"><rect fill="#F1F1F1" height="78.2031" rx="12.5" ry="12.5" style="stroke:#181818;stroke-width:0.5;" width="134.0996" x="65.11" y="676.8844"/><line style="stroke:#181818;stroke-width:0.5;" x1="65.11" x2="199.2096" y1="703.1812" y2="703.1812"/><text fill="#000000" font-family="sans-serif" font-size="14" lengthAdjust="spacing" textLength="54.8926" x="104.7135" y="694.8795">Opened</text><text fill="#000000" font-family="sans-serif" font-size="12" lengthAdjust="spacing" textLength="50.1621" x="70.11" y="719.3199">during {</text><text fill="#000000" font-family="sans-serif" font-size="12" lengthAdjust="spacing" textLength="98.8418" x="85.3678" y="733.2887">hold = hold + 1;</text><text fill="#000000" font-family="sans-serif" font-size="12" lengthAdjust="spacing" textLength="7.6348" x="70.11" y="747.2574">}</text></g><g class="entity" data-qualified-name="root.root__closing" id="ent0006"><rect fill="#F1F1F1" height="78.2031" rx="12.5" ry="12.5" style="stroke:#181818;stroke-width:0.5;" width="193.1035" x="35.61" y="903.0944"/><line style="stroke:#181818;stroke-width:0.5;" x1="35.61" x2="228.7135" y1="929.3912" y2="929.3912"/><text fill="#000000" font-family="sans-serif" font-size="14" lengthAdjust="spacing" textLength="51.1738" x="106.5748" y="921.0895">Closing</text><text fill="#000000" font-family="sans-serif" font-size="12" lengthAdjust="spacing" textLength="50.1621" x="40.61" y="945.5299">during {</text><text fill="#000000" font-family="sans-serif" font-size="12" lengthAdjust="spacing" textLength="157.8457" x="55.8678" y="959.4987">door_pos = door_pos - 50;</text><text fill="#000000" font-family="sans-serif" font-size="12" lengthAdjust="spacing" textLength="7.6348" x="40.61" y="973.4674">}</text></g><g class="start_entity" data-qualified-name="root..start.root" data-source-line="26" id="ent0002"><ellipse cx="338.16" cy="237.4844" fill="#222222" rx="10" ry="10" style="stroke:#222222;stroke-width:1;"/></g><!--link *start*root to root__closed--><g class="link" data-entity-1="ent0002" data-entity-2="ent0003" data-link-type="dependency" data-source-line="26" id="lnk3"><path d="M338.16,247.8044 C338.16,256.6944 338.16,264.7044 338.16,278.2044" fill="none" id="*start*root-to-root__closed" style="stroke:#181818;stroke-width:1;"/><polygon fill="#181818" points="338.16,284.2044,342.16,275.2044,338.16,279.2044,334.16,275.2044,338.16,284.2044" style="stroke:#181818;stroke-width:1;"/></g><!--link root__closed to root__opening--><g class="link" data-entity-1="ent0003" data-entity-2="ent0004" data-link-type="dependency" data-source-line="27" id="lnk4"><path d="M311.79,363.1544 C308.34,368.9044 305.01,374.8644 302.16,380.6844 C286.26,413.1244 274.6896,446.3313 265.9696,474.5813" fill="none" id="root__closed-to-root__opening" style="stroke:#181818;stroke-width:1;"/><polygon fill="#181818" points="264.2,480.3144,270.6765,472.8945,265.6747,475.5368,263.0324,470.535,264.2,480.3144" style="stroke:#181818;stroke-width:1;"/><text fill="#000000" font-family="sans-serif" font-size="13" lengthAdjust="spacing" textLength="97.0303" x="307.3419" y="393.7513">Closed.HallCall</text><path d="M307.16,402.8172 L307.16,457.8172 L404.16,457.8172 L404.16,412.8172 L394.16,402.8172 L307.16,402.8172" fill="#FEFFDD" style="stroke:#181818;stroke-width:0.5;"/><path d="M394.16,402.8172 L394.16,412.8172 L404.16,412.8172 L394.16,402.8172" fill="#FEFFDD" style="stroke:#181818;stroke-width:0.5;"/><text fill="#000000" font-family="sans-serif" font-size="13" lengthAdjust="spacing" textLength="49.7974" x="313.16" y="419.8841">effect {</text><text fill="#000000" font-family="sans-serif" font-size="13" lengthAdjust="spacing" textLength="59.8647" x="329.6893" y="435.0169">hold = 0;</text><text fill="#000000" font-family="sans-serif" font-size="13" lengthAdjust="spacing" textLength="8.271" x="313.16" y="450.1497">}</text></g><!--link root__opening to root__opened--><g class="link" data-entity-1="ent0004" data-entity-2="ent0005" data-link-type="dependency" data-source-line="33" id="lnk5"><path d="M229.25,559.1544 C208.04,593.2044 180.3826,637.5818 159.1826,671.6118" fill="none" id="root__opening-to-root__opened" style="stroke:#181818;stroke-width:1;"/><polygon fill="#181818" points="156.01,676.7044,164.164,671.1805,158.6538,672.4605,157.3738,666.9504,156.01,676.7044" style="stroke:#181818;stroke-width:1;"/><text fill="#000000" font-family="sans-serif" font-size="13" lengthAdjust="spacing" textLength="113.8452" x="219.16" y="589.9513">door_pos &gt;= 100</text><path d="M227.3856,599.0172 L227.3856,654.0172 L324.3856,654.0172 L324.3856,609.0172 L314.3856,599.0172 L227.3856,599.0172" fill="#FEFFDD" style="stroke:#181818;stroke-width:0.5;"/><path d="M314.3856,599.0172 L314.3856,609.0172 L324.3856,609.0172 L314.3856,599.0172" fill="#FEFFDD" style="stroke:#181818;stroke-width:0.5;"/><text fill="#000000" font-family="sans-serif" font-size="13" lengthAdjust="spacing" textLength="49.7974" x="233.3856" y="616.0841">effect {</text><text fill="#000000" font-family="sans-serif" font-size="13" lengthAdjust="spacing" textLength="59.8647" x="249.9149" y="631.2169">hold = 0;</text><text fill="#000000" font-family="sans-serif" font-size="13" lengthAdjust="spacing" textLength="8.271" x="233.3856" y="646.3497">}</text></g><!--link root__opened to root__closing--><g class="link" data-entity-1="ent0005" data-entity-2="ent0006" data-link-type="dependency" data-source-line="39" id="lnk6"><path d="M64.98,747.6144 C55.83,754.6744 47.7,763.1144 42.16,773.0944 C18,816.6144 18,841.5644 42.16,885.0944 C45.82,891.6944 46.3071,893.4432 51.7871,898.7432" fill="none" id="root__opened-to-root__closing" style="stroke:#181818;stroke-width:1;"/><polygon fill="#181818" points="56.1,902.9144,52.4115,893.7823,52.5059,899.4384,46.8499,899.5328,56.1,902.9144" style="stroke:#181818;stroke-width:1;"/><text fill="#000000" font-family="sans-serif" font-size="13" lengthAdjust="spacing" textLength="66.3774" x="43.16" y="833.6613">hold &gt;= 2</text></g><!--link root__closing to root__opened--><g class="link" data-entity-1="ent0006" data-entity-2="ent0005" data-link-type="dependency" data-source-line="40" id="lnk7"><path d="M132.16,902.7744 C132.16,861.6344 132.16,802.7244 132.16,761.5344" fill="none" id="root__closing-to-root__opened" style="stroke:#181818;stroke-width:1;"/><polygon fill="#181818" points="132.16,755.5344,128.16,764.5344,132.16,760.5344,136.16,764.5344,132.16,755.5344" style="stroke:#181818;stroke-width:1;"/><text fill="#000000" font-family="sans-serif" font-size="13" lengthAdjust="spacing" textLength="140.6069" x="200.0663" y="786.1613">Closing.BeamBlocked</text><path d="M137.16,795.2272 L137.16,880.2272 L403.16,880.2272 L403.16,805.2272 L393.16,795.2272 L137.16,795.2272" fill="#FEFFDD" style="stroke:#181818;stroke-width:0.5;"/><path d="M393.16,795.2272 L393.16,805.2272 L403.16,805.2272 L393.16,795.2272" fill="#FEFFDD" style="stroke:#181818;stroke-width:0.5;"/><text fill="#000000" font-family="sans-serif" font-size="13" lengthAdjust="spacing" textLength="49.7974" x="143.16" y="812.2941">effect {</text><text fill="#000000" font-family="sans-serif" font-size="13" lengthAdjust="spacing" textLength="228.8901" x="159.6893" y="827.4269">reopen_count = reopen_count + 1;</text><text fill="#000000" font-family="sans-serif" font-size="13" lengthAdjust="spacing" textLength="107.3325" x="159.6893" y="842.5597">door_pos = 100;</text><text fill="#000000" font-family="sans-serif" font-size="13" lengthAdjust="spacing" textLength="59.8647" x="159.6893" y="857.6925">hold = 0;</text><text fill="#000000" font-family="sans-serif" font-size="13" lengthAdjust="spacing" textLength="8.271" x="143.16" y="872.8253">}</text></g><!--link root__closing to root__closed--><g class="link" data-entity-1="ent0006" data-entity-2="ent0003" data-link-type="dependency" data-source-line="48" id="lnk8"><path d="M229.08,934.3744 C299.58,927.1644 386.48,912.8144 409.16,885.0944 C480.12,798.3244 458.02,481.5644 409.16,380.6844 C403.47,368.9544 398.6867,362.6832 388.4967,354.4932" fill="none" id="root__closing-to-root__closed" style="stroke:#181818;stroke-width:1;"/><polygon fill="#181818" points="383.82,350.7344,388.3292,359.4904,387.7172,353.8667,393.3409,353.2548,383.82,350.7344" style="stroke:#181818;stroke-width:1;"/><text fill="#000000" font-family="sans-serif" font-size="13" lengthAdjust="spacing" textLength="97.3032" x="459.2054" y="589.9513">door_pos &lt;= 0</text><path d="M459.16,599.0172 L459.16,654.0172 L556.16,654.0172 L556.16,609.0172 L546.16,599.0172 L459.16,599.0172" fill="#FEFFDD" style="stroke:#181818;stroke-width:0.5;"/><path d="M546.16,599.0172 L546.16,609.0172 L556.16,609.0172 L546.16,599.0172" fill="#FEFFDD" style="stroke:#181818;stroke-width:0.5;"/><text fill="#000000" font-family="sans-serif" font-size="13" lengthAdjust="spacing" textLength="49.7974" x="465.16" y="616.0841">effect {</text><text fill="#000000" font-family="sans-serif" font-size="13" lengthAdjust="spacing" textLength="59.8647" x="481.6893" y="631.2169">hold = 0;</text><text fill="#000000" font-family="sans-serif" font-size="13" lengthAdjust="spacing" textLength="8.271" x="465.16" y="646.3497">}</text></g><g class="start_entity" data-qualified-name=".start." data-source-line="55" id="ent0009"><ellipse cx="294.25" cy="120.1875" fill="#222222" rx="10" ry="10" style="stroke:#222222;stroke-width:1;"/></g><g class="end_entity" data-qualified-name=".end." data-source-line="56" id="ent0011"><ellipse cx="294.25" cy="1065.2975" fill="none" rx="11" ry="11" style="stroke:#222222;stroke-width:1;"/><ellipse cx="294.25" cy="1065.2975" fill="#222222" rx="6" ry="6" style="stroke:#222222;stroke-width:1;"/></g><!--link *start* to root--><g class="link" data-entity-1="ent0009" data-entity-2="ent0002" data-link-type="dependency" data-source-line="55" id="lnk10"><path d="M294.25,130.5775 C294.25,141.8975 294.25,156.8075 294.25,183.6875" fill="none" id="*start*-to-root" style="stroke:#181818;stroke-width:1;"/><polygon fill="#181818" points="294.25,189.6875,298.25,180.6875,294.25,184.6875,290.25,180.6875,294.25,189.6875" style="stroke:#181818;stroke-width:1;"/></g><!--link root to *end*--><g class="link" data-entity-1="ent0002" data-entity-2="ent0011" data-link-type="dependency" data-source-line="56" id="lnk12"><path d="M294.25,994.7875 C294.25,1021.6175 294.25,1036.5975 294.25,1048.2175" fill="none" id="root-to-*end*" style="stroke:#181818;stroke-width:1;"/><polygon fill="#181818" points="294.25,1054.2175,298.25,1045.2175,294.25,1049.2175,290.25,1045.2175,294.25,1054.2175" style="stroke:#181818;stroke-width:1;"/></g><?plantuml-src hLF1JkCm4BtxAqOzWeeA4XTeUcWbOAMLaDZLNW1LnfwsLbrFvBY7YlRVT-AaJHooOf4u9BQVns_UlB5NHYFW9Wyxq5WeR_9Wo0bHh8tBfPSRA88C2Ey2O2hLUkbfw_ICBFdnE2zmgsaoWPzckGhtNkxweXHjSYfCm6FWr6wn32IlqNUfQfOxSk5Ns5biRPaWhL7Y88J59JeDWNAmk0XYdy4VwOryimWy_xtBu_Z3cM2avJtE27kn1qtavwm6zc1SuFyemYkokWDvf1pTN74X8TdYn5LwDYbQCtWY2WEG1NYUG5fmwHlK7WvcbWhKfz3vN4KWXhG1k06zzSOjuVt5bPjHNmQZsnTtQ1C-iaGEQp5IXRGeQ-G3vycAh9cUmtLlZaGqHQ2JuT-Yut0EbrtUqenKkwgGZXt_gttOrlvyzWh3uUGJcvk8ngIgHnSFqjePV_6G8nPC3gnnwmZWOe4grCrD6XIHIaDvGykJFRr84rVU7UkOP70v6dr_tgJUnjZ8m3clUcplaLbtxMAASZErfDQrhvzBJHvKbYxBwt4AR3MNZRZzQgqVnJUFwiWyPfhlSFWWsXTDnFTVhXZz2m00?></g></svg>