<svg xmlns="http://www.w3.org/2000/svg" xmlns:xlink="http://www.w3.org/1999/xlink" contentStyleType="text/css" data-diagram-type="STATE" height="743px" preserveAspectRatio="none" style="width:269px;height:743px;background:#FFFFFF;" version="1.1" viewBox="0 0 269 743" width="269px" zoomAndPan="magnify"><?plantuml 1.2026.3beta4?><defs/><g><g class="legend" data-source-line="10"><rect fill="#DDDDDD" height="46.5938" rx="7.5" ry="7.5" style="stroke:#000000;stroke-width:1;" width="238.3135" x="12" y="12"/><text fill="#000000" font-family="sans-serif" font-size="14" font-weight="bold" lengthAdjust="spacing" textLength="65.748" x="21.874" y="31.9951">Variable</text><text fill="#000000" font-family="sans-serif" font-size="14" font-weight="bold" lengthAdjust="spacing" textLength="38.1924" x="97.3701" y="31.9951">Type</text><text fill="#000000" font-family="sans-serif" font-size="14" font-weight="bold" lengthAdjust="spacing" textLength="95.1289" x="145.3105" y="31.9951">Initial Value</text><text fill="#000000" font-family="sans-serif" font-size="14" lengthAdjust="spacing" textLength="53.8672" x="21.4502" y="48.292">counter</text><text fill="#000000" font-family="sans-serif" font-size="14" lengthAdjust="spacing" textLength="18.252" x="96.9463" y="48.292">int</text><text fill="#000000" font-family="sans-serif" font-size="14" lengthAdjust="spacing" textLength="8.9072" x="144.8867" y="48.292">0</text><line style="stroke:#000000;stroke-width:1;" x1="17" x2="245.3135" y1="19" y2="19"/><line style="stroke:#000000;stroke-width:1;" x1="17" x2="245.3135" y1="35.2969" y2="35.2969"/><line style="stroke:#000000;stroke-width:1;" x1="17" x2="245.3135" y1="51.5938" y2="51.5938"/><line style="stroke:#000000;stroke-width:1;" x1="17" x2="17" y1="19" y2="51.5938"/><line style="stroke:#000000;stroke-width:1;" x1="92.4961" x2="92.4961" y1="19" y2="51.5938"/><line style="stroke:#000000;stroke-width:1;" x1="140.4365" x2="140.4365" y1="19" y2="51.5938"/><line style="stroke:#000000;stroke-width:1;" x1="245.3135" x2="245.3135" y1="19" y2="51.5938"/></g><path d="M26.3813,157.5938 L234.9321,157.5938 A12.5,12.5 0 0 1 247.4321,170.0938 L247.4321,183.8906 L13.8813,183.8906 L13.8813,170.0938 A12.5,12.5 0 0 1 26.3813,157.5938" fill="#ADD8E6"/><rect fill="none" height="489.82" rx="12.5" ry="12.5" style="stroke:#181818;stroke-width:0.5;" width="233.5508" x="13.8813" y="157.5938"/><line style="stroke:#181818;stroke-width:0.5;" x1="13.8813" x2="247.4321" y1="183.8906" y2="183.8906"/><text fill="#000000" font-family="sans-serif" font-size="14" lengthAdjust="spacing" textLength="32.3477" x="114.4829" y="175.5889">Root</text><g class="entity" data-qualified-name="root.root__a" id="ent0003"><rect fill="#F1F1F1" height="78.2031" rx="12.5" ry="12.5" style="stroke:#181818;stroke-width:0.5;" width="174.6465" x="37.3313" y="251.8906"/><line style="stroke:#181818;stroke-width:0.5;" x1="37.3313" x2="211.9778" y1="278.1875" y2="278.1875"/><text fill="#000000" font-family="sans-serif" font-size="14" lengthAdjust="spacing" textLength="9.5771" x="119.866" y="269.8857">A</text><text fill="#000000" font-family="sans-serif" font-size="12" lengthAdjust="spacing" textLength="50.1621" x="42.3313" y="294.3262">during {</text><text fill="#000000" font-family="sans-serif" font-size="12" lengthAdjust="spacing" textLength="139.3887" x="57.5892" y="308.2949">counter = counter + 1;</text><text fill="#000000" font-family="sans-serif" font-size="12" lengthAdjust="spacing" textLength="7.6348" x="42.3313" y="322.2637">}</text></g><g class="entity" data-qualified-name="root.root__p" id="ent0004"><rect fill="#D3D3D3" height="120.1094" rx="12.5" ry="12.5" style="stroke:#808080;stroke-width:1;stroke-dasharray:1,3;" width="189.916" x="29.7013" y="383.1006"/><line style="stroke:#808080;stroke-width:1;stroke-dasharray:1,3;" x1="29.7013" x2="219.6174" y1="409.3975" y2="409.3975"/><text fill="#000000" font-family="sans-serif" font-size="14" font-style="italic" lengthAdjust="spacing" textLength="8.4424" x="120.4382" y="401.0957">P</text><text fill="#000000" font-family="sans-serif" font-size="12" font-style="italic" lengthAdjust="spacing" textLength="43.459" x="34.7013" y="425.5362">enter {</text><text fill="#000000" font-family="sans-serif" font-size="12" font-style="italic" lengthAdjust="spacing" textLength="147.0234" x="49.9592" y="439.5049">counter = counter + 10;</text><text fill="#000000" font-family="sans-serif" font-size="12" font-style="italic" lengthAdjust="spacing" textLength="7.6348" x="34.7013" y="453.4737">}</text><text fill="#000000" font-family="sans-serif" font-size="12" font-style="italic" lengthAdjust="spacing" textLength="50.1621" x="34.7013" y="467.4424">during {</text><text fill="#000000" font-family="sans-serif" font-size="12" font-style="italic" lengthAdjust="spacing" textLength="154.6582" x="49.9592" y="481.4112">counter = counter + 100;</text><text fill="#000000" font-family="sans-serif" font-size="12" font-style="italic" lengthAdjust="spacing" textLength="7.6348" x="34.7013" y="495.3799">}</text></g><g class="entity" data-qualified-name="root.root__b" id="ent0005"><rect fill="#F1F1F1" height="78.2031" rx="12.5" ry="12.5" style="stroke:#181818;stroke-width:0.5;" width="197.5508" x="25.8813" y="556.2106"/><line style="stroke:#181818;stroke-width:0.5;" x1="25.8813" x2="223.4321" y1="582.5075" y2="582.5075"/><text fill="#000000" font-family="sans-serif" font-size="14" lengthAdjust="spacing" textLength="9.6045" x="119.8545" y="574.2057">B</text><text fill="#000000" font-family="sans-serif" font-size="12" lengthAdjust="spacing" textLength="50.1621" x="30.8813" y="598.6462">during {</text><text fill="#000000" font-family="sans-serif" font-size="12" lengthAdjust="spacing" textLength="162.293" x="46.1392" y="612.6149">counter = counter + 1000;</text><text fill="#000000" font-family="sans-serif" font-size="12" lengthAdjust="spacing" textLength="7.6348" x="30.8813" y="626.5837">}</text></g><g class="start_entity" data-qualified-name="root..start.root" data-source-line="22" id="ent0002"><ellipse cx="124.6613" cy="204.8906" fill="#222222" rx="10" ry="10" style="stroke:#222222;stroke-width:1;"/></g><!--link *start*root to root__a--><g class="link" data-entity-1="ent0002" data-entity-2="ent0003" data-link-type="dependency" data-source-line="22" id="lnk3"><path d="M124.6613,215.2206 C124.6613,224.1106 124.6613,232.1206 124.6613,245.6206" fill="none" id="*start*root-to-root__a" style="stroke:#181818;stroke-width:1;"/><polygon fill="#181818" points="124.6613,251.6206,128.6613,242.6206,124.6613,246.6206,120.6613,242.6206,124.6613,251.6206" style="stroke:#181818;stroke-width:1;"/></g><!--link root__a to root__p--><g class="link" data-entity-1="ent0003" data-entity-2="ent0004" data-link-type="dependency" data-source-line="23" id="lnk4"><path d="M124.6613,330.2806 C124.6613,346.1806 124.6613,359.0006 124.6613,376.6306" fill="none" id="root__a-to-root__p" style="stroke:#181818;stroke-width:1;"/><polygon fill="#181818" points="124.6613,382.6306,128.6613,373.6306,124.6613,377.6306,120.6613,373.6306,124.6613,382.6306" style="stroke:#181818;stroke-width:1;"/><text fill="#000000" font-family="sans-serif" font-size="13" lengthAdjust="spacing" textLength="38.8921" x="125.6613" y="361.1675">A.GoP</text></g><!--link root__p to root__b--><g class="link" data-entity-1="ent0004" data-entity-2="ent0005" data-link-type="dependency" data-source-line="24" id="lnk5"><path d="M124.6613,503.5006 C124.6613,521.2006 124.6613,534.1306 124.6613,550.1006" fill="none" id="root__p-to-root__b" style="stroke:#181818;stroke-width:1;"/><polygon fill="#181818" points="124.6613,556.1006,128.6613,547.1006,124.6613,551.1006,120.6613,547.1006,124.6613,556.1006" style="stroke:#181818;stroke-width:1;"/><text fill="#000000" font-family="sans-serif" font-size="13" lengthAdjust="spacing" textLength="38.9175" x="125.6613" y="534.2775">P.GoB</text></g><g class="start_entity" data-qualified-name=".start." data-source-line="26" id="ent0006"><ellipse cx="130.6613" cy="87.5938" fill="#222222" rx="10" ry="10" style="stroke:#222222;stroke-width:1;"/></g><g class="end_entity" data-qualified-name=".end." data-source-line="27" id="ent0008"><ellipse cx="130.6613" cy="718.4138" fill="none" rx="11" ry="11" style="stroke:#222222;stroke-width:1;"/><ellipse cx="130.6613" cy="718.4138" fill="#222222" rx="6" ry="6" style="stroke:#222222;stroke-width:1;"/></g><!--link *start* to root--><g class="link" data-entity-1="ent0006" data-entity-2="ent0002" data-link-type="dependency" data-source-line="26" id="lnk7"><path d="M130.6613,97.9538 C130.6613,109.5538 130.6613,125.0338 130.6613,151.4138" fill="none" id="*start*-to-root" style="stroke:#181818;stroke-width:1;"/><polygon fill="#181818" points="130.6613,157.4138,134.6613,148.4138,130.6613,152.4138,126.6613,148.4138,130.6613,157.4138" style="stroke:#181818;stroke-width:1;"/></g><!--link root to *end*--><g class="link" data-entity-1="ent0002" data-entity-2="ent0008" data-link-type="dependency" data-source-line="27" id="lnk9"><path d="M130.6613,647.7438 C130.6613,673.7038 130.6613,688.9938 130.6613,700.9438" fill="none" id="root-to-*end*" style="stroke:#181818;stroke-width:1;"/><polygon fill="#181818" points="130.6613,706.9438,134.6613,697.9438,130.6613,701.9438,126.6613,697.9438,130.6613,706.9438" style="stroke:#181818;stroke-width:1;"/></g><?plantuml-src ZL9BQyCm3BxxLuZkjj6INRSsq0nM1ZkKRUooZkB6MchgMiPH3g7fVv-JzU6MCdg9PNtYUyXPQeM0QySrA2nphnrhiaAKAssTz78D9Kj6s0Y0JEQhmbDbrHCPyiEXAx5IbARmgeibJxoiBqtbj7PKQiRzO6OgR0V9A_JdL3kMPxByphN12D8iZSx5LWY31Le5J0uC_h1eHl0flPOBWn3gZzfrvulLhAK9M524HZIG1r-C7XhGbiCt2Tt0zCSNKdTPUsz4t0DPWWy5d2Pe5m6xfVJ6XwdvN7R0heO7K9NNje3DpBRzlV3eKDt1_UFCRcEwQKJd84f-OxJ5WI9cL96C2pBOaVsdahGoCtk5doGvTvH5ZXQHykAwW4d4-7Nx3Vr-Ud5RntuRQJoOqFGavX5lXQS1py9l43EAxgdQM-Z-0W00?></g></svg>