<svg xmlns="http://www.w3.org/2000/svg" xmlns:xlink="http://www.w3.org/1999/xlink" contentStyleType="text/css" data-diagram-type="STATE" height="987px" preserveAspectRatio="none" style="width:298px;height:987px;background:#FFFFFF;" version="1.1" viewBox="0 0 298 987" width="298px" zoomAndPan="magnify"><?plantuml 1.2026.3beta4?><defs/><g><g class="legend" data-source-line="10"><rect fill="#DDDDDD" height="79.1875" rx="7.5" ry="7.5" style="stroke:#000000;stroke-width:1;" width="267.5234" x="12" y="12"/><text fill="#000000" font-family="sans-serif" font-size="14" font-weight="bold" lengthAdjust="spacing" textLength="65.748" x="21.874" y="31.9951">Variable</text><text fill="#000000" font-family="sans-serif" font-size="14" font-weight="bold" lengthAdjust="spacing" textLength="38.1924" x="126.5801" y="31.9951">Type</text><text fill="#000000" font-family="sans-serif" font-size="14" font-weight="bold" lengthAdjust="spacing" textLength="95.1289" x="174.5205" y="31.9951">Initial Value</text><text fill="#000000" font-family="sans-serif" font-size="14" lengthAdjust="spacing" textLength="63.5195" x="21.4502" y="48.292">door_pos</text><text fill="#000000" font-family="sans-serif" font-size="14" lengthAdjust="spacing" textLength="18.252" x="126.1563" y="48.292">int</text><text fill="#000000" font-family="sans-serif" font-size="14" lengthAdjust="spacing" textLength="8.9072" x="174.0967" y="48.292">0</text><text fill="#000000" font-family="sans-serif" font-size="14" lengthAdjust="spacing" textLength="30.2148" x="21.4502" y="64.5889">hold</text><text fill="#000000" font-family="sans-serif" font-size="14" lengthAdjust="spacing" textLength="18.252" x="126.1563" y="64.5889">int</text><text fill="#000000" font-family="sans-serif" font-size="14" lengthAdjust="spacing" textLength="8.9072" x="174.0967" y="64.5889">0</text><text fill="#000000" font-family="sans-serif" font-size="14" lengthAdjust="spacing" textLength="95.8057" x="21.4502" y="80.8857">reopen_count</text><text fill="#000000" font-family="sans-serif" font-size="14" lengthAdjust="spacing" textLength="18.252" x="126.1563" y="80.8857">int</text><text fill="#000000" font-family="sans-serif" font-size="14" lengthAdjust="spacing" textLength="8.9072" x="174.0967" y="80.8857">0</text><line style="stroke:#000000;stroke-width:1;" x1="17" x2="274.5234" y1="19" y2="19"/><line style="stroke:#000000;stroke-width:1;" x1="17" x2="274.5234" y1="35.2969" y2="35.2969"/><line style="stroke:#000000;stroke-width:1;" x1="17" x2="274.5234" y1="51.5938" y2="51.5938"/><line style="stroke:#000000;stroke-width:1;" x1="17" x2="274.5234" y1="67.8906" y2="67.8906"/><line style="stroke:#000000;stroke-width:1;" x1="17" x2="274.5234" y1="84.1875" y2="84.1875"/><line style="stroke:#000000;stroke-width:1;" x1="17" x2="17" y1="19" y2="84.1875"/><line style="stroke:#000000;stroke-width:1;" x1="121.7061" x2="121.7061" y1="19" y2="84.1875"/><line style="stroke:#000000;stroke-width:1;" x1="169.6465" x2="169.6465" y1="19" y2="84.1875"/><line style="stroke:#000000;stroke-width:1;" x1="274.5234" x2="274.5234" y1="19" y2="84.1875"/></g><path d="M57.5017,190.1875 L233.0217,190.1875 A12.5,12.5 0 0 1 245.5217,202.6875 L245.5217,216.4844 L45.0017,216.4844 L45.0017,202.6875 A12.5,12.5 0 0 1 57.5017,190.1875" fill="#ADD8E6"/><rect fill="none" height="701.4838" rx="12.5" ry="12.5" style="stroke:#181818;stroke-width:0.5;" width="200.52" x="45.0017" y="190.1875"/><line style="stroke:#181818;stroke-width:0.5;" x1="45.0017" x2="245.5217" y1="216.4844" y2="216.4844"/><text fill="#000000" font-family="sans-serif" font-size="14" lengthAdjust="spacing" textLength="32.3477" x="129.0879" y="208.1826">Root</text><g class="entity" data-qualified-name="root.root__closed" id="ent0003"><rect fill="#F1F1F1" height="66.2969" rx="12.5" ry="12.5" style="stroke:#181818;stroke-width:0.5;" width="67.0244" x="97.0117" y="284.4844"/><line style="stroke:#181818;stroke-width:0.5;" x1="97.0117" x2="164.0361" y1="310.7813" y2="310.7813"/><text fill="#000000" font-family="sans-serif" font-size="14" lengthAdjust="spacing" textLength="47.0244" x="107.0117" y="302.4795">Closed</text><text fill="#000000" font-family="sans-serif" font-size="12" lengthAdjust="spacing" textLength="0" x="102.0117" y="315.7813">during {</text><text fill="#000000" font-family="sans-serif" font-size="12" lengthAdjust="spacing" textLength="0" x="117.2695" y="325.7813">hold = 0;</text><text fill="#000000" font-family="sans-serif" font-size="12" lengthAdjust="spacing" textLength="0" x="102.0117" y="335.7813">}</text></g><g class="entity" data-qualified-name="root.root__opening" id="ent0004"><rect fill="#F1F1F1" height="66.2969" rx="12.5" ry="12.5" style="stroke:#181818;stroke-width:0.5;" width="79.042" x="57.0017" y="453.7844"/><line style="stroke:#181818;stroke-width:0.5;" x1="57.0017" x2="136.0437" y1="480.0813" y2="480.0813"/><text fill="#000000" font-family="sans-serif" font-size="14" lengthAdjust="spacing" textLength="59.042" x="67.0017" y="471.7795">Opening</text><text fill="#000000" font-family="sans-serif" font-size="12" lengthAdjust="spacing" textLength="0" x="62.0017" y="485.0813">during {</text><text fill="#000000" font-family="sans-serif" font-size="12" lengthAdjust="spacing" textLength="0" x="77.2595" y="495.0813">door_pos = door_pos + 50;</text><text fill="#000000" font-family="sans-serif" font-size="12" lengthAdjust="spacing" textLength="0" x="62.0017" y="505.0813">}</text></g><g class="entity" data-qualified-name="root.root__opened" id="ent0005"><rect fill="#F1F1F1" height="66.2969" rx="12.5" ry="12.5" style="stroke:#181818;stroke-width:0.5;" width="74.8926" x="59.0717" y="623.0844"/><line style="stroke:#181818;stroke-width:0.5;" x1="59.0717" x2="133.9643" y1="649.3813" y2="649.3813"/><text fill="#000000" font-family="sans-serif" font-size="14" lengthAdjust="spacing" textLength="54.8926" x="69.0717" y="641.0795">Opened</text><text fill="#000000" font-family="sans-serif" font-size="12" lengthAdjust="spacing" textLength="0" x="64.0717" y="654.3813">during {</text><text fill="#000000" font-family="sans-serif" font-size="12" lengthAdjust="spacing" textLength="0" x="79.3295" y="664.3813">hold = hold + 1;</text><text fill="#000000" font-family="sans-serif" font-size="12" lengthAdjust="spacing" textLength="0" x="64.0717" y="674.3813">}</text></g><g class="entity" data-qualified-name="root.root__closing" id="ent0006"><rect fill="#F1F1F1" height="66.2969" rx="12.5" ry="12.5" style="stroke:#181818;stroke-width:0.5;" width="71.1738" x="74.9317" y="812.3744"/><line style="stroke:#181818;stroke-width:0.5;" x1="74.9317" x2="146.1055" y1="838.6713" y2="838.6713"/><text fill="#000000" font-family="sans-serif" font-size="14" lengthAdjust="spacing" textLength="51.1738" x="84.9317" y="830.3695">Closing</text><text fill="#000000" font-family="sans-serif" font-size="12" lengthAdjust="spacing" textLength="0" x="79.9317" y="843.6713">during {</text><text fill="#000000" font-family="sans-serif" font-size="12" lengthAdjust="spacing" textLength="0" x="95.1895" y="853.6713">door_pos = door_pos - 50;</text><text fill="#000000" font-family="sans-serif" font-size="12" lengthAdjust="spacing" textLength="0" x="79.9317" y="863.6713">}</text></g><g class="start_entity" data-qualified-name="root..start.root" data-source-line="26" id="ent0002"><ellipse cx="130.5217" cy="237.4844" fill="#222222" rx="10" ry="10" style="stroke:#222222;stroke-width:1;"/></g><!--link *start*root to root__closed--><g class="link" data-entity-1="ent0002" data-entity-2="ent0003" data-link-type="dependency" data-source-line="26" id="lnk3"><path d="M130.5217,247.7544 C130.5217,256.7344 130.5217,264.8744 130.5217,278.0144" fill="none" id="*start*root-to-root__closed" style="stroke:#181818;stroke-width:1;"/><polygon fill="#181818" points="130.5217,284.0144,134.5217,275.0144,130.5217,279.0144,126.5217,275.0144,130.5217,284.0144" style="stroke:#181818;stroke-width:1;"/></g><!--link root__closed to root__opening--><g class="link" data-entity-1="ent0003" data-entity-2="ent0004" data-link-type="dependency" data-source-line="27" id="lnk4"><path d="M116.9317,351.1944 C114.8717,356.9744 112.9617,363.0044 111.5217,368.7844 C104.4917,396.9344 101.1631,423.7762 99.1331,447.5062" fill="none" id="root__closed-to-root__opening" style="stroke:#181818;stroke-width:1;"/><polygon fill="#181818" points="98.6217,453.4844,103.3743,444.8581,99.0479,448.5026,95.4034,444.1762,98.6217,453.4844" style="stroke:#181818;stroke-width:1;"/><text fill="#000000" font-family="sans-serif" font-size="13" lengthAdjust="spacing" textLength="0" x="131.1572" y="369.7844">Closed.HallCall</text><path d="M116.5217,385.7844 L116.5217,430.7844 L145.5217,430.7844 L145.5217,395.7844 L135.5217,385.7844 L116.5217,385.7844" fill="#FEFFDD" style="stroke:#181818;stroke-width:0.5;"/><path d="M135.5217,385.7844 L135.5217,395.7844 L145.5217,395.7844 L135.5217,385.7844" fill="#FEFFDD" style="stroke:#181818;stroke-width:0.5;"/><text fill="#000000" font-family="sans-serif" font-size="13" lengthAdjust="spacing" textLength="0" x="122.5217" y="390.7844">effect {</text><text fill="#000000" font-family="sans-serif" font-size="13" lengthAdjust="spacing" textLength="0" x="139.051" y="400.7844">hold = 0;</text><text fill="#000000" font-family="sans-serif" font-size="13" lengthAdjust="spacing" textLength="8.271" x="122.5217" y="425.9172">}</text></g><!--link root__opening to root__opened--><g class="link" data-entity-1="ent0004" data-entity-2="ent0005" data-link-type="dependency" data-source-line="33" id="lnk5"><path d="M96.5217,520.1844 C96.5217,549.7144 96.5217,587.1944 96.5217,616.7844" fill="none" id="root__opening-to-root__opened" style="stroke:#181818;stroke-width:1;"/><polygon fill="#181818" points="96.5217,622.7844,100.5217,613.7844,96.5217,617.7844,92.5217,613.7844,96.5217,622.7844" style="stroke:#181818;stroke-width:1;"/><text fill="#000000" font-family="sans-serif" font-size="13" lengthAdjust="spacing" textLength="0" x="116.1572" y="539.0844">door_pos &gt;= 100</text><path d="M101.5217,555.0844 L101.5217,600.0844 L130.5217,600.0844 L130.5217,565.0844 L120.5217,555.0844 L101.5217,555.0844" fill="#FEFFDD" style="stroke:#181818;stroke-width:0.5;"/><path d="M120.5217,555.0844 L120.5217,565.0844 L130.5217,565.0844 L120.5217,555.0844" fill="#FEFFDD" style="stroke:#181818;stroke-width:0.5;"/><text fill="#000000" font-family="sans-serif" font-size="13" lengthAdjust="spacing" textLength="0" x="107.5217" y="560.0844">effect {</text><text fill="#000000" font-family="sans-serif" font-size="13" lengthAdjust="spacing" textLength="0" x="124.051" y="570.0844">hold = 0;</text><text fill="#000000" font-family="sans-serif" font-size="13" lengthAdjust="spacing" textLength="8.271" x="107.5217" y="595.2172">}</text></g><!--link root__opened to root__closing--><g class="link" data-entity-1="ent0005" data-entity-2="ent0006" data-link-type="dependency" data-source-line="39" id="lnk6"><path d="M92.4717,689.6144 C89.7717,717.5544 87.6717,758.8944 93.5217,794.3744 C94.4817,800.1844 94.2649,800.4873 96.0349,806.2673" fill="none" id="root__opened-to-root__closing" style="stroke:#181818;stroke-width:1;"/><polygon fill="#181818" points="97.7917,812.0044,98.9811,802.2276,96.3277,807.2235,91.3318,804.5701,97.7917,812.0044" style="stroke:#181818;stroke-width:1;"/><text fill="#000000" font-family="sans-serif" font-size="13" lengthAdjust="spacing" textLength="0" x="94.5217" y="745.8744">hold &gt;= 2</text></g><!--link root__closing to root__opened--><g class="link" data-entity-1="ent0006" data-entity-2="ent0005" data-link-type="dependency" data-source-line="40" id="lnk7"><path d="M108.0917,811.9644 C105.5317,777.7144 101.9687,730.1077 99.4087,695.8377" fill="none" id="root__closing-to-root__opened" style="stroke:#181818;stroke-width:1;"/><polygon fill="#181818" points="98.9617,689.8544,95.6433,699.1273,99.3342,694.8405,103.621,698.5314,98.9617,689.8544" style="stroke:#181818;stroke-width:1;"/><text fill="#000000" font-family="sans-serif" font-size="13" lengthAdjust="spacing" textLength="0" x="127.1572" y="708.3744">Closing.BeamBlocked</text><path d="M112.5217,724.3744 L112.5217,789.3744 L141.5217,789.3744 L141.5217,734.3744 L131.5217,724.3744 L112.5217,724.3744" fill="#FEFFDD" style="stroke:#181818;stroke-width:0.5;"/><path d="M131.5217,724.3744 L131.5217,734.3744 L141.5217,734.3744 L131.5217,724.3744" fill="#FEFFDD" style="stroke:#181818;stroke-width:0.5;"/><text fill="#000000" font-family="sans-serif" font-size="13" lengthAdjust="spacing" textLength="0" x="118.5217" y="729.3744">effect {</text><text fill="#000000" font-family="sans-serif" font-size="13" lengthAdjust="spacing" textLength="0" x="135.051" y="739.3744">reopen_count = reopen_count + 1;</text><text fill="#000000" font-family="sans-serif" font-size="13" lengthAdjust="spacing" textLength="0" x="135.051" y="749.3744">door_pos = 100;</text><text fill="#000000" font-family="sans-serif" font-size="13" lengthAdjust="spacing" textLength="0" x="135.051" y="759.3744">hold = 0;</text><text fill="#000000" font-family="sans-serif" font-size="13" lengthAdjust="spacing" textLength="8.271" x="118.5217" y="784.5072">}</text></g><!--link root__closing to root__closed--><g class="link" data-entity-1="ent0006" data-entity-2="ent0003" data-link-type="dependency" data-source-line="48" id="lnk8"><path d="M141.2717,812.1544 C145.0617,806.5844 148.3517,800.5744 150.5217,794.3744 C213.0017,615.8444 186.2017,554.5444 150.5217,368.7844 C149.4117,362.9844 149.6529,362.6537 147.6029,356.9237" fill="none" id="root__closing-to-root__closed" style="stroke:#181818;stroke-width:1;"/><polygon fill="#181818" points="145.5817,351.2744,144.8472,361.0958,147.266,355.9822,152.3797,358.401,145.5817,351.2744" style="stroke:#181818;stroke-width:1;"/><text fill="#000000" font-family="sans-serif" font-size="13" lengthAdjust="spacing" textLength="0" x="207.1572" y="539.0844">door_pos &lt;= 0</text><path d="M192.5217,555.0844 L192.5217,600.0844 L221.5217,600.0844 L221.5217,565.0844 L211.5217,555.0844 L192.5217,555.0844" fill="#FEFFDD" style="stroke:#181818;stroke-width:0.5;"/><path d="M211.5217,555.0844 L211.5217,565.0844 L221.5217,565.0844 L211.5217,555.0844" fill="#FEFFDD" style="stroke:#181818;stroke-width:0.5;"/><text fill="#000000" font-family="sans-serif" font-size="13" lengthAdjust="spacing" textLength="0" x="198.5217" y="560.0844">effect {</text><text fill="#000000" font-family="sans-serif" font-size="13" lengthAdjust="spacing" textLength="0" x="215.051" y="570.0844">hold = 0;</text><text fill="#000000" font-family="sans-serif" font-size="13" lengthAdjust="spacing" textLength="8.271" x="198.5217" y="595.2172">}</text></g><g class="start_entity" data-qualified-name=".start." data-source-line="55" id="ent0009"><ellipse cx="145.2617" cy="120.1875" fill="#222222" rx="10" ry="10" style="stroke:#222222;stroke-width:1;"/></g><g class="end_entity" data-qualified-name=".end." data-source-line="56" id="ent0011"><ellipse cx="145.2617" cy="962.6675" fill="none" rx="11" ry="11" style="stroke:#222222;stroke-width:1;"/><ellipse cx="145.2617" cy="962.6675" fill="#222222" rx="6" ry="6" style="stroke:#222222;stroke-width:1;"/></g><!--link *start* to root--><g class="link" data-entity-1="ent0009" data-entity-2="ent0002" data-link-type="dependency" data-source-line="55" id="lnk10"><path d="M145.2617,130.3175 C145.2617,141.6775 145.2617,156.9275 145.2617,183.9975" fill="none" id="*start*-to-root" style="stroke:#181818;stroke-width:1;"/><polygon fill="#181818" points="145.2617,189.9975,149.2617,180.9975,145.2617,184.9975,141.2617,180.9975,145.2617,189.9975" style="stroke:#181818;stroke-width:1;"/></g><!--link root to *end*--><g class="link" data-entity-1="ent0002" data-entity-2="ent0011" data-link-type="dependency" data-source-line="56" id="lnk12"><path d="M145.2617,891.8875 C145.2617,918.5775 145.2617,933.7075 145.2617,945.4475" fill="none" id="root-to-*end*" style="stroke:#181818;stroke-width:1;"/><polygon fill="#181818" points="145.2617,951.4475,149.2617,942.4475,145.2617,946.4475,141.2617,942.4475,145.2617,951.4475" style="stroke:#181818;stroke-width:1;"/></g><?plantuml-src hLF1JkCm4BtxAqOzWeeA4XTeUcWbOAMLaDZLNW1LnfwsLbrFvBY7YlRVT-AaJHooOf4u9BQVns_UlB5NHYFW9Wyxq5WeR_9Wo0bHh8tBfPSRA88C2Ey2O2hLUkbfw_ICBFdnE2zmgsaoWPzckGhtNkxweXHjSYfCm6FWr6wn32IlqNUfQfOxSk5Ns5biRPaWhL7Y88J59JeDWNAmk0XYdy4VwOryimWy_xtBu_Z3cM2avJtE27kn1qtavwm6zc1SuFyemYkokWDvf1pTN74X8TdYn5LwDYbQCtWY2WEG1NYUG5fmwHlK7WvcbWhKfz3vN4KWXhG1k06zzSOjuVt5bPjHNmQZsnTtQ1C-iaGEQp5IXRGeQ-G3vycAh9cUmtLlZaGqHQ2JuT-Yut0EbrtUqenKkwgGZXt_gttOrlvyzWh3uUGJcvk8ngIgHnSFqjePV_6G8nPC3gnnwmZWOe4grCrD6XIHIaDvGykJFRr84rVU7UkOP70v6dr_tgJUnjZ8m3clUcplaLbtxMAASZErfDQrhvzBJHvKbYxBwt4AR3MNZRZzQgqVnJUFwiWyPfhlSFWWsXTDnFTVhXZz2m00?></g></svg>