<svg xmlns="http://www.w3.org/2000/svg" xmlns:xlink="http://www.w3.org/1999/xlink" contentStyleType="text/css" data-diagram-type="STATE" height="1127px" preserveAspectRatio="none" style="width:580px;height:1127px;background:#FFFFFF;" version="1.1" viewBox="0 0 580 1127" width="580px" zoomAndPan="magnify"><?plantuml 1.2026.3beta4?><defs/><g><g class="legend" data-source-line="10"><rect fill="#DDDDDD" height="79.1875" rx="7.5" ry="7.5" style="stroke:#000000;stroke-width:1;" width="260.0244" x="12" y="12"/><text fill="#000000" font-family="sans-serif" font-size="14" font-weight="bold" lengthAdjust="spacing" textLength="65.748" x="21.874" y="31.9951">Variable</text><text fill="#000000" font-family="sans-serif" font-size="14" font-weight="bold" lengthAdjust="spacing" textLength="38.1924" x="119.0811" y="31.9951">Type</text><text fill="#000000" font-family="sans-serif" font-size="14" font-weight="bold" lengthAdjust="spacing" textLength="95.1289" x="167.0215" y="31.9951">Initial Value</text><text fill="#000000" font-family="sans-serif" font-size="14" lengthAdjust="spacing" textLength="53.8672" x="21.4502" y="48.292">counter</text><text fill="#000000" font-family="sans-serif" font-size="14" lengthAdjust="spacing" textLength="18.252" x="118.6572" y="48.292">int</text><text fill="#000000" font-family="sans-serif" font-size="14" lengthAdjust="spacing" textLength="8.9072" x="166.5977" y="48.292">0</text><text fill="#000000" font-family="sans-serif" font-size="14" lengthAdjust="spacing" textLength="80.9443" x="21.4502" y="64.5889">error_count</text><text fill="#000000" font-family="sans-serif" font-size="14" lengthAdjust="spacing" textLength="18.252" x="118.6572" y="64.5889">int</text><text fill="#000000" font-family="sans-serif" font-size="14" lengthAdjust="spacing" textLength="8.9072" x="166.5977" y="64.5889">0</text><text fill="#000000" font-family="sans-serif" font-size="14" lengthAdjust="spacing" textLength="88.3066" x="21.4502" y="80.8857">temperature</text><text fill="#000000" font-family="sans-serif" font-size="14" lengthAdjust="spacing" textLength="31.4521" x="118.6572" y="80.8857">float</text><text fill="#000000" font-family="sans-serif" font-size="14" lengthAdjust="spacing" textLength="31.1719" x="166.5977" y="80.8857">25.0</text><line style="stroke:#000000;stroke-width:1;" x1="17" x2="267.0244" y1="19" y2="19"/><line style="stroke:#000000;stroke-width:1;" x1="17" x2="267.0244" y1="35.2969" y2="35.2969"/><line style="stroke:#000000;stroke-width:1;" x1="17" x2="267.0244" y1="51.5938" y2="51.5938"/><line style="stroke:#000000;stroke-width:1;" x1="17" x2="267.0244" y1="67.8906" y2="67.8906"/><line style="stroke:#000000;stroke-width:1;" x1="17" x2="267.0244" y1="84.1875" y2="84.1875"/><line style="stroke:#000000;stroke-width:1;" x1="17" x2="17" y1="19" y2="84.1875"/><line style="stroke:#000000;stroke-width:1;" x1="114.207" x2="114.207" y1="19" y2="84.1875"/><line style="stroke:#000000;stroke-width:1;" x1="162.1475" x2="162.1475" y1="19" y2="84.1875"/><line style="stroke:#000000;stroke-width:1;" x1="267.0244" x2="267.0244" y1="19" y2="84.1875"/></g><path d="M19.5,190.1875 L553.2008,190.1875 A12.5,12.5 0 0 1 565.7008,202.6875 L565.7008,216.4844 L7,216.4844 L7,202.6875 A12.5,12.5 0 0 1 19.5,190.1875" fill="#ADD8E6"/><rect fill="none" height="841.5969" rx="12.5" ry="12.5" style="stroke:#181818;stroke-width:0.5;" width="558.7008" x="7" y="190.1875"/><line style="stroke:#181818;stroke-width:0.5;" x1="7" x2="565.7008" y1="216.4844" y2="216.4844"/><text fill="#000000" font-family="sans-serif" font-size="14" lengthAdjust="spacing" textLength="52.2061" x="260.2474" y="208.1826">System</text><rect fill="#F1F1F1" height="40" rx="12.5" ry="12.5" style="stroke:#181818;stroke-width:0.5;" width="81.627" x="337.57" y="284.4844"/><text fill="#000000" font-family="sans-serif" font-size="14" lengthAdjust="spacing" textLength="71.627" x="342.57" y="309.3311">Initializing</text><path d="M78.76,377.4844 L452.0007,377.4844 A12.5,12.5 0 0 1 464.5007,389.9844 L464.5007,403.7813 L66.26,403.7813 L66.26,389.9844 A12.5,12.5 0 0 1 78.76,377.4844" fill="#ADD8E6"/><rect fill="none" height="315.2969" rx="12.5" ry="12.5" style="stroke:#181818;stroke-width:0.5;" width="398.2407" x="66.26" y="377.4844"/><line style="stroke:#181818;stroke-width:0.5;" x1="66.26" x2="464.5007" y1="403.7813" y2="403.7813"/><text fill="#000000" font-family="sans-serif" font-size="14" lengthAdjust="spacing" textLength="43.5518" x="243.6045" y="395.4795">Active</text><rect fill="#F1F1F1" height="40" rx="12.5" ry="12.5" style="stroke:#181818;stroke-width:0.5;" width="85.3115" x="199.15" y="471.7813"/><text fill="#000000" font-family="sans-serif" font-size="14" lengthAdjust="spacing" textLength="75.3115" x="204.15" y="496.6279">Processing</text><rect fill="#F1F1F1" height="40" rx="12.5" ry="12.5" style="stroke:#181818;stroke-width:0.5;" width="63.4502" x="210.08" y="564.7813"/><text fill="#000000" font-family="sans-serif" font-size="14" lengthAdjust="spacing" textLength="53.4502" x="215.08" y="589.6279">Waiting</text><g class="end_entity" data-qualified-name="system.system__active..end.system__active" data-source-line="22" id="ent0002"><ellipse cx="302.8" cy="668.7813" fill="none" rx="11" ry="11" style="stroke:#222222;stroke-width:1;"/><ellipse cx="302.8" cy="668.7813" fill="#222222" rx="6" ry="6" style="stroke:#222222;stroke-width:1;"/></g><g class="start_entity" data-qualified-name="system.system__active..start.system__active" data-source-line="24" id="ent0005"><ellipse cx="241.8" cy="424.7813" fill="#222222" rx="10" ry="10" style="stroke:#222222;stroke-width:1;"/></g><!--link system__active__processing to *end*system__active--><g class="link" data-entity-1="ent0005" data-entity-2="ent0002" data-link-type="dependency" data-source-line="22" id="lnk3"><path d="M284.85,495.6413 C308.44,499.6713 335.85,508.9113 350.8,529.7813 C379.28,569.5213 375.15,597.3913 350.8,639.7813 C342.83,653.6713 330.7292,659.5073 319.1892,663.1673" fill="none" id="system__active__processing-to-*end*system__active" style="stroke:#181818;stroke-width:1;"/><polygon fill="#181818" points="313.47,664.9813,323.2581,666.0732,318.236,663.4697,320.8396,658.4476,313.47,664.9813" style="stroke:#181818;stroke-width:1;"/><text fill="#000000" font-family="sans-serif" font-size="13" lengthAdjust="spacing" textLength="68.7007" x="370.8" y="589.3481">/FatalError</text></g><!--link system__active__waiting to *end*system__active--><g class="link" data-entity-1="ent0006" data-entity-2="ent0002" data-link-type="dependency" data-source-line="23" id="lnk4"><path d="M255.51,605.1613 C262.91,615.5113 272.24,628.4213 280.8,639.7813 C285.86,646.4913 288.0232,649.287 292.4332,654.827" fill="none" id="system__active__waiting-to-*end*system__active" style="stroke:#181818;stroke-width:1;"/><polygon fill="#181818" points="296.17,659.5213,293.6943,649.9886,293.056,655.6093,287.4353,654.971,296.17,659.5213" style="stroke:#181818;stroke-width:1;"/><text fill="#000000" font-family="sans-serif" font-size="13" lengthAdjust="spacing" textLength="68.7007" x="281.8" y="635.8481">/FatalError</text></g><!--link *start*system__active to system__active__processing--><g class="link" data-entity-1="ent0005" data-entity-2="ent0005" data-link-type="dependency" data-source-line="24" id="lnk6"><path d="M241.8,435.0913 C241.8,444.5013 241.8,453.3212 241.8,465.3013" fill="none" id="*start*system__active-to-system__active__processing" style="stroke:#181818;stroke-width:1;"/><polygon fill="#181818" points="241.8,471.3013,245.8,462.3013,241.8,466.3013,237.8,462.3013,241.8,471.3013" style="stroke:#181818;stroke-width:1;"/></g><!--link system__active__processing to system__active__waiting--><g class="link" data-entity-1="ent0005" data-entity-2="ent0006" data-link-type="dependency" data-source-line="25" id="lnk7"><path d="M198.99,498.7113 C163.53,504.6013 117.17,514.9113 105.8,529.7813 C77.26,567.1213 155.0159,578.2545 203.6559,581.8045" fill="none" id="system__active__processing-to-system__active__waiting" style="stroke:#181818;stroke-width:1;"/><polygon fill="#181818" points="209.64,582.2413,200.955,577.5967,204.6533,581.8773,200.3727,585.5755,209.64,582.2413" style="stroke:#181818;stroke-width:1;"/><text fill="#000000" font-family="sans-serif" font-size="13" lengthAdjust="spacing" textLength="112.8804" x="106.8" y="542.8481">Processing.Pause</text></g><!--link system__active__waiting to system__active__processing--><g class="link" data-entity-1="ent0006" data-entity-2="ent0005" data-link-type="dependency" data-source-line="26" id="lnk8"><path d="M241.8,564.5113 C241.8,549.0713 241.8,533.5213 241.8,518.0813" fill="none" id="system__active__waiting-to-system__active__processing" style="stroke:#181818;stroke-width:1;"/><polygon fill="#181818" points="241.8,512.0813,237.8,521.0813,241.8,517.0813,245.8,521.0813,241.8,512.0813" style="stroke:#181818;stroke-width:1;"/><text fill="#000000" font-family="sans-serif" font-size="13" lengthAdjust="spacing" textLength="106.4692" x="242.8" y="542.8481">Waiting.Resume</text></g><rect fill="#F1F1F1" height="40" rx="12.5" ry="12.5" style="stroke:#181818;stroke-width:0.5;" width="50" x="161.38" y="810.7844"/><text fill="#000000" font-family="sans-serif" font-size="14" lengthAdjust="spacing" textLength="25.5186" x="173.6207" y="835.6311">Idle</text><rect fill="#F1F1F1" height="40" rx="12.5" ry="12.5" style="stroke:#181818;stroke-width:0.5;" width="50" x="293.38" y="903.7844"/><text fill="#000000" font-family="sans-serif" font-size="14" lengthAdjust="spacing" textLength="34.6787" x="301.0406" y="928.6311">Error</text><g class="start_entity" data-qualified-name="system..start.system" data-source-line="34" id="ent0013"><ellipse cx="378.38" cy="237.4844" fill="#222222" rx="10" ry="10" style="stroke:#222222;stroke-width:1;"/></g><g class="end_entity" data-qualified-name="system..end.system" data-source-line="44" id="ent0019"><ellipse cx="318.38" cy="1007.7844" fill="none" rx="11" ry="11" style="stroke:#222222;stroke-width:1;"/><ellipse cx="318.38" cy="1007.7844" fill="#222222" rx="6" ry="6" style="stroke:#222222;stroke-width:1;"/></g><!--link system__initializing to system__error--><g class="link" data-entity-1="ent0003" data-entity-2="ent0008" data-link-type="dependency" data-source-line="30" id="lnk9"><path d="M419.5,315.7444 C434.78,321.3944 451.11,329.9044 462.38,342.4844 C473.26,354.6344 470.91,361.3744 473.38,377.4844 C494.63,515.9944 483.93,553.0544 473.38,692.7844 C468.03,763.6144 490.04,792.5444 449.38,850.7844 C423.98,887.1744 379.802,905.3338 349.452,914.5338" fill="none" id="system__initializing-to-system__error" style="stroke:#181818;stroke-width:1;"/><polygon fill="#181818" points="343.71,916.2744,353.4834,917.4915,348.495,914.8239,351.1626,909.8355,343.71,916.2744" style="stroke:#181818;stroke-width:1;"/><text fill="#000000" font-family="sans-serif" font-size="13" lengthAdjust="spacing" textLength="64.3208" x="476.38" y="756.3513">FatalError</text></g><!--link system__active to system__error--><g class="link" data-entity-1="ent0004" data-entity-2="ent0008" data-link-type="dependency" data-source-line="31" id="lnk10"><path d="M260.38,693.0144 C262.17,744.0444 267.85,800.4744 281.38,850.7844 C286.49,869.7844 293.9554,884.4122 302.4954,898.4122" fill="none" id="system__active-to-system__error" style="stroke:#181818;stroke-width:1;"/><polygon fill="#181818" points="305.62,903.5344,304.348,893.768,303.0162,899.2659,297.5184,897.9341,305.62,903.5344" style="stroke:#181818;stroke-width:1;"/><text fill="#000000" font-family="sans-serif" font-size="13" lengthAdjust="spacing" textLength="64.3208" x="282.38" y="835.3513">FatalError</text></g><!--link system__idle to system__error--><g class="link" data-entity-1="ent0007" data-entity-2="ent0008" data-link-type="dependency" data-source-line="32" id="lnk11"><path d="M181.46,851.1344 C179.79,862.3544 179.94,876.1344 187.38,885.7844 C200.23,902.4344 252.6125,912.8943 286.9625,918.2843" fill="none" id="system__idle-to-system__error" style="stroke:#181818;stroke-width:1;"/><polygon fill="#181818" points="292.89,919.2144,284.6189,913.8676,287.9504,918.4393,283.3787,921.7709,292.89,919.2144" style="stroke:#181818;stroke-width:1;"/><text fill="#000000" font-family="sans-serif" font-size="13" lengthAdjust="spacing" textLength="64.3208" x="188.38" y="881.8513">FatalError</text></g><!--link system__error to system__error--><g class="link" data-entity-1="ent0008" data-entity-2="ent0008" data-link-type="dependency" data-source-line="33" id="lnk12"><path d="M343.56,915.1044 C353.29,914.7144 361.38,917.6044 361.38,923.7844 C361.38,929.9644 359.2852,933.0947 349.5552,932.7047" fill="none" id="system__error-to-system__error" style="stroke:#181818;stroke-width:1;"/><polygon fill="#181818" points="343.56,932.4644,352.3926,936.8216,348.556,932.6646,352.713,928.828,343.56,932.4644" style="stroke:#181818;stroke-width:1;"/><text fill="#000000" font-family="sans-serif" font-size="13" lengthAdjust="spacing" textLength="64.3208" x="367.38" y="928.3513">FatalError</text></g><!--link *start*system to system__initializing--><g class="link" data-entity-1="ent0013" data-entity-2="ent0003" data-link-type="dependency" data-source-line="34" id="lnk14"><path d="M378.38,247.8044 C378.38,257.2044 378.38,266.0244 378.38,278.0144" fill="none" id="*start*system-to-system__initializing" style="stroke:#181818;stroke-width:1;"/><polygon fill="#181818" points="378.38,284.0144,382.38,275.0144,378.38,279.0144,374.38,275.0144,378.38,284.0144" style="stroke:#181818;stroke-width:1;"/></g><!--link system__initializing to system__active--><g class="link" data-entity-1="ent0003" data-entity-2="ent0004" data-link-type="dependency" data-source-line="35" id="lnk15"><path d="M368.75,324.9844 C362.32,337.9944 355.8493,351.0859 345.6393,371.7359" fill="none" id="system__initializing-to-system__active" style="stroke:#181818;stroke-width:1;"/><polygon fill="#181818" points="342.98,377.1144,350.5546,370.8195,345.1961,372.6323,343.3833,367.2738,342.98,377.1144" style="stroke:#181818;stroke-width:1;"/><text fill="#000000" font-family="sans-serif" font-size="13" lengthAdjust="spacing" textLength="96.6113" x="361.38" y="355.5513">counter &gt;= 10</text></g><!--link system__active to system__idle--><g class="link" data-entity-1="ent0004" data-entity-2="ent0007" data-link-type="dependency" data-source-line="36" id="lnk16"><path d="M65.8,670.9344 C55.94,683.3944 47.29,696.6844 40.38,710.7844 C24.35,743.5144 18,764.0244 40.38,792.7844 C55.07,811.6644 117.4144,821.7355 155.1644,826.3555" fill="none" id="system__active-to-system__idle" style="stroke:#181818;stroke-width:1;"/><polygon fill="#181818" points="161.12,827.0844,152.6726,822.0207,156.157,826.477,151.7007,829.9615,161.12,827.0844" style="stroke:#181818;stroke-width:1;"/><text fill="#000000" font-family="sans-serif" font-size="13" lengthAdjust="spacing" textLength="74.1279" x="67.9945" y="723.8513">Active.Stop</text><path d="M45.38,732.9172 L45.38,787.9172 L164.38,787.9172 L164.38,742.9172 L154.38,732.9172 L45.38,732.9172" fill="#FEFFDD" style="stroke:#181818;stroke-width:0.5;"/><path d="M154.38,732.9172 L154.38,742.9172 L164.38,742.9172 L154.38,732.9172" fill="#FEFFDD" style="stroke:#181818;stroke-width:0.5;"/><text fill="#000000" font-family="sans-serif" font-size="13" lengthAdjust="spacing" textLength="49.7974" x="51.38" y="749.9841">effect {</text><text fill="#000000" font-family="sans-serif" font-size="13" lengthAdjust="spacing" textLength="81.8276" x="67.9093" y="765.1169">counter = 0;</text><text fill="#000000" font-family="sans-serif" font-size="13" lengthAdjust="spacing" textLength="8.271" x="51.38" y="780.2497">}</text></g><!--link system__idle to system__active--><g class="link" data-entity-1="ent0007" data-entity-2="ent0004" data-link-type="dependency" data-source-line="42" id="lnk17"><path d="M185.34,810.5444 C184.51,786.7844 184.55,745.2844 192.38,710.7844 C193.73,704.8544 193.6422,704.6522 195.3222,698.6522" fill="none" id="system__idle-to-system__active" style="stroke:#181818;stroke-width:1;"/><polygon fill="#181818" points="196.94,692.8744,190.6615,700.4625,195.5919,697.6892,198.3652,702.6196,196.94,692.8744" style="stroke:#181818;stroke-width:1;"/><text fill="#000000" font-family="sans-serif" font-size="13" lengthAdjust="spacing" textLength="59.5854" x="193.38" y="756.3513">Idle.Start</text></g><!--link system__active to system__error--><g class="link" data-entity-1="ent0004" data-entity-2="ent0008" data-link-type="dependency" data-source-line="43" id="lnk18"><path d="M320.73,693.0344 C331.78,731.0944 341.72,772.0044 347.38,810.7844 C349.95,828.3744 350.76,833.3344 347.38,850.7844 C343.77,869.4344 337.9529,883.9832 331.1029,898.1432" fill="none" id="system__active-to-system__error-1" style="stroke:#181818;stroke-width:1;"/><polygon fill="#181818" points="328.49,903.5444,336.0101,897.1845,330.6674,899.0434,328.8085,893.7007,328.49,903.5444" style="stroke:#181818;stroke-width:1;"/><text fill="#000000" font-family="sans-serif" font-size="13" lengthAdjust="spacing" textLength="93.9897" x="351.38" y="835.3513">counter &gt; 100</text></g><!--link system__error to *end*system--><g class="link" data-entity-1="ent0008" data-entity-2="ent0019" data-link-type="dependency" data-source-line="44" id="lnk20"><path d="M318.38,944.2144 C318.38,960.6944 318.38,977.6844 318.38,990.7144" fill="none" id="system__error-to-*end*system" style="stroke:#181818;stroke-width:1;"/><polygon fill="#181818" points="318.38,996.7144,322.38,987.7144,318.38,991.7144,314.38,987.7144,318.38,996.7144" style="stroke:#181818;stroke-width:1;"/><text fill="#000000" font-family="sans-serif" font-size="13" lengthAdjust="spacing" textLength="102.5908" x="319.38" y="974.8513">error_count &gt; 5</text></g><g class="start_entity" data-qualified-name=".start." data-source-line="46" id="ent0021"><ellipse cx="286.35" cy="120.1875" fill="#222222" rx="10" ry="10" style="stroke:#222222;stroke-width:1;"/></g><g class="end_entity" data-qualified-name=".end." data-source-line="47" id="ent0023"><ellipse cx="286.35" cy="1102.7875" fill="none" rx="11" ry="11" style="stroke:#222222;stroke-width:1;"/><ellipse cx="286.35" cy="1102.7875" fill="#222222" rx="6" ry="6" style="stroke:#222222;stroke-width:1;"/></g><!--link *start* to system--><g class="link" data-entity-1="ent0021" data-entity-2="ent0002" data-link-type="dependency" data-source-line="46" id="lnk22"><path d="M286.35,130.5175 C286.35,141.8675 286.35,156.9375 286.35,184.1275" fill="none" id="*start*-to-system" style="stroke:#181818;stroke-width:1;"/><polygon fill="#181818" points="286.35,190.1275,290.35,181.1275,286.35,185.1275,282.35,181.1275,286.35,190.1275" style="stroke:#181818;stroke-width:1;"/></g><!--link system to *end*--><g class="link" data-entity-1="ent0002" data-entity-2="ent0023" data-link-type="dependency" data-source-line="47" id="lnk24"><path d="M286.35,1032.1275 C286.35,1059.0875 286.35,1074.0875 286.35,1085.7075" fill="none" id="system-to-*end*" style="stroke:#181818;stroke-width:1;"/><polygon fill="#181818" points="286.35,1091.7075,290.35,1082.7075,286.35,1086.7075,282.35,1082.7075,286.35,1091.7075" style="stroke:#181818;stroke-width:1;"/></g><?plantuml-src bLJ1Rjim3BtxAuWS1pHB1_JYDGRMOXq6x50imtOO1aEpcLI88XaIlS5R-k-ZPDULlJX9BucXnqS-Fafya2K2xYfge4HNM5cHD3f9t5RgIbYn0qU24Fuc03UYs6wigNLvQvInrzULmxeqMGQVvEQ1FbZH78egpAuoJX8-1Twe6dsWiINQSQekovtHjA96OGH94aeMoMEIADoWBe5C1GhNbEoNy5LOANug1Fx-qbJX_wEM98LYZ2l2Fjb3mRe8BUn1QkBVHJX5QutD0pP2YAr1AwYsp8UrCi9ZRwxc7cO9hH2sAvWqMpME6JCG3bpuX67xtaNe79rrwkGVgJSH9Szb1CI4TmN9NpW85U7eO9M8U6zDWSwDwxJaFAzwU4py9bZ91EjtYprJ9hF2nKK6tr_zW1HUtmaUudllzoInIto2vH4VSKupnvLDrK_XsRVvlQWTdYNvIBKKEaFddz7LkpRVu-1Ey8qQtWK-Y0E22OC8x6qvT7y6aa8egnZPERfCBs1uTI-9R-4p2EFf_lyaJlNQDPFsJpvRmkNYLB-XeHJQbpPVyO8936tOUwD1IRqD1xXUOq7HItkgieJ5ssYiVajvyd7NUgr-_5nLM3ftC7rttDnYmkls4SLBBeChNgD3avDkOtMCVm00?></g></svg>