<svg xmlns="http://www.w3.org/2000/svg" xmlns:xlink="http://www.w3.org/1999/xlink" contentStyleType="text/css" data-diagram-type="STATE" height="808px" preserveAspectRatio="none" style="width:283px;height:808px;background:#FFFFFF;" version="1.1" viewBox="0 0 283 808" width="283px" zoomAndPan="magnify"><?plantuml 1.2026.3beta4?><defs/><g><g class="legend" data-source-line="10"><rect fill="#DDDDDD" height="46.5938" rx="7.5" ry="7.5" style="stroke:#000000;stroke-width:1;" width="238.3135" x="12" y="12"/><text fill="#000000" font-family="sans-serif" font-size="14" font-weight="bold" lengthAdjust="spacing" textLength="65.748" x="21.874" y="31.9951">Variable</text><text fill="#000000" font-family="sans-serif" font-size="14" font-weight="bold" lengthAdjust="spacing" textLength="38.1924" x="97.3701" y="31.9951">Type</text><text fill="#000000" font-family="sans-serif" font-size="14" font-weight="bold" lengthAdjust="spacing" textLength="95.1289" x="145.3105" y="31.9951">Initial Value</text><text fill="#000000" font-family="sans-serif" font-size="14" lengthAdjust="spacing" textLength="53.8672" x="21.4502" y="48.292">counter</text><text fill="#000000" font-family="sans-serif" font-size="14" lengthAdjust="spacing" textLength="18.252" x="96.9463" y="48.292">int</text><text fill="#000000" font-family="sans-serif" font-size="14" lengthAdjust="spacing" textLength="8.9072" x="144.8867" y="48.292">0</text><line style="stroke:#000000;stroke-width:1;" x1="17" x2="245.3135" y1="19" y2="19"/><line style="stroke:#000000;stroke-width:1;" x1="17" x2="245.3135" y1="35.2969" y2="35.2969"/><line style="stroke:#000000;stroke-width:1;" x1="17" x2="245.3135" y1="51.5938" y2="51.5938"/><line style="stroke:#000000;stroke-width:1;" x1="17" x2="17" y1="19" y2="51.5938"/><line style="stroke:#000000;stroke-width:1;" x1="92.4961" x2="92.4961" y1="19" y2="51.5938"/><line style="stroke:#000000;stroke-width:1;" x1="140.4365" x2="140.4365" y1="19" y2="51.5938"/><line style="stroke:#000000;stroke-width:1;" x1="245.3135" x2="245.3135" y1="19" y2="51.5938"/></g><path d="M19.5,157.5938 L256.416,157.5938 A12.5,12.5 0 0 1 268.916,170.0938 L268.916,183.8906 L7,183.8906 L7,170.0938 A12.5,12.5 0 0 1 19.5,157.5938" fill="#ADD8E6"/><rect fill="none" height="555.2069" rx="12.5" ry="12.5" style="stroke:#181818;stroke-width:0.5;" width="261.916" x="7" y="157.5938"/><line style="stroke:#181818;stroke-width:0.5;" x1="7" x2="268.916" y1="183.8906" y2="183.8906"/><text fill="#000000" font-family="sans-serif" font-size="14" lengthAdjust="spacing" textLength="32.3477" x="121.7842" y="175.5889">Root</text><g class="entity" data-qualified-name="root.root__a" id="ent0003"><rect fill="#F1F1F1" height="78.2031" rx="12.5" ry="12.5" style="stroke:#181818;stroke-width:0.5;" width="174.6465" x="44.63" y="251.8906"/><line style="stroke:#181818;stroke-width:0.5;" x1="44.63" x2="219.2765" y1="278.1875" y2="278.1875"/><text fill="#000000" font-family="sans-serif" font-size="14" lengthAdjust="spacing" textLength="9.5771" x="127.1647" y="269.8857">A</text><text fill="#000000" font-family="sans-serif" font-size="12" lengthAdjust="spacing" textLength="50.1621" x="49.63" y="294.3262">during {</text><text fill="#000000" font-family="sans-serif" font-size="12" lengthAdjust="spacing" textLength="139.3887" x="64.8878" y="308.2949">counter = counter + 1;</text><text fill="#000000" font-family="sans-serif" font-size="12" lengthAdjust="spacing" textLength="7.6348" x="49.63" y="322.2637">}</text></g><path d="M31.5,383.0906 L232.416,383.0906 A12.5,12.5 0 0 1 244.916,395.5906 L244.916,409.3875 L19,409.3875 L19,395.5906 A12.5,12.5 0 0 1 31.5,383.0906" fill="#ADD8E6"/><rect fill="none" height="316.71" rx="12.5" ry="12.5" style="stroke:#181818;stroke-width:0.5;" width="225.916" x="19" y="383.0906"/><line style="stroke:#181818;stroke-width:0.5;" x1="19" x2="244.916" y1="409.3875" y2="409.3875"/><text fill="#000000" font-family="sans-serif" font-size="14" lengthAdjust="spacing" textLength="9.6045" x="127.1558" y="401.0857">B</text><g class="entity" data-qualified-name="root.root__b.root__b__b1" id="ent0005"><rect fill="#F1F1F1" height="78.2031" rx="12.5" ry="12.5" style="stroke:#181818;stroke-width:0.5;" width="182.2813" x="34.82" y="477.3875"/><line style="stroke:#181818;stroke-width:0.5;" x1="34.82" x2="217.1013" y1="503.6844" y2="503.6844"/><text fill="#000000" font-family="sans-serif" font-size="14" lengthAdjust="spacing" textLength="18.5117" x="116.7048" y="495.3826">B1</text><text fill="#000000" font-family="sans-serif" font-size="12" lengthAdjust="spacing" textLength="50.1621" x="39.82" y="519.823">during {</text><text fill="#000000" font-family="sans-serif" font-size="12" lengthAdjust="spacing" textLength="147.0234" x="55.0778" y="533.7918">counter = counter + 10;</text><text fill="#000000" font-family="sans-serif" font-size="12" lengthAdjust="spacing" textLength="7.6348" x="39.82" y="547.7605">}</text></g><g class="entity" data-qualified-name="root.root__b.root__b__b2" id="ent0006"><rect fill="#F1F1F1" height="78.2031" rx="12.5" ry="12.5" style="stroke:#181818;stroke-width:0.5;" width="189.916" x="31" y="608.5975"/><line style="stroke:#181818;stroke-width:0.5;" x1="31" x2="220.916" y1="634.8944" y2="634.8944"/><text fill="#000000" font-family="sans-serif" font-size="14" lengthAdjust="spacing" textLength="18.5117" x="116.7021" y="626.5926">B2</text><text fill="#000000" font-family="sans-serif" font-size="12" lengthAdjust="spacing" textLength="50.1621" x="36" y="651.033">during {</text><text fill="#000000" font-family="sans-serif" font-size="12" lengthAdjust="spacing" textLength="154.6582" x="51.2578" y="665.0018">counter = counter + 100;</text><text fill="#000000" font-family="sans-serif" font-size="12" lengthAdjust="spacing" textLength="7.6348" x="36" y="678.9705">}</text></g><g class="start_entity" data-qualified-name="root.root__b..start.root__b" data-source-line="23" id="ent0002"><ellipse cx="125.96" cy="430.3875" fill="#222222" rx="10" ry="10" style="stroke:#222222;stroke-width:1;"/></g><!--link *start*root__b to root__b__b1--><g class="link" data-entity-1="ent0002" data-entity-2="ent0005" data-link-type="dependency" data-source-line="23" id="lnk3"><path d="M125.96,440.7175 C125.96,449.6075 125.96,457.6175 125.96,471.1175" fill="none" id="*start*root__b-to-root__b__b1" style="stroke:#181818;stroke-width:1;"/><polygon fill="#181818" points="125.96,477.1175,129.96,468.1175,125.96,472.1175,121.96,468.1175,125.96,477.1175" style="stroke:#181818;stroke-width:1;"/></g><!--link root__b__b1 to root__b__b2--><g class="link" data-entity-1="ent0005" data-entity-2="ent0006" data-link-type="dependency" data-source-line="24" id="lnk4"><path d="M125.96,555.9075 C125.96,572.4175 125.96,585.6875 125.96,602.2075" fill="none" id="root__b__b1-to-root__b__b2" style="stroke:#181818;stroke-width:1;"/><polygon fill="#181818" points="125.96,608.2075,129.96,599.2075,125.96,603.2075,121.96,599.2075,125.96,608.2075" style="stroke:#181818;stroke-width:1;"/><text fill="#000000" font-family="sans-serif" font-size="13" lengthAdjust="spacing" textLength="51.835" x="126.96" y="586.6644">B1.Next</text></g><g class="start_entity" data-qualified-name="root..start.root" data-source-line="26" id="ent0005"><ellipse cx="131.96" cy="204.8906" fill="#222222" rx="10" ry="10" style="stroke:#222222;stroke-width:1;"/></g><!--link *start*root to root__a--><g class="link" data-entity-1="ent0005" data-entity-2="ent0003" data-link-type="dependency" data-source-line="26" id="lnk6"><path d="M131.96,215.2106 C131.96,224.1006 131.96,232.1106 131.96,245.6106" fill="none" id="*start*root-to-root__a" style="stroke:#181818;stroke-width:1;"/><polygon fill="#181818" points="131.96,251.6106,135.96,242.6106,131.96,246.6106,127.96,242.6106,131.96,251.6106" style="stroke:#181818;stroke-width:1;"/></g><!--link root__a to root__b--><g class="link" data-entity-1="ent0003" data-entity-2="ent0004" data-link-type="dependency" data-source-line="27" id="lnk7"><path d="M131.96,330.5406 C131.96,345.3906 131.96,357.4406 131.96,376.6406" fill="none" id="root__a-to-root__b" style="stroke:#181818;stroke-width:1;"/><polygon fill="#181818" points="131.96,382.6406,135.96,373.6406,131.96,377.6406,127.96,373.6406,131.96,382.6406" style="stroke:#181818;stroke-width:1;"/><text fill="#000000" font-family="sans-serif" font-size="13" lengthAdjust="spacing" textLength="39.9712" x="132.96" y="361.1575">A.GoB</text></g><g class="start_entity" data-qualified-name=".start." data-source-line="29" id="ent0008"><ellipse cx="137.96" cy="87.5938" fill="#222222" rx="10" ry="10" style="stroke:#222222;stroke-width:1;"/></g><g class="end_entity" data-qualified-name=".end." data-source-line="30" id="ent0010"><ellipse cx="137.96" cy="783.8038" fill="none" rx="11" ry="11" style="stroke:#222222;stroke-width:1;"/><ellipse cx="137.96" cy="783.8038" fill="#222222" rx="6" ry="6" style="stroke:#222222;stroke-width:1;"/></g><!--link *start* to root--><g class="link" data-entity-1="ent0008" data-entity-2="ent0002" data-link-type="dependency" data-source-line="29" id="lnk9"><path d="M137.96,97.8438 C137.96,109.3238 137.96,124.7038 137.96,151.3338" fill="none" id="*start*-to-root" style="stroke:#181818;stroke-width:1;"/><polygon fill="#181818" points="137.96,157.3338,141.96,148.3338,137.96,152.3338,133.96,148.3338,137.96,157.3338" style="stroke:#181818;stroke-width:1;"/></g><!--link root to *end*--><g class="link" data-entity-1="ent0002" data-entity-2="ent0010" data-link-type="dependency" data-source-line="30" id="lnk11"><path d="M137.96,713.0838 C137.96,739.3238 137.96,754.5538 137.96,766.4238" fill="none" id="root-to-*end*" style="stroke:#181818;stroke-width:1;"/><polygon fill="#181818" points="137.96,772.4238,141.96,763.4238,137.96,767.4238,133.96,763.4238,137.96,772.4238" style="stroke:#181818;stroke-width:1;"/></g><?plantuml-src ZL9HQy8m47xFhpXyt51i7pSLx60o67lOnbxcaDZSQZ0c8Rt2YlM_BwrQKYaeXEHozztttLsoaG81TvPA49YdJbgIHZEMRwMstF4TvCG9OSy04fvkCsSABPwCCcuoiJaMmincy2gp3IqSB_jGgTbPaql2Cp1H1TP0umIwIweJoxFHz46bmY0aYIkPiWDZ2ZFK0iXOKFXBh9h25tUIhnM2jpzBsvmlMfBaoiUy8bIiWjJNHUYW0gd9xsFlzKn7Fjzrq-lWtHWQ0C_1UGEw7TI3WDDG1lCMjLhn9d2ouG54uQJEOB_KjVyiF6sjUuWUb_eGqYK1tRfNDmH78Tglg4K4ljiA6RULX0BnXK3S8n3VAD1L-BxxWU5mThNuBgRMIgBH6_vHWpxoTRcwhn3a-zpvQ64I_tt23DOySNtptdy0?></g></svg>