<svg xmlns="http://www.w3.org/2000/svg" xmlns:xlink="http://www.w3.org/1999/xlink" contentStyleType="text/css" data-diagram-type="STATE" height="475px" preserveAspectRatio="none" style="width:269px;height:475px;background:#FFFFFF;" version="1.1" viewBox="0 0 269 475" width="269px" zoomAndPan="magnify"><?plantuml 1.2026.3beta4?><defs/><g><g class="legend" data-source-line="10"><rect fill="#DDDDDD" height="46.5938" rx="7.5" ry="7.5" style="stroke:#000000;stroke-width:1;" width="238.3135" x="12" y="12"/><text fill="#000000" font-family="sans-serif" font-size="14" font-weight="bold" lengthAdjust="spacing" textLength="65.748" x="21.874" y="31.9951">Variable</text><text fill="#000000" font-family="sans-serif" font-size="14" font-weight="bold" lengthAdjust="spacing" textLength="38.1924" x="97.3701" y="31.9951">Type</text><text fill="#000000" font-family="sans-serif" font-size="14" font-weight="bold" lengthAdjust="spacing" textLength="95.1289" x="145.3105" y="31.9951">Initial Value</text><text fill="#000000" font-family="sans-serif" font-size="14" lengthAdjust="spacing" textLength="36.1348" x="21.4502" y="48.292">trace</text><text fill="#000000" font-family="sans-serif" font-size="14" lengthAdjust="spacing" textLength="18.252" x="96.9463" y="48.292">int</text><text fill="#000000" font-family="sans-serif" font-size="14" lengthAdjust="spacing" textLength="8.9072" x="144.8867" y="48.292">0</text><line style="stroke:#000000;stroke-width:1;" x1="17" x2="245.3135" y1="19" y2="19"/><line style="stroke:#000000;stroke-width:1;" x1="17" x2="245.3135" y1="35.2969" y2="35.2969"/><line style="stroke:#000000;stroke-width:1;" x1="17" x2="245.3135" y1="51.5938" y2="51.5938"/><line style="stroke:#000000;stroke-width:1;" x1="17" x2="17" y1="19" y2="51.5938"/><line style="stroke:#000000;stroke-width:1;" x1="92.4961" x2="92.4961" y1="19" y2="51.5938"/><line style="stroke:#000000;stroke-width:1;" x1="140.4365" x2="140.4365" y1="19" y2="51.5938"/><line style="stroke:#000000;stroke-width:1;" x1="245.3135" x2="245.3135" y1="19" y2="51.5938"/></g><path d="M75.7195,157.5938 L185.594,157.5938 A12.5,12.5 0 0 1 198.094,170.0938 L198.094,183.8906 L63.2195,183.8906 L63.2195,170.0938 A12.5,12.5 0 0 1 75.7195,157.5938" fill="#ADD8E6"/><rect fill="none" height="222.2969" rx="12.5" ry="12.5" style="stroke:#181818;stroke-width:0.5;" width="134.8745" x="63.2195" y="157.5938"/><line style="stroke:#181818;stroke-width:0.5;" x1="63.2195" x2="198.094" y1="183.8906" y2="183.8906"/><text fill="#000000" font-family="sans-serif" font-size="14" lengthAdjust="spacing" textLength="32.3477" x="114.4829" y="175.5889">Root</text><rect fill="#D3D3D3" height="40" rx="12.5" ry="12.5" style="stroke:#808080;stroke-width:1;stroke-dasharray:1,3;" width="50" x="75.2195" y="251.8906"/><text fill="#000000" font-family="sans-serif" font-size="14" font-style="italic" lengthAdjust="spacing" textLength="9.5771" x="95.4309" y="276.7373">A</text><g class="start_entity" data-qualified-name="root..start.root" data-source-line="17" id="ent0002"><ellipse cx="100.2195" cy="204.8906" fill="#222222" rx="10" ry="10" style="stroke:#222222;stroke-width:1;"/></g><g class="end_entity" data-qualified-name="root..end.root" data-source-line="18" id="ent0004"><ellipse cx="100.2195" cy="355.8906" fill="none" rx="11" ry="11" style="stroke:#222222;stroke-width:1;"/><ellipse cx="100.2195" cy="355.8906" fill="#222222" rx="6" ry="6" style="stroke:#222222;stroke-width:1;"/></g><!--link *start*root to root__a--><g class="link" data-entity-1="ent0002" data-entity-2="ent0003" data-link-type="dependency" data-source-line="17" id="lnk3"><path d="M100.2195,215.2006 C100.2195,224.6106 100.2195,233.4306 100.2195,245.4106" fill="none" id="*start*root-to-root__a" style="stroke:#181818;stroke-width:1;"/><polygon fill="#181818" points="100.2195,251.4106,104.2195,242.4106,100.2195,246.4106,96.2195,242.4106,100.2195,251.4106" style="stroke:#181818;stroke-width:1;"/></g><!--link root__a to *end*root--><g class="link" data-entity-1="ent0003" data-entity-2="ent0004" data-link-type="dependency" data-source-line="18" id="lnk5"><path d="M100.2195,292.3206 C100.2195,308.8006 100.2195,325.7906 100.2195,338.8206" fill="none" id="root__a-to-*end*root" style="stroke:#181818;stroke-width:1;"/><polygon fill="#181818" points="100.2195,344.8206,104.2195,335.8206,100.2195,339.8206,96.2195,335.8206,100.2195,344.8206" style="stroke:#181818;stroke-width:1;"/><text fill="#000000" font-family="sans-serif" font-size="13" lengthAdjust="spacing" textLength="71.8745" x="101.2195" y="322.9575">trace &gt;= 2</text></g><g class="start_entity" data-qualified-name=".start." data-source-line="20" id="ent0006"><ellipse cx="130.6595" cy="87.5938" fill="#222222" rx="10" ry="10" style="stroke:#222222;stroke-width:1;"/></g><g class="end_entity" data-qualified-name=".end." data-source-line="21" id="ent0008"><ellipse cx="130.6595" cy="450.8938" fill="none" rx="11" ry="11" style="stroke:#222222;stroke-width:1;"/><ellipse cx="130.6595" cy="450.8938" fill="#222222" rx="6" ry="6" style="stroke:#222222;stroke-width:1;"/></g><!--link *start* to root--><g class="link" data-entity-1="ent0006" data-entity-2="ent0002" data-link-type="dependency" data-source-line="20" id="lnk7"><path d="M130.6595,97.7238 C130.6595,109.7738 130.6595,126.3938 130.6595,151.2938" fill="none" id="*start*-to-root" style="stroke:#181818;stroke-width:1;"/><polygon fill="#181818" points="130.6595,157.2938,134.6595,148.2938,130.6595,152.2938,126.6595,148.2938,130.6595,157.2938" style="stroke:#181818;stroke-width:1;"/></g><!--link root to *end*--><g class="link" data-entity-1="ent0002" data-entity-2="ent0008" data-link-type="dependency" data-source-line="21" id="lnk9"><path d="M130.6595,380.2438 C130.6595,404.7138 130.6595,421.0638 130.6595,433.5338" fill="none" id="root-to-*end*" style="stroke:#181818;stroke-width:1;"/><polygon fill="#181818" points="130.6595,439.5338,134.6595,430.5338,130.6595,434.5338,126.6595,430.5338,130.6595,439.5338" style="stroke:#181818;stroke-width:1;"/></g><?plantuml-src RL31IiH03BtFLuHw4rR4e-mMNC5bmPEA5v4bTc8tx7GopAI7OlrtfxMLAbvcmdilBoyviYMW9cW7bb8LEIYBDoQTs0UCs41IL88F0x35wbH7QRsz5ITnlGw9MYjb2VTS7tKNiVjFLKaJ9B7IBDowbWQXH4lnhzNaSYTU7xLpjA1OqN5bFernL9Ete1B0qRkQVWFF61dV746kdxem_dlFokWoboT2RthGY5MkWBtczp9ZsUVRBUyyRbeyY6W1c23c0dxd7yu0qqcAcn_LuO2m27hcsDE55LMoOyFB-IkiLkMi7R6vRy07_deALsxWAk-uR35Zaadu1G00?></g></svg>