<svg xmlns="http://www.w3.org/2000/svg" xmlns:xlink="http://www.w3.org/1999/xlink" contentStyleType="text/css" data-diagram-type="STATE" height="640px" preserveAspectRatio="none" style="width:545px;height:640px;background:#FFFFFF;" version="1.1" viewBox="0 0 545 640" width="545px" zoomAndPan="magnify"><?plantuml 1.2026.3beta4?><defs/><g><g class="legend" data-source-line="10"><rect fill="#DDDDDD" height="62.8906" rx="7.5" ry="7.5" style="stroke:#000000;stroke-width:1;" width="255.2324" x="12" y="12"/><text fill="#000000" font-family="sans-serif" font-size="14" font-weight="bold" lengthAdjust="spacing" textLength="65.748" x="21.874" y="31.9951">Variable</text><text fill="#000000" font-family="sans-serif" font-size="14" font-weight="bold" lengthAdjust="spacing" textLength="38.1924" x="114.2891" y="31.9951">Type</text><text fill="#000000" font-family="sans-serif" font-size="14" font-weight="bold" lengthAdjust="spacing" textLength="95.1289" x="162.2295" y="31.9951">Initial Value</text><text fill="#000000" font-family="sans-serif" font-size="14" lengthAdjust="spacing" textLength="83.5146" x="21.4502" y="48.292">water_temp</text><text fill="#000000" font-family="sans-serif" font-size="14" lengthAdjust="spacing" textLength="18.252" x="113.8652" y="48.292">int</text><text fill="#000000" font-family="sans-serif" font-size="14" lengthAdjust="spacing" textLength="17.8145" x="161.8057" y="48.292">55</text><text fill="#000000" font-family="sans-serif" font-size="14" lengthAdjust="spacing" textLength="81.1699" x="21.4502" y="64.5889">draw_count</text><text fill="#000000" font-family="sans-serif" font-size="14" lengthAdjust="spacing" textLength="18.252" x="113.8652" y="64.5889">int</text><text fill="#000000" font-family="sans-serif" font-size="14" lengthAdjust="spacing" textLength="8.9072" x="161.8057" y="64.5889">0</text><line style="stroke:#000000;stroke-width:1;" x1="17" x2="262.2324" y1="19" y2="19"/><line style="stroke:#000000;stroke-width:1;" x1="17" x2="262.2324" y1="35.2969" y2="35.2969"/><line style="stroke:#000000;stroke-width:1;" x1="17" x2="262.2324" y1="51.5938" y2="51.5938"/><line style="stroke:#000000;stroke-width:1;" x1="17" x2="262.2324" y1="67.8906" y2="67.8906"/><line style="stroke:#000000;stroke-width:1;" x1="17" x2="17" y1="19" y2="67.8906"/><line style="stroke:#000000;stroke-width:1;" x1="109.415" x2="109.415" y1="19" y2="67.8906"/><line style="stroke:#000000;stroke-width:1;" x1="157.3555" x2="157.3555" y1="19" y2="67.8906"/><line style="stroke:#000000;stroke-width:1;" x1="262.2324" x2="262.2324" y1="19" y2="67.8906"/></g><path d="M19.5,173.8906 L517.97,173.8906 A12.5,12.5 0 0 1 530.47,186.3906 L530.47,200.1875 L7,200.1875 L7,186.3906 A12.5,12.5 0 0 1 19.5,173.8906" fill="#ADD8E6"/><rect fill="none" height="370.4297" rx="12.5" ry="12.5" style="stroke:#181818;stroke-width:0.5;" width="523.47" x="7" y="173.8906"/><line style="stroke:#181818;stroke-width:0.5;" x1="7" x2="530.47" y1="200.1875" y2="200.1875"/><text fill="#000000" font-family="sans-serif" font-size="14" lengthAdjust="spacing" textLength="32.3477" x="252.5612" y="191.8857">Root</text><g class="entity" data-qualified-name="root.root__standby" id="ent0003"><rect fill="#F1F1F1" height="78.2031" rx="12.5" ry="12.5" style="stroke:#181818;stroke-width:0.5;" width="219.7461" x="21.86" y="282.5875"/><line style="stroke:#181818;stroke-width:0.5;" x1="21.86" x2="241.6061" y1="308.8844" y2="308.8844"/><text fill="#000000" font-family="sans-serif" font-size="14" lengthAdjust="spacing" textLength="57.8867" x="102.7897" y="300.5826">Standby</text><text fill="#000000" font-family="sans-serif" font-size="12" lengthAdjust="spacing" textLength="50.1621" x="26.86" y="325.023">during {</text><text fill="#000000" font-family="sans-serif" font-size="12" lengthAdjust="spacing" textLength="184.4883" x="42.1178" y="338.9918">water_temp = water_temp - 1;</text><text fill="#000000" font-family="sans-serif" font-size="12" lengthAdjust="spacing" textLength="7.6348" x="26.86" y="352.9605">}</text></g><g class="entity" data-qualified-name="root.root__heating" id="ent0004"><rect fill="#F1F1F1" height="78.2031" rx="12.5" ry="12.5" style="stroke:#181818;stroke-width:0.5;" width="225.4707" x="19" y="442.5875"/><line style="stroke:#181818;stroke-width:0.5;" x1="19" x2="244.4707" y1="468.8844" y2="468.8844"/><text fill="#000000" font-family="sans-serif" font-size="14" lengthAdjust="spacing" textLength="54.8584" x="104.3062" y="460.5826">Heating</text><text fill="#000000" font-family="sans-serif" font-size="12" lengthAdjust="spacing" textLength="50.1621" x="24" y="485.023">during {</text><text fill="#000000" font-family="sans-serif" font-size="12" lengthAdjust="spacing" textLength="190.2129" x="39.2578" y="498.9918">water_temp = water_temp + 4;</text><text fill="#000000" font-family="sans-serif" font-size="12" lengthAdjust="spacing" textLength="7.6348" x="24" y="512.9605">}</text></g><g class="start_entity" data-qualified-name="root..start.root" data-source-line="21" id="ent0002"><ellipse cx="131.74" cy="221.1875" fill="#222222" rx="10" ry="10" style="stroke:#222222;stroke-width:1;"/></g><!--link *start*root to root__standby--><g class="link" data-entity-1="ent0002" data-entity-2="ent0003" data-link-type="dependency" data-source-line="21" id="lnk3"><path d="M131.74,231.6275 C131.74,243.2875 131.74,257.8175 131.74,276.2275" fill="none" id="*start*root-to-root__standby" style="stroke:#181818;stroke-width:1;"/><polygon fill="#181818" points="131.74,282.2275,135.74,273.2275,131.74,277.2275,127.74,273.2275,131.74,282.2275" style="stroke:#181818;stroke-width:1;"/></g><!--link root__standby to root__heating--><g class="link" data-entity-1="ent0003" data-entity-2="ent0004" data-link-type="dependency" data-source-line="22" id="lnk4"><path d="M80.86,361.1075 C71.86,370.5275 63.76,381.3475 58.74,393.1875 C51.16,411.0375 55.8829,423.7498 69.7829,437.9498" fill="none" id="root__standby-to-root__heating" style="stroke:#181818;stroke-width:1;"/><polygon fill="#181818" points="73.98,442.2375,70.5428,433.0079,70.4824,438.6644,64.8259,438.604,73.98,442.2375" style="stroke:#181818;stroke-width:1;"/><text fill="#000000" font-family="sans-serif" font-size="13" lengthAdjust="spacing" textLength="124.1411" x="59.74" y="406.2544">water_temp &lt;= 50</text></g><!--link root__standby to root__standby--><g class="link" data-entity-1="ent0003" data-entity-2="ent0003" data-link-type="dependency" data-source-line="23" id="lnk5"><path d="M241.78,310.6775 C252.68,312.8875 259.61,316.5575 259.61,321.6875 C259.61,326.8175 258.5604,329.2952 247.6604,331.5052" fill="none" id="root__standby-to-root__standby" style="stroke:#181818;stroke-width:1;"/><polygon fill="#181818" points="241.78,332.6975,251.3954,334.8294,246.6803,331.704,249.8057,326.9889,241.78,332.6975" style="stroke:#181818;stroke-width:1;"/><text fill="#000000" font-family="sans-serif" font-size="13" lengthAdjust="spacing" textLength="153.9243" x="307.2672" y="286.2544">Standby.HotWaterDraw</text><path d="M264.61,300.3203 L264.61,370.3203 L503.61,370.3203 L503.61,310.3203 L493.61,300.3203 L264.61,300.3203" fill="#FEFFDD" style="stroke:#181818;stroke-width:0.5;"/><path d="M493.61,300.3203 L493.61,310.3203 L503.61,310.3203 L493.61,300.3203" fill="#FEFFDD" style="stroke:#181818;stroke-width:0.5;"/><text fill="#000000" font-family="sans-serif" font-size="13" lengthAdjust="spacing" textLength="49.7974" x="270.61" y="317.3872">effect {</text><text fill="#000000" font-family="sans-serif" font-size="13" lengthAdjust="spacing" textLength="199.8623" x="287.1393" y="332.52">water_temp = water_temp - 8;</text><text fill="#000000" font-family="sans-serif" font-size="13" lengthAdjust="spacing" textLength="201.7095" x="287.1393" y="347.6528">draw_count = draw_count + 1;</text><text fill="#000000" font-family="sans-serif" font-size="13" lengthAdjust="spacing" textLength="8.271" x="270.61" y="362.7856">}</text></g><!--link root__heating to root__standby--><g class="link" data-entity-1="ent0004" data-entity-2="ent0003" data-link-type="dependency" data-source-line="30" id="lnk6"><path d="M172.43,442.4475 C183.23,427.7475 190.47,410.3675 184.74,393.1875 C180.95,381.8575 178.0619,375.7524 171.0019,365.9724" fill="none" id="root__heating-to-root__standby" style="stroke:#181818;stroke-width:1;"/><polygon fill="#181818" points="167.49,361.1075,169.5145,370.746,170.4165,365.1616,176.001,366.0636,167.49,361.1075" style="stroke:#181818;stroke-width:1;"/><text fill="#000000" font-family="sans-serif" font-size="13" lengthAdjust="spacing" textLength="124.1411" x="187.74" y="406.2544">water_temp &gt;= 60</text></g><!--link root__heating to root__heating--><g class="link" data-entity-1="ent0004" data-entity-2="ent0004" data-link-type="dependency" data-source-line="31" id="lnk7"><path d="M244.7,469.5575 C255.58,472.0175 262.47,476.0675 262.47,481.6875 C262.47,487.3075 261.4323,490.0343 250.5523,492.4943" fill="none" id="root__heating-to-root__heating" style="stroke:#181818;stroke-width:1;"/><polygon fill="#181818" points="244.7,493.8175,254.3606,495.7342,249.5769,492.7148,252.5963,487.9312,244.7,493.8175" style="stroke:#181818;stroke-width:1;"/><text fill="#000000" font-family="sans-serif" font-size="13" lengthAdjust="spacing" textLength="151.1123" x="311.5332" y="446.2544">Heating.HotWaterDraw</text><path d="M267.47,460.3203 L267.47,530.3203 L506.47,530.3203 L506.47,470.3203 L496.47,460.3203 L267.47,460.3203" fill="#FEFFDD" style="stroke:#181818;stroke-width:0.5;"/><path d="M496.47,460.3203 L496.47,470.3203 L506.47,470.3203 L496.47,460.3203" fill="#FEFFDD" style="stroke:#181818;stroke-width:0.5;"/><text fill="#000000" font-family="sans-serif" font-size="13" lengthAdjust="spacing" textLength="49.7974" x="273.47" y="477.3872">effect {</text><text fill="#000000" font-family="sans-serif" font-size="13" lengthAdjust="spacing" textLength="199.8623" x="289.9993" y="492.52">water_temp = water_temp - 8;</text><text fill="#000000" font-family="sans-serif" font-size="13" lengthAdjust="spacing" textLength="201.7095" x="289.9993" y="507.6528">draw_count = draw_count + 1;</text><text fill="#000000" font-family="sans-serif" font-size="13" lengthAdjust="spacing" textLength="8.271" x="273.47" y="522.7856">}</text></g><g class="start_entity" data-qualified-name=".start." data-source-line="39" id="ent0008"><ellipse cx="268.74" cy="103.8906" fill="#222222" rx="10" ry="10" style="stroke:#222222;stroke-width:1;"/></g><g class="end_entity" data-qualified-name=".end." data-source-line="40" id="ent0010"><ellipse cx="268.74" cy="615.3206" fill="none" rx="11" ry="11" style="stroke:#222222;stroke-width:1;"/><ellipse cx="268.74" cy="615.3206" fill="#222222" rx="6" ry="6" style="stroke:#222222;stroke-width:1;"/></g><!--link *start* to root--><g class="link" data-entity-1="ent0008" data-entity-2="ent0002" data-link-type="dependency" data-source-line="39" id="lnk9"><path d="M268.74,114.2006 C268.74,125.9406 268.74,141.7306 268.74,167.6506" fill="none" id="*start*-to-root" style="stroke:#181818;stroke-width:1;"/><polygon fill="#181818" points="268.74,173.6506,272.74,164.6506,268.74,168.6506,264.74,164.6506,268.74,173.6506" style="stroke:#181818;stroke-width:1;"/></g><!--link root to *end*--><g class="link" data-entity-1="ent0002" data-entity-2="ent0010" data-link-type="dependency" data-source-line="40" id="lnk11"><path d="M268.74,544.5206 C268.74,570.1906 268.74,585.9206 268.74,598.0206" fill="none" id="root-to-*end*" style="stroke:#181818;stroke-width:1;"/><polygon fill="#181818" points="268.74,604.0206,272.74,595.0206,268.74,599.0206,264.74,595.0206,268.74,604.0206" style="stroke:#181818;stroke-width:1;"/></g><?plantuml-src pLB1JiCm3BtdAwmTcOQ6n122jOU1O4YS6883GrNMP5sqBAbILrErxjz9qz9cQ1eSkRIn_UoNzvoLO1pu9iK26CzY8r8KMX6IhOLAgQ4Ro90YXnq1cD1udHYTAtQdfJRZSPhndEamX6UHhF3HqE8OAjQRL6S2-JTm8dDU0RLXtFmSrKnvq0fdM4ZkbGHIAMAo9qJoX2i6g5EGV8ca3E2D6a4NaeCzlnQf-pyfWO9AMxECK98IjbQBYT0AXXA4GliTZLo56RgDOdjjR2j3Mx0qDPcrn1dHUz4QUq0pCFO0X_8gbw1nh3T3gjYYQB5HbDKP1ph8m0smt0YLm6wkggftpy0F1d1nErTxdsRAATfEZsPLPpoQ9lDdcZvSjZGVPvym68I_IkWm7PitSXp0Q7YohVEYSUvygl6zcd1lT-DQbRQAjG8frDeb-7B9OsnyFstSzMqBydOT-47Vkkj0jVBgYLMCHumyTckFBGpWQdYohVEesT-_4Rid_iQ9U-LLPBDV?></g></svg>