<svg xmlns="http://www.w3.org/2000/svg" xmlns:xlink="http://www.w3.org/1999/xlink" contentStyleType="text/css" data-diagram-type="STATE" height="706px" preserveAspectRatio="none" style="width:269px;height:706px;background:#FFFFFF;" version="1.1" viewBox="0 0 269 706" width="269px" zoomAndPan="magnify"><?plantuml 1.2026.3beta4?><defs/><g><g class="legend" data-source-line="10"><rect fill="#DDDDDD" height="46.5938" rx="7.5" ry="7.5" style="stroke:#000000;stroke-width:1;" width="238.3135" x="12" y="12"/><text fill="#000000" font-family="sans-serif" font-size="14" font-weight="bold" lengthAdjust="spacing" textLength="65.748" x="21.874" y="31.9951">Variable</text><text fill="#000000" font-family="sans-serif" font-size="14" font-weight="bold" lengthAdjust="spacing" textLength="38.1924" x="97.3701" y="31.9951">Type</text><text fill="#000000" font-family="sans-serif" font-size="14" font-weight="bold" lengthAdjust="spacing" textLength="95.1289" x="145.3105" y="31.9951">Initial Value</text><text fill="#000000" font-family="sans-serif" font-size="14" lengthAdjust="spacing" textLength="53.8672" x="21.4502" y="48.292">counter</text><text fill="#000000" font-family="sans-serif" font-size="14" lengthAdjust="spacing" textLength="18.252" x="96.9463" y="48.292">int</text><text fill="#000000" font-family="sans-serif" font-size="14" lengthAdjust="spacing" textLength="8.9072" x="144.8867" y="48.292">0</text><line style="stroke:#000000;stroke-width:1;" x1="17" x2="245.3135" y1="19" y2="19"/><line style="stroke:#000000;stroke-width:1;" x1="17" x2="245.3135" y1="35.2969" y2="35.2969"/><line style="stroke:#000000;stroke-width:1;" x1="17" x2="245.3135" y1="51.5938" y2="51.5938"/><line style="stroke:#000000;stroke-width:1;" x1="17" x2="17" y1="19" y2="51.5938"/><line style="stroke:#000000;stroke-width:1;" x1="92.4961" x2="92.4961" y1="19" y2="51.5938"/><line style="stroke:#000000;stroke-width:1;" x1="140.4365" x2="140.4365" y1="19" y2="51.5938"/><line style="stroke:#000000;stroke-width:1;" x1="245.3135" x2="245.3135" y1="19" y2="51.5938"/></g><path d="M29.3418,157.5938 L231.9717,157.5938 A12.5,12.5 0 0 1 244.4717,170.0938 L244.4717,183.8906 L16.8418,183.8906 L16.8418,170.0938 A12.5,12.5 0 0 1 29.3418,157.5938" fill="#ADD8E6"/><rect fill="none" height="452.8906" rx="12.5" ry="12.5" style="stroke:#181818;stroke-width:0.5;" width="227.6299" x="16.8418" y="157.5938"/><line style="stroke:#181818;stroke-width:0.5;" x1="16.8418" x2="244.4717" y1="183.8906" y2="183.8906"/><text fill="#000000" font-family="sans-serif" font-size="14" lengthAdjust="spacing" textLength="32.3477" x="114.4829" y="175.5889">Root</text><rect fill="#F1F1F1" height="40" rx="12.5" ry="12.5" style="stroke:#181818;stroke-width:0.5;" width="50" x="116.3418" y="251.8906"/><text fill="#000000" font-family="sans-serif" font-size="14" lengthAdjust="spacing" textLength="9.5771" x="136.5532" y="276.7373">A</text><path d="M41.3418,344.8906 L137.3418,344.8906 A12.5,12.5 0 0 1 149.8418,357.3906 L149.8418,371.1875 L28.8418,371.1875 L28.8418,357.3906 A12.5,12.5 0 0 1 41.3418,344.8906" fill="#ADD8E6"/><rect fill="none" height="252.5938" rx="12.5" ry="12.5" style="stroke:#181818;stroke-width:0.5;" width="121" x="28.8418" y="344.8906"/><line style="stroke:#181818;stroke-width:0.5;" x1="28.8418" x2="149.8418" y1="371.1875" y2="371.1875"/><text fill="#000000" font-family="sans-serif" font-size="14" lengthAdjust="spacing" textLength="9.6045" x="84.5396" y="362.8857">B</text><path d="M53.3418,438.1875 L113.3418,438.1875 A12.5,12.5 0 0 1 125.8418,450.6875 L125.8418,464.4844 L40.8418,464.4844 L40.8418,450.6875 A12.5,12.5 0 0 1 53.3418,438.1875" fill="#ADD8E6"/><rect fill="none" height="146.2969" rx="12.5" ry="12.5" style="stroke:#181818;stroke-width:0.5;" width="85" x="40.8418" y="438.1875"/><line style="stroke:#181818;stroke-width:0.5;" x1="40.8418" x2="125.8418" y1="464.4844" y2="464.4844"/><text fill="#000000" font-family="sans-serif" font-size="14" lengthAdjust="spacing" textLength="18.5117" x="74.0859" y="456.1826">B1</text><rect fill="#F1F1F1" height="40" rx="12.5" ry="12.5" style="stroke:#181818;stroke-width:0.5;" width="50" x="52.8418" y="531.4844"/><text fill="#000000" font-family="sans-serif" font-size="14" lengthAdjust="spacing" textLength="27.0908" x="64.2964" y="556.3311">B1a</text><g class="start_entity" data-qualified-name="root.root__b.root__b__b1..start.root__b__b1" data-source-line="20" id="ent0002"><ellipse cx="77.8418" cy="485.4844" fill="#222222" rx="10" ry="10" style="stroke:#222222;stroke-width:1;"/></g><!--link *start*root__b__b1 to root__b__b1__b1a--><g class="link" data-entity-1="ent0002" data-entity-2="ent0006" data-link-type="dependency" data-source-line="20" id="lnk3"><path d="M77.8418,495.9244 C77.8418,505.1744 77.8418,513.5444 77.8418,525.2044" fill="none" id="*start*root__b__b1-to-root__b__b1__b1a" style="stroke:#181818;stroke-width:1;"/><polygon fill="#181818" points="77.8418,531.2044,81.8418,522.2044,77.8418,526.2044,73.8418,522.2044,77.8418,531.2044" style="stroke:#181818;stroke-width:1;"/></g><g class="start_entity" data-qualified-name="root.root__b..start.root__b" data-source-line="22" id="ent0004"><ellipse cx="83.3418" cy="392.1875" fill="#222222" rx="10" ry="10" style="stroke:#222222;stroke-width:1;"/></g><!--link *start*root__b to root__b__b1--><g class="link" data-entity-1="ent0004" data-entity-2="ent0005" data-link-type="dependency" data-source-line="22" id="lnk5"><path d="M83.3418,402.3875 C83.3418,410.6375 83.3418,417.5975 83.3418,431.7175" fill="none" id="*start*root__b-to-root__b__b1" style="stroke:#181818;stroke-width:1;"/><polygon fill="#181818" points="83.3418,437.7175,87.3418,428.7175,83.3418,432.7175,79.3418,428.7175,83.3418,437.7175" style="stroke:#181818;stroke-width:1;"/></g><rect fill="#F1F1F1" height="40" rx="12.5" ry="12.5" style="stroke:#181818;stroke-width:0.5;" width="50" x="168.3418" y="451.1806"/><text fill="#000000" font-family="sans-serif" font-size="14" lengthAdjust="spacing" textLength="9.7754" x="188.4541" y="476.0273">C</text><g class="start_entity" data-qualified-name="root..start.root" data-source-line="25" id="ent0006"><ellipse cx="141.3418" cy="204.8906" fill="#222222" rx="10" ry="10" style="stroke:#222222;stroke-width:1;"/></g><!--link *start*root to root__a--><g class="link" data-entity-1="ent0006" data-entity-2="ent0003" data-link-type="dependency" data-source-line="25" id="lnk7"><path d="M141.3418,215.2006 C141.3418,224.6106 141.3418,233.4206 141.3418,245.4106" fill="none" id="*start*root-to-root__a" style="stroke:#181818;stroke-width:1;"/><polygon fill="#181818" points="141.3418,251.4106,145.3418,242.4106,141.3418,246.4106,137.3418,242.4106,141.3418,251.4106" style="stroke:#181818;stroke-width:1;"/></g><!--link root__a to root__b--><g class="link" data-entity-1="ent0003" data-entity-2="ent0004" data-link-type="dependency" data-source-line="26" id="lnk8"><path d="M135.4918,292.0506 C133.7818,297.7706 131.9518,304.0706 130.3418,309.8906 C127.2418,321.1006 125.6373,326.9804 122.5373,338.6904" fill="none" id="root__a-to-root__b" style="stroke:#181818;stroke-width:1;"/><polygon fill="#181818" points="121.0018,344.4906,127.1718,336.814,122.2814,339.6571,119.4382,334.7667,121.0018,344.4906" style="stroke:#181818;stroke-width:1;"/><text fill="#000000" font-family="sans-serif" font-size="13" lengthAdjust="spacing" textLength="39.9712" x="131.3418" y="322.9575">A.GoB</text></g><!--link root__a to root__c--><g class="link" data-entity-1="ent0003" data-entity-2="ent0007" data-link-type="dependency" data-source-line="27" id="lnk9"><path d="M160.3418,292.3106 C164.6018,297.6306 168.6418,303.6606 171.3418,309.8906 C192.0018,357.5706 194.3537,414.0509 194.0337,445.0409" fill="none" id="root__a-to-root__c" style="stroke:#181818;stroke-width:1;"/><polygon fill="#181818" points="193.9718,451.0406,198.0645,442.0824,194.0234,446.0409,190.0649,441.9998,193.9718,451.0406" style="stroke:#181818;stroke-width:1;"/><text fill="#000000" font-family="sans-serif" font-size="13" lengthAdjust="spacing" textLength="40.1299" x="179.3418" y="322.9575">A.GoC</text></g><g class="start_entity" data-qualified-name=".start." data-source-line="29" id="ent0010"><ellipse cx="130.6518" cy="87.5938" fill="#222222" rx="10" ry="10" style="stroke:#222222;stroke-width:1;"/></g><g class="end_entity" data-qualified-name=".end." data-source-line="30" id="ent0012"><ellipse cx="130.6518" cy="681.4838" fill="none" rx="11" ry="11" style="stroke:#222222;stroke-width:1;"/><ellipse cx="130.6518" cy="681.4838" fill="#222222" rx="6" ry="6" style="stroke:#222222;stroke-width:1;"/></g><!--link *start* to root--><g class="link" data-entity-1="ent0010" data-entity-2="ent0002" data-link-type="dependency" data-source-line="29" id="lnk11"><path d="M130.6518,98.0538 C130.6518,109.6738 130.6518,125.0738 130.6518,151.1237" fill="none" id="*start*-to-root" style="stroke:#181818;stroke-width:1;"/><polygon fill="#181818" points="130.6518,157.1237,134.6518,148.1237,130.6518,152.1237,126.6518,148.1237,130.6518,157.1237" style="stroke:#181818;stroke-width:1;"/></g><!--link root to *end*--><g class="link" data-entity-1="ent0002" data-entity-2="ent0012" data-link-type="dependency" data-source-line="30" id="lnk13"><path d="M130.6518,610.8438 C130.6518,636.9438 130.6518,652.4738 130.6518,664.3938" fill="none" id="root-to-*end*" style="stroke:#181818;stroke-width:1;"/><polygon fill="#181818" points="130.6518,670.3938,134.6518,661.3938,130.6518,665.3938,126.6518,661.3938,130.6518,670.3938" style="stroke:#181818;stroke-width:1;"/></g><?plantuml-src VP71JiCm38RlUGghHwGXTaMZqZg92OaJ82u8JLvgkcXP7ANUeQ9xTzAkG3PMfAPnyt_-NSSRKnBGpai39TKw62-6dLBrrZYF0NTG2mh1fm8eK6-hm7jNBjXocCryJVkIynmUJRMHPS3c4gLvvxasGjzWOVVKWHnA2kTMWyizEtcMnb8Y6K5hj3eePQaYLuAm1qiVejexUCLWS6q9OlpI-7v_S4OCsgZ5Yj2g5dJyBw40BHWdyNqJJwFJqIzstVUQFJ5B1bX3Y06STj1T10oNair_gDKAKw58XFL5XnIUfdHyfgCP9rbudjOjF67VhjvXCid7eOFw1rM_n51qaPJKwc_QqNY8KpkuXVdraeiHNG_w8autTLJz1BglUFe5?></g></svg>