<svg xmlns="http://www.w3.org/2000/svg" xmlns:xlink="http://www.w3.org/1999/xlink" contentStyleType="text/css" data-diagram-type="STATE" height="602px" preserveAspectRatio="none" style="width:269px;height:602px;background:#FFFFFF;" version="1.1" viewBox="0 0 269 602" width="269px" zoomAndPan="magnify"><?plantuml 1.2026.3beta4?><defs/><g><g class="legend" data-source-line="10"><rect fill="#DDDDDD" height="46.5938" rx="7.5" ry="7.5" style="stroke:#000000;stroke-width:1;" width="238.3135" x="12" y="12"/><text fill="#000000" font-family="sans-serif" font-size="14" font-weight="bold" lengthAdjust="spacing" textLength="65.748" x="21.874" y="31.9951">Variable</text><text fill="#000000" font-family="sans-serif" font-size="14" font-weight="bold" lengthAdjust="spacing" textLength="38.1924" x="97.3701" y="31.9951">Type</text><text fill="#000000" font-family="sans-serif" font-size="14" font-weight="bold" lengthAdjust="spacing" textLength="95.1289" x="145.3105" y="31.9951">Initial Value</text><text fill="#000000" font-family="sans-serif" font-size="14" lengthAdjust="spacing" textLength="36.1348" x="21.4502" y="48.292">trace</text><text fill="#000000" font-family="sans-serif" font-size="14" lengthAdjust="spacing" textLength="18.252" x="96.9463" y="48.292">int</text><text fill="#000000" font-family="sans-serif" font-size="14" lengthAdjust="spacing" textLength="8.9072" x="144.8867" y="48.292">0</text><line style="stroke:#000000;stroke-width:1;" x1="17" x2="245.3135" y1="19" y2="19"/><line style="stroke:#000000;stroke-width:1;" x1="17" x2="245.3135" y1="35.2969" y2="35.2969"/><line style="stroke:#000000;stroke-width:1;" x1="17" x2="245.3135" y1="51.5938" y2="51.5938"/><line style="stroke:#000000;stroke-width:1;" x1="17" x2="17" y1="19" y2="51.5938"/><line style="stroke:#000000;stroke-width:1;" x1="92.4961" x2="92.4961" y1="19" y2="51.5938"/><line style="stroke:#000000;stroke-width:1;" x1="140.4365" x2="140.4365" y1="19" y2="51.5938"/><line style="stroke:#000000;stroke-width:1;" x1="245.3135" x2="245.3135" y1="19" y2="51.5938"/></g><path d="M36.0835,157.5938 L225.23,157.5938 A12.5,12.5 0 0 1 237.73,170.0938 L237.73,272.7031 L23.5835,272.7031 L23.5835,170.0938 A12.5,12.5 0 0 1 36.0835,157.5938" fill="#ADD8E6"/><rect fill="none" height="349.3094" rx="12.5" ry="12.5" style="stroke:#181818;stroke-width:0.5;" width="214.1465" x="23.5835" y="157.5938"/><line style="stroke:#181818;stroke-width:0.5;" x1="23.5835" x2="237.73" y1="272.7031" y2="272.7031"/><line style="stroke:#181818;stroke-width:0.5;" x1="23.5835" x2="237.73" y1="183.8906" y2="183.8906"/><text fill="#000000" font-family="sans-serif" font-size="14" lengthAdjust="spacing" textLength="32.3477" x="114.4829" y="175.5889">Root</text><text fill="#000000" font-family="sans-serif" font-size="12" lengthAdjust="spacing" textLength="116.7832" x="28.5835" y="195.0293">&gt;&gt; during before {</text><text fill="#000000" font-family="sans-serif" font-size="12" lengthAdjust="spacing" textLength="137.8887" x="43.8413" y="208.998">trace = trace * 10 + 1;</text><text fill="#000000" font-family="sans-serif" font-size="12" lengthAdjust="spacing" textLength="7.6348" x="28.5835" y="222.9668">}</text><text fill="#000000" font-family="sans-serif" font-size="12" lengthAdjust="spacing" textLength="106.5" x="28.5835" y="236.9355">&gt;&gt; during after {</text><text fill="#000000" font-family="sans-serif" font-size="12" lengthAdjust="spacing" textLength="137.8887" x="43.8413" y="250.9043">trace = trace * 10 + 3;</text><text fill="#000000" font-family="sans-serif" font-size="12" lengthAdjust="spacing" textLength="7.6348" x="28.5835" y="264.873">}</text><g class="entity" data-qualified-name="root.root__a" id="ent0003"><rect fill="#D3D3D3" height="78.2031" rx="12.5" ry="12.5" style="stroke:#808080;stroke-width:1;stroke-dasharray:1,3;" width="173.1465" x="35.5835" y="340.7031"/><line style="stroke:#808080;stroke-width:1;stroke-dasharray:1,3;" x1="35.5835" x2="208.73" y1="367" y2="367"/><text fill="#000000" font-family="sans-serif" font-size="14" font-style="italic" lengthAdjust="spacing" textLength="9.5771" x="117.3682" y="358.6982">A</text><text fill="#000000" font-family="sans-serif" font-size="12" font-style="italic" lengthAdjust="spacing" textLength="50.1621" x="40.5835" y="383.1387">during {</text><text fill="#000000" font-family="sans-serif" font-size="12" font-style="italic" lengthAdjust="spacing" textLength="137.8887" x="55.8413" y="397.1074">trace = trace * 10 + 2;</text><text fill="#000000" font-family="sans-serif" font-size="12" font-style="italic" lengthAdjust="spacing" textLength="7.6348" x="40.5835" y="411.0762">}</text></g><g class="start_entity" data-qualified-name="root..start.root" data-source-line="18" id="ent0002"><ellipse cx="122.1535" cy="293.7031" fill="#222222" rx="10" ry="10" style="stroke:#222222;stroke-width:1;"/></g><g class="end_entity" data-qualified-name="root..end.root" data-source-line="19" id="ent0004"><ellipse cx="122.1535" cy="482.9031" fill="none" rx="11" ry="11" style="stroke:#222222;stroke-width:1;"/><ellipse cx="122.1535" cy="482.9031" fill="#222222" rx="6" ry="6" style="stroke:#222222;stroke-width:1;"/></g><!--link *start*root to root__a--><g class="link" data-entity-1="ent0002" data-entity-2="ent0003" data-link-type="dependency" data-source-line="18" id="lnk3"><path d="M122.1535,304.0231 C122.1535,312.9131 122.1535,320.9231 122.1535,334.4231" fill="none" id="*start*root-to-root__a" style="stroke:#181818;stroke-width:1;"/><polygon fill="#181818" points="122.1535,340.4231,126.1535,331.4231,122.1535,335.4231,118.1535,331.4231,122.1535,340.4231" style="stroke:#181818;stroke-width:1;"/></g><!--link root__a to *end*root--><g class="link" data-entity-1="ent0003" data-entity-2="ent0004" data-link-type="dependency" data-source-line="19" id="lnk5"><path d="M122.1535,419.3131 C122.1535,438.0631 122.1535,453.1631 122.1535,465.4431" fill="none" id="root__a-to-*end*root" style="stroke:#181818;stroke-width:1;"/><polygon fill="#181818" points="122.1535,471.4431,126.1535,462.4431,122.1535,466.4431,118.1535,462.4431,122.1535,471.4431" style="stroke:#181818;stroke-width:1;"/><text fill="#000000" font-family="sans-serif" font-size="13" lengthAdjust="spacing" textLength="71.8745" x="123.1535" y="449.97">trace &gt;= 2</text></g><g class="start_entity" data-qualified-name=".start." data-source-line="22" id="ent0006"><ellipse cx="130.6535" cy="87.5938" fill="#222222" rx="10" ry="10" style="stroke:#222222;stroke-width:1;"/></g><g class="end_entity" data-qualified-name=".end." data-source-line="23" id="ent0008"><ellipse cx="130.6535" cy="577.9038" fill="none" rx="11" ry="11" style="stroke:#222222;stroke-width:1;"/><ellipse cx="130.6535" cy="577.9038" fill="#222222" rx="6" ry="6" style="stroke:#222222;stroke-width:1;"/></g><!--link *start* to root--><g class="link" data-entity-1="ent0006" data-entity-2="ent0002" data-link-type="dependency" data-source-line="22" id="lnk7"><path d="M130.6535,97.8138 C130.6535,109.5437 130.6535,125.4138 130.6535,151.2338" fill="none" id="*start*-to-root" style="stroke:#181818;stroke-width:1;"/><polygon fill="#181818" points="130.6535,157.2338,134.6535,148.2338,130.6535,152.2338,126.6535,148.2338,130.6535,157.2338" style="stroke:#181818;stroke-width:1;"/></g><!--link root to *end*--><g class="link" data-entity-1="ent0002" data-entity-2="ent0008" data-link-type="dependency" data-source-line="23" id="lnk9"><path d="M130.6535,507.0838 C130.6535,532.6138 130.6535,548.3938 130.6535,560.5438" fill="none" id="root-to-*end*" style="stroke:#181818;stroke-width:1;"/><polygon fill="#181818" points="130.6535,566.5438,134.6535,557.5438,130.6535,561.5438,126.6535,557.5438,130.6535,566.5438" style="stroke:#181818;stroke-width:1;"/></g><?plantuml-src VL3DJi904BxlKqpg3OC1l24q4HEDYISrNiIGfJkK2SlEPZizDC2xkosjWZ5STYSptz_CcWm2RhrKOB380daXTaeL6t9U1xs5GhGWx1J0J6URF73fp0DR3fE9Bx0qdARmGlbQdeAk_aDblFLSa607dDaIQo07W-6lLAloo4xUfB9uCYBHbZ9rKCfYZiw0i0UBAr7xANpeG7ff4MBzNldcVtOaf6sSHKVOgpr8q5ciW9p4Tn1xKUUe5dTkDarUcIK1NK281Ppdhyy0xKcI-n_KOg7X9EYL9OStXaNGD8GECmPJ1d8vxEQkxX_ZJDk_1yC1NCFeRkuE3UspzmNzVjhHpwJgVZqVj-Hq2gDucYRp66A8rcc9AmvuqN1O6yxTBqUl1CD5ocsJyJJVqRbDzGq0?></g></svg>