<svg xmlns="http://www.w3.org/2000/svg" xmlns:xlink="http://www.w3.org/1999/xlink" contentStyleType="text/css" data-diagram-type="STATE" height="821px" preserveAspectRatio="none" style="width:281px;height:821px;background:#FFFFFF;" version="1.1" viewBox="0 0 281 821" width="281px" zoomAndPan="magnify"><?plantuml 1.2026.3beta4?><defs/><g><g class="legend" data-source-line="10"><rect fill="#DDDDDD" height="62.8906" rx="7.5" ry="7.5" style="stroke:#000000;stroke-width:1;" width="238.3135" x="12" y="12"/><text fill="#000000" font-family="sans-serif" font-size="14" font-weight="bold" lengthAdjust="spacing" textLength="65.748" x="21.874" y="31.9951">Variable</text><text fill="#000000" font-family="sans-serif" font-size="14" font-weight="bold" lengthAdjust="spacing" textLength="38.1924" x="97.3701" y="31.9951">Type</text><text fill="#000000" font-family="sans-serif" font-size="14" font-weight="bold" lengthAdjust="spacing" textLength="95.1289" x="145.3105" y="31.9951">Initial Value</text><text fill="#000000" font-family="sans-serif" font-size="14" lengthAdjust="spacing" textLength="53.8672" x="21.4502" y="48.292">counter</text><text fill="#000000" font-family="sans-serif" font-size="14" lengthAdjust="spacing" textLength="18.252" x="96.9463" y="48.292">int</text><text fill="#000000" font-family="sans-serif" font-size="14" lengthAdjust="spacing" textLength="8.9072" x="144.8867" y="48.292">0</text><text fill="#000000" font-family="sans-serif" font-size="14" lengthAdjust="spacing" textLength="26.2842" x="21.4502" y="64.5889">flag</text><text fill="#000000" font-family="sans-serif" font-size="14" lengthAdjust="spacing" textLength="18.252" x="96.9463" y="64.5889">int</text><text fill="#000000" font-family="sans-serif" font-size="14" lengthAdjust="spacing" textLength="8.9072" x="144.8867" y="64.5889">0</text><line style="stroke:#000000;stroke-width:1;" x1="17" x2="245.3135" y1="19" y2="19"/><line style="stroke:#000000;stroke-width:1;" x1="17" x2="245.3135" y1="35.2969" y2="35.2969"/><line style="stroke:#000000;stroke-width:1;" x1="17" x2="245.3135" y1="51.5938" y2="51.5938"/><line style="stroke:#000000;stroke-width:1;" x1="17" x2="245.3135" y1="67.8906" y2="67.8906"/><line style="stroke:#000000;stroke-width:1;" x1="17" x2="17" y1="19" y2="67.8906"/><line style="stroke:#000000;stroke-width:1;" x1="92.4961" x2="92.4961" y1="19" y2="67.8906"/><line style="stroke:#000000;stroke-width:1;" x1="140.4365" x2="140.4365" y1="19" y2="67.8906"/><line style="stroke:#000000;stroke-width:1;" x1="245.3135" x2="245.3135" y1="19" y2="67.8906"/></g><path d="M19.5,173.8906 L253.7813,173.8906 A12.5,12.5 0 0 1 266.2813,186.3906 L266.2813,200.1875 L7,200.1875 L7,186.3906 A12.5,12.5 0 0 1 19.5,173.8906" fill="#ADD8E6"/><rect fill="none" height="551.9031" rx="12.5" ry="12.5" style="stroke:#181818;stroke-width:0.5;" width="259.2813" x="7" y="173.8906"/><line style="stroke:#181818;stroke-width:0.5;" x1="7" x2="266.2813" y1="200.1875" y2="200.1875"/><text fill="#000000" font-family="sans-serif" font-size="14" lengthAdjust="spacing" textLength="32.3477" x="120.4668" y="191.8857">Root</text><g class="entity" data-qualified-name="root.root__a" id="ent0003"><rect fill="#F1F1F1" height="78.2031" rx="12.5" ry="12.5" style="stroke:#181818;stroke-width:0.5;" width="174.6465" x="43.32" y="268.1875"/><line style="stroke:#181818;stroke-width:0.5;" x1="43.32" x2="217.9665" y1="294.4844" y2="294.4844"/><text fill="#000000" font-family="sans-serif" font-size="14" lengthAdjust="spacing" textLength="9.5771" x="125.8547" y="286.1826">A</text><text fill="#000000" font-family="sans-serif" font-size="12" lengthAdjust="spacing" textLength="50.1621" x="48.32" y="310.623">during {</text><text fill="#000000" font-family="sans-serif" font-size="12" lengthAdjust="spacing" textLength="139.3887" x="63.5778" y="324.5918">counter = counter + 1;</text><text fill="#000000" font-family="sans-serif" font-size="12" lengthAdjust="spacing" textLength="7.6348" x="48.32" y="338.5605">}</text></g><path d="M31.5,464.3875 L229.7813,464.3875 A12.5,12.5 0 0 1 242.2813,476.8875 L242.2813,537.5906 L19,537.5906 L19,476.8875 A12.5,12.5 0 0 1 31.5,464.3875" fill="#ADD8E6"/><rect fill="none" height="248.4063" rx="12.5" ry="12.5" style="stroke:#181818;stroke-width:0.5;" width="223.2813" x="19" y="464.3875"/><line style="stroke:#181818;stroke-width:0.5;" x1="19" x2="242.2813" y1="537.5906" y2="537.5906"/><line style="stroke:#181818;stroke-width:0.5;" x1="19" x2="242.2813" y1="490.6844" y2="490.6844"/><text fill="#000000" font-family="sans-serif" font-size="14" lengthAdjust="spacing" textLength="9.6045" x="125.8384" y="482.3826">B</text><text fill="#000000" font-family="sans-serif" font-size="12" lengthAdjust="spacing" textLength="43.459" x="24" y="501.823">enter {</text><text fill="#000000" font-family="sans-serif" font-size="12" lengthAdjust="spacing" textLength="51.8906" x="39.2578" y="515.7918">flag = 1;</text><text fill="#000000" font-family="sans-serif" font-size="12" lengthAdjust="spacing" textLength="7.6348" x="24" y="529.7605">}</text><g class="entity" data-qualified-name="root.root__b.root__b__b1" id="ent0005"><rect fill="#F1F1F1" height="78.2031" rx="12.5" ry="12.5" style="stroke:#181818;stroke-width:0.5;" width="182.2813" x="31" y="621.5906"/><line style="stroke:#181818;stroke-width:0.5;" x1="31" x2="213.2813" y1="647.8875" y2="647.8875"/><text fill="#000000" font-family="sans-serif" font-size="14" lengthAdjust="spacing" textLength="18.5117" x="112.8848" y="639.5857">B1</text><text fill="#000000" font-family="sans-serif" font-size="12" lengthAdjust="spacing" textLength="50.1621" x="36" y="664.0262">during {</text><text fill="#000000" font-family="sans-serif" font-size="12" lengthAdjust="spacing" textLength="147.0234" x="51.2578" y="677.9949">counter = counter + 10;</text><text fill="#000000" font-family="sans-serif" font-size="12" lengthAdjust="spacing" textLength="7.6348" x="36" y="691.9637">}</text></g><g class="start_entity" data-qualified-name="root.root__b..start.root__b" data-source-line="22" id="ent0002"><ellipse cx="122.14" cy="558.5906" fill="#222222" rx="10" ry="10" style="stroke:#222222;stroke-width:1;"/></g><!--link *start*root__b to root__b__b1--><g class="link" data-entity-1="ent0002" data-entity-2="ent0005" data-link-type="dependency" data-source-line="22" id="lnk3"><path d="M122.14,568.8206 C122.14,580.7306 122.14,596.1706 122.14,615.2406" fill="none" id="*start*root__b-to-root__b__b1" style="stroke:#181818;stroke-width:1;"/><polygon fill="#181818" points="122.14,621.2406,126.14,612.2406,122.14,616.2406,118.14,612.2406,122.14,621.2406" style="stroke:#181818;stroke-width:1;"/><text fill="#000000" font-family="sans-serif" font-size="13" lengthAdjust="spacing" textLength="62.7275" x="123.14" y="599.6575">flag == 1</text></g><g class="start_entity" data-qualified-name="root..start.root" data-source-line="25" id="ent0004"><ellipse cx="130.64" cy="221.1875" fill="#222222" rx="10" ry="10" style="stroke:#222222;stroke-width:1;"/></g><!--link *start*root to root__a--><g class="link" data-entity-1="ent0004" data-entity-2="ent0003" data-link-type="dependency" data-source-line="25" id="lnk5"><path d="M130.64,231.5075 C130.64,240.4075 130.64,248.4175 130.64,261.9175" fill="none" id="*start*root-to-root__a" style="stroke:#181818;stroke-width:1;"/><polygon fill="#181818" points="130.64,267.9175,134.64,258.9175,130.64,262.9175,126.64,258.9175,130.64,267.9175" style="stroke:#181818;stroke-width:1;"/></g><!--link root__a to root__b--><g class="link" data-entity-1="ent0003" data-entity-2="ent0004" data-link-type="dependency" data-source-line="26" id="lnk6"><path d="M130.64,346.8375 C130.64,377.3575 130.64,415.7875 130.64,458.1775" fill="none" id="root__a-to-root__b" style="stroke:#181818;stroke-width:1;"/><polygon fill="#181818" points="130.64,464.1775,134.64,455.1775,130.64,459.1775,126.64,455.1775,130.64,464.1775" style="stroke:#181818;stroke-width:1;"/><text fill="#000000" font-family="sans-serif" font-size="13" lengthAdjust="spacing" textLength="88.3403" x="138.3419" y="377.4544">counter &gt;= 3</text><path d="M135.64,386.5203 L135.64,441.5203 L228.64,441.5203 L228.64,396.5203 L218.64,386.5203 L135.64,386.5203" fill="#FEFFDD" style="stroke:#181818;stroke-width:0.5;"/><path d="M218.64,386.5203 L218.64,396.5203 L228.64,396.5203 L218.64,386.5203" fill="#FEFFDD" style="stroke:#181818;stroke-width:0.5;"/><text fill="#000000" font-family="sans-serif" font-size="13" lengthAdjust="spacing" textLength="49.7974" x="141.64" y="403.5872">effect {</text><text fill="#000000" font-family="sans-serif" font-size="13" lengthAdjust="spacing" textLength="56.2148" x="158.1693" y="418.72">flag = 1;</text><text fill="#000000" font-family="sans-serif" font-size="13" lengthAdjust="spacing" textLength="8.271" x="141.64" y="433.8528">}</text></g><g class="start_entity" data-qualified-name=".start." data-source-line="33" id="ent0007"><ellipse cx="136.64" cy="103.8906" fill="#222222" rx="10" ry="10" style="stroke:#222222;stroke-width:1;"/></g><g class="end_entity" data-qualified-name=".end." data-source-line="34" id="ent0009"><ellipse cx="136.64" cy="796.7906" fill="none" rx="11" ry="11" style="stroke:#222222;stroke-width:1;"/><ellipse cx="136.64" cy="796.7906" fill="#222222" rx="6" ry="6" style="stroke:#222222;stroke-width:1;"/></g><!--link *start* to root--><g class="link" data-entity-1="ent0007" data-entity-2="ent0002" data-link-type="dependency" data-source-line="33" id="lnk8"><path d="M136.64,114.0906 C136.64,125.5706 136.64,140.9906 136.64,167.6706" fill="none" id="*start*-to-root" style="stroke:#181818;stroke-width:1;"/><polygon fill="#181818" points="136.64,173.6706,140.64,164.6706,136.64,168.6706,132.64,164.6706,136.64,173.6706" style="stroke:#181818;stroke-width:1;"/></g><!--link root to *end*--><g class="link" data-entity-1="ent0002" data-entity-2="ent0009" data-link-type="dependency" data-source-line="34" id="lnk10"><path d="M136.64,725.9806 C136.64,752.2406 136.64,767.5006 136.64,779.4006" fill="none" id="root-to-*end*" style="stroke:#181818;stroke-width:1;"/><polygon fill="#181818" points="136.64,785.4006,140.64,776.4006,136.64,780.4006,132.64,776.4006,136.64,785.4006" style="stroke:#181818;stroke-width:1;"/></g><?plantuml-src ZL91QiCm4Bph5KkEBO64tjhOq1HQ2ZsrfPUc1CLQEoAA9EJrmSJvUoN5CNB88SROwztnpEpOMoaGS6-f1O5ruQGbQJHZzKvgontVGqsS40uCOCcBNULCeyMBKSOj5hR6HfWyXmzPRUdDyVOQgZ1xQsf9U0OkLOC1Q9n0TqdLixmQJL_KAan6ahYI1Jiofh12BO2C1OKbiIw37-uatoW4Nt-tDjxVjIJ9bPzvHUXO1uNtHUYW0wd9NsUnMofUZLgU_2JXWuZhJpwDeGdm6fmlOBnKo0Rwd2RF0sgzvd7Gr_08ed5ILt1OwT0_Uyc6wXxcJojzJEcM2TtcgcuAdgTeVyu7HDAxpSXiS1AEtxi_c4xp2vgOMvR1IUQORBlnKunKlSO9ckmtPXmdbIXvdhEfF8E72DF6BsiqAAbtiO5bYGKbUGngYR7mmuGt_V-JQhFuGSEJx_u3?></g></svg>