<svg xmlns="http://www.w3.org/2000/svg" xmlns:xlink="http://www.w3.org/1999/xlink" contentStyleType="text/css" data-diagram-type="STATE" height="570px" preserveAspectRatio="none" style="width:448px;height:570px;background:#FFFFFF;" version="1.1" viewBox="0 0 448 570" width="448px" zoomAndPan="magnify"><?plantuml 1.2026.3beta4?><defs/><g><g class="legend" data-source-line="10"><rect fill="#DDDDDD" height="46.5938" rx="7.5" ry="7.5" style="stroke:#000000;stroke-width:1;" width="238.3135" x="12" y="12"/><text fill="#000000" font-family="sans-serif" font-size="14" font-weight="bold" lengthAdjust="spacing" textLength="65.748" x="21.874" y="31.9951">Variable</text><text fill="#000000" font-family="sans-serif" font-size="14" font-weight="bold" lengthAdjust="spacing" textLength="38.1924" x="97.3701" y="31.9951">Type</text><text fill="#000000" font-family="sans-serif" font-size="14" font-weight="bold" lengthAdjust="spacing" textLength="95.1289" x="145.3105" y="31.9951">Initial Value</text><text fill="#000000" font-family="sans-serif" font-size="14" lengthAdjust="spacing" textLength="53.8672" x="21.4502" y="48.292">counter</text><text fill="#000000" font-family="sans-serif" font-size="14" lengthAdjust="spacing" textLength="18.252" x="96.9463" y="48.292">int</text><text fill="#000000" font-family="sans-serif" font-size="14" lengthAdjust="spacing" textLength="8.9072" x="144.8867" y="48.292">0</text><line style="stroke:#000000;stroke-width:1;" x1="17" x2="245.3135" y1="19" y2="19"/><line style="stroke:#000000;stroke-width:1;" x1="17" x2="245.3135" y1="35.2969" y2="35.2969"/><line style="stroke:#000000;stroke-width:1;" x1="17" x2="245.3135" y1="51.5938" y2="51.5938"/><line style="stroke:#000000;stroke-width:1;" x1="17" x2="17" y1="19" y2="51.5938"/><line style="stroke:#000000;stroke-width:1;" x1="92.4961" x2="92.4961" y1="19" y2="51.5938"/><line style="stroke:#000000;stroke-width:1;" x1="140.4365" x2="140.4365" y1="19" y2="51.5938"/><line style="stroke:#000000;stroke-width:1;" x1="245.3135" x2="245.3135" y1="19" y2="51.5938"/></g><path d="M19.5,157.5938 L420.596,157.5938 A12.5,12.5 0 0 1 433.096,170.0938 L433.096,183.8906 L7,183.8906 L7,170.0938 A12.5,12.5 0 0 1 19.5,157.5938" fill="#ADD8E6"/><rect fill="none" height="316.71" rx="12.5" ry="12.5" style="stroke:#181818;stroke-width:0.5;" width="426.096" x="7" y="157.5938"/><line style="stroke:#181818;stroke-width:0.5;" x1="7" x2="433.096" y1="183.8906" y2="183.8906"/><text fill="#000000" font-family="sans-serif" font-size="14" lengthAdjust="spacing" textLength="32.3477" x="203.8742" y="175.5889">Root</text><g class="entity" data-qualified-name="root.root__a" id="ent0003"><rect fill="#F1F1F1" height="78.2031" rx="12.5" ry="12.5" style="stroke:#181818;stroke-width:0.5;" width="174.6465" x="124.82" y="251.8906"/><line style="stroke:#181818;stroke-width:0.5;" x1="124.82" x2="299.4665" y1="278.1875" y2="278.1875"/><text fill="#000000" font-family="sans-serif" font-size="14" lengthAdjust="spacing" textLength="9.5771" x="207.3547" y="269.8857">A</text><text fill="#000000" font-family="sans-serif" font-size="12" lengthAdjust="spacing" textLength="50.1621" x="129.82" y="294.3262">during {</text><text fill="#000000" font-family="sans-serif" font-size="12" lengthAdjust="spacing" textLength="139.3887" x="145.0778" y="308.2949">counter = counter + 1;</text><text fill="#000000" font-family="sans-serif" font-size="12" lengthAdjust="spacing" textLength="7.6348" x="129.82" y="322.2637">}</text></g><g class="entity" data-qualified-name="root.root__b" id="ent0004"><rect fill="#F1F1F1" height="78.2031" rx="12.5" ry="12.5" style="stroke:#181818;stroke-width:0.5;" width="182.2813" x="19" y="383.1006"/><line style="stroke:#181818;stroke-width:0.5;" x1="19" x2="201.2813" y1="409.3975" y2="409.3975"/><text fill="#000000" font-family="sans-serif" font-size="14" lengthAdjust="spacing" textLength="9.6045" x="105.3384" y="401.0957">B</text><text fill="#000000" font-family="sans-serif" font-size="12" lengthAdjust="spacing" textLength="50.1621" x="24" y="425.5362">during {</text><text fill="#000000" font-family="sans-serif" font-size="12" lengthAdjust="spacing" textLength="147.0234" x="39.2578" y="439.5049">counter = counter + 10;</text><text fill="#000000" font-family="sans-serif" font-size="12" lengthAdjust="spacing" textLength="7.6348" x="24" y="453.4737">}</text></g><g class="entity" data-qualified-name="root.root__c" id="ent0005"><rect fill="#F1F1F1" height="78.2031" rx="12.5" ry="12.5" style="stroke:#181818;stroke-width:0.5;" width="189.916" x="219.18" y="383.1006"/><line style="stroke:#181818;stroke-width:0.5;" x1="219.18" x2="409.096" y1="409.3975" y2="409.3975"/><text fill="#000000" font-family="sans-serif" font-size="14" lengthAdjust="spacing" textLength="9.7754" x="309.2503" y="401.0957">C</text><text fill="#000000" font-family="sans-serif" font-size="12" lengthAdjust="spacing" textLength="50.1621" x="224.18" y="425.5362">during {</text><text fill="#000000" font-family="sans-serif" font-size="12" lengthAdjust="spacing" textLength="154.6582" x="239.4378" y="439.5049">counter = counter + 100;</text><text fill="#000000" font-family="sans-serif" font-size="12" lengthAdjust="spacing" textLength="7.6348" x="224.18" y="453.4737">}</text></g><g class="start_entity" data-qualified-name="root..start.root" data-source-line="22" id="ent0002"><ellipse cx="212.14" cy="204.8906" fill="#222222" rx="10" ry="10" style="stroke:#222222;stroke-width:1;"/></g><!--link *start*root to root__a--><g class="link" data-entity-1="ent0002" data-entity-2="ent0003" data-link-type="dependency" data-source-line="22" id="lnk3"><path d="M212.14,215.2206 C212.14,224.1106 212.14,232.1206 212.14,245.6206" fill="none" id="*start*root-to-root__a" style="stroke:#181818;stroke-width:1;"/><polygon fill="#181818" points="212.14,251.6206,216.14,242.6206,212.14,246.6206,208.14,242.6206,212.14,251.6206" style="stroke:#181818;stroke-width:1;"/></g><!--link root__a to root__b--><g class="link" data-entity-1="ent0003" data-entity-2="ent0004" data-link-type="dependency" data-source-line="23" id="lnk4"><path d="M181.81,330.4106 C168.78,346.9206 157.2875,361.481 144.2475,378.001" fill="none" id="root__a-to-root__b" style="stroke:#181818;stroke-width:1;"/><polygon fill="#181818" points="140.53,382.7106,149.246,378.1246,143.6279,378.786,142.9665,373.1679,140.53,382.7106" style="stroke:#181818;stroke-width:1;"/><text fill="#000000" font-family="sans-serif" font-size="13" lengthAdjust="spacing" textLength="88.3403" x="169.14" y="361.1675">counter &gt;= 5</text></g><!--link root__a to root__c--><g class="link" data-entity-1="ent0003" data-entity-2="ent0005" data-link-type="dependency" data-source-line="24" id="lnk5"><path d="M247.4,330.4506 C252.45,336.2806 257.5,342.2806 262.14,348.1006 C270.88,359.0606 276.4285,366.4569 284.4585,377.7769" fill="none" id="root__a-to-root__c" style="stroke:#181818;stroke-width:1;"/><polygon fill="#181818" points="287.93,382.6706,285.9853,373.0157,285.0371,378.5925,279.4603,377.6443,287.93,382.6706" style="stroke:#181818;stroke-width:1;"/><text fill="#000000" font-family="sans-serif" font-size="13" lengthAdjust="spacing" textLength="88.3403" x="274.14" y="361.1675">counter &gt;= 3</text></g><g class="start_entity" data-qualified-name=".start." data-source-line="26" id="ent0006"><ellipse cx="220.05" cy="87.5938" fill="#222222" rx="10" ry="10" style="stroke:#222222;stroke-width:1;"/></g><g class="end_entity" data-qualified-name=".end." data-source-line="27" id="ent0008"><ellipse cx="220.05" cy="545.3038" fill="none" rx="11" ry="11" style="stroke:#222222;stroke-width:1;"/><ellipse cx="220.05" cy="545.3038" fill="#222222" rx="6" ry="6" style="stroke:#222222;stroke-width:1;"/></g><!--link *start* to root--><g class="link" data-entity-1="ent0006" data-entity-2="ent0002" data-link-type="dependency" data-source-line="26" id="lnk7"><path d="M220.05,98.0338 C220.05,109.8737 220.05,125.7337 220.05,151.1737" fill="none" id="*start*-to-root" style="stroke:#181818;stroke-width:1;"/><polygon fill="#181818" points="220.05,157.1737,224.05,148.1737,220.05,152.1737,216.05,148.1737,220.05,157.1737" style="stroke:#181818;stroke-width:1;"/></g><!--link root to *end*--><g class="link" data-entity-1="ent0002" data-entity-2="ent0008" data-link-type="dependency" data-source-line="27" id="lnk9"><path d="M220.05,474.5438 C220.05,499.7938 220.05,515.6338 220.05,527.8638" fill="none" id="root-to-*end*" style="stroke:#181818;stroke-width:1;"/><polygon fill="#181818" points="220.05,533.8638,224.05,524.8638,220.05,528.8638,216.05,524.8638,220.05,533.8638" style="stroke:#181818;stroke-width:1;"/></g><?plantuml-src ZP5DImCn48Rl-HN37fL2HRneTy4M5C6JYXSh9Kt6xT0q2TdPmzBjVpUxzYCj5Nf99k-yUIOpMP16m9Nd1ZHMAf1dSbQ8QadMoo1NKB5aXBK064krB8EhhPuuuy9ev2kijIiAUALomSz1DkTSogsyguXnPnoR6ZkZ2nh3AMfBUNAMtxancAI8fI4bDa8OBD5gOEV1u0-BDeTF6KZE3KACFnhVxo-McAI9kLWHMj62YkzY3D02MOxhCAgHzCUBNVUzPc_ESGQoWX03EEwW6mHiXv8zxbspcUmJsnZkGTU1R0dhgUtqNU5y7rt3pSFKRbBSEC7D4zpyCjpmb3T9U2hXgGjv1-3NrJSC1iNPLWzwzyxT_IA7ktziwjXs6tyqvOj-wjqfghy0?></g></svg>