<?xml version="1.0" encoding="us-ascii" standalone="no"?><svg xmlns="http://www.w3.org/2000/svg" xmlns:xlink="http://www.w3.org/1999/xlink" contentStyleType="text/css" height="703px" preserveAspectRatio="none" style="width:395px;height:703px;background:#FFFFFF;" version="1.1" viewBox="0 0 395 703" width="395px" zoomAndPan="magnify"><defs/><g><rect fill="#DDDDDD" height="46.5938" id="_legend" rx="7.5" ry="7.5" style="stroke:#000000;stroke-width:1.0;" width="233" x="12" y="12"/><text fill="#000000" font-family="sans-serif" font-size="14" font-weight="bold" lengthAdjust="spacing" textLength="64" x="22" y="31.9951">Variable</text><text fill="#000000" font-family="sans-serif" font-size="14" font-weight="bold" lengthAdjust="spacing" textLength="39" x="96" y="31.9951">Type</text><text fill="#000000" font-family="sans-serif" font-size="14" font-weight="bold" lengthAdjust="spacing" textLength="90" x="145" y="31.9951">Initial Value</text><text fill="#000000" font-family="sans-serif" font-size="14" lengthAdjust="spacing" textLength="54" x="21" y="48.292">counter</text><text fill="#000000" font-family="sans-serif" font-size="14" lengthAdjust="spacing" textLength="17" x="95" y="48.292">int</text><text fill="#000000" font-family="sans-serif" font-size="14" lengthAdjust="spacing" textLength="9" x="144" y="48.292">0</text><line style="stroke:#000000;stroke-width:1.0;" x1="17" x2="240" y1="19" y2="19"/><line style="stroke:#000000;stroke-width:1.0;" x1="17" x2="240" y1="35.2969" y2="35.2969"/><line style="stroke:#000000;stroke-width:1.0;" x1="17" x2="240" y1="51.5938" y2="51.5938"/><line style="stroke:#000000;stroke-width:1.0;" x1="17" x2="17" y1="19" y2="51.5938"/><line style="stroke:#000000;stroke-width:1.0;" x1="91" x2="91" y1="19" y2="51.5938"/><line style="stroke:#000000;stroke-width:1.0;" x1="140" x2="140" y1="19" y2="51.5938"/><line style="stroke:#000000;stroke-width:1.0;" x1="240" x2="240" y1="19" y2="51.5938"/><path d="M19.5,157.5938 L369.51,157.5938 A12.5,12.5 0 0 1 382.01,170.0938 L382.01,183.8906 L7,183.8906 L7,170.0938 A12.5,12.5 0 0 1 19.5,157.5938 " fill="#ADD8E6" style="stroke:#ADD8E6;stroke-width:1.0;"/><rect fill="none" height="460.2969" rx="12.5" ry="12.5" style="stroke:#181818;stroke-width:0.5;" width="375.01" x="7" y="157.5938"/><line style="stroke:#181818;stroke-width:0.5;" x1="7" x2="382.01" y1="183.8906" y2="183.8906"/><text fill="#000000" font-family="sans-serif" font-size="14" lengthAdjust="spacing" textLength="104" x="142.505" y="175.5889">SimpleMachine</text><rect fill="#F1F1F1" height="40" rx="12.5" ry="12.5" style="stroke:#181818;stroke-width:0.5;" width="50" x="135.01" y="251.8906"/><text fill="#000000" font-family="sans-serif" font-size="14" lengthAdjust="spacing" textLength="24" x="148.01" y="276.7373">Idle</text><rect fill="#F1F1F1" height="40" rx="12.5" ry="12.5" style="stroke:#181818;stroke-width:0.5;" width="68" x="38.01" y="409.8906"/><text fill="#000000" font-family="sans-serif" font-size="14" lengthAdjust="spacing" textLength="58" x="43.01" y="434.7373">Running</text><rect fill="#F1F1F1" height="40" rx="12.5" ry="12.5" style="stroke:#181818;stroke-width:0.5;" width="69" x="108.51" y="567.8906"/><text fill="#000000" font-family="sans-serif" font-size="14" lengthAdjust="spacing" textLength="59" x="113.51" y="592.7373">Stopped</text><ellipse cx="160.01" cy="204.8906" fill="#181818" rx="10" ry="10" style="stroke:none;stroke-width:1.0;"/><!--link *start*simple_machine to simple_machine__idle--><g id="link_*start*simple_machine_simple_machine__idle"><path d="M160.01,215.2006 C160.01,223.1406 160.01,234.9306 160.01,245.6206 " fill="none" id="*start*simple_machine-to-simple_machine__idle" style="stroke:#181818;stroke-width:1.0;"/><polygon fill="#181818" points="160.01,250.4106,164.01,241.4106,160.01,245.4106,156.01,241.4106,160.01,250.4106" style="stroke:#181818;stroke-width:1.0;"/></g><!--link simple_machine__idle to simple_machine__running--><g id="link_simple_machine__idle_simple_machine__running"><path d="M134.72,285.6606 C124.82,291.7806 114.15,299.9606 107.01,309.8906 C86.75,338.0506 78.13,377.8906 74.52,403.5606 " fill="none" id="simple_machine__idle-to-simple_machine__running" style="stroke:#181818;stroke-width:1.0;"/><polygon fill="#181818" points="73.75,408.4506,78.898,400.0543,74.4071,403.494,70.9674,399.003,73.75,408.4506" style="stroke:#181818;stroke-width:1.0;"/><text fill="#000000" font-family="sans-serif" font-size="13" lengthAdjust="spacing" textLength="58" x="141.51" y="322.9575">Idle.Start</text><path d="M112.01,332.0234 L112.01,387.0234 L229.01,387.0234 L229.01,342.0234 L219.01,332.0234 L112.01,332.0234 " fill="#FEFFDD" style="stroke:#181818;stroke-width:0.5;"/><path d="M219.01,332.0234 L219.01,342.0234 L229.01,342.0234 L219.01,332.0234 " fill="#FEFFDD" style="stroke:#181818;stroke-width:0.5;"/><text fill="#000000" font-family="sans-serif" font-size="13" lengthAdjust="spacing" textLength="48" x="118.01" y="349.0903">effect {</text><text fill="#000000" font-family="sans-serif" font-size="13" lengthAdjust="spacing" textLength="80" x="134.01" y="364.2231">counter = 0;</text><text fill="#000000" font-family="sans-serif" font-size="13" lengthAdjust="spacing" textLength="8" x="118.01" y="379.356">}</text></g><!--link simple_machine__running to simple_machine__stopped--><g id="link_simple_machine__running_simple_machine__stopped"><path d="M50.14,450.1806 C45.6,455.4306 41.46,461.4606 39.01,467.8906 C26.03,501.9406 18,520.1106 39.01,549.8906 C53.32,570.1706 79.77,579.4006 102.42,583.5706 " fill="none" id="simple_machine__running-to-simple_machine__stopped" style="stroke:#181818;stroke-width:1.0;"/><polygon fill="#181818" points="107.08,584.5306,98.8677,579.0939,102.1492,583.7017,97.5414,586.9832,107.08,584.5306" style="stroke:#181818;stroke-width:1.0;"/><text fill="#000000" font-family="sans-serif" font-size="13" lengthAdjust="spacing" textLength="85" x="94.01" y="480.9575">Running.Stop</text><path d="M44.01,490.0234 L44.01,545.0234 L229.01,545.0234 L229.01,500.0234 L219.01,490.0234 L44.01,490.0234 " fill="#FEFFDD" style="stroke:#181818;stroke-width:0.5;"/><path d="M219.01,490.0234 L219.01,500.0234 L229.01,500.0234 L219.01,490.0234 " fill="#FEFFDD" style="stroke:#181818;stroke-width:0.5;"/><text fill="#000000" font-family="sans-serif" font-size="13" lengthAdjust="spacing" textLength="48" x="50.01" y="507.0903">effect {</text><text fill="#000000" font-family="sans-serif" font-size="13" lengthAdjust="spacing" textLength="148" x="66.01" y="522.2231">counter = counter + 1;</text><text fill="#000000" font-family="sans-serif" font-size="13" lengthAdjust="spacing" textLength="8" x="50.01" y="537.356">}</text></g><!--link simple_machine__stopped to simple_machine__idle--><g id="link_simple_machine__stopped_simple_machine__idle"><path d="M177.99,582.3006 C198,577.6806 221.54,568.4306 234.01,549.8906 C293.56,461.3906 290.09,400.6306 234.01,309.8906 C224.59,294.6606 206.79,285.4806 191.01,280.0806 " fill="none" id="simple_machine__stopped-to-simple_machine__idle" style="stroke:#181818;stroke-width:1.0;"/><polygon fill="#181818" points="186.31,278.2606,193.6727,284.8021,191.0744,279.7772,196.0993,277.179,186.31,278.2606" style="stroke:#181818;stroke-width:1.0;"/><text fill="#000000" font-family="sans-serif" font-size="13" lengthAdjust="spacing" textLength="94" x="278.01" y="434.4575">Stopped.Reset</text></g><ellipse cx="194.5" cy="87.5938" fill="#181818" rx="10" ry="10" style="stroke:none;stroke-width:1.0;"/><ellipse cx="194.5" cy="687.5938" fill="none" rx="10" ry="10" style="stroke:#181818;stroke-width:1.0;"/><ellipse cx="195" cy="688.0938" fill="#181818" rx="6" ry="6" style="stroke:none;stroke-width:1.0;"/><!--link *start* to simple_machine--><g id="link_*start*_simple_machine"><path d="M194.5,97.8438 C194.5,108.5738 194.5,127.8737 194.5,151.5838 " fill="none" id="*start*-to-simple_machine" style="stroke:#181818;stroke-width:1.0;"/><polygon fill="#181818" points="194.5,156.3737,198.5,147.3737,194.5,151.3737,190.5,147.3737,194.5,156.3737" style="stroke:#181818;stroke-width:1.0;"/></g><!--link simple_machine to *end*--><g id="link_simple_machine_*end*"><path d="M194.5,617.8538 C194.5,640.3738 194.5,659.4038 194.5,671.6938 " fill="none" id="simple_machine-to-*end*" style="stroke:#181818;stroke-width:1.0;"/><polygon fill="#181818" points="194.5,676.4838,198.5,667.4838,194.5,671.4838,190.5,667.4838,194.5,676.4838" style="stroke:#181818;stroke-width:1.0;"/></g><!--SRC=[bL9DJyCm3BtdLrWxWZQDAsmx30aq2IuRueBG55glivOcKU8TAhh_ZlibZIaWw26DxEVdv-ViAKV0qdC5ESOia6ToLgbu8Ejrq2L4repmgG2MEZiKmHrjVk-C2xEPZtZCtM81JrJi-J7eAeNANEbT9CO1k3H7R80kv1WkgNgM1sTvmvN1inInDfIfar862xGviFDWSCUgdiEh3gG_38BSNohV_bUMcBIHd7I4MjMGYIx603MGPJcd4XMcZa-cRcSTRQZq1fzrjYUB8z0HOXlPbbq8lW_LU0EzJwELa2LAjbkIn3bmVRIMR974XYvt3j_8i1xp93nskHR-TlKEu_7Yb_Q9HBAY5m6tqCmqsR0Et39O9uAS1KFsq0PmjyECUn-QRx1v3jExDdZgSBApfZYfOsYNaj8FA59wroQD7VyMCzokuURFieRMFtagclhLJDOOaULvfbUWBjvGWn3a5m00]--></g></svg>