<svg xmlns="http://www.w3.org/2000/svg" xmlns:xlink="http://www.w3.org/1999/xlink" version="1.1" data-diagram-type="STATE" style="width:416px;height:716px;background:#FFFFFF;" width="416px" height="716px" viewBox="0 0 416 716" zoomAndPan="magnify" preserveAspectRatio="none" contentStyleType="text/css"><?plantuml 1.2026.7beta5?><defs/><g font-family="sans-serif" lengthAdjust="spacing"><g class="legend" data-source-line="10"><rect x="12" y="12" width="238.313" height="46.594" fill="#DDD" style="stroke:#000;stroke-width:1;" rx="7.5" ry="7.5"/><text x="21.874" y="31.995" fill="#000" font-size="14" textLength="65.748" font-weight="700">Variable</text><text x="97.37" y="31.995" fill="#000" font-size="14" textLength="38.192" font-weight="700">Type</text><text x="145.311" y="31.995" fill="#000" font-size="14" textLength="95.129" font-weight="700">Initial Value</text><text x="21.45" y="48.292" fill="#000" font-size="14" textLength="53.867">counter</text><text x="96.946" y="48.292" fill="#000" font-size="14" textLength="18.252">int</text><text x="144.887" y="48.292" fill="#000" font-size="14">0</text><line x1="17" y1="19" x2="245.313" y2="19" style="stroke:#000;stroke-width:1;"/><line x1="17" y1="35.297" x2="245.313" y2="35.297" style="stroke:#000;stroke-width:1;"/><line x1="17" y1="51.594" x2="245.313" y2="51.594" style="stroke:#000;stroke-width:1;"/><line x1="17" y1="19" x2="17" y2="51.594" style="stroke:#000;stroke-width:1;"/><line x1="92.496" y1="19" x2="92.496" y2="51.594" style="stroke:#000;stroke-width:1;"/><line x1="140.437" y1="19" x2="140.437" y2="51.594" style="stroke:#000;stroke-width:1;"/><line x1="245.313" y1="19" x2="245.313" y2="51.594" style="stroke:#000;stroke-width:1;"/></g><g class="entity" data-qualified-name="simple_machine" id="ent0001" data-source-line="15"><path d="M19.5,157.594 L388.648,157.594 A12.5,12.5 0 0 1 401.148,170.094 L401.148,183.891 L7,183.891 L7,170.094 A12.5,12.5 0 0 1 19.5,157.594" fill="#ADD8E6"/><path d="M7,183.891 L401.148,183.891 L401.148,608.391 A12.5,12.5 0 0 1 388.648,620.891 L19.5,620.891 A12.5,12.5 0 0 1 7,608.391 L7,183.891" fill="#ADD8E6"/><rect x="7" y="157.594" width="394.148" height="463.297" fill="none" style="stroke:#181818;stroke-width:0.5;" rx="12.5" ry="12.5"/><line x1="7" y1="183.891" x2="401.148" y2="183.891" style="stroke:#181818;stroke-width:0.5;"/><text x="150.87" y="175.589" fill="#000" font-size="14" textLength="106.408">SimpleMachine</text><rect x="137.06" y="251.891" width="50" height="40" fill="#F1F1F1" style="stroke:#181818;stroke-width:0.5;" rx="12.5" ry="12.5"/><text x="149.301" y="276.737" fill="#000" font-size="14" textLength="25.519">Idle</text><rect x="38.06" y="409.891" width="67.996" height="40" fill="#F1F1F1" style="stroke:#181818;stroke-width:0.5;" rx="12.5" ry="12.5"/><text x="43.06" y="434.737" fill="#000" font-size="14" textLength="57.996">Running</text><rect x="109.95" y="567.891" width="68.215" height="40" fill="#F1F1F1" style="stroke:#181818;stroke-width:0.5;" rx="12.5" ry="12.5"/><text x="114.95" y="592.737" fill="#000" font-size="14" textLength="58.215">Stopped</text><g class="start_entity" data-qualified-name="simple_machine..start.simple_machine" id="ent0005" data-source-line="19"><ellipse cx="162.06" cy="204.891" rx="10" ry="10" fill="#222" style="stroke:#222;stroke-width:1;"/></g><!--link *start*simple_machine to simple_machine__idle--><g class="link" data-entity-1="ent0005" data-entity-2="ent0002" id="lnk6" data-source-line="19" data-link-type="dependency"><path d="M162.06,215.201 C162.06,224.611 162.06,234.431 162.06,246.411" style="stroke:#181818;stroke-width:1;" fill="none" id="*start*simple_machine-to-simple_machine__idle"/><polygon points="162.06,251.411,166.06,242.411,162.06,246.411,158.06,242.411,162.06,251.411" fill="#181818" style="stroke:#181818;stroke-width:1;stroke-linejoin:miter;stroke-miterlimit:10;"/></g><!--link simple_machine__idle to simple_machine__running--><g class="link" data-entity-1="ent0002" data-entity-2="ent0003" id="lnk7" data-source-line="20" data-link-type="dependency"><path d="M136.61,285.421 C126.45,291.551 115.44,299.801 108.06,309.891 C85.87,340.191 77.867,379.323 74.587,404.453" style="stroke:#181818;stroke-width:1;" fill="none" id="simple_machine__idle-to-simple_machine__running"/><polygon points="73.94,409.411,79.071,401.004,74.587,404.453,71.138,399.969,73.94,409.411" fill="#181818" style="stroke:#181818;stroke-width:1;stroke-linejoin:miter;stroke-miterlimit:10;"/><text x="142.946" y="322.958" fill="#000" font-size="13" textLength="59.585">Idle.Start</text><path d="M113.06,332.023 L113.06,387.023 L232.06,387.023 L232.06,342.023 L222.06,332.023 L113.06,332.023" style="stroke:#181818;stroke-width:0.5;" fill="#FEFFDD"/><path d="M222.06,332.023 L222.06,342.023 L232.06,342.023 L222.06,332.023" style="stroke:#181818;stroke-width:0.5;" fill="#FEFFDD"/><text x="119.06" y="349.09" fill="#000" font-size="13" textLength="49.797">effect {</text><text x="135.589" y="364.223" fill="#000" font-size="13" textLength="81.828">counter = 0;</text><text x="119.06" y="379.356" fill="#000" font-size="13">}</text></g><!--link simple_machine__running to simple_machine__stopped--><g class="link" data-entity-1="ent0003" data-entity-2="ent0004" id="lnk8" data-source-line="26" data-link-type="dependency"><path d="M50.19,450.181 C45.65,455.431 41.51,461.461 39.06,467.891 C26.08,501.941 18,520.141 39.06,549.891 C54.92,572.291 80.543,580.497 104.623,584.017" style="stroke:#181818;stroke-width:1;" fill="none" id="simple_machine__running-to-simple_machine__stopped"/><polygon points="109.57,584.741,101.243,579.481,104.623,584.017,100.086,587.397,109.57,584.741" fill="#181818" style="stroke:#181818;stroke-width:1;stroke-linejoin:miter;stroke-miterlimit:10;"/><text x="94.557" y="480.958" fill="#000" font-size="13" textLength="87.541">Running.Stop</text><path d="M44.06,490.023 L44.06,545.023 L232.06,545.023 L232.06,500.023 L222.06,490.023 L44.06,490.023" style="stroke:#181818;stroke-width:0.5;" fill="#FEFFDD"/><path d="M222.06,490.023 L222.06,500.023 L232.06,500.023 L222.06,490.023" style="stroke:#181818;stroke-width:0.5;" fill="#FEFFDD"/><text x="50.06" y="507.09" fill="#000" font-size="13" textLength="49.797">effect {</text><text x="66.589" y="522.223" fill="#000" font-size="13" textLength="151.004">counter = counter + 1;</text><text x="50.06" y="537.356" fill="#000" font-size="13">}</text></g><!--link simple_machine__stopped to simple_machine__idle--><g class="link" data-entity-1="ent0004" data-entity-2="ent0002" id="lnk9" data-source-line="32" data-link-type="dependency"><path d="M178.39,582.821 C199.12,578.391 223.99,569.161 237.06,549.891 C296.94,461.621 293.38,400.481 237.06,309.891 C226.25,292.501 209.404,284.438 192.124,279.448" style="stroke:#181818;stroke-width:1;" fill="none" id="simple_machine__stopped-to-simple_machine__idle"/><polygon points="187.32,278.061,194.857,284.401,192.124,279.448,197.076,276.715,187.32,278.061" fill="#181818" style="stroke:#181818;stroke-width:1;stroke-linejoin:miter;stroke-miterlimit:10;"/><text x="281.06" y="434.458" fill="#000" font-size="13" textLength="95.088">Stopped.Reset</text></g></g><g class="start_entity" data-qualified-name=".start." id="ent0010" data-source-line="34"><ellipse cx="204.07" cy="87.594" rx="10" ry="10" fill="#222" style="stroke:#222;stroke-width:1;"/></g><g class="end_entity" data-qualified-name=".end." id="ent0012" data-source-line="35"><ellipse cx="204.07" cy="691.894" rx="11" ry="11" fill="none" style="stroke:#222;stroke-width:1;"/><ellipse cx="204.07" cy="691.894" rx="6" ry="6" fill="#222" style="stroke:#222;stroke-width:1;"/></g><!--link *start* to simple_machine--><g class="link" data-entity-1="ent0010" data-entity-2="ent0001" id="lnk11" data-source-line="34" data-link-type="dependency"><path d="M204.07,97.894 C204.07,109.504 204.07,126.074 204.07,152.424" style="stroke:#181818;stroke-width:1;" fill="none" id="*start*-to-simple_machine"/><polygon points="204.07,157.424,208.07,148.424,204.07,152.424,200.07,148.424,204.07,157.424" fill="#181818" style="stroke:#181818;stroke-width:1;stroke-linejoin:miter;stroke-miterlimit:10;"/></g><!--link simple_machine to *end*--><g class="link" data-entity-1="ent0001" data-entity-2="ent0012" id="lnk13" data-source-line="35" data-link-type="dependency"><path d="M204.07,621.164 C204.07,647.344 204.07,663.894 204.07,675.804" style="stroke:#181818;stroke-width:1;" fill="none" id="simple_machine-to-*end*"/><polygon points="204.07,680.804,208.07,671.804,204.07,675.804,200.07,671.804,204.07,680.804" fill="#181818" style="stroke:#181818;stroke-width:1;stroke-linejoin:miter;stroke-miterlimit:10;"/></g><?plantuml-src bL9DJyCm3BtdLrWxWZQDAsmx30aq2IuRueBG55glivOcKU8TAhh_ZlibZIaWw26DxEVdv-ViAKV0qdC5ESOia6ToLgbu8Ejrq2L4repmgG2MEZiKmHrjVk-C2xEPZtZCtM81JrJi-J7eAeNANEbT9CO1k3H7R80kv1WkgNgM1sTvmvN1inInDfIfar862xGviFDWSCUgdiEh3gG_38BSNohV_bUMcBIHd7I4MjMGYIx603MGPJcd4XMcZa-cRcSTRQZq1fzrjYUB8z0HOXlPbbq8lW_LU0EzJwELa2LAjbkIn3bmVRIMR974XYvt3j_8i1xp93nskHR-TlKEu_7Yb_Q9HBAY5m6tqCmqsR0Et39O9uAS1KFsq0PmjyECUn-QRx1v3jExDdZgSBApfZYfOsYNaj8FA59wroQD7VyMCzokuURFieRMFtagclhLJDOOaULvfbUWBjvGWn3a5m00?></g></svg>