<?xml version="1.0" encoding="us-ascii" standalone="no"?><svg xmlns="http://www.w3.org/2000/svg" xmlns:xlink="http://www.w3.org/1999/xlink" contentStyleType="text/css" height="646px" preserveAspectRatio="none" style="width:285px;height:646px;background:#FFFFFF;" version="1.1" viewBox="0 0 285 646" width="285px" zoomAndPan="magnify"><defs/><g><rect fill="#DDDDDD" height="62.8906" id="_legend" rx="7.5" ry="7.5" style="stroke:#000000;stroke-width:1.0;" width="253" x="12" y="12"/><text fill="#000000" font-family="sans-serif" font-size="14" font-weight="bold" lengthAdjust="spacing" textLength="64" x="22" y="31.9951">Variable</text><text fill="#000000" font-family="sans-serif" font-size="14" font-weight="bold" lengthAdjust="spacing" textLength="39" x="116" y="31.9951">Type</text><text fill="#000000" font-family="sans-serif" font-size="14" font-weight="bold" lengthAdjust="spacing" textLength="90" x="165" y="31.9951">Initial Value</text><text fill="#000000" font-family="sans-serif" font-size="14" lengthAdjust="spacing" textLength="51" x="21" y="48.292">init_flag</text><text fill="#000000" font-family="sans-serif" font-size="14" lengthAdjust="spacing" textLength="17" x="115" y="48.292">int</text><text fill="#000000" font-family="sans-serif" font-size="14" lengthAdjust="spacing" textLength="9" x="164" y="48.292">0</text><text fill="#000000" font-family="sans-serif" font-size="14" lengthAdjust="spacing" textLength="86" x="21" y="64.5889">cleanup_flag</text><text fill="#000000" font-family="sans-serif" font-size="14" lengthAdjust="spacing" textLength="17" x="115" y="64.5889">int</text><text fill="#000000" font-family="sans-serif" font-size="14" lengthAdjust="spacing" textLength="9" x="164" y="64.5889">0</text><line style="stroke:#000000;stroke-width:1.0;" x1="17" x2="260" y1="19" y2="19"/><line style="stroke:#000000;stroke-width:1.0;" x1="17" x2="260" y1="35.2969" y2="35.2969"/><line style="stroke:#000000;stroke-width:1.0;" x1="17" x2="260" y1="51.5938" y2="51.5938"/><line style="stroke:#000000;stroke-width:1.0;" x1="17" x2="260" y1="67.8906" y2="67.8906"/><line style="stroke:#000000;stroke-width:1.0;" x1="17" x2="17" y1="19" y2="67.8906"/><line style="stroke:#000000;stroke-width:1.0;" x1="111" x2="111" y1="19" y2="67.8906"/><line style="stroke:#000000;stroke-width:1.0;" x1="160" x2="160" y1="19" y2="67.8906"/><line style="stroke:#000000;stroke-width:1.0;" x1="260" x2="260" y1="19" y2="67.8906"/><path d="M51,173.8906 L240,173.8906 A12.5,12.5 0 0 1 252.5,186.3906 L252.5,200.1875 L38.5,200.1875 L38.5,186.3906 A12.5,12.5 0 0 1 51,173.8906 " fill="#ADD8E6" style="stroke:#ADD8E6;stroke-width:1.0;"/><rect fill="none" height="387.2969" rx="12.5" ry="12.5" style="stroke:#181818;stroke-width:0.5;" width="214" x="38.5" y="173.8906"/><line style="stroke:#181818;stroke-width:0.5;" x1="38.5" x2="252.5" y1="200.1875" y2="200.1875"/><text fill="#000000" font-family="sans-serif" font-size="14" lengthAdjust="spacing" textLength="171" x="60" y="191.8857">AbstractReferenceDemo</text><rect fill="#F1F1F1" height="40" rx="12.5" ry="12.5" style="stroke:#181818;stroke-width:0.5;" width="81" x="64" y="268.1875"/><text fill="#000000" font-family="sans-serif" font-size="14" lengthAdjust="spacing" textLength="71" x="69" y="293.0342">BaseState</text><rect fill="#F1F1F1" height="40" rx="12.5" ry="12.5" style="stroke:#181818;stroke-width:0.5;" width="108" x="50.5" y="361.1875"/><text fill="#000000" font-family="sans-serif" font-size="14" lengthAdjust="spacing" textLength="98" x="55.5" y="386.0342">DerivedState1</text><rect fill="#F1F1F1" height="40" rx="12.5" ry="12.5" style="stroke:#181818;stroke-width:0.5;" width="108" x="50.5" y="454.1875"/><text fill="#000000" font-family="sans-serif" font-size="14" lengthAdjust="spacing" textLength="98" x="55.5" y="479.0342">DerivedState2</text><ellipse cx="104.5" cy="221.1875" fill="#181818" rx="10" ry="10" style="stroke:none;stroke-width:1.0;"/><ellipse cx="104.5" cy="541.1875" fill="none" rx="10" ry="10" style="stroke:#181818;stroke-width:1.0;"/><ellipse cx="105" cy="541.6875" fill="#181818" rx="6" ry="6" style="stroke:none;stroke-width:1.0;"/><!--link *start*abstract_reference_demo to abstract_reference_demo__base_state--><g id="link_*start*abstract_reference_demo_abstract_reference_demo__base_state"><path d="M104.5,231.4975 C104.5,239.4375 104.5,251.2275 104.5,261.9175 " fill="none" id="*start*abstract_reference_demo-to-abstract_reference_demo__base_state" style="stroke:#181818;stroke-width:1.0;"/><polygon fill="#181818" points="104.5,266.7075,108.5,257.7075,104.5,261.7075,100.5,257.7075,104.5,266.7075" style="stroke:#181818;stroke-width:1.0;"/></g><!--link abstract_reference_demo__base_state to abstract_reference_demo__derived_state1--><g id="link_abstract_reference_demo__base_state_abstract_reference_demo__derived_state1"><path d="M104.5,308.4875 C104.5,322.1175 104.5,340.5175 104.5,355.2575 " fill="none" id="abstract_reference_demo__base_state-to-abstract_reference_demo__derived_state1" style="stroke:#181818;stroke-width:1.0;"/><polygon fill="#181818" points="104.5,359.9175,108.5,350.9175,104.5,354.9175,100.5,350.9175,104.5,359.9175" style="stroke:#181818;stroke-width:1.0;"/><text fill="#000000" font-family="sans-serif" font-size="13" lengthAdjust="spacing" textLength="103" x="105.5" y="339.2544">BaseState.Start</text></g><!--link abstract_reference_demo__derived_state1 to abstract_reference_demo__derived_state2--><g id="link_abstract_reference_demo__derived_state1_abstract_reference_demo__derived_state2"><path d="M104.5,401.4875 C104.5,415.1175 104.5,433.5175 104.5,448.2575 " fill="none" id="abstract_reference_demo__derived_state1-to-abstract_reference_demo__derived_state2" style="stroke:#181818;stroke-width:1.0;"/><polygon fill="#181818" points="104.5,452.9175,108.5,443.9175,104.5,447.9175,100.5,443.9175,104.5,452.9175" style="stroke:#181818;stroke-width:1.0;"/><text fill="#000000" font-family="sans-serif" font-size="13" lengthAdjust="spacing" textLength="137" x="105.5" y="432.2544">DerivedState1.Switch</text></g><!--link abstract_reference_demo__derived_state2 to *end*abstract_reference_demo--><g id="link_abstract_reference_demo__derived_state2_*end*abstract_reference_demo"><path d="M104.5,494.3375 C104.5,504.0775 104.5,515.7475 104.5,524.8775 " fill="none" id="abstract_reference_demo__derived_state2-to-*end*abstract_reference_demo" style="stroke:#181818;stroke-width:1.0;"/><polygon fill="#181818" points="104.5,529.7375,108.5,520.7375,104.5,524.7375,100.5,520.7375,104.5,529.7375" style="stroke:#181818;stroke-width:1.0;"/></g><ellipse cx="145.5" cy="103.8906" fill="#181818" rx="10" ry="10" style="stroke:none;stroke-width:1.0;"/><ellipse cx="145.5" cy="630.8906" fill="none" rx="10" ry="10" style="stroke:#181818;stroke-width:1.0;"/><ellipse cx="146" cy="631.3906" fill="#181818" rx="6" ry="6" style="stroke:none;stroke-width:1.0;"/><!--link *start* to abstract_reference_demo--><g id="link_*start*_abstract_reference_demo"><path d="M145.5,114.2006 C145.5,125.0206 145.5,144.4306 145.5,167.8506 " fill="none" id="*start*-to-abstract_reference_demo" style="stroke:#181818;stroke-width:1.0;"/><polygon fill="#181818" points="145.5,172.5606,149.5,163.5606,145.5,167.5606,141.5,163.5606,145.5,172.5606" style="stroke:#181818;stroke-width:1.0;"/></g><!--link abstract_reference_demo to *end*--><g id="link_abstract_reference_demo_*end*"><path d="M145.5,561.1806 C145.5,583.3506 145.5,602.4206 145.5,614.8006 " fill="none" id="abstract_reference_demo-to-*end*" style="stroke:#181818;stroke-width:1.0;"/><polygon fill="#181818" points="145.5,619.6506,149.5,610.6506,145.5,614.6506,141.5,610.6506,145.5,619.6506" style="stroke:#181818;stroke-width:1.0;"/></g><!--SRC=[bP9HJy8m58NV-ojkU3I1o1uDaeX4O-AJ65-CMKfx6GrTsxHtcaNyxtPb642PyD8rFUT-fplfKaa4B1tL8348hnmfQnWBAsKSzxo4G9mGFXd0X8jLuMrbvAtLrez6Bc0bxNWCZwfOqhtdzLykOKjdWoBS6YUwmiPelKH_Y6efTzRGZ6gDEv8YhfLWNunfBD188Ej0uuBO-XfUk5TyhX7Y_hbswVjW52ckenOJOStMeE99lj2yW6PFSRrCvq8ZDvNxBSMOJLYi91NHkva7ybpG4oxGen4unTBsW0VWhPBxhPJBgC5-1KsJqBRQc_20isRR1SZpURJbQMHtU8fUlQDCyyDkWDnODupXCKXs1YHBaDUBD-ZtnoVV_0HVDs__H-0AVXeSnDLJTyh1zEb9MKpQgtim-r0abcV4PIak5XOVy3-riMClgILy0m00]--></g></svg>