<svg xmlns="http://www.w3.org/2000/svg" xmlns:xlink="http://www.w3.org/1999/xlink" contentStyleType="text/css" data-diagram-type="STATE" height="563px" preserveAspectRatio="none" style="width:239px;height:563px;background:#FFFFFF;" version="1.1" viewBox="0 0 239 563" width="239px" zoomAndPan="magnify"><defs/><g><path d="M19.5,86 L213.5921,86 A12.5,12.5 0 0 1 226.0921,98.5 L226.0921,112.2969 L7,112.2969 L7,98.5 A12.5,12.5 0 0 1 19.5,86" fill="#ADD8E6"/><rect fill="none" height="389.2969" rx="12.5" ry="12.5" style="stroke:#181818;stroke-width:0.5;" width="219.0921" x="7" y="86"/><line style="stroke:#181818;stroke-width:0.5;" x1="7" x2="226.0921" y1="112.2969" y2="112.2969"/><text fill="#000000" font-family="sans-serif" font-size="14" lengthAdjust="spacing" textLength="171.8008" x="30.6457" y="103.9951">AbstractReferenceDemo</text><rect fill="#F1F1F1" height="40" rx="12.5" ry="12.5" style="stroke:#181818;stroke-width:0.5;" width="81.1484" x="33.82" y="180.2969"/><text fill="#000000" font-family="sans-serif" font-size="14" lengthAdjust="spacing" textLength="71.1484" x="38.82" y="205.1436">BaseState</text><rect fill="#F1F1F1" height="40" rx="12.5" ry="12.5" style="stroke:#181818;stroke-width:0.5;" width="110.7891" x="19" y="273.2969"/><text fill="#000000" font-family="sans-serif" font-size="14" lengthAdjust="spacing" textLength="100.7891" x="24" y="298.1436">DerivedState1</text><rect fill="#F1F1F1" height="40" rx="12.5" ry="12.5" style="stroke:#181818;stroke-width:0.5;" width="110.7891" x="19" y="366.2969"/><text fill="#000000" font-family="sans-serif" font-size="14" lengthAdjust="spacing" textLength="100.7891" x="24" y="391.1436">DerivedState2</text><ellipse cx="74.39" cy="133.2969" fill="#222222" rx="10" ry="10" style="stroke:#222222;stroke-width:1;"/><ellipse cx="74.39" cy="454.2969" fill="none" rx="11" ry="11" style="stroke:#222222;stroke-width:1;"/><ellipse cx="74.39" cy="454.2969" fill="#222222" rx="6" ry="6" style="stroke:#222222;stroke-width:1;"/><!--link *start*abstract_reference_demo to abstract_reference_demo__base_state--><g class="link" data-entity-1="*start*abstract_reference_demo" data-entity-2="abstract_reference_demo__base_state" data-source-line="14" data-uid="lnk3" id="link_*start*abstract_reference_demo_abstract_reference_demo__base_state"><path d="M74.39,143.6069 C74.39,153.0169 74.39,161.8369 74.39,173.8169" fill="none" id="*start*abstract_reference_demo-to-abstract_reference_demo__base_state" style="stroke:#181818;stroke-width:1;"/><polygon fill="#181818" points="74.39,179.8169,78.39,170.8169,74.39,174.8169,70.39,170.8169,74.39,179.8169" style="stroke:#181818;stroke-width:1;"/></g><!--link abstract_reference_demo__base_state to abstract_reference_demo__derived_state1--><g class="link" data-entity-1="abstract_reference_demo__base_state" data-entity-2="abstract_reference_demo__derived_state1" data-source-line="15" data-uid="lnk4" id="link_abstract_reference_demo__base_state_abstract_reference_demo__derived_state1"><path d="M74.39,220.5969 C74.39,236.0369 74.39,251.5869 74.39,267.0269" fill="none" id="abstract_reference_demo__base_state-to-abstract_reference_demo__derived_state1" style="stroke:#181818;stroke-width:1;"/><polygon fill="#181818" points="74.39,273.0269,78.39,264.0269,74.39,268.0269,70.39,264.0269,74.39,273.0269" style="stroke:#181818;stroke-width:1;"/><text fill="#000000" font-family="sans-serif" font-size="13" lengthAdjust="spacing" textLength="101.9561" x="75.39" y="251.3638">BaseState.Start</text></g><!--link abstract_reference_demo__derived_state1 to abstract_reference_demo__derived_state2--><g class="link" data-entity-1="abstract_reference_demo__derived_state1" data-entity-2="abstract_reference_demo__derived_state2" data-source-line="16" data-uid="lnk5" id="link_abstract_reference_demo__derived_state1_abstract_reference_demo__derived_state2"><path d="M74.39,313.5969 C74.39,329.0369 74.39,344.5869 74.39,360.0269" fill="none" id="abstract_reference_demo__derived_state1-to-abstract_reference_demo__derived_state2" style="stroke:#181818;stroke-width:1;"/><polygon fill="#181818" points="74.39,366.0269,78.39,357.0269,74.39,361.0269,70.39,357.0269,74.39,366.0269" style="stroke:#181818;stroke-width:1;"/><text fill="#000000" font-family="sans-serif" font-size="13" lengthAdjust="spacing" textLength="140.7021" x="75.39" y="344.3638">DerivedState1.Switch</text></g><!--link abstract_reference_demo__derived_state2 to *end*abstract_reference_demo--><g class="link" data-entity-1="abstract_reference_demo__derived_state2" data-entity-2="*end*abstract_reference_demo" data-source-line="17" data-uid="lnk7" id="link_abstract_reference_demo__derived_state2_*end*abstract_reference_demo"><path d="M74.39,406.7469 C74.39,418.6069 74.39,427.2969 74.39,436.9669" fill="none" id="abstract_reference_demo__derived_state2-to-*end*abstract_reference_demo" style="stroke:#181818;stroke-width:1;"/><polygon fill="#181818" points="74.39,442.9669,78.39,433.9669,74.39,437.9669,70.39,433.9669,74.39,442.9669" style="stroke:#181818;stroke-width:1;"/></g><ellipse cx="116.55" cy="16" fill="#222222" rx="10" ry="10" style="stroke:#222222;stroke-width:1;"/><ellipse cx="116.55" cy="546.3" fill="none" rx="11" ry="11" style="stroke:#222222;stroke-width:1;"/><ellipse cx="116.55" cy="546.3" fill="#222222" rx="6" ry="6" style="stroke:#222222;stroke-width:1;"/><!--link *start* to abstract_reference_demo--><g class="link" data-entity-1="*start*" data-entity-2="abstract_reference_demo" data-source-line="19" data-uid="lnk9" id="link_*start*_abstract_reference_demo"><path d="M116.55,26.35 C116.55,38.05 116.55,53.73 116.55,79.67" fill="none" id="*start*-to-abstract_reference_demo" style="stroke:#181818;stroke-width:1;"/><polygon fill="#181818" points="116.55,85.67,120.55,76.67,116.55,80.67,112.55,76.67,116.55,85.67" style="stroke:#181818;stroke-width:1;"/></g><!--link abstract_reference_demo to *end*--><g class="link" data-entity-1="abstract_reference_demo" data-entity-2="*end*" data-source-line="20" data-uid="lnk11" id="link_abstract_reference_demo_*end*"><path d="M116.55,475.68 C116.55,501.42 116.55,517.05 116.55,529.08" fill="none" id="abstract_reference_demo-to-*end*" style="stroke:#181818;stroke-width:1;"/><polygon fill="#181818" points="116.55,535.08,120.55,526.08,116.55,530.08,112.55,526.08,116.55,535.08" style="stroke:#181818;stroke-width:1;"/></g><!--SRC=[bP91QyCm38Nl-HKYnq4BpN6KmBBINNPQZcC4rzOQqyGEih8Hnlxx73STJLcpz68CUlhUar2f5GBM3NUWq4dI3MjheiWTj6a4YHeS2qRuYW0o8GzxigrHZxQoj5ut3bjbqnIUzRxa9nBTNoffwyOwpNWIPbMBlT2IGhf43PIjDPnpL-5PIREej8o-VRgGANxOEIOX-GNVaT18t61jOn0En50fw5GgbA_1E4q_50m3nfbmcFVVAK1HxBoi22tdpHia_O4gzA-c0UeeFJ9Mro393P0aG5xltc2nI6Sddw6Rveq7WNlutU3IlyJJBXVTyvqIxpHQzpB_r2pB6-oIOESNvc_fdxL5rovf8Fm0]--></g></svg>