<?xml version="1.0" encoding="us-ascii" standalone="no"?><svg xmlns="http://www.w3.org/2000/svg" xmlns:xlink="http://www.w3.org/1999/xlink" contentStyleType="text/css" height="1216px" preserveAspectRatio="none" style="width:839px;height:1216px;background:#FFFFFF;" version="1.1" viewBox="0 0 839 1216" width="839px" zoomAndPan="magnify"><defs/><g><rect fill="#DDDDDD" height="95.4844" id="_legend" rx="7.5" ry="7.5" style="stroke:#000000;stroke-width:1.0;" width="241" x="12" y="12"/><text fill="#000000" font-family="sans-serif" font-size="14" font-weight="bold" lengthAdjust="spacing" textLength="64" x="22" y="31.9951">Variable</text><text fill="#000000" font-family="sans-serif" font-size="14" font-weight="bold" lengthAdjust="spacing" textLength="39" x="104" y="31.9951">Type</text><text fill="#000000" font-family="sans-serif" font-size="14" font-weight="bold" lengthAdjust="spacing" textLength="90" x="153" y="31.9951">Initial Value</text><text fill="#000000" font-family="sans-serif" font-size="14" lengthAdjust="spacing" textLength="38" x="21" y="48.292">ready</text><text fill="#000000" font-family="sans-serif" font-size="14" lengthAdjust="spacing" textLength="17" x="103" y="48.292">int</text><text fill="#000000" font-family="sans-serif" font-size="14" lengthAdjust="spacing" textLength="9" x="152" y="48.292">1</text><text fill="#000000" font-family="sans-serif" font-size="14" lengthAdjust="spacing" textLength="65" x="21" y="64.5889">accepted</text><text fill="#000000" font-family="sans-serif" font-size="14" lengthAdjust="spacing" textLength="17" x="103" y="64.5889">int</text><text fill="#000000" font-family="sans-serif" font-size="14" lengthAdjust="spacing" textLength="9" x="152" y="64.5889">0</text><text fill="#000000" font-family="sans-serif" font-size="14" lengthAdjust="spacing" textLength="44" x="21" y="80.8857">retries</text><text fill="#000000" font-family="sans-serif" font-size="14" lengthAdjust="spacing" textLength="17" x="103" y="80.8857">int</text><text fill="#000000" font-family="sans-serif" font-size="14" lengthAdjust="spacing" textLength="9" x="152" y="80.8857">0</text><text fill="#000000" font-family="sans-serif" font-size="14" lengthAdjust="spacing" textLength="74" x="21" y="97.1826">boot_seen</text><text fill="#000000" font-family="sans-serif" font-size="14" lengthAdjust="spacing" textLength="17" x="103" y="97.1826">int</text><text fill="#000000" font-family="sans-serif" font-size="14" lengthAdjust="spacing" textLength="9" x="152" y="97.1826">0</text><line style="stroke:#000000;stroke-width:1.0;" x1="17" x2="248" y1="19" y2="19"/><line style="stroke:#000000;stroke-width:1.0;" x1="17" x2="248" y1="35.2969" y2="35.2969"/><line style="stroke:#000000;stroke-width:1.0;" x1="17" x2="248" y1="51.5938" y2="51.5938"/><line style="stroke:#000000;stroke-width:1.0;" x1="17" x2="248" y1="67.8906" y2="67.8906"/><line style="stroke:#000000;stroke-width:1.0;" x1="17" x2="248" y1="84.1875" y2="84.1875"/><line style="stroke:#000000;stroke-width:1.0;" x1="17" x2="248" y1="100.4844" y2="100.4844"/><line style="stroke:#000000;stroke-width:1.0;" x1="17" x2="17" y1="19" y2="100.4844"/><line style="stroke:#000000;stroke-width:1.0;" x1="99" x2="99" y1="19" y2="100.4844"/><line style="stroke:#000000;stroke-width:1.0;" x1="148" x2="148" y1="19" y2="100.4844"/><line style="stroke:#000000;stroke-width:1.0;" x1="248" x2="248" y1="19" y2="100.4844"/><path d="M19.5,206.4844 L813,206.4844 A12.5,12.5 0 0 1 825.5,218.9844 L825.5,232.7813 L7,232.7813 L7,218.9844 A12.5,12.5 0 0 1 19.5,206.4844 " fill="#ADD8E6" style="stroke:#ADD8E6;stroke-width:1.0;"/><rect fill="none" height="923.5938" rx="12.5" ry="12.5" style="stroke:#181818;stroke-width:0.5;" width="818.5" x="7" y="206.4844"/><line style="stroke:#181818;stroke-width:0.5;" x1="7" x2="825.5" y1="232.7813" y2="232.7813"/><text fill="#000000" font-family="sans-serif" font-size="14" lengthAdjust="spacing" textLength="126" x="353.25" y="224.4795">ComboTransitions</text><path d="M31.5,299.7813 L804,299.7813 A12.5,12.5 0 0 1 816.5,312.2813 L816.5,326.0781 L19,326.0781 L19,312.2813 A12.5,12.5 0 0 1 31.5,299.7813 " fill="#ADD8E6" style="stroke:#ADD8E6;stroke-width:1.0;"/><rect fill="none" height="820.2969" rx="12.5" ry="12.5" style="stroke:#181818;stroke-width:0.5;" width="797.5" x="19" y="299.7813"/><line style="stroke:#181818;stroke-width:0.5;" x1="19" x2="816.5" y1="326.0781" y2="326.0781"/><text fill="#000000" font-family="sans-serif" font-size="14" lengthAdjust="spacing" textLength="55" x="390.25" y="317.7764">Session</text><rect fill="#F1F1F1" height="40" rx="12.5" ry="12.5" style="stroke:#181818;stroke-width:0.5;" width="60" x="381.5" y="661.0781"/><text fill="#000000" font-family="sans-serif" font-size="14" lengthAdjust="spacing" textLength="50" x="386.5" y="685.9248">Waiting</text><rect fill="#F1F1F1" height="40" rx="12.5" ry="12.5" style="stroke:#181818;stroke-width:0.5;" width="61" x="430" y="568.0781"/><text fill="#000000" font-family="sans-serif" font-size="14" lengthAdjust="spacing" textLength="51" x="435" y="592.9248">Booted</text><rect fill="#F1F1F1" height="40" rx="12.5" ry="12.5" style="stroke:#181818;stroke-width:0.5;" width="76" x="220.5" y="1070.0781"/><text fill="#000000" font-family="sans-serif" font-size="14" lengthAdjust="spacing" textLength="66" x="225.5" y="1094.9248">Accepted</text><rect fill="#F1F1F1" height="40" rx="12.5" ry="12.5" style="stroke:#181818;stroke-width:0.5;" width="67" x="553" y="912.0781"/><text fill="#000000" font-family="sans-serif" font-size="14" lengthAdjust="spacing" textLength="57" x="558" y="936.9248">Retrying</text><rect fill="#D3D3D3" height="40" rx="12.5" ry="12.5" style="stroke:#808080;stroke-width:1.0;stroke-dasharray:1.0,3.0;" width="129" x="413" y="410.0781"/><text fill="#000000" font-family="sans-serif" font-size="14" font-style="italic" lengthAdjust="spacing" textLength="119" x="418" y="434.9248">combo after Start</text><rect fill="#D3D3D3" height="40" rx="12.5" ry="12.5" style="stroke:#808080;stroke-width:1.0;stroke-dasharray:1.0,3.0;" width="156" x="114.5" y="754.0781"/><text fill="#000000" font-family="sans-serif" font-size="14" font-style="italic" lengthAdjust="spacing" textLength="146" x="119.5" y="778.9248">combo after Request</text><rect fill="#D3D3D3" height="40" rx="12.5" ry="12.5" style="stroke:#808080;stroke-width:1.0;stroke-dasharray:1.0,3.0;" width="253" x="31" y="912.0781"/><text fill="#000000" font-family="sans-serif" font-size="14" font-style="italic" lengthAdjust="spacing" textLength="243" x="36" y="936.9248">combo after Request + [ready &gt; 0]</text><rect fill="#D3D3D3" height="40" rx="12.5" ry="12.5" style="stroke:#808080;stroke-width:1.0;stroke-dasharray:1.0,3.0;" width="186" x="401.5" y="754.0781"/><text fill="#000000" font-family="sans-serif" font-size="14" font-style="italic" lengthAdjust="spacing" textLength="176" x="406.5" y="778.9248">combo after [ready == 0]</text><ellipse cx="400.5" cy="347.0781" fill="#181818" rx="10" ry="10" style="stroke:none;stroke-width:1.0;"/><!--link *start*combo_transitions__session to combo_transitions__session__waiting--><g id="link_*start*combo_transitions__session_combo_transitions__session__waiting"><path d="M400.76,357.3581 C401.26,375.2881 402.4,415.9081 403.5,450.0781 C405.89,524.4881 409.04,612.4281 410.58,654.7781 " fill="none" id="*start*combo_transitions__session-to-combo_transitions__session__waiting" style="stroke:#181818;stroke-width:1.0;"/><polygon fill="#181818" points="410.79,659.6981,414.4793,650.5663,410.6187,654.7011,406.484,650.8405,410.79,659.6981" style="stroke:#181818;stroke-width:1.0;"/></g><!--link *start*combo_transitions__session to combo_transitions__session___combo_entry_start_haf42b078e471--><g id="link_*start*combo_transitions__session_combo_transitions__session___combo_entry_start_haf42b078e471"><path d="M407.06,354.9881 C417.59,366.0581 438.73,388.2981 455.12,405.5281 " fill="none" id="*start*combo_transitions__session-to-combo_transitions__session___combo_entry_start_haf42b078e471" style="stroke:#181818;stroke-width:1.0;"/><polygon fill="#181818" points="458.17,408.7981,454.8587,399.5226,454.7214,405.1778,449.0662,405.0404,458.17,408.7981" style="stroke:#181818;stroke-width:1.0;"/><text fill="#000000" font-family="sans-serif" font-size="13" lengthAdjust="spacing" textLength="32" x="441.5" y="388.145">Start</text></g><!--link combo_transitions__session___combo_entry_start_haf42b078e471 to combo_transitions__session__booted--><g id="link_combo_transitions__session___combo_entry_start_haf42b078e471_combo_transitions__session__booted"><path d="M475.38,450.5181 C472.31,478.6981 466.62,530.9081 463.24,561.9681 " fill="none" id="combo_transitions__session___combo_entry_start_haf42b078e471-to-combo_transitions__session__booted" style="stroke:#181818;stroke-width:1.0;"/><polygon fill="#181818" points="462.59,566.8781,467.5433,558.3655,463.1328,561.9077,459.5906,557.4971,462.59,566.8781" style="stroke:#181818;stroke-width:1.0;"/><text fill="#000000" font-family="sans-serif" font-size="13" lengthAdjust="spacing" textLength="63" x="513.5" y="481.145">ready &gt; 0</text><path d="M477.5,490.2109 L477.5,545.2109 L612.5,545.2109 L612.5,500.2109 L602.5,490.2109 L477.5,490.2109 " fill="#FEFFDD" style="stroke:#181818;stroke-width:0.5;"/><path d="M602.5,490.2109 L602.5,500.2109 L612.5,500.2109 L602.5,490.2109 " fill="#FEFFDD" style="stroke:#181818;stroke-width:0.5;"/><text fill="#000000" font-family="sans-serif" font-size="13" lengthAdjust="spacing" textLength="48" x="483.5" y="507.2778">effect {</text><text fill="#000000" font-family="sans-serif" font-size="13" lengthAdjust="spacing" textLength="98" x="499.5" y="522.4106">boot_seen = 1;</text><text fill="#000000" font-family="sans-serif" font-size="13" lengthAdjust="spacing" textLength="8" x="483.5" y="537.5435">}</text></g><!--link combo_transitions__session__waiting to combo_transitions__session___combo_combotransitions_session_waiting_request_h256ffe8c4bd6--><g id="link_combo_transitions__session__waiting_combo_transitions__session___combo_combotransitions_session_waiting_request_h256ffe8c4bd6"><path d="M381,684.9981 C348.44,689.0681 296.06,698.4381 255.5,719.0781 C240.29,726.8181 225.67,738.9581 214.35,749.7681 " fill="none" id="combo_transitions__session__waiting-to-combo_transitions__session___combo_combotransitions_session_waiting_request_h256ffe8c4bd6" style="stroke:#181818;stroke-width:1.0;"/><polygon fill="#181818" points="211.33,752.6781,220.5646,749.2545,214.9082,749.1858,214.9769,743.5294,211.33,752.6781" style="stroke:#181818;stroke-width:1.0;"/><text fill="#000000" font-family="sans-serif" font-size="13" lengthAdjust="spacing" textLength="102" x="256.5" y="732.145">Waiting.Request</text></g><!--link combo_transitions__session___combo_combotransitions_session_waiting_request_h256ffe8c4bd6 to combo_transitions__session___combo_combotransitions_session_waiting_request_if_ready_gt_0_hf9f8a18c684e--><g id="link_combo_transitions__session___combo_combotransitions_session_waiting_request_h256ffe8c4bd6_combo_transitions__session___combo_combotransitions_session_waiting_request_if_ready_gt_0_hf9f8a18c684e"><path d="M188.14,794.5181 C181.79,822.8181 170.01,875.3381 163.05,906.3481 " fill="none" id="combo_transitions__session___combo_combotransitions_session_waiting_request_h256ffe8c4bd6-to-combo_transitions__session___combo_combotransitions_session_waiting_request_if_ready_gt_0_hf9f8a18c684e" style="stroke:#181818;stroke-width:1.0;"/><polygon fill="#181818" points="161.81,910.8781,167.6891,902.9765,162.9082,906.0002,159.8845,901.2193,161.81,910.8781" style="stroke:#181818;stroke-width:1.0;"/><text fill="#000000" font-family="sans-serif" font-size="13" lengthAdjust="spacing" textLength="63" x="185.5" y="857.645">ready &gt; 0</text></g><!--link combo_transitions__session___combo_combotransitions_session_waiting_request_if_ready_gt_0_hf9f8a18c684e to combo_transitions__session__accepted--><g id="link_combo_transitions__session___combo_combotransitions_session_waiting_request_if_ready_gt_0_hf9f8a18c684e_combo_transitions__session__accepted"><path d="M148,952.4481 C137.04,977.8481 123.12,1022.6581 144.5,1052.0781 C160.36,1073.8981 189.38,1083.1081 214.17,1086.8781 " fill="none" id="combo_transitions__session___combo_combotransitions_session_waiting_request_if_ready_gt_0_hf9f8a18c684e-to-combo_transitions__session__accepted" style="stroke:#181818;stroke-width:1.0;"/><polygon fill="#181818" points="219.04,1087.6881,210.673,1082.4926,214.0872,1087.003,209.5768,1090.4172,219.04,1087.6881" style="stroke:#181818;stroke-width:1.0;"/><text fill="#000000" font-family="sans-serif" font-size="13" lengthAdjust="spacing" textLength="100" x="202" y="983.145">Waiting.Confirm</text><path d="M149.5,992.2109 L149.5,1047.2109 L354.5,1047.2109 L354.5,1002.2109 L344.5,992.2109 L149.5,992.2109 " fill="#FEFFDD" style="stroke:#181818;stroke-width:0.5;"/><path d="M344.5,992.2109 L344.5,1002.2109 L354.5,1002.2109 L344.5,992.2109 " fill="#FEFFDD" style="stroke:#181818;stroke-width:0.5;"/><text fill="#000000" font-family="sans-serif" font-size="13" lengthAdjust="spacing" textLength="48" x="155.5" y="1009.2778">effect {</text><text fill="#000000" font-family="sans-serif" font-size="13" lengthAdjust="spacing" textLength="168" x="171.5" y="1024.4106">accepted = accepted + 1;</text><text fill="#000000" font-family="sans-serif" font-size="13" lengthAdjust="spacing" textLength="8" x="155.5" y="1039.5435">}</text></g><!--link combo_transitions__session__waiting to combo_transitions__session___combo_combotransitions_session_waiting_if_ready_eq_0_hbc30068a1317--><g id="link_combo_transitions__session__waiting_combo_transitions__session___combo_combotransitions_session_waiting_if_ready_eq_0_hbc30068a1317"><path d="M429.1,701.3781 C441.98,715.4881 459.51,734.7081 473.18,749.6981 " fill="none" id="combo_transitions__session__waiting-to-combo_transitions__session___combo_combotransitions_session_waiting_if_ready_eq_0_hbc30068a1317" style="stroke:#181818;stroke-width:1.0;"/><polygon fill="#181818" points="475.92,752.8081,472.8347,743.455,472.5602,749.1052,466.91,748.8307,475.92,752.8081" style="stroke:#181818;stroke-width:1.0;"/><text fill="#000000" font-family="sans-serif" font-size="13" lengthAdjust="spacing" textLength="74" x="460.5" y="732.145">ready == 0</text></g><!--link combo_transitions__session___combo_combotransitions_session_waiting_if_ready_eq_0_hbc30068a1317 to combo_transitions__session__retrying--><g id="link_combo_transitions__session___combo_combotransitions_session_waiting_if_ready_eq_0_hbc30068a1317_combo_transitions__session__retrying"><path d="M487.4,794.3181 C479.42,819.5981 470.03,864.2481 490.5,894.0781 C503.16,912.5181 526.4,921.7781 546.85,926.4181 " fill="none" id="combo_transitions__session___combo_combotransitions_session_waiting_if_ready_eq_0_hbc30068a1317-to-combo_transitions__session__retrying" style="stroke:#181818;stroke-width:1.0;"/><polygon fill="#181818" points="551.53,927.6081,543.5471,921.8398,546.6373,926.5781,541.899,929.6682,551.53,927.6081" style="stroke:#181818;stroke-width:1.0;"/><text fill="#000000" font-family="sans-serif" font-size="13" lengthAdjust="spacing" textLength="39" x="560.5" y="825.145">/Abort</text><path d="M495.5,834.2109 L495.5,889.2109 L664.5,889.2109 L664.5,844.2109 L654.5,834.2109 L495.5,834.2109 " fill="#FEFFDD" style="stroke:#181818;stroke-width:0.5;"/><path d="M654.5,834.2109 L654.5,844.2109 L664.5,844.2109 L654.5,834.2109 " fill="#FEFFDD" style="stroke:#181818;stroke-width:0.5;"/><text fill="#000000" font-family="sans-serif" font-size="13" lengthAdjust="spacing" textLength="48" x="501.5" y="851.2778">effect {</text><text fill="#000000" font-family="sans-serif" font-size="13" lengthAdjust="spacing" textLength="132" x="517.5" y="866.4106">retries = retries + 1;</text><text fill="#000000" font-family="sans-serif" font-size="13" lengthAdjust="spacing" textLength="8" x="501.5" y="881.5435">}</text></g><!--link combo_transitions__session__retrying to combo_transitions__session__waiting--><g id="link_combo_transitions__session__retrying_combo_transitions__session__waiting"><path d="M620.18,925.1681 C638.08,920.1181 658.59,910.8881 669.5,894.0781 C689.34,863.5081 685.34,844.8981 669.5,812.0781 C628.42,726.9681 508.04,696.7181 447.36,686.6781 " fill="none" id="combo_transitions__session__retrying-to-combo_transitions__session__waiting" style="stroke:#181818;stroke-width:1.0;"/><polygon fill="#181818" points="442.67,685.7681,450.9153,691.1547,447.6058,686.567,452.1935,683.2574,442.67,685.7681" style="stroke:#181818;stroke-width:1.0;"/><text fill="#000000" font-family="sans-serif" font-size="13" lengthAdjust="spacing" textLength="147" x="659.5" y="778.645">ready &gt; 0 || retries &gt; 0</text></g><!--link combo_transitions__session__accepted to combo_transitions__session__waiting--><g id="link_combo_transitions__session__accepted_combo_transitions__session__waiting"><path d="M296.95,1084.9081 C318.73,1080.4381 344.54,1071.1981 359.5,1052.0781 C392.55,1009.8281 379.4,865.3781 385.5,812.0781 C388.45,786.2781 387.62,779.5781 392.5,754.0781 C395.52,738.2981 400.08,720.8781 403.98,707.1281 " fill="none" id="combo_transitions__session__accepted-to-combo_transitions__session__waiting" style="stroke:#181818;stroke-width:1.0;"/><polygon fill="#181818" points="405.6,702.4681,399.2666,710.0106,404.217,707.273,406.9545,712.2234,405.6,702.4681" style="stroke:#181818;stroke-width:1.0;"/><text fill="#000000" font-family="sans-serif" font-size="13" lengthAdjust="spacing" textLength="86" x="386.5" y="857.645">accepted &gt; 0</text></g><!--link combo_transitions__session__booted to combo_transitions__session__waiting--><g id="link_combo_transitions__session__booted_combo_transitions__session__waiting"><path d="M450.11,608.3781 C442.7,622.1281 432.69,640.7281 424.71,655.5381 " fill="none" id="combo_transitions__session__booted-to-combo_transitions__session__waiting" style="stroke:#181818;stroke-width:1.0;"/><polygon fill="#181818" points="421.88,659.8081,429.6711,653.7833,424.2522,655.4067,422.6288,649.9878,421.88,659.8081" style="stroke:#181818;stroke-width:1.0;"/><text fill="#000000" font-family="sans-serif" font-size="13" lengthAdjust="spacing" textLength="94" x="440.5" y="639.145">boot_seen &gt; 0</text></g><ellipse cx="418" cy="253.7813" fill="#181818" rx="10" ry="10" style="stroke:none;stroke-width:1.0;"/><!--link *start*combo_transitions to combo_transitions__session--><g id="link_*start*combo_transitions_combo_transitions__session"><path d="M418,264.2613 C418,270.9412 418,280.9213 418,293.4512 " fill="none" id="*start*combo_transitions-to-combo_transitions__session" style="stroke:#181818;stroke-width:1.0;"/><polygon fill="#181818" points="418,298.3913,422,289.3913,418,293.3913,414,289.3913,418,298.3913" style="stroke:#181818;stroke-width:1.0;"/></g><ellipse cx="416.5" cy="136.4844" fill="#181818" rx="10" ry="10" style="stroke:none;stroke-width:1.0;"/><ellipse cx="416.5" cy="1200.4844" fill="none" rx="10" ry="10" style="stroke:#181818;stroke-width:1.0;"/><ellipse cx="417" cy="1200.9844" fill="#181818" rx="6" ry="6" style="stroke:none;stroke-width:1.0;"/><!--link *start* to combo_transitions--><g id="link_*start*_combo_transitions"><path d="M416.5,146.6844 C416.5,157.1144 416.5,175.9044 416.5,200.3444 " fill="none" id="*start*-to-combo_transitions" style="stroke:#181818;stroke-width:1.0;"/><polygon fill="#181818" points="416.5,205.3344,420.5,196.3344,416.5,200.3344,412.5,196.3344,416.5,205.3344" style="stroke:#181818;stroke-width:1.0;"/></g><!--link combo_transitions to *end*--><g id="link_combo_transitions_*end*"><path d="M416.5,1130.7444 C416.5,1153.5944 416.5,1172.0144 416.5,1184.0144 " fill="none" id="combo_transitions-to-*end*" style="stroke:#181818;stroke-width:1.0;"/><polygon fill="#181818" points="416.5,1189.0144,420.5,1180.0144,416.5,1184.0144,412.5,1180.0144,416.5,1189.0144" style="stroke:#181818;stroke-width:1.0;"/></g><!--SRC=[pLPBRzf04BxxLupIMwEaa512qu0Ka5fLwYc9saCKhTRs65QONMTtKOLA_dl6hxL3ANO8gih1MBCpttppzCv4Y82BnAuWH1DeaLYXfEUPkP09rtm1ndAByDi36FDWFjLgASE9YfM-kaeCBaCr6i5tCPtPhvgljca5Qf4e8ooMYkDuYQcYqY7gJQW2vOkIzjQkOgmT2SjZ4NXFdXVZ56K8LYKGOsIzzH1-S2su7oFG-zqgoVw_IM45Z-cCFCBQMuD67gvW3K9QUdOp6Gy2J2o6JjmfLAqMQ3QalbAM6KJvGavaSagKk2nTHnEryDMTvf82fuIQ8-06WbJ8R2M5bzb9amn5mezkqHZIsMx8Y4Dsl1MXXlAJau6SDg0mzYlNspGVKxWODbhxcTgcyNMHs4RpiWAR03TKWbKRzhfGt0J8R8175ZNSMgvj8nBB3r4I83Ef2Plng7VcTou6sBleGgqVtyL2uccex1RgTSyt-BX4qzftzgnhb0f5ZIZQ38_DpZxsemW7GSyF-syW1iTmdm_623eF1wSf8fQXiwbb7JQBFaK3tXq4_K4Fzo5TK1qE3ydLSSJ7bACVd7SwVQ9vthrev7Z__W5EJaQl6gysDesjU9dtj0Dz4rWJctp4oQVh5ETNqWdGAgBap9qGgJC3Mrj8wQ_QdaFeVdP7JvKLRVKKhbLCHLBR9dBFkRg4OeUU5kFocdplwVFG4UqQmMqL_LU-c-9qd-Qg21Cb8w4NUpIV0njMhyV_OHlksaLbiTBjTz1gxNBQ55ZvzILs7wvzLTj8xOjJthQ6xkqGfN7CMkxd-Z30khe3jfqDrrVj_JcJjZwAHTpUGxLqInTvDfk_GNJL_gkIz-TbDjKZ_MS0]--></g></svg>