<svg xmlns="http://www.w3.org/2000/svg" xmlns:xlink="http://www.w3.org/1999/xlink" version="1.1" data-diagram-type="STATE" style="width:198px;height:574px;background:#FFFFFF;" width="198px" height="574px" viewBox="0 0 198 574" zoomAndPan="magnify" preserveAspectRatio="none" contentStyleType="text/css"><?plantuml 1.2026.7beta6?><defs/><g font-family="sans-serif" lengthAdjust="spacing"><g class="entity" data-qualified-name="combo_duplicate_event" id="ent0001" data-source-line="10"><path d="M19.5,86 L170.735,86 A12.5,12.5 0 0 1 183.235,98.5 L183.235,112.297 L7,112.297 L7,98.5 A12.5,12.5 0 0 1 19.5,86" fill="#ADD8E6"/><path d="M7,112.297 L183.235,112.297 L183.235,465.797 A12.5,12.5 0 0 1 170.735,478.297 L19.5,478.297 A12.5,12.5 0 0 1 7,465.797 L7,112.297" fill="#ADD8E6"/><rect x="7" y="86" width="176.235" height="392.297" fill="none" style="stroke:#181818;stroke-width:0.5;" rx="12.5" ry="12.5"/><line x1="7" y1="112.297" x2="183.235" y2="112.297" style="stroke:#181818;stroke-width:0.5;"/><text x="17" y="103.995" fill="#000" font-size="14" textLength="156.235">ComboDuplicateEvent</text><rect x="53.52" y="180.297" width="50" height="40" fill="#F1F1F1" style="stroke:#181818;stroke-width:0.5;" rx="12.5" ry="12.5"/><text x="73.731" y="205.144" fill="#000" font-size="14">A</text><rect x="53.52" y="366.297" width="50" height="40" fill="#F1F1F1" style="stroke:#181818;stroke-width:0.5;" rx="12.5" ry="12.5"/><text x="73.718" y="391.144" fill="#000" font-size="14">B</text><rect x="19" y="273.297" width="119.033" height="40" fill="#D3D3D3" style="stroke:#808080;stroke-width:1;stroke-dasharray:1,3;" rx="12.5" ry="12.5"/><text x="24" y="298.144" fill="#000" font-size="14" textLength="109.033" font-style="italic">combo after Go</text><g class="start_entity" data-qualified-name="combo_duplicate_event..start.combo_duplicate_event" id="ent0005" data-source-line="14"><ellipse cx="78.52" cy="133.297" rx="10" ry="10" fill="#222" style="stroke:#222;stroke-width:1;"/></g><g class="end_entity" data-qualified-name="combo_duplicate_event..end.combo_duplicate_event" id="ent0009" data-source-line="17"><ellipse cx="78.52" cy="454.297" rx="11" ry="11" fill="none" style="stroke:#222;stroke-width:1;"/><ellipse cx="78.52" cy="454.297" rx="6" ry="6" fill="#222" style="stroke:#222;stroke-width:1;"/></g><!--link *start*combo_duplicate_event to combo_duplicate_event__a--><g class="link" data-entity-1="ent0005" data-entity-2="ent0002" id="lnk6" data-source-line="14" data-link-type="dependency"><path d="M78.52,143.607 C78.52,153.017 78.52,162.837 78.52,174.817" style="stroke:#181818;stroke-width:1;" fill="none" id="*start*combo_duplicate_event-to-combo_duplicate_event__a"/><polygon points="78.52,179.817,82.52,170.817,78.52,174.817,74.52,170.817,78.52,179.817" fill="#181818" style="stroke:#181818;stroke-width:1;stroke-linejoin:miter;stroke-miterlimit:10;"/></g><!--link combo_duplicate_event__a to combo_duplicate_event___combo_comboduplicateevent_a_go_h527ffe7875f3--><g class="link" data-entity-1="ent0002" data-entity-2="ent0004" id="lnk7" data-source-line="15" data-link-type="dependency"><path d="M78.52,220.597 C78.52,236.037 78.52,252.587 78.52,268.027" style="stroke:#181818;stroke-width:1;" fill="none" id="combo_duplicate_event__a-to-combo_duplicate_event___combo_comboduplicateevent_a_go_h527ffe7875f3"/><polygon points="78.52,273.027,82.52,264.027,78.52,268.027,74.52,264.027,78.52,273.027" fill="#181818" style="stroke:#181818;stroke-width:1;stroke-linejoin:miter;stroke-miterlimit:10;"/><text x="79.52" y="251.364" fill="#000" font-size="13" textLength="31.053">A.Go</text></g><!--link combo_duplicate_event___combo_comboduplicateevent_a_go_h527ffe7875f3 to combo_duplicate_event__b--><g class="link" data-entity-1="ent0004" data-entity-2="ent0003" id="lnk8" data-source-line="16" data-link-type="dependency"><path d="M78.52,313.597 C78.52,329.037 78.52,345.587 78.52,361.027" style="stroke:#181818;stroke-width:1;" fill="none" id="combo_duplicate_event___combo_comboduplicateevent_a_go_h527ffe7875f3-to-combo_duplicate_event__b"/><polygon points="78.52,366.027,82.52,357.027,78.52,361.027,74.52,357.027,78.52,366.027" fill="#181818" style="stroke:#181818;stroke-width:1;stroke-linejoin:miter;stroke-miterlimit:10;"/><text x="79.52" y="344.364" fill="#000" font-size="13" textLength="31.053">A.Go</text></g><!--link combo_duplicate_event__b to *end*combo_duplicate_event--><g class="link" data-entity-1="ent0003" data-entity-2="ent0009" id="lnk10" data-source-line="17" data-link-type="dependency"><path d="M78.52,406.747 C78.52,418.607 78.52,428.297 78.52,437.967" style="stroke:#181818;stroke-width:1;" fill="none" id="combo_duplicate_event__b-to-*end*combo_duplicate_event"/><polygon points="78.52,442.967,82.52,433.967,78.52,437.967,74.52,433.967,78.52,442.967" fill="#181818" style="stroke:#181818;stroke-width:1;stroke-linejoin:miter;stroke-miterlimit:10;"/></g></g><g class="start_entity" data-qualified-name=".start." id="ent0011" data-source-line="19"><ellipse cx="95.12" cy="16" rx="10" ry="10" fill="#222" style="stroke:#222;stroke-width:1;"/></g><g class="end_entity" data-qualified-name=".end." id="ent0013" data-source-line="20"><ellipse cx="95.12" cy="549.3" rx="11" ry="11" fill="none" style="stroke:#222;stroke-width:1;"/><ellipse cx="95.12" cy="549.3" rx="6" ry="6" fill="#222" style="stroke:#222;stroke-width:1;"/></g><!--link *start* to combo_duplicate_event--><g class="link" data-entity-1="ent0011" data-entity-2="ent0001" id="lnk12" data-source-line="19" data-link-type="dependency"><path d="M95.12,26.4 C95.12,38.12 95.12,54.8 95.12,80.75" style="stroke:#181818;stroke-width:1;" fill="none" id="*start*-to-combo_duplicate_event"/><polygon points="95.12,85.75,99.12,76.75,95.12,80.75,91.12,76.75,95.12,85.75" fill="#181818" style="stroke:#181818;stroke-width:1;stroke-linejoin:miter;stroke-miterlimit:10;"/></g><!--link combo_duplicate_event to *end*--><g class="link" data-entity-1="ent0001" data-entity-2="ent0013" id="lnk14" data-source-line="20" data-link-type="dependency"><path d="M95.12,478.64 C95.12,504.41 95.12,521.05 95.12,533.08" style="stroke:#181818;stroke-width:1;" fill="none" id="combo_duplicate_event-to-*end*"/><polygon points="95.12,538.08,99.12,529.08,95.12,533.08,91.12,529.08,95.12,538.08" fill="#181818" style="stroke:#181818;stroke-width:1;stroke-linejoin:miter;stroke-miterlimit:10;"/></g><?plantuml-src bL9DIyD04BtdLmpr9hG7fKIa19ggkNZpAB9iifDaQRApR2P24F-xIPfAb7PfBmixxsFU35DgXO2rvGuKDfdJbZMP86ZssbZfP0qDIqRu2W1YcUqBHwrHEwh8RJQsmLPH5C6hBafEdEnEiJAgBJMQyKYCgnO78Zc5xh_LvF92Xj-ugt06QPQLpeBlFjsOQR6ZEgMdrlRL_l_yYOON81l8XhfGHq3WWC3V9CD0C0sts9wN2I7dpDZ7JEVCaGCoPtIGa4yc3lNn_GKFc1G5YN9z5-OvXW_XEh-7sK9kAcrmfOWPrTZw_VO3bil8FyavqAUyBk8ZR5S9-PfTv-S9bbxGB1qD-jtqf-FTK73wS2Rr3m00?></g></svg>