<svg xmlns="http://www.w3.org/2000/svg" xmlns:xlink="http://www.w3.org/1999/xlink" version="1.1" data-diagram-type="STATE" style="width:861px;height:1233px;background:#FFFFFF;" width="861px" height="1233px" viewBox="0 0 861 1233" zoomAndPan="magnify" preserveAspectRatio="none" contentStyleType="text/css"><?plantuml 1.2026.7beta6?><defs/><g font-family="sans-serif" lengthAdjust="spacing"><g class="legend" data-source-line="10"><rect x="12" y="12" width="243.618" height="95.484" fill="#DDD" style="stroke:#000;stroke-width:1;" rx="7.5" ry="7.5"/><text x="21.874" y="31.995" fill="#000" font-size="14" textLength="65.748" font-weight="700">Variable</text><text x="102.675" y="31.995" fill="#000" font-size="14" textLength="38.192" font-weight="700">Type</text><text x="150.615" y="31.995" fill="#000" font-size="14" textLength="95.129" font-weight="700">Initial Value</text><text x="21.45" y="48.292" fill="#000" font-size="14" textLength="40.12">ready</text><text x="102.251" y="48.292" fill="#000" font-size="14" textLength="18.252">int</text><text x="150.191" y="48.292" fill="#000" font-size="14">1</text><text x="21.45" y="64.589" fill="#000" font-size="14" textLength="64.463">accepted</text><text x="102.251" y="64.589" fill="#000" font-size="14" textLength="18.252">int</text><text x="150.191" y="64.589" fill="#000" font-size="14">0</text><text x="21.45" y="80.886" fill="#000" font-size="14" textLength="45.411">retries</text><text x="102.251" y="80.886" fill="#000" font-size="14" textLength="18.252">int</text><text x="150.191" y="80.886" fill="#000" font-size="14">0</text><text x="21.45" y="97.183" fill="#000" font-size="14" textLength="71.9">boot_seen</text><text x="102.251" y="97.183" fill="#000" font-size="14" textLength="18.252">int</text><text x="150.191" y="97.183" fill="#000" font-size="14">0</text><line x1="17" y1="19" x2="250.618" y2="19" style="stroke:#000;stroke-width:1;"/><line x1="17" y1="35.297" x2="250.618" y2="35.297" style="stroke:#000;stroke-width:1;"/><line x1="17" y1="51.594" x2="250.618" y2="51.594" style="stroke:#000;stroke-width:1;"/><line x1="17" y1="67.891" x2="250.618" y2="67.891" style="stroke:#000;stroke-width:1;"/><line x1="17" y1="84.188" x2="250.618" y2="84.188" style="stroke:#000;stroke-width:1;"/><line x1="17" y1="100.484" x2="250.618" y2="100.484" style="stroke:#000;stroke-width:1;"/><line x1="17" y1="19" x2="17" y2="100.484" style="stroke:#000;stroke-width:1;"/><line x1="97.801" y1="19" x2="97.801" y2="100.484" style="stroke:#000;stroke-width:1;"/><line x1="145.741" y1="19" x2="145.741" y2="100.484" style="stroke:#000;stroke-width:1;"/><line x1="250.618" y1="19" x2="250.618" y2="100.484" style="stroke:#000;stroke-width:1;"/></g><g class="entity" data-qualified-name="combo_transitions" id="ent0001" data-source-line="18"><path d="M19.5,206.484 L833.963,206.484 A12.5,12.5 0 0 1 846.463,218.984 L846.463,232.781 L7,232.781 L7,218.984 A12.5,12.5 0 0 1 19.5,206.484" fill="#ADD8E6"/><path d="M7,232.781 L846.463,232.781 L846.463,1124.578 A12.5,12.5 0 0 1 833.963,1137.078 L19.5,1137.078 A12.5,12.5 0 0 1 7,1124.578 L7,232.781" fill="#ADD8E6"/><rect x="7" y="206.484" width="839.463" height="930.594" fill="none" style="stroke:#181818;stroke-width:0.5;" rx="12.5" ry="12.5"/><line x1="7" y1="232.781" x2="846.463" y2="232.781" style="stroke:#181818;stroke-width:0.5;"/><text x="363.489" y="224.479" fill="#000" font-size="14" textLength="126.485">ComboTransitions</text><g class="entity" data-qualified-name="combo_transitions.combo_transitions__session" id="ent0002" data-source-line="19"><path d="M31.5,299.781 L809.963,299.781 A12.5,12.5 0 0 1 822.463,312.281 L822.463,326.078 L19,326.078 L19,312.281 A12.5,12.5 0 0 1 31.5,299.781" fill="#ADD8E6"/><path d="M19,326.078 L822.463,326.078 L822.463,1110.578 A12.5,12.5 0 0 1 809.963,1123.078 L31.5,1123.078 A12.5,12.5 0 0 1 19,1110.578 L19,326.078" fill="#ADD8E6"/><rect x="19" y="299.781" width="803.463" height="823.297" fill="none" style="stroke:#181818;stroke-width:0.5;" rx="12.5" ry="12.5"/><line x1="19" y1="326.078" x2="822.463" y2="326.078" style="stroke:#181818;stroke-width:0.5;"/><text x="394.023" y="317.776" fill="#000" font-size="14" textLength="53.416">Session</text><rect x="362.44" y="661.078" width="63.45" height="40" fill="#F1F1F1" style="stroke:#181818;stroke-width:0.5;" rx="12.5" ry="12.5"/><text x="367.44" y="685.925" fill="#000" font-size="14" textLength="53.45">Waiting</text><rect x="413.3" y="568.078" width="59.725" height="40" fill="#F1F1F1" style="stroke:#181818;stroke-width:0.5;" rx="12.5" ry="12.5"/><text x="418.3" y="592.925" fill="#000" font-size="14" textLength="49.725">Booted</text><rect x="200.43" y="1070.078" width="75.461" height="40" fill="#F1F1F1" style="stroke:#181818;stroke-width:0.5;" rx="12.5" ry="12.5"/><text x="205.43" y="1094.925" fill="#000" font-size="14" textLength="65.461">Accepted</text><rect x="536.4" y="912.078" width="69.521" height="40" fill="#F1F1F1" style="stroke:#181818;stroke-width:0.5;" rx="12.5" ry="12.5"/><text x="541.4" y="936.925" fill="#000" font-size="14" textLength="59.521">Retrying</text><rect x="395.25" y="410.078" width="133.819" height="40" fill="#D3D3D3" style="stroke:#808080;stroke-width:1;stroke-dasharray:1,3;" rx="12.5" ry="12.5"/><text x="400.25" y="434.925" fill="#000" font-size="14" textLength="123.819" font-style="italic">combo after Start</text><rect x="113.61" y="754.078" width="157.116" height="40" fill="#D3D3D3" style="stroke:#808080;stroke-width:1;stroke-dasharray:1,3;" rx="12.5" ry="12.5"/><text x="118.61" y="778.925" fill="#000" font-size="14" textLength="147.116" font-style="italic">combo after Request</text><rect x="31" y="912.078" width="258.329" height="40" fill="#D3D3D3" style="stroke:#808080;stroke-width:1;stroke-dasharray:1,3;" rx="12.5" ry="12.5"/><text x="36" y="936.925" fill="#000" font-size="14" textLength="248.329" font-style="italic">combo after Request + [ready > 0]</text><rect x="383.2" y="754.078" width="191.932" height="40" fill="#D3D3D3" style="stroke:#808080;stroke-width:1;stroke-dasharray:1,3;" rx="12.5" ry="12.5"/><text x="388.2" y="778.925" fill="#000" font-size="14" textLength="181.932" font-style="italic">combo after [ready == 0]</text><g class="start_entity" data-qualified-name="combo_transitions.combo_transitions__session..start.combo_transitions__session" id="ent0011" data-source-line="28"><ellipse cx="383.16" cy="347.078" rx="10" ry="10" fill="#222" style="stroke:#222;stroke-width:1;"/></g><!--link *start*combo_transitions__session to combo_transitions__session__waiting--><g class="link" data-entity-1="ent0011" data-entity-2="ent0003" id="lnk12" data-source-line="28" data-link-type="dependency"><path d="M383.42,357.358 C383.92,375.288 385.07,415.908 386.16,450.078 C388.67,528.148 391.827,616.121 393.277,655.701" style="stroke:#181818;stroke-width:1;" fill="none" id="*start*combo_transitions__session-to-combo_transitions__session__waiting"/><polygon points="393.46,660.698,397.128,651.558,393.277,655.701,389.133,651.851,393.46,660.698" fill="#181818" style="stroke:#181818;stroke-width:1;stroke-linejoin:miter;stroke-miterlimit:10;"/></g><!--link *start*combo_transitions__session to combo_transitions__session___combo_entry_start_haf42b078e471--><g class="link" data-entity-1="ent0011" data-entity-2="ent0007" id="lnk13" data-source-line="29" data-link-type="dependency"><path d="M389.9,354.988 C401.62,366.998 422.649,388.558 439.869,406.218" style="stroke:#181818;stroke-width:1;" fill="none" id="*start*combo_transitions__session-to-combo_transitions__session___combo_entry_start_haf42b078e471"/><polygon points="443.36,409.798,439.941,400.562,439.869,406.218,434.213,406.147,443.36,409.798" fill="#181818" style="stroke:#181818;stroke-width:1;stroke-linejoin:miter;stroke-miterlimit:10;"/><text x="425.16" y="388.145" fill="#000" font-size="13" textLength="31.757">Start</text></g><!--link combo_transitions__session___combo_entry_start_haf42b078e471 to combo_transitions__session__booted--><g class="link" data-entity-1="ent0007" data-entity-2="ent0004" id="lnk14" data-source-line="30" data-link-type="dependency"><path d="M459.8,450.518 C456.14,480.578 449.756,533.015 446.106,562.915" style="stroke:#181818;stroke-width:1;" fill="none" id="combo_transitions__session___combo_entry_start_haf42b078e471-to-combo_transitions__session__booted"/><polygon points="445.5,567.878,450.561,559.429,446.106,562.915,442.62,558.46,445.5,567.878" fill="#181818" style="stroke:#181818;stroke-width:1;stroke-linejoin:miter;stroke-miterlimit:10;"/><text x="497.87" y="481.145" fill="#000" font-size="13" textLength="64.683">ready > 0</text><path d="M462.16,490.211 L462.16,545.211 L598.16,545.211 L598.16,500.211 L588.16,490.211 L462.16,490.211" style="stroke:#181818;stroke-width:0.5;" fill="#FEFFDD"/><path d="M588.16,490.211 L588.16,500.211 L598.16,500.211 L588.16,490.211" style="stroke:#181818;stroke-width:0.5;" fill="#FEFFDD"/><text x="468.16" y="507.278" fill="#000" font-size="13" textLength="49.797">effect {</text><text x="484.689" y="522.411" fill="#000" font-size="13" textLength="98.573">boot_seen = 1;</text><text x="468.16" y="537.543" fill="#000" font-size="13">}</text></g><!--link combo_transitions__session__waiting to combo_transitions__session___combo_combotransitions_session_waiting_request_h256ffe8c4bd6--><g class="link" data-entity-1="ent0003" data-entity-2="ent0008" id="lnk15" data-source-line="36" data-link-type="dependency"><path d="M362.1,682.928 C327.45,685.238 271.89,693.118 232.16,719.078 C219.08,727.628 211.256,737.713 204.366,749.483" style="stroke:#181818;stroke-width:1;" fill="none" id="combo_transitions__session__waiting-to-combo_transitions__session___combo_combotransitions_session_waiting_request_h256ffe8c4bd6"/><polygon points="201.84,753.798,209.839,748.052,204.366,749.483,202.935,744.01,201.84,753.798" fill="#181818" style="stroke:#181818;stroke-width:1;stroke-linejoin:miter;stroke-miterlimit:10;"/><text x="233.16" y="732.145" fill="#000" font-size="13" textLength="107.155">Waiting.Request</text></g><!--link combo_transitions__session___combo_combotransitions_session_waiting_request_h256ffe8c4bd6 to combo_transitions__session___combo_combotransitions_session_waiting_request_if_ready_gt_0_hf9f8a18c684e--><g class="link" data-entity-1="ent0008" data-entity-2="ent0009" id="lnk16" data-source-line="37" data-link-type="dependency"><path d="M188.18,794.518 C182.01,824.578 171.246,877.08 165.106,906.98" style="stroke:#181818;stroke-width:1;" fill="none" id="combo_transitions__session___combo_combotransitions_session_waiting_request_h256ffe8c4bd6-to-combo_transitions__session___combo_combotransitions_session_waiting_request_if_ready_gt_0_hf9f8a18c684e"/><polygon points="164.1,911.878,169.829,903.867,165.106,906.98,161.992,902.257,164.1,911.878" fill="#181818" style="stroke:#181818;stroke-width:1;stroke-linejoin:miter;stroke-miterlimit:10;"/><text x="186.16" y="857.645" fill="#000" font-size="13" textLength="64.683">ready > 0</text></g><!--link combo_transitions__session___combo_combotransitions_session_waiting_request_if_ready_gt_0_hf9f8a18c684e to combo_transitions__session__accepted--><g class="link" data-entity-1="ent0009" data-entity-2="ent0005" id="lnk17" data-source-line="38" data-link-type="dependency"><path d="M135.31,952.368 C130.37,957.538 125.88,963.528 123.16,970.078 C109.22,1003.748 101.7,1022.628 123.16,1052.078 C140.58,1075.978 168.734,1084.195 194.974,1087.275" style="stroke:#181818;stroke-width:1;" fill="none" id="combo_transitions__session___combo_combotransitions_session_waiting_request_if_ready_gt_0_hf9f8a18c684e-to-combo_transitions__session__accepted"/><polygon points="199.94,1087.858,191.468,1082.836,194.974,1087.275,190.535,1090.782,199.94,1087.858" fill="#181818" style="stroke:#181818;stroke-width:1;stroke-linejoin:miter;stroke-miterlimit:10;"/><text x="179.65" y="983.145" fill="#000" font-size="13" textLength="105.231">Waiting.Confirm</text><path d="M128.16,992.211 L128.16,1047.211 L336.16,1047.211 L336.16,1002.211 L326.16,992.211 L128.16,992.211" style="stroke:#181818;stroke-width:0.5;" fill="#FEFFDD"/><path d="M326.16,992.211 L326.16,1002.211 L336.16,1002.211 L326.16,992.211" style="stroke:#181818;stroke-width:0.5;" fill="#FEFFDD"/><text x="134.16" y="1009.278" fill="#000" font-size="13" textLength="49.797">effect {</text><text x="150.689" y="1024.411" fill="#000" font-size="13" textLength="170.682">accepted = accepted + 1;</text><text x="134.16" y="1039.543" fill="#000" font-size="13">}</text></g><!--link combo_transitions__session__waiting to combo_transitions__session___combo_combotransitions_session_waiting_if_ready_eq_0_hbc30068a1317--><g class="link" data-entity-1="ent0003" data-entity-2="ent0010" id="lnk18" data-source-line="44" data-link-type="dependency"><path d="M412.19,701.378 C426.62,716.818 443.338,734.713 457.748,750.153" style="stroke:#181818;stroke-width:1;" fill="none" id="combo_transitions__session__waiting-to-combo_transitions__session___combo_combotransitions_session_waiting_if_ready_eq_0_hbc30068a1317"/><polygon points="461.16,753.808,457.944,744.499,457.748,750.153,452.095,749.958,461.16,753.808" fill="#181818" style="stroke:#181818;stroke-width:1;stroke-linejoin:miter;stroke-miterlimit:10;"/><text x="445.16" y="732.145" fill="#000" font-size="13" textLength="75.575">ready == 0</text></g><!--link combo_transitions__session___combo_combotransitions_session_waiting_if_ready_eq_0_hbc30068a1317 to combo_transitions__session__retrying--><g class="link" data-entity-1="ent0010" data-entity-2="ent0006" id="lnk19" data-source-line="45" data-link-type="dependency"><path d="M471.81,794.328 C463.51,819.608 453.64,864.278 474.16,894.078 C488.07,914.268 509.669,922.508 531.459,926.678" style="stroke:#181818;stroke-width:1;" fill="none" id="combo_transitions__session___combo_combotransitions_session_waiting_if_ready_eq_0_hbc30068a1317-to-combo_transitions__session__retrying"/><polygon points="536.37,927.618,528.282,921.998,531.459,926.678,526.779,929.855,536.37,927.618" fill="#181818" style="stroke:#181818;stroke-width:1;stroke-linejoin:miter;stroke-miterlimit:10;"/><text x="545.615" y="825.145" fill="#000" font-size="13" textLength="39.92">/Abort</text><path d="M479.16,834.211 L479.16,889.211 L651.16,889.211 L651.16,844.211 L641.16,834.211 L479.16,834.211" style="stroke:#181818;stroke-width:0.5;" fill="#FEFFDD"/><path d="M641.16,834.211 L641.16,844.211 L651.16,844.211 L641.16,834.211" style="stroke:#181818;stroke-width:0.5;" fill="#FEFFDD"/><text x="485.16" y="851.278" fill="#000" font-size="13" textLength="49.797">effect {</text><text x="501.689" y="866.411" fill="#000" font-size="13" textLength="135.3">retries = retries + 1;</text><text x="485.16" y="881.543" fill="#000" font-size="13">}</text></g><!--link combo_transitions__session__retrying to combo_transitions__session__waiting--><g class="link" data-entity-1="ent0006" data-entity-2="ent0003" id="lnk20" data-source-line="51" data-link-type="dependency"><path d="M606.06,925.268 C624.28,920.268 645.05,911.038 656.16,894.078 C676.14,863.598 671.9,844.948 656.16,812.078 C613.86,723.678 491.376,695.411 431.216,686.491" style="stroke:#181818;stroke-width:1;" fill="none" id="combo_transitions__session__retrying-to-combo_transitions__session__waiting"/><polygon points="426.27,685.758,434.586,691.035,431.216,686.491,435.759,683.121,426.27,685.758" fill="#181818" style="stroke:#181818;stroke-width:1;stroke-linejoin:miter;stroke-miterlimit:10;"/><text x="646.16" y="778.645" fill="#000" font-size="13" textLength="151.303">ready > 0 || retries > 0</text></g><!--link combo_transitions__session__accepted to combo_transitions__session__waiting--><g class="link" data-entity-1="ent0005" data-entity-2="ent0003" id="lnk21" data-source-line="52" data-link-type="dependency"><path d="M276.31,1085.298 C298.73,1080.988 325.63,1071.768 341.16,1052.078 C343.74,1048.808 373.38,758.168 374.16,754.078 C377.65,735.988 381.952,720.595 386.402,706.215" style="stroke:#181818;stroke-width:1;" fill="none" id="combo_transitions__session__accepted-to-combo_transitions__session__waiting"/><polygon points="387.88,701.438,381.398,708.853,386.402,706.215,389.041,711.218,387.88,701.438" fill="#181818" style="stroke:#181818;stroke-width:1;stroke-linejoin:miter;stroke-miterlimit:10;"/><text x="369.16" y="857.645" fill="#000" font-size="13" textLength="87.287">accepted > 0</text></g><!--link combo_transitions__session__booted to combo_transitions__session__waiting--><g class="link" data-entity-1="ent0004" data-entity-2="ent0003" id="lnk22" data-source-line="53" data-link-type="dependency"><path d="M432.77,608.378 C424.46,623.818 415.22,640.965 406.91,656.405" style="stroke:#181818;stroke-width:1;" fill="none" id="combo_transitions__session__booted-to-combo_transitions__session__waiting"/><polygon points="404.54,660.808,412.328,654.779,406.91,656.405,405.283,650.987,404.54,660.808" fill="#181818" style="stroke:#181818;stroke-width:1;stroke-linejoin:miter;stroke-miterlimit:10;"/><text x="423.16" y="639.145" fill="#000" font-size="13" textLength="94.193">boot_seen > 0</text></g></g><g class="start_entity" data-qualified-name="combo_transitions..start.combo_transitions" id="ent0023" data-source-line="55"><ellipse cx="420.73" cy="253.781" rx="10" ry="10" fill="#222" style="stroke:#222;stroke-width:1;"/></g><!--link *start*combo_transitions to combo_transitions__session--><g class="link" data-entity-1="ent0023" data-entity-2="ent0002" id="lnk24" data-source-line="55" data-link-type="dependency"><path d="M420.73,263.881 C420.73,271.601 420.73,278.901 420.73,294.581" style="stroke:#181818;stroke-width:1;" fill="none" id="*start*combo_transitions-to-combo_transitions__session"/><polygon points="420.73,299.581,424.73,290.581,420.73,294.581,416.73,290.581,420.73,299.581" fill="#181818" style="stroke:#181818;stroke-width:1;stroke-linejoin:miter;stroke-miterlimit:10;"/></g></g><g class="start_entity" data-qualified-name=".start." id="ent0025" data-source-line="57"><ellipse cx="426.73" cy="136.484" rx="10" ry="10" fill="#222" style="stroke:#222;stroke-width:1;"/></g><g class="end_entity" data-qualified-name=".end." id="ent0027" data-source-line="58"><ellipse cx="426.73" cy="1208.074" rx="11" ry="11" fill="none" style="stroke:#222;stroke-width:1;"/><ellipse cx="426.73" cy="1208.074" rx="6" ry="6" fill="#222" style="stroke:#222;stroke-width:1;"/></g><!--link *start* to combo_transitions--><g class="link" data-entity-1="ent0025" data-entity-2="ent0001" id="lnk26" data-source-line="57" data-link-type="dependency"><path d="M426.73,146.734 C426.73,157.974 426.73,173.844 426.73,201.004" style="stroke:#181818;stroke-width:1;" fill="none" id="*start*-to-combo_transitions"/><polygon points="426.73,206.004,430.73,197.004,426.73,201.004,422.73,197.004,426.73,206.004" fill="#181818" style="stroke:#181818;stroke-width:1;stroke-linejoin:miter;stroke-miterlimit:10;"/></g><!--link combo_transitions to *end*--><g class="link" data-entity-1="ent0001" data-entity-2="ent0027" id="lnk28" data-source-line="58" data-link-type="dependency"><path d="M426.73,1137.494 C426.73,1164.244 426.73,1180.004 426.73,1191.644" style="stroke:#181818;stroke-width:1;" fill="none" id="combo_transitions-to-*end*"/><polygon points="426.73,1196.644,430.73,1187.644,426.73,1191.644,422.73,1187.644,426.73,1196.644" fill="#181818" style="stroke:#181818;stroke-width:1;stroke-linejoin:miter;stroke-miterlimit:10;"/></g><?plantuml-src pLPBRzf04BxxLupIMwEaa512qu0Ka5fLwYc9saCKhTRs65QONMTtKOLA_dl6hxL3ANO8gih1MBCpttppzCv4Y82BnAuWH1DeaLYXfEUPkP09rtm1ndAByDi36FDWFjLgASE9YfM-kaeCBaCr6i5tCPtPhvgljca5Qf4e8ooMYkDuYQcYqY7gJQW2vOkIzjQkOgmT2SjZ4NXFdXVZ56K8LYKGOsIzzH1-S2su7oFG-zqgoVw_IM45Z-cCFCBQMuD67gvW3K9QUdOp6Gy2J2o6JjmfLAqMQ3QalbAM6KJvGavaSagKk2nTHnEryDMTvf82fuIQ8-06WbJ8R2M5bzb9amn5mezkqHZIsMx8Y4Dsl1MXXlAJau6SDg0mzYlNspGVKxWODbhxcTgcyNMHs4RpiWAR03TKWbKRzhfGt0J8R8175ZNSMgvj8nBB3r4I83Ef2Plng7VcTou6sBleGgqVtyL2uccex1RgTSyt-BX4qzftzgnhb0f5ZIZQ38_DpZxsemW7GSyF-syW1iTmdm_623eF1wSf8fQXiwbb7JQBFaK3tXq4_K4Fzo5TK1qE3ydLSSJ7bACVd7SwVQ9vthrev7Z__W5EJaQl6gysDesjU9dtj0Dz4rWJctp4oQVh5ETNqWdGAgBap9qGgJC3Mrj8wQ_QdaFeVdP7JvKLRVKKhbLCHLBR9dBFkRg4OeUU5kFocdplwVFG4UqQmMqL_LU-c-9qd-Qg21Cb8w4NUpIV0njMhyV_OHlksaLbiTBjTz1gxNBQ55ZvzILs7wvzLTj8xOjJthQ6xkqGfN7CMkxd-Z30khe3jfqDrrVj_JcJjZwAHTpUGxLqInTvDfk_GNJL_gkIz-TbDjKZ_MS0?></g></svg>