<?plantuml 1.2026.2beta3?><svg xmlns="http://www.w3.org/2000/svg" xmlns:xlink="http://www.w3.org/1999/xlink" contentStyleType="text/css" data-diagram-type="STATE" height="1311px" preserveAspectRatio="none" style="width:759px;height:1311px;background:#FFFFFF;" version="1.1" viewBox="0 0 759 1311" width="759px" zoomAndPan="magnify"><title>Composite State Lifecycle</title><defs/><g><g class="title" data-source-line="1"><text fill="#000000" font-family="sans-serif" font-size="14" font-weight="bold" lengthAdjust="spacing" textLength="204.9209" x="270.4178" y="22.9951">Composite State Lifecycle</text></g><g class="entity" data-qualified-name="EnterState" id="ent0002"><rect fill="#F1F1F1" height="50" rx="12.5" ry="12.5" style="stroke:#181818;stroke-width:0.5;" width="50" x="376.2483" y="140.2969"/><line style="stroke:#181818;stroke-width:0.5;" x1="376.2483" x2="426.2483" y1="160.2969" y2="160.2969"/><text fill="#000000" font-family="sans-serif" font-size="14" lengthAdjust="spacing" textLength="0" x="401.2483" y="145.2969">EnterState</text><text fill="#000000" font-family="sans-serif" font-size="12" lengthAdjust="spacing" textLength="0" x="381.2483" y="165.2969">Entry point for composite state</text></g><g class="entity" data-qualified-name="ExecuteEnterOperation" id="ent0003"><rect fill="#F1F1F1" height="50" rx="12.5" ry="12.5" style="stroke:#181818;stroke-width:0.5;" width="50" x="376.2483" y="267.2969"/><line style="stroke:#181818;stroke-width:0.5;" x1="376.2483" x2="426.2483" y1="287.2969" y2="287.2969"/><text fill="#000000" font-family="sans-serif" font-size="14" lengthAdjust="spacing" textLength="0" x="401.2483" y="272.2969">ExecuteEnterOperation</text><text fill="#000000" font-family="sans-serif" font-size="12" lengthAdjust="spacing" textLength="0" x="381.2483" y="292.2969">Execute current state's enter operation</text></g><g class="entity" data-qualified-name="ExecuteDuringBefore" id="ent0004"><rect fill="#F1F1F1" height="50" rx="12.5" ry="12.5" style="stroke:#181818;stroke-width:0.5;" width="50" x="376.2483" y="394.2969"/><line style="stroke:#181818;stroke-width:0.5;" x1="376.2483" x2="426.2483" y1="414.2969" y2="414.2969"/><text fill="#000000" font-family="sans-serif" font-size="14" lengthAdjust="spacing" textLength="0" x="401.2483" y="399.2969">ExecuteDuringBefore</text><text fill="#000000" font-family="sans-serif" font-size="12" lengthAdjust="spacing" textLength="0" x="381.2483" y="419.2969">Execute current state's during before operation</text></g><g class="entity" data-qualified-name="TryEnterSubstate" id="ent0005"><rect fill="#F1F1F1" height="50" rx="12.5" ry="12.5" style="stroke:#181818;stroke-width:0.5;" width="50" x="233.2483" y="521.2969"/><line style="stroke:#181818;stroke-width:0.5;" x1="233.2483" x2="283.2483" y1="541.2969" y2="541.2969"/><text fill="#000000" font-family="sans-serif" font-size="14" lengthAdjust="spacing" textLength="0" x="258.2483" y="526.2969">TryEnterSubstate</text><text fill="#000000" font-family="sans-serif" font-size="12" lengthAdjust="spacing" textLength="0" x="238.2483" y="546.2969">Try to enter substate</text></g><g class="entity" data-qualified-name="EnterSubstate" id="ent0006"><rect fill="#F1F1F1" height="50" rx="12.5" ry="12.5" style="stroke:#181818;stroke-width:0.5;" width="50" x="10.2483" y="648.2969"/><line style="stroke:#181818;stroke-width:0.5;" x1="10.2483" x2="60.2483" y1="668.2969" y2="668.2969"/><text fill="#000000" font-family="sans-serif" font-size="14" lengthAdjust="spacing" textLength="0" x="35.2483" y="653.2969">EnterSubstate</text><text fill="#000000" font-family="sans-serif" font-size="12" lengthAdjust="spacing" textLength="0" x="15.2483" y="673.2969">Enter substate and return to current state</text></g><g class="entity" data-qualified-name="ExecuteDuringAfter" id="ent0007"><rect fill="#F1F1F1" height="50" rx="12.5" ry="12.5" style="stroke:#181818;stroke-width:0.5;" width="50" x="244.2483" y="775.2969"/><line style="stroke:#181818;stroke-width:0.5;" x1="244.2483" x2="294.2483" y1="795.2969" y2="795.2969"/><text fill="#000000" font-family="sans-serif" font-size="14" lengthAdjust="spacing" textLength="0" x="269.2483" y="780.2969">ExecuteDuringAfter</text><text fill="#000000" font-family="sans-serif" font-size="12" lengthAdjust="spacing" textLength="0" x="249.2483" y="800.2969">Execute current state's during after operation</text></g><g class="entity" data-qualified-name="CheckTransitions" id="ent0008"><rect fill="#F1F1F1" height="50" rx="12.5" ry="12.5" style="stroke:#181818;stroke-width:0.5;" width="50" x="381.2483" y="902.2969"/><line style="stroke:#181818;stroke-width:0.5;" x1="381.2483" x2="431.2483" y1="922.2969" y2="922.2969"/><text fill="#000000" font-family="sans-serif" font-size="14" lengthAdjust="spacing" textLength="0" x="406.2483" y="907.2969">CheckTransitions</text><text fill="#000000" font-family="sans-serif" font-size="12" lengthAdjust="spacing" textLength="0" x="386.2483" y="927.2969">Check transition events and guards</text></g><g class="entity" data-qualified-name="ExecuteExitOperation" id="ent0009"><rect fill="#F1F1F1" height="50" rx="12.5" ry="12.5" style="stroke:#181818;stroke-width:0.5;" width="50" x="381.2483" y="1029.2969"/><line style="stroke:#181818;stroke-width:0.5;" x1="381.2483" x2="431.2483" y1="1049.2969" y2="1049.2969"/><text fill="#000000" font-family="sans-serif" font-size="14" lengthAdjust="spacing" textLength="0" x="406.2483" y="1034.2969">ExecuteExitOperation</text><text fill="#000000" font-family="sans-serif" font-size="12" lengthAdjust="spacing" textLength="0" x="386.2483" y="1054.2969">Execute current state's exit operation</text></g><g class="entity" data-qualified-name="ExecuteTransition" id="ent0010"><rect fill="#F1F1F1" height="50" rx="12.5" ry="12.5" style="stroke:#181818;stroke-width:0.5;" width="50" x="381.2483" y="1156.2969"/><line style="stroke:#181818;stroke-width:0.5;" x1="381.2483" x2="431.2483" y1="1176.2969" y2="1176.2969"/><text fill="#000000" font-family="sans-serif" font-size="14" lengthAdjust="spacing" textLength="0" x="406.2483" y="1161.2969">ExecuteTransition</text><text fill="#000000" font-family="sans-serif" font-size="12" lengthAdjust="spacing" textLength="0" x="386.2483" y="1181.2969">Execute transition effects and move to next state</text></g><g class="start_entity" data-qualified-name=".start." data-source-line="3" id="ent0002"><ellipse cx="401.2483" cy="53.2969" fill="#222222" rx="10" ry="10" style="stroke:#222222;stroke-width:1;"/></g><g class="end_entity" data-qualified-name=".end." data-source-line="59" id="ent0014"><ellipse cx="406.2483" cy="1294.2969" fill="none" rx="11" ry="11" style="stroke:#222222;stroke-width:1;"/><ellipse cx="406.2483" cy="1294.2969" fill="#222222" rx="6" ry="6" style="stroke:#222222;stroke-width:1;"/></g><!--link *start* to EnterState--><g class="link" data-entity-1="ent0002" data-entity-2="ent0002" data-link-type="dependency" data-source-line="3" id="lnk3"><path d="M401.2483,63.6769 C401.2483,80.4069 401.2483,109.8869 401.2483,133.9269" fill="none" id="*start*-to-EnterState" style="stroke:#181818;stroke-width:1;"/><polygon fill="#181818" points="401.2483,139.9269,405.2483,130.9269,401.2483,134.9269,397.2483,130.9269,401.2483,139.9269" style="stroke:#181818;stroke-width:1;"/><text fill="#000000" font-family="sans-serif" font-size="13" lengthAdjust="spacing" textLength="143.5396" x="402.2483" y="106.3638">Enter composite state</text></g><!--link EnterState to ExecuteEnterOperation--><g class="link" data-entity-1="ent0002" data-entity-2="ent0003" data-link-type="dependency" data-source-line="9" id="lnk4"><path d="M401.2483,190.6969 C401.2483,212.7169 401.2483,238.9569 401.2483,260.9569" fill="none" id="EnterState-to-ExecuteEnterOperation" style="stroke:#181818;stroke-width:1;"/><polygon fill="#181818" points="401.2483,266.9569,405.2483,257.9569,401.2483,261.9569,397.2483,257.9569,401.2483,266.9569" style="stroke:#181818;stroke-width:1;"/><text fill="#000000" font-family="sans-serif" font-size="13" lengthAdjust="spacing" textLength="147.9385" x="402.2483" y="233.3638">Step 1: Enter the state</text></g><!--link ExecuteEnterOperation to ExecuteDuringBefore--><g class="link" data-entity-1="ent0003" data-entity-2="ent0004" data-link-type="dependency" data-source-line="15" id="lnk5"><path d="M401.2483,317.6969 C401.2483,339.7169 401.2483,365.9569 401.2483,387.9569" fill="none" id="ExecuteEnterOperation-to-ExecuteDuringBefore" style="stroke:#181818;stroke-width:1;"/><polygon fill="#181818" points="401.2483,393.9569,405.2483,384.9569,401.2483,388.9569,397.2483,384.9569,401.2483,393.9569" style="stroke:#181818;stroke-width:1;"/><text fill="#000000" font-family="sans-serif" font-size="13" lengthAdjust="spacing" textLength="208.2603" x="402.2483" y="360.3638">Step 2: Execute enter operation</text></g><!--link ExecuteDuringBefore to TryEnterSubstate--><g class="link" data-entity-1="ent0004" data-entity-2="ent0005" data-link-type="dependency" data-source-line="21" id="lnk6"><path d="M375.9283,421.3369 C341.9183,424.2569 282.5883,435.0369 255.2483,474.2969 C245.9383,487.6569 245.741,500.2566 248.981,515.0066" fill="none" id="ExecuteDuringBefore-to-TryEnterSubstate" style="stroke:#181818;stroke-width:1;"/><polygon fill="#181818" points="250.2683,520.8669,252.2442,511.2183,249.1956,515.9833,244.4305,512.9346,250.2683,520.8669" style="stroke:#181818;stroke-width:1;"/><text fill="#000000" font-family="sans-serif" font-size="13" lengthAdjust="spacing" textLength="261.7773" x="256.2483" y="487.3638">Step 3: Execute during before operation</text></g><!--link TryEnterSubstate to EnterSubstate--><g class="link" data-entity-1="ent0005" data-entity-2="ent0006" data-link-type="dependency" data-source-line="27" id="lnk7"><path d="M232.8683,549.2669 C177.7883,554.1369 50.1383,568.7469 24.2483,601.2969 C13.9183,614.2769 15.1713,627.3228 20.8013,642.2528" fill="none" id="TryEnterSubstate-to-EnterSubstate" style="stroke:#181818;stroke-width:1;"/><polygon fill="#181818" points="22.9183,647.8669,23.4855,638.0344,21.1541,643.1885,16,640.8571,22.9183,647.8669" style="stroke:#181818;stroke-width:1;"/><text fill="#000000" font-family="sans-serif" font-size="13" lengthAdjust="spacing" textLength="218.772" x="25.2483" y="614.3638">Step 4a: Success - enter substate</text></g><!--link TryEnterSubstate to ExecuteDuringAfter--><g class="link" data-entity-1="ent0005" data-entity-2="ent0007" data-link-type="dependency" data-source-line="28" id="lnk8"><path d="M259.2983,571.4569 C261.3983,619.5069 265.8064,720.5526 267.9164,768.8426" fill="none" id="TryEnterSubstate-to-ExecuteDuringAfter" style="stroke:#181818;stroke-width:1;"/><polygon fill="#181818" points="268.1783,774.8369,271.7816,765.6708,267.96,769.8416,263.7892,766.0201,268.1783,774.8369" style="stroke:#181818;stroke-width:1;"/><text fill="#000000" font-family="sans-serif" font-size="13" lengthAdjust="spacing" textLength="202.4648" x="266.2483" y="677.8638">Step 4b: Failure - skip substate</text></g><!--link EnterSubstate to ExecuteDuringAfter--><g class="link" data-entity-1="ent0006" data-entity-2="ent0007" data-link-type="dependency" data-source-line="34" id="lnk9"><path d="M35.3583,698.7669 C36.7483,714.0969 41.0883,733.1769 53.2483,745.2969 C80.1483,772.1069 187.0689,788.7989 238.0789,795.4689" fill="none" id="EnterSubstate-to-ExecuteDuringAfter" style="stroke:#181818;stroke-width:1;"/><polygon fill="#181818" points="244.0283,796.2469,235.6229,791.1137,239.0705,795.5986,234.5856,799.0462,244.0283,796.2469" style="stroke:#181818;stroke-width:1;"/><text fill="#000000" font-family="sans-serif" font-size="13" lengthAdjust="spacing" textLength="189.4648" x="54.2483" y="741.3638">Step 5: Return from substate</text></g><!--link ExecuteDuringAfter to CheckTransitions--><g class="link" data-entity-1="ent0007" data-entity-2="ent0008" data-link-type="dependency" data-source-line="40" id="lnk10"><path d="M261.3383,825.6769 C258.1183,840.4069 257.0383,858.8669 266.2483,872.2969 C292.0383,909.8869 342.0215,920.6862 374.8515,924.1562" fill="none" id="ExecuteDuringAfter-to-CheckTransitions" style="stroke:#181818;stroke-width:1;"/><polygon fill="#181818" points="380.8183,924.7869,372.2886,919.863,375.846,924.2613,371.4477,927.8187,380.8183,924.7869" style="stroke:#181818;stroke-width:1;"/><text fill="#000000" font-family="sans-serif" font-size="13" lengthAdjust="spacing" textLength="250.6372" x="267.2483" y="868.3638">Step 6: Execute during after operation</text></g><!--link CheckTransitions to ExecuteDuringBefore--><g class="link" data-entity-1="ent0008" data-entity-2="ent0004" data-link-type="dependency" data-source-line="46" id="lnk11"><path d="M431.6183,920.8969 C457.9183,914.0069 498.4283,899.5669 522.2483,872.2969 C543.9783,847.4169 544.2483,834.3369 544.2483,801.2969 C544.2483,545.2969 544.2483,545.2969 544.2483,545.2969 C544.2483,512.2569 544.1783,499.0069 522.2483,474.2969 C497.0583,445.9069 459.905,433.0673 432.535,426.5473" fill="none" id="CheckTransitions-to-ExecuteDuringBefore" style="stroke:#181818;stroke-width:1;"/><polygon fill="#181818" points="426.6983,425.1569,434.5264,431.1336,431.5622,426.3155,436.3802,423.3514,426.6983,425.1569" style="stroke:#181818;stroke-width:1;"/><text fill="#000000" font-family="sans-serif" font-size="13" lengthAdjust="spacing" textLength="206.5083" x="545.2483" y="670.3638">Step 7a: No transition triggered</text><text fill="#000000" font-family="sans-serif" font-size="13" lengthAdjust="spacing" textLength="102.8765" x="597.0642" y="685.4966">(back to step 3)</text></g><!--link CheckTransitions to ExecuteExitOperation--><g class="link" data-entity-1="ent0008" data-entity-2="ent0009" data-link-type="dependency" data-source-line="47" id="lnk12"><path d="M406.2483,952.6969 C406.2483,974.7169 406.2483,1000.9569 406.2483,1022.9569" fill="none" id="CheckTransitions-to-ExecuteExitOperation" style="stroke:#181818;stroke-width:1;"/><polygon fill="#181818" points="406.2483,1028.9569,410.2483,1019.9569,406.2483,1023.9569,402.2483,1019.9569,406.2483,1028.9569" style="stroke:#181818;stroke-width:1;"/><text fill="#000000" font-family="sans-serif" font-size="13" lengthAdjust="spacing" textLength="187.8271" x="407.2483" y="995.3638">Step 7b: Transition triggered</text></g><!--link ExecuteExitOperation to ExecuteTransition--><g class="link" data-entity-1="ent0009" data-entity-2="ent0010" data-link-type="dependency" data-source-line="53" id="lnk13"><path d="M406.2483,1079.6969 C406.2483,1101.7169 406.2483,1127.9569 406.2483,1149.9569" fill="none" id="ExecuteExitOperation-to-ExecuteTransition" style="stroke:#181818;stroke-width:1;"/><polygon fill="#181818" points="406.2483,1155.9569,410.2483,1146.9569,406.2483,1150.9569,402.2483,1146.9569,406.2483,1155.9569" style="stroke:#181818;stroke-width:1;"/><text fill="#000000" font-family="sans-serif" font-size="13" lengthAdjust="spacing" textLength="197.9834" x="407.2483" y="1122.3638">Step 8: Execute exit operation</text></g><!--link ExecuteTransition to *end*--><g class="link" data-entity-1="ent0010" data-entity-2="ent0014" data-link-type="dependency" data-source-line="59" id="lnk15"><path d="M406.2483,1206.6569 C406.2483,1230.5269 406.2483,1259.7569 406.2483,1277.0069" fill="none" id="ExecuteTransition-to-*end*" style="stroke:#181818;stroke-width:1;"/><polygon fill="#181818" points="406.2483,1283.0069,410.2483,1274.0069,406.2483,1278.0069,402.2483,1274.0069,406.2483,1283.0069" style="stroke:#181818;stroke-width:1;"/><text fill="#000000" font-family="sans-serif" font-size="13" lengthAdjust="spacing" textLength="202.6997" x="407.2483" y="1249.3638">Step 9: Transition to next state</text></g><?plantuml-src ZPKzRzim441t_OhRqXRmaAPj4Wy1MiUTYXPeiYKPAFda4BP9WQGC6qN_UqYAYewa56Vnn_dkyV5ueWqtMuI5t3LISuDmPvXz_SLhh8xL5elYuTCJp6Oti1G6LVVhlFi2rMkLTl6Yy6yqyry1MQ4wGYEvC53B7F6_A4Y-N_U0LMlGH_yqg9ZXKbZIdS46pdiLyvnAZ9PvdmbWY4FLAeLMptFEDA1VGFQPNd4KGMnlMyN5-WVQBMBl-dbO8aN6pb4nCKwWKxuhdmPbbpVc7O6SzRqwTbrlInqEoYjV3AjCKODwHd3U8rWR0YD30tI8ExKiTvYvHEeBin_QgaAjOPQInZ5qszzhLz2poZdyP7pRkaQ0tl1cG4NJJBULMYqZ1M1Y1GfDguJRQNGwmtY_J-_h7Fvsf5h9NQwM5sRZqlDEJ0khfuQSOfpjuXchpRrYmZwrDbFthj-oMKcPmJe3EESHgW-1UOq1xgsuzlrTjqojjBFC2ayyXPTsUdvBYZMAhzUeSFKeFfJCBIbjTzpqVtoJlZnmarr8bwMRyPoTNajHBRsL4kZafMJpnk-a241qYLLmlI8NKeoBPKabCOruFOUULct_Gi9nxUGUNLi57kYJa86Shlk_2OBNSIzf_Gi0?></g></svg>