<svg xmlns="http://www.w3.org/2000/svg" xmlns:xlink="http://www.w3.org/1999/xlink" contentStyleType="text/css" data-diagram-type="STATE" height="1342px" preserveAspectRatio="none" style="width:749px;height:1342px;background:#FFFFFF;" version="1.1" viewBox="0 0 749 1342" width="749px" zoomAndPan="magnify"><?plantuml 1.2026.7beta1?><defs/><g><g class="title" data-source-line="1"><text fill="#000000" font-family="sans-serif" font-size="14" font-weight="700" lengthAdjust="spacing" textLength="204.9209" x="268.6487" y="22.9951">Composite State Lifecycle</text></g><g class="entity" data-qualified-name="EnterState" data-source-line="5" id="ent0001"><rect fill="#F1F1F1" height="52.5938" rx="12.5" ry="12.5" style="stroke:#181818;stroke-width:0.5;" width="238.1074" x="210.99" y="140.2969"/><line style="stroke:#181818;stroke-width:0.5;" x1="210.99" x2="449.0974" y1="166.5938" y2="166.5938"/><text fill="#000000" font-family="sans-serif" font-size="14" lengthAdjust="spacing" textLength="74.6348" x="292.7263" y="158.292">EnterState</text><text fill="#000000" font-family="sans-serif" font-size="14" lengthAdjust="spacing" textLength="218.1074" x="215.99" y="184.5889">Entry point for composite state</text></g><g class="entity" data-qualified-name="ExecuteEnterOperation" data-source-line="11" id="ent0002"><rect fill="#F1F1F1" height="52.5938" rx="12.5" ry="12.5" style="stroke:#181818;stroke-width:0.5;" width="296.4453" x="181.82" y="269.8869"/><line style="stroke:#181818;stroke-width:0.5;" x1="181.82" x2="478.2653" y1="296.1837" y2="296.1837"/><text fill="#000000" font-family="sans-serif" font-size="14" lengthAdjust="spacing" textLength="163.666" x="248.2096" y="287.882">ExecuteEnterOperation</text><text fill="#000000" font-family="sans-serif" font-size="14" lengthAdjust="spacing" textLength="276.4453" x="186.82" y="314.1789">Execute current state's enter operation</text></g><g class="entity" data-qualified-name="TryEnterSubstate" data-source-line="17" id="ent0003"><rect fill="#F1F1F1" height="52.5938" rx="12.5" ry="12.5" style="stroke:#181818;stroke-width:0.5;" width="177.2881" x="241.4" y="399.4769"/><line style="stroke:#181818;stroke-width:0.5;" x1="241.4" x2="418.6881" y1="425.7737" y2="425.7737"/><text fill="#000000" font-family="sans-serif" font-size="14" lengthAdjust="spacing" textLength="122.2813" x="268.9034" y="417.472">TryEnterSubstate</text><text fill="#000000" font-family="sans-serif" font-size="14" lengthAdjust="spacing" textLength="157.2881" x="246.4" y="443.7689">Select initial transition</text></g><g class="entity" data-qualified-name="ExecuteDuringBefore" data-source-line="24" id="ent0004"><rect fill="#F1F1F1" height="52.5938" rx="12.5" ry="12.5" style="stroke:#181818;stroke-width:0.5;" width="354.0791" x="7" y="529.0769"/><line style="stroke:#181818;stroke-width:0.5;" x1="7" x2="361.0791" y1="555.3738" y2="555.3738"/><text fill="#000000" font-family="sans-serif" font-size="14" lengthAdjust="spacing" textLength="149.5566" x="109.2612" y="547.072">ExecuteDuringBefore</text><text fill="#000000" font-family="sans-serif" font-size="14" lengthAdjust="spacing" textLength="334.0791" x="12" y="573.3689">Execute current state's during before operation</text></g><g class="entity" data-qualified-name="EnterSubstate" data-source-line="30" id="ent0005"><rect fill="#F1F1F1" height="52.5938" rx="12.5" ry="12.5" style="stroke:#181818;stroke-width:0.5;" width="315.0732" x="37.5" y="658.6669"/><line style="stroke:#181818;stroke-width:0.5;" x1="37.5" x2="352.5732" y1="684.9637" y2="684.9637"/><text fill="#000000" font-family="sans-serif" font-size="14" lengthAdjust="spacing" textLength="99.6885" x="145.1924" y="676.662">EnterSubstate</text><text fill="#000000" font-family="sans-serif" font-size="14" lengthAdjust="spacing" textLength="295.0732" x="42.5" y="702.9589">Enter substate and return to current state</text></g><g class="entity" data-qualified-name="ExecuteDuringAfter" data-source-line="36" id="ent0006"><rect fill="#F1F1F1" height="52.5938" rx="12.5" ry="12.5" style="stroke:#181818;stroke-width:0.5;" width="342.082" x="175" y="788.2569"/><line style="stroke:#181818;stroke-width:0.5;" x1="175" x2="517.082" y1="814.5537" y2="814.5537"/><text fill="#000000" font-family="sans-serif" font-size="14" lengthAdjust="spacing" textLength="137.8398" x="277.1211" y="806.252">ExecuteDuringAfter</text><text fill="#000000" font-family="sans-serif" font-size="14" lengthAdjust="spacing" textLength="322.082" x="180" y="832.5489">Execute current state's during after operation</text></g><g class="entity" data-qualified-name="CheckTransitions" data-source-line="42" id="ent0007"><rect fill="#F1F1F1" height="52.5938" rx="12.5" ry="12.5" style="stroke:#181818;stroke-width:0.5;" width="269.3477" x="211.37" y="917.8569"/><line style="stroke:#181818;stroke-width:0.5;" x1="211.37" x2="480.7177" y1="944.1538" y2="944.1538"/><text fill="#000000" font-family="sans-serif" font-size="14" lengthAdjust="spacing" textLength="120.1211" x="285.9833" y="935.852">CheckTransitions</text><text fill="#000000" font-family="sans-serif" font-size="14" lengthAdjust="spacing" textLength="249.3477" x="216.37" y="962.1489">Check transition events and guards</text></g><g class="entity" data-qualified-name="ExecuteExitOperation" data-source-line="49" id="ent0008"><rect fill="#F1F1F1" height="52.5938" rx="12.5" ry="12.5" style="stroke:#181818;stroke-width:0.5;" width="285.3779" x="203.35" y="1047.4469"/><line style="stroke:#181818;stroke-width:0.5;" x1="203.35" x2="488.7279" y1="1073.7437" y2="1073.7437"/><text fill="#000000" font-family="sans-serif" font-size="14" lengthAdjust="spacing" textLength="152.5986" x="269.7396" y="1065.442">ExecuteExitOperation</text><text fill="#000000" font-family="sans-serif" font-size="14" lengthAdjust="spacing" textLength="265.3779" x="208.35" y="1091.7389">Execute current state's exit operation</text></g><g class="entity" data-qualified-name="ExecuteTransition" data-source-line="55" id="ent0009"><rect fill="#F1F1F1" height="52.5938" rx="12.5" ry="12.5" style="stroke:#181818;stroke-width:0.5;" width="368.0518" x="162.01" y="1177.0469"/><line style="stroke:#181818;stroke-width:0.5;" x1="162.01" x2="530.0618" y1="1203.3438" y2="1203.3438"/><text fill="#000000" font-family="sans-serif" font-size="14" lengthAdjust="spacing" textLength="126.1777" x="282.947" y="1195.042">ExecuteTransition</text><text fill="#000000" font-family="sans-serif" font-size="14" lengthAdjust="spacing" textLength="348.0518" x="167.01" y="1221.3389">Execute transition effects and move to next state</text></g><g class="start_entity" data-qualified-name=".start." data-source-line="3" id="ent0010"><ellipse cx="330.04" cy="53.2969" fill="#222222" rx="10" ry="10" style="stroke:#222222;stroke-width:1;"/></g><g class="end_entity" data-qualified-name=".end." data-source-line="59" id="ent0022"><ellipse cx="346.04" cy="1317.6369" fill="none" rx="11" ry="11" style="stroke:#222222;stroke-width:1;"/><ellipse cx="346.04" cy="1317.6369" fill="#222222" rx="6" ry="6" style="stroke:#222222;stroke-width:1;"/></g><!--link *start* to EnterState--><g class="link" data-entity-1="ent0010" data-entity-2="ent0001" data-link-type="dependency" data-source-line="3" id="lnk11"><path d="M330.04,63.7869 C330.04,80.4969 330.04,110.7269 330.04,135.0169" fill="none" id="*start*-to-EnterState" style="stroke:#181818;stroke-width:1;"/><polygon fill="#181818" points="330.04,140.0169,334.04,131.0169,330.04,135.0169,326.04,131.0169,330.04,140.0169" style="stroke:#181818;stroke-width:1;stroke-linejoin:miter;stroke-miterlimit:10;"/><text fill="#000000" font-family="sans-serif" font-size="13" lengthAdjust="spacing" textLength="143.5396" x="331.04" y="106.3638">Enter composite state</text></g><!--link EnterState to ExecuteEnterOperation--><g class="link" data-entity-1="ent0001" data-entity-2="ent0002" data-link-type="dependency" data-source-line="9" id="lnk12"><path d="M330.04,193.1069 C330.04,215.3569 330.04,242.4769 330.04,264.7169" fill="none" id="EnterState-to-ExecuteEnterOperation" style="stroke:#181818;stroke-width:1;"/><polygon fill="#181818" points="330.04,269.7169,334.04,260.7169,330.04,264.7169,326.04,260.7169,330.04,269.7169" style="stroke:#181818;stroke-width:1;stroke-linejoin:miter;stroke-miterlimit:10;"/><text fill="#000000" font-family="sans-serif" font-size="13" lengthAdjust="spacing" textLength="147.9385" x="331.04" y="235.9538">Step 1: Enter the state</text></g><!--link ExecuteEnterOperation to TryEnterSubstate--><g class="link" data-entity-1="ent0002" data-entity-2="ent0003" data-link-type="dependency" data-source-line="15" id="lnk13"><path d="M330.04,322.6969 C330.04,344.9469 330.04,372.0669 330.04,394.3069" fill="none" id="ExecuteEnterOperation-to-TryEnterSubstate" style="stroke:#181818;stroke-width:1;"/><polygon fill="#181818" points="330.04,399.3069,334.04,390.3069,330.04,394.3069,326.04,390.3069,330.04,399.3069" style="stroke:#181818;stroke-width:1;stroke-linejoin:miter;stroke-miterlimit:10;"/><text fill="#000000" font-family="sans-serif" font-size="13" lengthAdjust="spacing" textLength="208.2603" x="331.04" y="365.5438">Step 2: Execute enter operation</text></g><!--link TryEnterSubstate to ExecuteDuringBefore--><g class="link" data-entity-1="ent0003" data-entity-2="ent0004" data-link-type="dependency" data-source-line="21" id="lnk14"><path d="M241.22,447.3569 C223.19,455.4069 206.09,466.5869 194.04,482.0769 C183.85,495.1769 181.4368,508.797 181.5368,523.867" fill="none" id="TryEnterSubstate-to-ExecuteDuringBefore" style="stroke:#181818;stroke-width:1;"/><polygon fill="#181818" points="181.57,528.8669,185.5102,519.8405,181.5368,523.867,177.5104,519.8936,181.57,528.8669" style="stroke:#181818;stroke-width:1;stroke-linejoin:miter;stroke-miterlimit:10;"/><text fill="#000000" font-family="sans-serif" font-size="13" lengthAdjust="spacing" textLength="253.519" x="195.04" y="495.1438">Step 3a: Success - initial child selected</text></g><!--link TryEnterSubstate to ExecuteDuringAfter--><g class="link" data-entity-1="ent0003" data-entity-2="ent0006" data-link-type="dependency" data-source-line="22" id="lnk15"><path d="M419.17,451.6769 C432.59,459.2869 444.71,469.1969 453.04,482.0769 C519.71,585.1369 516.87,653.4169 453.04,758.2569 C445.54,770.5869 438.5645,777.6766 426.1645,785.2666" fill="none" id="TryEnterSubstate-to-ExecuteDuringAfter" style="stroke:#181818;stroke-width:1;"/><polygon fill="#181818" points="421.9,787.8769,431.6644,786.5899,426.1645,785.2666,427.4879,779.7667,421.9,787.8769" style="stroke:#181818;stroke-width:1;stroke-linejoin:miter;stroke-miterlimit:10;"/><text fill="#000000" font-family="sans-serif" font-size="13" lengthAdjust="spacing" textLength="202.4648" x="503.04" y="624.7338">Step 3b: Failure - skip substate</text></g><!--link ExecuteDuringBefore to EnterSubstate--><g class="link" data-entity-1="ent0004" data-entity-2="ent0005" data-link-type="dependency" data-source-line="28" id="lnk16"><path d="M173.42,581.8369 C168.99,595.7069 165.57,613.1569 169.04,628.6669 C171.31,638.8169 173.4317,644.8159 177.9217,653.8859" fill="none" id="ExecuteDuringBefore-to-EnterSubstate" style="stroke:#181818;stroke-width:1;"/><polygon fill="#181818" points="180.14,658.3669,179.7319,648.5265,177.9217,653.8859,172.5623,652.0757,180.14,658.3669" style="stroke:#181818;stroke-width:1;stroke-linejoin:miter;stroke-miterlimit:10;"/><text fill="#000000" font-family="sans-serif" font-size="13" lengthAdjust="spacing" textLength="261.7773" x="170.04" y="624.7338">Step 4: Execute during before operation</text></g><!--link EnterSubstate to ExecuteDuringAfter--><g class="link" data-entity-1="ent0005" data-entity-2="ent0006" data-link-type="dependency" data-source-line="34" id="lnk17"><path d="M214.39,711.7269 C226.09,726.3369 241.84,744.4069 258.04,758.2569 C270.66,769.0469 281.3169,776.598 295.2469,785.208" fill="none" id="EnterSubstate-to-ExecuteDuringAfter" style="stroke:#181818;stroke-width:1;"/><polygon fill="#181818" points="299.5,787.8369,293.9474,779.7025,295.2469,785.208,289.7413,786.5075,299.5,787.8369" style="stroke:#181818;stroke-width:1;stroke-linejoin:miter;stroke-miterlimit:10;"/><text fill="#000000" font-family="sans-serif" font-size="13" lengthAdjust="spacing" textLength="189.4648" x="259.04" y="754.3238">Step 5: Return from substate</text></g><!--link ExecuteDuringAfter to CheckTransitions--><g class="link" data-entity-1="ent0006" data-entity-2="ent0007" data-link-type="dependency" data-source-line="40" id="lnk18"><path d="M346.04,841.0769 C346.04,863.3269 346.04,890.4469 346.04,912.6869" fill="none" id="ExecuteDuringAfter-to-CheckTransitions" style="stroke:#181818;stroke-width:1;"/><polygon fill="#181818" points="346.04,917.6869,350.04,908.6869,346.04,912.6869,342.04,908.6869,346.04,917.6869" style="stroke:#181818;stroke-width:1;stroke-linejoin:miter;stroke-miterlimit:10;"/><text fill="#000000" font-family="sans-serif" font-size="13" lengthAdjust="spacing" textLength="250.6372" x="347.04" y="883.9238">Step 6: Execute during after operation</text></g><!--link CheckTransitions to CheckTransitions--><g class="link" data-entity-1="ent0007" data-entity-2="ent0007" data-link-type="dependency" data-source-line="46" id="lnk19"><path d="M481.14,933.0769 C501.73,934.7669 515.71,938.4569 515.71,944.1569 C515.71,949.8469 506.7132,953.1279 486.1232,954.8179" fill="none" id="CheckTransitions-to-CheckTransitions" style="stroke:#181818;stroke-width:1;"/><polygon fill="#181818" points="481.14,955.2269,490.4371,958.4772,486.1232,954.8179,489.7826,950.504,481.14,955.2269" style="stroke:#181818;stroke-width:1;stroke-linejoin:miter;stroke-miterlimit:10;"/><text fill="#000000" font-family="sans-serif" font-size="13" lengthAdjust="spacing" textLength="206.5083" x="521.71" y="941.2238">Step 7a: No transition triggered</text><text fill="#000000" font-family="sans-serif" font-size="13" lengthAdjust="spacing" textLength="99.6138" x="575.1573" y="956.3566">(remain active)</text></g><!--link CheckTransitions to ExecuteExitOperation--><g class="link" data-entity-1="ent0007" data-entity-2="ent0008" data-link-type="dependency" data-source-line="47" id="lnk20"><path d="M346.04,970.6669 C346.04,992.9169 346.04,1020.0369 346.04,1042.2769" fill="none" id="CheckTransitions-to-ExecuteExitOperation" style="stroke:#181818;stroke-width:1;"/><polygon fill="#181818" points="346.04,1047.2769,350.04,1038.2769,346.04,1042.2769,342.04,1038.2769,346.04,1047.2769" style="stroke:#181818;stroke-width:1;stroke-linejoin:miter;stroke-miterlimit:10;"/><text fill="#000000" font-family="sans-serif" font-size="13" lengthAdjust="spacing" textLength="187.8271" x="347.04" y="1013.5138">Step 7b: Transition triggered</text></g><!--link ExecuteExitOperation to ExecuteTransition--><g class="link" data-entity-1="ent0008" data-entity-2="ent0009" data-link-type="dependency" data-source-line="53" id="lnk21"><path d="M346.04,1100.2569 C346.04,1122.5169 346.04,1149.6269 346.04,1171.8669" fill="none" id="ExecuteExitOperation-to-ExecuteTransition" style="stroke:#181818;stroke-width:1;"/><polygon fill="#181818" points="346.04,1176.8669,350.04,1167.8669,346.04,1171.8669,342.04,1167.8669,346.04,1176.8669" style="stroke:#181818;stroke-width:1;stroke-linejoin:miter;stroke-miterlimit:10;"/><text fill="#000000" font-family="sans-serif" font-size="13" lengthAdjust="spacing" textLength="197.9834" x="347.04" y="1143.1138">Step 8: Execute exit operation</text></g><!--link ExecuteTransition to *end*--><g class="link" data-entity-1="ent0009" data-entity-2="ent0022" data-link-type="dependency" data-source-line="59" id="lnk23"><path d="M346.04,1230.1069 C346.04,1254.1869 346.04,1283.9569 346.04,1301.1669" fill="none" id="ExecuteTransition-to-*end*" style="stroke:#181818;stroke-width:1;"/><polygon fill="#181818" points="346.04,1306.1669,350.04,1297.1669,346.04,1301.1669,342.04,1297.1669,346.04,1306.1669" style="stroke:#181818;stroke-width:1;stroke-linejoin:miter;stroke-miterlimit:10;"/><text fill="#000000" font-family="sans-serif" font-size="13" lengthAdjust="spacing" textLength="202.6997" x="347.04" y="1272.7038">Step 9: Transition to next state</text></g><?plantuml-src ZPLBRnCn483l-olcHekK0wLGoA5IAN128D7SA0V7EvjOtTWhUpPAXFZls5vluiTkwIKFn_FvyypiX0Ir2FTgroaZ2E61c7tz9XhaHzvYLVrw_HiMYrlu8WdryEjo-0By56NSUbNvjtZddmgAG7s4JWb9qAWIyRUgelt-t0Fodj2l_kXGCn9AMj83OGTlHXNQvXAJOTvd1XZMWVTQezNpd5S6q1-WnfrUSHBXR5VwEFZtQnEkx4MlploS5uIBIESwXSCMEO6GWWHhWJIJDdz1hDWVPV1phuNSV4ARzfFMMsO_z9oZCR0uCVbMj3KOVn3MBu3UDUvA8tEzXAzCjBqzPW7cINHWGcHMdCGeAarcEbUOsc-3zR1lga09wDp4MMskpqVC8PFEZWkK0uTk7EyBJDQWaNejWLHwWNEhloojxvRmSo0rMksUJ-aGM6HqvFqdeQoPQ_WOuspljyYVLgSEDAFh-oAZEJDO5m3dF47rIr6l0-wjkF7vtVHCryPP5e7FETxOrl-kOYPfiTcWnlfHNcZSCI61SH9xl9mcZrFW8AWOJ3Vs8LXDeFFnbCJ6qoc3pWudkszwDYM0I3Uo2guVejcKubBPA38oJNWZ9wvKO_zAGgbsQe_kGP1uY9-20kHqtVzE4FoOvZAE_mS0?></g></svg>