<svg xmlns="http://www.w3.org/2000/svg" xmlns:xlink="http://www.w3.org/1999/xlink" version="1.1" data-diagram-type="STATE" style="width:269px;height:475px;background:#FFFFFF;" width="269px" height="475px" viewBox="0 0 269 475" zoomAndPan="magnify" preserveAspectRatio="none" contentStyleType="text/css"><?plantuml 1.2026.7beta6?><defs/><g font-family="sans-serif" lengthAdjust="spacing"><g class="legend" data-source-line="10"><rect x="12" y="12" width="238.313" height="46.594" fill="#DDD" style="stroke:#000;stroke-width:1;" rx="7.5" ry="7.5"/><text x="21.874" y="31.995" fill="#000" font-size="14" textLength="65.748" font-weight="700">Variable</text><text x="97.37" y="31.995" fill="#000" font-size="14" textLength="38.192" font-weight="700">Type</text><text x="145.311" y="31.995" fill="#000" font-size="14" textLength="95.129" font-weight="700">Initial Value</text><text x="21.45" y="48.292" fill="#000" font-size="14" textLength="41.412">signal</text><text x="96.946" y="48.292" fill="#000" font-size="14" textLength="18.252">int</text><text x="144.887" y="48.292" fill="#000" font-size="14">0</text><line x1="17" y1="19" x2="245.313" y2="19" style="stroke:#000;stroke-width:1;"/><line x1="17" y1="35.297" x2="245.313" y2="35.297" style="stroke:#000;stroke-width:1;"/><line x1="17" y1="51.594" x2="245.313" y2="51.594" style="stroke:#000;stroke-width:1;"/><line x1="17" y1="19" x2="17" y2="51.594" style="stroke:#000;stroke-width:1;"/><line x1="92.496" y1="19" x2="92.496" y2="51.594" style="stroke:#000;stroke-width:1;"/><line x1="140.437" y1="19" x2="140.437" y2="51.594" style="stroke:#000;stroke-width:1;"/><line x1="245.313" y1="19" x2="245.313" y2="51.594" style="stroke:#000;stroke-width:1;"/></g><g class="entity" data-qualified-name="during_const_assign" id="ent0001" data-source-line="15"><path d="M66.722,157.594 L194.592,157.594 A12.5,12.5 0 0 1 207.092,170.094 L207.092,183.891 L54.222,183.891 L54.222,170.094 A12.5,12.5 0 0 1 66.722,157.594" fill="#ADD8E6"/><path d="M54.222,183.891 L207.092,183.891 L207.092,367.391 A12.5,12.5 0 0 1 194.592,379.891 L66.722,379.891 A12.5,12.5 0 0 1 54.222,367.391 L54.222,183.891" fill="#ADD8E6"/><rect x="54.222" y="157.594" width="152.87" height="222.297" fill="none" style="stroke:#181818;stroke-width:0.5;" rx="12.5" ry="12.5"/><line x1="54.222" y1="183.891" x2="207.092" y2="183.891" style="stroke:#181818;stroke-width:0.5;"/><text x="64.222" y="175.589" fill="#000" font-size="14" textLength="132.87">DuringConstAssign</text><rect x="66.222" y="251.891" width="50" height="40" fill="#F1F1F1" style="stroke:#181818;stroke-width:0.5;" rx="12.5" ry="12.5"/><text x="78.462" y="276.737" fill="#000" font-size="14" textLength="25.519">Idle</text><g class="start_entity" data-qualified-name="during_const_assign..start.during_const_assign" id="ent0003" data-source-line="17"><ellipse cx="91.222" cy="204.891" rx="10" ry="10" fill="#222" style="stroke:#222;stroke-width:1;"/></g><g class="end_entity" data-qualified-name="during_const_assign..end.during_const_assign" id="ent0005" data-source-line="18"><ellipse cx="91.222" cy="355.891" rx="11" ry="11" fill="none" style="stroke:#222;stroke-width:1;"/><ellipse cx="91.222" cy="355.891" rx="6" ry="6" fill="#222" style="stroke:#222;stroke-width:1;"/></g><!--link *start*during_const_assign to during_const_assign__idle--><g class="link" data-entity-1="ent0003" data-entity-2="ent0002" id="lnk4" data-source-line="17" data-link-type="dependency"><path d="M91.222,215.201 C91.222,224.611 91.222,234.431 91.222,246.411" style="stroke:#181818;stroke-width:1;" fill="none" id="*start*during_const_assign-to-during_const_assign__idle"/><polygon points="91.222,251.411,95.222,242.411,91.222,246.411,87.222,242.411,91.222,251.411" fill="#181818" style="stroke:#181818;stroke-width:1;stroke-linejoin:miter;stroke-miterlimit:10;"/></g><!--link during_const_assign__idle to *end*during_const_assign--><g class="link" data-entity-1="ent0002" data-entity-2="ent0005" id="lnk6" data-source-line="18" data-link-type="dependency"><path d="M91.222,292.321 C91.222,308.801 91.222,326.791 91.222,339.821" style="stroke:#181818;stroke-width:1;" fill="none" id="during_const_assign__idle-to-*end*during_const_assign"/><polygon points="91.222,344.821,95.222,335.821,91.222,339.821,87.222,335.821,91.222,344.821" fill="#181818" style="stroke:#181818;stroke-width:1;stroke-linejoin:miter;stroke-miterlimit:10;"/><text x="92.222" y="322.958" fill="#000" font-size="13" textLength="76.775">signal >= 0</text></g></g><g class="start_entity" data-qualified-name=".start." id="ent0007" data-source-line="20"><ellipse cx="130.662" cy="87.594" rx="10" ry="10" fill="#222" style="stroke:#222;stroke-width:1;"/></g><g class="end_entity" data-qualified-name=".end." id="ent0009" data-source-line="21"><ellipse cx="130.662" cy="450.894" rx="11" ry="11" fill="none" style="stroke:#222;stroke-width:1;"/><ellipse cx="130.662" cy="450.894" rx="6" ry="6" fill="#222" style="stroke:#222;stroke-width:1;"/></g><!--link *start* to during_const_assign--><g class="link" data-entity-1="ent0007" data-entity-2="ent0001" id="lnk8" data-source-line="20" data-link-type="dependency"><path d="M130.662,97.724 C130.662,109.774 130.662,127.394 130.662,152.294" style="stroke:#181818;stroke-width:1;" fill="none" id="*start*-to-during_const_assign"/><polygon points="130.662,157.294,134.662,148.294,130.662,152.294,126.662,148.294,130.662,157.294" fill="#181818" style="stroke:#181818;stroke-width:1;stroke-linejoin:miter;stroke-miterlimit:10;"/></g><!--link during_const_assign to *end*--><g class="link" data-entity-1="ent0001" data-entity-2="ent0009" id="lnk10" data-source-line="21" data-link-type="dependency"><path d="M130.662,380.244 C130.662,404.714 130.662,422.064 130.662,434.534" style="stroke:#181818;stroke-width:1;" fill="none" id="during_const_assign-to-*end*"/><polygon points="130.662,439.534,134.662,430.534,130.662,434.534,126.662,430.534,130.662,439.534" fill="#181818" style="stroke:#181818;stroke-width:1;stroke-linejoin:miter;stroke-miterlimit:10;"/></g><?plantuml-src XP11ImCn48Nl-HN37eL2pz8ks8gbu4tn8hB4PDmEpMP2CdjONF-xsRW5bLOlINZlpHVU7CWYO1Ta08l9H0f2x9LAH_91Hzr14Yq8xmfWeysnZTnxksN7SRKA2NlBTGttr1va5_LmBcMu2vn8y1JSk1wd84UByJTgfjonbmSP77wpIBGZepwKSjYYjo0SmE6Rg74DJpgIVdK8-VquX7BlFGbfbxty8ungX4Ijpy88v2MVooncq1SkbovLgzi-ac-tx9FSf6cY0ft05hKnazpeeiFFSjEEODvNjS_KItDDGzajwUUh5rWiwdzI5zqoEp6kJzNgDIppYlxWgdDDPiud?></g></svg>