<?plantuml 1.2026.2beta3?><svg xmlns="http://www.w3.org/2000/svg" xmlns:xlink="http://www.w3.org/1999/xlink" contentStyleType="text/css" data-diagram-type="STATE" height="1086px" preserveAspectRatio="none" style="width:321px;height:1086px;background:#FFFFFF;" version="1.1" viewBox="0 0 321 1086" width="321px" zoomAndPan="magnify"><defs/><g><g class="entity" data-qualified-name="DefinitionNote" data-source-line="3" id="ent0002"><path d="M6,6 L6,61.3984 L171.3965,61.3984 L171.3965,16 L161.3965,6 L6,6" fill="#FEFFDD" style="stroke:#181818;stroke-width:0.5;"/><path d="M161.3965,6 L161.3965,16 L171.3965,16 L161.3965,6" fill="#FEFFDD" style="stroke:#181818;stroke-width:1;"/><text fill="#000000" font-family="sans-serif" font-size="13" lengthAdjust="spacing" textLength="59.8521" x="12" y="23.0669">defines {</text><text fill="#000000" font-family="sans-serif" font-size="13" lengthAdjust="spacing" textLength="127.8672" x="28.5293" y="38.1997">def int counter = 0;</text><text fill="#000000" font-family="sans-serif" font-size="13" lengthAdjust="spacing" textLength="8.271" x="12" y="53.3325">}</text></g><path d="M138.28,121.4 L295.114,121.4 A12.5,12.5 0 0 1 307.614,133.9 L307.614,147.6969 L125.78,147.6969 L125.78,133.9 A12.5,12.5 0 0 1 138.28,121.4" fill="#F1F1F1"/><rect fill="none" height="876.8869" rx="12.5" ry="12.5" style="stroke:#181818;stroke-width:0.5;" width="181.834" x="125.78" y="121.4"/><line style="stroke:#181818;stroke-width:0.5;" x1="125.78" x2="307.614" y1="147.6969" y2="147.6969"/><text fill="#000000" font-family="sans-serif" font-size="14" lengthAdjust="spacing" textLength="137.3887" x="148.0027" y="139.3951">EventScopingDemo</text><path d="M150.28,215.6969 L286.114,215.6969 A12.5,12.5 0 0 1 298.614,228.1969 L298.614,241.9937 L137.78,241.9937 L137.78,228.1969 A12.5,12.5 0 0 1 150.28,215.6969" fill="#F1F1F1"/><rect fill="none" height="330.2969" rx="12.5" ry="12.5" style="stroke:#181818;stroke-width:0.5;" width="160.834" x="137.78" y="215.6969"/><line style="stroke:#181818;stroke-width:0.5;" x1="137.78" x2="298.614" y1="241.9937" y2="241.9937"/><text fill="#000000" font-family="sans-serif" font-size="14" lengthAdjust="spacing" textLength="140.834" x="147.78" y="233.692">ChainEventExample</text><rect fill="#F1F1F1" height="40" rx="12.5" ry="12.5" style="stroke:#181818;stroke-width:0.5;" width="50" x="149.78" y="309.9938"/><text fill="#000000" font-family="sans-serif" font-size="14" lengthAdjust="spacing" textLength="9.5771" x="169.9914" y="334.8404">A</text><rect fill="#F1F1F1" height="40" rx="12.5" ry="12.5" style="stroke:#181818;stroke-width:0.5;" width="50" x="149.78" y="402.9938"/><text fill="#000000" font-family="sans-serif" font-size="14" lengthAdjust="spacing" textLength="9.6045" x="169.9778" y="427.8404">B</text><rect fill="#F1F1F1" height="40" rx="12.5" ry="12.5" style="stroke:#181818;stroke-width:0.5;" width="50" x="149.78" y="495.9938"/><text fill="#000000" font-family="sans-serif" font-size="14" lengthAdjust="spacing" textLength="9.7754" x="169.8923" y="520.8404">C</text><g class="start_entity" data-qualified-name="event_scoping_demo.event_scoping_demo__chain_event_example..start.event_scoping_demo__chain_event_example" data-source-line="13" id="ent0002"><ellipse cx="174.78" cy="262.9938" fill="#222222" rx="10" ry="10" style="stroke:#222222;stroke-width:1;"/></g><!--link *start*event_scoping_demo__chain_event_example to event_scoping_demo__chain_event_example__a--><g class="link" data-entity-1="ent0002" data-entity-2="ent0005" data-link-type="dependency" data-source-line="13" id="lnk3"><path d="M174.78,273.3038 C174.78,282.7138 174.78,291.5337 174.78,303.5137" fill="none" id="*start*event_scoping_demo__chain_event_example-to-event_scoping_demo__chain_event_example__a" style="stroke:#181818;stroke-width:1;"/><polygon fill="#181818" points="174.78,309.5137,178.78,300.5137,174.78,304.5137,170.78,300.5137,174.78,309.5137" style="stroke:#181818;stroke-width:1;"/></g><!--link event_scoping_demo__chain_event_example__a to event_scoping_demo__chain_event_example__b--><g class="link" data-entity-1="ent0005" data-entity-2="ent0006" data-link-type="dependency" data-source-line="14" id="lnk4"><path d="M174.78,350.2938 C174.78,365.7338 174.78,381.2837 174.78,396.7238" fill="none" id="event_scoping_demo__chain_event_example__a-to-event_scoping_demo__chain_event_example__b" style="stroke:#181818;stroke-width:1;"/><polygon fill="#181818" points="174.78,402.7238,178.78,393.7238,174.78,397.7238,170.78,393.7238,174.78,402.7238" style="stroke:#181818;stroke-width:1;"/><text fill="#000000" font-family="sans-serif" font-size="13" lengthAdjust="spacing" textLength="83.2939" x="175.78" y="381.0606">SharedEvent</text></g><!--link event_scoping_demo__chain_event_example__b to event_scoping_demo__chain_event_example__c--><g class="link" data-entity-1="ent0006" data-entity-2="ent0007" data-link-type="dependency" data-source-line="15" id="lnk5"><path d="M174.78,443.2938 C174.78,458.7338 174.78,474.2837 174.78,489.7238" fill="none" id="event_scoping_demo__chain_event_example__b-to-event_scoping_demo__chain_event_example__c" style="stroke:#181818;stroke-width:1;"/><polygon fill="#181818" points="174.78,495.7238,178.78,486.7238,174.78,490.7238,170.78,486.7238,174.78,495.7238" style="stroke:#181818;stroke-width:1;"/><text fill="#000000" font-family="sans-serif" font-size="13" lengthAdjust="spacing" textLength="83.2939" x="175.78" y="474.0606">SharedEvent</text></g><path d="M152.01,598.9869 L284.385,598.9869 A12.5,12.5 0 0 1 296.885,611.4869 L296.885,625.2838 L139.51,625.2838 L139.51,611.4869 A12.5,12.5 0 0 1 152.01,598.9869" fill="#F1F1F1"/><rect fill="none" height="330.2969" rx="12.5" ry="12.5" style="stroke:#181818;stroke-width:0.5;" width="157.375" x="139.51" y="598.9869"/><line style="stroke:#181818;stroke-width:0.5;" x1="139.51" x2="296.885" y1="625.2838" y2="625.2838"/><text fill="#000000" font-family="sans-serif" font-size="14" lengthAdjust="spacing" textLength="137.375" x="149.51" y="616.982">LocalEventExample</text><rect fill="#F1F1F1" height="40" rx="12.5" ry="12.5" style="stroke:#181818;stroke-width:0.5;" width="50" x="151.51" y="693.2838"/><text fill="#000000" font-family="sans-serif" font-size="14" lengthAdjust="spacing" textLength="9.5908" x="171.7146" y="718.1304">X</text><rect fill="#F1F1F1" height="40" rx="12.5" ry="12.5" style="stroke:#181818;stroke-width:0.5;" width="50" x="151.51" y="786.2838"/><text fill="#000000" font-family="sans-serif" font-size="14" lengthAdjust="spacing" textLength="8.5518" x="172.2341" y="811.1304">Y</text><rect fill="#F1F1F1" height="40" rx="12.5" ry="12.5" style="stroke:#181818;stroke-width:0.5;" width="50" x="151.51" y="879.2838"/><text fill="#000000" font-family="sans-serif" font-size="14" lengthAdjust="spacing" textLength="9.5908" x="171.7146" y="904.1304">Z</text><g class="start_entity" data-qualified-name="event_scoping_demo.event_scoping_demo__local_event_example..start.event_scoping_demo__local_event_example" data-source-line="21" id="ent0006"><ellipse cx="176.51" cy="646.2838" fill="#222222" rx="10" ry="10" style="stroke:#222222;stroke-width:1;"/></g><!--link *start*event_scoping_demo__local_event_example to event_scoping_demo__local_event_example__x--><g class="link" data-entity-1="ent0006" data-entity-2="ent0009" data-link-type="dependency" data-source-line="21" id="lnk7"><path d="M176.51,656.5938 C176.51,666.0038 176.51,674.8238 176.51,686.8038" fill="none" id="*start*event_scoping_demo__local_event_example-to-event_scoping_demo__local_event_example__x" style="stroke:#181818;stroke-width:1;"/><polygon fill="#181818" points="176.51,692.8038,180.51,683.8038,176.51,687.8038,172.51,683.8038,176.51,692.8038" style="stroke:#181818;stroke-width:1;"/></g><!--link event_scoping_demo__local_event_example__x to event_scoping_demo__local_event_example__y--><g class="link" data-entity-1="ent0009" data-entity-2="ent0010" data-link-type="dependency" data-source-line="22" id="lnk8"><path d="M176.51,733.5838 C176.51,749.0238 176.51,764.5738 176.51,780.0138" fill="none" id="event_scoping_demo__local_event_example__x-to-event_scoping_demo__local_event_example__y" style="stroke:#181818;stroke-width:1;"/><polygon fill="#181818" points="176.51,786.0138,180.51,777.0138,176.51,781.0138,172.51,777.0138,176.51,786.0138" style="stroke:#181818;stroke-width:1;"/><text fill="#000000" font-family="sans-serif" font-size="13" lengthAdjust="spacing" textLength="84.2017" x="177.51" y="764.3506">X.LocalEvent</text></g><!--link event_scoping_demo__local_event_example__y to event_scoping_demo__local_event_example__z--><g class="link" data-entity-1="ent0010" data-entity-2="ent0011" data-link-type="dependency" data-source-line="23" id="lnk9"><path d="M176.51,826.5838 C176.51,842.0238 176.51,857.5738 176.51,873.0138" fill="none" id="event_scoping_demo__local_event_example__y-to-event_scoping_demo__local_event_example__z" style="stroke:#181818;stroke-width:1;"/><polygon fill="#181818" points="176.51,879.0138,180.51,870.0138,176.51,874.0138,172.51,870.0138,176.51,879.0138" style="stroke:#181818;stroke-width:1;"/><text fill="#000000" font-family="sans-serif" font-size="13" lengthAdjust="spacing" textLength="83.2368" x="177.51" y="857.3506">Y.LocalEvent</text></g><g class="start_entity" data-qualified-name="event_scoping_demo..start.event_scoping_demo" data-source-line="25" id="ent0010"><ellipse cx="218.2" cy="168.6969" fill="#222222" rx="10" ry="10" style="stroke:#222222;stroke-width:1;"/></g><g class="end_entity" data-qualified-name="event_scoping_demo..end.event_scoping_demo" data-source-line="27" id="ent0013"><ellipse cx="218.2" cy="977.2869" fill="none" rx="11" ry="11" style="stroke:#222222;stroke-width:1;"/><ellipse cx="218.2" cy="977.2869" fill="#222222" rx="6" ry="6" style="stroke:#222222;stroke-width:1;"/></g><!--link *start*event_scoping_demo to event_scoping_demo__chain_event_example--><g class="link" data-entity-1="ent0010" data-entity-2="ent0004" data-link-type="dependency" data-source-line="25" id="lnk11"><path d="M218.2,178.9969 C218.2,187.0969 218.2,193.9369 218.2,209.3169" fill="none" id="*start*event_scoping_demo-to-event_scoping_demo__chain_event_example" style="stroke:#181818;stroke-width:1;"/><polygon fill="#181818" points="218.2,215.3169,222.2,206.3169,218.2,210.3169,214.2,206.3169,218.2,215.3169" style="stroke:#181818;stroke-width:1;"/></g><!--link event_scoping_demo__chain_event_example to event_scoping_demo__local_event_example--><g class="link" data-entity-1="ent0004" data-entity-2="ent0008" data-link-type="dependency" data-source-line="26" id="lnk12"><path d="M218.2,546.3169 C218.2,563.6469 218.2,575.2769 218.2,592.6069" fill="none" id="event_scoping_demo__chain_event_example-to-event_scoping_demo__local_event_example" style="stroke:#181818;stroke-width:1;"/><polygon fill="#181818" points="218.2,598.6069,222.2,589.6069,218.2,593.6069,214.2,589.6069,218.2,598.6069" style="stroke:#181818;stroke-width:1;"/><text fill="#000000" font-family="sans-serif" font-size="13" lengthAdjust="spacing" textLength="78.3999" x="219.2" y="577.0538">SwitchMode</text></g><!--link event_scoping_demo__local_event_example to *end*event_scoping_demo--><g class="link" data-entity-1="ent0008" data-entity-2="ent0013" data-link-type="dependency" data-source-line="27" id="lnk14"><path d="M218.2,929.6869 C218.2,944.9469 218.2,951.7769 218.2,960.0969" fill="none" id="event_scoping_demo__local_event_example-to-*end*event_scoping_demo" style="stroke:#181818;stroke-width:1;"/><polygon fill="#181818" points="218.2,966.0969,222.2,957.0969,218.2,961.0969,214.2,957.0969,218.2,966.0969" style="stroke:#181818;stroke-width:1;"/></g><g class="start_entity" data-qualified-name=".start." data-source-line="29" id="ent0015"><ellipse cx="216.7" cy="33.7" fill="#222222" rx="10" ry="10" style="stroke:#222222;stroke-width:1;"/></g><g class="end_entity" data-qualified-name=".end." data-source-line="30" id="ent0017"><ellipse cx="216.7" cy="1069.29" fill="none" rx="11" ry="11" style="stroke:#222222;stroke-width:1;"/><ellipse cx="216.7" cy="1069.29" fill="#222222" rx="6" ry="6" style="stroke:#222222;stroke-width:1;"/></g><!--link *start* to event_scoping_demo--><g class="link" data-entity-1="ent0015" data-entity-2="ent0003" data-link-type="dependency" data-source-line="29" id="lnk16"><path d="M216.7,43.8 C216.7,57.33 216.7,79.05 216.7,114.93" fill="none" id="*start*-to-event_scoping_demo" style="stroke:#181818;stroke-width:1;"/><polygon fill="#181818" points="216.7,120.93,220.7,111.93,216.7,115.93,212.7,111.93,216.7,120.93" style="stroke:#181818;stroke-width:1;"/></g><!--link event_scoping_demo to *end*--><g class="link" data-entity-1="ent0003" data-entity-2="ent0017" data-link-type="dependency" data-source-line="30" id="lnk18"><path d="M216.7,998.53 C216.7,1025.26 216.7,1040.09 216.7,1051.79" fill="none" id="event_scoping_demo-to-*end*" style="stroke:#181818;stroke-width:1;"/><polygon fill="#181818" points="216.7,1057.79,220.7,1048.79,216.7,1052.79,212.7,1048.79,216.7,1057.79" style="stroke:#181818;stroke-width:1;"/></g><?plantuml-src dPJ1JiCm38RlUGfhHwGXpY2GODkDxRBB1a9HcdWqKfjKJO1rQEzEibOmHQrMariSV_uT-KzohH2mh7m32fsiTUMrDSnOZo0Sp76dZOwXLOWm5RVeu9j1M647sdYGziDuhE4URkxOaQ5H47d6d1UXp6JnYSQlfQsqUPzZQIUnCiOWTssKgn3kgdRGB1VQdCZ5NfHLWGCKvp9cylO4szokr5cvHmhEkKZv9ngVfVoCnijV_lNg3QRJX_-qFXwXAMHm2-jSrAXEyw7hPJGzsQDtFFVAivMY6EML8cPUyig6WdE-J_ajZMzI_eN67qPvvKBhun6QGXDcjxd-6n1TiA497eBWDXLitK9yIepWQKgFqSrVsijyQTMmI1yOHS8bmXyxV1NMyx5st0y0?></g></svg>