<?plantuml 1.2026.2beta3?><svg xmlns="http://www.w3.org/2000/svg" xmlns:xlink="http://www.w3.org/1999/xlink" contentStyleType="text/css" data-diagram-type="STATE" height="1125px" preserveAspectRatio="none" style="width:353px;height:1125px;background:#FFFFFF;" version="1.1" viewBox="0 0 353 1125" width="353px" zoomAndPan="magnify"><defs/><g><g class="entity" data-qualified-name="DefinitionNote" data-source-line="3" id="ent0002"><path d="M6,6 L6,61.3984 L171.3965,61.3984 L171.3965,16 L161.3965,6 L6,6" fill="#FEFFDD" style="stroke:#181818;stroke-width:0.5;"/><path d="M161.3965,6 L161.3965,16 L171.3965,16 L161.3965,6" fill="#FEFFDD" style="stroke:#181818;stroke-width:1;"/><text fill="#000000" font-family="sans-serif" font-size="13" lengthAdjust="spacing" textLength="59.8521" x="12" y="23.0669">defines {</text><text fill="#000000" font-family="sans-serif" font-size="13" lengthAdjust="spacing" textLength="127.8672" x="28.5293" y="38.1997">def int counter = 0;</text><text fill="#000000" font-family="sans-serif" font-size="13" lengthAdjust="spacing" textLength="8.271" x="12" y="53.3325">}</text></g><path d="M105.44,121.4 L327.9555,121.4 A12.5,12.5 0 0 1 340.4555,133.9 L340.4555,147.6969 L92.94,147.6969 L92.94,133.9 A12.5,12.5 0 0 1 105.44,121.4" fill="#F1F1F1"/><rect fill="none" height="915.9169" rx="12.5" ry="12.5" style="stroke:#181818;stroke-width:0.5;" width="247.5155" x="92.94" y="121.4"/><line style="stroke:#181818;stroke-width:0.5;" x1="92.94" x2="340.4555" y1="147.6969" y2="147.6969"/><text fill="#000000" font-family="sans-serif" font-size="14" lengthAdjust="spacing" textLength="52.2061" x="190.5947" y="139.3951">System</text><path d="M119.35,215.6969 L317.0455,215.6969 A12.5,12.5 0 0 1 329.5455,228.1969 L329.5455,241.9937 L106.85,241.9937 L106.85,228.1969 A12.5,12.5 0 0 1 119.35,215.6969" fill="#F1F1F1"/><rect fill="none" height="313.71" rx="12.5" ry="12.5" style="stroke:#181818;stroke-width:0.5;" width="222.6955" x="106.85" y="215.6969"/><line style="stroke:#181818;stroke-width:0.5;" x1="106.85" x2="329.5455" y1="241.9937" y2="241.9937"/><text fill="#000000" font-family="sans-serif" font-size="14" lengthAdjust="spacing" textLength="60.4844" x="187.9556" y="233.692">ModuleA</text><g class="entity" data-qualified-name="system.system__module_a.system__module_a__a1" id="ent0005"><rect fill="#F1F1F1" height="78.2031" rx="12.5" ry="12.5" style="stroke:#181818;stroke-width:0.5;" width="174.6465" x="118.85" y="309.9938"/><line style="stroke:#181818;stroke-width:0.5;" x1="118.85" x2="293.4965" y1="336.2906" y2="336.2906"/><text fill="#000000" font-family="sans-serif" font-size="14" lengthAdjust="spacing" textLength="18.4844" x="196.9311" y="327.9889">A1</text><text fill="#000000" font-family="sans-serif" font-size="12" lengthAdjust="spacing" textLength="50.1621" x="123.85" y="352.4293">during {</text><text fill="#000000" font-family="sans-serif" font-size="12" lengthAdjust="spacing" textLength="139.3887" x="139.1078" y="366.398">counter = counter + 1;</text><text fill="#000000" font-family="sans-serif" font-size="12" lengthAdjust="spacing" textLength="7.6348" x="123.85" y="380.3668">}</text></g><g class="entity" data-qualified-name="system.system__module_a.system__module_a__a2" id="ent0006"><rect fill="#F1F1F1" height="78.2031" rx="12.5" ry="12.5" style="stroke:#181818;stroke-width:0.5;" width="174.6465" x="118.85" y="441.2038"/><line style="stroke:#181818;stroke-width:0.5;" x1="118.85" x2="293.4965" y1="467.5006" y2="467.5006"/><text fill="#000000" font-family="sans-serif" font-size="14" lengthAdjust="spacing" textLength="18.4844" x="196.9311" y="459.1989">A2</text><text fill="#000000" font-family="sans-serif" font-size="12" lengthAdjust="spacing" textLength="50.1621" x="123.85" y="483.6393">during {</text><text fill="#000000" font-family="sans-serif" font-size="12" lengthAdjust="spacing" textLength="139.3887" x="139.1078" y="497.608">counter = counter + 2;</text><text fill="#000000" font-family="sans-serif" font-size="12" lengthAdjust="spacing" textLength="7.6348" x="123.85" y="511.5768">}</text></g><g class="start_entity" data-qualified-name="system.system__module_a..start.system__module_a" data-source-line="14" id="ent0002"><ellipse cx="206.17" cy="262.9938" fill="#222222" rx="10" ry="10" style="stroke:#222222;stroke-width:1;"/></g><!--link *start*system__module_a to system__module_a__a1--><g class="link" data-entity-1="ent0002" data-entity-2="ent0005" data-link-type="dependency" data-source-line="14" id="lnk3"><path d="M206.17,273.3238 C206.17,282.2138 206.17,290.2238 206.17,303.7238" fill="none" id="*start*system__module_a-to-system__module_a__a1" style="stroke:#181818;stroke-width:1;"/><polygon fill="#181818" points="206.17,309.7238,210.17,300.7238,206.17,304.7238,202.17,300.7238,206.17,309.7238" style="stroke:#181818;stroke-width:1;"/></g><!--link system__module_a__a1 to system__module_a__a2--><g class="link" data-entity-1="ent0005" data-entity-2="ent0006" data-link-type="dependency" data-source-line="15" id="lnk4"><path d="M159.79,388.5138 C155.51,393.9938 151.8,399.9238 149.17,406.2038 C144.07,418.3738 144.5105,425.4284 152.3305,435.9484" fill="none" id="system__module_a__a1-to-system__module_a__a2" style="stroke:#181818;stroke-width:1;"/><polygon fill="#181818" points="155.91,440.7638,153.751,431.1544,152.9271,436.751,147.3306,435.9271,155.91,440.7638" style="stroke:#181818;stroke-width:1;"/><text fill="#000000" font-family="sans-serif" font-size="13" lengthAdjust="spacing" textLength="92.46" x="150.17" y="419.2706">A1.LocalEvent</text></g><!--link system__module_a__a2 to system__module_a__a1--><g class="link" data-entity-1="ent0006" data-entity-2="ent0005" data-link-type="dependency" data-source-line="16" id="lnk5"><path d="M238.1,440.9038 C243.67,430.0138 246.69,417.9138 243.17,406.2038 C241.36,400.1638 241.5548,399.4448 238.4348,393.7548" fill="none" id="system__module_a__a2-to-system__module_a__a1" style="stroke:#181818;stroke-width:1;"/><polygon fill="#181818" points="235.55,388.4938,236.3698,398.3084,237.954,392.8779,243.3845,394.4621,235.55,388.4938" style="stroke:#181818;stroke-width:1;"/><text fill="#000000" font-family="sans-serif" font-size="13" lengthAdjust="spacing" textLength="74.3755" x="245.17" y="419.2706">ChainEvent</text></g><path d="M117.44,713.6069 L318.9555,713.6069 A12.5,12.5 0 0 1 331.4555,726.1069 L331.4555,739.9038 L104.94,739.9038 L104.94,726.1069 A12.5,12.5 0 0 1 117.44,713.6069" fill="#F1F1F1"/><rect fill="none" height="313.71" rx="12.5" ry="12.5" style="stroke:#181818;stroke-width:0.5;" width="226.5155" x="104.94" y="713.6069"/><line style="stroke:#181818;stroke-width:0.5;" x1="104.94" x2="331.4555" y1="739.9038" y2="739.9038"/><text fill="#000000" font-family="sans-serif" font-size="14" lengthAdjust="spacing" textLength="60.5117" x="187.9419" y="731.602">ModuleB</text><g class="entity" data-qualified-name="system.system__module_b.system__module_b__b1" id="ent0008"><rect fill="#F1F1F1" height="78.2031" rx="12.5" ry="12.5" style="stroke:#181818;stroke-width:0.5;" width="182.2813" x="116.94" y="807.9038"/><line style="stroke:#181818;stroke-width:0.5;" x1="116.94" x2="299.2213" y1="834.2006" y2="834.2006"/><text fill="#000000" font-family="sans-serif" font-size="14" lengthAdjust="spacing" textLength="18.5117" x="198.8248" y="825.8989">B1</text><text fill="#000000" font-family="sans-serif" font-size="12" lengthAdjust="spacing" textLength="50.1621" x="121.94" y="850.3393">during {</text><text fill="#000000" font-family="sans-serif" font-size="12" lengthAdjust="spacing" textLength="147.0234" x="137.1978" y="864.308">counter = counter + 10;</text><text fill="#000000" font-family="sans-serif" font-size="12" lengthAdjust="spacing" textLength="7.6348" x="121.94" y="878.2768">}</text></g><g class="entity" data-qualified-name="system.system__module_b.system__module_b__b2" id="ent0009"><rect fill="#F1F1F1" height="78.2031" rx="12.5" ry="12.5" style="stroke:#181818;stroke-width:0.5;" width="182.2813" x="116.94" y="939.1138"/><line style="stroke:#181818;stroke-width:0.5;" x1="116.94" x2="299.2213" y1="965.4106" y2="965.4106"/><text fill="#000000" font-family="sans-serif" font-size="14" lengthAdjust="spacing" textLength="18.5117" x="198.8248" y="957.1089">B2</text><text fill="#000000" font-family="sans-serif" font-size="12" lengthAdjust="spacing" textLength="50.1621" x="121.94" y="981.5493">during {</text><text fill="#000000" font-family="sans-serif" font-size="12" lengthAdjust="spacing" textLength="147.0234" x="137.1978" y="995.518">counter = counter + 20;</text><text fill="#000000" font-family="sans-serif" font-size="12" lengthAdjust="spacing" textLength="7.6348" x="121.94" y="1009.4868">}</text></g><g class="start_entity" data-qualified-name="system.system__module_b..start.system__module_b" data-source-line="23" id="ent0006"><ellipse cx="208.08" cy="760.9038" fill="#222222" rx="10" ry="10" style="stroke:#222222;stroke-width:1;"/></g><!--link *start*system__module_b to system__module_b__b1--><g class="link" data-entity-1="ent0006" data-entity-2="ent0008" data-link-type="dependency" data-source-line="23" id="lnk7"><path d="M208.08,771.2338 C208.08,780.1238 208.08,788.1338 208.08,801.6338" fill="none" id="*start*system__module_b-to-system__module_b__b1" style="stroke:#181818;stroke-width:1;"/><polygon fill="#181818" points="208.08,807.6338,212.08,798.6338,208.08,802.6338,204.08,798.6338,208.08,807.6338" style="stroke:#181818;stroke-width:1;"/></g><!--link system__module_b__b1 to system__module_b__b2--><g class="link" data-entity-1="ent0008" data-entity-2="ent0009" data-link-type="dependency" data-source-line="24" id="lnk8"><path d="M161.7,886.4238 C157.42,891.9038 153.71,897.8338 151.08,904.1138 C145.98,916.2838 146.4235,923.3362 154.2335,933.8562" fill="none" id="system__module_b__b1-to-system__module_b__b2" style="stroke:#181818;stroke-width:1;"/><polygon fill="#181818" points="157.81,938.6738,155.6569,929.0631,154.8296,934.6591,149.2335,933.8318,157.81,938.6738" style="stroke:#181818;stroke-width:1;"/><text fill="#000000" font-family="sans-serif" font-size="13" lengthAdjust="spacing" textLength="92.4854" x="152.08" y="917.1806">B1.LocalEvent</text></g><!--link system__module_b__b2 to system__module_b__b1--><g class="link" data-entity-1="ent0009" data-entity-2="ent0008" data-link-type="dependency" data-source-line="25" id="lnk9"><path d="M240.01,938.8138 C245.57,927.9238 248.6,915.8238 245.08,904.1138 C243.27,898.0738 243.4719,897.3509 240.3419,891.6609" fill="none" id="system__module_b__b2-to-system__module_b__b1" style="stroke:#181818;stroke-width:1;"/><polygon fill="#181818" points="237.45,886.4038,238.2831,896.2173,239.8599,890.7847,245.2925,892.3615,237.45,886.4038" style="stroke:#181818;stroke-width:1;"/><text fill="#000000" font-family="sans-serif" font-size="13" lengthAdjust="spacing" textLength="74.3755" x="247.08" y="917.1806">ChainEvent</text></g><g class="entity" data-qualified-name="system.system__shared_target" id="ent0010"><rect fill="#F1F1F1" height="78.2031" rx="12.5" ry="12.5" style="stroke:#181818;stroke-width:0.5;" width="189.916" x="123.24" y="582.4069"/><line style="stroke:#181818;stroke-width:0.5;" x1="123.24" x2="313.156" y1="608.7037" y2="608.7037"/><text fill="#000000" font-family="sans-serif" font-size="14" lengthAdjust="spacing" textLength="95.4707" x="170.4627" y="600.402">SharedTarget</text><text fill="#000000" font-family="sans-serif" font-size="12" lengthAdjust="spacing" textLength="50.1621" x="128.24" y="624.8424">during {</text><text fill="#000000" font-family="sans-serif" font-size="12" lengthAdjust="spacing" textLength="154.6582" x="143.4978" y="638.8112">counter = counter + 100;</text><text fill="#000000" font-family="sans-serif" font-size="12" lengthAdjust="spacing" textLength="7.6348" x="128.24" y="652.7799">}</text></g><g class="start_entity" data-qualified-name="system..start.system" data-source-line="29" id="ent0010"><ellipse cx="218.2" cy="168.6969" fill="#222222" rx="10" ry="10" style="stroke:#222222;stroke-width:1;"/></g><!--link *start*system to system__module_a--><g class="link" data-entity-1="ent0010" data-entity-2="ent0004" data-link-type="dependency" data-source-line="29" id="lnk11"><path d="M218.2,179.1569 C218.2,187.3469 218.2,194.2569 218.2,209.6269" fill="none" id="*start*system-to-system__module_a" style="stroke:#181818;stroke-width:1;"/><polygon fill="#181818" points="218.2,215.6269,222.2,206.6269,218.2,210.6269,214.2,206.6269,218.2,215.6269" style="stroke:#181818;stroke-width:1;"/></g><!--link system__module_a to system__shared_target--><g class="link" data-entity-1="ent0004" data-entity-2="ent0010" data-link-type="dependency" data-source-line="30" id="lnk12"><path d="M161.22,529.8869 C161.79,541.6569 163.96,553.2769 168.2,564.4069 C170.57,570.6169 170.5151,571.6885 174.4551,577.2585" fill="none" id="system__module_a-to-system__shared_target" style="stroke:#181818;stroke-width:1;"/><polygon fill="#181818" points="177.92,582.1569,175.9882,572.4993,175.0326,578.0749,169.457,577.1192,177.92,582.1569" style="stroke:#181818;stroke-width:1;"/><text fill="#000000" font-family="sans-serif" font-size="13" lengthAdjust="spacing" textLength="78.7109" x="169.2" y="560.4738">GlobalEvent</text></g><!--link system__module_b to system__shared_target--><g class="link" data-entity-1="ent0007" data-entity-2="ent0010" data-link-type="dependency" data-source-line="31" id="lnk13"><path d="M242.75,713.2269 C242.35,701.4869 241.23,689.8369 239.2,678.6069 C238.14,672.7769 238.3603,672.4644 236.4703,666.6344" fill="none" id="system__module_b-to-system__shared_target" style="stroke:#181818;stroke-width:1;"/><polygon fill="#181818" points="234.62,660.9269,233.5904,670.7218,236.1619,665.6832,241.2005,668.2547,234.62,660.9269" style="stroke:#181818;stroke-width:1;"/><text fill="#000000" font-family="sans-serif" font-size="13" lengthAdjust="spacing" textLength="78.7109" x="242.2" y="691.6738">GlobalEvent</text></g><!--link system__shared_target to system__module_a--><g class="link" data-entity-1="ent0010" data-entity-2="ent0004" data-link-type="dependency" data-source-line="32" id="lnk14"><path d="M241.91,581.9569 C244.49,576.2469 246.72,570.2969 248.2,564.4069 C251.01,553.1769 252.2607,547.5113 252.7707,535.7213" fill="none" id="system__shared_target-to-system__module_a" style="stroke:#181818;stroke-width:1;"/><polygon fill="#181818" points="253.03,529.7269,248.6448,538.5456,252.8139,534.7222,256.6373,538.8913,253.03,529.7269" style="stroke:#181818;stroke-width:1;"/><text fill="#000000" font-family="sans-serif" font-size="13" lengthAdjust="spacing" textLength="61.6865" x="252.2" y="560.4738">ResetToA</text></g><!--link system__shared_target to system__module_b--><g class="link" data-entity-1="ent0010" data-entity-2="ent0007" data-link-type="dependency" data-source-line="33" id="lnk15"><path d="M181.32,660.8569 C177.61,666.4669 174.4,672.4369 172.2,678.6069 C168.21,689.7569 166.4446,695.4041 165.8646,707.2041" fill="none" id="system__shared_target-to-system__module_b" style="stroke:#181818;stroke-width:1;"/><polygon fill="#181818" points="165.57,713.1969,170.007,704.4041,165.8155,708.2029,162.0167,704.0114,165.57,713.1969" style="stroke:#181818;stroke-width:1;"/><text fill="#000000" font-family="sans-serif" font-size="13" lengthAdjust="spacing" textLength="61.7119" x="173.2" y="691.6738">ResetToB</text></g><g class="start_entity" data-qualified-name=".start." data-source-line="35" id="ent0016"><ellipse cx="216.7" cy="33.7" fill="#222222" rx="10" ry="10" style="stroke:#222222;stroke-width:1;"/></g><g class="end_entity" data-qualified-name=".end." data-source-line="36" id="ent0018"><ellipse cx="216.7" cy="1108.32" fill="none" rx="11" ry="11" style="stroke:#222222;stroke-width:1;"/><ellipse cx="216.7" cy="1108.32" fill="#222222" rx="6" ry="6" style="stroke:#222222;stroke-width:1;"/></g><!--link *start* to system--><g class="link" data-entity-1="ent0016" data-entity-2="ent0003" data-link-type="dependency" data-source-line="35" id="lnk17"><path d="M216.7,44.14 C216.7,57.78 216.7,79.34 216.7,115.08" fill="none" id="*start*-to-system" style="stroke:#181818;stroke-width:1;"/><polygon fill="#181818" points="216.7,121.08,220.7,112.08,216.7,116.08,212.7,112.08,216.7,121.08" style="stroke:#181818;stroke-width:1;"/></g><!--link system to *end*--><g class="link" data-entity-1="ent0003" data-entity-2="ent0018" data-link-type="dependency" data-source-line="36" id="lnk19"><path d="M216.7,1037.62 C216.7,1064.39 216.7,1079.19 216.7,1090.86" fill="none" id="system-to-*end*" style="stroke:#181818;stroke-width:1;"/><polygon fill="#181818" points="216.7,1096.86,220.7,1087.86,216.7,1091.86,212.7,1087.86,216.7,1096.86" style="stroke:#181818;stroke-width:1;"/></g><?plantuml-src dLH1JiCm4Bpx5QiUGKLDZbGW9O2u00VQ6qMMKo-jfTQkOXUfglftx12KXDZ1D2V7CxEpth6y5Xm1jpjp08vwMOgT4KeIgGm2qt2F7q8Aj_LYTmXtlwZXIC1-zW-4DB1KUscmX1kOJCc9eEJWz8HemsoPqUoW3Mv7hfwkbhM-XfyLtsymQ-6KRgizocfcYvqbNYAbB6ce7X2kWUzB8LTmN4X7Qhh-MLr2Cbt8Kyyn3JccGuvfb6FQSNoxU8Vn-FQCqmLKheaikNfIIxPv-4HfXZiEUTigTsicP5FYr4ymzusfw2UOUnCiA2s2Pwp0k0GdlWZpD6IP3bb6HZY9oJ3YV06LwoAFoV2R7FB-8yFPcfN8vwnSeUaCIrS0DHL2shOT93ATPbQXkqvyjxF3_Etxk555UpIzAtYEkClpDMh5hwZHp5NsFsNHA7FxNdO7GUedqkrOv0i0?></g></svg>