<svg xmlns="http://www.w3.org/2000/svg" xmlns:xlink="http://www.w3.org/1999/xlink" contentStyleType="text/css" data-diagram-type="STATE" height="898px" preserveAspectRatio="none" style="width:247px;height:898px;background:#FFFFFF;" version="1.1" viewBox="0 0 247 898" width="247px" zoomAndPan="magnify"><defs/><g><path d="M19.5,86 L221.3409,86 A12.5,12.5 0 0 1 233.8409,98.5 L233.8409,112.2969 L7,112.2969 L7,98.5 A12.5,12.5 0 0 1 19.5,86" fill="#ADD8E6"/><rect fill="none" height="724.8838" rx="12.5" ry="12.5" style="stroke:#181818;stroke-width:0.5;" width="226.8409" x="7" y="86"/><line style="stroke:#181818;stroke-width:0.5;" x1="7" x2="233.8409" y1="112.2969" y2="112.2969"/><text fill="#000000" font-family="sans-serif" font-size="14" lengthAdjust="spacing" textLength="52.2061" x="94.3174" y="103.9951">System</text><path d="M31.5,180.2969 L208.4255,180.2969 A12.5,12.5 0 0 1 220.9255,192.7969 L220.9255,206.5938 L19,206.5938 L19,192.7969 A12.5,12.5 0 0 1 31.5,180.2969" fill="#ADD8E6"/><rect fill="none" height="237.2969" rx="12.5" ry="12.5" style="stroke:#181818;stroke-width:0.5;" width="201.9255" x="19" y="180.2969"/><line style="stroke:#181818;stroke-width:0.5;" x1="19" x2="220.9255" y1="206.5938" y2="206.5938"/><text fill="#000000" font-family="sans-serif" font-size="14" lengthAdjust="spacing" textLength="60.4844" x="89.7206" y="198.292">ModuleA</text><rect fill="#F1F1F1" height="40" rx="12.5" ry="12.5" style="stroke:#181818;stroke-width:0.5;" width="50" x="71.88" y="274.5938"/><text fill="#000000" font-family="sans-serif" font-size="14" lengthAdjust="spacing" textLength="18.4844" x="87.6378" y="299.4404">A1</text><rect fill="#F1F1F1" height="40" rx="12.5" ry="12.5" style="stroke:#181818;stroke-width:0.5;" width="50" x="71.88" y="367.5938"/><text fill="#000000" font-family="sans-serif" font-size="14" lengthAdjust="spacing" textLength="18.4844" x="87.6378" y="392.4404">A2</text><ellipse cx="96.88" cy="227.5938" fill="#222222" rx="10" ry="10" style="stroke:#222222;stroke-width:1;"/><!--link *start*system__module_a to system__module_a__a1--><g class="link" data-entity-1="*start*system__module_a" data-entity-2="system__module_a__a1" data-source-line="14" data-uid="lnk3" id="link_*start*system__module_a_system__module_a__a1"><path d="M96.88,237.9038 C96.88,247.3138 96.88,256.1337 96.88,268.1138" fill="none" id="*start*system__module_a-to-system__module_a__a1" style="stroke:#181818;stroke-width:1;"/><polygon fill="#181818" points="96.88,274.1138,100.88,265.1138,96.88,269.1138,92.88,265.1138,96.88,274.1138" style="stroke:#181818;stroke-width:1;"/></g><!--link system__module_a__a1 to system__module_a__a2--><g class="link" data-entity-1="system__module_a__a1" data-entity-2="system__module_a__a2" data-source-line="15" data-uid="lnk4" id="link_system__module_a__a1_system__module_a__a2"><path d="M71.44,305.2938 C59.59,311.2438 46.64,320.1538 39.88,332.5938 C30,350.8038 46.5685,363.7504 66.0385,373.4404" fill="none" id="system__module_a__a1-to-system__module_a__a2" style="stroke:#181818;stroke-width:1;"/><polygon fill="#181818" points="71.41,376.1138,65.135,368.5227,66.9337,373.886,61.5705,375.6847,71.41,376.1138" style="stroke:#181818;stroke-width:1;"/><text fill="#000000" font-family="sans-serif" font-size="13" lengthAdjust="spacing" textLength="92.46" x="40.88" y="345.6606">A1.LocalEvent</text></g><!--link system__module_a__a2 to system__module_a__a1--><g class="link" data-entity-1="system__module_a__a2" data-entity-2="system__module_a__a1" data-source-line="16" data-uid="lnk5" id="link_system__module_a__a2_system__module_a__a1"><path d="M122.02,367.2338 C131.56,357.4238 139.02,344.9838 133.88,332.5938 C131.17,326.0438 130.825,324.3918 125.885,319.2218" fill="none" id="system__module_a__a2-to-system__module_a__a1" style="stroke:#181818;stroke-width:1;"/><polygon fill="#181818" points="121.74,314.8838,125.0655,324.1542,125.1942,318.4988,130.8496,318.6274,121.74,314.8838" style="stroke:#181818;stroke-width:1;"/><text fill="#000000" font-family="sans-serif" font-size="13" lengthAdjust="spacing" textLength="74.3755" x="136.55" y="345.6606">ChainEvent</text></g><path d="M31.5,563.5869 L208.4255,563.5869 A12.5,12.5 0 0 1 220.9255,576.0869 L220.9255,589.8838 L19,589.8838 L19,576.0869 A12.5,12.5 0 0 1 31.5,563.5869" fill="#ADD8E6"/><rect fill="none" height="237.2969" rx="12.5" ry="12.5" style="stroke:#181818;stroke-width:0.5;" width="201.9255" x="19" y="563.5869"/><line style="stroke:#181818;stroke-width:0.5;" x1="19" x2="220.9255" y1="589.8838" y2="589.8838"/><text fill="#000000" font-family="sans-serif" font-size="14" lengthAdjust="spacing" textLength="60.5117" x="89.7069" y="581.582">ModuleB</text><rect fill="#F1F1F1" height="40" rx="12.5" ry="12.5" style="stroke:#181818;stroke-width:0.5;" width="50" x="71.88" y="657.8838"/><text fill="#000000" font-family="sans-serif" font-size="14" lengthAdjust="spacing" textLength="18.5117" x="87.6241" y="682.7304">B1</text><rect fill="#F1F1F1" height="40" rx="12.5" ry="12.5" style="stroke:#181818;stroke-width:0.5;" width="50" x="71.88" y="750.8838"/><text fill="#000000" font-family="sans-serif" font-size="14" lengthAdjust="spacing" textLength="18.5117" x="87.6241" y="775.7304">B2</text><ellipse cx="96.88" cy="610.8838" fill="#222222" rx="10" ry="10" style="stroke:#222222;stroke-width:1;"/><!--link *start*system__module_b to system__module_b__b1--><g class="link" data-entity-1="*start*system__module_b" data-entity-2="system__module_b__b1" data-source-line="21" data-uid="lnk7" id="link_*start*system__module_b_system__module_b__b1"><path d="M96.88,621.1937 C96.88,630.6038 96.88,639.4237 96.88,651.4038" fill="none" id="*start*system__module_b-to-system__module_b__b1" style="stroke:#181818;stroke-width:1;"/><polygon fill="#181818" points="96.88,657.4038,100.88,648.4038,96.88,652.4038,92.88,648.4038,96.88,657.4038" style="stroke:#181818;stroke-width:1;"/></g><!--link system__module_b__b1 to system__module_b__b2--><g class="link" data-entity-1="system__module_b__b1" data-entity-2="system__module_b__b2" data-source-line="22" data-uid="lnk8" id="link_system__module_b__b1_system__module_b__b2"><path d="M71.44,688.5838 C59.59,694.5337 46.64,703.4437 39.88,715.8838 C30,734.0938 46.5685,747.0404 66.0385,756.7304" fill="none" id="system__module_b__b1-to-system__module_b__b2" style="stroke:#181818;stroke-width:1;"/><polygon fill="#181818" points="71.41,759.4038,65.135,751.8127,66.9337,757.176,61.5705,758.9747,71.41,759.4038" style="stroke:#181818;stroke-width:1;"/><text fill="#000000" font-family="sans-serif" font-size="13" lengthAdjust="spacing" textLength="92.4854" x="40.88" y="728.9506">B1.LocalEvent</text></g><!--link system__module_b__b2 to system__module_b__b1--><g class="link" data-entity-1="system__module_b__b2" data-entity-2="system__module_b__b1" data-source-line="23" data-uid="lnk9" id="link_system__module_b__b2_system__module_b__b1"><path d="M122.02,750.5238 C131.56,740.7137 139.02,728.2738 133.88,715.8838 C131.17,709.3338 130.825,707.6818 125.885,702.5118" fill="none" id="system__module_b__b2-to-system__module_b__b1" style="stroke:#181818;stroke-width:1;"/><polygon fill="#181818" points="121.74,698.1737,125.0655,707.4442,125.1942,701.7888,130.8496,701.9174,121.74,698.1737" style="stroke:#181818;stroke-width:1;"/><text fill="#000000" font-family="sans-serif" font-size="13" lengthAdjust="spacing" textLength="74.3755" x="136.55" y="728.9506">ChainEvent</text></g><rect fill="#F1F1F1" height="40" rx="12.5" ry="12.5" style="stroke:#181818;stroke-width:0.5;" width="105.4707" x="67.23" y="470.5869"/><text fill="#000000" font-family="sans-serif" font-size="14" lengthAdjust="spacing" textLength="95.4707" x="72.23" y="495.4336">SharedTarget</text><ellipse cx="119.96" cy="133.2969" fill="#222222" rx="10" ry="10" style="stroke:#222222;stroke-width:1;"/><!--link *start*system to system__module_a--><g class="link" data-entity-1="*start*system" data-entity-2="system__module_a" data-source-line="26" data-uid="lnk11" id="link_*start*system_system__module_a"><path d="M119.96,143.5569 C119.96,151.8069 119.96,158.8969 119.96,174.0369" fill="none" id="*start*system-to-system__module_a" style="stroke:#181818;stroke-width:1;"/><polygon fill="#181818" points="119.96,180.0369,123.96,171.0369,119.96,175.0369,115.96,171.0369,119.96,180.0369" style="stroke:#181818;stroke-width:1;"/></g><!--link system__module_a to system__shared_target--><g class="link" data-entity-1="system__module_a" data-entity-2="system__shared_target" data-source-line="27" data-uid="lnk12" id="link_system__module_a_system__shared_target"><path d="M62.52,418.0669 C62.29,429.9369 64.44,441.6369 69.96,452.5869 C73.41,459.4369 74.1812,461.4972 80.1512,466.4472" fill="none" id="system__module_a-to-system__shared_target" style="stroke:#181818;stroke-width:1;"/><polygon fill="#181818" points="84.77,470.2769,80.3949,461.4531,80.921,467.0855,75.2886,467.6116,84.77,470.2769" style="stroke:#181818;stroke-width:1;"/><text fill="#000000" font-family="sans-serif" font-size="13" lengthAdjust="spacing" textLength="78.7109" x="70.96" y="448.6538">GlobalEvent</text></g><!--link system__module_b to system__shared_target--><g class="link" data-entity-1="system__module_b" data-entity-2="system__shared_target" data-source-line="28" data-uid="lnk13" id="link_system__module_b_system__shared_target"><path d="M145.48,563.1569 C145.26,551.4069 143.9,539.7169 140.96,528.5869 C139.34,522.4469 139.4107,521.4698 136.2707,515.9598" fill="none" id="system__module_b-to-system__shared_target" style="stroke:#181818;stroke-width:1;"/><polygon fill="#181818" points="133.3,510.7469,134.2808,520.5468,135.7756,515.091,141.2314,516.5858,133.3,510.7469" style="stroke:#181818;stroke-width:1;"/><text fill="#000000" font-family="sans-serif" font-size="13" lengthAdjust="spacing" textLength="78.7109" x="145.13" y="541.6538">GlobalEvent</text></g><!--link system__shared_target to system__module_a--><g class="link" data-entity-1="system__shared_target" data-entity-2="system__module_a" data-source-line="29" data-uid="lnk14" id="link_system__shared_target_system__module_a"><path d="M139.56,470.4069 C143.8,465.0769 147.7,458.9769 149.96,452.5869 C153.89,441.5169 155.5288,435.7963 155.6888,423.9763" fill="none" id="system__shared_target-to-system__module_a" style="stroke:#181818;stroke-width:1;"/><polygon fill="#181818" points="155.77,417.9769,151.6486,426.9219,155.7023,422.9764,159.6478,427.0302,155.77,417.9769" style="stroke:#181818;stroke-width:1;"/><text fill="#000000" font-family="sans-serif" font-size="13" lengthAdjust="spacing" textLength="61.6865" x="155.11" y="448.6538">ResetToA</text></g><!--link system__shared_target to system__module_b--><g class="link" data-entity-1="system__shared_target" data-entity-2="system__module_b" data-source-line="30" data-uid="lnk15" id="link_system__shared_target_system__module_b"><path d="M88.24,510.7269 C82.46,515.7769 77.24,521.7469 73.96,528.5869 C68.7,539.5769 66.5393,545.2873 66.6793,557.1673" fill="none" id="system__shared_target-to-system__module_b" style="stroke:#181818;stroke-width:1;"/><polygon fill="#181818" points="66.75,563.1669,70.6437,554.1204,66.6911,558.1672,62.6442,554.2146,66.75,563.1669" style="stroke:#181818;stroke-width:1;"/><text fill="#000000" font-family="sans-serif" font-size="13" lengthAdjust="spacing" textLength="61.7119" x="74.96" y="541.6538">ResetToB</text></g><ellipse cx="120.42" cy="16" fill="#222222" rx="10" ry="10" style="stroke:#222222;stroke-width:1;"/><ellipse cx="120.42" cy="881.88" fill="none" rx="11" ry="11" style="stroke:#222222;stroke-width:1;"/><ellipse cx="120.42" cy="881.88" fill="#222222" rx="6" ry="6" style="stroke:#222222;stroke-width:1;"/><!--link *start* to system--><g class="link" data-entity-1="*start*" data-entity-2="system" data-source-line="32" data-uid="lnk17" id="link_*start*_system"><path d="M120.42,26.39 C120.42,37.76 120.42,52.77 120.42,79.55" fill="none" id="*start*-to-system" style="stroke:#181818;stroke-width:1;"/><polygon fill="#181818" points="120.42,85.55,124.42,76.55,120.42,80.55,116.42,76.55,120.42,85.55" style="stroke:#181818;stroke-width:1;"/></g><!--link system to *end*--><g class="link" data-entity-1="system" data-entity-2="*end*" data-source-line="33" data-uid="lnk19" id="link_system_*end*"><path d="M120.42,811.08 C120.42,837.84 120.42,852.96 120.42,864.68" fill="none" id="system-to-*end*" style="stroke:#181818;stroke-width:1;"/><polygon fill="#181818" points="120.42,870.68,124.42,861.68,120.42,865.68,116.42,861.68,120.42,870.68" style="stroke:#181818;stroke-width:1;"/></g><!--SRC=[dLFFQuCm5BxdhtZqEEYW7aSfQDbwwIvhRsE4Q1urD1f9dWCP_T-dhbkrnhhj9lb-lEzzCQcI29WLL854brXLa38vO-weya9OaO4ZGGWV320IoV5WJPdBjT76BfU5mrAQrGgswf3InehAnqfCLXYd2B-9aIwn8HehqLvRdLsUJ4uxgZHs84L2guITwdHjfjckSeJP38G3rtv2VreJ6iuBp9wDB3M67JRdMNl6XLVNqOOBhunpiHXGWp5gy4DzlNk3-NmruUS1nrG1F42ukD-QHEZ7TypfbaimEhjsMQT2vHUBqx31oBTVFDLWv6qmvZmUD1W5OzJ91g_yFE2Ogcam-as3N-InsHCDxb9XKUw5FI3rbdGjmAb5sAr_XFbkjSViUTM1Djh4tQK6L_SVSP_d2rgBNz0XxKtuDsLyKKRrO-yNmSuFlJcfaKy0]--></g></svg>