<svg xmlns="http://www.w3.org/2000/svg" xmlns:xlink="http://www.w3.org/1999/xlink" contentStyleType="text/css" data-diagram-type="STATE" height="1050px" preserveAspectRatio="none" style="width:202px;height:1050px;background:#FFFFFF;" version="1.1" viewBox="0 0 202 1050" width="202px" zoomAndPan="magnify"><defs/><g><path d="M19.5,86 L176.334,86 A12.5,12.5 0 0 1 188.834,98.5 L188.834,112.2969 L7,112.2969 L7,98.5 A12.5,12.5 0 0 1 19.5,86" fill="#ADD8E6"/><rect fill="none" height="876.8869" rx="12.5" ry="12.5" style="stroke:#181818;stroke-width:0.5;" width="181.834" x="7" y="86"/><line style="stroke:#181818;stroke-width:0.5;" x1="7" x2="188.834" y1="112.2969" y2="112.2969"/><text fill="#000000" font-family="sans-serif" font-size="14" lengthAdjust="spacing" textLength="137.3887" x="29.2227" y="103.9951">EventScopingDemo</text><path d="M31.5,180.2969 L167.334,180.2969 A12.5,12.5 0 0 1 179.834,192.7969 L179.834,206.5938 L19,206.5938 L19,192.7969 A12.5,12.5 0 0 1 31.5,180.2969" fill="#ADD8E6"/><rect fill="none" height="330.2969" rx="12.5" ry="12.5" style="stroke:#181818;stroke-width:0.5;" width="160.834" x="19" y="180.2969"/><line style="stroke:#181818;stroke-width:0.5;" x1="19" x2="179.834" y1="206.5938" y2="206.5938"/><text fill="#000000" font-family="sans-serif" font-size="14" lengthAdjust="spacing" textLength="140.834" x="29" y="198.292">ChainEventExample</text><rect fill="#F1F1F1" height="40" rx="12.5" ry="12.5" style="stroke:#181818;stroke-width:0.5;" width="50" x="31" y="274.5938"/><text fill="#000000" font-family="sans-serif" font-size="14" lengthAdjust="spacing" textLength="9.5771" x="51.2114" y="299.4404">A</text><rect fill="#F1F1F1" height="40" rx="12.5" ry="12.5" style="stroke:#181818;stroke-width:0.5;" width="50" x="31" y="367.5938"/><text fill="#000000" font-family="sans-serif" font-size="14" lengthAdjust="spacing" textLength="9.6045" x="51.1978" y="392.4404">B</text><rect fill="#F1F1F1" height="40" rx="12.5" ry="12.5" style="stroke:#181818;stroke-width:0.5;" width="50" x="31" y="460.5938"/><text fill="#000000" font-family="sans-serif" font-size="14" lengthAdjust="spacing" textLength="9.7754" x="51.1123" y="485.4404">C</text><ellipse cx="56" cy="227.5938" fill="#222222" rx="10" ry="10" style="stroke:#222222;stroke-width:1;"/><!--link *start*event_scoping_demo__chain_event_example to event_scoping_demo__chain_event_example__a--><g class="link" data-entity-1="*start*event_scoping_demo__chain_event_example" data-entity-2="event_scoping_demo__chain_event_example__a" data-source-line="15" data-uid="lnk3" id="link_*start*event_scoping_demo__chain_event_example_event_scoping_demo__chain_event_example__a"><path d="M56,237.9038 C56,247.3138 56,256.1338 56,268.1138" fill="none" id="*start*event_scoping_demo__chain_event_example-to-event_scoping_demo__chain_event_example__a" style="stroke:#181818;stroke-width:1;"/><polygon fill="#181818" points="56,274.1138,60,265.1138,56,269.1138,52,265.1138,56,274.1138" style="stroke:#181818;stroke-width:1;"/></g><!--link event_scoping_demo__chain_event_example__a to event_scoping_demo__chain_event_example__b--><g class="link" data-entity-1="event_scoping_demo__chain_event_example__a" data-entity-2="event_scoping_demo__chain_event_example__b" data-source-line="16" data-uid="lnk4" id="link_event_scoping_demo__chain_event_example__a_event_scoping_demo__chain_event_example__b"><path d="M56,314.8938 C56,330.3338 56,345.8838 56,361.3238" fill="none" id="event_scoping_demo__chain_event_example__a-to-event_scoping_demo__chain_event_example__b" style="stroke:#181818;stroke-width:1;"/><polygon fill="#181818" points="56,367.3238,60,358.3238,56,362.3238,52,358.3238,56,367.3238" style="stroke:#181818;stroke-width:1;"/><text fill="#000000" font-family="sans-serif" font-size="13" lengthAdjust="spacing" textLength="83.2939" x="57" y="345.6606">SharedEvent</text></g><!--link event_scoping_demo__chain_event_example__b to event_scoping_demo__chain_event_example__c--><g class="link" data-entity-1="event_scoping_demo__chain_event_example__b" data-entity-2="event_scoping_demo__chain_event_example__c" data-source-line="17" data-uid="lnk5" id="link_event_scoping_demo__chain_event_example__b_event_scoping_demo__chain_event_example__c"><path d="M56,407.8938 C56,423.3338 56,438.8838 56,454.3238" fill="none" id="event_scoping_demo__chain_event_example__b-to-event_scoping_demo__chain_event_example__c" style="stroke:#181818;stroke-width:1;"/><polygon fill="#181818" points="56,460.3238,60,451.3238,56,455.3238,52,451.3238,56,460.3238" style="stroke:#181818;stroke-width:1;"/><text fill="#000000" font-family="sans-serif" font-size="13" lengthAdjust="spacing" textLength="83.2939" x="57" y="438.6606">SharedEvent</text></g><path d="M33.23,563.5869 L165.605,563.5869 A12.5,12.5 0 0 1 178.105,576.0869 L178.105,589.8838 L20.73,589.8838 L20.73,576.0869 A12.5,12.5 0 0 1 33.23,563.5869" fill="#ADD8E6"/><rect fill="none" height="330.2969" rx="12.5" ry="12.5" style="stroke:#181818;stroke-width:0.5;" width="157.375" x="20.73" y="563.5869"/><line style="stroke:#181818;stroke-width:0.5;" x1="20.73" x2="178.105" y1="589.8838" y2="589.8838"/><text fill="#000000" font-family="sans-serif" font-size="14" lengthAdjust="spacing" textLength="137.375" x="30.73" y="581.582">LocalEventExample</text><rect fill="#F1F1F1" height="40" rx="12.5" ry="12.5" style="stroke:#181818;stroke-width:0.5;" width="50" x="32.73" y="657.8838"/><text fill="#000000" font-family="sans-serif" font-size="14" lengthAdjust="spacing" textLength="9.5908" x="52.9346" y="682.7304">X</text><rect fill="#F1F1F1" height="40" rx="12.5" ry="12.5" style="stroke:#181818;stroke-width:0.5;" width="50" x="32.73" y="750.8838"/><text fill="#000000" font-family="sans-serif" font-size="14" lengthAdjust="spacing" textLength="8.5518" x="53.4541" y="775.7304">Y</text><rect fill="#F1F1F1" height="40" rx="12.5" ry="12.5" style="stroke:#181818;stroke-width:0.5;" width="50" x="32.73" y="843.8838"/><text fill="#000000" font-family="sans-serif" font-size="14" lengthAdjust="spacing" textLength="9.5908" x="52.9346" y="868.7304">Z</text><ellipse cx="57.73" cy="610.8838" fill="#222222" rx="10" ry="10" style="stroke:#222222;stroke-width:1;"/><!--link *start*event_scoping_demo__local_event_example to event_scoping_demo__local_event_example__x--><g class="link" data-entity-1="*start*event_scoping_demo__local_event_example" data-entity-2="event_scoping_demo__local_event_example__x" data-source-line="23" data-uid="lnk7" id="link_*start*event_scoping_demo__local_event_example_event_scoping_demo__local_event_example__x"><path d="M57.73,621.1938 C57.73,630.6038 57.73,639.4238 57.73,651.4038" fill="none" id="*start*event_scoping_demo__local_event_example-to-event_scoping_demo__local_event_example__x" style="stroke:#181818;stroke-width:1;"/><polygon fill="#181818" points="57.73,657.4038,61.73,648.4038,57.73,652.4038,53.73,648.4038,57.73,657.4038" style="stroke:#181818;stroke-width:1;"/></g><!--link event_scoping_demo__local_event_example__x to event_scoping_demo__local_event_example__y--><g class="link" data-entity-1="event_scoping_demo__local_event_example__x" data-entity-2="event_scoping_demo__local_event_example__y" data-source-line="24" data-uid="lnk8" id="link_event_scoping_demo__local_event_example__x_event_scoping_demo__local_event_example__y"><path d="M57.73,698.1838 C57.73,713.6238 57.73,729.1738 57.73,744.6138" fill="none" id="event_scoping_demo__local_event_example__x-to-event_scoping_demo__local_event_example__y" style="stroke:#181818;stroke-width:1;"/><polygon fill="#181818" points="57.73,750.6138,61.73,741.6138,57.73,745.6138,53.73,741.6138,57.73,750.6138" style="stroke:#181818;stroke-width:1;"/><text fill="#000000" font-family="sans-serif" font-size="13" lengthAdjust="spacing" textLength="84.2017" x="58.73" y="728.9506">X.LocalEvent</text></g><!--link event_scoping_demo__local_event_example__y to event_scoping_demo__local_event_example__z--><g class="link" data-entity-1="event_scoping_demo__local_event_example__y" data-entity-2="event_scoping_demo__local_event_example__z" data-source-line="25" data-uid="lnk9" id="link_event_scoping_demo__local_event_example__y_event_scoping_demo__local_event_example__z"><path d="M57.73,791.1838 C57.73,806.6238 57.73,822.1738 57.73,837.6138" fill="none" id="event_scoping_demo__local_event_example__y-to-event_scoping_demo__local_event_example__z" style="stroke:#181818;stroke-width:1;"/><polygon fill="#181818" points="57.73,843.6138,61.73,834.6138,57.73,838.6138,53.73,834.6138,57.73,843.6138" style="stroke:#181818;stroke-width:1;"/><text fill="#000000" font-family="sans-serif" font-size="13" lengthAdjust="spacing" textLength="83.2368" x="58.73" y="821.9506">Y.LocalEvent</text></g><ellipse cx="99.42" cy="133.2969" fill="#222222" rx="10" ry="10" style="stroke:#222222;stroke-width:1;"/><ellipse cx="99.42" cy="941.8869" fill="none" rx="11" ry="11" style="stroke:#222222;stroke-width:1;"/><ellipse cx="99.42" cy="941.8869" fill="#222222" rx="6" ry="6" style="stroke:#222222;stroke-width:1;"/><!--link *start*event_scoping_demo to event_scoping_demo__chain_event_example--><g class="link" data-entity-1="*start*event_scoping_demo" data-entity-2="event_scoping_demo__chain_event_example" data-source-line="27" data-uid="lnk11" id="link_*start*event_scoping_demo_event_scoping_demo__chain_event_example"><path d="M99.42,143.5969 C99.42,151.6969 99.42,158.5369 99.42,173.9169" fill="none" id="*start*event_scoping_demo-to-event_scoping_demo__chain_event_example" style="stroke:#181818;stroke-width:1;"/><polygon fill="#181818" points="99.42,179.9169,103.42,170.9169,99.42,174.9169,95.42,170.9169,99.42,179.9169" style="stroke:#181818;stroke-width:1;"/></g><!--link event_scoping_demo__chain_event_example to event_scoping_demo__local_event_example--><g class="link" data-entity-1="event_scoping_demo__chain_event_example" data-entity-2="event_scoping_demo__local_event_example" data-source-line="28" data-uid="lnk12" id="link_event_scoping_demo__chain_event_example_event_scoping_demo__local_event_example"><path d="M99.42,510.9169 C99.42,528.2469 99.42,539.8769 99.42,557.2069" fill="none" id="event_scoping_demo__chain_event_example-to-event_scoping_demo__local_event_example" style="stroke:#181818;stroke-width:1;"/><polygon fill="#181818" points="99.42,563.2069,103.42,554.2069,99.42,558.2069,95.42,554.2069,99.42,563.2069" style="stroke:#181818;stroke-width:1;"/><text fill="#000000" font-family="sans-serif" font-size="13" lengthAdjust="spacing" textLength="78.3999" x="100.42" y="541.6538">SwitchMode</text></g><!--link event_scoping_demo__local_event_example to *end*event_scoping_demo--><g class="link" data-entity-1="event_scoping_demo__local_event_example" data-entity-2="*end*event_scoping_demo" data-source-line="29" data-uid="lnk14" id="link_event_scoping_demo__local_event_example_*end*event_scoping_demo"><path d="M99.42,894.2869 C99.42,909.5469 99.42,916.3769 99.42,924.6969" fill="none" id="event_scoping_demo__local_event_example-to-*end*event_scoping_demo" style="stroke:#181818;stroke-width:1;"/><polygon fill="#181818" points="99.42,930.6969,103.42,921.6969,99.42,925.6969,95.42,921.6969,99.42,930.6969" style="stroke:#181818;stroke-width:1;"/></g><ellipse cx="97.92" cy="16" fill="#222222" rx="10" ry="10" style="stroke:#222222;stroke-width:1;"/><ellipse cx="97.92" cy="1033.89" fill="none" rx="11" ry="11" style="stroke:#222222;stroke-width:1;"/><ellipse cx="97.92" cy="1033.89" fill="#222222" rx="6" ry="6" style="stroke:#222222;stroke-width:1;"/><!--link *start* to event_scoping_demo--><g class="link" data-entity-1="*start*" data-entity-2="event_scoping_demo" data-source-line="31" data-uid="lnk16" id="link_*start*_event_scoping_demo"><path d="M97.92,26.23 C97.92,37.49 97.92,52.44 97.92,79.59" fill="none" id="*start*-to-event_scoping_demo" style="stroke:#181818;stroke-width:1;"/><polygon fill="#181818" points="97.92,85.59,101.92,76.59,97.92,80.59,93.92,76.59,97.92,85.59" style="stroke:#181818;stroke-width:1;"/></g><!--link event_scoping_demo to *end*--><g class="link" data-entity-1="event_scoping_demo" data-entity-2="*end*" data-source-line="32" data-uid="lnk18" id="link_event_scoping_demo_*end*"><path d="M97.92,963.13 C97.92,989.86 97.92,1004.69 97.92,1016.39" fill="none" id="event_scoping_demo-to-*end*" style="stroke:#181818;stroke-width:1;"/><polygon fill="#181818" points="97.92,1022.39,101.92,1013.39,97.92,1017.39,93.92,1013.39,97.92,1022.39" style="stroke:#181818;stroke-width:1;"/></g><!--SRC=[dPHHJy8m58NVzojkU3J17s08YI3wWa-yWCOqfRrX3TtQj4KPXlzkor3dCiAkh-tvphatFLkk908MDbGWqGkdR52cp3A_LQNbZXVW0my8dnd0X8ljnfbTAQT66pSQMOyxQSPZcAjD7fuShxfKmXJMU1NmMpZHEqn2uoIwjjNPvT6KOH4gZOqh5RXM8Zl6wKup3MRl65N2M5Lk7h0m0-0UC1qoNvyo6O_Xxmnf5JYlDPZcN9KddzcU5rRZ1G_6H5Ao-WPhRQTnm_oUOiOOR_CJ6hzkyrCQBtxurvit60x7_nczFq9BMCCTB7BkK9vUYvwtfkM9ZhnZipbp8xZkrHoTbBJcB2bcZEtR_8h6Lst-XSOVUZNdokZz4Lf25LzoUVlxNFJ0YXPuY86hTc3T7UA7bH4QJfanTVj31P4_6tavf0jC8N69-1E-l4hMyGi-Sry0]--></g></svg>