<svg xmlns="http://www.w3.org/2000/svg" xmlns:xlink="http://www.w3.org/1999/xlink" contentStyleType="text/css" data-diagram-type="STATE" height="1416px" preserveAspectRatio="none" style="width:493px;height:1416px;background:#FFFFFF;" version="1.1" viewBox="0 0 493 1416" width="493px" zoomAndPan="magnify"><defs/><g><g class="entity" data-entity="DefinitionNote" data-source-line="2" data-uid="ent0002" id="entity_DefinitionNote"><path d="M6,6 L6,91.6641 L202.5825,91.6641 L202.5825,16 L192.5825,6 L6,6" fill="#FEFFDD" style="stroke:#181818;stroke-width:0.5;"/><path d="M192.5825,6 L192.5825,16 L202.5825,16 L192.5825,6" fill="#FEFFDD" style="stroke:#181818;stroke-width:1;"/><text fill="#000000" font-family="sans-serif" font-size="13" lengthAdjust="spacing" textLength="59.8521" x="12" y="23.0669">defines {</text><text fill="#000000" font-family="sans-serif" font-size="13" lengthAdjust="spacing" textLength="85.814" x="28.5293" y="38.1997">def int a = 0;</text><text fill="#000000" font-family="sans-serif" font-size="13" lengthAdjust="spacing" textLength="86.0996" x="28.5293" y="53.3325">def int b = 0;</text><text fill="#000000" font-family="sans-serif" font-size="13" lengthAdjust="spacing" textLength="159.0532" x="28.5293" y="68.4653">def int round_count = 0;</text><text fill="#000000" font-family="sans-serif" font-size="13" lengthAdjust="spacing" textLength="8.271" x="12" y="83.5981">}</text></g><path d="M26.87,151.66 L467.7059,151.66 A12.5,12.5 0 0 1 480.2059,164.16 L480.2059,177.9569 L14.37,177.9569 L14.37,164.16 A12.5,12.5 0 0 1 26.87,151.66" fill="#F1F1F1"/><rect fill="none" height="1177.1369" rx="12.5" ry="12.5" style="stroke:#181818;stroke-width:0.5;" width="465.8359" x="14.37" y="151.66"/><line style="stroke:#181818;stroke-width:0.5;" x1="14.37" x2="480.2059" y1="177.9569" y2="177.9569"/><text fill="#000000" font-family="sans-serif" font-size="14" lengthAdjust="spacing" textLength="79.2695" x="207.6532" y="169.6551">TrafficLight</text><path d="M38.87,245.9569 L458.7059,245.9569 A12.5,12.5 0 0 1 471.2059,258.4569 L471.2059,570.5975 L26.37,570.5975 L26.37,258.4569 A12.5,12.5 0 0 1 38.87,245.9569" fill="#F1F1F1"/><rect fill="none" height="910.8406" rx="12.5" ry="12.5" style="stroke:#181818;stroke-width:0.5;" width="444.8359" x="26.37" y="245.9569"/><line style="stroke:#181818;stroke-width:0.5;" x1="26.37" x2="471.2059" y1="570.5975" y2="570.5975"/><line style="stroke:#181818;stroke-width:0.5;" x1="26.37" x2="471.2059" y1="272.2537" y2="272.2537"/><text fill="#000000" font-family="sans-serif" font-size="14" lengthAdjust="spacing" textLength="64.7432" x="216.4164" y="263.952">InService</text><text fill="#000000" font-family="sans-serif" font-size="12" lengthAdjust="spacing" textLength="43.459" x="31.37" y="283.3924">enter {</text><text fill="#000000" font-family="sans-serif" font-size="12" lengthAdjust="spacing" textLength="36.7148" x="46.6278" y="297.3612">a = 0;</text><text fill="#000000" font-family="sans-serif" font-size="12" lengthAdjust="spacing" textLength="36.9785" x="46.6278" y="311.3299">b = 0;</text><text fill="#000000" font-family="sans-serif" font-size="12" lengthAdjust="spacing" textLength="104.3203" x="46.6278" y="325.2987">round_count = 0;</text><text fill="#000000" font-family="sans-serif" font-size="12" lengthAdjust="spacing" textLength="7.6348" x="31.37" y="339.2674">}</text><text fill="#000000" font-family="sans-serif" font-size="12" lengthAdjust="spacing" textLength="241.0898" x="31.37" y="353.2362">enter abstract InServiceAbstractEnter /*</text><text fill="#000000" font-family="sans-serif" font-size="12" lengthAdjust="spacing" textLength="308.2441" x="46.6278" y="367.2049">Abstract Operation When Entering State 'InService'</text><text fill="#000000" font-family="sans-serif" font-size="12" lengthAdjust="spacing" textLength="375.0996" x="46.6278" y="381.1737">TODO: Should be Implemented In Generated Code Framework</text><ellipse cx="36.87" cy="390.4725" fill="#000000" rx="2.5" ry="2.5"/><text fill="#000000" font-family="sans-serif" font-size="12" lengthAdjust="spacing" textLength="4.043" x="43.37" y="395.1424">/</text><text fill="#000000" font-family="sans-serif" font-size="12" lengthAdjust="spacing" textLength="309.8848" x="31.37" y="409.1112">during before abstract InServiceBeforeEnterChild /*</text><text fill="#000000" font-family="sans-serif" font-size="12" lengthAdjust="spacing" textLength="404.5781" x="46.6278" y="423.0799">Abstract Operation Before Entering Child States of State 'InService'</text><text fill="#000000" font-family="sans-serif" font-size="12" lengthAdjust="spacing" textLength="375.0996" x="46.6278" y="437.0487">TODO: Should be Implemented In Generated Code Framework</text><ellipse cx="36.87" cy="446.3475" fill="#000000" rx="2.5" ry="2.5"/><text fill="#000000" font-family="sans-serif" font-size="12" lengthAdjust="spacing" textLength="4.043" x="43.37" y="451.0174">/</text><text fill="#000000" font-family="sans-serif" font-size="12" lengthAdjust="spacing" textLength="289.5586" x="31.37" y="464.9862">during after abstract InServiceAfterEnterChild /*</text><text fill="#000000" font-family="sans-serif" font-size="12" lengthAdjust="spacing" textLength="394.5352" x="46.6278" y="478.9549">Abstract Operation After Entering Child States of State 'InService'</text><text fill="#000000" font-family="sans-serif" font-size="12" lengthAdjust="spacing" textLength="375.0996" x="46.6278" y="492.9237">TODO: Should be Implemented In Generated Code Framework</text><ellipse cx="36.87" cy="502.2225" fill="#000000" rx="2.5" ry="2.5"/><text fill="#000000" font-family="sans-serif" font-size="12" lengthAdjust="spacing" textLength="4.043" x="43.37" y="506.8924">/</text><text fill="#000000" font-family="sans-serif" font-size="12" lengthAdjust="spacing" textLength="222.1172" x="31.37" y="520.8612">exit abstract InServiceAbstractExit /*</text><text fill="#000000" font-family="sans-serif" font-size="12" lengthAdjust="spacing" textLength="304.5586" x="46.6278" y="534.8299">Abstract Operation When Leaving State 'InService'</text><text fill="#000000" font-family="sans-serif" font-size="12" lengthAdjust="spacing" textLength="375.0996" x="46.6278" y="548.7987">TODO: Should be Implemented In Generated Code Framework</text><ellipse cx="36.87" cy="558.0975" fill="#000000" rx="2.5" ry="2.5"/><text fill="#000000" font-family="sans-serif" font-size="12" lengthAdjust="spacing" textLength="4.043" x="43.37" y="562.7674">/</text><g id="traffic_light.traffic_light__in_service.traffic_light__in_service__red"><rect fill="#F1F1F1" height="78.2031" rx="12.5" ry="12.5" style="stroke:#181818;stroke-width:0.5;" width="107.3457" x="67.05" y="719.5975"/><line style="stroke:#181818;stroke-width:0.5;" x1="67.05" x2="174.3957" y1="745.8944" y2="745.8944"/><text fill="#000000" font-family="sans-serif" font-size="14" lengthAdjust="spacing" textLength="27.2275" x="107.1091" y="737.5926">Red</text><text fill="#000000" font-family="sans-serif" font-size="12" lengthAdjust="spacing" textLength="50.1621" x="72.05" y="762.033">during {</text><text fill="#000000" font-family="sans-serif" font-size="12" lengthAdjust="spacing" textLength="72.0879" x="87.3078" y="776.0018">a = 1 &lt;&lt; 2;</text><text fill="#000000" font-family="sans-serif" font-size="12" lengthAdjust="spacing" textLength="7.6348" x="72.05" y="789.9705">}</text></g><g id="traffic_light.traffic_light__in_service.traffic_light__in_service__yellow"><rect fill="#F1F1F1" height="50" rx="12.5" ry="12.5" style="stroke:#181818;stroke-width:0.5;" width="64.96" x="88.24" y="1096.7975"/><line style="stroke:#181818;stroke-width:0.5;" x1="88.24" x2="153.2" y1="1123.0944" y2="1123.0944"/><text fill="#000000" font-family="sans-serif" font-size="14" lengthAdjust="spacing" textLength="44.96" x="98.24" y="1114.7926">Yellow</text></g><g id="traffic_light.traffic_light__in_service.traffic_light__in_service__green"><rect fill="#F1F1F1" height="50" rx="12.5" ry="12.5" style="stroke:#181818;stroke-width:0.5;" width="62.7041" x="38.37" y="922.2975"/><line style="stroke:#181818;stroke-width:0.5;" x1="38.37" x2="101.0741" y1="948.5944" y2="948.5944"/><text fill="#000000" font-family="sans-serif" font-size="14" lengthAdjust="spacing" textLength="42.7041" x="48.37" y="940.2926">Green</text></g><ellipse cx="120.72" cy="591.5975" fill="#222222" rx="10" ry="10" style="stroke:#222222;stroke-width:1;"/><!--link *start*traffic_light__in_service to traffic_light__in_service__red--><g class="link" data-entity-1=".start.traffic_light__in_service" data-entity-2="traffic_light__in_service__red" data-source-line="15" data-uid="lnk3" id="link_.start.traffic_light__in_service_traffic_light__in_service__red"><path d="M120.72,601.9475 C120.72,624.1175 120.72,674.8975 120.72,713.4175" fill="none" id="*start*traffic_light__in_service-to-traffic_light__in_service__red" style="stroke:#181818;stroke-width:1;"/><polygon fill="#181818" points="120.72,719.4175,124.72,710.4175,120.72,714.4175,116.72,710.4175,120.72,719.4175" style="stroke:#181818;stroke-width:1;"/><text fill="#000000" font-family="sans-serif" font-size="13" lengthAdjust="spacing" textLength="31.7573" x="148.636" y="632.6644">Start</text><path d="M125.72,641.7303 L125.72,696.7303 L202.72,696.7303 L202.72,651.7303 L192.72,641.7303 L125.72,641.7303" fill="#FEFFDD" style="stroke:#181818;stroke-width:0.5;"/><path d="M192.72,641.7303 L192.72,651.7303 L202.72,651.7303 L192.72,641.7303" fill="#FEFFDD" style="stroke:#181818;stroke-width:0.5;"/><text fill="#000000" font-family="sans-serif" font-size="13" lengthAdjust="spacing" textLength="49.7974" x="131.72" y="658.7972">effect {</text><text fill="#000000" font-family="sans-serif" font-size="13" lengthAdjust="spacing" textLength="40.0601" x="148.2493" y="673.93">b = 1;</text><text fill="#000000" font-family="sans-serif" font-size="13" lengthAdjust="spacing" textLength="8.271" x="131.72" y="689.0628">}</text></g><!--link traffic_light__in_service__red to traffic_light__in_service__green--><g class="link" data-entity-1="traffic_light__in_service__red" data-entity-2="traffic_light__in_service__green" data-source-line="21" data-uid="lnk4" id="link_traffic_light__in_service__red_traffic_light__in_service__green"><path d="M80.49,798.0575 C76.54,803.6275 73.11,809.5875 70.72,815.7975 C57.2,850.8975 59.8651,889.4192 64.0651,916.3392" fill="none" id="traffic_light__in_service__red-to-traffic_light__in_service__green" style="stroke:#181818;stroke-width:1;"/><polygon fill="#181818" points="64.99,922.2675,67.5548,912.7585,64.2192,917.3273,59.6504,913.9917,64.99,922.2675" style="stroke:#181818;stroke-width:1;"/><path d="M75.72,820.7975 L75.72,875.7975 L152.72,875.7975 L152.72,830.7975 L142.72,820.7975 L75.72,820.7975" fill="#FEFFDD" style="stroke:#181818;stroke-width:0.5;"/><path d="M142.72,820.7975 L142.72,830.7975 L152.72,830.7975 L142.72,820.7975" fill="#FEFFDD" style="stroke:#181818;stroke-width:0.5;"/><text fill="#000000" font-family="sans-serif" font-size="13" lengthAdjust="spacing" textLength="49.7974" x="81.72" y="837.8644">effect {</text><text fill="#000000" font-family="sans-serif" font-size="13" lengthAdjust="spacing" textLength="40.0601" x="98.2493" y="852.9972">b = 3;</text><text fill="#000000" font-family="sans-serif" font-size="13" lengthAdjust="spacing" textLength="8.271" x="81.72" y="868.13">}</text></g><!--link traffic_light__in_service__green to traffic_light__in_service__yellow--><g class="link" data-entity-1="traffic_light__in_service__green" data-entity-2="traffic_light__in_service__yellow" data-source-line="27" data-uid="lnk5" id="link_traffic_light__in_service__green_traffic_light__in_service__yellow"><path d="M64.07,972.7275 C59.04,999.9975 54.71,1044.7675 70.72,1078.7975 C74.58,1087.0075 76.398,1090.2339 83.278,1096.2339" fill="none" id="traffic_light__in_service__green-to-traffic_light__in_service__yellow" style="stroke:#181818;stroke-width:1;"/><polygon fill="#181818" points="87.8,1100.1775,83.6461,1091.2475,84.0317,1096.8912,78.388,1097.2768,87.8,1100.1775" style="stroke:#181818;stroke-width:1;"/><path d="M75.72,1018.7975 L75.72,1073.7975 L152.72,1073.7975 L152.72,1028.7975 L142.72,1018.7975 L75.72,1018.7975" fill="#FEFFDD" style="stroke:#181818;stroke-width:0.5;"/><path d="M142.72,1018.7975 L142.72,1028.7975 L152.72,1028.7975 L142.72,1018.7975" fill="#FEFFDD" style="stroke:#181818;stroke-width:0.5;"/><text fill="#000000" font-family="sans-serif" font-size="13" lengthAdjust="spacing" textLength="49.7974" x="81.72" y="1035.8644">effect {</text><text fill="#000000" font-family="sans-serif" font-size="13" lengthAdjust="spacing" textLength="40.0601" x="98.2493" y="1050.9972">b = 2;</text><text fill="#000000" font-family="sans-serif" font-size="13" lengthAdjust="spacing" textLength="8.271" x="81.72" y="1066.13">}</text></g><!--link traffic_light__in_service__yellow to traffic_light__in_service__red--><g class="link" data-entity-1="traffic_light__in_service__yellow" data-entity-2="traffic_light__in_service__red" data-source-line="33" data-uid="lnk6" id="link_traffic_light__in_service__yellow_traffic_light__in_service__red"><path d="M147.13,1096.5775 C151.46,1091.1875 155.32,1085.1575 157.72,1078.7975 C199.02,969.4475 191.32,927.7575 157.72,815.7975 C155.91,809.7675 156.1048,809.0385 152.9848,803.3485" fill="none" id="traffic_light__in_service__yellow-to-traffic_light__in_service__red" style="stroke:#181818;stroke-width:1;"/><polygon fill="#181818" points="150.1,798.0875,150.9198,807.9022,152.504,802.4717,157.9345,804.0558,150.1,798.0875" style="stroke:#181818;stroke-width:1;"/><text fill="#000000" font-family="sans-serif" font-size="13" lengthAdjust="spacing" textLength="54.5581" x="288.8938" y="911.8644">a &gt;= 10</text><path d="M190.72,920.9303 L190.72,990.9303 L440.72,990.9303 L440.72,930.9303 L430.72,920.9303 L190.72,920.9303" fill="#FEFFDD" style="stroke:#181818;stroke-width:0.5;"/><path d="M430.72,920.9303 L430.72,930.9303 L440.72,930.9303 L430.72,920.9303" fill="#FEFFDD" style="stroke:#181818;stroke-width:0.5;"/><text fill="#000000" font-family="sans-serif" font-size="13" lengthAdjust="spacing" textLength="49.7974" x="196.72" y="937.9972">effect {</text><text fill="#000000" font-family="sans-serif" font-size="13" lengthAdjust="spacing" textLength="40.0601" x="213.2493" y="953.13">b = 1;</text><text fill="#000000" font-family="sans-serif" font-size="13" lengthAdjust="spacing" textLength="213.3765" x="213.2493" y="968.2628">round_count = round_count + 1;</text><text fill="#000000" font-family="sans-serif" font-size="13" lengthAdjust="spacing" textLength="8.271" x="196.72" y="983.3956">}</text></g><g id="traffic_light.traffic_light__idle"><rect fill="#F1F1F1" height="50" rx="12.5" ry="12.5" style="stroke:#181818;stroke-width:0.5;" width="50" x="223.79" y="1209.7969"/><line style="stroke:#181818;stroke-width:0.5;" x1="223.79" x2="273.79" y1="1236.0937" y2="1236.0937"/><text fill="#000000" font-family="sans-serif" font-size="14" lengthAdjust="spacing" textLength="25.5186" x="236.0307" y="1227.792">Idle</text></g><ellipse cx="248.79" cy="198.9569" fill="#222222" rx="10" ry="10" style="stroke:#222222;stroke-width:1;"/><ellipse cx="248.79" cy="1307.7969" fill="none" rx="11" ry="11" style="stroke:#222222;stroke-width:1;"/><ellipse cx="248.79" cy="1307.7969" fill="#222222" rx="6" ry="6" style="stroke:#222222;stroke-width:1;"/><!--link *start*traffic_light to traffic_light__in_service--><g class="link" data-entity-1=".start.traffic_light" data-entity-2="traffic_light__in_service" data-source-line="43" data-uid="lnk8" id="link_.start.traffic_light_traffic_light__in_service"><path d="M248.79,209.0669 C248.79,216.8869 248.79,223.4269 248.79,239.4969" fill="none" id="*start*traffic_light-to-traffic_light__in_service" style="stroke:#181818;stroke-width:1;"/><polygon fill="#181818" points="248.79,245.4969,252.79,236.4969,248.79,240.4969,244.79,236.4969,248.79,245.4969" style="stroke:#181818;stroke-width:1;"/></g><!--link traffic_light__in_service to traffic_light__idle--><g class="link" data-entity-1="traffic_light__in_service" data-entity-2="traffic_light__idle" data-source-line="44" data-uid="lnk9" id="link_traffic_light__in_service_traffic_light__idle"><path d="M248.79,1157.0869 C248.79,1178.4269 248.79,1190.3869 248.79,1203.5569" fill="none" id="traffic_light__in_service-to-traffic_light__idle" style="stroke:#181818;stroke-width:1;"/><polygon fill="#181818" points="248.79,1209.5569,252.79,1200.5569,248.79,1204.5569,244.79,1200.5569,248.79,1209.5569" style="stroke:#181818;stroke-width:1;"/><text fill="#000000" font-family="sans-serif" font-size="13" lengthAdjust="spacing" textLength="120.1992" x="249.79" y="1187.8638">InService.Maintain</text></g><!--link traffic_light__idle to *end*traffic_light--><g class="link" data-entity-1="traffic_light__idle" data-entity-2=".end.traffic_light" data-source-line="45" data-uid="lnk11" id="link_traffic_light__idle_.end.traffic_light"><path d="M248.79,1260.2269 C248.79,1272.5869 248.79,1280.9269 248.79,1290.3969" fill="none" id="traffic_light__idle-to-*end*traffic_light" style="stroke:#181818;stroke-width:1;"/><polygon fill="#181818" points="248.79,1296.3969,252.79,1287.3969,248.79,1291.3969,244.79,1287.3969,248.79,1296.3969" style="stroke:#181818;stroke-width:1;"/></g><ellipse cx="247.29" cy="48.83" fill="#222222" rx="10" ry="10" style="stroke:#222222;stroke-width:1;"/><ellipse cx="247.29" cy="1399.8" fill="none" rx="11" ry="11" style="stroke:#222222;stroke-width:1;"/><ellipse cx="247.29" cy="1399.8" fill="#222222" rx="6" ry="6" style="stroke:#222222;stroke-width:1;"/><!--link *start* to traffic_light--><g class="link" data-entity-1=".start." data-entity-2="traffic_light" data-source-line="47" data-uid="lnk13" id="link_.start._traffic_light"><path d="M247.29,59.31 C247.29,74.68 247.29,101.75 247.29,145.43" fill="none" id="*start*-to-traffic_light" style="stroke:#181818;stroke-width:1;"/><polygon fill="#181818" points="247.29,151.43,251.29,142.43,247.29,146.43,243.29,142.43,247.29,151.43" style="stroke:#181818;stroke-width:1;"/></g><!--link traffic_light to *end*--><g class="link" data-entity-1="traffic_light" data-entity-2=".end." data-source-line="48" data-uid="lnk15" id="link_traffic_light_.end."><path d="M247.29,1329.05 C247.29,1356.18 247.29,1370.91 247.29,1382.47" fill="none" id="traffic_light-to-*end*" style="stroke:#181818;stroke-width:1;"/><polygon fill="#181818" points="247.29,1388.47,251.29,1379.47,247.29,1383.47,243.29,1379.47,247.29,1388.47" style="stroke:#181818;stroke-width:1;"/></g><!--SRC=[lLLHJzim47xFhpZnWjI9KTWRPKWRR0Y9hTAAD4tB53drfRL8pyXnOHFYl-ykpa9JGXDKCKkjui_VtNts-NnaFO8gu0mpGyORIryPYRHCiO3x27Zm30nvKF0UXgC6b3w5d5sIJgRyxyFYGuIaWSHlL7Z50NUkdCeoCxqqixdVaVW-04akI1MsubxG1DsjcU9JOf8OIegmMXcj67v3lTaaIHpgscep3Ov0BvsX6Tp797GvZ0CuFeR3KKmFwx5_O9xRkwxmVqhMkksvGwGkqvcGQikVWr-mjtVIlOU9LyxNPf8Ji0IveUiQn2p3gLyvJXcIvuDH3JtkjqvjpsFiKDdSrilqlTjMNncyI-5QpbucyN1RYI5wlrmhEE6a3RVFjencLQ_EtlIu605-ldQFcExHhTRMS1I-qvNlzQU52o-cOAdIWjtpJkhduaE5V2hNzmV1nJyKnZVeb3nuy7tEMIzPKjwJiWXtQpUxmUvgV3RcyfdRPQuXHRXOtEIuaDYQGy8vahZZoQdL29-TMk2TTTSn3VPZgbwE53Fhi4NgntAXb70wDnnWWzh0VTGR34hL1TZiDVMhx9cJ5hoV-fBwVyNZR-CtNGzPxheTbwXkN-ToD3gTpjkR7EDHhsU-eypQRDatbr-zexTV53Tn_hMw4h8uOI7SrblbHCrMNh7_0W00]--></g></svg>