<svg xmlns="http://www.w3.org/2000/svg" xmlns:xlink="http://www.w3.org/1999/xlink" contentStyleType="text/css" data-diagram-type="STATE" height="994px" preserveAspectRatio="none" style="width:465px;height:994px;background:#FFFFFF;" version="1.1" viewBox="0 0 465 994" width="465px" zoomAndPan="magnify"><defs/><g><path d="M19.5,86 L439.4,86 A12.5,12.5 0 0 1 451.9,98.5 L451.9,112.2969 L7,112.2969 L7,98.5 A12.5,12.5 0 0 1 19.5,86" fill="#ADD8E6"/><rect fill="none" height="820.5969" rx="12.5" ry="12.5" style="stroke:#181818;stroke-width:0.5;" width="444.9" x="7" y="86"/><line style="stroke:#181818;stroke-width:0.5;" x1="7" x2="451.9" y1="112.2969" y2="112.2969"/><text fill="#000000" font-family="sans-serif" font-size="14" lengthAdjust="spacing" textLength="79.2695" x="189.8152" y="103.9951">TrafficLight</text><path d="M31.5,180.2969 L430.4,180.2969 A12.5,12.5 0 0 1 442.9,192.7969 L442.9,206.5938 L19,206.5938 L19,192.7969 A12.5,12.5 0 0 1 31.5,180.2969" fill="#ADD8E6"/><rect fill="none" height="564.2969" rx="12.5" ry="12.5" style="stroke:#181818;stroke-width:0.5;" width="423.9" x="19" y="180.2969"/><line style="stroke:#181818;stroke-width:0.5;" x1="19" x2="442.9" y1="206.5938" y2="206.5938"/><text fill="#000000" font-family="sans-serif" font-size="14" lengthAdjust="spacing" textLength="64.7432" x="198.5784" y="198.292">InService</text><rect fill="#F1F1F1" height="40" rx="12.5" ry="12.5" style="stroke:#181818;stroke-width:0.5;" width="50" x="83.35" y="355.5938"/><text fill="#000000" font-family="sans-serif" font-size="14" lengthAdjust="spacing" textLength="27.2275" x="94.7362" y="380.4404">Red</text><rect fill="#F1F1F1" height="40" rx="12.5" ry="12.5" style="stroke:#181818;stroke-width:0.5;" width="54.96" x="80.87" y="694.5938"/><text fill="#000000" font-family="sans-serif" font-size="14" lengthAdjust="spacing" textLength="44.96" x="85.87" y="719.4404">Yellow</text><rect fill="#F1F1F1" height="40" rx="12.5" ry="12.5" style="stroke:#181818;stroke-width:0.5;" width="52.7041" x="31" y="525.0938"/><text fill="#000000" font-family="sans-serif" font-size="14" lengthAdjust="spacing" textLength="42.7041" x="36" y="549.9404">Green</text><ellipse cx="108.35" cy="227.5938" fill="#222222" rx="10" ry="10" style="stroke:#222222;stroke-width:1;"/><!--link *start*traffic_light__in_service to traffic_light__in_service__red--><g class="link" data-entity-1="*start*traffic_light__in_service" data-entity-2="traffic_light__in_service__red" data-source-line="15" data-uid="lnk3" id="link_*start*traffic_light__in_service_traffic_light__in_service__red"><path d="M108.35,237.7238 C108.35,261.0738 108.35,317.3438 108.35,349.2138" fill="none" id="*start*traffic_light__in_service-to-traffic_light__in_service__red" style="stroke:#181818;stroke-width:1;"/><polygon fill="#181818" points="108.35,355.2138,112.35,346.2138,108.35,350.2138,104.35,346.2138,108.35,355.2138" style="stroke:#181818;stroke-width:1;"/><text fill="#000000" font-family="sans-serif" font-size="13" lengthAdjust="spacing" textLength="31.7573" x="136.266" y="268.6606">Start</text><path d="M113.35,277.7266 L113.35,332.7266 L190.35,332.7266 L190.35,287.7266 L180.35,277.7266 L113.35,277.7266" fill="#FEFFDD" style="stroke:#181818;stroke-width:0.5;"/><path d="M180.35,277.7266 L180.35,287.7266 L190.35,287.7266 L180.35,277.7266" fill="#FEFFDD" style="stroke:#181818;stroke-width:0.5;"/><text fill="#000000" font-family="sans-serif" font-size="13" lengthAdjust="spacing" textLength="49.7974" x="119.35" y="294.7935">effect {</text><text fill="#000000" font-family="sans-serif" font-size="13" lengthAdjust="spacing" textLength="40.0601" x="135.8793" y="309.9263">b = 1;</text><text fill="#000000" font-family="sans-serif" font-size="13" lengthAdjust="spacing" textLength="8.271" x="119.35" y="325.0591">}</text></g><!--link traffic_light__in_service__red to traffic_light__in_service__green--><g class="link" data-entity-1="traffic_light__in_service__red" data-entity-2="traffic_light__in_service__green" data-source-line="21" data-uid="lnk4" id="link_traffic_light__in_service__red_traffic_light__in_service__green"><path d="M83.11,388.8038 C73.55,394.8338 63.69,403.1038 58.35,413.5938 C40.17,449.3338 45.3892,492.1677 51.1192,518.8277" fill="none" id="traffic_light__in_service__red-to-traffic_light__in_service__green" style="stroke:#181818;stroke-width:1;"/><polygon fill="#181818" points="52.38,524.6938,54.3995,515.0542,51.3293,519.8054,46.5781,516.7352,52.38,524.6938" style="stroke:#181818;stroke-width:1;"/><path d="M63.35,418.5938 L63.35,473.5938 L140.35,473.5938 L140.35,428.5938 L130.35,418.5938 L63.35,418.5938" fill="#FEFFDD" style="stroke:#181818;stroke-width:0.5;"/><path d="M130.35,418.5938 L130.35,428.5938 L140.35,428.5938 L130.35,418.5938" fill="#FEFFDD" style="stroke:#181818;stroke-width:0.5;"/><text fill="#000000" font-family="sans-serif" font-size="13" lengthAdjust="spacing" textLength="49.7974" x="69.35" y="435.6606">effect {</text><text fill="#000000" font-family="sans-serif" font-size="13" lengthAdjust="spacing" textLength="40.0601" x="85.8793" y="450.7935">b = 3;</text><text fill="#000000" font-family="sans-serif" font-size="13" lengthAdjust="spacing" textLength="8.271" x="69.35" y="465.9263">}</text></g><!--link traffic_light__in_service__green to traffic_light__in_service__yellow--><g class="link" data-entity-1="traffic_light__in_service__green" data-entity-2="traffic_light__in_service__yellow" data-source-line="27" data-uid="lnk5" id="link_traffic_light__in_service__green_traffic_light__in_service__yellow"><path d="M52.38,565.4938 C46.65,592.1538 40.17,640.8538 58.35,676.5938 C63.2,686.1238 66.8027,690.4631 75.4927,696.3131" fill="none" id="traffic_light__in_service__green-to-traffic_light__in_service__yellow" style="stroke:#181818;stroke-width:1;"/><polygon fill="#181818" points="80.47,699.6637,75.2379,691.3196,76.3223,696.8716,70.7703,697.956,80.47,699.6637" style="stroke:#181818;stroke-width:1;"/><path d="M63.35,616.5938 L63.35,671.5938 L140.35,671.5938 L140.35,626.5938 L130.35,616.5938 L63.35,616.5938" fill="#FEFFDD" style="stroke:#181818;stroke-width:0.5;"/><path d="M130.35,616.5938 L130.35,626.5938 L140.35,626.5938 L130.35,616.5938" fill="#FEFFDD" style="stroke:#181818;stroke-width:0.5;"/><text fill="#000000" font-family="sans-serif" font-size="13" lengthAdjust="spacing" textLength="49.7974" x="69.35" y="633.6606">effect {</text><text fill="#000000" font-family="sans-serif" font-size="13" lengthAdjust="spacing" textLength="40.0601" x="85.8793" y="648.7935">b = 2;</text><text fill="#000000" font-family="sans-serif" font-size="13" lengthAdjust="spacing" textLength="8.271" x="69.35" y="663.9263">}</text></g><!--link traffic_light__in_service__yellow to traffic_light__in_service__red--><g class="link" data-entity-1="traffic_light__in_service__yellow" data-entity-2="traffic_light__in_service__red" data-source-line="33" data-uid="lnk6" id="link_traffic_light__in_service__yellow_traffic_light__in_service__red"><path d="M133.21,694.3038 C138.15,689.1338 142.64,683.1438 145.35,676.5938 C190.08,568.6038 190.08,521.5838 145.35,413.5938 C142.64,407.0438 142.295,405.3918 137.355,400.2218" fill="none" id="traffic_light__in_service__yellow-to-traffic_light__in_service__red" style="stroke:#181818;stroke-width:1;"/><polygon fill="#181818" points="133.21,395.8838,136.5355,405.1542,136.6642,399.4988,142.3196,399.6274,133.21,395.8838" style="stroke:#181818;stroke-width:1;"/><text fill="#000000" font-family="sans-serif" font-size="13" lengthAdjust="spacing" textLength="54.5581" x="282.0738" y="509.6606">a &gt;= 10</text><path d="M183.9,518.7266 L183.9,588.7266 L433.9,588.7266 L433.9,528.7266 L423.9,518.7266 L183.9,518.7266" fill="#FEFFDD" style="stroke:#181818;stroke-width:0.5;"/><path d="M423.9,518.7266 L423.9,528.7266 L433.9,528.7266 L423.9,518.7266" fill="#FEFFDD" style="stroke:#181818;stroke-width:0.5;"/><text fill="#000000" font-family="sans-serif" font-size="13" lengthAdjust="spacing" textLength="49.7974" x="189.9" y="535.7935">effect {</text><text fill="#000000" font-family="sans-serif" font-size="13" lengthAdjust="spacing" textLength="40.0601" x="206.4293" y="550.9263">b = 1;</text><text fill="#000000" font-family="sans-serif" font-size="13" lengthAdjust="spacing" textLength="213.3765" x="206.4293" y="566.0591">round_count = round_count + 1;</text><text fill="#000000" font-family="sans-serif" font-size="13" lengthAdjust="spacing" textLength="8.271" x="189.9" y="581.1919">}</text></g><rect fill="#F1F1F1" height="40" rx="12.5" ry="12.5" style="stroke:#181818;stroke-width:0.5;" width="50" x="205.95" y="797.5969"/><text fill="#000000" font-family="sans-serif" font-size="14" lengthAdjust="spacing" textLength="25.5186" x="218.1907" y="822.4436">Idle</text><ellipse cx="230.95" cy="133.2969" fill="#222222" rx="10" ry="10" style="stroke:#222222;stroke-width:1;"/><ellipse cx="230.95" cy="885.5969" fill="none" rx="11" ry="11" style="stroke:#222222;stroke-width:1;"/><ellipse cx="230.95" cy="885.5969" fill="#222222" rx="6" ry="6" style="stroke:#222222;stroke-width:1;"/><!--link *start*traffic_light to traffic_light__in_service--><g class="link" data-entity-1="*start*traffic_light" data-entity-2="traffic_light__in_service" data-source-line="42" data-uid="lnk8" id="link_*start*traffic_light_traffic_light__in_service"><path d="M230.95,143.7369 C230.95,151.6969 230.95,158.2969 230.95,173.9869" fill="none" id="*start*traffic_light-to-traffic_light__in_service" style="stroke:#181818;stroke-width:1;"/><polygon fill="#181818" points="230.95,179.9869,234.95,170.9869,230.95,174.9869,226.95,170.9869,230.95,179.9869" style="stroke:#181818;stroke-width:1;"/></g><!--link traffic_light__in_service to traffic_light__idle--><g class="link" data-entity-1="traffic_light__in_service" data-entity-2="traffic_light__idle" data-source-line="43" data-uid="lnk9" id="link_traffic_light__in_service_traffic_light__idle"><path d="M230.95,744.7069 C230.95,766.2969 230.95,778.6069 230.95,791.3569" fill="none" id="traffic_light__in_service-to-traffic_light__idle" style="stroke:#181818;stroke-width:1;"/><polygon fill="#181818" points="230.95,797.3569,234.95,788.3569,230.95,792.3569,226.95,788.3569,230.95,797.3569" style="stroke:#181818;stroke-width:1;"/><text fill="#000000" font-family="sans-serif" font-size="13" lengthAdjust="spacing" textLength="120.1992" x="231.95" y="775.6638">InService.Maintain</text></g><!--link traffic_light__idle to *end*traffic_light--><g class="link" data-entity-1="traffic_light__idle" data-entity-2="*end*traffic_light" data-source-line="44" data-uid="lnk11" id="link_traffic_light__idle_*end*traffic_light"><path d="M230.95,838.0469 C230.95,849.9069 230.95,858.5969 230.95,868.2669" fill="none" id="traffic_light__idle-to-*end*traffic_light" style="stroke:#181818;stroke-width:1;"/><polygon fill="#181818" points="230.95,874.2669,234.95,865.2669,230.95,869.2669,226.95,865.2669,230.95,874.2669" style="stroke:#181818;stroke-width:1;"/></g><ellipse cx="229.45" cy="16" fill="#222222" rx="10" ry="10" style="stroke:#222222;stroke-width:1;"/><ellipse cx="229.45" cy="977.6" fill="none" rx="11" ry="11" style="stroke:#222222;stroke-width:1;"/><ellipse cx="229.45" cy="977.6" fill="#222222" rx="6" ry="6" style="stroke:#222222;stroke-width:1;"/><!--link *start* to traffic_light--><g class="link" data-entity-1="*start*" data-entity-2="traffic_light" data-source-line="46" data-uid="lnk13" id="link_*start*_traffic_light"><path d="M229.45,26.13 C229.45,37.43 229.45,52.57 229.45,79.86" fill="none" id="*start*-to-traffic_light" style="stroke:#181818;stroke-width:1;"/><polygon fill="#181818" points="229.45,85.86,233.45,76.86,229.45,80.86,225.45,76.86,229.45,85.86" style="stroke:#181818;stroke-width:1;"/></g><!--link traffic_light to *end*--><g class="link" data-entity-1="traffic_light" data-entity-2="*end*" data-source-line="47" data-uid="lnk15" id="link_traffic_light_*end*"><path d="M229.45,906.91 C229.45,933.83 229.45,948.86 229.45,960.5" fill="none" id="traffic_light-to-*end*" style="stroke:#181818;stroke-width:1;"/><polygon fill="#181818" points="229.45,966.5,233.45,957.5,229.45,961.5,225.45,957.5,229.45,966.5" style="stroke:#181818;stroke-width:1;"/></g><!--SRC=[fLHTIyCm57tFhxZiKPduyQQp3nCSWhuuNqGanEHs2ykIajufHVRVJRfPsrhMZGLQoCqvvvxavcQk5G8kCof0OIwzpaWxorY-q3OJNYmX9q48tmnWBEHYvjtAgZjdd1-DiXnNoYK9FEhPd2PU55qewPQPopNXBt1iLXY1pYlqRQcjohspDAN2O6r9ap1QidLmLteQl7YHfbgMeWCGET0cm4sCG3Drt05iTpDui5FqdrhYVnhdsl9yizefKPDvHhLRW7EFgirwHMFSLn-nA55jxiGZsZxgB88gvjl9Emo7IOz9k8Of2KyLpRgGpramsYwg8AOfIgeTH1mVS0iNDrLe_OUsgfIf0ZqMUbmsjtMOlwjZ_PN9-nosQdQOnSjZBMwoxrTh0KaesldnrOwZx7Okmv_2OdrskiV5M3SQKvdkdWnnjjTjPZjFgPCRjCEHL6_2sPFGbiBNAHN1KIGO2KzHfntMV8Usw1y0]--></g></svg>