<?xml version="1.0" encoding="us-ascii" standalone="no"?><svg xmlns="http://www.w3.org/2000/svg" xmlns:xlink="http://www.w3.org/1999/xlink" contentStyleType="text/css" height="618px" preserveAspectRatio="none" style="width:684px;height:618px;background:#FFFFFF;" version="1.1" viewBox="0 0 684 618" width="684px" zoomAndPan="magnify"><defs/><g><rect fill="#DDDDDD" height="111.7813" id="_legend" rx="7.5" ry="7.5" style="stroke:#000000;stroke-width:1.0;" width="233" x="12" y="12"/><text fill="#000000" font-family="sans-serif" font-size="14" font-weight="bold" lengthAdjust="spacing" textLength="64" x="22" y="31.9951">Variable</text><text fill="#000000" font-family="sans-serif" font-size="14" font-weight="bold" lengthAdjust="spacing" textLength="39" x="96" y="31.9951">Type</text><text fill="#000000" font-family="sans-serif" font-size="14" font-weight="bold" lengthAdjust="spacing" textLength="90" x="145" y="31.9951">Initial Value</text><text fill="#000000" font-family="sans-serif" font-size="14" lengthAdjust="spacing" textLength="7" x="21" y="48.292">x</text><text fill="#000000" font-family="sans-serif" font-size="14" lengthAdjust="spacing" textLength="17" x="95" y="48.292">int</text><text fill="#000000" font-family="sans-serif" font-size="14" lengthAdjust="spacing" textLength="9" x="144" y="48.292">1</text><text fill="#000000" font-family="sans-serif" font-size="14" lengthAdjust="spacing" textLength="7" x="21" y="64.5889">y</text><text fill="#000000" font-family="sans-serif" font-size="14" lengthAdjust="spacing" textLength="17" x="95" y="64.5889">int</text><text fill="#000000" font-family="sans-serif" font-size="14" lengthAdjust="spacing" textLength="9" x="144" y="64.5889">2</text><text fill="#000000" font-family="sans-serif" font-size="14" lengthAdjust="spacing" textLength="24" x="21" y="80.8857">flag</text><text fill="#000000" font-family="sans-serif" font-size="14" lengthAdjust="spacing" textLength="17" x="95" y="80.8857">int</text><text fill="#000000" font-family="sans-serif" font-size="14" lengthAdjust="spacing" textLength="9" x="144" y="80.8857">0</text><text fill="#000000" font-family="sans-serif" font-size="14" lengthAdjust="spacing" textLength="39" x="21" y="97.1826">score</text><text fill="#000000" font-family="sans-serif" font-size="14" lengthAdjust="spacing" textLength="17" x="95" y="97.1826">int</text><text fill="#000000" font-family="sans-serif" font-size="14" lengthAdjust="spacing" textLength="9" x="144" y="97.1826">0</text><text fill="#000000" font-family="sans-serif" font-size="14" lengthAdjust="spacing" textLength="35" x="21" y="113.4795">wave</text><text fill="#000000" font-family="sans-serif" font-size="14" lengthAdjust="spacing" textLength="29" x="95" y="113.4795">float</text><text fill="#000000" font-family="sans-serif" font-size="14" lengthAdjust="spacing" textLength="22" x="144" y="113.4795">0.0</text><line style="stroke:#000000;stroke-width:1.0;" x1="17" x2="240" y1="19" y2="19"/><line style="stroke:#000000;stroke-width:1.0;" x1="17" x2="240" y1="35.2969" y2="35.2969"/><line style="stroke:#000000;stroke-width:1.0;" x1="17" x2="240" y1="51.5938" y2="51.5938"/><line style="stroke:#000000;stroke-width:1.0;" x1="17" x2="240" y1="67.8906" y2="67.8906"/><line style="stroke:#000000;stroke-width:1.0;" x1="17" x2="240" y1="84.1875" y2="84.1875"/><line style="stroke:#000000;stroke-width:1.0;" x1="17" x2="240" y1="100.4844" y2="100.4844"/><line style="stroke:#000000;stroke-width:1.0;" x1="17" x2="240" y1="116.7813" y2="116.7813"/><line style="stroke:#000000;stroke-width:1.0;" x1="17" x2="17" y1="19" y2="116.7813"/><line style="stroke:#000000;stroke-width:1.0;" x1="91" x2="91" y1="19" y2="116.7813"/><line style="stroke:#000000;stroke-width:1.0;" x1="140" x2="140" y1="19" y2="116.7813"/><line style="stroke:#000000;stroke-width:1.0;" x1="240" x2="240" y1="19" y2="116.7813"/><path d="M19.5,222.7813 L658.91,222.7813 A12.5,12.5 0 0 1 671.41,235.2813 L671.41,249.0781 L7,249.0781 L7,235.2813 A12.5,12.5 0 0 1 19.5,222.7813 " fill="#ADD8E6" style="stroke:#ADD8E6;stroke-width:1.0;"/><rect fill="none" height="310.2969" rx="12.5" ry="12.5" style="stroke:#181818;stroke-width:0.5;" width="664.41" x="7" y="222.7813"/><line style="stroke:#181818;stroke-width:0.5;" x1="7" x2="671.41" y1="249.0781" y2="249.0781"/><text fill="#000000" font-family="sans-serif" font-size="14" lengthAdjust="spacing" textLength="194" x="242.205" y="240.7764">ExpressionConditionTernary</text><rect fill="#F1F1F1" height="40" rx="12.5" ry="12.5" style="stroke:#181818;stroke-width:0.5;" width="75" x="270.91" y="317.0781"/><text fill="#000000" font-family="sans-serif" font-size="14" lengthAdjust="spacing" textLength="65" x="275.91" y="341.9248">Checking</text><rect fill="#F1F1F1" height="40" rx="12.5" ry="12.5" style="stroke:#181818;stroke-width:0.5;" width="70" x="139.41" y="410.0781"/><text fill="#000000" font-family="sans-serif" font-size="14" lengthAdjust="spacing" textLength="60" x="144.41" y="434.9248">Matched</text><rect fill="#F1F1F1" height="40" rx="12.5" ry="12.5" style="stroke:#181818;stroke-width:0.5;" width="66" x="523.41" y="410.0781"/><text fill="#000000" font-family="sans-serif" font-size="14" lengthAdjust="spacing" textLength="56" x="528.41" y="434.9248">Blocked</text><ellipse cx="308.41" cy="270.0781" fill="#181818" rx="10" ry="10" style="stroke:none;stroke-width:1.0;"/><ellipse cx="373.41" cy="513.0781" fill="none" rx="10" ry="10" style="stroke:#181818;stroke-width:1.0;"/><ellipse cx="373.91" cy="513.5781" fill="#181818" rx="6" ry="6" style="stroke:none;stroke-width:1.0;"/><!--link *start*expression_condition_ternary to expression_condition_ternary__checking--><g id="link_*start*expression_condition_ternary_expression_condition_ternary__checking"><path d="M308.41,280.3881 C308.41,288.3281 308.41,300.1181 308.41,310.8081 " fill="none" id="*start*expression_condition_ternary-to-expression_condition_ternary__checking" style="stroke:#181818;stroke-width:1.0;"/><polygon fill="#181818" points="308.41,315.5981,312.41,306.5981,308.41,310.5981,304.41,306.5981,308.41,315.5981" style="stroke:#181818;stroke-width:1.0;"/></g><!--link expression_condition_ternary__checking to expression_condition_ternary__matched--><g id="link_expression_condition_ternary__checking_expression_condition_ternary__matched"><path d="M270.45,337.5981 C204.76,337.6581 74.11,342.0581 45.41,375.0781 C18,406.6181 85.78,420.1581 133.13,425.6481 " fill="none" id="expression_condition_ternary__checking-to-expression_condition_ternary__matched" style="stroke:#181818;stroke-width:1.0;"/><polygon fill="#181818" points="138.08,426.3081,129.5674,421.3548,133.1095,425.7654,128.699,429.3075,138.08,426.3081" style="stroke:#181818;stroke-width:1.0;"/><text fill="#000000" font-family="sans-serif" font-size="13" lengthAdjust="spacing" textLength="504" x="46.41" y="388.145">(x &lt; y &amp;&amp; flag == 1 || x == y) &amp;&amp; ((x &gt; 0 =&gt; y &gt; 0) &amp;&amp; (x &lt; y xor flag == 0))</text></g><!--link expression_condition_ternary__checking to expression_condition_ternary__blocked--><g id="link_expression_condition_ternary__checking_expression_condition_ternary__blocked"><path d="M346.38,338.3781 C407.62,339.7181 524.11,346.1281 551.41,375.0781 C558.54,382.6381 560.45,393.7081 560.32,403.8681 " fill="none" id="expression_condition_ternary__checking-to-expression_condition_ternary__blocked" style="stroke:#181818;stroke-width:1.0;"/><polygon fill="#181818" points="560.03,408.7081,564.4619,399.9128,560.2726,403.714,556.4713,399.5247,560.03,408.7081" style="stroke:#181818;stroke-width:1.0;"/><text fill="#000000" font-family="sans-serif" font-size="13" lengthAdjust="spacing" textLength="85" x="559.41" y="388.145">x &gt; y iff False</text></g><!--link expression_condition_ternary__matched to *end*expression_condition_ternary--><g id="link_expression_condition_ternary__matched_*end*expression_condition_ternary"><path d="M192.55,450.3981 C204.7,462.1981 221.68,476.5981 239.41,485.0781 C279.05,504.0381 331.45,509.6981 357.41,511.3781 " fill="none" id="expression_condition_ternary__matched-to-*end*expression_condition_ternary" style="stroke:#181818;stroke-width:1.0;"/><polygon fill="#181818" points="362.13,511.7081,353.3729,507.2012,357.1381,511.4229,352.9165,515.1882,362.13,511.7081" style="stroke:#181818;stroke-width:1.0;"/><text fill="#000000" font-family="sans-serif" font-size="13" lengthAdjust="spacing" textLength="244" x="240.41" y="481.145">score &gt;= 0 &amp;&amp; ((x &lt; y) ? True : False)</text></g><!--link expression_condition_ternary__blocked to *end*expression_condition_ternary--><g id="link_expression_condition_ternary__blocked_*end*expression_condition_ternary"><path d="M537.24,450.4681 C524.66,462.1381 507.27,476.3681 489.41,485.0781 C456.11,501.3081 412.61,508.0481 389.49,510.6281 " fill="none" id="expression_condition_ternary__blocked-to-*end*expression_condition_ternary" style="stroke:#181818;stroke-width:1.0;"/><polygon fill="#181818" points="384.54,511.2481,393.9038,514.3008,389.5135,510.7336,393.0806,506.3433,384.54,511.2481" style="stroke:#181818;stroke-width:1.0;"/><text fill="#000000" font-family="sans-serif" font-size="13" lengthAdjust="spacing" textLength="146" x="515.41" y="481.145">!(x &lt; y) || wave &gt;= 0.0</text></g><ellipse cx="339" cy="152.7813" fill="#181818" rx="10" ry="10" style="stroke:none;stroke-width:1.0;"/><ellipse cx="339" cy="602.7813" fill="none" rx="10" ry="10" style="stroke:#181818;stroke-width:1.0;"/><ellipse cx="339.5" cy="603.2813" fill="#181818" rx="6" ry="6" style="stroke:none;stroke-width:1.0;"/><!--link *start* to expression_condition_ternary--><g id="link_*start*_expression_condition_ternary"><path d="M339,163.0813 C339,173.9813 339,193.5213 339,216.5013 " fill="none" id="*start*-to-expression_condition_ternary" style="stroke:#181818;stroke-width:1.0;"/><polygon fill="#181818" points="339,221.4113,343,212.4113,339,216.4113,335,212.4113,339,221.4113" style="stroke:#181818;stroke-width:1.0;"/></g><!--link expression_condition_ternary to *end*--><g id="link_expression_condition_ternary_*end*"><path d="M339,533.0513 C339,554.7313 339,573.8713 339,586.4113 " fill="none" id="expression_condition_ternary-to-*end*" style="stroke:#181818;stroke-width:1.0;"/><polygon fill="#181818" points="339,591.3413,343,582.3413,339,586.3413,335,582.3413,339,591.3413" style="stroke:#181818;stroke-width:1.0;"/></g><!--SRC=[hLDDImCn4BtdLumzY1LQgiVIhj2Y8kZ9uaLaYTdPRMYQB4cgNLp_kvFzgBM8hk1bDtdpvklDP2aJ15pdle04dR0ozz9enjnAwfnRlWRdkKTuOm0pBbQPDHkTp8qoTZB97MuI4qLmAxEblxQy-8ubp3etJdfiYJErmK0qDa5x6Ag9ScMql_U5mZsJz5n9mTuPKvYXJi2R71IcdfLJUE1MycU5GET5aLV_6oszv8fib15ALi8MIf3Qq_UikXUx-tbrJnNFTj2eWfmm5W-mL_uIe5GPNe7305D5TLsaNgLPxtARMtIE19qRdSYWx0AjvhRe0NU0EtCiMdliQm9yrIt83yqeUlCb2XfFzckGE1ODTT_zZdk2amxUwvgvxpnJHgmwEJ_NpChvyVG91eFeByLsetQ8sZG1OpZPmeGcVdnSZtaw3KiGTe9EHJ_W9qI9QCRJY7XqgC7QRMlipc_Kx_zlaOrOL6Gee02Pfd35bSCEQTe6GvOWzBXPsOZgR9kQX0OlO67f7Opho5qwQClw37tK1YkRLn2o34VqABlCcFsuyasM3m00]--></g></svg>