<svg xmlns="http://www.w3.org/2000/svg" xmlns:xlink="http://www.w3.org/1999/xlink" contentStyleType="text/css" data-diagram-type="STATE" height="656px" preserveAspectRatio="none" style="width:229px;height:656px;background:#FFFFFF;" version="1.1" viewBox="0 0 229 656" width="229px" zoomAndPan="magnify"><defs/><g><path d="M19.5,86 L203.7529,86 A12.5,12.5 0 0 1 216.2529,98.5 L216.2529,112.2969 L7,112.2969 L7,98.5 A12.5,12.5 0 0 1 19.5,86" fill="#ADD8E6"/><rect fill="none" height="482.2969" rx="12.5" ry="12.5" style="stroke:#181818;stroke-width:0.5;" width="209.2529" x="7" y="86"/><line style="stroke:#181818;stroke-width:0.5;" x1="7" x2="216.2529" y1="112.2969" y2="112.2969"/><text fill="#000000" font-family="sans-serif" font-size="14" lengthAdjust="spacing" textLength="117.8994" x="52.6767" y="103.9951">ExpressionDemo</text><rect fill="#F1F1F1" height="40" rx="12.5" ry="12.5" style="stroke:#181818;stroke-width:0.5;" width="110.1123" x="20.26" y="180.2969"/><text fill="#000000" font-family="sans-serif" font-size="14" lengthAdjust="spacing" textLength="100.1123" x="25.26" y="205.1436">ArithmeticOps</text><rect fill="#F1F1F1" height="40" rx="12.5" ry="12.5" style="stroke:#181818;stroke-width:0.5;" width="87.4307" x="31.6" y="273.2969"/><text fill="#000000" font-family="sans-serif" font-size="14" lengthAdjust="spacing" textLength="77.4307" x="36.6" y="298.1436">BitwiseOps</text><rect fill="#F1F1F1" height="40" rx="12.5" ry="12.5" style="stroke:#181818;stroke-width:0.5;" width="112.6279" x="19" y="366.2969"/><text fill="#000000" font-family="sans-serif" font-size="14" lengthAdjust="spacing" textLength="102.6279" x="24" y="391.1436">MathFunctions</text><rect fill="#F1F1F1" height="40" rx="12.5" ry="12.5" style="stroke:#181818;stroke-width:0.5;" width="103.4268" x="23.6" y="459.2969"/><text fill="#000000" font-family="sans-serif" font-size="14" lengthAdjust="spacing" textLength="93.4268" x="28.6" y="484.1436">ComplexExpr</text><ellipse cx="75.31" cy="133.2969" fill="#222222" rx="10" ry="10" style="stroke:#222222;stroke-width:1;"/><ellipse cx="75.31" cy="547.2969" fill="none" rx="11" ry="11" style="stroke:#222222;stroke-width:1;"/><ellipse cx="75.31" cy="547.2969" fill="#222222" rx="6" ry="6" style="stroke:#222222;stroke-width:1;"/><!--link *start*expression_demo to expression_demo__arithmetic_ops--><g class="link" data-entity-1="*start*expression_demo" data-entity-2="expression_demo__arithmetic_ops" data-source-line="15" data-uid="lnk3" id="link_*start*expression_demo_expression_demo__arithmetic_ops"><path d="M75.31,143.6069 C75.31,153.0169 75.31,161.8369 75.31,173.8169" fill="none" id="*start*expression_demo-to-expression_demo__arithmetic_ops" style="stroke:#181818;stroke-width:1;"/><polygon fill="#181818" points="75.31,179.8169,79.31,170.8169,75.31,174.8169,71.31,170.8169,75.31,179.8169" style="stroke:#181818;stroke-width:1;"/></g><!--link expression_demo__arithmetic_ops to expression_demo__bitwise_ops--><g class="link" data-entity-1="expression_demo__arithmetic_ops" data-entity-2="expression_demo__bitwise_ops" data-source-line="16" data-uid="lnk4" id="link_expression_demo__arithmetic_ops_expression_demo__bitwise_ops"><path d="M75.31,220.5969 C75.31,236.0369 75.31,251.5869 75.31,267.0269" fill="none" id="expression_demo__arithmetic_ops-to-expression_demo__bitwise_ops" style="stroke:#181818;stroke-width:1;"/><polygon fill="#181818" points="75.31,273.0269,79.31,264.0269,75.31,268.0269,71.31,264.0269,75.31,273.0269" style="stroke:#181818;stroke-width:1;"/><text fill="#000000" font-family="sans-serif" font-size="13" lengthAdjust="spacing" textLength="127.6069" x="76.31" y="251.3638">ArithmeticOps.Next</text></g><!--link expression_demo__bitwise_ops to expression_demo__math_functions--><g class="link" data-entity-1="expression_demo__bitwise_ops" data-entity-2="expression_demo__math_functions" data-source-line="17" data-uid="lnk5" id="link_expression_demo__bitwise_ops_expression_demo__math_functions"><path d="M75.31,313.5969 C75.31,329.0369 75.31,344.5869 75.31,360.0269" fill="none" id="expression_demo__bitwise_ops-to-expression_demo__math_functions" style="stroke:#181818;stroke-width:1;"/><polygon fill="#181818" points="75.31,366.0269,79.31,357.0269,75.31,361.0269,71.31,357.0269,75.31,366.0269" style="stroke:#181818;stroke-width:1;"/><text fill="#000000" font-family="sans-serif" font-size="13" lengthAdjust="spacing" textLength="106.5454" x="76.31" y="344.3638">BitwiseOps.Next</text></g><!--link expression_demo__math_functions to expression_demo__complex_expr--><g class="link" data-entity-1="expression_demo__math_functions" data-entity-2="expression_demo__complex_expr" data-source-line="18" data-uid="lnk6" id="link_expression_demo__math_functions_expression_demo__complex_expr"><path d="M75.31,406.5969 C75.31,422.0369 75.31,437.5869 75.31,453.0269" fill="none" id="expression_demo__math_functions-to-expression_demo__complex_expr" style="stroke:#181818;stroke-width:1;"/><polygon fill="#181818" points="75.31,459.0269,79.31,450.0269,75.31,454.0269,71.31,450.0269,75.31,459.0269" style="stroke:#181818;stroke-width:1;"/><text fill="#000000" font-family="sans-serif" font-size="13" lengthAdjust="spacing" textLength="129.9429" x="76.31" y="437.3638">MathFunctions.Next</text></g><!--link expression_demo__complex_expr to *end*expression_demo--><g class="link" data-entity-1="expression_demo__complex_expr" data-entity-2="*end*expression_demo" data-source-line="19" data-uid="lnk8" id="link_expression_demo__complex_expr_*end*expression_demo"><path d="M75.31,499.7469 C75.31,511.6069 75.31,520.2969 75.31,529.9669" fill="none" id="expression_demo__complex_expr-to-*end*expression_demo" style="stroke:#181818;stroke-width:1;"/><polygon fill="#181818" points="75.31,535.9669,79.31,526.9669,75.31,530.9669,71.31,526.9669,75.31,535.9669" style="stroke:#181818;stroke-width:1;"/></g><ellipse cx="111.63" cy="16" fill="#222222" rx="10" ry="10" style="stroke:#222222;stroke-width:1;"/><ellipse cx="111.63" cy="639.3" fill="none" rx="11" ry="11" style="stroke:#222222;stroke-width:1;"/><ellipse cx="111.63" cy="639.3" fill="#222222" rx="6" ry="6" style="stroke:#222222;stroke-width:1;"/><!--link *start* to expression_demo--><g class="link" data-entity-1="*start*" data-entity-2="expression_demo" data-source-line="21" data-uid="lnk10" id="link_*start*_expression_demo"><path d="M111.63,26.26 C111.63,37.81 111.63,53.3 111.63,79.69" fill="none" id="*start*-to-expression_demo" style="stroke:#181818;stroke-width:1;"/><polygon fill="#181818" points="111.63,85.69,115.63,76.69,111.63,80.69,107.63,76.69,111.63,85.69" style="stroke:#181818;stroke-width:1;"/></g><!--link expression_demo to *end*--><g class="link" data-entity-1="expression_demo" data-entity-2="*end*" data-source-line="22" data-uid="lnk12" id="link_expression_demo_*end*"><path d="M111.63,568.7 C111.63,594.6 111.63,609.88 111.63,621.83" fill="none" id="expression_demo-to-*end*" style="stroke:#181818;stroke-width:1;"/><polygon fill="#181818" points="111.63,627.83,115.63,618.83,111.63,622.83,107.63,618.83,111.63,627.83" style="stroke:#181818;stroke-width:1;"/></g><!--SRC=[ZPBDJiCm48JlUOfLZaZb0L0LYHJAXPy3HuGiOo-DrIIsx8r8X7XtxFxXH4xfrJlVU6ViIaa4R0mD8D49gmmftMQPswhMSCiRSCG9uJi3ABdORgpkMhdIjRRBfN7OILqKyAWs5JrOFgHKGZT6EqLu59PrXq6ehKGxjJguh7LBhpJK68qKyLg9xCTljzifl- -DHUVymdVOw1ou0pmTCUdFO7nzI067HFcjLLGrI4gy69U26UCd2TF6nN2fw4ivd2K_zlCfziIfMdUj22NFa8sNiC-Z9ePNFacDVKYTHiLUmC9W1xvTlSDYKLmKx1zDsYUA2JSmQlJw6NjAEyTKqdRSWNV-g_kCxOHAEiSLUT_HUvon7c71s3VhF-9Clzdq5nw8Nm00]--></g></svg>