<svg xmlns="http://www.w3.org/2000/svg" xmlns:xlink="http://www.w3.org/1999/xlink" version="1.1" data-diagram-type="STATE" style="width:717px;height:634px;background:#FFFFFF;" width="717px" height="634px" viewBox="0 0 717 634" zoomAndPan="magnify" preserveAspectRatio="none" contentStyleType="text/css"><?plantuml 1.2026.7beta6?><defs/><g font-family="sans-serif" lengthAdjust="spacing"><g class="legend" data-source-line="10"><rect x="12" y="12" width="238.313" height="111.781" fill="#DDD" style="stroke:#000;stroke-width:1;" rx="7.5" ry="7.5"/><text x="21.874" y="31.995" fill="#000" font-size="14" textLength="65.748" font-weight="700">Variable</text><text x="97.37" y="31.995" fill="#000" font-size="14" textLength="38.192" font-weight="700">Type</text><text x="145.311" y="31.995" fill="#000" font-size="14" textLength="95.129" font-weight="700">Initial Value</text><text x="21.45" y="48.292" fill="#000" font-size="14">x</text><text x="96.946" y="48.292" fill="#000" font-size="14" textLength="18.252">int</text><text x="144.887" y="48.292" fill="#000" font-size="14">1</text><text x="21.45" y="64.589" fill="#000" font-size="14">y</text><text x="96.946" y="64.589" fill="#000" font-size="14" textLength="18.252">int</text><text x="144.887" y="64.589" fill="#000" font-size="14">2</text><text x="21.45" y="80.886" fill="#000" font-size="14" textLength="26.284">flag</text><text x="96.946" y="80.886" fill="#000" font-size="14" textLength="18.252">int</text><text x="144.887" y="80.886" fill="#000" font-size="14">0</text><text x="21.45" y="97.183" fill="#000" font-size="14" textLength="37.926">score</text><text x="96.946" y="97.183" fill="#000" font-size="14" textLength="18.252">int</text><text x="144.887" y="97.183" fill="#000" font-size="14">0</text><text x="21.45" y="113.479" fill="#000" font-size="14" textLength="36.928">wave</text><text x="96.946" y="113.479" fill="#000" font-size="14" textLength="31.452">float</text><text x="144.887" y="113.479" fill="#000" font-size="14" textLength="22.265">0.0</text><line x1="17" y1="19" x2="245.313" y2="19" style="stroke:#000;stroke-width:1;"/><line x1="17" y1="35.297" x2="245.313" y2="35.297" style="stroke:#000;stroke-width:1;"/><line x1="17" y1="51.594" x2="245.313" y2="51.594" style="stroke:#000;stroke-width:1;"/><line x1="17" y1="67.891" x2="245.313" y2="67.891" style="stroke:#000;stroke-width:1;"/><line x1="17" y1="84.188" x2="245.313" y2="84.188" style="stroke:#000;stroke-width:1;"/><line x1="17" y1="100.484" x2="245.313" y2="100.484" style="stroke:#000;stroke-width:1;"/><line x1="17" y1="116.781" x2="245.313" y2="116.781" style="stroke:#000;stroke-width:1;"/><line x1="17" y1="19" x2="17" y2="116.781" style="stroke:#000;stroke-width:1;"/><line x1="92.496" y1="19" x2="92.496" y2="116.781" style="stroke:#000;stroke-width:1;"/><line x1="140.437" y1="19" x2="140.437" y2="116.781" style="stroke:#000;stroke-width:1;"/><line x1="245.313" y1="19" x2="245.313" y2="116.781" style="stroke:#000;stroke-width:1;"/></g><g class="entity" data-qualified-name="expression_condition_ternary" id="ent0001" data-source-line="19"><path d="M19.5,222.781 L689.517,222.781 A12.5,12.5 0 0 1 702.017,235.281 L702.017,249.078 L7,249.078 L7,235.281 A12.5,12.5 0 0 1 19.5,222.781" fill="#ADD8E6"/><path d="M7,249.078 L702.017,249.078 L702.017,525.578 A12.5,12.5 0 0 1 689.517,538.078 L19.5,538.078 A12.5,12.5 0 0 1 7,525.578 L7,249.078" fill="#ADD8E6"/><rect x="7" y="222.781" width="695.017" height="315.297" fill="none" style="stroke:#181818;stroke-width:0.5;" rx="12.5" ry="12.5"/><line x1="7" y1="249.078" x2="702.017" y2="249.078" style="stroke:#181818;stroke-width:0.5;"/><text x="255.747" y="240.776" fill="#000" font-size="14" textLength="197.524">ExpressionConditionTernary</text><rect x="276.72" y="317.078" width="74.716" height="40" fill="#F1F1F1" style="stroke:#181818;stroke-width:0.5;" rx="12.5" ry="12.5"/><text x="281.72" y="341.925" fill="#000" font-size="14" textLength="64.716">Checking</text><rect x="142.97" y="410.078" width="70.218" height="40" fill="#F1F1F1" style="stroke:#181818;stroke-width:0.5;" rx="12.5" ry="12.5"/><text x="147.97" y="434.925" fill="#000" font-size="14" textLength="60.218">Matched</text><rect x="533.4" y="410.078" width="65.364" height="40" fill="#F1F1F1" style="stroke:#181818;stroke-width:0.5;" rx="12.5" ry="12.5"/><text x="538.4" y="434.925" fill="#000" font-size="14" textLength="55.364">Blocked</text><g class="start_entity" data-qualified-name="expression_condition_ternary..start.expression_condition_ternary" id="ent0005" data-source-line="23"><ellipse cx="314.08" cy="270.078" rx="10" ry="10" fill="#222" style="stroke:#222;stroke-width:1;"/></g><g class="end_entity" data-qualified-name="expression_condition_ternary..end.expression_condition_ternary" id="ent0009" data-source-line="26"><ellipse cx="380.08" cy="514.078" rx="11" ry="11" fill="none" style="stroke:#222;stroke-width:1;"/><ellipse cx="380.08" cy="514.078" rx="6" ry="6" fill="#222" style="stroke:#222;stroke-width:1;"/></g><!--link *start*expression_condition_ternary to expression_condition_ternary__checking--><g class="link" data-entity-1="ent0005" data-entity-2="ent0002" id="lnk6" data-source-line="23" data-link-type="dependency"><path d="M314.08,280.388 C314.08,289.798 314.08,299.618 314.08,311.598" style="stroke:#181818;stroke-width:1;" fill="none" id="*start*expression_condition_ternary-to-expression_condition_ternary__checking"/><polygon points="314.08,316.598,318.08,307.598,314.08,311.598,310.08,307.598,314.08,316.598" fill="#181818" style="stroke:#181818;stroke-width:1;stroke-linejoin:miter;stroke-miterlimit:10;"/></g><!--link expression_condition_ternary__checking to expression_condition_ternary__matched--><g class="link" data-entity-1="ent0002" data-entity-2="ent0003" id="lnk7" data-source-line="24" data-link-type="dependency"><path d="M276.34,337.508 C209.91,337.388 76.36,341.468 47.08,375.078 C18,408.468 89.605,421.095 137.635,425.955" style="stroke:#181818;stroke-width:1;" fill="none" id="expression_condition_ternary__checking-to-expression_condition_ternary__matched"/><polygon points="142.61,426.458,134.058,421.572,137.635,425.955,133.253,429.532,142.61,426.458" fill="#181818" style="stroke:#181818;stroke-width:1;stroke-linejoin:miter;stroke-miterlimit:10;"/><text x="48.08" y="388.145" fill="#000" font-size="13" textLength="512.745">(x &lt; y &amp;&amp; flag == 1 || x == y) &amp;&amp; ((x > 0 => y > 0) &amp;&amp; (x &lt; y xor flag == 0))</text></g><!--link expression_condition_ternary__checking to expression_condition_ternary__blocked--><g class="link" data-entity-1="ent0002" data-entity-2="ent0004" id="lnk8" data-source-line="25" data-link-type="dependency"><path d="M351.67,338.258 C413.64,339.418 533.16,345.538 561.08,375.078 C569.62,384.108 571.1,393.206 570.13,404.716" style="stroke:#181818;stroke-width:1;" fill="none" id="expression_condition_ternary__checking-to-expression_condition_ternary__blocked"/><polygon points="569.71,409.698,574.452,401.066,570.13,404.716,566.48,400.394,569.71,409.698" fill="#181818" style="stroke:#181818;stroke-width:1;stroke-linejoin:miter;stroke-miterlimit:10;"/><text x="569.08" y="388.145" fill="#000" font-size="13" textLength="89.4">x > y iff False</text></g><!--link expression_condition_ternary__matched to *end*expression_condition_ternary--><g class="link" data-entity-1="ent0003" data-entity-2="ent0009" id="lnk10" data-source-line="26" data-link-type="dependency"><path d="M196.56,450.368 C208.93,462.158 226.17,476.548 244.08,485.078 C287.18,505.598 339.969,510.826 363.949,512.276" style="stroke:#181818;stroke-width:1;" fill="none" id="expression_condition_ternary__matched-to-*end*expression_condition_ternary"/><polygon points="368.94,512.578,360.198,508.042,363.949,512.276,359.715,516.028,368.94,512.578" fill="#181818" style="stroke:#181818;stroke-width:1;stroke-linejoin:miter;stroke-miterlimit:10;"/><text x="245.08" y="481.145" fill="#000" font-size="13" textLength="248.066">score >= 0 &amp;&amp; ((x &lt; y) ? True : False)</text></g><!--link expression_condition_ternary__blocked to *end*expression_condition_ternary--><g class="link" data-entity-1="ent0004" data-entity-2="ent0009" id="lnk11" data-source-line="27" data-link-type="dependency"><path d="M546.56,450.428 C533.77,462.088 516.12,476.318 498.08,485.078 C461.53,502.828 417.992,509.196 396.332,511.516" style="stroke:#181818;stroke-width:1;" fill="none" id="expression_condition_ternary__blocked-to-*end*expression_condition_ternary"/><polygon points="391.36,512.048,400.735,515.067,396.332,511.516,399.883,507.112,391.36,512.048" fill="#181818" style="stroke:#181818;stroke-width:1;stroke-linejoin:miter;stroke-miterlimit:10;"/><text x="525.08" y="481.145" fill="#000" font-size="13" textLength="151.938">!(x &lt; y) || wave >= 0.0</text></g></g><g class="start_entity" data-qualified-name=".start." id="ent0012" data-source-line="29"><ellipse cx="354.51" cy="152.781" rx="10" ry="10" fill="#222" style="stroke:#222;stroke-width:1;"/></g><g class="end_entity" data-qualified-name=".end." id="ent0014" data-source-line="30"><ellipse cx="354.51" cy="609.081" rx="11" ry="11" fill="none" style="stroke:#222;stroke-width:1;"/><ellipse cx="354.51" cy="609.081" rx="6" ry="6" fill="#222" style="stroke:#222;stroke-width:1;"/></g><!--link *start* to expression_condition_ternary--><g class="link" data-entity-1="ent0012" data-entity-2="ent0001" id="lnk13" data-source-line="29" data-link-type="dependency"><path d="M354.51,163.191 C354.51,175.041 354.51,191.941 354.51,217.421" style="stroke:#181818;stroke-width:1;" fill="none" id="*start*-to-expression_condition_ternary"/><polygon points="354.51,222.421,358.51,213.421,354.51,217.421,350.51,213.421,354.51,222.421" fill="#181818" style="stroke:#181818;stroke-width:1;stroke-linejoin:miter;stroke-miterlimit:10;"/></g><!--link expression_condition_ternary to *end*--><g class="link" data-entity-1="ent0001" data-entity-2="ent0014" id="lnk15" data-source-line="30" data-link-type="dependency"><path d="M354.51,538.541 C354.51,563.711 354.51,580.481 354.51,592.671" style="stroke:#181818;stroke-width:1;" fill="none" id="expression_condition_ternary-to-*end*"/><polygon points="354.51,597.671,358.51,588.671,354.51,592.671,350.51,588.671,354.51,597.671" fill="#181818" style="stroke:#181818;stroke-width:1;stroke-linejoin:miter;stroke-miterlimit:10;"/></g><?plantuml-src hLDDImCn4BtdLumzY1LQgiVIhj2Y8kZ9uaLaYTdPRMYQB4cgNLp_kvFzgBM8hk1bDtdpvklDP2aJ15pdle04dR0ozz9enjnAwfnRlWRdkKTuOm0pBbQPDHkTp8qoTZB97MuI4qLmAxEblxQy-8ubp3etJdfiYJErmK0qDa5x6Ag9ScMql_U5mZsJz5n9mTuPKvYXJi2R71IcdfLJUE1MycU5GET5aLV_6oszv8fib15ALi8MIf3Qq_UikXUx-tbrJnNFTj2eWfmm5W-mL_uIe5GPNe7305D5TLsaNgLPxtARMtIE19qRdSYWx0AjvhRe0NU0EtCiMdliQm9yrIt83yqeUlCb2XfFzckGE1ODTT_zZdk2amxUwvgvxpnJHgmwEJ_NpChvyVG91eFeByLsetQ8sZG1OpZPmeGcVdnSZtaw3KiGTe9EHJ_W9qI9QCRJY7XqgC7QRMlipc_Kx_zlaOrOL6Gee02Pfd35bSCEQTe6GvOWzBXPsOZgR9kQX0OlO67f7Opho5qwQClw37tK1YkRLn2o34VqABlCcFsuyasM3m00?></g></svg>