<?xml version="1.0" encoding="us-ascii" standalone="no"?><svg xmlns="http://www.w3.org/2000/svg" xmlns:xlink="http://www.w3.org/1999/xlink" contentStyleType="text/css" height="480px" preserveAspectRatio="none" style="width:302px;height:480px;background:#FFFFFF;" version="1.1" viewBox="0 0 302 480" width="302px" zoomAndPan="magnify"><defs/><g><rect fill="#DDDDDD" height="46.5938" id="_legend" rx="7.5" ry="7.5" style="stroke:#000000;stroke-width:1.0;" width="253" x="12" y="12"/><text fill="#000000" font-family="sans-serif" font-size="14" font-weight="bold" lengthAdjust="spacing" textLength="64" x="22" y="31.9951">Variable</text><text fill="#000000" font-family="sans-serif" font-size="14" font-weight="bold" lengthAdjust="spacing" textLength="39" x="116" y="31.9951">Type</text><text fill="#000000" font-family="sans-serif" font-size="14" font-weight="bold" lengthAdjust="spacing" textLength="90" x="165" y="31.9951">Initial Value</text><text fill="#000000" font-family="sans-serif" font-size="14" lengthAdjust="spacing" textLength="86" x="21" y="48.292">temperature</text><text fill="#000000" font-family="sans-serif" font-size="14" lengthAdjust="spacing" textLength="17" x="115" y="48.292">int</text><text fill="#000000" font-family="sans-serif" font-size="14" lengthAdjust="spacing" textLength="18" x="164" y="48.292">20</text><line style="stroke:#000000;stroke-width:1.0;" x1="17" x2="260" y1="19" y2="19"/><line style="stroke:#000000;stroke-width:1.0;" x1="17" x2="260" y1="35.2969" y2="35.2969"/><line style="stroke:#000000;stroke-width:1.0;" x1="17" x2="260" y1="51.5938" y2="51.5938"/><line style="stroke:#000000;stroke-width:1.0;" x1="17" x2="17" y1="19" y2="51.5938"/><line style="stroke:#000000;stroke-width:1.0;" x1="111" x2="111" y1="19" y2="51.5938"/><line style="stroke:#000000;stroke-width:1.0;" x1="160" x2="160" y1="19" y2="51.5938"/><line style="stroke:#000000;stroke-width:1.0;" x1="260" x2="260" y1="19" y2="51.5938"/><path d="M19.5,157.5938 L276.31,157.5938 A12.5,12.5 0 0 1 288.81,170.0938 L288.81,183.8906 L7,183.8906 L7,170.0938 A12.5,12.5 0 0 1 19.5,157.5938 " fill="#ADD8E6" style="stroke:#ADD8E6;stroke-width:1.0;"/><rect fill="none" height="237.2969" rx="12.5" ry="12.5" style="stroke:#181818;stroke-width:0.5;" width="281.81" x="7" y="157.5938"/><line style="stroke:#181818;stroke-width:0.5;" x1="7" x2="288.81" y1="183.8906" y2="183.8906"/><text fill="#000000" font-family="sans-serif" font-size="14" lengthAdjust="spacing" textLength="80" x="107.905" y="175.5889">Thermostat</text><rect fill="#F1F1F1" height="40" rx="12.5" ry="12.5" style="stroke:#181818;stroke-width:0.5;" width="50" x="74.81" y="251.8906"/><text fill="#000000" font-family="sans-serif" font-size="14" lengthAdjust="spacing" textLength="24" x="87.81" y="276.7373">Idle</text><rect fill="#F1F1F1" height="40" rx="12.5" ry="12.5" style="stroke:#181818;stroke-width:0.5;" width="63" x="68.31" y="344.8906"/><text fill="#000000" font-family="sans-serif" font-size="14" lengthAdjust="spacing" textLength="53" x="73.31" y="369.7373">Heating</text><ellipse cx="99.81" cy="204.8906" fill="#181818" rx="10" ry="10" style="stroke:none;stroke-width:1.0;"/><!--link *start*thermostat to thermostat__idle--><g id="link_*start*thermostat_thermostat__idle"><path d="M99.81,215.2006 C99.81,223.1406 99.81,234.9306 99.81,245.6206 " fill="none" id="*start*thermostat-to-thermostat__idle" style="stroke:#181818;stroke-width:1.0;"/><polygon fill="#181818" points="99.81,250.4106,103.81,241.4106,99.81,245.4106,95.81,241.4106,99.81,250.4106" style="stroke:#181818;stroke-width:1.0;"/></g><!--link thermostat__idle to thermostat__heating--><g id="link_thermostat__idle_thermostat__heating"><path d="M74.52,280.5106 C49.92,289.3406 18,305.4806 30.81,326.8906 C37.96,338.8306 50.43,347.1406 62.81,352.8106 " fill="none" id="thermostat__idle-to-thermostat__heating" style="stroke:#181818;stroke-width:1.0;"/><polygon fill="#181818" points="67.1,355.0806,60.4115,347.8512,62.5065,353.1058,57.2519,355.2008,67.1,355.0806" style="stroke:#181818;stroke-width:1.0;"/><text fill="#000000" font-family="sans-serif" font-size="13" lengthAdjust="spacing" textLength="116" x="31.81" y="322.9575">temperature &lt; 20</text></g><!--link thermostat__heating to thermostat__idle--><g id="link_thermostat__heating_thermostat__idle"><path d="M131.69,346.3606 C144.89,336.6306 155.7,323.7206 148.81,309.8906 C144.6,301.4306 137.44,294.4006 129.87,288.8206 " fill="none" id="thermostat__heating-to-thermostat__idle" style="stroke:#181818;stroke-width:1.0;"/><polygon fill="#181818" points="126.12,285.5306,131.217,293.958,130.2222,288.3893,135.7909,287.3945,126.12,285.5306" style="stroke:#181818;stroke-width:1.0;"/><text fill="#000000" font-family="sans-serif" font-size="13" lengthAdjust="spacing" textLength="127" x="151.81" y="322.9575">temperature &gt;= 22</text></g><ellipse cx="148" cy="87.5938" fill="#181818" rx="10" ry="10" style="stroke:none;stroke-width:1.0;"/><ellipse cx="148" cy="464.5938" fill="none" rx="10" ry="10" style="stroke:#181818;stroke-width:1.0;"/><ellipse cx="148.5" cy="465.0938" fill="#181818" rx="6" ry="6" style="stroke:none;stroke-width:1.0;"/><!--link *start* to thermostat--><g id="link_*start*_thermostat"><path d="M148,97.8438 C148,108.9538 148,128.9638 148,151.6338 " fill="none" id="*start*-to-thermostat" style="stroke:#181818;stroke-width:1.0;"/><polygon fill="#181818" points="148,156.4538,152,147.4538,148,151.4538,144,147.4538,148,156.4538" style="stroke:#181818;stroke-width:1.0;"/></g><!--link thermostat to *end*--><g id="link_thermostat_*end*"><path d="M148,394.9438 C148,416.3838 148,435.9438 148,448.6638 " fill="none" id="thermostat-to-*end*" style="stroke:#181818;stroke-width:1.0;"/><polygon fill="#181818" points="148,453.3238,152,444.3238,148,448.3238,144,444.3238,148,453.3238" style="stroke:#181818;stroke-width:1.0;"/></g><!--SRC=[RP31QiCm38RlVWhHuw0mSXnf3XriA-osiiiOnKkqHDInZQqSmh9tdvAc8qroiItfqo__ggX0mDfp2mN6F91dSbQfU2RhTT0rHDQCyAC0zZe_by4rjdXqneKqzH6RmcKPl59PyNFGxHgLkzgxI8nNS6yQx44N2WnpgL7boLb-uzRWf4Ii3UNgLoc39Te2s7am-Csgsy6x3gI_38AyZwqVxeCb9csa9XEXKnsmMCMWkGaI0rcMCxcNaiXTHCNwO7Xph33KhWyse2FmVmYtblhDmBYbpK5KPlZfH9ASGY-ecMovuAfBVa0_xZvXkytMTUR91JagmSEDuLIiBlglwDgmMN-sWoIHzI__fYRRwIj2_040]--></g></svg>