<svg xmlns="http://www.w3.org/2000/svg" xmlns:xlink="http://www.w3.org/1999/xlink" version="1.1" data-diagram-type="STATE" style="width:320px;height:493px;background:#FFFFFF;" width="320px" height="493px" viewBox="0 0 320 493" zoomAndPan="magnify" preserveAspectRatio="none" contentStyleType="text/css"><?plantuml 1.2026.7beta6?><defs/><g font-family="sans-serif" lengthAdjust="spacing"><g class="legend" data-source-line="10"><rect x="12" y="12" width="260.024" height="46.594" fill="#DDD" style="stroke:#000;stroke-width:1;" rx="7.5" ry="7.5"/><text x="21.874" y="31.995" fill="#000" font-size="14" textLength="65.748" font-weight="700">Variable</text><text x="119.081" y="31.995" fill="#000" font-size="14" textLength="38.192" font-weight="700">Type</text><text x="167.021" y="31.995" fill="#000" font-size="14" textLength="95.129" font-weight="700">Initial Value</text><text x="21.45" y="48.292" fill="#000" font-size="14" textLength="88.307">temperature</text><text x="118.657" y="48.292" fill="#000" font-size="14" textLength="18.252">int</text><text x="166.598" y="48.292" fill="#000" font-size="14" textLength="17.814">20</text><line x1="17" y1="19" x2="267.024" y2="19" style="stroke:#000;stroke-width:1;"/><line x1="17" y1="35.297" x2="267.024" y2="35.297" style="stroke:#000;stroke-width:1;"/><line x1="17" y1="51.594" x2="267.024" y2="51.594" style="stroke:#000;stroke-width:1;"/><line x1="17" y1="19" x2="17" y2="51.594" style="stroke:#000;stroke-width:1;"/><line x1="114.207" y1="19" x2="114.207" y2="51.594" style="stroke:#000;stroke-width:1;"/><line x1="162.147" y1="19" x2="162.147" y2="51.594" style="stroke:#000;stroke-width:1;"/><line x1="267.024" y1="19" x2="267.024" y2="51.594" style="stroke:#000;stroke-width:1;"/></g><g class="entity" data-qualified-name="thermostat" id="ent0001" data-source-line="15"><path d="M19.5,157.594 L292.891,157.594 A12.5,12.5 0 0 1 305.391,170.094 L305.391,183.891 L7,183.891 L7,170.094 A12.5,12.5 0 0 1 19.5,157.594" fill="#ADD8E6"/><path d="M7,183.891 L305.391,183.891 L305.391,385.391 A12.5,12.5 0 0 1 292.891,397.891 L19.5,397.891 A12.5,12.5 0 0 1 7,385.391 L7,183.891" fill="#ADD8E6"/><rect x="7" y="157.594" width="298.391" height="240.297" fill="none" style="stroke:#181818;stroke-width:0.5;" rx="12.5" ry="12.5"/><line x1="7" y1="183.891" x2="305.391" y2="183.891" style="stroke:#181818;stroke-width:0.5;"/><text x="115.771" y="175.589" fill="#000" font-size="14" textLength="80.849">Thermostat</text><rect x="74.8" y="251.891" width="50" height="40" fill="#F1F1F1" style="stroke:#181818;stroke-width:0.5;" rx="12.5" ry="12.5"/><text x="87.041" y="276.737" fill="#000" font-size="14" textLength="25.519">Idle</text><rect x="67.37" y="344.891" width="64.858" height="40" fill="#F1F1F1" style="stroke:#181818;stroke-width:0.5;" rx="12.5" ry="12.5"/><text x="72.37" y="369.737" fill="#000" font-size="14" textLength="54.858">Heating</text><g class="start_entity" data-qualified-name="thermostat..start.thermostat" id="ent0004" data-source-line="18"><ellipse cx="99.8" cy="204.891" rx="10" ry="10" fill="#222" style="stroke:#222;stroke-width:1;"/></g><!--link *start*thermostat to thermostat__idle--><g class="link" data-entity-1="ent0004" data-entity-2="ent0002" id="lnk5" data-source-line="18" data-link-type="dependency"><path d="M99.8,215.201 C99.8,224.611 99.8,234.431 99.8,246.411" style="stroke:#181818;stroke-width:1;" fill="none" id="*start*thermostat-to-thermostat__idle"/><polygon points="99.8,251.411,103.8,242.411,99.8,246.411,95.8,242.411,99.8,251.411" fill="#181818" style="stroke:#181818;stroke-width:1;stroke-linejoin:miter;stroke-miterlimit:10;"/></g><!--link thermostat__idle to thermostat__heating--><g class="link" data-entity-1="ent0002" data-entity-2="ent0003" id="lnk6" data-source-line="19" data-link-type="dependency"><path d="M74.44,279.101 C58.6,284.441 39.45,293.881 29.8,309.891 C18,329.481 38.993,342.741 62.493,351.921" style="stroke:#181818;stroke-width:1;" fill="none" id="thermostat__idle-to-thermostat__heating"/><polygon points="67.15,353.741,60.222,346.74,62.493,351.921,57.311,354.192,67.15,353.741" fill="#181818" style="stroke:#181818;stroke-width:1;stroke-linejoin:miter;stroke-miterlimit:10;"/><text x="30.8" y="322.958" fill="#000" font-size="13" textLength="117.698">temperature &lt; 20</text></g><!--link thermostat__heating to thermostat__idle--><g class="link" data-entity-1="ent0003" data-entity-2="ent0002" id="lnk7" data-source-line="20" data-link-type="dependency"><path d="M132.65,345.631 C145.4,335.991 155.52,323.381 148.8,309.891 C143.72,299.681 138.507,294.273 129.297,288.263" style="stroke:#181818;stroke-width:1;" fill="none" id="thermostat__heating-to-thermostat__idle"/><polygon points="125.11,285.531,130.461,293.799,129.297,288.263,134.833,287.099,125.11,285.531" fill="#181818" style="stroke:#181818;stroke-width:1;stroke-linejoin:miter;stroke-miterlimit:10;"/><text x="151.8" y="322.958" fill="#000" font-size="13" textLength="128.591">temperature >= 22</text></g></g><g class="start_entity" data-qualified-name=".start." id="ent0008" data-source-line="22"><ellipse cx="156.2" cy="87.594" rx="10" ry="10" fill="#222" style="stroke:#222;stroke-width:1;"/></g><g class="end_entity" data-qualified-name=".end." id="ent0010" data-source-line="23"><ellipse cx="156.2" cy="468.894" rx="11" ry="11" fill="none" style="stroke:#222;stroke-width:1;"/><ellipse cx="156.2" cy="468.894" rx="6" ry="6" fill="#222" style="stroke:#222;stroke-width:1;"/></g><!--link *start* to thermostat--><g class="link" data-entity-1="ent0008" data-entity-2="ent0001" id="lnk9" data-source-line="22" data-link-type="dependency"><path d="M156.2,97.924 C156.2,109.944 156.2,127.254 156.2,152.144" style="stroke:#181818;stroke-width:1;" fill="none" id="*start*-to-thermostat"/><polygon points="156.2,157.144,160.2,148.144,156.2,152.144,152.2,148.144,156.2,157.144" fill="#181818" style="stroke:#181818;stroke-width:1;stroke-linejoin:miter;stroke-miterlimit:10;"/></g><!--link thermostat to *end*--><g class="link" data-entity-1="ent0001" data-entity-2="ent0010" id="lnk11" data-source-line="23" data-link-type="dependency"><path d="M156.2,398.264 C156.2,422.974 156.2,440.244 156.2,452.624" style="stroke:#181818;stroke-width:1;" fill="none" id="thermostat-to-*end*"/><polygon points="156.2,457.624,160.2,448.624,156.2,452.624,152.2,448.624,156.2,457.624" fill="#181818" style="stroke:#181818;stroke-width:1;stroke-linejoin:miter;stroke-miterlimit:10;"/></g><?plantuml-src RP31QiCm38RlVWhHuw0mSXnf3XriA-osiiiOnKkqHDInZQqSmh9tdvAc8qroiItfqo__ggX0mDfp2mN6F91dSbQfU2RhTT0rHDQCyAC0zZe_by4rjdXqneKqzH6RmcKPl59PyNFGxHgLkzgxI8nNS6yQx44N2WnpgL7boLb-uzRWf4Ii3UNgLoc39Te2s7am-Csgsy6x3gI_38AyZwqVxeCb9csa9XEXKnsmMCMWkGaI0rcMCxcNaiXTHCNwO7Xph33KhWyse2FmVmYtblhDmBYbpK5KPlZfH9ASGY-ecMovuAfBVa0_xZvXkytMTUR91JagmSEDuLIiBlglwDgmMN-sWoIHzI__fYRRwIj2_040?></g></svg>