<?plantuml 1.2026.2beta3?><svg xmlns="http://www.w3.org/2000/svg" xmlns:xlink="http://www.w3.org/1999/xlink" contentStyleType="text/css" data-diagram-type="STATE" height="1236px" preserveAspectRatio="none" style="width:756px;height:1236px;background:#FFFFFF;" version="1.1" viewBox="0 0 756 1236" width="756px" zoomAndPan="magnify"><defs/><g><g class="entity" data-qualified-name="DefinitionNote" data-source-line="3" id="ent0002"><path d="M92.22,6 L92.22,76.5313 L330.2146,76.5313 L330.2146,16 L320.2146,6 L92.22,6" fill="#FEFFDD" style="stroke:#181818;stroke-width:0.5;"/><path d="M320.2146,6 L320.2146,16 L330.2146,16 L320.2146,6" fill="#FEFFDD" style="stroke:#181818;stroke-width:1;"/><text fill="#000000" font-family="sans-serif" font-size="13" lengthAdjust="spacing" textLength="59.8521" x="98.22" y="23.0669">defines {</text><text fill="#000000" font-family="sans-serif" font-size="13" lengthAdjust="spacing" textLength="147.6846" x="114.7493" y="38.1997">def int error_code = 0;</text><text fill="#000000" font-family="sans-serif" font-size="13" lengthAdjust="spacing" textLength="200.4653" x="114.7493" y="53.3325">def int recovery_attempts = 0;</text><text fill="#000000" font-family="sans-serif" font-size="13" lengthAdjust="spacing" textLength="8.271" x="98.22" y="68.4653">}</text></g><path d="M19.5,136.53 L730.9306,136.53 A12.5,12.5 0 0 1 743.4306,149.03 L743.4306,162.8269 L7,162.8269 L7,149.03 A12.5,12.5 0 0 1 19.5,136.53" fill="#F1F1F1"/><rect fill="none" height="1012.2169" rx="12.5" ry="12.5" style="stroke:#181818;stroke-width:0.5;" width="736.4306" x="7" y="136.53"/><line style="stroke:#181818;stroke-width:0.5;" x1="7" x2="743.4306" y1="162.8269" y2="162.8269"/><text fill="#000000" font-family="sans-serif" font-size="14" lengthAdjust="spacing" textLength="52.2061" x="349.1123" y="154.5251">System</text><g class="entity" data-qualified-name="system.system__initializing" id="ent0004"><rect fill="#F1F1F1" height="78.2031" rx="12.5" ry="12.5" style="stroke:#181818;stroke-width:0.5;" width="129.084" x="19" y="230.8269"/><line style="stroke:#181818;stroke-width:0.5;" x1="19" x2="148.084" y1="257.1238" y2="257.1238"/><text fill="#000000" font-family="sans-serif" font-size="14" lengthAdjust="spacing" textLength="71.627" x="47.7285" y="248.822">Initializing</text><text fill="#000000" font-family="sans-serif" font-size="12" lengthAdjust="spacing" textLength="33.9727" x="24" y="273.2624">exit {</text><text fill="#000000" font-family="sans-serif" font-size="12" lengthAdjust="spacing" textLength="93.8262" x="39.2578" y="287.2312">error_code = 0;</text><text fill="#000000" font-family="sans-serif" font-size="12" lengthAdjust="spacing" textLength="7.6348" x="24" y="301.1999">}</text></g><path d="M107.67,362.0269 L585.405,362.0269 A12.5,12.5 0 0 1 597.905,374.5269 L597.905,435.23 L95.17,435.23 L95.17,374.5269 A12.5,12.5 0 0 1 107.67,362.0269" fill="#F1F1F1"/><rect fill="none" height="439.3131" rx="12.5" ry="12.5" style="stroke:#181818;stroke-width:0.5;" width="502.735" x="95.17" y="362.0269"/><line style="stroke:#181818;stroke-width:0.5;" x1="95.17" x2="597.905" y1="435.23" y2="435.23"/><line style="stroke:#181818;stroke-width:0.5;" x1="95.17" x2="597.905" y1="388.3237" y2="388.3237"/><text fill="#000000" font-family="sans-serif" font-size="14" lengthAdjust="spacing" textLength="57.9961" x="317.5394" y="380.022">Running</text><text fill="#000000" font-family="sans-serif" font-size="12" lengthAdjust="spacing" textLength="33.9727" x="100.17" y="399.4624">exit {</text><text fill="#000000" font-family="sans-serif" font-size="12" lengthAdjust="spacing" textLength="142.5469" x="115.4278" y="413.4312">recovery_attempts = 0;</text><text fill="#000000" font-family="sans-serif" font-size="12" lengthAdjust="spacing" textLength="7.6348" x="100.17" y="427.3999">}</text><g class="entity" data-qualified-name="system.system__running.system__running__processing" id="ent0006"><rect fill="#F1F1F1" height="120.1094" rx="12.5" ry="12.5" style="stroke:#181818;stroke-width:0.5;" width="211.2324" x="212.18" y="503.23"/><line style="stroke:#181818;stroke-width:0.5;" x1="212.18" x2="423.4124" y1="529.5269" y2="529.5269"/><text fill="#000000" font-family="sans-serif" font-size="14" lengthAdjust="spacing" textLength="75.3115" x="280.1404" y="521.2251">Processing</text><text fill="#000000" font-family="sans-serif" font-size="12" lengthAdjust="spacing" textLength="50.1621" x="217.18" y="545.6655">during {</text><text fill="#000000" font-family="sans-serif" font-size="12" lengthAdjust="spacing" textLength="175.9746" x="232.4378" y="559.6343">error_code = error_code + 1;</text><text fill="#000000" font-family="sans-serif" font-size="12" lengthAdjust="spacing" textLength="7.6348" x="217.18" y="573.603">}</text><text fill="#000000" font-family="sans-serif" font-size="12" lengthAdjust="spacing" textLength="33.9727" x="217.18" y="587.5718">exit {</text><text fill="#000000" font-family="sans-serif" font-size="12" lengthAdjust="spacing" textLength="93.8262" x="232.4378" y="601.5405">error_code = 0;</text><text fill="#000000" font-family="sans-serif" font-size="12" lengthAdjust="spacing" textLength="7.6348" x="217.18" y="615.5093">}</text></g><rect fill="#F1F1F1" height="40" rx="12.5" ry="12.5" style="stroke:#181818;stroke-width:0.5;" width="63.4502" x="173.08" y="676.34"/><text fill="#000000" font-family="sans-serif" font-size="14" lengthAdjust="spacing" textLength="53.4502" x="178.08" y="701.1867">Waiting</text><g class="end_entity" data-qualified-name="system.system__running..end.system__running" data-source-line="16" id="ent0002"><ellipse cx="322.8" cy="780.34" fill="none" rx="11" ry="11" style="stroke:#222222;stroke-width:1;"/><ellipse cx="322.8" cy="780.34" fill="#222222" rx="6" ry="6" style="stroke:#222222;stroke-width:1;"/></g><g class="start_entity" data-qualified-name="system.system__running..start.system__running" data-source-line="20" id="ent0007"><ellipse cx="317.8" cy="456.23" fill="#222222" rx="10" ry="10" style="stroke:#222222;stroke-width:1;"/></g><!--link system__running__processing to *end*system__running--><g class="link" data-entity-1="ent0006" data-entity-2="ent0002" data-link-type="dependency" data-source-line="16" id="lnk3"><path d="M361.72,623.61 C364.56,629.39 367,635.35 368.8,641.34 C382.89,688.15 392.75,708.72 368.8,751.34 C361.29,764.71 350.1908,770.4798 339.1108,774.3098" fill="none" id="system__running__processing-to-*end*system__running" style="stroke:#181818;stroke-width:1;"/><polygon fill="#181818" points="333.44,776.27,343.253,777.1102,338.1656,774.6365,340.6394,769.5492,333.44,776.27" style="stroke:#181818;stroke-width:1;"/><text fill="#000000" font-family="sans-serif" font-size="13" lengthAdjust="spacing" textLength="82.0498" x="384.8" y="700.9069">/CriticalError</text></g><!--link system__running__processing to *end*system__running--><g class="link" data-entity-1="ent0006" data-entity-2="ent0002" data-link-type="dependency" data-source-line="17" id="lnk4"><path d="M423.8,620.6 C443.15,635.97 460.7,654.53 471.8,676.34 C479.87,692.18 481.62,701.52 471.8,716.34 C439.83,764.56 368.8054,775.4275 339.9454,778.0475" fill="none" id="system__running__processing-to-*end*system__running-1" style="stroke:#181818;stroke-width:1;"/><polygon fill="#181818" points="333.97,778.59,343.2948,781.7599,338.9495,778.1379,342.5715,773.7927,333.97,778.59" style="stroke:#181818;stroke-width:1;"/><text fill="#000000" font-family="sans-serif" font-size="13" lengthAdjust="spacing" textLength="103.105" x="479.8" y="700.9069">EmergencyStop</text></g><!--link system__running__waiting to *end*system__running--><g class="link" data-entity-1="ent0007" data-entity-2="ent0002" data-link-type="dependency" data-source-line="18" id="lnk5"><path d="M172.68,715.39 C158.25,725.79 146.52,739.17 156.8,751.34 C176.8,775 271.5208,778.5695 305.5508,779.1395" fill="none" id="system__running__waiting-to-*end*system__running" style="stroke:#181818;stroke-width:1;"/><polygon fill="#181818" points="311.55,779.24,302.6183,775.0898,306.5507,779.1563,302.4843,783.0887,311.55,779.24" style="stroke:#181818;stroke-width:1;"/><text fill="#000000" font-family="sans-serif" font-size="13" lengthAdjust="spacing" textLength="82.0498" x="157.8" y="747.4069">/CriticalError</text></g><!--link system__running__waiting to *end*system__running--><g class="link" data-entity-1="ent0007" data-entity-2="ent0002" data-link-type="dependency" data-source-line="19" id="lnk6"><path d="M222.98,716.64 C234.07,727.71 248.94,741.34 263.8,751.34 C279.79,762.1 294.9656,768.7513 307.1156,773.4613" fill="none" id="system__running__waiting-to-*end*system__running-1" style="stroke:#181818;stroke-width:1;"/><polygon fill="#181818" points="312.71,775.63,305.7642,768.6474,308.048,773.8228,302.8727,776.1066,312.71,775.63" style="stroke:#181818;stroke-width:1;"/><text fill="#000000" font-family="sans-serif" font-size="13" lengthAdjust="spacing" textLength="103.105" x="264.8" y="747.4069">EmergencyStop</text></g><!--link *start*system__running to system__running__processing--><g class="link" data-entity-1="ent0007" data-entity-2="ent0006" data-link-type="dependency" data-source-line="20" id="lnk8"><path d="M317.8,466.55 C317.8,475.19 317.8,482.83 317.8,497.13" fill="none" id="*start*system__running-to-system__running__processing" style="stroke:#181818;stroke-width:1;"/><polygon fill="#181818" points="317.8,503.13,321.8,494.13,317.8,498.13,313.8,494.13,317.8,503.13" style="stroke:#181818;stroke-width:1;"/></g><!--link system__running__processing to system__running__waiting--><g class="link" data-entity-1="ent0006" data-entity-2="ent0007" data-link-type="dependency" data-source-line="21" id="lnk9"><path d="M211.86,581.34 C177.32,592.48 142.54,610.9 121.8,641.34 C106.17,664.28 137.5142,678.1452 167.0542,686.4552" fill="none" id="system__running__processing-to-system__running__waiting" style="stroke:#181818;stroke-width:1;"/><polygon fill="#181818" points="172.83,688.08,165.2495,681.7922,168.0168,686.726,163.0831,689.4933,172.83,688.08" style="stroke:#181818;stroke-width:1;"/><text fill="#000000" font-family="sans-serif" font-size="13" lengthAdjust="spacing" textLength="108.2656" x="122.8" y="654.4069">Processing.Done</text></g><!--link system__running__waiting to system__running__processing--><g class="link" data-entity-1="ent0007" data-entity-2="ent0006" data-link-type="dependency" data-source-line="22" id="lnk10"><path d="M221.55,675.91 C233.54,662.01 246.4427,647.0548 262.6727,628.2248" fill="none" id="system__running__waiting-to-system__running__processing" style="stroke:#181818;stroke-width:1;"/><polygon fill="#181818" points="266.59,623.68,257.6843,627.8857,263.3256,627.4673,263.744,633.1087,266.59,623.68" style="stroke:#181818;stroke-width:1;"/><text fill="#000000" font-family="sans-serif" font-size="13" lengthAdjust="spacing" textLength="112.2202" x="252.8" y="654.4069">Waiting.Continue</text></g><g class="entity" data-qualified-name="system.system__safe_mode" id="ent0008"><rect fill="#F1F1F1" height="78.2031" rx="12.5" ry="12.5" style="stroke:#181818;stroke-width:0.5;" width="308.6738" x="258.21" y="854.3369"/><line style="stroke:#181818;stroke-width:0.5;" x1="258.21" x2="566.8838" y1="880.6337" y2="880.6337"/><text fill="#000000" font-family="sans-serif" font-size="14" lengthAdjust="spacing" textLength="69.1523" x="377.9707" y="872.332">SafeMode</text><text fill="#000000" font-family="sans-serif" font-size="12" lengthAdjust="spacing" textLength="43.459" x="263.21" y="896.7724">enter {</text><text fill="#000000" font-family="sans-serif" font-size="12" lengthAdjust="spacing" textLength="273.416" x="278.4678" y="910.7412">recovery_attempts = recovery_attempts + 1;</text><text fill="#000000" font-family="sans-serif" font-size="12" lengthAdjust="spacing" textLength="7.6348" x="263.21" y="924.7099">}</text></g><g class="entity" data-qualified-name="system.system__error_handler" id="ent0009"><rect fill="#F1F1F1" height="78.2031" rx="12.5" ry="12.5" style="stroke:#181818;stroke-width:0.5;" width="177.8047" x="177.64" y="985.5469"/><line style="stroke:#181818;stroke-width:0.5;" x1="177.64" x2="355.4447" y1="1011.8437" y2="1011.8437"/><text fill="#000000" font-family="sans-serif" font-size="14" lengthAdjust="spacing" textLength="89.8037" x="221.6405" y="1003.542">ErrorHandler</text><text fill="#000000" font-family="sans-serif" font-size="12" lengthAdjust="spacing" textLength="43.459" x="182.64" y="1027.9824">enter {</text><text fill="#000000" font-family="sans-serif" font-size="12" lengthAdjust="spacing" textLength="142.5469" x="197.8978" y="1041.9512">recovery_attempts = 0;</text><text fill="#000000" font-family="sans-serif" font-size="12" lengthAdjust="spacing" textLength="7.6348" x="182.64" y="1055.9199">}</text></g><g class="start_entity" data-qualified-name="system..start.system" data-source-line="34" id="ent0016"><ellipse cx="83.54" cy="183.8269" fill="#222222" rx="10" ry="10" style="stroke:#222222;stroke-width:1;"/></g><g class="end_entity" data-qualified-name="system..end.system" data-source-line="36" id="ent0019"><ellipse cx="482.54" cy="1127.7469" fill="none" rx="11" ry="11" style="stroke:#222222;stroke-width:1;"/><ellipse cx="482.54" cy="1127.7469" fill="#222222" rx="6" ry="6" style="stroke:#222222;stroke-width:1;"/></g><!--link system__initializing to system__error_handler--><g class="link" data-entity-1="ent0004" data-entity-2="ent0009" data-link-type="dependency" data-source-line="29" id="lnk11"><path d="M75.13,309.4769 C56.47,403.6669 18.89,651.2869 93.54,836.3369 C119.45,900.5569 128.41,918.7569 177.54,967.5469 C183.89,973.8469 186.2406,976.2364 193.7006,981.7364" fill="none" id="system__initializing-to-system__error_handler" style="stroke:#181818;stroke-width:1;"/><polygon fill="#181818" points="198.53,985.2969,193.6596,976.7365,194.5055,982.3298,188.9123,983.1757,198.53,985.2969" style="stroke:#181818;stroke-width:1;"/><text fill="#000000" font-family="sans-serif" font-size="13" lengthAdjust="spacing" textLength="77.6699" x="94.54" y="832.4038">CriticalError</text></g><!--link system__running to system__error_handler--><g class="link" data-entity-1="ent0005" data-entity-2="ent0009" data-link-type="dependency" data-source-line="30" id="lnk12"><path d="M190.53,801.4769 C182.63,818.8469 175.8,836.5569 170.54,854.3369 C160.69,887.6669 156.82,900.6069 170.54,932.5469 C179.25,952.8069 190.4509,966.6947 206.6409,981.1247" fill="none" id="system__running-to-system__error_handler" style="stroke:#181818;stroke-width:1;"/><polygon fill="#181818" points="211.12,985.1169,207.0628,976.1425,207.3874,981.7901,201.7399,982.1147,211.12,985.1169" style="stroke:#181818;stroke-width:1;"/><text fill="#000000" font-family="sans-serif" font-size="13" lengthAdjust="spacing" textLength="77.6699" x="171.54" y="898.0138">CriticalError</text></g><!--link system__running to system__safe_mode--><g class="link" data-entity-1="ent0005" data-entity-2="ent0008" data-link-type="dependency" data-source-line="31" id="lnk13"><path d="M226.28,801.5469 C228.68,813.6469 233.57,825.3369 241.54,836.3369 C246.31,842.9169 247.2699,844.8847 253.4199,850.0347" fill="none" id="system__running-to-system__safe_mode" style="stroke:#181818;stroke-width:1;"/><polygon fill="#181818" points="258.02,853.8869,253.6879,845.0419,254.1866,850.6768,248.5517,851.1754,258.02,853.8869" style="stroke:#181818;stroke-width:1;"/><text fill="#000000" font-family="sans-serif" font-size="13" lengthAdjust="spacing" textLength="161.0908" x="242.54" y="832.4038">Running.EmergencyStop</text></g><!--link system__safe_mode to system__error_handler--><g class="link" data-entity-1="ent0008" data-entity-2="ent0009" data-link-type="dependency" data-source-line="32" id="lnk14"><path d="M369.13,932.8569 C350.47,949.3669 333.2035,964.6609 314.5335,981.1809" fill="none" id="system__safe_mode-to-system__error_handler" style="stroke:#181818;stroke-width:1;"/><polygon fill="#181818" points="310.04,985.1569,319.4309,982.1885,313.7846,981.8435,314.1295,976.1972,310.04,985.1569" style="stroke:#181818;stroke-width:1;"/><text fill="#000000" font-family="sans-serif" font-size="13" lengthAdjust="spacing" textLength="77.6699" x="349.54" y="963.6138">CriticalError</text></g><!--link system__error_handler to system__error_handler--><g class="link" data-entity-1="ent0009" data-entity-2="ent0009" data-link-type="dependency" data-source-line="33" id="lnk15"><path d="M355.83,1014.0769 C366.48,1015.9969 373.44,1019.5169 373.44,1024.6469 C373.44,1029.7669 372.3848,1032.2323 361.7348,1034.1523" fill="none" id="system__error_handler-to-system__error_handler" style="stroke:#181818;stroke-width:1;"/><polygon fill="#181818" points="355.83,1035.2169,365.3969,1037.5566,360.7507,1034.3298,363.9775,1029.6835,355.83,1035.2169" style="stroke:#181818;stroke-width:1;"/><text fill="#000000" font-family="sans-serif" font-size="13" lengthAdjust="spacing" textLength="77.6699" x="379.44" y="1029.2138">CriticalError</text></g><!--link *start*system to system__initializing--><g class="link" data-entity-1="ent0016" data-entity-2="ent0004" data-link-type="dependency" data-source-line="34" id="lnk17"><path d="M83.54,194.1469 C83.54,203.0369 83.54,211.0469 83.54,224.5469" fill="none" id="*start*system-to-system__initializing" style="stroke:#181818;stroke-width:1;"/><polygon fill="#181818" points="83.54,230.5469,87.54,221.5469,83.54,225.5469,79.54,221.5469,83.54,230.5469" style="stroke:#181818;stroke-width:1;"/></g><!--link system__initializing to system__running--><g class="link" data-entity-1="ent0004" data-entity-2="ent0005" data-link-type="dependency" data-source-line="35" id="lnk18"><path d="M116.05,309.2169 C128.56,323.9469 140.0163,337.4434 156.7963,357.2034" fill="none" id="system__initializing-to-system__running" style="stroke:#181818;stroke-width:1;"/><polygon fill="#181818" points="160.68,361.7769,157.9034,352.3275,157.4435,357.9657,151.8054,357.5058,160.68,361.7769" style="stroke:#181818;stroke-width:1;"/><text fill="#000000" font-family="sans-serif" font-size="13" lengthAdjust="spacing" textLength="102.4004" x="141.54" y="340.0938">Initializing.Start</text></g><!--link system__running to *end*system--><g class="link" data-entity-1="ent0005" data-entity-2="ent0019" data-link-type="dependency" data-source-line="36" id="lnk20"><path d="M552.59,801.6969 C561.76,818.7269 569.59,836.3369 575.54,854.3369 C609.66,957.4669 640.34,1011.5669 575.54,1098.7469 C556.33,1124.5969 520.0197,1127.5191 499.7697,1127.3091" fill="none" id="system__running-to-*end*system" style="stroke:#181818;stroke-width:1;"/><polygon fill="#181818" points="493.77,1127.2469,502.728,1131.34,498.7697,1127.2987,502.811,1123.3404,493.77,1127.2469" style="stroke:#181818;stroke-width:1;"/><text fill="#000000" font-family="sans-serif" font-size="13" lengthAdjust="spacing" textLength="122.8906" x="610.54" y="963.6138">Running.Shutdown</text></g><!--link system__safe_mode to system__running--><g class="link" data-entity-1="ent0008" data-entity-2="ent0005" data-link-type="dependency" data-source-line="37" id="lnk21"><path d="M409.29,853.9869 C408.09,842.7769 406.52,830.5269 404.54,819.3369 C403.51,813.5069 403.549,813.4997 402.409,807.5497" fill="none" id="system__safe_mode-to-system__running" style="stroke:#181818;stroke-width:1;"/><polygon fill="#181818" points="401.28,801.6569,399.045,811.2488,402.2209,806.5676,406.9021,809.7434,401.28,801.6569" style="stroke:#181818;stroke-width:1;"/><text fill="#000000" font-family="sans-serif" font-size="13" lengthAdjust="spacing" textLength="137.7632" x="407.54" y="832.4038">SafeMode.Recovered</text></g><!--link system__error_handler to *end*system--><g class="link" data-entity-1="ent0009" data-entity-2="ent0019" data-link-type="dependency" data-source-line="38" id="lnk22"><path d="M348.82,1064.1569 C396.27,1086.3669 445.3163,1109.3224 467.2263,1119.5824" fill="none" id="system__error_handler-to-*end*system" style="stroke:#181818;stroke-width:1;"/><polygon fill="#181818" points="472.66,1122.1269,466.2057,1114.6876,468.1319,1120.0065,462.8131,1121.9326,472.66,1122.1269" style="stroke:#181818;stroke-width:1;"/><text fill="#000000" font-family="sans-serif" font-size="13" lengthAdjust="spacing" textLength="151.8423" x="419.54" y="1094.8138">ErrorHandler.FatalError</text></g><g class="start_entity" data-qualified-name=".start." data-source-line="40" id="ent0023"><ellipse cx="375.22" cy="41.27" fill="#222222" rx="10" ry="10" style="stroke:#222222;stroke-width:1;"/></g><g class="end_entity" data-qualified-name=".end." data-source-line="41" id="ent0025"><ellipse cx="375.22" cy="1219.75" fill="none" rx="11" ry="11" style="stroke:#222222;stroke-width:1;"/><ellipse cx="375.22" cy="1219.75" fill="#222222" rx="6" ry="6" style="stroke:#222222;stroke-width:1;"/></g><!--link *start* to system--><g class="link" data-entity-1="ent0023" data-entity-2="ent0003" data-link-type="dependency" data-source-line="40" id="lnk24"><path d="M375.22,51.68 C375.22,66.2 375.22,90.59 375.22,130.27" fill="none" id="*start*-to-system" style="stroke:#181818;stroke-width:1;"/><polygon fill="#181818" points="375.22,136.27,379.22,127.27,375.22,131.27,371.22,127.27,375.22,136.27" style="stroke:#181818;stroke-width:1;"/></g><!--link system to *end*--><g class="link" data-entity-1="ent0003" data-entity-2="ent0025" data-link-type="dependency" data-source-line="41" id="lnk26"><path d="M375.22,1149.09 C375.22,1175.99 375.22,1190.74 375.22,1202.35" fill="none" id="system-to-*end*" style="stroke:#181818;stroke-width:1;"/><polygon fill="#181818" points="375.22,1208.35,379.22,1199.35,375.22,1203.35,371.22,1199.35,375.22,1208.35" style="stroke:#181818;stroke-width:1;"/></g><?plantuml-src hLLDJm8n4BttLpGSDQnwnUW5C7hG6FRWGSocsHsW2Kn9MqGa_7TRMg3xXGkw5xRpzTvEtmmJdW65sLolQ0OgbNokkK22GWDbYlPWn95RquknaCmUGT4reUOn9yfHKv1Io2GLfj8TlRxD-IIauXFaAc5QMnZbGZO4CACMXH2bcG5hnIjb8beMLMrVFOftFraQRCg_EOw3e2JXWSCbL3XeXy8NrtGzH1jIO3p4JGWrM20MKQIpUKv1yAiKAIXL4vyayxt_a5aVOtXc2xa5gc0Q72xfZQKzn0QV5R1zOwOdTLINpjc8PxjzJzylFWpVgwuqQIcRzYtwYSdz6SWnOBgAjPZNvtfcPw2MCwiXhS_6_FN-AcliI7JeGIrHJo0qutrSB_vAewv0yxjmDJUaecfX2Af7ip0BCHl1in5KJZ7A69EPiUPGzbQBWnhaCQ2opIiw1D_UxIF3R0eoHy09VU8yEH8vJnCYmHTNxOsm_yNQPGaM6_v_sM5p_NwAoaekHv_781zvMetY93NRpnKwDzN3fH_5cabTsoWttBlMn9E5piGI6tJbWBRJUZHmEe7ibwRuXHAeD7fWUjUC3SctWlY_DP_v0m00?></g></svg>