<svg xmlns="http://www.w3.org/2000/svg" xmlns:xlink="http://www.w3.org/1999/xlink" contentStyleType="text/css" data-diagram-type="STATE" height="944px" preserveAspectRatio="none" style="width:731px;height:944px;background:#FFFFFF;" version="1.1" viewBox="0 0 731 944" width="731px" zoomAndPan="magnify"><defs/><g><path d="M19.5,86 L705.66,86 A12.5,12.5 0 0 1 718.16,98.5 L718.16,112.2969 L7,112.2969 L7,98.5 A12.5,12.5 0 0 1 19.5,86" fill="#ADD8E6"/><rect fill="none" height="770.5969" rx="12.5" ry="12.5" style="stroke:#181818;stroke-width:0.5;" width="711.16" x="7" y="86"/><line style="stroke:#181818;stroke-width:0.5;" x1="7" x2="718.16" y1="112.2969" y2="112.2969"/><text fill="#000000" font-family="sans-serif" font-size="14" lengthAdjust="spacing" textLength="52.2061" x="336.477" y="103.9951">System</text><rect fill="#F1F1F1" height="40" rx="12.5" ry="12.5" style="stroke:#181818;stroke-width:0.5;" width="81.627" x="32.52" y="180.2969"/><text fill="#000000" font-family="sans-serif" font-size="14" lengthAdjust="spacing" textLength="71.627" x="37.52" y="205.1436">Initializing</text><path d="M97.69,273.2969 L574.975,273.2969 A12.5,12.5 0 0 1 587.475,285.7969 L587.475,299.5938 L85.19,299.5938 L85.19,285.7969 A12.5,12.5 0 0 1 97.69,273.2969" fill="#ADD8E6"/><rect fill="none" height="312.2969" rx="12.5" ry="12.5" style="stroke:#181818;stroke-width:0.5;" width="502.285" x="85.19" y="273.2969"/><line style="stroke:#181818;stroke-width:0.5;" x1="85.19" x2="587.475" y1="299.5938" y2="299.5938"/><text fill="#000000" font-family="sans-serif" font-size="14" lengthAdjust="spacing" textLength="57.9961" x="307.3344" y="291.292">Running</text><rect fill="#F1F1F1" height="40" rx="12.5" ry="12.5" style="stroke:#181818;stroke-width:0.5;" width="85.3115" x="267.42" y="367.5938"/><text fill="#000000" font-family="sans-serif" font-size="14" lengthAdjust="spacing" textLength="75.3115" x="272.42" y="392.4404">Processing</text><rect fill="#F1F1F1" height="40" rx="12.5" ry="12.5" style="stroke:#181818;stroke-width:0.5;" width="63.4502" x="165.35" y="460.5938"/><text fill="#000000" font-family="sans-serif" font-size="14" lengthAdjust="spacing" textLength="53.4502" x="170.35" y="485.4404">Waiting</text><ellipse cx="315.08" cy="564.5938" fill="none" rx="11" ry="11" style="stroke:#222222;stroke-width:1;"/><ellipse cx="315.08" cy="564.5938" fill="#222222" rx="6" ry="6" style="stroke:#222222;stroke-width:1;"/><ellipse cx="310.08" cy="320.5938" fill="#222222" rx="10" ry="10" style="stroke:#222222;stroke-width:1;"/><!--link system__running__processing to *end*system__running--><g class="link" data-entity-1="system__running__processing" data-entity-2="*end*system__running" data-source-line="15" data-uid="lnk3" id="link_system__running__processing_*end*system__running"><path d="M346.21,408.0037 C352.21,412.9138 357.6,418.7738 361.08,425.5938 C383.29,469.1438 385.03,492.9738 361.08,535.5938 C353.56,548.9638 342.4708,554.7335 331.3908,558.5635" fill="none" id="system__running__processing-to-*end*system__running" style="stroke:#181818;stroke-width:1;"/><polygon fill="#181818" points="325.72,560.5238,335.533,561.364,330.4456,558.8902,332.9194,553.8029,325.72,560.5238" style="stroke:#181818;stroke-width:1;"/><text fill="#000000" font-family="sans-serif" font-size="13" lengthAdjust="spacing" textLength="82.0498" x="379.39" y="485.1606">/CriticalError</text></g><!--link system__running__processing to *end*system__running--><g class="link" data-entity-1="system__running__processing" data-entity-2="*end*system__running" data-source-line="16" data-uid="lnk4" id="link_system__running__processing_*end*system__running"><path d="M353.21,395.4338 C390.23,403.8238 441.4,422.0238 466.08,460.5938 C475.66,475.5638 475.93,485.8038 466.08,500.5938 C433.63,549.2938 361.6085,559.9067 332.3685,562.3867" fill="none" id="system__running__processing-to-*end*system__running-1" style="stroke:#181818;stroke-width:1;"/><polygon fill="#181818" points="326.39,562.8938,335.6958,566.1188,331.3721,562.4712,335.0198,558.1475,326.39,562.8938" style="stroke:#181818;stroke-width:1;"/><text fill="#000000" font-family="sans-serif" font-size="13" lengthAdjust="spacing" textLength="103.105" x="474.37" y="485.1606">EmergencyStop</text></g><!--link system__running__waiting to *end*system__running--><g class="link" data-entity-1="system__running__waiting" data-entity-2="*end*system__running" data-source-line="17" data-uid="lnk5" id="link_system__running__waiting_*end*system__running"><path d="M164.96,499.6438 C150.52,510.0438 138.79,523.4237 149.08,535.5938 C169.08,559.2538 263.7908,562.8233 297.8208,563.3933" fill="none" id="system__running__waiting-to-*end*system__running" style="stroke:#181818;stroke-width:1;"/><polygon fill="#181818" points="303.82,563.4938,294.8883,559.3436,298.8207,563.41,294.7543,567.3425,303.82,563.4938" style="stroke:#181818;stroke-width:1;"/><text fill="#000000" font-family="sans-serif" font-size="13" lengthAdjust="spacing" textLength="82.0498" x="150.08" y="531.6606">/CriticalError</text></g><!--link system__running__waiting to *end*system__running--><g class="link" data-entity-1="system__running__waiting" data-entity-2="*end*system__running" data-source-line="18" data-uid="lnk6" id="link_system__running__waiting_*end*system__running"><path d="M215.26,500.8938 C226.35,511.9638 241.21,525.5938 256.08,535.5938 C272.07,546.3538 287.2456,553.0051 299.3956,557.7151" fill="none" id="system__running__waiting-to-*end*system__running-1" style="stroke:#181818;stroke-width:1;"/><polygon fill="#181818" points="304.99,559.8838,298.0442,552.9012,300.328,558.0765,295.1527,560.3603,304.99,559.8838" style="stroke:#181818;stroke-width:1;"/><text fill="#000000" font-family="sans-serif" font-size="13" lengthAdjust="spacing" textLength="103.105" x="257.08" y="531.6606">EmergencyStop</text></g><!--link *start*system__running to system__running__processing--><g class="link" data-entity-1="*start*system__running" data-entity-2="system__running__processing" data-source-line="19" data-uid="lnk8" id="link_*start*system__running_system__running__processing"><path d="M310.08,330.9038 C310.08,340.3138 310.08,349.1337 310.08,361.1138" fill="none" id="*start*system__running-to-system__running__processing" style="stroke:#181818;stroke-width:1;"/><polygon fill="#181818" points="310.08,367.1138,314.08,358.1138,310.08,362.1138,306.08,358.1138,310.08,367.1138" style="stroke:#181818;stroke-width:1;"/></g><!--link system__running__processing to system__running__waiting--><g class="link" data-entity-1="system__running__processing" data-entity-2="system__running__waiting" data-source-line="20" data-uid="lnk9" id="link_system__running__processing_system__running__waiting"><path d="M267.21,390.4938 C215.5,393.7938 133.14,402.6038 114.08,425.5938 C96.19,447.1638 128.9657,461.4986 159.3257,470.2686" fill="none" id="system__running__processing-to-system__running__waiting" style="stroke:#181818;stroke-width:1;"/><polygon fill="#181818" points="165.09,471.9338,157.5536,465.5932,160.2864,470.5461,155.3334,473.2789,165.09,471.9338" style="stroke:#181818;stroke-width:1;"/><text fill="#000000" font-family="sans-serif" font-size="13" lengthAdjust="spacing" textLength="108.2656" x="115.08" y="438.6606">Processing.Done</text></g><!--link system__running__waiting to system__running__processing--><g class="link" data-entity-1="system__running__waiting" data-entity-2="system__running__processing" data-source-line="21" data-uid="lnk10" id="link_system__running__waiting_system__running__processing"><path d="M212.52,460.2838 C221.83,449.3438 234.33,435.8438 247.08,425.5938 C254.98,419.2338 258.9447,416.3035 267.7447,411.0635" fill="none" id="system__running__waiting-to-system__running__processing" style="stroke:#181818;stroke-width:1;"/><polygon fill="#181818" points="272.9,407.9938,263.1206,409.1615,268.6039,410.5519,267.2136,416.0352,272.9,407.9938" style="stroke:#181818;stroke-width:1;"/><text fill="#000000" font-family="sans-serif" font-size="13" lengthAdjust="spacing" textLength="112.2202" x="248.08" y="438.6606">Waiting.Continue</text></g><rect fill="#F1F1F1" height="40" rx="12.5" ry="12.5" style="stroke:#181818;stroke-width:0.5;" width="79.1523" x="248.76" y="638.5969"/><text fill="#000000" font-family="sans-serif" font-size="14" lengthAdjust="spacing" textLength="69.1523" x="253.76" y="663.4436">SafeMode</text><rect fill="#F1F1F1" height="40" rx="12.5" ry="12.5" style="stroke:#181818;stroke-width:0.5;" width="99.8037" x="136.43" y="731.5969"/><text fill="#000000" font-family="sans-serif" font-size="14" lengthAdjust="spacing" textLength="89.8037" x="141.43" y="756.4436">ErrorHandler</text><ellipse cx="73.33" cy="133.2969" fill="#222222" rx="10" ry="10" style="stroke:#222222;stroke-width:1;"/><ellipse cx="406.33" cy="835.5969" fill="none" rx="11" ry="11" style="stroke:#222222;stroke-width:1;"/><ellipse cx="406.33" cy="835.5969" fill="#222222" rx="6" ry="6" style="stroke:#222222;stroke-width:1;"/><!--link system__initializing to system__error_handler--><g class="link" data-entity-1="system__initializing" data-entity-2="system__error_handler" data-source-line="25" data-uid="lnk11" id="link_system__initializing_system__error_handler"><path d="M68.67,220.4669 C54.69,282.1269 18,479.5269 83.33,620.5969 C103.9,665.0169 138.3418,703.5198 162.0018,727.2298" fill="none" id="system__initializing-to-system__error_handler" style="stroke:#181818;stroke-width:1;"/><polygon fill="#181818" points="166.24,731.4769,162.7142,722.2808,162.7082,727.9376,157.0513,727.9316,166.24,731.4769" style="stroke:#181818;stroke-width:1;"/><text fill="#000000" font-family="sans-serif" font-size="13" lengthAdjust="spacing" textLength="77.6699" x="84.33" y="616.6638">CriticalError</text></g><!--link system__running to system__error_handler--><g class="link" data-entity-1="system__running" data-entity-2="system__error_handler" data-source-line="26" data-uid="lnk12" id="link_system__running_system__error_handler"><path d="M181.22,585.9569 C172.05,602.6869 164.76,620.3169 160.33,638.5969 C152.49,670.9969 163.4277,703.3382 173.7377,725.6982" fill="none" id="system__running-to-system__error_handler" style="stroke:#181818;stroke-width:1;"/><polygon fill="#181818" points="176.25,731.1469,176.1139,721.299,174.1564,726.6063,168.849,724.6487,176.25,731.1469" style="stroke:#181818;stroke-width:1;"/><text fill="#000000" font-family="sans-serif" font-size="13" lengthAdjust="spacing" textLength="77.6699" x="161.33" y="663.1638">CriticalError</text></g><!--link system__running to system__safe_mode--><g class="link" data-entity-1="system__running" data-entity-2="system__safe_mode" data-source-line="27" data-uid="lnk13" id="link_system__running_system__safe_mode"><path d="M192.93,585.8969 C190.12,591.7169 187.57,597.6169 185.33,603.5969 C182.68,610.6669 180.99,614.4169 185.33,620.5969 C185.84,621.3069 214.063,631.4072 242.833,641.5772" fill="none" id="system__running-to-system__safe_mode" style="stroke:#181818;stroke-width:1;"/><polygon fill="#181818" points="248.49,643.5769,241.3377,636.806,243.7759,641.9105,238.6714,644.3486,248.49,643.5769" style="stroke:#181818;stroke-width:1;"/><text fill="#000000" font-family="sans-serif" font-size="13" lengthAdjust="spacing" textLength="161.0908" x="186.33" y="616.6638">Running.EmergencyStop</text></g><!--link system__safe_mode to system__error_handler--><g class="link" data-entity-1="system__safe_mode" data-entity-2="system__error_handler" data-source-line="28" data-uid="lnk14" id="link_system__safe_mode_system__error_handler"><path d="M266.7,678.8969 C249.39,694.3369 229.7176,711.893 212.4076,727.333" fill="none" id="system__safe_mode-to-system__error_handler" style="stroke:#181818;stroke-width:1;"/><polygon fill="#181818" points="207.93,731.3269,217.309,728.3211,211.6613,727.9986,211.9838,722.351,207.93,731.3269" style="stroke:#181818;stroke-width:1;"/><text fill="#000000" font-family="sans-serif" font-size="13" lengthAdjust="spacing" textLength="77.6699" x="247.47" y="709.6638">CriticalError</text></g><!--link system__error_handler to system__error_handler--><g class="link" data-entity-1="system__error_handler" data-entity-2="system__error_handler" data-source-line="29" data-uid="lnk15" id="link_system__error_handler_system__error_handler"><path d="M236.67,743.2069 C246.91,744.1269 254.24,746.9169 254.24,751.5969 C254.24,756.2769 252.8859,758.53 242.6459,759.45" fill="none" id="system__error_handler-to-system__error_handler" style="stroke:#181818;stroke-width:1;"/><polygon fill="#181818" points="236.67,759.9869,245.9918,763.1655,241.6499,759.5395,245.276,755.1976,236.67,759.9869" style="stroke:#181818;stroke-width:1;"/><text fill="#000000" font-family="sans-serif" font-size="13" lengthAdjust="spacing" textLength="77.6699" x="260.24" y="756.1638">CriticalError</text></g><!--link *start*system to system__initializing--><g class="link" data-entity-1="*start*system" data-entity-2="system__initializing" data-source-line="30" data-uid="lnk17" id="link_*start*system_system__initializing"><path d="M73.33,143.6169 C73.33,153.0169 73.33,161.8369 73.33,173.8269" fill="none" id="*start*system-to-system__initializing" style="stroke:#181818;stroke-width:1;"/><polygon fill="#181818" points="73.33,179.8269,77.33,170.8269,73.33,174.8269,69.33,170.8269,73.33,179.8269" style="stroke:#181818;stroke-width:1;"/></g><!--link system__initializing to system__running--><g class="link" data-entity-1="system__initializing" data-entity-2="system__running" data-source-line="31" data-uid="lnk18" id="link_system__initializing_system__running"><path d="M95.76,220.6669 C110.85,233.6969 127.79,248.3241 151.77,269.0441" fill="none" id="system__initializing-to-system__running" style="stroke:#181818;stroke-width:1;"/><polygon fill="#181818" points="156.31,272.9669,152.1152,264.056,152.5267,269.6979,146.8848,270.1093,156.31,272.9669" style="stroke:#181818;stroke-width:1;"/><text fill="#000000" font-family="sans-serif" font-size="13" lengthAdjust="spacing" textLength="102.4004" x="131.14" y="251.3638">Initializing.Start</text></g><!--link system__running to *end*system--><g class="link" data-entity-1="system__running" data-entity-2="*end*system" data-source-line="32" data-uid="lnk20" id="link_system__running_*end*system"><path d="M489.47,586.0869 C492.37,591.8369 495.01,597.6769 497.33,603.5969 C519.04,658.8269 709.16,511.3969 486.33,806.5969 C469.93,828.3269 441.4491,832.9047 423.5891,833.9847" fill="none" id="system__running-to-*end*system" style="stroke:#181818;stroke-width:1;"/><polygon fill="#181818" points="417.6,834.3469,426.825,837.7963,422.5909,834.0451,426.3421,829.8109,417.6,834.3469" style="stroke:#181818;stroke-width:1;"/><text fill="#000000" font-family="sans-serif" font-size="13" lengthAdjust="spacing" textLength="122.8906" x="562.97" y="709.6638">Running.Shutdown</text></g><!--link system__safe_mode to system__running--><g class="link" data-entity-1="system__safe_mode" data-entity-2="system__running" data-source-line="33" data-uid="lnk21" id="link_system__safe_mode_system__running"><path d="M328.27,640.8969 C336.29,635.6269 343.68,628.9369 348.33,620.5969 C354.38,609.7669 357.214,603.9085 359.664,591.7585" fill="none" id="system__safe_mode-to-system__running" style="stroke:#181818;stroke-width:1;"/><polygon fill="#181818" points="360.85,585.8769,355.1499,593.9086,359.8617,590.7782,362.9921,595.49,360.85,585.8769" style="stroke:#181818;stroke-width:1;"/><text fill="#000000" font-family="sans-serif" font-size="13" lengthAdjust="spacing" textLength="137.7632" x="355.77" y="616.6638">SafeMode.Recovered</text></g><!--link system__error_handler to *end*system--><g class="link" data-entity-1="system__error_handler" data-entity-2="*end*system" data-source-line="34" data-uid="lnk22" id="link_system__error_handler_*end*system"><path d="M236.53,771.3069 C289.29,790.9669 362.7872,818.373 390.6072,828.733" fill="none" id="system__error_handler-to-*end*system" style="stroke:#181818;stroke-width:1;"/><polygon fill="#181818" points="396.23,830.8269,389.1918,823.9375,391.5444,829.082,386.3999,831.4346,396.23,830.8269" style="stroke:#181818;stroke-width:1;"/><text fill="#000000" font-family="sans-serif" font-size="13" lengthAdjust="spacing" textLength="151.8423" x="329.89" y="802.6638">ErrorHandler.FatalError</text></g><ellipse cx="362.58" cy="16" fill="#222222" rx="10" ry="10" style="stroke:#222222;stroke-width:1;"/><ellipse cx="362.58" cy="927.6" fill="none" rx="11" ry="11" style="stroke:#222222;stroke-width:1;"/><ellipse cx="362.58" cy="927.6" fill="#222222" rx="6" ry="6" style="stroke:#222222;stroke-width:1;"/><!--link *start* to system--><g class="link" data-entity-1="*start*" data-entity-2="system" data-source-line="36" data-uid="lnk24" id="link_*start*_system"><path d="M362.58,26.47 C362.58,37.85 362.58,52.81 362.58,79.66" fill="none" id="*start*-to-system" style="stroke:#181818;stroke-width:1;"/><polygon fill="#181818" points="362.58,85.66,366.58,76.66,362.58,80.66,358.58,76.66,362.58,85.66" style="stroke:#181818;stroke-width:1;"/></g><!--link system to *end*--><g class="link" data-entity-1="system" data-entity-2="*end*" data-source-line="37" data-uid="lnk26" id="link_system_*end*"><path d="M362.58,856.61 C362.58,883.54 362.58,898.69 362.58,910.41" fill="none" id="system-to-*end*" style="stroke:#181818;stroke-width:1;"/><polygon fill="#181818" points="362.58,916.41,366.58,907.41,362.58,911.41,358.58,907.41,362.58,916.41" style="stroke:#181818;stroke-width:1;"/></g><!--SRC=[hLHDQyCm3BtdLuWU1ytkfVJGhlk03KPps66CO6AjDKti83ihsUX_dzCahPCqwmUx6UizwUb9zafm14nIamD77P58ZL3Iy_HQo9GHIq0RPX1-F80fYzPBKfdaCnKh6ezJZHbNamayY-NAF13BZw4YbQHA2uCrS1fdM00LSQHsgYhBlP8cC7cCJaWO5el8srfrEqs38DS6am4m3NftX6QrGZHK3GoUf3329lWMSkbGmb0u0PUmoAHiOwcyErh7eRwIYb3h7dOOfljuc_d6h9W-sgOC7ZZzUM4udC3xpGUCu7P6bXQnU4waw4BoF45QeepomAYqdrifkw9gbtcyP14hC6TvUQArNX4ZE4pElrCIpzFzLxqHL2FrPtQbXSpAd5jtqmBsYI-AOsFgsbw6YRrraJip7vdaCL83ZKKWN9KHprNihdT3RODYTNO7rjxw_sFlcxFCwftvtRbtqTSfQ28loz7Uk-vlSShdklyHk5-G7nX6fjUeyYdKrWIhp72raMUuSgXMRvM_m4Xz8I4_OKhr_9mLy- -PgStOUaqhlEhBhPY_]--></g></svg>