<?xml version="1.0" encoding="us-ascii" standalone="no"?><svg xmlns="http://www.w3.org/2000/svg" xmlns:xlink="http://www.w3.org/1999/xlink" contentStyleType="text/css" height="537px" preserveAspectRatio="none" style="width:265px;height:537px;background:#FFFFFF;" version="1.1" viewBox="0 0 265 537" width="265px" zoomAndPan="magnify"><defs/><g><rect fill="#DDDDDD" height="46.5938" id="_legend" rx="7.5" ry="7.5" style="stroke:#000000;stroke-width:1.0;" width="233" x="12" y="12"/><text fill="#000000" font-family="sans-serif" font-size="14" font-weight="bold" lengthAdjust="spacing" textLength="64" x="22" y="31.9951">Variable</text><text fill="#000000" font-family="sans-serif" font-size="14" font-weight="bold" lengthAdjust="spacing" textLength="39" x="96" y="31.9951">Type</text><text fill="#000000" font-family="sans-serif" font-size="14" font-weight="bold" lengthAdjust="spacing" textLength="90" x="145" y="31.9951">Initial Value</text><text fill="#000000" font-family="sans-serif" font-size="14" lengthAdjust="spacing" textLength="48" x="21" y="48.292">sensor</text><text fill="#000000" font-family="sans-serif" font-size="14" lengthAdjust="spacing" textLength="17" x="95" y="48.292">int</text><text fill="#000000" font-family="sans-serif" font-size="14" lengthAdjust="spacing" textLength="9" x="144" y="48.292">0</text><line style="stroke:#000000;stroke-width:1.0;" x1="17" x2="240" y1="19" y2="19"/><line style="stroke:#000000;stroke-width:1.0;" x1="17" x2="240" y1="35.2969" y2="35.2969"/><line style="stroke:#000000;stroke-width:1.0;" x1="17" x2="240" y1="51.5938" y2="51.5938"/><line style="stroke:#000000;stroke-width:1.0;" x1="17" x2="17" y1="19" y2="51.5938"/><line style="stroke:#000000;stroke-width:1.0;" x1="91" x2="91" y1="19" y2="51.5938"/><line style="stroke:#000000;stroke-width:1.0;" x1="140" x2="140" y1="19" y2="51.5938"/><line style="stroke:#000000;stroke-width:1.0;" x1="240" x2="240" y1="19" y2="51.5938"/><path d="M55,157.5938 L216,157.5938 A12.5,12.5 0 0 1 228.5,170.0938 L228.5,183.8906 L42.5,183.8906 L42.5,170.0938 A12.5,12.5 0 0 1 55,157.5938 " fill="#ADD8E6" style="stroke:#ADD8E6;stroke-width:1.0;"/><rect fill="none" height="294.2969" rx="12.5" ry="12.5" style="stroke:#181818;stroke-width:0.5;" width="186" x="42.5" y="157.5938"/><line style="stroke:#181818;stroke-width:0.5;" x1="42.5" x2="228.5" y1="183.8906" y2="183.8906"/><text fill="#000000" font-family="sans-serif" font-size="14" lengthAdjust="spacing" textLength="166" x="52.5" y="175.5889">GuardVarsNeverChange</text><rect fill="#F1F1F1" height="40" rx="12.5" ry="12.5" style="stroke:#181818;stroke-width:0.5;" width="50" x="55" y="251.8906"/><text fill="#000000" font-family="sans-serif" font-size="14" lengthAdjust="spacing" textLength="24" x="68" y="276.7373">Idle</text><rect fill="#F1F1F1" height="40" rx="12.5" ry="12.5" style="stroke:#181818;stroke-width:0.5;" width="51" x="54.5" y="344.8906"/><text fill="#000000" font-family="sans-serif" font-size="14" lengthAdjust="spacing" textLength="41" x="59.5" y="369.7373">Active</text><ellipse cx="80" cy="204.8906" fill="#181818" rx="10" ry="10" style="stroke:none;stroke-width:1.0;"/><ellipse cx="80" cy="431.8906" fill="none" rx="10" ry="10" style="stroke:#181818;stroke-width:1.0;"/><ellipse cx="80.5" cy="432.3906" fill="#181818" rx="6" ry="6" style="stroke:none;stroke-width:1.0;"/><!--link *start*guard_vars_never_change to guard_vars_never_change__idle--><g id="link_*start*guard_vars_never_change_guard_vars_never_change__idle"><path d="M80,215.2006 C80,223.1406 80,234.9306 80,245.6206 " fill="none" id="*start*guard_vars_never_change-to-guard_vars_never_change__idle" style="stroke:#181818;stroke-width:1.0;"/><polygon fill="#181818" points="80,250.4106,84,241.4106,80,245.4106,76,241.4106,80,250.4106" style="stroke:#181818;stroke-width:1.0;"/></g><!--link guard_vars_never_change__idle to guard_vars_never_change__active--><g id="link_guard_vars_never_change__idle_guard_vars_never_change__active"><path d="M80,292.1906 C80,305.8206 80,324.2206 80,338.9606 " fill="none" id="guard_vars_never_change__idle-to-guard_vars_never_change__active" style="stroke:#181818;stroke-width:1.0;"/><polygon fill="#181818" points="80,343.6206,84,334.6206,80,338.6206,76,334.6206,80,343.6206" style="stroke:#181818;stroke-width:1.0;"/><text fill="#000000" font-family="sans-serif" font-size="13" lengthAdjust="spacing" textLength="78" x="81" y="322.9575">sensor &gt; 10</text></g><!--link guard_vars_never_change__active to *end*guard_vars_never_change--><g id="link_guard_vars_never_change__active_*end*guard_vars_never_change"><path d="M80,385.0406 C80,394.7806 80,406.4506 80,415.5806 " fill="none" id="guard_vars_never_change__active-to-*end*guard_vars_never_change" style="stroke:#181818;stroke-width:1.0;"/><polygon fill="#181818" points="80,420.4406,84,411.4406,80,415.4406,76,411.4406,80,420.4406" style="stroke:#181818;stroke-width:1.0;"/></g><ellipse cx="135.5" cy="87.5938" fill="#181818" rx="10" ry="10" style="stroke:none;stroke-width:1.0;"/><ellipse cx="135.5" cy="521.5938" fill="none" rx="10" ry="10" style="stroke:#181818;stroke-width:1.0;"/><ellipse cx="136" cy="522.0938" fill="#181818" rx="6" ry="6" style="stroke:none;stroke-width:1.0;"/><!--link *start* to guard_vars_never_change--><g id="link_*start*_guard_vars_never_change"><path d="M135.5,97.8338 C135.5,108.7638 135.5,128.3938 135.5,151.3438 " fill="none" id="*start*-to-guard_vars_never_change" style="stroke:#181818;stroke-width:1.0;"/><polygon fill="#181818" points="135.5,156.2538,139.5,147.2538,135.5,151.2538,131.5,147.2538,135.5,156.2538" style="stroke:#181818;stroke-width:1.0;"/></g><!--link guard_vars_never_change to *end*--><g id="link_guard_vars_never_change_*end*"><path d="M135.5,451.9738 C135.5,473.5037 135.5,492.6238 135.5,505.1838 " fill="none" id="guard_vars_never_change-to-*end*" style="stroke:#181818;stroke-width:1.0;"/><polygon fill="#181818" points="135.5,510.1238,139.5,501.1238,135.5,505.1238,131.5,501.1238,135.5,510.1238" style="stroke:#181818;stroke-width:1.0;"/></g><!--SRC=[ZP51IyGm48Nl-HN37eM5zIfhmHLS5iIBuaMan6PiXqsJa4mBnVhVdNQxi8fslIGXxxqlCvEA30BMWJimc8f8WSaxfTAUND1Hrv1OCyA70jZeObz6tpXpwwsFwtL8s1YVPN1FPSNRgBlVN8MlWq_4U3HkR8E3qKU3yITgejnvnu_SMJoHYBMbGdqgPR54Pu1z08llhFfhUDQHz9j5aFDJ5yPzvuX9Mz7aHUXL3mbTyX5w8CUohkHIG0USD3sskjWsEXhXfGTifS1Akn8Ne1EKWv2tekHkaF9YrE1xZyEeO1hROYVmkMoUapXE4pS5KticeqVFc7gvU8NbCli7VzOnppYy1rV7-MLmkPfdJec1AXNAdvsfK_qrsudm1G00]--></g></svg>