<svg xmlns="http://www.w3.org/2000/svg" xmlns:xlink="http://www.w3.org/1999/xlink" version="1.1" data-diagram-type="STATE" style="width:269px;height:552px;background:#FFFFFF;" width="269px" height="552px" viewBox="0 0 269 552" zoomAndPan="magnify" preserveAspectRatio="none" contentStyleType="text/css"><?plantuml 1.2026.7beta6?><defs/><g font-family="sans-serif" lengthAdjust="spacing"><g class="legend" data-source-line="10"><rect x="12" y="12" width="238.313" height="46.594" fill="#DDD" style="stroke:#000;stroke-width:1;" rx="7.5" ry="7.5"/><text x="21.874" y="31.995" fill="#000" font-size="14" textLength="65.748" font-weight="700">Variable</text><text x="97.37" y="31.995" fill="#000" font-size="14" textLength="38.192" font-weight="700">Type</text><text x="145.311" y="31.995" fill="#000" font-size="14" textLength="95.129" font-weight="700">Initial Value</text><text x="21.45" y="48.292" fill="#000" font-size="14" textLength="46.396">sensor</text><text x="96.946" y="48.292" fill="#000" font-size="14" textLength="18.252">int</text><text x="144.887" y="48.292" fill="#000" font-size="14">0</text><line x1="17" y1="19" x2="245.313" y2="19" style="stroke:#000;stroke-width:1;"/><line x1="17" y1="35.297" x2="245.313" y2="35.297" style="stroke:#000;stroke-width:1;"/><line x1="17" y1="51.594" x2="245.313" y2="51.594" style="stroke:#000;stroke-width:1;"/><line x1="17" y1="19" x2="17" y2="51.594" style="stroke:#000;stroke-width:1;"/><line x1="92.496" y1="19" x2="92.496" y2="51.594" style="stroke:#000;stroke-width:1;"/><line x1="140.437" y1="19" x2="140.437" y2="51.594" style="stroke:#000;stroke-width:1;"/><line x1="245.313" y1="19" x2="245.313" y2="51.594" style="stroke:#000;stroke-width:1;"/></g><g class="entity" data-qualified-name="guard_vars_never_change" id="ent0001" data-source-line="15"><path d="M48.412,157.594 L212.902,157.594 A12.5,12.5 0 0 1 225.402,170.094 L225.402,183.891 L35.912,183.891 L35.912,170.094 A12.5,12.5 0 0 1 48.412,157.594" fill="#ADD8E6"/><path d="M35.912,183.891 L225.402,183.891 L225.402,444.391 A12.5,12.5 0 0 1 212.902,456.891 L48.412,456.891 A12.5,12.5 0 0 1 35.912,444.391 L35.912,183.891" fill="#ADD8E6"/><rect x="35.912" y="157.594" width="189.49" height="299.297" fill="none" style="stroke:#181818;stroke-width:0.5;" rx="12.5" ry="12.5"/><line x1="35.912" y1="183.891" x2="225.402" y2="183.891" style="stroke:#181818;stroke-width:0.5;"/><text x="45.912" y="175.589" fill="#000" font-size="14" textLength="169.49">GuardVarsNeverChange</text><rect x="49.692" y="251.891" width="50" height="40" fill="#F1F1F1" style="stroke:#181818;stroke-width:0.5;" rx="12.5" ry="12.5"/><text x="61.932" y="276.737" fill="#000" font-size="14" textLength="25.519">Idle</text><rect x="47.912" y="344.891" width="53.552" height="40" fill="#F1F1F1" style="stroke:#181818;stroke-width:0.5;" rx="12.5" ry="12.5"/><text x="52.912" y="369.737" fill="#000" font-size="14" textLength="43.552">Active</text><g class="start_entity" data-qualified-name="guard_vars_never_change..start.guard_vars_never_change" id="ent0004" data-source-line="18"><ellipse cx="74.692" cy="204.891" rx="10" ry="10" fill="#222" style="stroke:#222;stroke-width:1;"/></g><g class="end_entity" data-qualified-name="guard_vars_never_change..end.guard_vars_never_change" id="ent0007" data-source-line="20"><ellipse cx="74.692" cy="432.891" rx="11" ry="11" fill="none" style="stroke:#222;stroke-width:1;"/><ellipse cx="74.692" cy="432.891" rx="6" ry="6" fill="#222" style="stroke:#222;stroke-width:1;"/></g><!--link *start*guard_vars_never_change to guard_vars_never_change__idle--><g class="link" data-entity-1="ent0004" data-entity-2="ent0002" id="lnk5" data-source-line="18" data-link-type="dependency"><path d="M74.692,215.201 C74.692,224.611 74.692,234.431 74.692,246.411" style="stroke:#181818;stroke-width:1;" fill="none" id="*start*guard_vars_never_change-to-guard_vars_never_change__idle"/><polygon points="74.692,251.411,78.692,242.411,74.692,246.411,70.692,242.411,74.692,251.411" fill="#181818" style="stroke:#181818;stroke-width:1;stroke-linejoin:miter;stroke-miterlimit:10;"/></g><!--link guard_vars_never_change__idle to guard_vars_never_change__active--><g class="link" data-entity-1="ent0002" data-entity-2="ent0003" id="lnk6" data-source-line="19" data-link-type="dependency"><path d="M74.692,292.191 C74.692,307.631 74.692,324.181 74.692,339.621" style="stroke:#181818;stroke-width:1;" fill="none" id="guard_vars_never_change__idle-to-guard_vars_never_change__active"/><polygon points="74.692,344.621,78.692,335.621,74.692,339.621,70.692,335.621,74.692,344.621" fill="#181818" style="stroke:#181818;stroke-width:1;stroke-linejoin:miter;stroke-miterlimit:10;"/><text x="75.692" y="322.958" fill="#000" font-size="13" textLength="78.781">sensor > 10</text></g><!--link guard_vars_never_change__active to *end*guard_vars_never_change--><g class="link" data-entity-1="ent0003" data-entity-2="ent0007" id="lnk8" data-source-line="20" data-link-type="dependency"><path d="M74.692,385.341 C74.692,397.201 74.692,406.891 74.692,416.561" style="stroke:#181818;stroke-width:1;" fill="none" id="guard_vars_never_change__active-to-*end*guard_vars_never_change"/><polygon points="74.692,421.561,78.692,412.561,74.692,416.561,70.692,412.561,74.692,421.561" fill="#181818" style="stroke:#181818;stroke-width:1;stroke-linejoin:miter;stroke-miterlimit:10;"/></g></g><g class="start_entity" data-qualified-name=".start." id="ent0009" data-source-line="22"><ellipse cx="130.662" cy="87.594" rx="10" ry="10" fill="#222" style="stroke:#222;stroke-width:1;"/></g><g class="end_entity" data-qualified-name=".end." id="ent0011" data-source-line="23"><ellipse cx="130.662" cy="527.894" rx="11" ry="11" fill="none" style="stroke:#222;stroke-width:1;"/><ellipse cx="130.662" cy="527.894" rx="6" ry="6" fill="#222" style="stroke:#222;stroke-width:1;"/></g><!--link *start* to guard_vars_never_change--><g class="link" data-entity-1="ent0009" data-entity-2="ent0001" id="lnk10" data-source-line="22" data-link-type="dependency"><path d="M130.662,97.954 C130.662,109.824 130.662,126.874 130.662,152.314" style="stroke:#181818;stroke-width:1;" fill="none" id="*start*-to-guard_vars_never_change"/><polygon points="130.662,157.314,134.662,148.314,130.662,152.314,126.662,148.314,130.662,157.314" fill="#181818" style="stroke:#181818;stroke-width:1;stroke-linejoin:miter;stroke-miterlimit:10;"/></g><!--link guard_vars_never_change to *end*--><g class="link" data-entity-1="ent0001" data-entity-2="ent0011" id="lnk12" data-source-line="23" data-link-type="dependency"><path d="M130.662,457.114 C130.662,482.514 130.662,499.634 130.662,511.834" style="stroke:#181818;stroke-width:1;" fill="none" id="guard_vars_never_change-to-*end*"/><polygon points="130.662,516.834,134.662,507.834,130.662,511.834,126.662,507.834,130.662,516.834" fill="#181818" style="stroke:#181818;stroke-width:1;stroke-linejoin:miter;stroke-miterlimit:10;"/></g><?plantuml-src ZP51IyGm48Nl-HN37eM5zIfhmHLS5iIBuaMan6PiXqsJa4mBnVhVdNQxi8fslIGXxxqlCvEA30BMWJimc8f8WSaxfTAUND1Hrv1OCyA70jZeObz6tpXpwwsFwtL8s1YVPN1FPSNRgBlVN8MlWq_4U3HkR8E3qKU3yITgejnvnu_SMJoHYBMbGdqgPR54Pu1z08llhFfhUDQHz9j5aFDJ5yPzvuX9Mz7aHUXL3mbTyX5w8CUohkHIG0USD3sskjWsEXhXfGTifS1Akn8Ne1EKWv2tekHkaF9YrE1xZyEeO1hROYVmkMoUapXE4pS5KticeqVFc7gvU8NbCli7VzOnppYy1rV7-MLmkPfdJec1AXNAdvsfK_qrsudm1G00?></g></svg>