<svg xmlns="http://www.w3.org/2000/svg" xmlns:xlink="http://www.w3.org/1999/xlink" contentStyleType="text/css" data-diagram-type="STATE" height="755px" preserveAspectRatio="none" style="width:959px;height:755px;background:#FFFFFF;" version="1.1" viewBox="0 0 959 755" width="959px" zoomAndPan="magnify"><defs/><g><path d="M19.5,86 L933.44,86 A12.5,12.5 0 0 1 945.94,98.5 L945.94,112.2969 L7,112.2969 L7,98.5 A12.5,12.5 0 0 1 19.5,86" fill="#ADD8E6"/><rect fill="none" height="581.2969" rx="12.5" ry="12.5" style="stroke:#181818;stroke-width:0.5;" width="938.94" x="7" y="86"/><line style="stroke:#181818;stroke-width:0.5;" x1="7" x2="945.94" y1="112.2969" y2="112.2969"/><text fill="#000000" font-family="sans-serif" font-size="14" lengthAdjust="spacing" textLength="135.0508" x="408.9446" y="103.9951">PowerManagement</text><rect fill="#F1F1F1" height="40" rx="12.5" ry="12.5" style="stroke:#181818;stroke-width:0.5;" width="60.9004" x="424.69" y="180.2969"/><text fill="#000000" font-family="sans-serif" font-size="14" lengthAdjust="spacing" textLength="50.9004" x="429.69" y="205.1436">Normal</text><rect fill="#F1F1F1" height="40" rx="12.5" ry="12.5" style="stroke:#181818;stroke-width:0.5;" width="80.6426" x="62.82" y="273.2969"/><text fill="#000000" font-family="sans-serif" font-size="14" lengthAdjust="spacing" textLength="70.6426" x="67.82" y="298.1436">LowPower</text><rect fill="#F1F1F1" height="40" rx="12.5" ry="12.5" style="stroke:#181818;stroke-width:0.5;" width="73.5195" x="575.38" y="617.2969"/><text fill="#000000" font-family="sans-serif" font-size="14" lengthAdjust="spacing" textLength="63.5195" x="580.38" y="642.1436">Charging</text><rect fill="#F1F1F1" height="40" rx="12.5" ry="12.5" style="stroke:#181818;stroke-width:0.5;" width="58.9658" x="263.66" y="446.2969"/><text fill="#000000" font-family="sans-serif" font-size="14" lengthAdjust="spacing" textLength="48.9658" x="268.66" y="471.1436">Critical</text><ellipse cx="455.14" cy="133.2969" fill="#222222" rx="10" ry="10" style="stroke:#222222;stroke-width:1;"/><ellipse cx="287.14" cy="637.2969" fill="none" rx="11" ry="11" style="stroke:#222222;stroke-width:1;"/><ellipse cx="287.14" cy="637.2969" fill="#222222" rx="6" ry="6" style="stroke:#222222;stroke-width:1;"/><!--link *start*power_management to power_management__normal--><g class="link" data-entity-1="*start*power_management" data-entity-2="power_management__normal" data-source-line="15" data-uid="lnk3" id="link_*start*power_management_power_management__normal"><path d="M455.14,143.6069 C455.14,153.0169 455.14,161.8369 455.14,173.8169" fill="none" id="*start*power_management-to-power_management__normal" style="stroke:#181818;stroke-width:1;"/><polygon fill="#181818" points="455.14,179.8169,459.14,170.8169,455.14,174.8169,451.14,170.8169,455.14,179.8169" style="stroke:#181818;stroke-width:1;"/></g><!--link power_management__normal to power_management__low_power--><g class="link" data-entity-1="power_management__normal" data-entity-2="power_management__low_power" data-source-line="16" data-uid="lnk4" id="link_power_management__normal_power_management__low_power"><path d="M424.54,202.8669 C359.41,206.5669 209.25,217.1769 163.14,238.2969 C145.81,246.2369 134.0097,256.5497 122.9597,268.6297" fill="none" id="power_management__normal-to-power_management__low_power" style="stroke:#181818;stroke-width:1;"/><polygon fill="#181818" points="118.91,273.0569,127.936,269.1159,122.2847,269.3676,122.0331,263.7163,118.91,273.0569" style="stroke:#181818;stroke-width:1;"/><text fill="#000000" font-family="sans-serif" font-size="13" lengthAdjust="spacing" textLength="120.561" x="164.14" y="251.3638">battery_level &lt; 30</text></g><!--link power_management__normal to power_management__critical--><g class="link" data-entity-1="power_management__normal" data-entity-2="power_management__critical" data-source-line="17" data-uid="lnk5" id="link_power_management__normal_power_management__critical"><path d="M424.47,207.7169 C391.13,216.4469 339.15,235.4969 313.14,273.2969 C294.09,300.9769 292.5737,397.077 292.8337,440.037" fill="none" id="power_management__normal-to-power_management__critical" style="stroke:#181818;stroke-width:1;"/><polygon fill="#181818" points="292.87,446.0369,296.8155,437.0128,292.8397,441.037,288.8156,437.0612,292.87,446.0369" style="stroke:#181818;stroke-width:1;"/><text fill="#000000" font-family="sans-serif" font-size="13" lengthAdjust="spacing" textLength="283.9053" x="314.14" y="297.8638">battery_level &lt; 10 &amp;&amp; charging_state == 0</text></g><!--link power_management__low_power to power_management__critical--><g class="link" data-entity-1="power_management__low_power" data-entity-2="power_management__critical" data-source-line="18" data-uid="lnk6" id="link_power_management__low_power_power_management__critical"><path d="M62.55,313.2269 C55.96,318.1569 50.02,324.1469 46.14,331.2969 C25.56,369.1769 18,395.6369 46.14,428.2969 C73.87,460.4969 197.9301,465.0385 257.3601,465.4185" fill="none" id="power_management__low_power-to-power_management__critical" style="stroke:#181818;stroke-width:1;"/><polygon fill="#181818" points="263.36,465.4569,254.3858,461.3994,258.3601,465.4249,254.3346,469.3992,263.36,465.4569" style="stroke:#181818;stroke-width:1;"/><text fill="#000000" font-family="sans-serif" font-size="13" lengthAdjust="spacing" textLength="237.3135" x="47.14" y="384.3638">temperature &gt; 80 || error_count &gt; 5</text></g><!--link power_management__charging to power_management__normal--><g class="link" data-entity-1="power_management__charging" data-entity-2="power_management__normal" data-source-line="19" data-uid="lnk7" id="link_power_management__charging_power_management__normal"><path d="M612.53,617.0769 C613.8,546.2269 616.77,302.2769 598.14,273.2969 C573.03,234.2569 525.6581,216.933 491.6981,208.623" fill="none" id="power_management__charging-to-power_management__normal" style="stroke:#181818;stroke-width:1;"/><polygon fill="#181818" points="485.87,207.1969,493.6613,213.2214,490.7267,208.3853,495.5628,205.4507,485.87,207.1969" style="stroke:#181818;stroke-width:1;"/><text fill="#000000" font-family="sans-serif" font-size="13" lengthAdjust="spacing" textLength="131.4536" x="613.76" y="384.3638">battery_level &gt;= 90</text></g><!--link power_management__critical to power_management__charging--><g class="link" data-entity-1="power_management__critical" data-entity-2="power_management__charging" data-source-line="20" data-uid="lnk8" id="link_power_management__critical_power_management__charging"><path d="M322.78,469.8569 C346.98,473.5269 380.31,482.4769 400.14,504.2969 C429.36,536.4469 391.75,569.2669 423.14,599.2969 C444.46,619.6969 520.2416,629.0477 568.9716,633.1977" fill="none" id="power_management__critical-to-power_management__charging" style="stroke:#181818;stroke-width:1;"/><polygon fill="#181818" points="574.95,633.7069,566.3219,628.9576,569.968,633.2826,565.643,636.9287,574.95,633.7069" style="stroke:#181818;stroke-width:1;"/><path d="M428.14,509.2969 L428.14,594.2969 L593.14,594.2969 L593.14,519.2969 L583.14,509.2969 L428.14,509.2969" fill="#FEFFDD" style="stroke:#181818;stroke-width:0.5;"/><path d="M583.14,509.2969 L583.14,519.2969 L593.14,519.2969 L583.14,509.2969" fill="#FEFFDD" style="stroke:#181818;stroke-width:0.5;"/><text fill="#000000" font-family="sans-serif" font-size="13" lengthAdjust="spacing" textLength="49.7974" x="434.14" y="526.3638">effect {</text><text fill="#000000" font-family="sans-serif" font-size="13" lengthAdjust="spacing" textLength="128.2925" x="450.6693" y="541.4966">charging_state = 1;</text><text fill="#000000" font-family="sans-serif" font-size="13" lengthAdjust="spacing" textLength="106.9707" x="450.6693" y="556.6294">error_count = 0;</text><text fill="#000000" font-family="sans-serif" font-size="13" lengthAdjust="spacing" textLength="122.0781" x="450.6693" y="571.7622">temperature = 25;</text><text fill="#000000" font-family="sans-serif" font-size="13" lengthAdjust="spacing" textLength="8.271" x="434.14" y="586.895">}</text></g><!--link power_management__charging to power_management__normal--><g class="link" data-entity-1="power_management__charging" data-entity-2="power_management__normal" data-source-line="28" data-uid="lnk9" id="link_power_management__charging_power_management__normal"><path d="M633,617.0469 C683.72,567.8569 805.13,434.1469 746.14,331.2969 C691.9,236.7369 554.7838,211.3849 491.7038,204.4249" fill="none" id="power_management__charging-to-power_management__normal-1" style="stroke:#181818;stroke-width:1;"/><polygon fill="#181818" points="485.74,203.7669,494.247,208.7298,490.7098,204.3152,495.1244,200.778,485.74,203.7669" style="stroke:#181818;stroke-width:1;"/><text fill="#000000" font-family="sans-serif" font-size="13" lengthAdjust="spacing" textLength="139.7246" x="782.4483" y="344.3638">battery_level &gt;= 100</text><path d="M766.94,353.4297 L766.94,423.4297 L936.94,423.4297 L936.94,363.4297 L926.94,353.4297 L766.94,353.4297" fill="#FEFFDD" style="stroke:#181818;stroke-width:0.5;"/><path d="M926.94,353.4297 L926.94,363.4297 L936.94,363.4297 L926.94,353.4297" fill="#FEFFDD" style="stroke:#181818;stroke-width:0.5;"/><text fill="#000000" font-family="sans-serif" font-size="13" lengthAdjust="spacing" textLength="49.7974" x="772.94" y="370.4966">effect {</text><text fill="#000000" font-family="sans-serif" font-size="13" lengthAdjust="spacing" textLength="128.2925" x="789.4693" y="385.6294">charging_state = 0;</text><text fill="#000000" font-family="sans-serif" font-size="13" lengthAdjust="spacing" textLength="133.2119" x="789.4693" y="400.7622">battery_level = 100;</text><text fill="#000000" font-family="sans-serif" font-size="13" lengthAdjust="spacing" textLength="8.271" x="772.94" y="415.895">}</text></g><!--link power_management__critical to *end*power_management--><g class="link" data-entity-1="power_management__critical" data-entity-2="*end*power_management" data-source-line="35" data-uid="lnk11" id="link_power_management__critical_*end*power_management"><path d="M290.08,486.4569 C289.29,492.1769 288.55,498.4769 288.14,504.2969 C284.92,549.5569 285.8939,597.7698 286.5839,620.0098" fill="none" id="power_management__critical-to-*end*power_management" style="stroke:#181818;stroke-width:1;"/><polygon fill="#181818" points="286.77,626.0069,290.489,616.8872,286.6149,621.0093,282.4928,617.1352,286.77,626.0069" style="stroke:#181818;stroke-width:1;"/><text fill="#000000" font-family="sans-serif" font-size="13" lengthAdjust="spacing" textLength="110.8618" x="289.14" y="556.3638">error_count &gt; 10</text></g><ellipse cx="476.47" cy="16" fill="#222222" rx="10" ry="10" style="stroke:#222222;stroke-width:1;"/><ellipse cx="476.47" cy="738.3" fill="none" rx="11" ry="11" style="stroke:#222222;stroke-width:1;"/><ellipse cx="476.47" cy="738.3" fill="#222222" rx="6" ry="6" style="stroke:#222222;stroke-width:1;"/><!--link *start* to power_management--><g class="link" data-entity-1="*start*" data-entity-2="power_management" data-source-line="37" data-uid="lnk13" id="link_*start*_power_management"><path d="M476.47,26.23 C476.47,37.69 476.47,53.02 476.47,79.73" fill="none" id="*start*-to-power_management" style="stroke:#181818;stroke-width:1;"/><polygon fill="#181818" points="476.47,85.73,480.47,76.73,476.47,80.73,472.47,76.73,476.47,85.73" style="stroke:#181818;stroke-width:1;"/></g><!--link power_management to *end*--><g class="link" data-entity-1="power_management" data-entity-2="*end*" data-source-line="38" data-uid="lnk15" id="link_power_management_*end*"><path d="M476.47,667.53 C476.47,693.87 476.47,709.1 476.47,720.95" fill="none" id="power_management-to-*end*" style="stroke:#181818;stroke-width:1;"/><polygon fill="#181818" points="476.47,726.95,480.47,717.95,476.47,721.95,472.47,717.95,476.47,726.95" style="stroke:#181818;stroke-width:1;"/></g><!--SRC=[hLHDQy904BtdLmmUF1I4s2Bqm-IWq5viAVHOIjXknhYusGsJiIBL_zuaHeqVQwaqntdpthnvp6QYOWHCCrv0ZBaabR6onlFogJAP8952pe8HlZs0WP3JXEpCn4EhBVNxMOwps8OXZ5GouISIYrDTqgQPpHNZfd6WPrWsMegH3gLgbKTh-8qN6XkGOg6Lz5Q5kyfJwzNEaPw54GccQBW58eUih4NfjWZx1iezeDwfzM8f5VeaBOfC1JRRHtPUJNGGj9r7LRN96Ku49Sea3ewiuJqAALRIwKlMS4Lvl_g0JYSyRzy5EfZRFU0UFWKpqYBI-8KQ-d3ZNwAuiNn2iEj3kmsR6A9r1440hZaxSx-EukAiaGJF2264Mn-MIq0YIv4ihfEBMiynP6FdRBH7ouG1tBbiRsqvN3VFmDWY0cj0ApEj2ZWUe-JwTCllC2xeFconveP5Z3kW6KS0rxqribfFC74rzh_pwFh-fIirdE_BLgf_CT-CldmlzmTNqFMBNuhh8Nb7_vDQvWS0]--></g></svg>