<?plantuml 1.2026.2beta3?><svg xmlns="http://www.w3.org/2000/svg" xmlns:xlink="http://www.w3.org/1999/xlink" contentStyleType="text/css" data-diagram-type="STATE" height="1030px" preserveAspectRatio="none" style="width:994px;height:1030px;background:#FFFFFF;" version="1.1" viewBox="0 0 994 1030" width="994px" zoomAndPan="magnify"><defs/><g><g class="entity" data-qualified-name="DefinitionNote" data-source-line="3" id="ent0002"><path d="M232.42,6 L232.42,106.7969 L449.2008,106.7969 L449.2008,16 L439.2008,6 L232.42,6" fill="#FEFFDD" style="stroke:#181818;stroke-width:0.5;"/><path d="M439.2008,6 L439.2008,16 L449.2008,16 L439.2008,6" fill="#FEFFDD" style="stroke:#181818;stroke-width:1;"/><text fill="#000000" font-family="sans-serif" font-size="13" lengthAdjust="spacing" textLength="59.8521" x="238.42" y="23.0669">defines {</text><text fill="#000000" font-family="sans-serif" font-size="13" lengthAdjust="spacing" textLength="179.2515" x="254.9493" y="38.1997">def int battery_level = 100;</text><text fill="#000000" font-family="sans-serif" font-size="13" lengthAdjust="spacing" textLength="168.1177" x="254.9493" y="53.3325">def int temperature = 25;</text><text fill="#000000" font-family="sans-serif" font-size="13" lengthAdjust="spacing" textLength="153.0103" x="254.9493" y="68.4653">def int error_count = 0;</text><text fill="#000000" font-family="sans-serif" font-size="13" lengthAdjust="spacing" textLength="174.332" x="254.9493" y="83.5981">def int charging_state = 0;</text><text fill="#000000" font-family="sans-serif" font-size="13" lengthAdjust="spacing" textLength="8.271" x="238.42" y="98.731">}</text></g><path d="M19.5,166.8 L968.12,166.8 A12.5,12.5 0 0 1 980.62,179.3 L980.62,193.0969 L7,193.0969 L7,179.3 A12.5,12.5 0 0 1 19.5,166.8" fill="#F1F1F1"/><rect fill="none" height="776.02" rx="12.5" ry="12.5" style="stroke:#181818;stroke-width:0.5;" width="973.62" x="7" y="166.8"/><line style="stroke:#181818;stroke-width:0.5;" x1="7" x2="980.62" y1="193.0969" y2="193.0969"/><text fill="#000000" font-family="sans-serif" font-size="14" lengthAdjust="spacing" textLength="135.0508" x="426.2846" y="184.7951">PowerManagement</text><g class="entity" data-qualified-name="power_management.power_management__normal" id="ent0004"><rect fill="#F1F1F1" height="78.2031" rx="12.5" ry="12.5" style="stroke:#181818;stroke-width:0.5;" width="233.2461" x="378" y="261.0969"/><line style="stroke:#181818;stroke-width:0.5;" x1="378" x2="611.2461" y1="287.3938" y2="287.3938"/><text fill="#000000" font-family="sans-serif" font-size="14" lengthAdjust="spacing" textLength="50.9004" x="469.1729" y="279.092">Normal</text><text fill="#000000" font-family="sans-serif" font-size="12" lengthAdjust="spacing" textLength="50.1621" x="383" y="303.5324">during {</text><text fill="#000000" font-family="sans-serif" font-size="12" lengthAdjust="spacing" textLength="197.9883" x="398.2578" y="317.5012">battery_level = battery_level - 1;</text><text fill="#000000" font-family="sans-serif" font-size="12" lengthAdjust="spacing" textLength="7.6348" x="383" y="331.4699">}</text></g><g class="entity" data-qualified-name="power_management.power_management__low_power" id="ent0005"><rect fill="#F1F1F1" height="120.1094" rx="12.5" ry="12.5" style="stroke:#181818;stroke-width:0.5;" width="233.2461" x="19" y="392.2969"/><line style="stroke:#181818;stroke-width:0.5;" x1="19" x2="252.2461" y1="418.5938" y2="418.5938"/><text fill="#000000" font-family="sans-serif" font-size="14" lengthAdjust="spacing" textLength="70.6426" x="100.3018" y="410.292">LowPower</text><text fill="#000000" font-family="sans-serif" font-size="12" lengthAdjust="spacing" textLength="43.459" x="24" y="434.7324">enter {</text><text fill="#000000" font-family="sans-serif" font-size="12" lengthAdjust="spacing" textLength="98.7422" x="39.2578" y="448.7012">error_count = 0;</text><text fill="#000000" font-family="sans-serif" font-size="12" lengthAdjust="spacing" textLength="7.6348" x="24" y="462.6699">}</text><text fill="#000000" font-family="sans-serif" font-size="12" lengthAdjust="spacing" textLength="50.1621" x="24" y="476.6387">during {</text><text fill="#000000" font-family="sans-serif" font-size="12" lengthAdjust="spacing" textLength="197.9883" x="39.2578" y="490.6074">battery_level = battery_level - 0;</text><text fill="#000000" font-family="sans-serif" font-size="12" lengthAdjust="spacing" textLength="7.6348" x="24" y="504.5762">}</text></g><g class="entity" data-qualified-name="power_management.power_management__charging" id="ent0006"><rect fill="#F1F1F1" height="78.2031" rx="12.5" ry="12.5" style="stroke:#181818;stroke-width:0.5;" width="238.9707" x="532.14" y="854.6169"/><line style="stroke:#181818;stroke-width:0.5;" x1="532.14" x2="771.1107" y1="880.9138" y2="880.9138"/><text fill="#000000" font-family="sans-serif" font-size="14" lengthAdjust="spacing" textLength="63.5195" x="619.8656" y="872.612">Charging</text><text fill="#000000" font-family="sans-serif" font-size="12" lengthAdjust="spacing" textLength="50.1621" x="537.14" y="897.0524">during {</text><text fill="#000000" font-family="sans-serif" font-size="12" lengthAdjust="spacing" textLength="203.7129" x="552.3978" y="911.0212">battery_level = battery_level + 2;</text><text fill="#000000" font-family="sans-serif" font-size="12" lengthAdjust="spacing" textLength="7.6348" x="537.14" y="924.9899">}</text></g><g class="entity" data-qualified-name="power_management.power_management__critical" id="ent0007"><rect fill="#F1F1F1" height="78.2031" rx="12.5" ry="12.5" style="stroke:#181818;stroke-width:0.5;" width="221.0645" x="222.09" y="645.4069"/><line style="stroke:#181818;stroke-width:0.5;" x1="222.09" x2="443.1545" y1="671.7038" y2="671.7038"/><text fill="#000000" font-family="sans-serif" font-size="14" lengthAdjust="spacing" textLength="48.9658" x="308.1393" y="663.402">Critical</text><text fill="#000000" font-family="sans-serif" font-size="12" lengthAdjust="spacing" textLength="43.459" x="227.09" y="687.8424">enter {</text><text fill="#000000" font-family="sans-serif" font-size="12" lengthAdjust="spacing" textLength="185.8066" x="242.3478" y="701.8112">error_count = error_count + 1;</text><text fill="#000000" font-family="sans-serif" font-size="12" lengthAdjust="spacing" textLength="7.6348" x="227.09" y="715.7799">}</text></g><g class="start_entity" data-qualified-name="power_management..start.power_management" data-source-line="20" id="ent0002"><ellipse cx="494.62" cy="214.0969" fill="#222222" rx="10" ry="10" style="stroke:#222222;stroke-width:1;"/></g><g class="end_entity" data-qualified-name="power_management..end.power_management" data-source-line="40" id="ent0010"><ellipse cx="326.62" cy="893.7169" fill="none" rx="11" ry="11" style="stroke:#222222;stroke-width:1;"/><ellipse cx="326.62" cy="893.7169" fill="#222222" rx="6" ry="6" style="stroke:#222222;stroke-width:1;"/></g><!--link *start*power_management to power_management__normal--><g class="link" data-entity-1="ent0002" data-entity-2="ent0004" data-link-type="dependency" data-source-line="20" id="lnk3"><path d="M494.62,224.4169 C494.62,233.3169 494.62,241.3269 494.62,254.8269" fill="none" id="*start*power_management-to-power_management__normal" style="stroke:#181818;stroke-width:1;"/><polygon fill="#181818" points="494.62,260.8269,498.62,251.8269,494.62,255.8269,490.62,251.8269,494.62,260.8269" style="stroke:#181818;stroke-width:1;"/></g><!--link power_management__normal to power_management__low_power--><g class="link" data-entity-1="ent0004" data-entity-2="ent0005" data-link-type="dependency" data-source-line="21" id="lnk4"><path d="M377.56,314.7069 C309.49,324.2769 231.56,338.7169 202.62,357.2969 C188.96,366.0769 180.7739,373.8753 171.1339,387.0453" fill="none" id="power_management__normal-to-power_management__low_power" style="stroke:#181818;stroke-width:1;"/><polygon fill="#181818" points="167.59,391.8869,176.1335,386.9871,170.5432,387.8522,169.6781,382.2619,167.59,391.8869" style="stroke:#181818;stroke-width:1;"/><text fill="#000000" font-family="sans-serif" font-size="13" lengthAdjust="spacing" textLength="120.561" x="203.62" y="370.3638">battery_level &lt; 30</text></g><!--link power_management__normal to power_management__critical--><g class="link" data-entity-1="ent0004" data-entity-2="ent0007" data-link-type="dependency" data-source-line="22" id="lnk5"><path d="M406.91,339.6869 C385.69,353.2269 365.45,370.6269 352.62,392.2969 C327.94,434.0069 328.7869,569.9297 330.8969,639.0497" fill="none" id="power_management__normal-to-power_management__critical" style="stroke:#181818;stroke-width:1;"/><polygon fill="#181818" points="331.08,645.0469,334.8035,635.929,330.9274,640.0492,326.8073,636.1731,331.08,645.0469" style="stroke:#181818;stroke-width:1;"/><text fill="#000000" font-family="sans-serif" font-size="13" lengthAdjust="spacing" textLength="283.9053" x="353.62" y="456.9238">battery_level &lt; 10 &amp;&amp; charging_state == 0</text></g><!--link power_management__low_power to power_management__critical--><g class="link" data-entity-1="ent0005" data-entity-2="ent0007" data-link-type="dependency" data-source-line="23" id="lnk6"><path d="M94.02,512.6569 C74.05,549.0269 59.53,594.7369 85.62,627.4069 C103.11,649.3169 158.5158,662.4304 215.6858,670.9704" fill="none" id="power_management__low_power-to-power_management__critical" style="stroke:#181818;stroke-width:1;"/><polygon fill="#181818" points="221.62,671.8569,213.3097,666.5711,216.6749,671.1182,212.1278,674.4833,221.62,671.8569" style="stroke:#181818;stroke-width:1;"/><text fill="#000000" font-family="sans-serif" font-size="13" lengthAdjust="spacing" textLength="237.3135" x="86.62" y="583.4738">temperature &gt; 80 || error_count &gt; 5</text></g><!--link power_management__charging to power_management__normal--><g class="link" data-entity-1="ent0006" data-entity-2="ent0004" data-link-type="dependency" data-source-line="24" id="lnk7"><path d="M651.53,854.4269 C651.12,740.8169 648.96,412.2869 637.62,392.2969 C625.28,370.5369 610.4266,356.4065 589.3366,342.9365" fill="none" id="power_management__charging-to-power_management__normal" style="stroke:#181818;stroke-width:1;"/><polygon fill="#181818" points="584.28,339.7069,589.7119,347.9224,588.4939,342.3982,594.018,341.1802,584.28,339.7069" style="stroke:#181818;stroke-width:1;"/><text fill="#000000" font-family="sans-serif" font-size="13" lengthAdjust="spacing" textLength="131.4536" x="649.62" y="583.4738">battery_level &gt;= 90</text></g><!--link power_management__critical to power_management__charging--><g class="link" data-entity-1="ent0007" data-entity-2="ent0006" data-link-type="dependency" data-source-line="25" id="lnk8"><path d="M421.83,724.0069 C428.45,729.2269 434.53,735.0869 439.62,741.6169 C466.35,775.8569 432.7,805.1269 462.62,836.6169 C481.13,856.0869 500.3575,867.0309 526.0275,875.4309" fill="none" id="power_management__critical-to-power_management__charging" style="stroke:#181818;stroke-width:1;"/><polygon fill="#181818" points="531.73,877.2969,524.4203,870.6962,526.978,875.7419,521.9323,878.2995,531.73,877.2969" style="stroke:#181818;stroke-width:1;"/><path d="M467.62,746.6169 L467.62,831.6169 L632.62,831.6169 L632.62,756.6169 L622.62,746.6169 L467.62,746.6169" fill="#FEFFDD" style="stroke:#181818;stroke-width:0.5;"/><path d="M622.62,746.6169 L622.62,756.6169 L632.62,756.6169 L622.62,746.6169" fill="#FEFFDD" style="stroke:#181818;stroke-width:0.5;"/><text fill="#000000" font-family="sans-serif" font-size="13" lengthAdjust="spacing" textLength="49.7974" x="473.62" y="763.6838">effect {</text><text fill="#000000" font-family="sans-serif" font-size="13" lengthAdjust="spacing" textLength="128.2925" x="490.1493" y="778.8166">charging_state = 1;</text><text fill="#000000" font-family="sans-serif" font-size="13" lengthAdjust="spacing" textLength="106.9707" x="490.1493" y="793.9494">error_count = 0;</text><text fill="#000000" font-family="sans-serif" font-size="13" lengthAdjust="spacing" textLength="122.0781" x="490.1493" y="809.0822">temperature = 25;</text><text fill="#000000" font-family="sans-serif" font-size="13" lengthAdjust="spacing" textLength="8.271" x="473.62" y="824.215">}</text></g><!--link power_management__charging to power_management__normal--><g class="link" data-entity-1="ent0006" data-entity-2="ent0004" data-link-type="dependency" data-source-line="33" id="lnk9"><path d="M684.7,854.2669 C737.52,787.9969 830.58,648.0269 785.62,530.4069 C748.75,433.9469 714.92,416.9569 630.62,357.2969 C621.55,350.8869 616.9653,347.7912 606.7553,342.4912" fill="none" id="power_management__charging-to-power_management__normal-1" style="stroke:#181818;stroke-width:1;"/><polygon fill="#181818" points="601.43,339.7269,607.575,347.4236,605.8677,342.0305,611.2608,340.3232,601.43,339.7269" style="stroke:#181818;stroke-width:1;"/><text fill="#000000" font-family="sans-serif" font-size="13" lengthAdjust="spacing" textLength="139.7246" x="817.1283" y="543.4738">battery_level &gt;= 100</text><path d="M801.62,552.5397 L801.62,622.5397 L971.62,622.5397 L971.62,562.5397 L961.62,552.5397 L801.62,552.5397" fill="#FEFFDD" style="stroke:#181818;stroke-width:0.5;"/><path d="M961.62,552.5397 L961.62,562.5397 L971.62,562.5397 L961.62,552.5397" fill="#FEFFDD" style="stroke:#181818;stroke-width:0.5;"/><text fill="#000000" font-family="sans-serif" font-size="13" lengthAdjust="spacing" textLength="49.7974" x="807.62" y="569.6066">effect {</text><text fill="#000000" font-family="sans-serif" font-size="13" lengthAdjust="spacing" textLength="128.2925" x="824.1493" y="584.7394">charging_state = 0;</text><text fill="#000000" font-family="sans-serif" font-size="13" lengthAdjust="spacing" textLength="133.2119" x="824.1493" y="599.8722">battery_level = 100;</text><text fill="#000000" font-family="sans-serif" font-size="13" lengthAdjust="spacing" textLength="8.271" x="807.62" y="615.005">}</text></g><!--link power_management__critical to *end*power_management--><g class="link" data-entity-1="ent0007" data-entity-2="ent0010" data-link-type="dependency" data-source-line="40" id="lnk11"><path d="M328.76,724.1169 C328.3,729.9669 327.89,735.9469 327.62,741.6169 C325.09,794.5469 325.8145,852.028 326.2845,876.448" fill="none" id="power_management__critical-to-*end*power_management" style="stroke:#181818;stroke-width:1;"/><polygon fill="#181818" points="326.4,882.4469,330.2261,873.3716,326.3038,877.4478,322.2276,873.5255,326.4,882.4469" style="stroke:#181818;stroke-width:1;"/><text fill="#000000" font-family="sans-serif" font-size="13" lengthAdjust="spacing" textLength="110.8618" x="328.62" y="793.6838">error_count &gt; 10</text></g><g class="start_entity" data-qualified-name=".start." data-source-line="42" id="ent0012"><ellipse cx="493.81" cy="56.4" fill="#222222" rx="10" ry="10" style="stroke:#222222;stroke-width:1;"/></g><g class="end_entity" data-qualified-name=".end." data-source-line="43" id="ent0014"><ellipse cx="493.81" cy="1013.82" fill="none" rx="11" ry="11" style="stroke:#222222;stroke-width:1;"/><ellipse cx="493.81" cy="1013.82" fill="#222222" rx="6" ry="6" style="stroke:#222222;stroke-width:1;"/></g><!--link *start* to power_management--><g class="link" data-entity-1="ent0012" data-entity-2="ent0003" data-link-type="dependency" data-source-line="42" id="lnk13"><path d="M493.81,66.87 C493.81,83.4 493.81,114.18 493.81,160.51" fill="none" id="*start*-to-power_management" style="stroke:#181818;stroke-width:1;"/><polygon fill="#181818" points="493.81,166.51,497.81,157.51,493.81,161.51,489.81,157.51,493.81,166.51" style="stroke:#181818;stroke-width:1;"/></g><!--link power_management to *end*--><g class="link" data-entity-1="ent0003" data-entity-2="ent0014" data-link-type="dependency" data-source-line="43" id="lnk15"><path d="M493.81,942.91 C493.81,969.83 493.81,984.95 493.81,996.65" fill="none" id="power_management-to-*end*" style="stroke:#181818;stroke-width:1;"/><polygon fill="#181818" points="493.81,1002.65,497.81,993.65,493.81,997.65,489.81,993.65,493.81,1002.65" style="stroke:#181818;stroke-width:1;"/></g><?plantuml-src hPJBRi8m44Nt-OeH2nP5I0uLKWibctRPekvB5Rd905OJ6pcc207_NZi4v3nC2cesuBb-7C-CxvB529Ykr1PYp2B9Lee9xd6X46W6BpXdd9dGL4Uys0mnWvq7-jCZO5p15rKAvJPCy0SJc81FoBWqGUa3K5ArbgZbmR2iefH2Xf5Ow_yJg2oDbbGk65-4cQ8AZ_h1Gnw3GVIyOxZpBZOetoYd2qoHguvXNvbOc9w31NMnOYfaIfF6YM78Sp6VxX9X1F5QQZBOpRYPMCr2UTm7VppZ1vlWLMnoR0T38ZPX7dLWd7LDeWFwjm2fvbCVE-FNiP8gwtDH1WVhgKeEr9DyPSvwCAXnIDsCaRDkKI6xE0hvSiRiKSygsyVT9_JxmOtjqhpIBcBvyazmJsxPqRfZTKEVGBTRUr6wHLexhFKe-uK7y41Wlo_bCO1XMszSIctjCi447abRbHtKTg_cFYSu98n_vm6Spp4wMONvQWRaZyzQetEPhzdmZcrqzgv_peTstLklP94xlVnly7RgpNiPLRh09zgzNG_9gpbsiSql?></g></svg>