<svg xmlns="http://www.w3.org/2000/svg" xmlns:xlink="http://www.w3.org/1999/xlink" contentStyleType="text/css" data-diagram-type="STATE" height="647px" preserveAspectRatio="none" style="width:180px;height:647px;background:#FFFFFF;" version="1.1" viewBox="0 0 180 647" width="180px" zoomAndPan="magnify"><defs/><g><path d="M19.5,86 L154.7574,86 A12.5,12.5 0 0 1 167.2574,98.5 L167.2574,112.2969 L7,112.2969 L7,98.5 A12.5,12.5 0 0 1 19.5,86" fill="#ADD8E6"/><rect fill="none" height="473.5969" rx="12.5" ry="12.5" style="stroke:#181818;stroke-width:0.5;" width="160.2574" x="7" y="86"/><line style="stroke:#181818;stroke-width:0.5;" x1="7" x2="167.2574" y1="112.2969" y2="112.2969"/><text fill="#000000" font-family="sans-serif" font-size="14" lengthAdjust="spacing" textLength="109.5732" x="32.3421" y="103.9951">HierarchyDemo</text><path d="M31.5,179.2969 L145.7574,179.2969 A12.5,12.5 0 0 1 158.2574,191.7969 L158.2574,205.5938 L19,205.5938 L19,191.7969 A12.5,12.5 0 0 1 31.5,179.2969" fill="#ADD8E6"/><rect fill="none" height="312.2969" rx="12.5" ry="12.5" style="stroke:#181818;stroke-width:0.5;" width="139.2574" x="19" y="179.2969"/><line style="stroke:#181818;stroke-width:0.5;" x1="19" x2="158.2574" y1="205.5938" y2="205.5938"/><text fill="#000000" font-family="sans-serif" font-size="14" lengthAdjust="spacing" textLength="45.7529" x="65.7522" y="197.292">Parent</text><rect fill="#F1F1F1" height="40" rx="12.5" ry="12.5" style="stroke:#181818;stroke-width:0.5;" width="54.8916" x="31.01" y="273.5938"/><text fill="#000000" font-family="sans-serif" font-size="14" lengthAdjust="spacing" textLength="44.8916" x="36.01" y="298.4404">ChildA</text><rect fill="#F1F1F1" height="40" rx="12.5" ry="12.5" style="stroke:#181818;stroke-width:0.5;" width="54.9189" x="31" y="366.5938"/><text fill="#000000" font-family="sans-serif" font-size="14" lengthAdjust="spacing" textLength="44.9189" x="36" y="391.4404">ChildB</text><ellipse cx="58.46" cy="226.5938" fill="#222222" rx="10" ry="10" style="stroke:#222222;stroke-width:1;"/><ellipse cx="58.46" cy="470.5938" fill="none" rx="11" ry="11" style="stroke:#222222;stroke-width:1;"/><ellipse cx="58.46" cy="470.5938" fill="#222222" rx="6" ry="6" style="stroke:#222222;stroke-width:1;"/><!--link *start*hierarchy_demo__parent to hierarchy_demo__parent__child_a--><g class="link" data-entity-1="*start*hierarchy_demo__parent" data-entity-2="hierarchy_demo__parent__child_a" data-source-line="14" data-uid="lnk3" id="link_*start*hierarchy_demo__parent_hierarchy_demo__parent__child_a"><path d="M58.46,236.9038 C58.46,246.3138 58.46,255.1338 58.46,267.1138" fill="none" id="*start*hierarchy_demo__parent-to-hierarchy_demo__parent__child_a" style="stroke:#181818;stroke-width:1;"/><polygon fill="#181818" points="58.46,273.1138,62.46,264.1138,58.46,268.1138,54.46,264.1138,58.46,273.1138" style="stroke:#181818;stroke-width:1;"/></g><!--link hierarchy_demo__parent__child_a to hierarchy_demo__parent__child_b--><g class="link" data-entity-1="hierarchy_demo__parent__child_a" data-entity-2="hierarchy_demo__parent__child_b" data-source-line="15" data-uid="lnk4" id="link_hierarchy_demo__parent__child_a_hierarchy_demo__parent__child_b"><path d="M58.46,313.8938 C58.46,329.3338 58.46,344.8837 58.46,360.3238" fill="none" id="hierarchy_demo__parent__child_a-to-hierarchy_demo__parent__child_b" style="stroke:#181818;stroke-width:1;"/><polygon fill="#181818" points="58.46,366.3238,62.46,357.3238,58.46,361.3238,54.46,357.3238,58.46,366.3238" style="stroke:#181818;stroke-width:1;"/><text fill="#000000" font-family="sans-serif" font-size="13" lengthAdjust="spacing" textLength="88.7974" x="59.46" y="344.6606">ChildA.Switch</text></g><!--link hierarchy_demo__parent__child_b to *end*hierarchy_demo__parent--><g class="link" data-entity-1="hierarchy_demo__parent__child_b" data-entity-2="*end*hierarchy_demo__parent" data-source-line="16" data-uid="lnk6" id="link_hierarchy_demo__parent__child_b_*end*hierarchy_demo__parent"><path d="M58.46,407.0238 C58.46,423.5037 58.46,440.4938 58.46,453.5238" fill="none" id="hierarchy_demo__parent__child_b-to-*end*hierarchy_demo__parent" style="stroke:#181818;stroke-width:1;"/><polygon fill="#181818" points="58.46,459.5238,62.46,450.5238,58.46,454.5238,54.46,450.5238,58.46,459.5238" style="stroke:#181818;stroke-width:1;"/><text fill="#000000" font-family="sans-serif" font-size="13" lengthAdjust="spacing" textLength="70.459" x="59.46" y="437.6606">ChildB.Exit</text></g><ellipse cx="88.63" cy="133.2969" fill="#222222" rx="10" ry="10" style="stroke:#222222;stroke-width:1;"/><ellipse cx="88.63" cy="538.5969" fill="none" rx="11" ry="11" style="stroke:#222222;stroke-width:1;"/><ellipse cx="88.63" cy="538.5969" fill="#222222" rx="6" ry="6" style="stroke:#222222;stroke-width:1;"/><!--link *start*hierarchy_demo to hierarchy_demo__parent--><g class="link" data-entity-1="*start*hierarchy_demo" data-entity-2="hierarchy_demo__parent" data-source-line="18" data-uid="lnk8" id="link_*start*hierarchy_demo_hierarchy_demo__parent"><path d="M88.63,143.6869 C88.63,151.6469 88.63,158.1269 88.63,172.9769" fill="none" id="*start*hierarchy_demo-to-hierarchy_demo__parent" style="stroke:#181818;stroke-width:1;"/><polygon fill="#181818" points="88.63,178.9769,92.63,169.9769,88.63,173.9769,84.63,169.9769,88.63,178.9769" style="stroke:#181818;stroke-width:1;"/></g><!--link hierarchy_demo__parent to *end*hierarchy_demo--><g class="link" data-entity-1="hierarchy_demo__parent" data-entity-2="*end*hierarchy_demo" data-source-line="19" data-uid="lnk10" id="link_hierarchy_demo__parent_*end*hierarchy_demo"><path d="M88.63,491.9569 C88.63,506.6469 88.63,513.0869 88.63,521.2469" fill="none" id="hierarchy_demo__parent-to-*end*hierarchy_demo" style="stroke:#181818;stroke-width:1;"/><polygon fill="#181818" points="88.63,527.2469,92.63,518.2469,88.63,522.2469,84.63,518.2469,88.63,527.2469" style="stroke:#181818;stroke-width:1;"/></g><ellipse cx="87.13" cy="16" fill="#222222" rx="10" ry="10" style="stroke:#222222;stroke-width:1;"/><ellipse cx="87.13" cy="630.6" fill="none" rx="11" ry="11" style="stroke:#222222;stroke-width:1;"/><ellipse cx="87.13" cy="630.6" fill="#222222" rx="6" ry="6" style="stroke:#222222;stroke-width:1;"/><!--link *start* to hierarchy_demo--><g class="link" data-entity-1="*start*" data-entity-2="hierarchy_demo" data-source-line="21" data-uid="lnk12" id="link_*start*_hierarchy_demo"><path d="M87.13,26.46 C87.13,38.07 87.13,53.46 87.13,79.65" fill="none" id="*start*-to-hierarchy_demo" style="stroke:#181818;stroke-width:1;"/><polygon fill="#181818" points="87.13,85.65,91.13,76.65,87.13,80.65,83.13,76.65,87.13,85.65" style="stroke:#181818;stroke-width:1;"/></g><!--link hierarchy_demo to *end*--><g class="link" data-entity-1="hierarchy_demo" data-entity-2="*end*" data-source-line="22" data-uid="lnk14" id="link_hierarchy_demo_*end*"><path d="M87.13,559.83 C87.13,586.07 87.13,601.61 87.13,613.52" fill="none" id="hierarchy_demo-to-*end*" style="stroke:#181818;stroke-width:1;"/><polygon fill="#181818" points="87.13,619.52,91.13,610.52,87.13,614.52,83.13,610.52,87.13,619.52" style="stroke:#181818;stroke-width:1;"/></g><!--SRC=[ZPB1QiCm44Jl-eh5nqBo0IKOwhHD3pqKSYn5oD8IBP4j8QrfJSc_rtRjaWQtyNLtviqEaYM3W5NW5Wmc7Iam-Lg8TAGwgAWgIAmOuLC054eV3z4tjTbwv-Dc4n8snkSvFDF1yYwgTawbVHLy8iP9MBW6Uw6F1kCbQgGy-fhtt3eyMn4hHrgSkkk6cx8dmgYYjkqzLZu3bS1E4scw4VmExpl0s2TxKH5hdZ596ORLhFaCiBNapDq_02brBv5grbaiS9O_pjURDrYjyiL9LtGBM2NSmdV5zVwTMDk5x79Wz_UE_cBzy44yk4_YUXVnTyH4xdx0F4DSFF-e_m80]--></g></svg>