<?plantuml 1.2026.2beta3?><svg xmlns="http://www.w3.org/2000/svg" xmlns:xlink="http://www.w3.org/1999/xlink" contentStyleType="text/css" data-diagram-type="STATE" height="1020px" preserveAspectRatio="none" style="width:420px;height:1020px;background:#FFFFFF;" version="1.1" viewBox="0 0 420 1020" width="420px" zoomAndPan="magnify"><defs/><g><g class="entity" data-qualified-name="DefinitionNote" data-source-line="3" id="ent0002"><path d="M6,6 L6,61.3984 L211.6724,61.3984 L211.6724,16 L201.6724,6 L6,6" fill="#FEFFDD" style="stroke:#181818;stroke-width:0.5;"/><path d="M201.6724,6 L201.6724,16 L211.6724,16 L201.6724,6" fill="#FEFFDD" style="stroke:#181818;stroke-width:1;"/><text fill="#000000" font-family="sans-serif" font-size="13" lengthAdjust="spacing" textLength="59.8521" x="12" y="23.0669">defines {</text><text fill="#000000" font-family="sans-serif" font-size="13" lengthAdjust="spacing" textLength="168.1431" x="28.5293" y="38.1997">def int execution_log = 0;</text><text fill="#000000" font-family="sans-serif" font-size="13" lengthAdjust="spacing" textLength="8.271" x="12" y="53.3325">}</text></g><path d="M118.84,121.4 L394.842,121.4 A12.5,12.5 0 0 1 407.342,133.9 L407.342,236.5094 L106.34,236.5094 L106.34,133.9 A12.5,12.5 0 0 1 118.84,121.4" fill="#F1F1F1"/><rect fill="none" height="811.4394" rx="12.5" ry="12.5" style="stroke:#181818;stroke-width:0.5;" width="301.002" x="106.34" y="121.4"/><line style="stroke:#181818;stroke-width:0.5;" x1="106.34" x2="407.342" y1="236.5094" y2="236.5094"/><line style="stroke:#181818;stroke-width:0.5;" x1="106.34" x2="407.342" y1="147.6969" y2="147.6969"/><text fill="#000000" font-family="sans-serif" font-size="14" lengthAdjust="spacing" textLength="109.5732" x="202.0544" y="139.3951">HierarchyDemo</text><text fill="#000000" font-family="sans-serif" font-size="12" lengthAdjust="spacing" textLength="116.7832" x="111.34" y="158.8355">&gt;&gt; during before {</text><text fill="#000000" font-family="sans-serif" font-size="12" lengthAdjust="spacing" textLength="236.6484" x="126.5978" y="172.8043">execution_log = execution_log + 1000;</text><text fill="#000000" font-family="sans-serif" font-size="12" lengthAdjust="spacing" textLength="7.6348" x="111.34" y="186.773">}</text><text fill="#000000" font-family="sans-serif" font-size="12" lengthAdjust="spacing" textLength="106.5" x="111.34" y="200.7418">&gt;&gt; during after {</text><text fill="#000000" font-family="sans-serif" font-size="12" lengthAdjust="spacing" textLength="236.6484" x="126.5978" y="214.7105">execution_log = execution_log + 9000;</text><text fill="#000000" font-family="sans-serif" font-size="12" lengthAdjust="spacing" textLength="7.6348" x="111.34" y="228.6793">}</text><path d="M130.84,303.5094 L380.842,303.5094 A12.5,12.5 0 0 1 393.342,316.0094 L393.342,502.4313 L118.34,502.4313 L118.34,316.0094 A12.5,12.5 0 0 1 130.84,303.5094" fill="#F1F1F1"/><rect fill="none" height="561.3319" rx="12.5" ry="12.5" style="stroke:#181818;stroke-width:0.5;" width="275.002" x="118.34" y="303.5094"/><line style="stroke:#181818;stroke-width:0.5;" x1="118.34" x2="393.342" y1="502.4313" y2="502.4313"/><line style="stroke:#181818;stroke-width:0.5;" x1="118.34" x2="393.342" y1="329.8063" y2="329.8063"/><text fill="#000000" font-family="sans-serif" font-size="14" lengthAdjust="spacing" textLength="45.7529" x="232.9645" y="321.5045">Parent</text><text fill="#000000" font-family="sans-serif" font-size="12" lengthAdjust="spacing" textLength="92.8594" x="123.34" y="340.9449">during before {</text><text fill="#000000" font-family="sans-serif" font-size="12" lengthAdjust="spacing" textLength="229.0137" x="138.5978" y="354.9137">execution_log = execution_log + 100;</text><text fill="#000000" font-family="sans-serif" font-size="12" lengthAdjust="spacing" textLength="7.6348" x="123.34" y="368.8824">}</text><text fill="#000000" font-family="sans-serif" font-size="12" lengthAdjust="spacing" textLength="82.5762" x="123.34" y="382.8512">during after {</text><text fill="#000000" font-family="sans-serif" font-size="12" lengthAdjust="spacing" textLength="229.0137" x="138.5978" y="396.8199">execution_log = execution_log + 900;</text><text fill="#000000" font-family="sans-serif" font-size="12" lengthAdjust="spacing" textLength="7.6348" x="123.34" y="410.7887">}</text><text fill="#000000" font-family="sans-serif" font-size="12" lengthAdjust="spacing" textLength="116.7832" x="123.34" y="424.7574">&gt;&gt; during before {</text><text fill="#000000" font-family="sans-serif" font-size="12" lengthAdjust="spacing" textLength="221.3789" x="138.5978" y="438.7262">execution_log = execution_log + 10;</text><text fill="#000000" font-family="sans-serif" font-size="12" lengthAdjust="spacing" textLength="7.6348" x="123.34" y="452.6949">}</text><text fill="#000000" font-family="sans-serif" font-size="12" lengthAdjust="spacing" textLength="106.5" x="123.34" y="466.6637">&gt;&gt; during after {</text><text fill="#000000" font-family="sans-serif" font-size="12" lengthAdjust="spacing" textLength="221.3789" x="138.5978" y="480.6324">execution_log = execution_log + 90;</text><text fill="#000000" font-family="sans-serif" font-size="12" lengthAdjust="spacing" textLength="7.6348" x="123.34" y="494.6012">}</text><g class="entity" data-qualified-name="hierarchy_demo.hierarchy_demo__parent.hierarchy_demo__parent__child_a" id="ent0005"><rect fill="#F1F1F1" height="78.2031" rx="12.5" ry="12.5" style="stroke:#181818;stroke-width:0.5;" width="249.002" x="130.34" y="570.4313"/><line style="stroke:#181818;stroke-width:0.5;" x1="130.34" x2="379.342" y1="596.7281" y2="596.7281"/><text fill="#000000" font-family="sans-serif" font-size="14" lengthAdjust="spacing" textLength="44.8916" x="232.3952" y="588.4264">ChildA</text><text fill="#000000" font-family="sans-serif" font-size="12" lengthAdjust="spacing" textLength="50.1621" x="135.34" y="612.8668">during {</text><text fill="#000000" font-family="sans-serif" font-size="12" lengthAdjust="spacing" textLength="213.7441" x="150.5978" y="626.8355">execution_log = execution_log + 1;</text><text fill="#000000" font-family="sans-serif" font-size="12" lengthAdjust="spacing" textLength="7.6348" x="135.34" y="640.8043">}</text></g><g class="entity" data-qualified-name="hierarchy_demo.hierarchy_demo__parent.hierarchy_demo__parent__child_b" id="ent0006"><rect fill="#F1F1F1" height="78.2031" rx="12.5" ry="12.5" style="stroke:#181818;stroke-width:0.5;" width="249.002" x="130.34" y="701.6413"/><line style="stroke:#181818;stroke-width:0.5;" x1="130.34" x2="379.342" y1="727.9381" y2="727.9381"/><text fill="#000000" font-family="sans-serif" font-size="14" lengthAdjust="spacing" textLength="44.9189" x="232.3815" y="719.6364">ChildB</text><text fill="#000000" font-family="sans-serif" font-size="12" lengthAdjust="spacing" textLength="50.1621" x="135.34" y="744.0768">during {</text><text fill="#000000" font-family="sans-serif" font-size="12" lengthAdjust="spacing" textLength="213.7441" x="150.5978" y="758.0455">execution_log = execution_log + 2;</text><text fill="#000000" font-family="sans-serif" font-size="12" lengthAdjust="spacing" textLength="7.6348" x="135.34" y="772.0143">}</text></g><g class="start_entity" data-qualified-name="hierarchy_demo.hierarchy_demo__parent..start.hierarchy_demo__parent" data-source-line="14" id="ent0002"><ellipse cx="254.84" cy="523.4313" fill="#222222" rx="10" ry="10" style="stroke:#222222;stroke-width:1;"/></g><g class="end_entity" data-qualified-name="hierarchy_demo.hierarchy_demo__parent..end.hierarchy_demo__parent" data-source-line="16" id="ent0005"><ellipse cx="254.84" cy="843.8413" fill="none" rx="11" ry="11" style="stroke:#222222;stroke-width:1;"/><ellipse cx="254.84" cy="843.8413" fill="#222222" rx="6" ry="6" style="stroke:#222222;stroke-width:1;"/></g><!--link *start*hierarchy_demo__parent to hierarchy_demo__parent__child_a--><g class="link" data-entity-1="ent0002" data-entity-2="ent0005" data-link-type="dependency" data-source-line="14" id="lnk3"><path d="M254.84,533.7613 C254.84,542.6513 254.84,550.6613 254.84,564.1613" fill="none" id="*start*hierarchy_demo__parent-to-hierarchy_demo__parent__child_a" style="stroke:#181818;stroke-width:1;"/><polygon fill="#181818" points="254.84,570.1613,258.84,561.1613,254.84,565.1613,250.84,561.1613,254.84,570.1613" style="stroke:#181818;stroke-width:1;"/></g><!--link hierarchy_demo__parent__child_a to hierarchy_demo__parent__child_b--><g class="link" data-entity-1="ent0005" data-entity-2="ent0006" data-link-type="dependency" data-source-line="15" id="lnk4"><path d="M254.84,648.9513 C254.84,665.4613 254.84,678.7313 254.84,695.2513" fill="none" id="hierarchy_demo__parent__child_a-to-hierarchy_demo__parent__child_b" style="stroke:#181818;stroke-width:1;"/><polygon fill="#181818" points="254.84,701.2513,258.84,692.2513,254.84,696.2513,250.84,692.2513,254.84,701.2513" style="stroke:#181818;stroke-width:1;"/><text fill="#000000" font-family="sans-serif" font-size="13" lengthAdjust="spacing" textLength="88.7974" x="255.84" y="679.7081">ChildA.Switch</text></g><!--link hierarchy_demo__parent__child_b to *end*hierarchy_demo__parent--><g class="link" data-entity-1="ent0006" data-entity-2="ent0005" data-link-type="dependency" data-source-line="16" id="lnk6"><path d="M254.84,780.2513 C254.84,799.0013 254.84,814.1012 254.84,826.3813" fill="none" id="hierarchy_demo__parent__child_b-to-*end*hierarchy_demo__parent" style="stroke:#181818;stroke-width:1;"/><polygon fill="#181818" points="254.84,832.3813,258.84,823.3813,254.84,827.3813,250.84,823.3813,254.84,832.3813" style="stroke:#181818;stroke-width:1;"/><text fill="#000000" font-family="sans-serif" font-size="13" lengthAdjust="spacing" textLength="70.459" x="255.84" y="810.9081">ChildB.Exit</text></g><g class="start_entity" data-qualified-name="hierarchy_demo..start.hierarchy_demo" data-source-line="19" id="ent0007"><ellipse cx="255.84" cy="257.5094" fill="#222222" rx="10" ry="10" style="stroke:#222222;stroke-width:1;"/></g><g class="end_entity" data-qualified-name="hierarchy_demo..end.hierarchy_demo" data-source-line="20" id="ent0009"><ellipse cx="255.84" cy="911.8394" fill="none" rx="11" ry="11" style="stroke:#222222;stroke-width:1;"/><ellipse cx="255.84" cy="911.8394" fill="#222222" rx="6" ry="6" style="stroke:#222222;stroke-width:1;"/></g><!--link *start*hierarchy_demo to hierarchy_demo__parent--><g class="link" data-entity-1="ent0007" data-entity-2="ent0004" data-link-type="dependency" data-source-line="19" id="lnk8"><path d="M255.84,267.8694 C255.84,275.6694 255.84,281.9494 255.84,297.2294" fill="none" id="*start*hierarchy_demo-to-hierarchy_demo__parent" style="stroke:#181818;stroke-width:1;"/><polygon fill="#181818" points="255.84,303.2294,259.84,294.2294,255.84,298.2294,251.84,294.2294,255.84,303.2294" style="stroke:#181818;stroke-width:1;"/></g><!--link hierarchy_demo__parent to *end*hierarchy_demo--><g class="link" data-entity-1="ent0004" data-entity-2="ent0009" data-link-type="dependency" data-source-line="20" id="lnk10"><path d="M255.84,865.2094 C255.84,880.2994 255.84,886.5294 255.84,894.5194" fill="none" id="hierarchy_demo__parent-to-*end*hierarchy_demo" style="stroke:#181818;stroke-width:1;"/><polygon fill="#181818" points="255.84,900.5194,259.84,891.5194,255.84,895.5194,251.84,891.5194,255.84,900.5194" style="stroke:#181818;stroke-width:1;"/></g><g class="start_entity" data-qualified-name=".start." data-source-line="23" id="ent0011"><ellipse cx="256.84" cy="33.7" fill="#222222" rx="10" ry="10" style="stroke:#222222;stroke-width:1;"/></g><g class="end_entity" data-qualified-name=".end." data-source-line="24" id="ent0013"><ellipse cx="256.84" cy="1003.84" fill="none" rx="11" ry="11" style="stroke:#222222;stroke-width:1;"/><ellipse cx="256.84" cy="1003.84" fill="#222222" rx="6" ry="6" style="stroke:#222222;stroke-width:1;"/></g><!--link *start* to hierarchy_demo--><g class="link" data-entity-1="ent0011" data-entity-2="ent0003" data-link-type="dependency" data-source-line="23" id="lnk12"><path d="M256.84,44.08 C256.84,57.75 256.84,79.42 256.84,114.92" fill="none" id="*start*-to-hierarchy_demo" style="stroke:#181818;stroke-width:1;"/><polygon fill="#181818" points="256.84,120.92,260.84,111.92,256.84,115.92,252.84,111.92,256.84,120.92" style="stroke:#181818;stroke-width:1;"/></g><!--link hierarchy_demo to *end*--><g class="link" data-entity-1="ent0003" data-entity-2="ent0013" data-link-type="dependency" data-source-line="24" id="lnk14"><path d="M256.84,933.3 C256.84,960.16 256.84,975.14 256.84,986.76" fill="none" id="hierarchy_demo-to-*end*" style="stroke:#181818;stroke-width:1;"/><polygon fill="#181818" points="256.84,992.76,260.84,983.76,256.84,987.76,252.84,983.76,256.84,992.76" style="stroke:#181818;stroke-width:1;"/></g><?plantuml-src hLF1Qi904BtlLmmUMvIqjoeDr5hegHHwRCgooKxCW6x2PgMA-E_TDMke8SPeczlCllVslPbiHX81buNPWCGoqLGOoXLJkK4G9Smm9KMkzMOxJBeIIzWoi9-jW9G1N6EoSXY-oEVm2C64xHWg2Kw5iT88ApPu9TH29zbcXijyuCIpGuTBs_AY7lqkD2hJ0kEys1zv-2_ASqOB-TH1uJnn42vgvXaSZ46kDAavR2FbyCsan_Kjt4qYjMlrDUtXA-xfAxxOr_sHhy-RBnWEmt-RqdajvxXQp-ZZcqoIzKxgj9rVpv-ENjPazkmgpucVenvGZ6ckiVV-Wi1DAbAUBLA3kY_vuK0EmsjlR_8llB_USlU6kmRdvsqVSEDrZk7wMC5VWrK2h3rMqwcFy0C0?></g></svg>