<svg xmlns="http://www.w3.org/2000/svg" xmlns:xlink="http://www.w3.org/1999/xlink" contentStyleType="text/css" data-diagram-type="STATE" height="771px" preserveAspectRatio="none" style="width:459px;height:771px;background:#FFFFFF;" version="1.1" viewBox="0 0 459 771" width="459px" zoomAndPan="magnify"><?plantuml 1.2026.3beta6?><defs/><g><g class="legend" data-source-line="10"><rect fill="#DDDDDD" height="46.5938" rx="7.5" ry="7.5" style="stroke:#000000;stroke-width:1;" width="282.4531" x="12" y="12"/><text fill="#000000" font-family="sans-serif" font-size="14" font-weight="700" lengthAdjust="spacing" textLength="65.748" x="21.874" y="31.9951">Variable</text><text fill="#000000" font-family="sans-serif" font-size="14" font-weight="700" lengthAdjust="spacing" textLength="38.1924" x="141.5098" y="31.9951">Type</text><text fill="#000000" font-family="sans-serif" font-size="14" font-weight="700" lengthAdjust="spacing" textLength="95.1289" x="189.4502" y="31.9951">Initial Value</text><text fill="#000000" font-family="sans-serif" font-size="14" lengthAdjust="spacing" textLength="110.7354" x="21.4502" y="48.292">Line_line_speed</text><text fill="#000000" font-family="sans-serif" font-size="14" lengthAdjust="spacing" textLength="18.252" x="141.0859" y="48.292">int</text><text fill="#000000" font-family="sans-serif" font-size="14" lengthAdjust="spacing" textLength="8.9072" x="189.0264" y="48.292">0</text><line style="stroke:#000000;stroke-width:1;" x1="17" x2="289.4531" y1="19" y2="19"/><line style="stroke:#000000;stroke-width:1;" x1="17" x2="289.4531" y1="35.2969" y2="35.2969"/><line style="stroke:#000000;stroke-width:1;" x1="17" x2="289.4531" y1="51.5938" y2="51.5938"/><line style="stroke:#000000;stroke-width:1;" x1="17" x2="17" y1="19" y2="51.5938"/><line style="stroke:#000000;stroke-width:1;" x1="136.6357" x2="136.6357" y1="19" y2="51.5938"/><line style="stroke:#000000;stroke-width:1;" x1="184.5762" x2="184.5762" y1="19" y2="51.5938"/><line style="stroke:#000000;stroke-width:1;" x1="289.4531" x2="289.4531" y1="19" y2="51.5938"/></g><path d="M19.5,157.5938 L431.79,157.5938 A12.5,12.5 0 0 1 444.29,170.0938 L444.29,183.8906 L7,183.8906 L7,170.0938 A12.5,12.5 0 0 1 19.5,157.5938" fill="#ADD8E6"/><rect fill="none" height="517.8906" rx="12.5" ry="12.5" style="stroke:#181818;stroke-width:0.5;" width="437.29" x="7" y="157.5938"/><line style="stroke:#181818;stroke-width:0.5;" x1="7" x2="444.29" y1="183.8906" y2="183.8906"/><text fill="#000000" font-family="sans-serif" font-size="14" lengthAdjust="spacing" textLength="52.4248" x="199.4326" y="175.5889">Factory</text><path d="M31.5,250.8906 L407.79,250.8906 A12.5,12.5 0 0 1 420.29,263.3906 L420.29,277.1875 L19,277.1875 L19,263.3906 A12.5,12.5 0 0 1 31.5,250.8906" fill="#ADD8E6"/><rect fill="none" height="411.5938" rx="12.5" ry="12.5" style="stroke:#181818;stroke-width:0.5;" width="401.29" x="19" y="250.8906"/><line style="stroke:#181818;stroke-width:0.5;" x1="19" x2="420.29" y1="277.1875" y2="277.1875"/><text fill="#000000" font-family="sans-serif" font-size="14" lengthAdjust="spacing" textLength="29.1758" x="205.0571" y="268.8857">Line</text><path d="M43.5,344.1875 L383.79,344.1875 A12.5,12.5 0 0 1 396.29,356.6875 L396.29,370.4844 L31,370.4844 L31,356.6875 A12.5,12.5 0 0 1 43.5,344.1875" fill="#ADD8E6"/><rect fill="none" height="305.2969" rx="12.5" ry="12.5" style="stroke:#181818;stroke-width:0.5;" width="365.29" x="31" y="344.1875"/><line style="stroke:#181818;stroke-width:0.5;" x1="31" x2="396.29" y1="370.4844" y2="370.4844"/><text fill="#000000" font-family="sans-serif" font-size="14" lengthAdjust="spacing" textLength="41.2344" x="193.0278" y="362.1826">Robot</text><rect fill="#F1F1F1" height="40" rx="12.5" ry="12.5" style="stroke:#181818;stroke-width:0.5;" width="50" x="48.29" y="438.4844"/><text fill="#000000" font-family="sans-serif" font-size="14" lengthAdjust="spacing" textLength="25.5186" x="60.5307" y="463.3311">Idle</text><rect fill="#F1F1F1" height="40" rx="12.5" ry="12.5" style="stroke:#181818;stroke-width:0.5;" width="60.5791" x="43" y="596.4844"/><text fill="#000000" font-family="sans-serif" font-size="14" lengthAdjust="spacing" textLength="50.5791" x="48" y="621.3311">Moving</text><g class="start_entity" data-qualified-name="factory.factory__line.factory__line__robot..start.factory__line__robot" data-source-line="20" id="ent0002"><ellipse cx="73.29" cy="391.4844" fill="#222222" rx="10" ry="10" style="stroke:#222222;stroke-width:1;"/></g><!--link *start*factory__line__robot to factory__line__robot__idle--><g class="link" data-entity-1="ent0002" data-entity-2="ent0005" data-link-type="dependency" data-source-line="20" id="lnk3"><path d="M73.29,401.7944 C73.29,411.2044 73.29,420.0244 73.29,432.0044" fill="none" id="*start*factory__line__robot-to-factory__line__robot__idle" style="stroke:#181818;stroke-width:1;"/><polygon fill="#181818" points="73.29,438.0044,77.29,429.0044,73.29,433.0044,69.29,429.0044,73.29,438.0044" style="stroke:#181818;stroke-width:1;"/></g><!--link factory__line__robot__idle to factory__line__robot__moving--><g class="link" data-entity-1="ent0005" data-entity-2="ent0006" data-link-type="dependency" data-source-line="21" id="lnk4"><path d="M73.29,478.9244 C73.29,508.9844 73.29,560.3844 73.29,590.2844" fill="none" id="factory__line__robot__idle-to-factory__line__robot__moving" style="stroke:#181818;stroke-width:1;"/><polygon fill="#181818" points="73.29,596.2844,77.29,587.2844,73.29,591.2844,69.29,587.2844,73.29,596.2844" style="stroke:#181818;stroke-width:1;"/><text fill="#000000" font-family="sans-serif" font-size="13" lengthAdjust="spacing" textLength="31.7573" x="209.4843" y="509.5513">Start</text><path d="M78.29,518.6172 L78.29,573.6172 L372.29,573.6172 L372.29,528.6172 L362.29,518.6172 L78.29,518.6172" fill="#FEFFDD" style="stroke:#181818;stroke-width:0.5;"/><path d="M362.29,518.6172 L362.29,528.6172 L372.29,528.6172 L362.29,518.6172" fill="#FEFFDD" style="stroke:#181818;stroke-width:0.5;"/><text fill="#000000" font-family="sans-serif" font-size="13" lengthAdjust="spacing" textLength="49.7974" x="84.29" y="535.6841">effect {</text><text fill="#000000" font-family="sans-serif" font-size="13" lengthAdjust="spacing" textLength="256.6167" x="100.8193" y="550.8169">Line_line_speed = Line_line_speed + 1;</text><text fill="#000000" font-family="sans-serif" font-size="13" lengthAdjust="spacing" textLength="8.271" x="84.29" y="565.9497">}</text></g><g class="start_entity" data-qualified-name="factory.factory__line..start.factory__line" data-source-line="28" id="ent0005"><ellipse cx="213.64" cy="298.1875" fill="#222222" rx="10" ry="10" style="stroke:#222222;stroke-width:1;"/></g><!--link *start*factory__line to factory__line__robot--><g class="link" data-entity-1="ent0005" data-entity-2="ent0004" data-link-type="dependency" data-source-line="28" id="lnk6"><path d="M213.64,308.6775 C213.64,316.6575 213.64,323.1175 213.64,337.9075" fill="none" id="*start*factory__line-to-factory__line__robot" style="stroke:#181818;stroke-width:1;"/><polygon fill="#181818" points="213.64,343.9075,217.64,334.9075,213.64,338.9075,209.64,334.9075,213.64,343.9075" style="stroke:#181818;stroke-width:1;"/></g><g class="start_entity" data-qualified-name="factory..start.factory" data-source-line="30" id="ent0007"><ellipse cx="219.64" cy="204.8906" fill="#222222" rx="10" ry="10" style="stroke:#222222;stroke-width:1;"/></g><!--link *start*factory to factory__line--><g class="link" data-entity-1="ent0007" data-entity-2="ent0003" data-link-type="dependency" data-source-line="30" id="lnk8"><path d="M219.64,215.3706 C219.64,223.2606 219.64,229.6006 219.64,244.6206" fill="none" id="*start*factory-to-factory__line" style="stroke:#181818;stroke-width:1;"/><polygon fill="#181818" points="219.64,250.6206,223.64,241.6206,219.64,245.6206,215.64,241.6206,219.64,250.6206" style="stroke:#181818;stroke-width:1;"/></g><g class="start_entity" data-qualified-name=".start." data-source-line="32" id="ent0009"><ellipse cx="225.64" cy="87.5938" fill="#222222" rx="10" ry="10" style="stroke:#222222;stroke-width:1;"/></g><g class="end_entity" data-qualified-name=".end." data-source-line="33" id="ent0011"><ellipse cx="225.64" cy="746.4838" fill="none" rx="11" ry="11" style="stroke:#222222;stroke-width:1;"/><ellipse cx="225.64" cy="746.4838" fill="#222222" rx="6" ry="6" style="stroke:#222222;stroke-width:1;"/></g><!--link *start* to factory--><g class="link" data-entity-1="ent0009" data-entity-2="ent0002" data-link-type="dependency" data-source-line="32" id="lnk10"><path d="M225.64,98.0237 C225.64,109.5938 225.64,124.9638 225.64,151.3538" fill="none" id="*start*-to-factory" style="stroke:#181818;stroke-width:1;"/><polygon fill="#181818" points="225.64,157.3538,229.64,148.3538,225.64,152.3538,221.64,148.3538,225.64,157.3538" style="stroke:#181818;stroke-width:1;"/></g><!--link factory to *end*--><g class="link" data-entity-1="ent0002" data-entity-2="ent0011" data-link-type="dependency" data-source-line="33" id="lnk12"><path d="M225.64,675.9338 C225.64,701.9738 225.64,717.1938 225.64,729.0838" fill="none" id="factory-to-*end*" style="stroke:#181818;stroke-width:1;"/><polygon fill="#181818" points="225.64,735.0838,229.64,726.0838,225.64,730.0838,221.64,726.0838,225.64,735.0838" style="stroke:#181818;stroke-width:1;"/></g><?plantuml-src ZL9FQy8m5B_dKpmyRWZRTLCF3Xp2TfbZbp5AR5vhCCqBwNDGLh_xaggihLNMGnhUxr_UIpPQ8M3Xk0A5PUgrOqrMY7AhhPDU5b2oP8GV0J2NwJRtjBFgYGpvoSILk5Cqcy6BpZVyx6Krn4gfS5HgnXDnRdOOYUGL-hxLqML1bbTS6Mn1cgNHgTWBOJ17gu39WS6CHJs53-crN1k4i7-lNFDVMirQce25HAX57V8j9YOkfKDKK8Es7DQxW0R7Ws_elkbvj90fawz684l83dlezXF70iSHZQ9vcviqIOEAbkgDriJdiYJn4RYeRZaimxal6YI93l2Gx9M-jSsl28k6q95-tdp1U3pxRz9bsXMNGomym8gbvuwVfN1miX3usmw0MOOfzyOJl_w5Jyygjt3_s97jkyxXdSLOSGvV6uRuemxImYlkrSNfXSLQm7u1?></g></svg>