<svg xmlns="http://www.w3.org/2000/svg" xmlns:xlink="http://www.w3.org/1999/xlink" contentStyleType="text/css" data-diagram-type="STATE" height="681px" preserveAspectRatio="none" style="width:558px;height:681px;background:#FFFFFF;" version="1.1" viewBox="0 0 558 681" width="558px" zoomAndPan="magnify"><?plantuml 1.2026.3beta6?><defs/><g><g class="legend" data-source-line="10"><rect fill="#DDDDDD" height="62.8906" rx="7.5" ry="7.5" style="stroke:#000000;stroke-width:1;" width="318.7656" x="12" y="12"/><text fill="#000000" font-family="sans-serif" font-size="14" font-weight="700" lengthAdjust="spacing" textLength="65.748" x="21.874" y="31.9951">Variable</text><text fill="#000000" font-family="sans-serif" font-size="14" font-weight="700" lengthAdjust="spacing" textLength="38.1924" x="177.8223" y="31.9951">Type</text><text fill="#000000" font-family="sans-serif" font-size="14" font-weight="700" lengthAdjust="spacing" textLength="95.1289" x="225.7627" y="31.9951">Initial Value</text><text fill="#000000" font-family="sans-serif" font-size="14" lengthAdjust="spacing" textLength="147.0479" x="21.4502" y="48.292">Worker_sensor_input</text><text fill="#000000" font-family="sans-serif" font-size="14" lengthAdjust="spacing" textLength="18.252" x="177.3984" y="48.292">int</text><text fill="#000000" font-family="sans-serif" font-size="14" lengthAdjust="spacing" textLength="8.9072" x="225.3389" y="48.292">0</text><text fill="#000000" font-family="sans-serif" font-size="14" lengthAdjust="spacing" textLength="99.9346" x="21.4502" y="64.5889">Worker_speed</text><text fill="#000000" font-family="sans-serif" font-size="14" lengthAdjust="spacing" textLength="18.252" x="177.3984" y="64.5889">int</text><text fill="#000000" font-family="sans-serif" font-size="14" lengthAdjust="spacing" textLength="8.9072" x="225.3389" y="64.5889">0</text><line style="stroke:#000000;stroke-width:1;" x1="17" x2="325.7656" y1="19" y2="19"/><line style="stroke:#000000;stroke-width:1;" x1="17" x2="325.7656" y1="35.2969" y2="35.2969"/><line style="stroke:#000000;stroke-width:1;" x1="17" x2="325.7656" y1="51.5938" y2="51.5938"/><line style="stroke:#000000;stroke-width:1;" x1="17" x2="325.7656" y1="67.8906" y2="67.8906"/><line style="stroke:#000000;stroke-width:1;" x1="17" x2="17" y1="19" y2="67.8906"/><line style="stroke:#000000;stroke-width:1;" x1="172.9482" x2="172.9482" y1="19" y2="67.8906"/><line style="stroke:#000000;stroke-width:1;" x1="220.8887" x2="220.8887" y1="19" y2="67.8906"/><line style="stroke:#000000;stroke-width:1;" x1="325.7656" x2="325.7656" y1="19" y2="67.8906"/></g><path d="M19.5,173.8906 L530.721,173.8906 A12.5,12.5 0 0 1 543.221,186.3906 L543.221,200.1875 L7,200.1875 L7,186.3906 A12.5,12.5 0 0 1 19.5,173.8906" fill="#ADD8E6"/><rect fill="none" height="411.5938" rx="12.5" ry="12.5" style="stroke:#181818;stroke-width:0.5;" width="536.221" x="7" y="173.8906"/><line style="stroke:#181818;stroke-width:0.5;" x1="7" x2="543.221" y1="200.1875" y2="200.1875"/><text fill="#000000" font-family="sans-serif" font-size="14" lengthAdjust="spacing" textLength="52.2061" x="249.0075" y="191.8857">System</text><path d="M31.5,267.1875 L506.721,267.1875 A12.5,12.5 0 0 1 519.221,279.6875 L519.221,293.4844 L19,293.4844 L19,279.6875 A12.5,12.5 0 0 1 31.5,267.1875" fill="#ADD8E6"/><rect fill="none" height="305.2969" rx="12.5" ry="12.5" style="stroke:#181818;stroke-width:0.5;" width="500.221" x="19" y="267.1875"/><line style="stroke:#181818;stroke-width:0.5;" x1="19" x2="519.221" y1="293.4844" y2="293.4844"/><text fill="#000000" font-family="sans-serif" font-size="14" lengthAdjust="spacing" textLength="105.998" x="216.1115" y="285.1826">Worker Module</text><rect fill="#F1F1F1" height="40" rx="12.5" ry="12.5" style="stroke:#181818;stroke-width:0.5;" width="50" x="187.68" y="361.4844"/><text fill="#000000" font-family="sans-serif" font-size="14" lengthAdjust="spacing" textLength="25.5186" x="199.9207" y="386.3311">Idle</text><rect fill="#F1F1F1" height="40" rx="12.5" ry="12.5" style="stroke:#181818;stroke-width:0.5;" width="67.9961" x="178.68" y="519.4844"/><text fill="#000000" font-family="sans-serif" font-size="14" lengthAdjust="spacing" textLength="57.9961" x="183.68" y="544.3311">Running</text><g class="start_entity" data-qualified-name="system.system__worker..start.system__worker" data-source-line="20" id="ent0002"><ellipse cx="212.68" cy="314.4844" fill="#222222" rx="10" ry="10" style="stroke:#222222;stroke-width:1;"/></g><!--link *start*system__worker to system__worker__idle--><g class="link" data-entity-1="ent0002" data-entity-2="ent0004" data-link-type="dependency" data-source-line="20" id="lnk3"><path d="M212.68,324.7944 C212.68,334.2044 212.68,343.0244 212.68,355.0044" fill="none" id="*start*system__worker-to-system__worker__idle" style="stroke:#181818;stroke-width:1;"/><polygon fill="#181818" points="212.68,361.0044,216.68,352.0044,212.68,356.0044,208.68,352.0044,212.68,361.0044" style="stroke:#181818;stroke-width:1;"/></g><!--link system__worker__idle to system__worker__running--><g class="link" data-entity-1="ent0004" data-entity-2="ent0005" data-link-type="dependency" data-source-line="21" id="lnk4"><path d="M187.37,384.5844 C146.58,388.5444 69.23,398.6744 52.68,419.4844 C30,448.0144 30,472.9544 52.68,501.4844 C68.07,520.8444 130.1239,530.3175 172.3739,534.8275" fill="none" id="system__worker__idle-to-system__worker__running" style="stroke:#181818;stroke-width:1;"/><polygon fill="#181818" points="178.34,535.4644,169.8154,530.5317,173.3682,534.9337,168.9663,538.4865,178.34,535.4644" style="stroke:#181818;stroke-width:1;"/><text fill="#000000" font-family="sans-serif" font-size="13" lengthAdjust="spacing" textLength="128.9463" x="138.4105" y="432.5513">Worker Start (Start)</text><path d="M57.68,441.6172 L57.68,496.6172 L347.68,496.6172 L347.68,451.6172 L337.68,441.6172 L57.68,441.6172" fill="#FEFFDD" style="stroke:#181818;stroke-width:0.5;"/><path d="M337.68,441.6172 L337.68,451.6172 L347.68,451.6172 L337.68,441.6172" fill="#FEFFDD" style="stroke:#181818;stroke-width:0.5;"/><text fill="#000000" font-family="sans-serif" font-size="13" lengthAdjust="spacing" textLength="49.7974" x="63.68" y="458.6841">effect {</text><text fill="#000000" font-family="sans-serif" font-size="13" lengthAdjust="spacing" textLength="252.8779" x="80.2093" y="473.8169">Worker_speed = Worker_sensor_input;</text><text fill="#000000" font-family="sans-serif" font-size="13" lengthAdjust="spacing" textLength="8.271" x="63.68" y="488.9497">}</text></g><!--link system__worker__running to system__worker__idle--><g class="link" data-entity-1="ent0005" data-entity-2="ent0004" data-link-type="dependency" data-source-line="27" id="lnk5"><path d="M247.04,534.2044 C284.2,528.7944 339.87,518.1144 352.68,501.4844 C374.92,472.6044 374.92,448.3644 352.68,419.4844 C338.8,401.4544 280.506,391.2272 244.066,386.3072" fill="none" id="system__worker__running-to-system__worker__idle" style="stroke:#181818;stroke-width:1;"/><polygon fill="#181818" points="238.12,385.5044,246.5039,390.6726,243.075,386.1734,247.5743,382.7446,238.12,385.5044" style="stroke:#181818;stroke-width:1;"/><text fill="#000000" font-family="sans-serif" font-size="13" lengthAdjust="spacing" textLength="124.541" x="369.68" y="465.0513">Worker Stop (Stop)</text></g><g class="start_entity" data-qualified-name="system..start.system" data-source-line="29" id="ent0006"><ellipse cx="269.11" cy="221.1875" fill="#222222" rx="10" ry="10" style="stroke:#222222;stroke-width:1;"/></g><!--link *start*system to system__worker--><g class="link" data-entity-1="ent0006" data-entity-2="ent0003" data-link-type="dependency" data-source-line="29" id="lnk7"><path d="M269.11,231.6775 C269.11,239.6575 269.11,246.1175 269.11,260.9075" fill="none" id="*start*system-to-system__worker" style="stroke:#181818;stroke-width:1;"/><polygon fill="#181818" points="269.11,266.9075,273.11,257.9075,269.11,261.9075,265.11,257.9075,269.11,266.9075" style="stroke:#181818;stroke-width:1;"/></g><g class="start_entity" data-qualified-name=".start." data-source-line="31" id="ent0008"><ellipse cx="275.11" cy="103.8906" fill="#222222" rx="10" ry="10" style="stroke:#222222;stroke-width:1;"/></g><g class="end_entity" data-qualified-name=".end." data-source-line="32" id="ent0010"><ellipse cx="275.11" cy="656.4806" fill="none" rx="11" ry="11" style="stroke:#222222;stroke-width:1;"/><ellipse cx="275.11" cy="656.4806" fill="#222222" rx="6" ry="6" style="stroke:#222222;stroke-width:1;"/></g><!--link *start* to system--><g class="link" data-entity-1="ent0008" data-entity-2="ent0002" data-link-type="dependency" data-source-line="31" id="lnk9"><path d="M275.11,114.3106 C275.11,125.9706 275.11,141.4906 275.11,167.4106" fill="none" id="*start*-to-system" style="stroke:#181818;stroke-width:1;"/><polygon fill="#181818" points="275.11,173.4106,279.11,164.4106,275.11,168.4106,271.11,164.4106,275.11,173.4106" style="stroke:#181818;stroke-width:1;"/></g><!--link system to *end*--><g class="link" data-entity-1="ent0002" data-entity-2="ent0010" data-link-type="dependency" data-source-line="32" id="lnk11"><path d="M275.11,585.7806 C275.11,611.6806 275.11,627.3006 275.11,639.3006" fill="none" id="system-to-*end*" style="stroke:#181818;stroke-width:1;"/><polygon fill="#181818" points="275.11,645.3006,279.11,636.3006,275.11,640.3006,271.11,636.3006,275.11,645.3006" style="stroke:#181818;stroke-width:1;"/></g><?plantuml-src XLBDIyCm5B_dhtZiD8M1PzrscA0CzE943o8bDczTQ9g4v1KfTl-xwSTgEpBC8GdvVRoFl8CK25XOga2WJvsq98rcpETIM-vu0Puu8VmmW0rFyyoPKejxeunRBgt7KfZr6fvaTg17nwiOApM5DLuIdeWRLM93D4wWExVgNHwCfXrL2aUG9AvaoewCASnG2o1ZGU6UMBs2D-ua_r88uVvQsVRSQacIgu25Y52p6jwDoz4b7hKtBWabbWGrIDtiDnE6HHGJA0JimeRcj2sPxIfFMCo0U_3j5QR5DZs3ld-ppXUUZIWLZZH9yjqXCUr8lnLHMPB809oJNqgjfSwYVDTXW-JZ-XCMY_K_lX4mgkhTuRPl9Eo8Eu9vUrmDVjg4D8q69NK-FE9-ZocDIc_Mv3zMiG-y6_Z7Fwim7KsCYmMSyhnK-RY0C6NpPk_IxuB4knPcSmgmVZ2Qbu3y0W00?></g></svg>