<svg xmlns="http://www.w3.org/2000/svg" xmlns:xlink="http://www.w3.org/1999/xlink" contentStyleType="text/css" data-diagram-type="STATE" height="697px" preserveAspectRatio="none" style="width:470px;height:697px;background:#FFFFFF;" version="1.1" viewBox="0 0 470 697" width="470px" zoomAndPan="magnify"><?plantuml 1.2026.3beta6?><defs/><g><g class="legend" data-source-line="10"><rect fill="#DDDDDD" height="79.1875" rx="7.5" ry="7.5" style="stroke:#000000;stroke-width:1;" width="291.0459" x="12" y="12"/><text fill="#000000" font-family="sans-serif" font-size="14" font-weight="700" lengthAdjust="spacing" textLength="65.748" x="21.874" y="31.9951">Variable</text><text fill="#000000" font-family="sans-serif" font-size="14" font-weight="700" lengthAdjust="spacing" textLength="38.1924" x="150.1025" y="31.9951">Type</text><text fill="#000000" font-family="sans-serif" font-size="14" font-weight="700" lengthAdjust="spacing" textLength="95.1289" x="198.043" y="31.9951">Initial Value</text><text fill="#000000" font-family="sans-serif" font-size="14" lengthAdjust="spacing" textLength="119.3281" x="21.4502" y="48.292">left_sensor_input</text><text fill="#000000" font-family="sans-serif" font-size="14" lengthAdjust="spacing" textLength="18.252" x="149.6787" y="48.292">int</text><text fill="#000000" font-family="sans-serif" font-size="14" lengthAdjust="spacing" textLength="8.9072" x="197.6191" y="48.292">0</text><text fill="#000000" font-family="sans-serif" font-size="14" lengthAdjust="spacing" textLength="85.0117" x="21.4502" y="64.5889">plant_speed</text><text fill="#000000" font-family="sans-serif" font-size="14" lengthAdjust="spacing" textLength="18.252" x="149.6787" y="64.5889">int</text><text fill="#000000" font-family="sans-serif" font-size="14" lengthAdjust="spacing" textLength="8.9072" x="197.6191" y="64.5889">0</text><text fill="#000000" font-family="sans-serif" font-size="14" lengthAdjust="spacing" textLength="65.9326" x="21.4502" y="80.8857">left_input</text><text fill="#000000" font-family="sans-serif" font-size="14" lengthAdjust="spacing" textLength="18.252" x="149.6787" y="80.8857">int</text><text fill="#000000" font-family="sans-serif" font-size="14" lengthAdjust="spacing" textLength="8.9072" x="197.6191" y="80.8857">0</text><line style="stroke:#000000;stroke-width:1;" x1="17" x2="298.0459" y1="19" y2="19"/><line style="stroke:#000000;stroke-width:1;" x1="17" x2="298.0459" y1="35.2969" y2="35.2969"/><line style="stroke:#000000;stroke-width:1;" x1="17" x2="298.0459" y1="51.5938" y2="51.5938"/><line style="stroke:#000000;stroke-width:1;" x1="17" x2="298.0459" y1="67.8906" y2="67.8906"/><line style="stroke:#000000;stroke-width:1;" x1="17" x2="298.0459" y1="84.1875" y2="84.1875"/><line style="stroke:#000000;stroke-width:1;" x1="17" x2="17" y1="19" y2="84.1875"/><line style="stroke:#000000;stroke-width:1;" x1="145.2285" x2="145.2285" y1="19" y2="84.1875"/><line style="stroke:#000000;stroke-width:1;" x1="193.1689" x2="193.1689" y1="19" y2="84.1875"/><line style="stroke:#000000;stroke-width:1;" x1="298.0459" x2="298.0459" y1="19" y2="84.1875"/></g><path d="M19.5,190.1875 L442.9597,190.1875 A12.5,12.5 0 0 1 455.4597,202.6875 L455.4597,216.4844 L7,216.4844 L7,202.6875 A12.5,12.5 0 0 1 19.5,190.1875" fill="#ADD8E6"/><rect fill="none" height="411.5938" rx="12.5" ry="12.5" style="stroke:#181818;stroke-width:0.5;" width="448.4597" x="7" y="190.1875"/><line style="stroke:#181818;stroke-width:0.5;" x1="7" x2="455.4597" y1="216.4844" y2="216.4844"/><text fill="#000000" font-family="sans-serif" font-size="14" lengthAdjust="spacing" textLength="52.2061" x="205.1268" y="208.1826">System</text><path d="M31.5,283.4844 L418.9597,283.4844 A12.5,12.5 0 0 1 431.4597,295.9844 L431.4597,309.7813 L19,309.7813 L19,295.9844 A12.5,12.5 0 0 1 31.5,283.4844" fill="#ADD8E6"/><rect fill="none" height="305.2969" rx="12.5" ry="12.5" style="stroke:#181818;stroke-width:0.5;" width="412.4597" x="19" y="283.4844"/><line style="stroke:#181818;stroke-width:0.5;" x1="19" x2="431.4597" y1="309.7813" y2="309.7813"/><text fill="#000000" font-family="sans-serif" font-size="14" lengthAdjust="spacing" textLength="81.9219" x="184.2689" y="301.4795">Left Worker</text><rect fill="#F1F1F1" height="40" rx="12.5" ry="12.5" style="stroke:#181818;stroke-width:0.5;" width="50" x="142.51" y="377.7813"/><text fill="#000000" font-family="sans-serif" font-size="14" lengthAdjust="spacing" textLength="25.5186" x="154.7507" y="402.6279">Idle</text><rect fill="#F1F1F1" height="40" rx="12.5" ry="12.5" style="stroke:#181818;stroke-width:0.5;" width="67.9961" x="133.51" y="535.7813"/><text fill="#000000" font-family="sans-serif" font-size="14" lengthAdjust="spacing" textLength="57.9961" x="138.51" y="560.6279">Running</text><g class="start_entity" data-qualified-name="system.system__left_worker..start.system__left_worker" data-source-line="21" id="ent0002"><ellipse cx="167.51" cy="330.7813" fill="#222222" rx="10" ry="10" style="stroke:#222222;stroke-width:1;"/></g><!--link *start*system__left_worker to system__left_worker__idle--><g class="link" data-entity-1="ent0002" data-entity-2="ent0004" data-link-type="dependency" data-source-line="21" id="lnk3"><path d="M167.51,341.0913 C167.51,350.5013 167.51,359.3213 167.51,371.3013" fill="none" id="*start*system__left_worker-to-system__left_worker__idle" style="stroke:#181818;stroke-width:1;"/><polygon fill="#181818" points="167.51,377.3013,171.51,368.3013,167.51,372.3013,163.51,368.3013,167.51,377.3013" style="stroke:#181818;stroke-width:1;"/></g><!--link system__left_worker__idle to system__left_worker__running--><g class="link" data-entity-1="ent0004" data-entity-2="ent0005" data-link-type="dependency" data-source-line="22" id="lnk4"><path d="M142.25,398.7813 C114.84,400.3013 72.21,407.4513 51.51,435.7813 C30,465.2113 30,488.3513 51.51,517.7813 C70.03,543.1313 100.1169,550.9533 127.1469,553.5233" fill="none" id="system__left_worker__idle-to-system__left_worker__running" style="stroke:#181818;stroke-width:1;"/><polygon fill="#181818" points="133.12,554.0913,124.539,549.2573,128.1424,553.618,123.7818,557.2214,133.12,554.0913" style="stroke:#181818;stroke-width:1;"/><text fill="#000000" font-family="sans-serif" font-size="13" lengthAdjust="spacing" textLength="132.355" x="90.947" y="448.8481">Shared Start (/Start)</text><path d="M56.51,457.9141 L56.51,512.9141 L257.51,512.9141 L257.51,467.9141 L247.51,457.9141 L56.51,457.9141" fill="#FEFFDD" style="stroke:#181818;stroke-width:0.5;"/><path d="M247.51,457.9141 L247.51,467.9141 L257.51,467.9141 L247.51,457.9141" fill="#FEFFDD" style="stroke:#181818;stroke-width:0.5;"/><text fill="#000000" font-family="sans-serif" font-size="13" lengthAdjust="spacing" textLength="49.7974" x="62.51" y="474.981">effect {</text><text fill="#000000" font-family="sans-serif" font-size="13" lengthAdjust="spacing" textLength="163.6997" x="79.0393" y="490.1138">plant_speed = left_input;</text><text fill="#000000" font-family="sans-serif" font-size="13" lengthAdjust="spacing" textLength="8.271" x="62.51" y="505.2466">}</text></g><!--link system__left_worker__running to system__left_worker__idle--><g class="link" data-entity-1="ent0005" data-entity-2="ent0004" data-link-type="dependency" data-source-line="28" id="lnk5"><path d="M201.6,551.1113 C222.96,546.8513 248.92,537.6513 262.51,517.7813 C283.07,487.6913 283.07,465.8713 262.51,435.7813 C247.02,413.1313 221.3922,405.2507 198.9022,401.8407" fill="none" id="system__left_worker__running-to-system__left_worker__idle" style="stroke:#181818;stroke-width:1;"/><polygon fill="#181818" points="192.97,400.9413,201.2687,406.2452,197.9135,401.6908,202.4679,398.3356,192.97,400.9413" style="stroke:#181818;stroke-width:1;"/><text fill="#000000" font-family="sans-serif" font-size="13" lengthAdjust="spacing" textLength="127.9497" x="278.51" y="481.3481">Shared Stop (/Stop)</text></g><g class="start_entity" data-qualified-name="system..start.system" data-source-line="30" id="ent0006"><ellipse cx="225.23" cy="237.4844" fill="#222222" rx="10" ry="10" style="stroke:#222222;stroke-width:1;"/></g><!--link *start*system to system__left_worker--><g class="link" data-entity-1="ent0006" data-entity-2="ent0003" data-link-type="dependency" data-source-line="30" id="lnk7"><path d="M225.23,247.9744 C225.23,255.9544 225.23,262.4144 225.23,277.2044" fill="none" id="*start*system-to-system__left_worker" style="stroke:#181818;stroke-width:1;"/><polygon fill="#181818" points="225.23,283.2044,229.23,274.2044,225.23,278.2044,221.23,274.2044,225.23,283.2044" style="stroke:#181818;stroke-width:1;"/></g><g class="start_entity" data-qualified-name=".start." data-source-line="32" id="ent0008"><ellipse cx="231.23" cy="120.1875" fill="#222222" rx="10" ry="10" style="stroke:#222222;stroke-width:1;"/></g><g class="end_entity" data-qualified-name=".end." data-source-line="33" id="ent0010"><ellipse cx="231.23" cy="672.7775" fill="none" rx="11" ry="11" style="stroke:#222222;stroke-width:1;"/><ellipse cx="231.23" cy="672.7775" fill="#222222" rx="6" ry="6" style="stroke:#222222;stroke-width:1;"/></g><!--link *start* to system--><g class="link" data-entity-1="ent0008" data-entity-2="ent0002" data-link-type="dependency" data-source-line="32" id="lnk9"><path d="M231.23,130.6075 C231.23,142.2675 231.23,157.7875 231.23,183.7075" fill="none" id="*start*-to-system" style="stroke:#181818;stroke-width:1;"/><polygon fill="#181818" points="231.23,189.7075,235.23,180.7075,231.23,184.7075,227.23,180.7075,231.23,189.7075" style="stroke:#181818;stroke-width:1;"/></g><!--link system to *end*--><g class="link" data-entity-1="ent0002" data-entity-2="ent0010" data-link-type="dependency" data-source-line="33" id="lnk11"><path d="M231.23,602.0775 C231.23,627.9775 231.23,643.5975 231.23,655.5975" fill="none" id="system-to-*end*" style="stroke:#181818;stroke-width:1;"/><polygon fill="#181818" points="231.23,661.5975,235.23,652.5975,231.23,656.5975,227.23,652.5975,231.23,661.5975" style="stroke:#181818;stroke-width:1;"/></g><?plantuml-src ZLB1JiCm3BtdAwoT06c2Csmx30aqQIUAu81G5LflYvOcKU8ALNJ_ZfjkfOnreeScijzxjb-yKJa25eugo35aNZbIrWWHjieuwMK1WIGXV0c0kSosQszBazzRRVrauWAMkPtDOAdM6thqiZg5ocpXR5241-1SbzW0hS_H7qljLHwieOGgZRsK8gbL9dP2Q5oZoO6i0uqh4lKKNgHNyaCZyFsvSl5S64LAQivnHQX57T5fG1EiJtd0ag06PPh_JSmxBGq3769-b8dClnHkess6BOj6ZP8g41OZa052lC9l2nedOU_gQCcgy6hz5dsFaQQnscUCdwJt91RSm10tJHLdZnbFfJ7Ah8T9lWLqlBUhTnYFP_-fC8GOvk-BmIqa6-dPzuIa9xYuZkTb9sqizsuDQ6MsNH1NAyoePqhpzHznsdkukmwr-n7WDMgKpqzmwF6i2Vq9U36R0Qnh-s_hdR6Hb_ftLkntfubmvXi0?></g></svg>