<svg xmlns="http://www.w3.org/2000/svg" xmlns:xlink="http://www.w3.org/1999/xlink" contentStyleType="text/css" data-diagram-type="STATE" height="575px" preserveAspectRatio="none" style="width:412px;height:575px;background:#FFFFFF;" version="1.1" viewBox="0 0 412 575" width="412px" zoomAndPan="magnify"><?plantuml 1.2026.3beta6?><defs/><g><g class="legend" data-source-line="10"><rect fill="#DDDDDD" height="62.8906" rx="7.5" ry="7.5" style="stroke:#000000;stroke-width:1;" width="261.125" x="12" y="12"/><text fill="#000000" font-family="sans-serif" font-size="14" font-weight="700" lengthAdjust="spacing" textLength="65.748" x="21.874" y="31.9951">Variable</text><text fill="#000000" font-family="sans-serif" font-size="14" font-weight="700" lengthAdjust="spacing" textLength="38.1924" x="120.1816" y="31.9951">Type</text><text fill="#000000" font-family="sans-serif" font-size="14" font-weight="700" lengthAdjust="spacing" textLength="95.1289" x="168.1221" y="31.9951">Initial Value</text><text fill="#000000" font-family="sans-serif" font-size="14" lengthAdjust="spacing" textLength="89.4072" x="21.4502" y="48.292">sensor_input</text><text fill="#000000" font-family="sans-serif" font-size="14" lengthAdjust="spacing" textLength="18.252" x="119.7578" y="48.292">int</text><text fill="#000000" font-family="sans-serif" font-size="14" lengthAdjust="spacing" textLength="8.9072" x="167.6982" y="48.292">0</text><text fill="#000000" font-family="sans-serif" font-size="14" lengthAdjust="spacing" textLength="42.2939" x="21.4502" y="64.5889">speed</text><text fill="#000000" font-family="sans-serif" font-size="14" lengthAdjust="spacing" textLength="18.252" x="119.7578" y="64.5889">int</text><text fill="#000000" font-family="sans-serif" font-size="14" lengthAdjust="spacing" textLength="8.9072" x="167.6982" y="64.5889">0</text><line style="stroke:#000000;stroke-width:1;" x1="17" x2="268.125" y1="19" y2="19"/><line style="stroke:#000000;stroke-width:1;" x1="17" x2="268.125" y1="35.2969" y2="35.2969"/><line style="stroke:#000000;stroke-width:1;" x1="17" x2="268.125" y1="51.5938" y2="51.5938"/><line style="stroke:#000000;stroke-width:1;" x1="17" x2="268.125" y1="67.8906" y2="67.8906"/><line style="stroke:#000000;stroke-width:1;" x1="17" x2="17" y1="19" y2="67.8906"/><line style="stroke:#000000;stroke-width:1;" x1="115.3076" x2="115.3076" y1="19" y2="67.8906"/><line style="stroke:#000000;stroke-width:1;" x1="163.248" x2="163.248" y1="19" y2="67.8906"/><line style="stroke:#000000;stroke-width:1;" x1="268.125" x2="268.125" y1="19" y2="67.8906"/></g><path d="M19.5,173.8906 L385.191,173.8906 A12.5,12.5 0 0 1 397.691,186.3906 L397.691,200.1875 L7,200.1875 L7,186.3906 A12.5,12.5 0 0 1 19.5,173.8906" fill="#ADD8E6"/><rect fill="none" height="305.2969" rx="12.5" ry="12.5" style="stroke:#181818;stroke-width:0.5;" width="390.691" x="7" y="173.8906"/><line style="stroke:#181818;stroke-width:0.5;" x1="7" x2="397.691" y1="200.1875" y2="200.1875"/><text fill="#000000" font-family="sans-serif" font-size="14" lengthAdjust="spacing" textLength="105.998" x="149.3465" y="191.8857">Worker Module</text><rect fill="#F1F1F1" height="40" rx="12.5" ry="12.5" style="stroke:#181818;stroke-width:0.5;" width="50" x="121.15" y="268.1875"/><text fill="#000000" font-family="sans-serif" font-size="14" lengthAdjust="spacing" textLength="25.5186" x="133.3907" y="293.0342">Idle</text><rect fill="#F1F1F1" height="40" rx="12.5" ry="12.5" style="stroke:#181818;stroke-width:0.5;" width="67.9961" x="112.15" y="426.1875"/><text fill="#000000" font-family="sans-serif" font-size="14" lengthAdjust="spacing" textLength="57.9961" x="117.15" y="451.0342">Running</text><g class="start_entity" data-qualified-name="worker_module..start.worker_module" data-source-line="19" id="ent0002"><ellipse cx="146.15" cy="221.1875" fill="#222222" rx="10" ry="10" style="stroke:#222222;stroke-width:1;"/></g><!--link *start*worker_module to worker_module__idle--><g class="link" data-entity-1="ent0002" data-entity-2="ent0003" data-link-type="dependency" data-source-line="19" id="lnk3"><path d="M146.15,231.4975 C146.15,240.9075 146.15,249.7275 146.15,261.7075" fill="none" id="*start*worker_module-to-worker_module__idle" style="stroke:#181818;stroke-width:1;"/><polygon fill="#181818" points="146.15,267.7075,150.15,258.7075,146.15,262.7075,142.15,258.7075,146.15,267.7075" style="stroke:#181818;stroke-width:1;"/></g><!--link worker_module__idle to worker_module__running--><g class="link" data-entity-1="ent0003" data-entity-2="ent0004" data-link-type="dependency" data-source-line="20" id="lnk4"><path d="M120.94,289.9975 C95.56,292.3275 57.62,300.2475 39.15,326.1875 C18,355.8675 18,378.5075 39.15,408.1875 C55.51,431.1575 81.204,439.2042 105.854,442.5342" fill="none" id="worker_module__idle-to-worker_module__running" style="stroke:#181818;stroke-width:1;"/><polygon fill="#181818" points="111.8,443.3375,103.4165,438.1686,106.845,442.6681,102.3455,446.0966,111.8,443.3375" style="stroke:#181818;stroke-width:1;"/><text fill="#000000" font-family="sans-serif" font-size="13" lengthAdjust="spacing" textLength="128.9463" x="71.357" y="339.2544">Worker Start (Start)</text><path d="M44.15,348.3203 L44.15,403.3203 L227.15,403.3203 L227.15,358.3203 L217.15,348.3203 L44.15,348.3203" fill="#FEFFDD" style="stroke:#181818;stroke-width:0.5;"/><path d="M217.15,348.3203 L217.15,358.3203 L227.15,358.3203 L217.15,348.3203" fill="#FEFFDD" style="stroke:#181818;stroke-width:0.5;"/><text fill="#000000" font-family="sans-serif" font-size="13" lengthAdjust="spacing" textLength="49.7974" x="50.15" y="365.3872">effect {</text><text fill="#000000" font-family="sans-serif" font-size="13" lengthAdjust="spacing" textLength="145.8311" x="66.6793" y="380.52">speed = sensor_input;</text><text fill="#000000" font-family="sans-serif" font-size="13" lengthAdjust="spacing" textLength="8.271" x="50.15" y="395.6528">}</text></g><!--link worker_module__running to worker_module__idle--><g class="link" data-entity-1="ent0004" data-entity-2="ent0003" data-link-type="dependency" data-source-line="26" id="lnk5"><path d="M180.57,439.7175 C199.21,434.8175 220.71,425.5675 232.15,408.1875 C252.19,377.7475 252.19,356.6275 232.15,326.1875 C218.74,305.8275 197.3989,297.8171 177.1589,293.6871" fill="none" id="worker_module__running-to-worker_module__idle" style="stroke:#181818;stroke-width:1;"/><polygon fill="#181818" points="171.28,292.4875,179.2986,298.2061,176.179,293.4872,180.898,290.3676,171.28,292.4875" style="stroke:#181818;stroke-width:1;"/><text fill="#000000" font-family="sans-serif" font-size="13" lengthAdjust="spacing" textLength="124.541" x="248.15" y="371.7544">Worker Stop (Stop)</text></g><g class="start_entity" data-qualified-name=".start." data-source-line="28" id="ent0006"><ellipse cx="202.35" cy="103.8906" fill="#222222" rx="10" ry="10" style="stroke:#222222;stroke-width:1;"/></g><g class="end_entity" data-qualified-name=".end." data-source-line="29" id="ent0008"><ellipse cx="202.35" cy="550.1906" fill="none" rx="11" ry="11" style="stroke:#222222;stroke-width:1;"/><ellipse cx="202.35" cy="550.1906" fill="#222222" rx="6" ry="6" style="stroke:#222222;stroke-width:1;"/></g><!--link *start* to worker_module--><g class="link" data-entity-1="ent0006" data-entity-2="ent0002" data-link-type="dependency" data-source-line="28" id="lnk7"><path d="M202.35,114.3706 C202.35,126.2506 202.35,142.1506 202.35,167.5006" fill="none" id="*start*-to-worker_module" style="stroke:#181818;stroke-width:1;"/><polygon fill="#181818" points="202.35,173.5006,206.35,164.5006,202.35,168.5006,198.35,164.5006,202.35,173.5006" style="stroke:#181818;stroke-width:1;"/></g><!--link worker_module to *end*--><g class="link" data-entity-1="ent0002" data-entity-2="ent0008" data-link-type="dependency" data-source-line="29" id="lnk9"><path d="M202.35,479.6706 C202.35,504.7506 202.35,520.5306 202.35,532.7506" fill="none" id="worker_module-to-*end*" style="stroke:#181818;stroke-width:1;"/><polygon fill="#181818" points="202.35,538.7506,206.35,529.7506,202.35,533.7506,198.35,529.7506,202.35,538.7506" style="stroke:#181818;stroke-width:1;"/></g><?plantuml-src TLB1QiCm3BtxAqHFxQ2myzRsqC56ORkiOpkC4RnOJKKSszWA8opzzpbE2ir8BtRGUtxIUygH509MZXjG679FZiaQ8K99naalAmWi6U5N06nbNXRUraOzM6tzQkK2rifkDl1CnP6Vl6ocMBcjd0t4U2PkTOqTqNg5_h_KeF9e3U-vqNW14KjDkJW9eR50eu2j0uq75kqQtgKd-QqHulTRuzAzCyGaTSHYHsX52m5Di3wBtcg65iXqvsqFEKGrgiKMVQCOHmfXzc5zYHvUhAerpa06-4cLh4eL69ljCeCXlzbEJRt8CehrIzvhRGoPOehgUoYnFs--OBdSN5MRg4_n1qcuWy7QdgLdcAThaPICZMDP0vfCcGfuE63EWxiqUKfkFGhtFg6d_a5SLQSoDTXvW2jUBWUBovvtvoB-0PFsnNWP7HvvVm00?></g></svg>