<?plantuml 1.2026.2beta3?><svg xmlns="http://www.w3.org/2000/svg" xmlns:xlink="http://www.w3.org/1999/xlink" contentStyleType="text/css" data-diagram-type="STATE" height="945px" preserveAspectRatio="none" style="width:476px;height:945px;background:#FFFFFF;" version="1.1" viewBox="0 0 476 945" width="476px" zoomAndPan="magnify"><title>Leaf State Lifecycle</title><defs/><g><g class="title" data-source-line="1"><text fill="#000000" font-family="sans-serif" font-size="14" font-weight="bold" lengthAdjust="spacing" textLength="155.4355" x="153.6414" y="22.9951">Leaf State Lifecycle</text></g><g class="entity" data-qualified-name="EnterState" id="ent0002"><rect fill="#F1F1F1" height="50" rx="12.5" ry="12.5" style="stroke:#181818;stroke-width:0.5;" width="50" x="141.21" y="140.2969"/><line style="stroke:#181818;stroke-width:0.5;" x1="141.21" x2="191.21" y1="160.2969" y2="160.2969"/><text fill="#000000" font-family="sans-serif" font-size="14" lengthAdjust="spacing" textLength="0" x="166.21" y="145.2969">EnterState</text><text fill="#000000" font-family="sans-serif" font-size="12" lengthAdjust="spacing" textLength="0" x="146.21" y="165.2969">Entry point for leaf state</text></g><g class="entity" data-qualified-name="ExecuteEnterOperation" id="ent0003"><rect fill="#F1F1F1" height="50" rx="12.5" ry="12.5" style="stroke:#181818;stroke-width:0.5;" width="50" x="141.21" y="267.2969"/><line style="stroke:#181818;stroke-width:0.5;" x1="141.21" x2="191.21" y1="287.2969" y2="287.2969"/><text fill="#000000" font-family="sans-serif" font-size="14" lengthAdjust="spacing" textLength="0" x="166.21" y="272.2969">ExecuteEnterOperation</text><text fill="#000000" font-family="sans-serif" font-size="12" lengthAdjust="spacing" textLength="0" x="146.21" y="292.2969">Execute current state's enter operation</text></g><g class="entity" data-qualified-name="ExecuteDuringOperation" id="ent0004"><rect fill="#F1F1F1" height="50" rx="12.5" ry="12.5" style="stroke:#181818;stroke-width:0.5;" width="50" x="141.21" y="394.2969"/><line style="stroke:#181818;stroke-width:0.5;" x1="141.21" x2="191.21" y1="414.2969" y2="414.2969"/><text fill="#000000" font-family="sans-serif" font-size="14" lengthAdjust="spacing" textLength="0" x="166.21" y="399.2969">ExecuteDuringOperation</text><text fill="#000000" font-family="sans-serif" font-size="12" lengthAdjust="spacing" textLength="0" x="146.21" y="419.2969">Execute current state's during operation</text></g><g class="entity" data-qualified-name="CheckTransitions" id="ent0005"><rect fill="#F1F1F1" height="50" rx="12.5" ry="12.5" style="stroke:#181818;stroke-width:0.5;" width="50" x="141.21" y="536.2969"/><line style="stroke:#181818;stroke-width:0.5;" x1="141.21" x2="191.21" y1="556.2969" y2="556.2969"/><text fill="#000000" font-family="sans-serif" font-size="14" lengthAdjust="spacing" textLength="0" x="166.21" y="541.2969">CheckTransitions</text><text fill="#000000" font-family="sans-serif" font-size="12" lengthAdjust="spacing" textLength="0" x="146.21" y="561.2969">Check transition events and guards</text></g><g class="entity" data-qualified-name="ExecuteExitOperation" id="ent0006"><rect fill="#F1F1F1" height="50" rx="12.5" ry="12.5" style="stroke:#181818;stroke-width:0.5;" width="50" x="141.21" y="663.2969"/><line style="stroke:#181818;stroke-width:0.5;" x1="141.21" x2="191.21" y1="683.2969" y2="683.2969"/><text fill="#000000" font-family="sans-serif" font-size="14" lengthAdjust="spacing" textLength="0" x="166.21" y="668.2969">ExecuteExitOperation</text><text fill="#000000" font-family="sans-serif" font-size="12" lengthAdjust="spacing" textLength="0" x="146.21" y="688.2969">Execute current state's exit operation</text></g><g class="entity" data-qualified-name="ExecuteTransition" id="ent0007"><rect fill="#F1F1F1" height="50" rx="12.5" ry="12.5" style="stroke:#181818;stroke-width:0.5;" width="50" x="141.21" y="790.2969"/><line style="stroke:#181818;stroke-width:0.5;" x1="141.21" x2="191.21" y1="810.2969" y2="810.2969"/><text fill="#000000" font-family="sans-serif" font-size="14" lengthAdjust="spacing" textLength="0" x="166.21" y="795.2969">ExecuteTransition</text><text fill="#000000" font-family="sans-serif" font-size="12" lengthAdjust="spacing" textLength="0" x="146.21" y="815.2969">Execute transition effects and move to next state</text></g><g class="start_entity" data-qualified-name=".start." data-source-line="3" id="ent0002"><ellipse cx="166.21" cy="53.2969" fill="#222222" rx="10" ry="10" style="stroke:#222222;stroke-width:1;"/></g><g class="end_entity" data-qualified-name=".end." data-source-line="40" id="ent0010"><ellipse cx="166.21" cy="928.2969" fill="none" rx="11" ry="11" style="stroke:#222222;stroke-width:1;"/><ellipse cx="166.21" cy="928.2969" fill="#222222" rx="6" ry="6" style="stroke:#222222;stroke-width:1;"/></g><!--link *start* to EnterState--><g class="link" data-entity-1="ent0002" data-entity-2="ent0002" data-link-type="dependency" data-source-line="3" id="lnk3"><path d="M166.21,63.6769 C166.21,80.4069 166.21,109.8869 166.21,133.9269" fill="none" id="*start*-to-EnterState" style="stroke:#181818;stroke-width:1;"/><polygon fill="#181818" points="166.21,139.9269,170.21,130.9269,166.21,134.9269,162.21,130.9269,166.21,139.9269" style="stroke:#181818;stroke-width:1;"/><text fill="#000000" font-family="sans-serif" font-size="13" lengthAdjust="spacing" textLength="100.2422" x="167.21" y="106.3638">Enter leaf state</text></g><!--link EnterState to ExecuteEnterOperation--><g class="link" data-entity-1="ent0002" data-entity-2="ent0003" data-link-type="dependency" data-source-line="9" id="lnk4"><path d="M166.21,190.6969 C166.21,212.7169 166.21,238.9569 166.21,260.9569" fill="none" id="EnterState-to-ExecuteEnterOperation" style="stroke:#181818;stroke-width:1;"/><polygon fill="#181818" points="166.21,266.9569,170.21,257.9569,166.21,261.9569,162.21,257.9569,166.21,266.9569" style="stroke:#181818;stroke-width:1;"/><text fill="#000000" font-family="sans-serif" font-size="13" lengthAdjust="spacing" textLength="147.9385" x="167.21" y="233.3638">Step 1: Enter the state</text></g><!--link ExecuteEnterOperation to ExecuteDuringOperation--><g class="link" data-entity-1="ent0003" data-entity-2="ent0004" data-link-type="dependency" data-source-line="15" id="lnk5"><path d="M166.21,317.6969 C166.21,339.7169 166.21,365.9569 166.21,387.9569" fill="none" id="ExecuteEnterOperation-to-ExecuteDuringOperation" style="stroke:#181818;stroke-width:1;"/><polygon fill="#181818" points="166.21,393.9569,170.21,384.9569,166.21,388.9569,162.21,384.9569,166.21,393.9569" style="stroke:#181818;stroke-width:1;"/><text fill="#000000" font-family="sans-serif" font-size="13" lengthAdjust="spacing" textLength="208.2603" x="167.21" y="360.3638">Step 2: Execute enter operation</text></g><!--link ExecuteDuringOperation to CheckTransitions--><g class="link" data-entity-1="ent0004" data-entity-2="ent0005" data-link-type="dependency" data-source-line="21" id="lnk6"><path d="M140.76,422.5669 C109.79,426.8469 58.75,439.1369 35.21,474.2969 C6,517.9269 89.4425,543.3127 135.1625,553.8227" fill="none" id="ExecuteDuringOperation-to-CheckTransitions" style="stroke:#181818;stroke-width:1;"/><polygon fill="#181818" points="141.01,555.1669,133.1349,549.2522,136.1371,554.0467,131.3426,557.0489,141.01,555.1669" style="stroke:#181818;stroke-width:1;"/><text fill="#000000" font-family="sans-serif" font-size="13" lengthAdjust="spacing" textLength="215.522" x="36.21" y="494.8638">Step 3: Execute during operation</text></g><!--link CheckTransitions to ExecuteDuringOperation--><g class="link" data-entity-1="ent0005" data-entity-2="ent0004" data-link-type="dependency" data-source-line="27" id="lnk7"><path d="M191.52,552.8869 C213.01,545.1069 242.47,530.5569 256.21,506.2969 C263.22,493.9169 263.22,486.6769 256.21,474.2969 C242.47,450.0369 218.6517,437.5293 197.1617,429.7493" fill="none" id="CheckTransitions-to-ExecuteDuringOperation" style="stroke:#181818;stroke-width:1;"/><polygon fill="#181818" points="191.52,427.7069,198.6209,434.5317,196.2214,429.4089,201.3441,427.0094,191.52,427.7069" style="stroke:#181818;stroke-width:1;"/><text fill="#000000" font-family="sans-serif" font-size="13" lengthAdjust="spacing" textLength="206.5083" x="262.21" y="487.3638">Step 4a: No transition triggered</text><text fill="#000000" font-family="sans-serif" font-size="13" lengthAdjust="spacing" textLength="102.8765" x="314.0259" y="502.4966">(back to step 3)</text></g><!--link CheckTransitions to ExecuteExitOperation--><g class="link" data-entity-1="ent0005" data-entity-2="ent0006" data-link-type="dependency" data-source-line="28" id="lnk8"><path d="M166.21,586.6969 C166.21,608.7169 166.21,634.9569 166.21,656.9569" fill="none" id="CheckTransitions-to-ExecuteExitOperation" style="stroke:#181818;stroke-width:1;"/><polygon fill="#181818" points="166.21,662.9569,170.21,653.9569,166.21,657.9569,162.21,653.9569,166.21,662.9569" style="stroke:#181818;stroke-width:1;"/><text fill="#000000" font-family="sans-serif" font-size="13" lengthAdjust="spacing" textLength="187.8271" x="167.21" y="629.3638">Step 4b: Transition triggered</text></g><!--link ExecuteExitOperation to ExecuteTransition--><g class="link" data-entity-1="ent0006" data-entity-2="ent0007" data-link-type="dependency" data-source-line="34" id="lnk9"><path d="M166.21,713.6969 C166.21,735.7169 166.21,761.9569 166.21,783.9569" fill="none" id="ExecuteExitOperation-to-ExecuteTransition" style="stroke:#181818;stroke-width:1;"/><polygon fill="#181818" points="166.21,789.9569,170.21,780.9569,166.21,784.9569,162.21,780.9569,166.21,789.9569" style="stroke:#181818;stroke-width:1;"/><text fill="#000000" font-family="sans-serif" font-size="13" lengthAdjust="spacing" textLength="197.9834" x="167.21" y="756.3638">Step 5: Execute exit operation</text></g><!--link ExecuteTransition to *end*--><g class="link" data-entity-1="ent0007" data-entity-2="ent0010" data-link-type="dependency" data-source-line="40" id="lnk11"><path d="M166.21,840.6569 C166.21,864.5269 166.21,893.7569 166.21,911.0069" fill="none" id="ExecuteTransition-to-*end*" style="stroke:#181818;stroke-width:1;"/><polygon fill="#181818" points="166.21,917.0069,170.21,908.0069,166.21,912.0069,162.21,908.0069,166.21,917.0069" style="stroke:#181818;stroke-width:1;"/><text fill="#000000" font-family="sans-serif" font-size="13" lengthAdjust="spacing" textLength="202.6997" x="167.21" y="883.3638">Step 6: Transition to next state</text></g><?plantuml-src XPGzKyCm38Pt_mfjVDnru7F8m0BTE1ZQ3HZSH4bz5BldABtqEFuxjfjGEKxer5JL--YfeuGKRH2UKPQm84dkKfMOx_CD2l5s-G6psGFCDQ4z_9eTli361sfV4Y9yyAPl0Kd6xc5hb2OeJPJ-4OArXcajvWrXgBvkqKfIHZl8Wd0BLxq0hN4mVpGML2Q0NHtonbfqPe5pLWE60QRl38gZ26Rxr5YbgqJt-ZXbI8srXtdcdQAdn8lGEMe-X7ZrnpNcdqihTQryhUwbRuuJ4c9ddKIzxmWlb83-Qe0x9ro3r0LKZRH5xHsJuEc3lPKPl1XE9gkg2YqMx_fy9VrKumx6_vsBVmVCMqKfVfN1SeGzNBOeotTj09rSDTStlcaHWEaogyxrZkrOZ8jbMPAPHhoUmszOwLu7tHtxCZlqnwgn9VRu9Y2lwzyTdU1zV9Oy_mi0?></g></svg>