<svg xmlns="http://www.w3.org/2000/svg" xmlns:xlink="http://www.w3.org/1999/xlink" contentStyleType="text/css" data-diagram-type="STATE" height="946px" preserveAspectRatio="none" style="width:476px;height:946px;background:#FFFFFF;" version="1.1" viewBox="0 0 476 946" width="476px" zoomAndPan="magnify"><title>Leaf State Lifecycle</title><defs/><g><g class="title" data-source-line="1"><text fill="#000000" font-family="sans-serif" font-size="14" font-weight="bold" lengthAdjust="spacing" textLength="155.4355" x="153.6214" y="22.9951">Leaf State Lifecycle</text></g><g id="EnterState"><rect fill="#F1F1F1" height="50.2656" rx="12.5" ry="12.5" style="stroke:#181818;stroke-width:0.5;" width="166.9824" x="82.67" y="140.2969"/><line style="stroke:#181818;stroke-width:0.5;" x1="82.67" x2="249.6524" y1="166.5938" y2="166.5938"/><text fill="#000000" font-family="sans-serif" font-size="14" lengthAdjust="spacing" textLength="74.6348" x="128.8438" y="158.292">EnterState</text><text fill="#000000" font-family="sans-serif" font-size="12" lengthAdjust="spacing" textLength="146.9824" x="87.67" y="182.7324">Entry point for leaf state</text></g><g id="ExecuteEnterOperation"><rect fill="#F1F1F1" height="50.2656" rx="12.5" ry="12.5" style="stroke:#181818;stroke-width:0.5;" width="256.9531" x="37.69" y="267.5569"/><line style="stroke:#181818;stroke-width:0.5;" x1="37.69" x2="294.6431" y1="293.8538" y2="293.8538"/><text fill="#000000" font-family="sans-serif" font-size="14" lengthAdjust="spacing" textLength="163.666" x="84.3336" y="285.552">ExecuteEnterOperation</text><text fill="#000000" font-family="sans-serif" font-size="12" lengthAdjust="spacing" textLength="236.9531" x="42.69" y="309.9924">Execute current state's enter operation</text></g><g id="ExecuteDuringOperation"><rect fill="#F1F1F1" height="50.2656" rx="12.5" ry="12.5" style="stroke:#181818;stroke-width:0.5;" width="263.6563" x="34.34" y="394.8269"/><line style="stroke:#181818;stroke-width:0.5;" x1="34.34" x2="297.9963" y1="421.1238" y2="421.1238"/><text fill="#000000" font-family="sans-serif" font-size="14" lengthAdjust="spacing" textLength="173.1475" x="79.5944" y="412.822">ExecuteDuringOperation</text><text fill="#000000" font-family="sans-serif" font-size="12" lengthAdjust="spacing" textLength="243.6563" x="39.34" y="437.2624">Execute current state's during operation</text></g><g id="CheckTransitions"><rect fill="#F1F1F1" height="50.2656" rx="12.5" ry="12.5" style="stroke:#181818;stroke-width:0.5;" width="233.7266" x="49.3" y="537.0869"/><line style="stroke:#181818;stroke-width:0.5;" x1="49.3" x2="283.0266" y1="563.3838" y2="563.3838"/><text fill="#000000" font-family="sans-serif" font-size="14" lengthAdjust="spacing" textLength="120.1211" x="106.1027" y="555.082">CheckTransitions</text><text fill="#000000" font-family="sans-serif" font-size="12" lengthAdjust="spacing" textLength="213.7266" x="54.3" y="579.5224">Check transition events and guards</text></g><g id="ExecuteExitOperation"><rect fill="#F1F1F1" height="50.2656" rx="12.5" ry="12.5" style="stroke:#181818;stroke-width:0.5;" width="247.4668" x="42.43" y="664.3569"/><line style="stroke:#181818;stroke-width:0.5;" x1="42.43" x2="289.8968" y1="690.6538" y2="690.6538"/><text fill="#000000" font-family="sans-serif" font-size="14" lengthAdjust="spacing" textLength="152.5986" x="89.8641" y="682.352">ExecuteExitOperation</text><text fill="#000000" font-family="sans-serif" font-size="12" lengthAdjust="spacing" textLength="227.4668" x="47.43" y="706.7924">Execute current state's exit operation</text></g><g id="ExecuteTransition"><rect fill="#F1F1F1" height="50.2656" rx="12.5" ry="12.5" style="stroke:#181818;stroke-width:0.5;" width="318.3301" x="7" y="791.6169"/><line style="stroke:#181818;stroke-width:0.5;" x1="7" x2="325.3301" y1="817.9138" y2="817.9138"/><text fill="#000000" font-family="sans-serif" font-size="14" lengthAdjust="spacing" textLength="126.1777" x="103.0762" y="809.612">ExecuteTransition</text><text fill="#000000" font-family="sans-serif" font-size="12" lengthAdjust="spacing" textLength="298.3301" x="12" y="834.0524">Execute transition effects and move to next state</text></g><ellipse cx="166.17" cy="53.2969" fill="#222222" rx="10" ry="10" style="stroke:#222222;stroke-width:1;"/><ellipse cx="166.17" cy="929.8869" fill="none" rx="11" ry="11" style="stroke:#222222;stroke-width:1;"/><ellipse cx="166.17" cy="929.8869" fill="#222222" rx="6" ry="6" style="stroke:#222222;stroke-width:1;"/><!--link *start* to EnterState--><g class="link" data-entity-1=".start." data-entity-2="EnterState" data-source-line="3" data-uid="lnk3" id="link_.start._EnterState"><path d="M166.17,63.6869 C166.17,80.4369 166.17,109.9569 166.17,134.0269" fill="none" id="*start*-to-EnterState" style="stroke:#181818;stroke-width:1;"/><polygon fill="#181818" points="166.17,140.0269,170.17,131.0269,166.17,135.0269,162.17,131.0269,166.17,140.0269" style="stroke:#181818;stroke-width:1;"/><text fill="#000000" font-family="sans-serif" font-size="13" lengthAdjust="spacing" textLength="100.2422" x="167.17" y="106.3638">Enter leaf state</text></g><!--link EnterState to ExecuteEnterOperation--><g class="link" data-entity-1="EnterState" data-entity-2="ExecuteEnterOperation" data-source-line="9" data-uid="lnk4" id="link_EnterState_ExecuteEnterOperation"><path d="M166.17,190.8769 C166.17,212.9469 166.17,239.2469 166.17,261.3069" fill="none" id="EnterState-to-ExecuteEnterOperation" style="stroke:#181818;stroke-width:1;"/><polygon fill="#181818" points="166.17,267.3069,170.17,258.3069,166.17,262.3069,162.17,258.3069,166.17,267.3069" style="stroke:#181818;stroke-width:1;"/><text fill="#000000" font-family="sans-serif" font-size="13" lengthAdjust="spacing" textLength="147.9385" x="167.17" y="233.6238">Step 1: Enter the state</text></g><!--link ExecuteEnterOperation to ExecuteDuringOperation--><g class="link" data-entity-1="ExecuteEnterOperation" data-entity-2="ExecuteDuringOperation" data-source-line="15" data-uid="lnk5" id="link_ExecuteEnterOperation_ExecuteDuringOperation"><path d="M166.17,318.1369 C166.17,340.2169 166.17,366.5169 166.17,388.5669" fill="none" id="ExecuteEnterOperation-to-ExecuteDuringOperation" style="stroke:#181818;stroke-width:1;"/><polygon fill="#181818" points="166.17,394.5669,170.17,385.5669,166.17,389.5669,162.17,385.5669,166.17,394.5669" style="stroke:#181818;stroke-width:1;"/><text fill="#000000" font-family="sans-serif" font-size="13" lengthAdjust="spacing" textLength="208.2603" x="167.17" y="360.8938">Step 2: Execute enter operation</text></g><!--link ExecuteDuringOperation to CheckTransitions--><g class="link" data-entity-1="ExecuteDuringOperation" data-entity-2="CheckTransitions" data-source-line="21" data-uid="lnk6" id="link_ExecuteDuringOperation_CheckTransitions"><path d="M68.78,445.4369 C55.51,452.8469 43.58,462.5069 35.17,475.0869 C17.16,502.0169 38.6634,520.2048 72.7634,534.4448" fill="none" id="ExecuteDuringOperation-to-CheckTransitions" style="stroke:#181818;stroke-width:1;"/><polygon fill="#181818" points="78.3,536.7569,71.5364,529.5977,73.6861,534.8301,68.4537,536.9799,78.3,536.7569" style="stroke:#181818;stroke-width:1;"/><text fill="#000000" font-family="sans-serif" font-size="13" lengthAdjust="spacing" textLength="215.522" x="36.17" y="495.6538">Step 3: Execute during operation</text></g><!--link CheckTransitions to ExecuteDuringOperation--><g class="link" data-entity-1="CheckTransitions" data-entity-2="ExecuteDuringOperation" data-source-line="27" data-uid="lnk7" id="link_CheckTransitions_ExecuteDuringOperation"><path d="M226.5,536.7569 C238.36,529.0769 249.25,519.3069 256.17,507.0869 C263.17,494.7069 263.17,487.4669 256.17,475.0869 C249.25,462.8669 243.3943,456.3711 231.5343,448.6811" fill="none" id="CheckTransitions-to-ExecuteDuringOperation" style="stroke:#181818;stroke-width:1;"/><polygon fill="#181818" points="226.5,445.4169,231.8753,453.6695,230.6953,448.1371,236.2277,446.957,226.5,445.4169" style="stroke:#181818;stroke-width:1;"/><text fill="#000000" font-family="sans-serif" font-size="13" lengthAdjust="spacing" textLength="206.5083" x="262.17" y="488.1538">Step 4a: No transition triggered</text><text fill="#000000" font-family="sans-serif" font-size="13" lengthAdjust="spacing" textLength="102.8765" x="313.9859" y="503.2866">(back to step 3)</text></g><!--link CheckTransitions to ExecuteExitOperation--><g class="link" data-entity-1="CheckTransitions" data-entity-2="ExecuteExitOperation" data-source-line="28" data-uid="lnk8" id="link_CheckTransitions_ExecuteExitOperation"><path d="M166.17,587.6769 C166.17,609.7469 166.17,636.0469 166.17,658.0969" fill="none" id="CheckTransitions-to-ExecuteExitOperation" style="stroke:#181818;stroke-width:1;"/><polygon fill="#181818" points="166.17,664.0969,170.17,655.0969,166.17,659.0969,162.17,655.0969,166.17,664.0969" style="stroke:#181818;stroke-width:1;"/><text fill="#000000" font-family="sans-serif" font-size="13" lengthAdjust="spacing" textLength="187.8271" x="167.17" y="630.4238">Step 4b: Transition triggered</text></g><!--link ExecuteExitOperation to ExecuteTransition--><g class="link" data-entity-1="ExecuteExitOperation" data-entity-2="ExecuteTransition" data-source-line="34" data-uid="lnk9" id="link_ExecuteExitOperation_ExecuteTransition"><path d="M166.17,714.9369 C166.17,737.0069 166.17,763.3169 166.17,785.3669" fill="none" id="ExecuteExitOperation-to-ExecuteTransition" style="stroke:#181818;stroke-width:1;"/><polygon fill="#181818" points="166.17,791.3669,170.17,782.3669,166.17,786.3669,162.17,782.3669,166.17,791.3669" style="stroke:#181818;stroke-width:1;"/><text fill="#000000" font-family="sans-serif" font-size="13" lengthAdjust="spacing" textLength="197.9834" x="167.17" y="757.6838">Step 5: Execute exit operation</text></g><!--link ExecuteTransition to *end*--><g class="link" data-entity-1="ExecuteTransition" data-entity-2=".end." data-source-line="40" data-uid="lnk11" id="link_ExecuteTransition_.end."><path d="M166.17,842.1469 C166.17,866.0369 166.17,895.3069 166.17,912.5869" fill="none" id="ExecuteTransition-to-*end*" style="stroke:#181818;stroke-width:1;"/><polygon fill="#181818" points="166.17,918.5869,170.17,909.5869,166.17,913.5869,162.17,909.5869,166.17,918.5869" style="stroke:#181818;stroke-width:1;"/><text fill="#000000" font-family="sans-serif" font-size="13" lengthAdjust="spacing" textLength="202.6997" x="167.17" y="884.9538">Step 6: Transition to next state</text></g><!--SRC=[XPGzKyCm38Pt_mfjVDnru7F8m0BTE1ZQ3HZSH4bz5BldABtqEFuxjfjGEKxer5JL- -YfeuGKRH2UKPQm84dkKfMOx_CD2l5s-G6psGFCDQ4z_9eTli361sfV4Y9yyAPl0Kd6xc5hb2OeJPJ-4OArXcajvWrXgBvkqKfIHZl8Wd0BLxq0hN4mVpGML2Q0NHtonbfqPe5pLWE60QRl38gZ26Rxr5YbgqJt-ZXbI8srXtdcdQAdn8lGEMe-X7ZrnpNcdqihTQryhUwbRuuJ4c9ddKIzxmWlb83-Qe0x9ro3r0LKZRH5xHsJuEc3lPKPl1XE9gkg2YqMx_fy9VrKumx6_vsBVmVCMqKfVfN1SeGzNBOeotTj09rSDTStlcaHWEaogyxrZkrOZ8jbMPAPHhoUmszOwLu7tHtxCZlqnwgn9VRu9Y2lwzyTdU1zV9Oy_mi0]--></g></svg>