<svg xmlns="http://www.w3.org/2000/svg" xmlns:xlink="http://www.w3.org/1999/xlink" version="1.1" data-diagram-type="STATE" style="width:342px;height:475px;background:#FFFFFF;" width="342px" height="475px" viewBox="0 0 342 475" zoomAndPan="magnify" preserveAspectRatio="none" contentStyleType="text/css"><?plantuml 1.2026.7beta6?><defs/><g font-family="sans-serif" lengthAdjust="spacing"><g class="legend" data-source-line="10"><rect x="12" y="12" width="311.574" height="46.594" fill="#DDD" style="stroke:#000;stroke-width:1;" rx="7.5" ry="7.5"/><text x="21.874" y="31.995" fill="#000" font-size="14" textLength="65.748" font-weight="700">Variable</text><text x="97.37" y="31.995" fill="#000" font-size="14" textLength="38.192" font-weight="700">Type</text><text x="145.311" y="31.995" fill="#000" font-size="14" textLength="95.129" font-weight="700">Initial Value</text><text x="21.45" y="48.292" fill="#000" font-size="14" textLength="51.283">too_big</text><text x="96.946" y="48.292" fill="#000" font-size="14" textLength="18.252">int</text><text x="144.887" y="48.292" fill="#000" font-size="14" textLength="169.237">9223372036854775808</text><line x1="17" y1="19" x2="318.574" y2="19" style="stroke:#000;stroke-width:1;"/><line x1="17" y1="35.297" x2="318.574" y2="35.297" style="stroke:#000;stroke-width:1;"/><line x1="17" y1="51.594" x2="318.574" y2="51.594" style="stroke:#000;stroke-width:1;"/><line x1="17" y1="19" x2="17" y2="51.594" style="stroke:#000;stroke-width:1;"/><line x1="92.496" y1="19" x2="92.496" y2="51.594" style="stroke:#000;stroke-width:1;"/><line x1="140.437" y1="19" x2="140.437" y2="51.594" style="stroke:#000;stroke-width:1;"/><line x1="318.574" y1="19" x2="318.574" y2="51.594" style="stroke:#000;stroke-width:1;"/></g><g class="entity" data-qualified-name="numeric_target_range" id="ent0001" data-source-line="15"><path d="M95.04,157.594 L239.535,157.594 A12.5,12.5 0 0 1 252.035,170.094 L252.035,183.891 L82.54,183.891 L82.54,170.094 A12.5,12.5 0 0 1 95.04,157.594" fill="#ADD8E6"/><path d="M82.54,183.891 L252.035,183.891 L252.035,367.391 A12.5,12.5 0 0 1 239.535,379.891 L95.04,379.891 A12.5,12.5 0 0 1 82.54,367.391 L82.54,183.891" fill="#ADD8E6"/><rect x="82.54" y="157.594" width="169.495" height="222.297" fill="none" style="stroke:#181818;stroke-width:0.5;" rx="12.5" ry="12.5"/><line x1="82.54" y1="183.891" x2="252.035" y2="183.891" style="stroke:#181818;stroke-width:0.5;"/><text x="92.54" y="175.589" fill="#000" font-size="14" textLength="149.495">NumericTargetRange</text><rect x="94.54" y="251.891" width="50" height="40" fill="#F1F1F1" style="stroke:#181818;stroke-width:0.5;" rx="12.5" ry="12.5"/><text x="106.78" y="276.737" fill="#000" font-size="14" textLength="25.519">Idle</text><g class="start_entity" data-qualified-name="numeric_target_range..start.numeric_target_range" id="ent0003" data-source-line="17"><ellipse cx="119.54" cy="204.891" rx="10" ry="10" fill="#222" style="stroke:#222;stroke-width:1;"/></g><g class="end_entity" data-qualified-name="numeric_target_range..end.numeric_target_range" id="ent0005" data-source-line="18"><ellipse cx="119.54" cy="355.891" rx="11" ry="11" fill="none" style="stroke:#222;stroke-width:1;"/><ellipse cx="119.54" cy="355.891" rx="6" ry="6" fill="#222" style="stroke:#222;stroke-width:1;"/></g><!--link *start*numeric_target_range to numeric_target_range__idle--><g class="link" data-entity-1="ent0003" data-entity-2="ent0002" id="lnk4" data-source-line="17" data-link-type="dependency"><path d="M119.54,215.201 C119.54,224.611 119.54,234.431 119.54,246.411" style="stroke:#181818;stroke-width:1;" fill="none" id="*start*numeric_target_range-to-numeric_target_range__idle"/><polygon points="119.54,251.411,123.54,242.411,119.54,246.411,115.54,242.411,119.54,251.411" fill="#181818" style="stroke:#181818;stroke-width:1;stroke-linejoin:miter;stroke-miterlimit:10;"/></g><!--link numeric_target_range__idle to *end*numeric_target_range--><g class="link" data-entity-1="ent0002" data-entity-2="ent0005" id="lnk6" data-source-line="18" data-link-type="dependency"><path d="M119.54,292.321 C119.54,308.801 119.54,326.791 119.54,339.821" style="stroke:#181818;stroke-width:1;" fill="none" id="numeric_target_range__idle-to-*end*numeric_target_range"/><polygon points="119.54,344.821,123.54,335.821,119.54,339.821,115.54,335.821,119.54,344.821" fill="#181818" style="stroke:#181818;stroke-width:1;stroke-linejoin:miter;stroke-miterlimit:10;"/><text x="120.54" y="322.958" fill="#000" font-size="13" textLength="75.048">too_big > 0</text></g></g><g class="start_entity" data-qualified-name=".start." id="ent0007" data-source-line="20"><ellipse cx="167.29" cy="87.594" rx="10" ry="10" fill="#222" style="stroke:#222;stroke-width:1;"/></g><g class="end_entity" data-qualified-name=".end." id="ent0009" data-source-line="21"><ellipse cx="167.29" cy="450.894" rx="11" ry="11" fill="none" style="stroke:#222;stroke-width:1;"/><ellipse cx="167.29" cy="450.894" rx="6" ry="6" fill="#222" style="stroke:#222;stroke-width:1;"/></g><!--link *start* to numeric_target_range--><g class="link" data-entity-1="ent0007" data-entity-2="ent0001" id="lnk8" data-source-line="20" data-link-type="dependency"><path d="M167.29,97.724 C167.29,109.774 167.29,127.394 167.29,152.294" style="stroke:#181818;stroke-width:1;" fill="none" id="*start*-to-numeric_target_range"/><polygon points="167.29,157.294,171.29,148.294,167.29,152.294,163.29,148.294,167.29,157.294" fill="#181818" style="stroke:#181818;stroke-width:1;stroke-linejoin:miter;stroke-miterlimit:10;"/></g><!--link numeric_target_range to *end*--><g class="link" data-entity-1="ent0001" data-entity-2="ent0009" id="lnk10" data-source-line="21" data-link-type="dependency"><path d="M167.29,380.244 C167.29,404.714 167.29,422.064 167.29,434.534" style="stroke:#181818;stroke-width:1;" fill="none" id="numeric_target_range-to-*end*"/><polygon points="167.29,439.534,171.29,430.534,167.29,434.534,163.29,430.534,167.29,439.534" fill="#181818" style="stroke:#181818;stroke-width:1;stroke-linejoin:miter;stroke-miterlimit:10;"/></g><?plantuml-src XP11IyD048Nl-ok678L2IAo9KdEee1J4WnOl8c6RZEdGpUwocHo2yR-xIQDOQVMok-nxymtlRQb4mDfo1oKsXIFBPBGGpOwqbKxMqB1aX7S1i9J5hdAcrUMDKSOj5hR1jZHP1lTKRVdEoUwOgp2rDGqnVXcNgiN1Q5o9xZTgejmQpK_SAVmX4Kj5XVWGGc65kWGs5XI-iUYluLawaXk5uD_hpextIXEJL5xp6w4NlPym-OOgw84q-_CoYk8uYSBu8fsV9yay3LFly-pz1j_3c3vuQ6jqLAobgv0VfQum0Dc0td_dFFxdRX3WCF5G74mb1YlFFJcOv-JbqVvozWgpMVQVxRGyJW-Kg-_86OI-kh_8ucYSYVG9?></g></svg>