<?xml version="1.0" encoding="us-ascii" standalone="no"?><svg xmlns="http://www.w3.org/2000/svg" xmlns:xlink="http://www.w3.org/1999/xlink" contentStyleType="text/css" height="891px" preserveAspectRatio="none" style="width:743px;height:891px;background:#FFFFFF;" version="1.1" viewBox="0 0 743 891" width="743px" zoomAndPan="magnify"><defs/><g><rect fill="#DDDDDD" height="111.7813" id="_legend" rx="7.5" ry="7.5" style="stroke:#000000;stroke-width:1.0;" width="251" x="12" y="12"/><text fill="#000000" font-family="sans-serif" font-size="14" font-weight="bold" lengthAdjust="spacing" textLength="64" x="22" y="31.9951">Variable</text><text fill="#000000" font-family="sans-serif" font-size="14" font-weight="bold" lengthAdjust="spacing" textLength="39" x="114" y="31.9951">Type</text><text fill="#000000" font-family="sans-serif" font-size="14" font-weight="bold" lengthAdjust="spacing" textLength="90" x="163" y="31.9951">Initial Value</text><text fill="#000000" font-family="sans-serif" font-size="14" lengthAdjust="spacing" textLength="48" x="21" y="48.292">sensor</text><text fill="#000000" font-family="sans-serif" font-size="14" lengthAdjust="spacing" textLength="17" x="113" y="48.292">int</text><text fill="#000000" font-family="sans-serif" font-size="14" lengthAdjust="spacing" textLength="9" x="162" y="48.292">0</text><text fill="#000000" font-family="sans-serif" font-size="14" lengthAdjust="spacing" textLength="41" x="21" y="64.5889">target</text><text fill="#000000" font-family="sans-serif" font-size="14" lengthAdjust="spacing" textLength="17" x="113" y="64.5889">int</text><text fill="#000000" font-family="sans-serif" font-size="14" lengthAdjust="spacing" textLength="18" x="162" y="64.5889">10</text><text fill="#000000" font-family="sans-serif" font-size="14" lengthAdjust="spacing" textLength="40" x="21" y="80.8857">mode</text><text fill="#000000" font-family="sans-serif" font-size="14" lengthAdjust="spacing" textLength="17" x="113" y="80.8857">int</text><text fill="#000000" font-family="sans-serif" font-size="14" lengthAdjust="spacing" textLength="9" x="162" y="80.8857">0</text><text fill="#000000" font-family="sans-serif" font-size="14" lengthAdjust="spacing" textLength="84" x="21" y="97.1826">alarm_count</text><text fill="#000000" font-family="sans-serif" font-size="14" lengthAdjust="spacing" textLength="17" x="113" y="97.1826">int</text><text fill="#000000" font-family="sans-serif" font-size="14" lengthAdjust="spacing" textLength="9" x="162" y="97.1826">0</text><text fill="#000000" font-family="sans-serif" font-size="14" lengthAdjust="spacing" textLength="21" x="21" y="113.4795">led</text><text fill="#000000" font-family="sans-serif" font-size="14" lengthAdjust="spacing" textLength="17" x="113" y="113.4795">int</text><text fill="#000000" font-family="sans-serif" font-size="14" lengthAdjust="spacing" textLength="9" x="162" y="113.4795">0</text><line style="stroke:#000000;stroke-width:1.0;" x1="17" x2="258" y1="19" y2="19"/><line style="stroke:#000000;stroke-width:1.0;" x1="17" x2="258" y1="35.2969" y2="35.2969"/><line style="stroke:#000000;stroke-width:1.0;" x1="17" x2="258" y1="51.5938" y2="51.5938"/><line style="stroke:#000000;stroke-width:1.0;" x1="17" x2="258" y1="67.8906" y2="67.8906"/><line style="stroke:#000000;stroke-width:1.0;" x1="17" x2="258" y1="84.1875" y2="84.1875"/><line style="stroke:#000000;stroke-width:1.0;" x1="17" x2="258" y1="100.4844" y2="100.4844"/><line style="stroke:#000000;stroke-width:1.0;" x1="17" x2="258" y1="116.7813" y2="116.7813"/><line style="stroke:#000000;stroke-width:1.0;" x1="17" x2="17" y1="19" y2="116.7813"/><line style="stroke:#000000;stroke-width:1.0;" x1="109" x2="109" y1="19" y2="116.7813"/><line style="stroke:#000000;stroke-width:1.0;" x1="158" x2="158" y1="19" y2="116.7813"/><line style="stroke:#000000;stroke-width:1.0;" x1="258" x2="258" y1="19" y2="116.7813"/><path d="M19.5,222.7813 L717.65,222.7813 A12.5,12.5 0 0 1 730.15,235.2813 L730.15,249.0781 L7,249.0781 L7,235.2813 A12.5,12.5 0 0 1 19.5,222.7813 " fill="#ADD8E6" style="stroke:#ADD8E6;stroke-width:1.0;"/><rect fill="none" height="583.2969" rx="12.5" ry="12.5" style="stroke:#181818;stroke-width:0.5;" width="723.15" x="7" y="222.7813"/><line style="stroke:#181818;stroke-width:0.5;" x1="7" x2="730.15" y1="249.0781" y2="249.0781"/><text fill="#000000" font-family="sans-serif" font-size="14" lengthAdjust="spacing" textLength="181" x="278.075" y="240.7764">OperationBlocksComplete</text><rect fill="#F1F1F1" height="40" rx="12.5" ry="12.5" style="stroke:#181818;stroke-width:0.5;" width="73" x="277.15" y="317.0781"/><text fill="#000000" font-family="sans-serif" font-size="14" lengthAdjust="spacing" textLength="63" x="282.15" y="341.9248">Sampling</text><rect fill="#F1F1F1" height="40" rx="12.5" ry="12.5" style="stroke:#181818;stroke-width:0.5;" width="50" x="49.65" y="505.0781"/><text fill="#000000" font-family="sans-serif" font-size="14" lengthAdjust="spacing" textLength="38" x="55.65" y="529.9248">Done</text><rect fill="#F1F1F1" height="40" rx="12.5" ry="12.5" style="stroke:#181818;stroke-width:0.5;" width="62" x="343.65" y="663.0781"/><text fill="#000000" font-family="sans-serif" font-size="14" lengthAdjust="spacing" textLength="52" x="348.65" y="687.9248">Cooling</text><rect fill="#F1F1F1" height="40" rx="12.5" ry="12.5" style="stroke:#181818;stroke-width:0.5;" width="77" x="450.15" y="756.0781"/><text fill="#000000" font-family="sans-serif" font-size="14" lengthAdjust="spacing" textLength="67" x="455.15" y="780.9248">Resetting</text><ellipse cx="313.65" cy="270.0781" fill="#181818" rx="10" ry="10" style="stroke:none;stroke-width:1.0;"/><!--link *start*operation_blocks_complete to operation_blocks_complete__sampling--><g id="link_*start*operation_blocks_complete_operation_blocks_complete__sampling"><path d="M313.65,280.3881 C313.65,288.3281 313.65,300.1181 313.65,310.8081 " fill="none" id="*start*operation_blocks_complete-to-operation_blocks_complete__sampling" style="stroke:#181818;stroke-width:1.0;"/><polygon fill="#181818" points="313.65,315.5981,317.65,306.5981,313.65,310.5981,309.65,306.5981,313.65,315.5981" style="stroke:#181818;stroke-width:1.0;"/></g><!--link operation_blocks_complete__sampling to operation_blocks_complete__done--><g id="link_operation_blocks_complete__sampling_operation_blocks_complete__done"><path d="M276.73,337.5981 C211.38,337.6181 79.5,341.8881 50.65,375.0781 C18,412.6481 36.53,439.3481 50.65,487.0781 C51.94,491.4181 53.91,495.7181 56.18,499.7781 " fill="none" id="operation_blocks_complete__sampling-to-operation_blocks_complete__done" style="stroke:#181818;stroke-width:1.0;"/><polygon fill="#181818" points="59.18,503.7681,57.9556,493.9957,56.597,499.487,51.1057,498.1284,59.18,503.7681" style="stroke:#181818;stroke-width:1.0;"/><text fill="#000000" font-family="sans-serif" font-size="13" lengthAdjust="spacing" textLength="112" x="251.65" y="388.145">sensor &gt;= target</text><path d="M55.65,397.2109 L55.65,482.2109 L559.65,482.2109 L559.65,407.2109 L549.65,397.2109 L55.65,397.2109 " fill="#FEFFDD" style="stroke:#181818;stroke-width:0.5;"/><path d="M549.65,397.2109 L549.65,407.2109 L559.65,407.2109 L549.65,397.2109 " fill="#FEFFDD" style="stroke:#181818;stroke-width:0.5;"/><text fill="#000000" font-family="sans-serif" font-size="13" lengthAdjust="spacing" textLength="48" x="61.65" y="414.2778">effect {</text><text fill="#000000" font-family="sans-serif" font-size="13" lengthAdjust="spacing" textLength="175" x="77.65" y="429.4106">next_sample = sensor + 1;</text><text fill="#000000" font-family="sans-serif" font-size="13" lengthAdjust="spacing" textLength="467" x="77.65" y="444.5435">alarm_count = (next_sample &gt; target) ? alarm_count + 1 : alarm_count;</text><text fill="#000000" font-family="sans-serif" font-size="13" lengthAdjust="spacing" textLength="159" x="77.65" y="459.6763">led = (mode &gt; 0) ? 1 : 0;</text><text fill="#000000" font-family="sans-serif" font-size="13" lengthAdjust="spacing" textLength="8" x="61.65" y="474.8091">}</text></g><!--link operation_blocks_complete__done to operation_blocks_complete__cooling--><g id="link_operation_blocks_complete__done_operation_blocks_complete__cooling"><path d="M99.97,539.2481 C153.15,566.8981 276.6,631.0881 338.26,663.1481 " fill="none" id="operation_blocks_complete__done-to-operation_blocks_complete__cooling" style="stroke:#181818;stroke-width:1.0;"/><polygon fill="#181818" points="342.31,665.7781,336.1759,658.0727,337.8756,663.4682,332.4801,665.1679,342.31,665.7781" style="stroke:#181818;stroke-width:1.0;"/><text fill="#000000" font-family="sans-serif" font-size="13" lengthAdjust="spacing" textLength="57" x="303.65" y="608.645">led &gt;= 0</text></g><!--link operation_blocks_complete__cooling to operation_blocks_complete__resetting--><g id="link_operation_blocks_complete__cooling_operation_blocks_complete__resetting"><path d="M398.83,703.3781 C416.67,717.6181 441,737.0381 459.85,752.0881 " fill="none" id="operation_blocks_complete__cooling-to-operation_blocks_complete__resetting" style="stroke:#181818;stroke-width:1.0;"/><polygon fill="#181818" points="463.51,755.8081,458.9771,747.0644,459.6043,752.6864,453.9823,753.3136,463.51,755.8081" style="stroke:#181818;stroke-width:1.0;"/><text fill="#000000" font-family="sans-serif" font-size="13" lengthAdjust="spacing" textLength="112" x="442.65" y="734.145">sensor &lt;= target</text></g><!--link operation_blocks_complete__resetting to operation_blocks_complete__sampling--><g id="link_operation_blocks_complete__resetting_operation_blocks_complete__sampling"><path d="M527.46,763.7681 C539.89,758.1181 552.33,749.8881 559.65,738.0781 C628.79,626.6181 598.91,414.7581 564.65,375.0781 C538.25,344.4981 420.78,338.7481 356.33,337.9381 " fill="none" id="operation_blocks_complete__resetting-to-operation_blocks_complete__sampling" style="stroke:#181818;stroke-width:1.0;"/><polygon fill="#181818" points="351.64,337.8781,360.6053,341.9553,356.6398,337.9211,360.6741,333.9556,351.64,337.8781" style="stroke:#181818;stroke-width:1.0;"/><text fill="#000000" font-family="sans-serif" font-size="13" lengthAdjust="spacing" textLength="118" x="602.15" y="576.145">alarm_count == 0</text><path d="M605.65,585.2109 L605.65,640.2109 L716.65,640.2109 L716.65,595.2109 L706.65,585.2109 L605.65,585.2109 " fill="#FEFFDD" style="stroke:#181818;stroke-width:0.5;"/><path d="M706.65,585.2109 L706.65,595.2109 L716.65,595.2109 L706.65,585.2109 " fill="#FEFFDD" style="stroke:#181818;stroke-width:0.5;"/><text fill="#000000" font-family="sans-serif" font-size="13" lengthAdjust="spacing" textLength="48" x="611.65" y="602.2778">effect {</text><text fill="#000000" font-family="sans-serif" font-size="13" lengthAdjust="spacing" textLength="74" x="627.65" y="617.4106">sensor = 0;</text><text fill="#000000" font-family="sans-serif" font-size="13" lengthAdjust="spacing" textLength="8" x="611.65" y="632.5435">}</text></g><ellipse cx="368.5" cy="152.7813" fill="#181818" rx="10" ry="10" style="stroke:none;stroke-width:1.0;"/><ellipse cx="368.5" cy="875.7813" fill="none" rx="10" ry="10" style="stroke:#181818;stroke-width:1.0;"/><ellipse cx="369" cy="876.2813" fill="#181818" rx="6" ry="6" style="stroke:none;stroke-width:1.0;"/><!--link *start* to operation_blocks_complete--><g id="link_*start*_operation_blocks_complete"><path d="M368.5,163.0313 C368.5,173.6113 368.5,192.6013 368.5,216.4612 " fill="none" id="*start*-to-operation_blocks_complete" style="stroke:#181818;stroke-width:1.0;"/><polygon fill="#181818" points="368.5,221.2913,372.5,212.2913,368.5,216.2913,364.5,212.2913,368.5,221.2913" style="stroke:#181818;stroke-width:1.0;"/></g><!--link operation_blocks_complete to *end*--><g id="link_operation_blocks_complete_*end*"><path d="M368.5,805.8913 C368.5,828.6113 368.5,847.4513 368.5,859.6513 " fill="none" id="operation_blocks_complete-to-*end*" style="stroke:#181818;stroke-width:1.0;"/><polygon fill="#181818" points="368.5,864.4113,372.5,855.4113,368.5,859.4113,364.5,855.4113,368.5,864.4113" style="stroke:#181818;stroke-width:1.0;"/></g><!--SRC=[ZLDDYzj03BtFhn0vzOE5xBMDlP2KbaAXq2szb69cRSKxP3moCmeqDFdlrOpjhBrqQrzi8xtt93t9ZwP2mARb4rGOIczQDkIK2WVZMkrr0u4r8_nH05jT7cfFHrVjo9BVRDg0nuho7BwO-f4_UNtw5wgafgLW60VWrXun0ibNw9zBzIeVoV4zdooEKeQrDQMwA6MnHbS1KmiMzwpE6VpGtkW7Yo3VtqzjUdzsXessafEAS5Pd2EW2UJY3SIpFTGgozZNoDNZRHHiIPwP0RRLlYb9cusSPYzKa8jrrFOgJoR_LrnQzZjvkBPM7i1DJB3AkG0UW8LSyf6HHzbcOkXUN0Fr2LlTQCCRL_rSeYj3ZnjmFv72ELmbcpDaHBIbNTh0nyni6P5x0zGCmiN- - -GKtD_dYsHRWvlJYpF1kk98ywqyZoJkIMSY1w1nI0FTxBBbVIaBWR-vA8MI3o5kuVNz5Z0yeWrTZGjxNUWrt4vZmfQDHv4aj7fsef4FDOHsP4Rlk49UkIVbDOkTp3gN9PzpfLoibOcLnPpsdEZ1cXAzxV_9-C_5-4NVXhKpTX6mOOtw_VMlP2mvVrEp5gfV_zCWJ_by0]--></g></svg>