<svg xmlns="http://www.w3.org/2000/svg" xmlns:xlink="http://www.w3.org/1999/xlink" version="1.1" data-diagram-type="STATE" style="width:766px;height:905px;background:#FFFFFF;" width="766px" height="905px" viewBox="0 0 766 905" zoomAndPan="magnify" preserveAspectRatio="none" contentStyleType="text/css"><?plantuml 1.2026.7beta6?><defs/><g font-family="sans-serif" lengthAdjust="spacing"><g class="legend" data-source-line="10"><rect x="12" y="12" width="258.657" height="111.781" fill="#DDD" style="stroke:#000;stroke-width:1;" rx="7.5" ry="7.5"/><text x="21.874" y="31.995" fill="#000" font-size="14" textLength="65.748" font-weight="700">Variable</text><text x="117.714" y="31.995" fill="#000" font-size="14" textLength="38.192" font-weight="700">Type</text><text x="165.654" y="31.995" fill="#000" font-size="14" textLength="95.129" font-weight="700">Initial Value</text><text x="21.45" y="48.292" fill="#000" font-size="14" textLength="46.396">sensor</text><text x="117.29" y="48.292" fill="#000" font-size="14" textLength="18.252">int</text><text x="165.23" y="48.292" fill="#000" font-size="14">0</text><text x="21.45" y="64.589" fill="#000" font-size="14" textLength="42.813">target</text><text x="117.29" y="64.589" fill="#000" font-size="14" textLength="18.252">int</text><text x="165.23" y="64.589" fill="#000" font-size="14" textLength="17.814">10</text><text x="21.45" y="80.886" fill="#000" font-size="14" textLength="39.703">mode</text><text x="117.29" y="80.886" fill="#000" font-size="14" textLength="18.252">int</text><text x="165.23" y="80.886" fill="#000" font-size="14">0</text><text x="21.45" y="97.183" fill="#000" font-size="14" textLength="86.939">alarm_count</text><text x="117.29" y="97.183" fill="#000" font-size="14" textLength="18.252">int</text><text x="165.23" y="97.183" fill="#000" font-size="14">0</text><text x="21.45" y="113.479" fill="#000" font-size="14" textLength="21.39">led</text><text x="117.29" y="113.479" fill="#000" font-size="14" textLength="18.252">int</text><text x="165.23" y="113.479" fill="#000" font-size="14">0</text><line x1="17" y1="19" x2="265.657" y2="19" style="stroke:#000;stroke-width:1;"/><line x1="17" y1="35.297" x2="265.657" y2="35.297" style="stroke:#000;stroke-width:1;"/><line x1="17" y1="51.594" x2="265.657" y2="51.594" style="stroke:#000;stroke-width:1;"/><line x1="17" y1="67.891" x2="265.657" y2="67.891" style="stroke:#000;stroke-width:1;"/><line x1="17" y1="84.188" x2="265.657" y2="84.188" style="stroke:#000;stroke-width:1;"/><line x1="17" y1="100.484" x2="265.657" y2="100.484" style="stroke:#000;stroke-width:1;"/><line x1="17" y1="116.781" x2="265.657" y2="116.781" style="stroke:#000;stroke-width:1;"/><line x1="17" y1="19" x2="17" y2="116.781" style="stroke:#000;stroke-width:1;"/><line x1="112.84" y1="19" x2="112.84" y2="116.781" style="stroke:#000;stroke-width:1;"/><line x1="160.78" y1="19" x2="160.78" y2="116.781" style="stroke:#000;stroke-width:1;"/><line x1="265.657" y1="19" x2="265.657" y2="116.781" style="stroke:#000;stroke-width:1;"/></g><g class="entity" data-qualified-name="operation_blocks_complete" id="ent0001" data-source-line="19"><path d="M19.5,222.781 L738.915,222.781 A12.5,12.5 0 0 1 751.415,235.281 L751.415,249.078 L7,249.078 L7,235.281 A12.5,12.5 0 0 1 19.5,222.781" fill="#ADD8E6"/><path d="M7,249.078 L751.415,249.078 L751.415,796.578 A12.5,12.5 0 0 1 738.915,809.078 L19.5,809.078 A12.5,12.5 0 0 1 7,796.578 L7,249.078" fill="#ADD8E6"/><rect x="7" y="222.781" width="744.415" height="586.297" fill="none" style="stroke:#181818;stroke-width:0.5;" rx="12.5" ry="12.5"/><line x1="7" y1="249.078" x2="751.415" y2="249.078" style="stroke:#181818;stroke-width:0.5;"/><text x="288.057" y="240.776" fill="#000" font-size="14" textLength="182.301">OperationBlocksComplete</text><rect x="278.92" y="317.078" width="75.529" height="40" fill="#F1F1F1" style="stroke:#181818;stroke-width:0.5;" rx="12.5" ry="12.5"/><text x="283.92" y="341.925" fill="#000" font-size="14" textLength="65.529">Sampling</text><rect x="50.68" y="505.078" width="50" height="40" fill="#F1F1F1" style="stroke:#181818;stroke-width:0.5;" rx="12.5" ry="12.5"/><text x="57.264" y="529.925" fill="#000" font-size="14" textLength="36.832">Done</text><rect x="348.46" y="663.078" width="62.445" height="40" fill="#F1F1F1" style="stroke:#181818;stroke-width:0.5;" rx="12.5" ry="12.5"/><text x="353.46" y="687.925" fill="#000" font-size="14" textLength="52.445">Cooling</text><rect x="456.25" y="756.078" width="76.876" height="40" fill="#F1F1F1" style="stroke:#181818;stroke-width:0.5;" rx="12.5" ry="12.5"/><text x="461.25" y="780.925" fill="#000" font-size="14" textLength="66.876">Resetting</text><g class="start_entity" data-qualified-name="operation_blocks_complete..start.operation_blocks_complete" id="ent0006" data-source-line="24"><ellipse cx="316.68" cy="270.078" rx="10" ry="10" fill="#222" style="stroke:#222;stroke-width:1;"/></g><!--link *start*operation_blocks_complete to operation_blocks_complete__sampling--><g class="link" data-entity-1="ent0006" data-entity-2="ent0002" id="lnk7" data-source-line="24" data-link-type="dependency"><path d="M316.68,280.388 C316.68,289.798 316.68,299.618 316.68,311.598" style="stroke:#181818;stroke-width:1;" fill="none" id="*start*operation_blocks_complete-to-operation_blocks_complete__sampling"/><polygon points="316.68,316.598,320.68,307.598,316.68,311.598,312.68,307.598,316.68,316.598" fill="#181818" style="stroke:#181818;stroke-width:1;stroke-linejoin:miter;stroke-miterlimit:10;"/></g><!--link operation_blocks_complete__sampling to operation_blocks_complete__done--><g class="link" data-entity-1="ent0002" data-entity-2="ent0003" id="lnk8" data-source-line="25" data-link-type="dependency"><path d="M278.56,337.528 C212.2,337.468 79.77,341.668 50.68,375.078 C18,412.618 36.11,439.478 50.68,487.078 C52.59,493.308 53.158,495.274 56.788,500.694" style="stroke:#181818;stroke-width:1;" fill="none" id="operation_blocks_complete__sampling-to-operation_blocks_complete__done"/><polygon points="59.57,504.848,57.885,495.144,56.788,500.694,51.238,499.596,59.57,504.848" fill="#181818" style="stroke:#181818;stroke-width:1;stroke-linejoin:miter;stroke-miterlimit:10;"/><text x="254.407" y="388.145" fill="#000" font-size="13" textLength="112.887">sensor >= target</text><path d="M55.68,397.211 L55.68,482.211 L565.68,482.211 L565.68,407.211 L555.68,397.211 L55.68,397.211" style="stroke:#181818;stroke-width:0.5;" fill="#FEFFDD"/><path d="M555.68,397.211 L555.68,407.211 L565.68,407.211 L555.68,397.211" style="stroke:#181818;stroke-width:0.5;" fill="#FEFFDD"/><text x="61.68" y="414.278" fill="#000" font-size="13" textLength="49.797">effect {</text><text x="78.209" y="429.411" fill="#000" font-size="13" textLength="176.839">next_sample = sensor + 1;</text><text x="78.209" y="444.543" fill="#000" font-size="13" textLength="472.812">alarm_count = (next_sample > target) ? alarm_count + 1 : alarm_count;</text><text x="78.209" y="459.676" fill="#000" font-size="13" textLength="162.189">led = (mode > 0) ? 1 : 0;</text><text x="61.68" y="474.809" fill="#000" font-size="13">}</text></g><!--link operation_blocks_complete__done to operation_blocks_complete__cooling--><g class="link" data-entity-1="ent0003" data-entity-2="ent0004" id="lnk9" data-source-line="33" data-link-type="dependency"><path d="M101.08,539.108 C156.45,567.518 283.451,632.696 343.871,663.696" style="stroke:#181818;stroke-width:1;" fill="none" id="operation_blocks_complete__done-to-operation_blocks_complete__cooling"/><polygon points="348.32,665.978,342.138,658.311,343.871,663.696,338.486,665.429,348.32,665.978" fill="#181818" style="stroke:#181818;stroke-width:1;stroke-linejoin:miter;stroke-miterlimit:10;"/><text x="307.68" y="608.645" fill="#000" font-size="13" textLength="58.183">led >= 0</text></g><!--link operation_blocks_complete__cooling to operation_blocks_complete__resetting--><g class="link" data-entity-1="ent0004" data-entity-2="ent0005" id="lnk10" data-source-line="34" data-link-type="dependency"><path d="M404.07,703.378 C423.59,718.818 446.899,737.265 466.409,752.705" style="stroke:#181818;stroke-width:1;" fill="none" id="operation_blocks_complete__cooling-to-operation_blocks_complete__resetting"/><polygon points="470.33,755.808,465.755,747.086,466.409,752.705,460.79,753.36,470.33,755.808" fill="#181818" style="stroke:#181818;stroke-width:1;stroke-linejoin:miter;stroke-miterlimit:10;"/><text x="447.68" y="734.145" fill="#000" font-size="13" textLength="112.887">sensor &lt;= target</text></g><!--link operation_blocks_complete__resetting to operation_blocks_complete__sampling--><g class="link" data-entity-1="ent0005" data-entity-2="ent0002" id="lnk11" data-source-line="35" data-link-type="dependency"><path d="M533.29,763.458 C545.43,757.808 557.52,749.648 564.68,738.078 C633.18,627.418 605.34,415.148 570.68,375.078 C543.25,343.348 423.81,338.314 359.87,337.854" style="stroke:#181818;stroke-width:1;" fill="none" id="operation_blocks_complete__resetting-to-operation_blocks_complete__sampling"/><polygon points="354.87,337.818,363.841,341.883,359.87,337.854,363.899,333.883,354.87,337.818" fill="#181818" style="stroke:#181818;stroke-width:1;stroke-linejoin:miter;stroke-miterlimit:10;"/><text x="607.364" y="576.145" fill="#000" font-size="13" textLength="119.05">alarm_count == 0</text><path d="M610.68,585.211 L610.68,640.211 L722.68,640.211 L722.68,595.211 L712.68,585.211 L610.68,585.211" style="stroke:#181818;stroke-width:0.5;" fill="#FEFFDD"/><path d="M712.68,585.211 L712.68,595.211 L722.68,595.211 L712.68,585.211" style="stroke:#181818;stroke-width:0.5;" fill="#FEFFDD"/><text x="616.68" y="602.278" fill="#000" font-size="13" textLength="49.797">effect {</text><text x="633.209" y="617.411" fill="#000" font-size="13" textLength="74.89">sensor = 0;</text><text x="616.68" y="632.543" fill="#000" font-size="13">}</text></g></g><g class="start_entity" data-qualified-name=".start." id="ent0012" data-source-line="42"><ellipse cx="379.21" cy="152.781" rx="10" ry="10" fill="#222" style="stroke:#222;stroke-width:1;"/></g><g class="end_entity" data-qualified-name=".end." id="ent0014" data-source-line="43"><ellipse cx="379.21" cy="880.081" rx="11" ry="11" fill="none" style="stroke:#222;stroke-width:1;"/><ellipse cx="379.21" cy="880.081" rx="6" ry="6" fill="#222" style="stroke:#222;stroke-width:1;"/></g><!--link *start* to operation_blocks_complete--><g class="link" data-entity-1="ent0012" data-entity-2="ent0001" id="lnk13" data-source-line="42" data-link-type="dependency"><path d="M379.21,163.071 C379.21,174.561 379.21,190.891 379.21,217.601" style="stroke:#181818;stroke-width:1;" fill="none" id="*start*-to-operation_blocks_complete"/><polygon points="379.21,222.601,383.21,213.601,379.21,217.601,375.21,213.601,379.21,222.601" fill="#181818" style="stroke:#181818;stroke-width:1;stroke-linejoin:miter;stroke-miterlimit:10;"/></g><!--link operation_blocks_complete to *end*--><g class="link" data-entity-1="ent0001" data-entity-2="ent0014" id="lnk15" data-source-line="43" data-link-type="dependency"><path d="M379.21,809.251 C379.21,835.631 379.21,851.871 379.21,863.731" style="stroke:#181818;stroke-width:1;" fill="none" id="operation_blocks_complete-to-*end*"/><polygon points="379.21,868.731,383.21,859.731,379.21,863.731,375.21,859.731,379.21,868.731" fill="#181818" style="stroke:#181818;stroke-width:1;stroke-linejoin:miter;stroke-miterlimit:10;"/></g><?plantuml-src ZLDDYzj03BtFhn0vzOE5xBMDlP2KbaAXq2szb69cRSKxP3moCmeqDFdlrOpjhBrqQrzi8xtt93t9ZwP2mARb4rGOIczQDkIK2WVZMkrr0u4r8_nH05jT7cfFHrVjo9BVRDg0nuho7BwO-f4_UNtw5wgafgLW60VWrXun0ibNw9zBzIeVoV4zdooEKeQrDQMwA6MnHbS1KmiMzwpE6VpGtkW7Yo3VtqzjUdzsXessafEAS5Pd2EW2UJY3SIpFTGgozZNoDNZRHHiIPwP0RRLlYb9cusSPYzKa8jrrFOgJoR_LrnQzZjvkBPM7i1DJB3AkG0UW8LSyf6HHzbcOkXUN0Fr2LlTQCCRL_rSeYj3ZnjmFv72ELmbcpDaHBIbNTh0nyni6P5x0zGCmiN---GKtD_dYsHRWvlJYpF1kk98ywqyZoJkIMSY1w1nI0FTxBBbVIaBWR-vA8MI3o5kuVNz5Z0yeWrTZGjxNUWrt4vZmfQDHv4aj7fsef4FDOHsP4Rlk49UkIVbDOkTp3gN9PzpfLoibOcLnPpsdEZ1cXAzxV_9-C_5-4NVXhKpTX6mOOtw_VMlP2mvVrEp5gfV_zCWJ_by0?></g></svg>