<svg xmlns="http://www.w3.org/2000/svg" xmlns:xlink="http://www.w3.org/1999/xlink" contentStyleType="text/css" data-diagram-type="STATE" height="792px" preserveAspectRatio="none" style="width:239px;height:792px;background:#FFFFFF;" version="1.1" viewBox="0 0 239 792" width="239px" zoomAndPan="magnify"><defs/><g><path d="M19.5,86 L213.7505,86 A12.5,12.5 0 0 1 226.2505,98.5 L226.2505,112.2969 L7,112.2969 L7,98.5 A12.5,12.5 0 0 1 19.5,86" fill="#ADD8E6"/><rect fill="none" height="618.8869" rx="12.5" ry="12.5" style="stroke:#181818;stroke-width:0.5;" width="219.2505" x="7" y="86"/><line style="stroke:#181818;stroke-width:0.5;" x1="7" x2="226.2505" y1="112.2969" y2="112.2969"/><text fill="#000000" font-family="sans-serif" font-size="14" lengthAdjust="spacing" textLength="129.3291" x="51.9607" y="103.9951">PseudoStateDemo</text><path d="M31.5,180.2969 L127.8828,180.2969 A12.5,12.5 0 0 1 140.3828,192.7969 L140.3828,206.5938 L19,206.5938 L19,192.7969 A12.5,12.5 0 0 1 31.5,180.2969" fill="#ADD8E6"/><rect fill="none" height="201.2969" rx="12.5" ry="12.5" style="stroke:#181818;stroke-width:0.5;" width="121.3828" x="19" y="180.2969"/><line style="stroke:#181818;stroke-width:0.5;" x1="19" x2="140.3828" y1="206.5938" y2="206.5938"/><text fill="#000000" font-family="sans-serif" font-size="14" lengthAdjust="spacing" textLength="95.252" x="32.0654" y="198.292">NormalStates</text><rect fill="#F1F1F1" height="40" rx="12.5" ry="12.5" style="stroke:#181818;stroke-width:0.5;" width="101.3828" x="31" y="273.5938"/><text fill="#000000" font-family="sans-serif" font-size="14" lengthAdjust="spacing" textLength="91.3828" x="36" y="298.4404">RegularState</text><ellipse cx="81.69" cy="227.5938" fill="#222222" rx="10" ry="10" style="stroke:#222222;stroke-width:1;"/><ellipse cx="81.69" cy="360.5938" fill="none" rx="11" ry="11" style="stroke:#222222;stroke-width:1;"/><ellipse cx="81.69" cy="360.5938" fill="#222222" rx="6" ry="6" style="stroke:#222222;stroke-width:1;"/><!--link *start*pseudo_state_demo__normal_states to pseudo_state_demo__normal_states__regular_state--><g class="link" data-entity-1="*start*pseudo_state_demo__normal_states" data-entity-2="pseudo_state_demo__normal_states__regular_state" data-source-line="13" data-uid="lnk3" id="link_*start*pseudo_state_demo__normal_states_pseudo_state_demo__normal_states__regular_state"><path d="M81.69,238.0338 C81.69,247.2838 81.69,255.6538 81.69,267.3138" fill="none" id="*start*pseudo_state_demo__normal_states-to-pseudo_state_demo__normal_states__regular_state" style="stroke:#181818;stroke-width:1;"/><polygon fill="#181818" points="81.69,273.3138,85.69,264.3138,81.69,268.3138,77.69,264.3138,81.69,273.3138" style="stroke:#181818;stroke-width:1;"/></g><!--link pseudo_state_demo__normal_states__regular_state to *end*pseudo_state_demo__normal_states--><g class="link" data-entity-1="pseudo_state_demo__normal_states__regular_state" data-entity-2="*end*pseudo_state_demo__normal_states" data-source-line="14" data-uid="lnk5" id="link_pseudo_state_demo__normal_states__regular_state_*end*pseudo_state_demo__normal_states"><path d="M81.69,313.7438 C81.69,325.4238 81.69,333.8938 81.69,343.4238" fill="none" id="pseudo_state_demo__normal_states__regular_state-to-*end*pseudo_state_demo__normal_states" style="stroke:#181818;stroke-width:1;"/><polygon fill="#181818" points="81.69,349.4238,85.69,340.4238,81.69,344.4238,77.69,340.4238,81.69,349.4238" style="stroke:#181818;stroke-width:1;"/></g><path d="M33.44,434.5869 L125.94,434.5869 A12.5,12.5 0 0 1 138.44,447.0869 L138.44,460.8838 L20.94,460.8838 L20.94,447.0869 A12.5,12.5 0 0 1 33.44,434.5869" fill="#ADD8E6"/><rect fill="none" height="201.2969" rx="12.5" ry="12.5" style="stroke:#181818;stroke-width:0.5;" width="117.5" x="20.94" y="434.5869"/><line style="stroke:#181818;stroke-width:0.5;" x1="20.94" x2="138.44" y1="460.8838" y2="460.8838"/><text fill="#000000" font-family="sans-serif" font-size="14" lengthAdjust="spacing" textLength="95.0264" x="32.1768" y="452.582">PseudoStates</text><rect fill="#D3D3D3" height="40" rx="12.5" ry="12.5" style="stroke:#808080;stroke-width:1;stroke-dasharray:1.0,3.0;" width="97.5" x="32.94" y="527.8838"/><text fill="#000000" font-family="sans-serif" font-size="14" font-style="italic" lengthAdjust="spacing" textLength="87.5" x="37.94" y="552.7304">SpecialState</text><ellipse cx="81.69" cy="481.8838" fill="#222222" rx="10" ry="10" style="stroke:#222222;stroke-width:1;"/><ellipse cx="81.69" cy="614.8838" fill="none" rx="11" ry="11" style="stroke:#222222;stroke-width:1;"/><ellipse cx="81.69" cy="614.8838" fill="#222222" rx="6" ry="6" style="stroke:#222222;stroke-width:1;"/><!--link *start*pseudo_state_demo__pseudo_states to pseudo_state_demo__pseudo_states__special_state--><g class="link" data-entity-1="*start*pseudo_state_demo__pseudo_states" data-entity-2="pseudo_state_demo__pseudo_states__special_state" data-source-line="18" data-uid="lnk7" id="link_*start*pseudo_state_demo__pseudo_states_pseudo_state_demo__pseudo_states__special_state"><path d="M81.69,492.3238 C81.69,501.5738 81.69,509.9438 81.69,521.6038" fill="none" id="*start*pseudo_state_demo__pseudo_states-to-pseudo_state_demo__pseudo_states__special_state" style="stroke:#181818;stroke-width:1;"/><polygon fill="#181818" points="81.69,527.6038,85.69,518.6038,81.69,522.6038,77.69,518.6038,81.69,527.6038" style="stroke:#181818;stroke-width:1;"/></g><!--link pseudo_state_demo__pseudo_states__special_state to *end*pseudo_state_demo__pseudo_states--><g class="link" data-entity-1="pseudo_state_demo__pseudo_states__special_state" data-entity-2="*end*pseudo_state_demo__pseudo_states" data-source-line="19" data-uid="lnk9" id="link_pseudo_state_demo__pseudo_states__special_state_*end*pseudo_state_demo__pseudo_states"><path d="M81.69,568.0338 C81.69,579.7138 81.69,588.1838 81.69,597.7138" fill="none" id="pseudo_state_demo__pseudo_states__special_state-to-*end*pseudo_state_demo__pseudo_states" style="stroke:#181818;stroke-width:1;"/><polygon fill="#181818" points="81.69,603.7138,85.69,594.7138,81.69,598.7138,77.69,594.7138,81.69,603.7138" style="stroke:#181818;stroke-width:1;"/></g><ellipse cx="79.69" cy="133.2969" fill="#222222" rx="10" ry="10" style="stroke:#222222;stroke-width:1;"/><ellipse cx="79.69" cy="683.8869" fill="none" rx="11" ry="11" style="stroke:#222222;stroke-width:1;"/><ellipse cx="79.69" cy="683.8869" fill="#222222" rx="6" ry="6" style="stroke:#222222;stroke-width:1;"/><!--link *start*pseudo_state_demo to pseudo_state_demo__normal_states--><g class="link" data-entity-1="*start*pseudo_state_demo" data-entity-2="pseudo_state_demo__normal_states" data-source-line="21" data-uid="lnk11" id="link_*start*pseudo_state_demo_pseudo_state_demo__normal_states"><path d="M79.69,143.4069 C79.69,151.6869 79.69,158.8769 79.69,173.8769" fill="none" id="*start*pseudo_state_demo-to-pseudo_state_demo__normal_states" style="stroke:#181818;stroke-width:1;"/><polygon fill="#181818" points="79.69,179.8769,83.69,170.8769,79.69,174.8769,75.69,170.8769,79.69,179.8769" style="stroke:#181818;stroke-width:1;"/></g><!--link pseudo_state_demo__normal_states to pseudo_state_demo__pseudo_states--><g class="link" data-entity-1="pseudo_state_demo__normal_states" data-entity-2="pseudo_state_demo__pseudo_states" data-source-line="22" data-uid="lnk12" id="link_pseudo_state_demo__normal_states_pseudo_state_demo__pseudo_states"><path d="M79.69,382.0169 C79.69,399.2169 79.69,411.0869 79.69,428.2869" fill="none" id="pseudo_state_demo__normal_states-to-pseudo_state_demo__pseudo_states" style="stroke:#181818;stroke-width:1;"/><polygon fill="#181818" points="79.69,434.2869,83.69,425.2869,79.69,429.2869,75.69,425.2869,79.69,434.2869" style="stroke:#181818;stroke-width:1;"/><text fill="#000000" font-family="sans-serif" font-size="13" lengthAdjust="spacing" textLength="135.5605" x="80.69" y="412.6538">NormalStates.Switch</text></g><!--link pseudo_state_demo__pseudo_states to *end*pseudo_state_demo--><g class="link" data-entity-1="pseudo_state_demo__pseudo_states" data-entity-2="*end*pseudo_state_demo" data-source-line="23" data-uid="lnk14" id="link_pseudo_state_demo__pseudo_states_*end*pseudo_state_demo"><path d="M79.69,636.0869 C79.69,650.8869 79.69,658.0369 79.69,666.5869" fill="none" id="pseudo_state_demo__pseudo_states-to-*end*pseudo_state_demo" style="stroke:#181818;stroke-width:1;"/><polygon fill="#181818" points="79.69,672.5869,83.69,663.5869,79.69,667.5869,75.69,663.5869,79.69,672.5869" style="stroke:#181818;stroke-width:1;"/></g><ellipse cx="116.63" cy="16" fill="#222222" rx="10" ry="10" style="stroke:#222222;stroke-width:1;"/><ellipse cx="116.63" cy="775.89" fill="none" rx="11" ry="11" style="stroke:#222222;stroke-width:1;"/><ellipse cx="116.63" cy="775.89" fill="#222222" rx="6" ry="6" style="stroke:#222222;stroke-width:1;"/><!--link *start* to pseudo_state_demo--><g class="link" data-entity-1="*start*" data-entity-2="pseudo_state_demo" data-source-line="25" data-uid="lnk16" id="link_*start*_pseudo_state_demo"><path d="M116.63,26.33 C116.63,37.8 116.63,53.07 116.63,79.82" fill="none" id="*start*-to-pseudo_state_demo" style="stroke:#181818;stroke-width:1;"/><polygon fill="#181818" points="116.63,85.82,120.63,76.82,116.63,80.82,112.63,76.82,116.63,85.82" style="stroke:#181818;stroke-width:1;"/></g><!--link pseudo_state_demo to *end*--><g class="link" data-entity-1="pseudo_state_demo" data-entity-2="*end*" data-source-line="26" data-uid="lnk18" id="link_pseudo_state_demo_*end*"><path d="M116.63,705.04 C116.63,731.53 116.63,746.75 116.63,758.57" fill="none" id="pseudo_state_demo-to-*end*" style="stroke:#181818;stroke-width:1;"/><polygon fill="#181818" points="116.63,764.57,120.63,755.57,116.63,759.57,112.63,755.57,116.63,764.57" style="stroke:#181818;stroke-width:1;"/></g><!--SRC=[dLF1IiGm4BtdAuPw4tO_G9OULj6BYDYZI0Z9q8PDav2aI97-ksrQb-Xsr-Wna_TUthoPD58WO6j33m8zTz86QJGX_Y2rPOwru0CB21y4OC_ueNQcq-BMAEDsE-kn4wOiuL7MJNXmh5z3STDQusN0B-1UTJW1ZHFeVaejAlT6Xohq2fCh6PYId0oZk-YfU8utrNIumzOKm3pCQ1eHL8nL-EvWQWIMfeedurgcee1VPrEg8sOk-LMnHF05wqun5nMp12brCsK-7_LUhzzWiod_pVyZBxurlXdvGnfHal7PYDBIhn5L5hbSGiyIfDJFbCLgiX5NIchS2XC2YfpeBkbUYkwYdzFeSeT7SYQLrGlSGBhBs-fT1jwGd7QE_WTorZSv_LKBwnC0]--></g></svg>