<?plantuml 1.2026.2beta3?><svg xmlns="http://www.w3.org/2000/svg" xmlns:xlink="http://www.w3.org/1999/xlink" contentStyleType="text/css" data-diagram-type="STATE" height="993px" preserveAspectRatio="none" style="width:440px;height:993px;background:#FFFFFF;" version="1.1" viewBox="0 0 440 993" width="440px" zoomAndPan="magnify"><defs/><g><g class="entity" data-qualified-name="DefinitionNote" data-source-line="3" id="ent0002"><path d="M6,6 L6,61.3984 L221.1304,61.3984 L221.1304,16 L211.1304,6 L6,6" fill="#FEFFDD" style="stroke:#181818;stroke-width:0.5;"/><path d="M211.1304,6 L211.1304,16 L221.1304,16 L211.1304,6" fill="#FEFFDD" style="stroke:#181818;stroke-width:1;"/><text fill="#000000" font-family="sans-serif" font-size="13" lengthAdjust="spacing" textLength="59.8521" x="12" y="23.0669">defines {</text><text fill="#000000" font-family="sans-serif" font-size="13" lengthAdjust="spacing" textLength="177.6011" x="28.5293" y="38.1997">def int aspect_counter = 0;</text><text fill="#000000" font-family="sans-serif" font-size="13" lengthAdjust="spacing" textLength="8.271" x="12" y="53.3325">}</text></g><path d="M118.52,121.4 L414.6177,121.4 A12.5,12.5 0 0 1 427.1177,133.9 L427.1177,236.5094 L106.02,236.5094 L106.02,133.9 A12.5,12.5 0 0 1 118.52,121.4" fill="#F1F1F1"/><rect fill="none" height="784.0994" rx="12.5" ry="12.5" style="stroke:#181818;stroke-width:0.5;" width="321.0977" x="106.02" y="121.4"/><line style="stroke:#181818;stroke-width:0.5;" x1="106.02" x2="427.1177" y1="236.5094" y2="236.5094"/><line style="stroke:#181818;stroke-width:0.5;" x1="106.02" x2="427.1177" y1="147.6969" y2="147.6969"/><text fill="#000000" font-family="sans-serif" font-size="14" lengthAdjust="spacing" textLength="129.3291" x="201.9043" y="139.3951">PseudoStateDemo</text><text fill="#000000" font-family="sans-serif" font-size="12" lengthAdjust="spacing" textLength="116.7832" x="111.02" y="158.8355">&gt;&gt; during before {</text><text fill="#000000" font-family="sans-serif" font-size="12" lengthAdjust="spacing" textLength="231.2051" x="126.2778" y="172.8043">aspect_counter = aspect_counter + 1;</text><text fill="#000000" font-family="sans-serif" font-size="12" lengthAdjust="spacing" textLength="7.6348" x="111.02" y="186.773">}</text><text fill="#000000" font-family="sans-serif" font-size="12" lengthAdjust="spacing" textLength="106.5" x="111.02" y="200.7418">&gt;&gt; during after {</text><text fill="#000000" font-family="sans-serif" font-size="12" lengthAdjust="spacing" textLength="246.4746" x="126.2778" y="214.7105">aspect_counter = aspect_counter + 100;</text><text fill="#000000" font-family="sans-serif" font-size="12" lengthAdjust="spacing" textLength="7.6348" x="111.02" y="228.6793">}</text><path d="M130.52,304.5094 L400.6177,304.5094 A12.5,12.5 0 0 1 413.1177,317.0094 L413.1177,330.8063 L118.02,330.8063 L118.02,317.0094 A12.5,12.5 0 0 1 130.52,304.5094" fill="#F1F1F1"/><rect fill="none" height="239.4969" rx="12.5" ry="12.5" style="stroke:#181818;stroke-width:0.5;" width="295.0977" x="118.02" y="304.5094"/><line style="stroke:#181818;stroke-width:0.5;" x1="118.02" x2="413.1177" y1="330.8063" y2="330.8063"/><text fill="#000000" font-family="sans-serif" font-size="14" lengthAdjust="spacing" textLength="95.252" x="217.9429" y="322.5045">NormalStates</text><g class="entity" data-qualified-name="pseudo_state_demo.pseudo_state_demo__normal_states.pseudo_state_demo__normal_states__regular_state" id="ent0005"><rect fill="#F1F1F1" height="78.2031" rx="12.5" ry="12.5" style="stroke:#181818;stroke-width:0.5;" width="274.0977" x="130.02" y="397.8063"/><line style="stroke:#181818;stroke-width:0.5;" x1="130.02" x2="404.1177" y1="424.1031" y2="424.1031"/><text fill="#000000" font-family="sans-serif" font-size="14" lengthAdjust="spacing" textLength="91.3828" x="221.3774" y="415.8014">RegularState</text><text fill="#000000" font-family="sans-serif" font-size="12" lengthAdjust="spacing" textLength="50.1621" x="135.02" y="440.2418">during {</text><text fill="#000000" font-family="sans-serif" font-size="12" lengthAdjust="spacing" textLength="238.8398" x="150.2778" y="454.2105">aspect_counter = aspect_counter + 10;</text><text fill="#000000" font-family="sans-serif" font-size="12" lengthAdjust="spacing" textLength="7.6348" x="135.02" y="468.1793">}</text></g><g class="start_entity" data-qualified-name="pseudo_state_demo.pseudo_state_demo__normal_states..start.pseudo_state_demo__normal_states" data-source-line="12" id="ent0002"><ellipse cx="267.07" cy="351.8063" fill="#222222" rx="10" ry="10" style="stroke:#222222;stroke-width:1;"/></g><g class="end_entity" data-qualified-name="pseudo_state_demo.pseudo_state_demo__normal_states..end.pseudo_state_demo__normal_states" data-source-line="13" id="ent0004"><ellipse cx="267.07" cy="523.0062" fill="none" rx="11" ry="11" style="stroke:#222222;stroke-width:1;"/><ellipse cx="267.07" cy="523.0062" fill="#222222" rx="6" ry="6" style="stroke:#222222;stroke-width:1;"/></g><!--link *start*pseudo_state_demo__normal_states to pseudo_state_demo__normal_states__regular_state--><g class="link" data-entity-1="ent0002" data-entity-2="ent0005" data-link-type="dependency" data-source-line="12" id="lnk3"><path d="M267.07,362.0162 C267.07,370.7162 267.07,378.3762 267.07,391.6062" fill="none" id="*start*pseudo_state_demo__normal_states-to-pseudo_state_demo__normal_states__regular_state" style="stroke:#181818;stroke-width:1;"/><polygon fill="#181818" points="267.07,397.6062,271.07,388.6062,267.07,392.6062,263.07,388.6062,267.07,397.6062" style="stroke:#181818;stroke-width:1;"/></g><!--link pseudo_state_demo__normal_states__regular_state to *end*pseudo_state_demo__normal_states--><g class="link" data-entity-1="ent0005" data-entity-2="ent0004" data-link-type="dependency" data-source-line="13" id="lnk5"><path d="M267.07,476.0162 C267.07,489.0563 267.07,496.6062 267.07,505.5862" fill="none" id="pseudo_state_demo__normal_states__regular_state-to-*end*pseudo_state_demo__normal_states" style="stroke:#181818;stroke-width:1;"/><polygon fill="#181818" points="267.07,511.5862,271.07,502.5862,267.07,506.5862,263.07,502.5862,267.07,511.5862" style="stroke:#181818;stroke-width:1;"/></g><path d="M130.52,596.9994 L400.6177,596.9994 A12.5,12.5 0 0 1 413.1177,609.4994 L413.1177,623.2963 L118.02,623.2963 L118.02,609.4994 A12.5,12.5 0 0 1 130.52,596.9994" fill="#F1F1F1"/><rect fill="none" height="239.4969" rx="12.5" ry="12.5" style="stroke:#181818;stroke-width:0.5;" width="295.0977" x="118.02" y="596.9994"/><line style="stroke:#181818;stroke-width:0.5;" x1="118.02" x2="413.1177" y1="623.2963" y2="623.2963"/><text fill="#000000" font-family="sans-serif" font-size="14" lengthAdjust="spacing" textLength="95.0264" x="218.0556" y="614.9945">PseudoStates</text><g class="entity" data-qualified-name="pseudo_state_demo.pseudo_state_demo__pseudo_states.pseudo_state_demo__pseudo_states__special_state" id="ent0007"><rect fill="#F1F1F1" height="78.2031" rx="12.5" ry="12.5" style="stroke:#181818;stroke-width:1;stroke-dasharray:1,3;" width="274.0977" x="130.02" y="690.2963"/><line style="stroke:#181818;stroke-width:1;stroke-dasharray:1,3;" x1="130.02" x2="404.1177" y1="716.5931" y2="716.5931"/><text fill="#000000" font-family="sans-serif" font-size="14" lengthAdjust="spacing" textLength="87.5" x="223.3188" y="708.2914">SpecialState</text><text fill="#000000" font-family="sans-serif" font-size="12" lengthAdjust="spacing" textLength="50.1621" x="135.02" y="732.7318">during {</text><text fill="#000000" font-family="sans-serif" font-size="12" lengthAdjust="spacing" textLength="238.8398" x="150.2778" y="746.7005">aspect_counter = aspect_counter + 10;</text><text fill="#000000" font-family="sans-serif" font-size="12" lengthAdjust="spacing" textLength="7.6348" x="135.02" y="760.6693">}</text></g><g class="start_entity" data-qualified-name="pseudo_state_demo.pseudo_state_demo__pseudo_states..start.pseudo_state_demo__pseudo_states" data-source-line="18" id="ent0006"><ellipse cx="267.07" cy="644.2963" fill="#222222" rx="10" ry="10" style="stroke:#222222;stroke-width:1;"/></g><g class="end_entity" data-qualified-name="pseudo_state_demo.pseudo_state_demo__pseudo_states..end.pseudo_state_demo__pseudo_states" data-source-line="19" id="ent0008"><ellipse cx="267.07" cy="815.4962" fill="none" rx="11" ry="11" style="stroke:#222222;stroke-width:1;"/><ellipse cx="267.07" cy="815.4962" fill="#222222" rx="6" ry="6" style="stroke:#222222;stroke-width:1;"/></g><!--link *start*pseudo_state_demo__pseudo_states to pseudo_state_demo__pseudo_states__special_state--><g class="link" data-entity-1="ent0006" data-entity-2="ent0007" data-link-type="dependency" data-source-line="18" id="lnk7"><path d="M267.07,654.5062 C267.07,663.2063 267.07,670.8662 267.07,684.0962" fill="none" id="*start*pseudo_state_demo__pseudo_states-to-pseudo_state_demo__pseudo_states__special_state" style="stroke:#181818;stroke-width:1;"/><polygon fill="#181818" points="267.07,690.0962,271.07,681.0962,267.07,685.0962,263.07,681.0962,267.07,690.0962" style="stroke:#181818;stroke-width:1;"/></g><!--link pseudo_state_demo__pseudo_states__special_state to *end*pseudo_state_demo__pseudo_states--><g class="link" data-entity-1="ent0007" data-entity-2="ent0008" data-link-type="dependency" data-source-line="19" id="lnk9"><path d="M267.07,768.5062 C267.07,781.5462 267.07,789.0962 267.07,798.0762" fill="none" id="pseudo_state_demo__pseudo_states__special_state-to-*end*pseudo_state_demo__pseudo_states" style="stroke:#181818;stroke-width:1;"/><polygon fill="#181818" points="267.07,804.0762,271.07,795.0762,267.07,799.0762,263.07,795.0762,267.07,804.0762" style="stroke:#181818;stroke-width:1;"/></g><g class="start_entity" data-qualified-name="pseudo_state_demo..start.pseudo_state_demo" data-source-line="21" id="ent0010"><ellipse cx="265.57" cy="257.5094" fill="#222222" rx="10" ry="10" style="stroke:#222222;stroke-width:1;"/></g><g class="end_entity" data-qualified-name="pseudo_state_demo..end.pseudo_state_demo" data-source-line="23" id="ent0013"><ellipse cx="265.57" cy="884.4994" fill="none" rx="11" ry="11" style="stroke:#222222;stroke-width:1;"/><ellipse cx="265.57" cy="884.4994" fill="#222222" rx="6" ry="6" style="stroke:#222222;stroke-width:1;"/></g><!--link *start*pseudo_state_demo to pseudo_state_demo__normal_states--><g class="link" data-entity-1="ent0010" data-entity-2="ent0004" data-link-type="dependency" data-source-line="21" id="lnk11"><path d="M265.57,267.8394 C265.57,276.0694 265.57,283.0994 265.57,298.1794" fill="none" id="*start*pseudo_state_demo-to-pseudo_state_demo__normal_states" style="stroke:#181818;stroke-width:1;"/><polygon fill="#181818" points="265.57,304.1794,269.57,295.1794,265.57,299.1794,261.57,295.1794,265.57,304.1794" style="stroke:#181818;stroke-width:1;"/></g><!--link pseudo_state_demo__normal_states to pseudo_state_demo__pseudo_states--><g class="link" data-entity-1="ent0004" data-entity-2="ent0006" data-link-type="dependency" data-source-line="22" id="lnk12"><path d="M265.57,544.2494 C265.57,561.6394 265.57,573.5494 265.57,590.9394" fill="none" id="pseudo_state_demo__normal_states-to-pseudo_state_demo__pseudo_states" style="stroke:#181818;stroke-width:1;"/><polygon fill="#181818" points="265.57,596.9394,269.57,587.9394,265.57,591.9394,261.57,587.9394,265.57,596.9394" style="stroke:#181818;stroke-width:1;"/><text fill="#000000" font-family="sans-serif" font-size="13" lengthAdjust="spacing" textLength="135.5605" x="266.57" y="575.0663">NormalStates.Switch</text></g><!--link pseudo_state_demo__pseudo_states to *end*pseudo_state_demo--><g class="link" data-entity-1="ent0006" data-entity-2="ent0013" data-link-type="dependency" data-source-line="23" id="lnk14"><path d="M265.57,836.8894 C265.57,851.7094 265.57,858.6094 265.57,867.0494" fill="none" id="pseudo_state_demo__pseudo_states-to-*end*pseudo_state_demo" style="stroke:#181818;stroke-width:1;"/><polygon fill="#181818" points="265.57,873.0494,269.57,864.0494,265.57,868.0494,261.57,864.0494,265.57,873.0494" style="stroke:#181818;stroke-width:1;"/></g><g class="start_entity" data-qualified-name=".start." data-source-line="26" id="ent0015"><ellipse cx="266.57" cy="33.7" fill="#222222" rx="10" ry="10" style="stroke:#222222;stroke-width:1;"/></g><g class="end_entity" data-qualified-name=".end." data-source-line="27" id="ent0017"><ellipse cx="266.57" cy="976.5" fill="none" rx="11" ry="11" style="stroke:#222222;stroke-width:1;"/><ellipse cx="266.57" cy="976.5" fill="#222222" rx="6" ry="6" style="stroke:#222222;stroke-width:1;"/></g><!--link *start* to pseudo_state_demo--><g class="link" data-entity-1="ent0015" data-entity-2="ent0003" data-link-type="dependency" data-source-line="26" id="lnk16"><path d="M266.57,43.82 C266.57,57.43 266.57,79.33 266.57,115.05" fill="none" id="*start*-to-pseudo_state_demo" style="stroke:#181818;stroke-width:1;"/><polygon fill="#181818" points="266.57,121.05,270.57,112.05,266.57,116.05,262.57,112.05,266.57,121.05" style="stroke:#181818;stroke-width:1;"/></g><!--link pseudo_state_demo to *end*--><g class="link" data-entity-1="ent0003" data-entity-2="ent0017" data-link-type="dependency" data-source-line="27" id="lnk18"><path d="M266.57,905.98 C266.57,932.77 266.57,947.77 266.57,959.4" fill="none" id="pseudo_state_demo-to-*end*" style="stroke:#181818;stroke-width:1;"/><polygon fill="#181818" points="266.57,965.4,270.57,956.4,266.57,960.4,262.57,956.4,266.57,965.4" style="stroke:#181818;stroke-width:1;"/></g><?plantuml-src lLFBReCm4BpxArRfhLMYz9ged7AEgd8ibKNnabW26zb6LHNnxxKDeQWGP2grt7ROcNtC-imP0fQL-GI6EbEyCbmA8gH1I3KSCEU2E-Xe4S9SY1ek1End8-32sBmACqCpMGk32fvWkoSDGS70oH2YJMhLLiyQQoPZ5nomb2kdNtcC-WpABDf9TvIZL6LQU8gUpgTK-9mMkdOsa7Z1Krsaoci4IL2gMaeRzteBUR03LYikJd19XEEFjlG3U837xJuHJL_mzVuDrkletnfsjMnDps-6BWoCk-d249fm8RQZyix980bATKlfchihxE5jc3G6sTo4io9_QSbSuLytFBOaz2X8o0K4pMAtDdo6c_Y3c-nCGiRf-s_8-A7l88gkVhnZBXKkiCMvaeXlWJHtFnROslfwSviJ_NQpV040?></g></svg>