<svg xmlns="http://www.w3.org/2000/svg" xmlns:xlink="http://www.w3.org/1999/xlink" contentStyleType="text/css" data-diagram-type="STATE" height="1290px" preserveAspectRatio="none" style="width:2029px;height:1290px;background:#FFFFFF;" version="1.1" viewBox="0 0 2029 1290" width="2029px" zoomAndPan="magnify"><defs/><g><path d="M19.5,86 L2003.13,86 A12.5,12.5 0 0 1 2015.63,98.5 L2015.63,112.2969 L7,112.2969 L7,98.5 A12.5,12.5 0 0 1 19.5,86" fill="#ADD8E6"/><rect fill="none" height="1116.8869" rx="12.5" ry="12.5" style="stroke:#181818;stroke-width:0.5;" width="2008.63" x="7" y="86"/><line style="stroke:#181818;stroke-width:0.5;" x1="7" x2="2015.63" y1="112.2969" y2="112.2969"/><text fill="#000000" font-family="sans-serif" font-size="14" lengthAdjust="spacing" textLength="150.0215" x="936.3043" y="103.9951">ThermostatController</text><rect fill="#F1F1F1" height="40" rx="12.5" ry="12.5" style="stroke:#181818;stroke-width:0.5;" width="81.627" x="1602.48" y="180.2969"/><text fill="#000000" font-family="sans-serif" font-size="14" lengthAdjust="spacing" textLength="71.627" x="1607.48" y="205.1436">Initializing</text><path d="M31.5,273.2969 L1595.08,273.2969 A12.5,12.5 0 0 1 1607.58,285.7969 L1607.58,299.5937 L19,299.5937 L19,285.7969 A12.5,12.5 0 0 1 31.5,273.2969" fill="#ADD8E6"/><rect fill="none" height="686.5938" rx="12.5" ry="12.5" style="stroke:#181818;stroke-width:0.5;" width="1588.58" x="19" y="273.2969"/><line style="stroke:#181818;stroke-width:0.5;" x1="19" x2="1607.58" y1="299.5937" y2="299.5937"/><text fill="#000000" font-family="sans-serif" font-size="14" lengthAdjust="spacing" textLength="120.2852" x="753.1474" y="291.292">OperationalMode</text><rect fill="#F1F1F1" height="40" rx="12.5" ry="12.5" style="stroke:#181818;stroke-width:0.5;" width="50" x="776.12" y="367.5937"/><text fill="#000000" font-family="sans-serif" font-size="14" lengthAdjust="spacing" textLength="25.5186" x="788.3607" y="392.4404">Idle</text><rect fill="#F1F1F1" height="40" rx="12.5" ry="12.5" style="stroke:#181818;stroke-width:0.5;" width="64.8584" x="365.69" y="554.0937"/><text fill="#000000" font-family="sans-serif" font-size="14" lengthAdjust="spacing" textLength="54.8584" x="370.69" y="578.9404">Heating</text><rect fill="#F1F1F1" height="40" rx="12.5" ry="12.5" style="stroke:#181818;stroke-width:0.5;" width="62.4453" x="937.9" y="554.0937"/><text fill="#000000" font-family="sans-serif" font-size="14" lengthAdjust="spacing" textLength="52.4453" x="942.9" y="578.9404">Cooling</text><path d="M986.3,675.5937 L1531.9473,675.5937 A12.5,12.5 0 0 1 1544.4473,688.0937 L1544.4473,701.8906 L973.8,701.8906 L973.8,688.0937 A12.5,12.5 0 0 1 986.3,675.5937" fill="#ADD8E6"/><rect fill="none" height="274.2969" rx="12.5" ry="12.5" style="stroke:#181818;stroke-width:0.5;" width="570.6473" x="973.8" y="675.5937"/><line style="stroke:#181818;stroke-width:0.5;" x1="973.8" x2="1544.4473" y1="701.8906" y2="701.8906"/><text fill="#000000" font-family="sans-serif" font-size="14" lengthAdjust="spacing" textLength="70.6494" x="1223.7989" y="693.5889">AutoMode</text><rect fill="#F1F1F1" height="40" rx="12.5" ry="12.5" style="stroke:#181818;stroke-width:0.5;" width="97.3633" x="1073.4" y="713.8906"/><text fill="#000000" font-family="sans-serif" font-size="14" lengthAdjust="spacing" textLength="87.3633" x="1078.4" y="738.7373">AutoHeating</text><rect fill="#F1F1F1" height="40" rx="12.5" ry="12.5" style="stroke:#181818;stroke-width:0.5;" width="94.9502" x="1185.61" y="899.8906"/><text fill="#000000" font-family="sans-serif" font-size="14" lengthAdjust="spacing" textLength="84.9502" x="1190.61" y="924.7373">AutoCooling</text><rect fill="#F1F1F1" height="40" rx="12.5" ry="12.5" style="stroke:#181818;stroke-width:0.5;" width="68.0234" x="1199.07" y="806.8906"/><text fill="#000000" font-family="sans-serif" font-size="14" lengthAdjust="spacing" textLength="58.0234" x="1204.07" y="831.7373">AutoIdle</text><ellipse cx="1458.08" cy="733.8906" fill="#222222" rx="10" ry="10" style="stroke:#222222;stroke-width:1;"/><!--link *start*thermostat_controller__operational_mode__auto_mode to thermostat_controller__operational_mode__auto_mode__auto_idle--><g class="link" data-entity-1="*start*thermostat_controller__operational_mode__auto_mode" data-entity-2="thermostat_controller__operational_mode__auto_mode__auto_idle" data-source-line="20" data-uid="lnk3" id="link_*start*thermostat_controller__operational_mode__auto_mode_thermostat_controller__operational_mode__auto_mode__auto_idle"><path d="M1457.03,744.1206 C1455.12,756.3506 1449.91,777.6606 1436.08,788.8906 C1410.71,809.5006 1324.321,819.0539 1273.381,823.1139" fill="none" id="*start*thermostat_controller__operational_mode__auto_mode-to-thermostat_controller__operational_mode__auto_mode__auto_idle" style="stroke:#181818;stroke-width:1;"/><polygon fill="#181818" points="1267.4,823.5906,1276.6893,826.8629,1272.3842,823.1934,1276.0538,818.8882,1267.4,823.5906" style="stroke:#181818;stroke-width:1;"/></g><!--link thermostat_controller__operational_mode__auto_mode__auto_idle to thermostat_controller__operational_mode__auto_mode__auto_heating--><g class="link" data-entity-1="thermostat_controller__operational_mode__auto_mode__auto_idle" data-entity-2="thermostat_controller__operational_mode__auto_mode__auto_heating" data-source-line="21" data-uid="lnk4" id="link_thermostat_controller__operational_mode__auto_mode__auto_idle_thermostat_controller__operational_mode__auto_mode__auto_heating"><path d="M1229.15,806.5706 C1225.97,795.2206 1220.43,781.3006 1211.08,771.8906 C1200.12,760.8506 1190.9611,755.1178 1176.6311,749.5378" fill="none" id="thermostat_controller__operational_mode__auto_mode__auto_idle-to-thermostat_controller__operational_mode__auto_mode__auto_heating" style="stroke:#181818;stroke-width:1;"/><polygon fill="#181818" points="1171.04,747.3606,1177.9752,754.3537,1175.6992,749.1749,1180.878,746.8989,1171.04,747.3606" style="stroke:#181818;stroke-width:1;"/><text fill="#000000" font-family="sans-serif" font-size="13" lengthAdjust="spacing" textLength="208.5713" x="1223.57" y="784.9575">current_temp &lt; target_temp - 2</text></g><!--link thermostat_controller__operational_mode__auto_mode__auto_idle to thermostat_controller__operational_mode__auto_mode__auto_cooling--><g class="link" data-entity-1="thermostat_controller__operational_mode__auto_mode__auto_idle" data-entity-2="thermostat_controller__operational_mode__auto_mode__auto_cooling" data-source-line="22" data-uid="lnk5" id="link_thermostat_controller__operational_mode__auto_mode__auto_idle_thermostat_controller__operational_mode__auto_mode__auto_cooling"><path d="M1198.67,828.3406 C1171.13,830.7506 1134.08,839.0206 1115.08,864.8906 C1094.01,893.5806 1137.9706,906.5128 1179.2506,912.9028" fill="none" id="thermostat_controller__operational_mode__auto_mode__auto_idle-to-thermostat_controller__operational_mode__auto_mode__auto_cooling" style="stroke:#181818;stroke-width:1;"/><polygon fill="#181818" points="1185.18,913.8206,1176.8978,908.4909,1180.2388,913.0558,1175.674,916.3968,1185.18,913.8206" style="stroke:#181818;stroke-width:1;"/><text fill="#000000" font-family="sans-serif" font-size="13" lengthAdjust="spacing" textLength="214.7729" x="1116.08" y="877.9575">current_temp &gt; target_temp + 2</text></g><!--link thermostat_controller__operational_mode__auto_mode__auto_heating to thermostat_controller__operational_mode__auto_mode__auto_idle--><g class="link" data-entity-1="thermostat_controller__operational_mode__auto_mode__auto_heating" data-entity-2="thermostat_controller__operational_mode__auto_mode__auto_idle" data-source-line="23" data-uid="lnk6" id="link_thermostat_controller__operational_mode__auto_mode__auto_heating_thermostat_controller__operational_mode__auto_mode__auto_idle"><path d="M1072.95,741.1706 C1032.38,748.3506 984.8,762.6706 1007.08,788.8906 C1031.28,817.3706 1135.822,823.8239 1192.842,825.3139" fill="none" id="thermostat_controller__operational_mode__auto_mode__auto_heating-to-thermostat_controller__operational_mode__auto_mode__auto_idle" style="stroke:#181818;stroke-width:1;"/><polygon fill="#181818" points="1198.84,825.4706,1189.9476,821.2369,1193.8417,825.34,1189.7386,829.2342,1198.84,825.4706" style="stroke:#181818;stroke-width:1;"/><text fill="#000000" font-family="sans-serif" font-size="13" lengthAdjust="spacing" textLength="198.2373" x="1008.08" y="784.9575">current_temp &gt;= target_temp</text></g><!--link thermostat_controller__operational_mode__auto_mode__auto_cooling to thermostat_controller__operational_mode__auto_mode__auto_idle--><g class="link" data-entity-1="thermostat_controller__operational_mode__auto_mode__auto_cooling" data-entity-2="thermostat_controller__operational_mode__auto_mode__auto_idle" data-source-line="24" data-uid="lnk7" id="link_thermostat_controller__operational_mode__auto_mode__auto_cooling_thermostat_controller__operational_mode__auto_mode__auto_idle"><path d="M1280.99,912.6406 C1299.83,907.5706 1319.65,898.4206 1331.08,881.8906 C1349.48,855.2906 1308.3702,841.6334 1273.2702,834.5134" fill="none" id="thermostat_controller__operational_mode__auto_mode__auto_cooling-to-thermostat_controller__operational_mode__auto_mode__auto_idle" style="stroke:#181818;stroke-width:1;"/><polygon fill="#181818" points="1267.39,833.3206,1275.4152,839.03,1272.2902,834.3146,1277.0056,831.1897,1267.39,833.3206" style="stroke:#181818;stroke-width:1;"/><text fill="#000000" font-family="sans-serif" font-size="13" lengthAdjust="spacing" textLength="198.2373" x="1336.21" y="877.9575">current_temp &lt;= target_temp</text></g><ellipse cx="801.12" cy="320.5937" fill="#222222" rx="10" ry="10" style="stroke:#222222;stroke-width:1;"/><!--link *start*thermostat_controller__operational_mode to thermostat_controller__operational_mode__idle--><g class="link" data-entity-1="*start*thermostat_controller__operational_mode" data-entity-2="thermostat_controller__operational_mode__idle" data-source-line="26" data-uid="lnk9" id="link_*start*thermostat_controller__operational_mode_thermostat_controller__operational_mode__idle"><path d="M801.12,330.9137 C801.12,340.3137 801.12,349.1337 801.12,361.1237" fill="none" id="*start*thermostat_controller__operational_mode-to-thermostat_controller__operational_mode__idle" style="stroke:#181818;stroke-width:1;"/><polygon fill="#181818" points="801.12,367.1237,805.12,358.1237,801.12,362.1237,797.12,358.1237,801.12,367.1237" style="stroke:#181818;stroke-width:1;"/></g><!--link thermostat_controller__operational_mode__idle to thermostat_controller__operational_mode__heating--><g class="link" data-entity-1="thermostat_controller__operational_mode__idle" data-entity-2="thermostat_controller__operational_mode__heating" data-source-line="27" data-uid="lnk10" id="link_thermostat_controller__operational_mode__idle_thermostat_controller__operational_mode__heating"><path d="M775.97,388.8837 C648.67,390.4437 80.51,398.9137 55.12,425.5937 C30,451.9937 31.89,479.5137 55.12,507.5937 C94.39,555.0737 281.516,568.1853 359.436,571.6753" fill="none" id="thermostat_controller__operational_mode__idle-to-thermostat_controller__operational_mode__heating" style="stroke:#181818;stroke-width:1;"/><polygon fill="#181818" points="365.43,571.9437,356.618,567.5451,360.435,571.72,356.26,575.537,365.43,571.9437" style="stroke:#181818;stroke-width:1;"/><text fill="#000000" font-family="sans-serif" font-size="13" lengthAdjust="spacing" textLength="208.5713" x="56.12" y="438.6606">current_temp &lt; target_temp - 1</text><path d="M92.4594,447.7266 L92.4594,502.7266 L227.4594,502.7266 L227.4594,457.7266 L217.4594,447.7266 L92.4594,447.7266" fill="#FEFFDD" style="stroke:#181818;stroke-width:0.5;"/><path d="M217.4594,447.7266 L217.4594,457.7266 L227.4594,457.7266 L217.4594,447.7266" fill="#FEFFDD" style="stroke:#181818;stroke-width:0.5;"/><text fill="#000000" font-family="sans-serif" font-size="13" lengthAdjust="spacing" textLength="49.7974" x="98.4594" y="464.7935">effect {</text><text fill="#000000" font-family="sans-serif" font-size="13" lengthAdjust="spacing" textLength="98.3633" x="114.9887" y="479.9263">fan_speed = 2;</text><text fill="#000000" font-family="sans-serif" font-size="13" lengthAdjust="spacing" textLength="8.271" x="98.4594" y="495.0591">}</text></g><!--link thermostat_controller__operational_mode__idle to thermostat_controller__operational_mode__cooling--><g class="link" data-entity-1="thermostat_controller__operational_mode__idle" data-entity-2="thermostat_controller__operational_mode__cooling" data-source-line="33" data-uid="lnk11" id="link_thermostat_controller__operational_mode__idle_thermostat_controller__operational_mode__cooling"><path d="M775.7,388.4337 C747.83,389.8037 704.28,396.7837 683.12,425.5937 C661.55,454.9737 660.41,479.0937 683.12,507.5937 C714.71,547.2337 864.0325,564.3046 931.6225,570.1746" fill="none" id="thermostat_controller__operational_mode__idle-to-thermostat_controller__operational_mode__cooling" style="stroke:#181818;stroke-width:1;"/><polygon fill="#181818" points="937.6,570.6937,928.9798,565.9301,932.6188,570.2611,928.2877,573.9001,937.6,570.6937" style="stroke:#181818;stroke-width:1;"/><text fill="#000000" font-family="sans-serif" font-size="13" lengthAdjust="spacing" textLength="214.7729" x="684.12" y="438.6606">current_temp &gt; target_temp + 1</text><path d="M723.5602,447.7266 L723.5602,502.7266 L858.5602,502.7266 L858.5602,457.7266 L848.5602,447.7266 L723.5602,447.7266" fill="#FEFFDD" style="stroke:#181818;stroke-width:0.5;"/><path d="M848.5602,447.7266 L848.5602,457.7266 L858.5602,457.7266 L848.5602,447.7266" fill="#FEFFDD" style="stroke:#181818;stroke-width:0.5;"/><text fill="#000000" font-family="sans-serif" font-size="13" lengthAdjust="spacing" textLength="49.7974" x="729.5602" y="464.7935">effect {</text><text fill="#000000" font-family="sans-serif" font-size="13" lengthAdjust="spacing" textLength="98.3633" x="746.0895" y="479.9263">fan_speed = 3;</text><text fill="#000000" font-family="sans-serif" font-size="13" lengthAdjust="spacing" textLength="8.271" x="729.5602" y="495.0591">}</text></g><!--link thermostat_controller__operational_mode__heating to thermostat_controller__operational_mode__idle--><g class="link" data-entity-1="thermostat_controller__operational_mode__heating" data-entity-2="thermostat_controller__operational_mode__idle" data-source-line="39" data-uid="lnk12" id="link_thermostat_controller__operational_mode__heating_thermostat_controller__operational_mode__idle"><path d="M365.37,563.5237 C339.3,553.9737 304.54,536.4837 288.12,507.5937 C270.11,475.9137 263.29,452.2737 288.12,425.5937 C321.61,389.6037 671.2,388.1355 769.86,388.4355" fill="none" id="thermostat_controller__operational_mode__heating-to-thermostat_controller__operational_mode__idle" style="stroke:#181818;stroke-width:1;"/><polygon fill="#181818" points="775.86,388.4537,766.8722,384.4264,770.86,388.4385,766.8479,392.4264,775.86,388.4537" style="stroke:#181818;stroke-width:1;"/><text fill="#000000" font-family="sans-serif" font-size="13" lengthAdjust="spacing" textLength="198.2373" x="289.12" y="438.6606">current_temp &gt;= target_temp</text><path d="M320.2924,447.7266 L320.2924,502.7266 L455.2924,502.7266 L455.2924,457.7266 L445.2924,447.7266 L320.2924,447.7266" fill="#FEFFDD" style="stroke:#181818;stroke-width:0.5;"/><path d="M445.2924,447.7266 L445.2924,457.7266 L455.2924,457.7266 L445.2924,447.7266" fill="#FEFFDD" style="stroke:#181818;stroke-width:0.5;"/><text fill="#000000" font-family="sans-serif" font-size="13" lengthAdjust="spacing" textLength="49.7974" x="326.2924" y="464.7935">effect {</text><text fill="#000000" font-family="sans-serif" font-size="13" lengthAdjust="spacing" textLength="98.3633" x="342.8217" y="479.9263">fan_speed = 1;</text><text fill="#000000" font-family="sans-serif" font-size="13" lengthAdjust="spacing" textLength="8.271" x="326.2924" y="495.0591">}</text></g><!--link thermostat_controller__operational_mode__cooling to thermostat_controller__operational_mode__idle--><g class="link" data-entity-1="thermostat_controller__operational_mode__cooling" data-entity-2="thermostat_controller__operational_mode__idle" data-source-line="45" data-uid="lnk13" id="link_thermostat_controller__operational_mode__cooling_thermostat_controller__operational_mode__idle"><path d="M952.35,553.6037 C942.37,541.1437 930.12,524.2537 922.12,507.5937 C905.73,473.4837 924.69,453.5037 899.12,425.5937 C880.2,404.9437 854.4825,396.831 832.2925,392.781" fill="none" id="thermostat_controller__operational_mode__cooling-to-thermostat_controller__operational_mode__idle" style="stroke:#181818;stroke-width:1;"/><polygon fill="#181818" points="826.39,391.7037,834.5255,397.2547,831.3087,392.6015,835.9619,389.3847,826.39,391.7037" style="stroke:#181818;stroke-width:1;"/><text fill="#000000" font-family="sans-serif" font-size="13" lengthAdjust="spacing" textLength="198.2373" x="923.12" y="438.6606">current_temp &lt;= target_temp</text><path d="M954.2924,447.7266 L954.2924,502.7266 L1089.2924,502.7266 L1089.2924,457.7266 L1079.2924,447.7266 L954.2924,447.7266" fill="#FEFFDD" style="stroke:#181818;stroke-width:0.5;"/><path d="M1079.2924,447.7266 L1079.2924,457.7266 L1089.2924,457.7266 L1079.2924,447.7266" fill="#FEFFDD" style="stroke:#181818;stroke-width:0.5;"/><text fill="#000000" font-family="sans-serif" font-size="13" lengthAdjust="spacing" textLength="49.7974" x="960.2924" y="464.7935">effect {</text><text fill="#000000" font-family="sans-serif" font-size="13" lengthAdjust="spacing" textLength="98.3633" x="976.8217" y="479.9263">fan_speed = 1;</text><text fill="#000000" font-family="sans-serif" font-size="13" lengthAdjust="spacing" textLength="8.271" x="960.2924" y="495.0591">}</text></g><!--link thermostat_controller__operational_mode__idle to thermostat_controller__operational_mode__auto_mode--><g class="link" data-entity-1="thermostat_controller__operational_mode__idle" data-entity-2="thermostat_controller__operational_mode__auto_mode" data-source-line="51" data-uid="lnk14" id="link_thermostat_controller__operational_mode__idle_thermostat_controller__operational_mode__auto_mode"><path d="M826.6,388.5437 C922.82,388.5937 1260.26,391.2437 1292.12,425.5937 C1325.09,461.1437 1311.6459,573.1781 1292.5759,669.4481" fill="none" id="thermostat_controller__operational_mode__idle-to-thermostat_controller__operational_mode__auto_mode" style="stroke:#181818;stroke-width:1;"/><polygon fill="#181818" points="1291.41,675.3337,1297.0826,667.2825,1292.3816,670.4291,1289.2351,665.728,1291.41,675.3337" style="stroke:#181818;stroke-width:1;"/><text fill="#000000" font-family="sans-serif" font-size="13" lengthAdjust="spacing" textLength="102.2925" x="1312.35" y="578.6606">Idle.EnableAuto</text></g><!--link thermostat_controller__operational_mode__heating to thermostat_controller__operational_mode__auto_mode--><g class="link" data-entity-1="thermostat_controller__operational_mode__heating" data-entity-2="thermostat_controller__operational_mode__auto_mode" data-source-line="52" data-uid="lnk15" id="link_thermostat_controller__operational_mode__heating_thermostat_controller__operational_mode__auto_mode"><path d="M430.82,584.0837 C519.36,608.4237 764.9545,675.9237 967.7645,731.6637" fill="none" id="thermostat_controller__operational_mode__heating-to-thermostat_controller__operational_mode__auto_mode" style="stroke:#181818;stroke-width:1;"/><polygon fill="#181818" points="973.55,733.2537,965.9318,727.0117,968.7288,731.9287,963.8117,734.7256,973.55,733.2537" style="stroke:#181818;stroke-width:1;"/><text fill="#000000" font-family="sans-serif" font-size="13" lengthAdjust="spacing" textLength="129.5366" x="677.62" y="653.6606">Heating.EnableAuto</text></g><!--link thermostat_controller__operational_mode__cooling to thermostat_controller__operational_mode__auto_mode--><g class="link" data-entity-1="thermostat_controller__operational_mode__cooling" data-entity-2="thermostat_controller__operational_mode__auto_mode" data-source-line="53" data-uid="lnk16" id="link_thermostat_controller__operational_mode__cooling_thermostat_controller__operational_mode__auto_mode"><path d="M992.85,594.4637 C1015.78,613.1737 1048.0609,639.5209 1087.2109,671.4609" fill="none" id="thermostat_controller__operational_mode__cooling-to-thermostat_controller__operational_mode__auto_mode" style="stroke:#181818;stroke-width:1;"/><polygon fill="#181818" points="1091.86,675.2537,1087.415,666.465,1087.9858,672.093,1082.3578,672.6638,1091.86,675.2537" style="stroke:#181818;stroke-width:1;"/><text fill="#000000" font-family="sans-serif" font-size="13" lengthAdjust="spacing" textLength="127.2959" x="1063.92" y="653.6606">Cooling.EnableAuto</text></g><!--link thermostat_controller__operational_mode__auto_mode to thermostat_controller__operational_mode__idle--><g class="link" data-entity-1="thermostat_controller__operational_mode__auto_mode" data-entity-2="thermostat_controller__operational_mode__idle" data-source-line="54" data-uid="lnk17" id="link_thermostat_controller__operational_mode__auto_mode_thermostat_controller__operational_mode__idle"><path d="M1393.44,675.1137 C1423.22,628.7437 1440.4,575.9237 1419.12,525.5937 C1394.27,466.8337 1374.35,451.6837 1316.12,425.5937 C1227.16,385.7437 923.6194,386.8214 832.5194,388.0714" fill="none" id="thermostat_controller__operational_mode__auto_mode-to-thermostat_controller__operational_mode__idle" style="stroke:#181818;stroke-width:1;"/><polygon fill="#181818" points="826.52,388.1537,835.574,392.0299,831.5195,388.0852,835.4643,384.0306,826.52,388.1537" style="stroke:#181818;stroke-width:1;"/><text fill="#000000" font-family="sans-serif" font-size="13" lengthAdjust="spacing" textLength="148.1416" x="1442.2201" y="538.6606">AutoMode.DisableAuto</text><path d="M1433.58,547.7266 L1433.58,617.7266 L1598.58,617.7266 L1598.58,557.7266 L1588.58,547.7266 L1433.58,547.7266" fill="#FEFFDD" style="stroke:#181818;stroke-width:0.5;"/><path d="M1588.58,547.7266 L1588.58,557.7266 L1598.58,557.7266 L1588.58,547.7266" fill="#FEFFDD" style="stroke:#181818;stroke-width:0.5;"/><text fill="#000000" font-family="sans-serif" font-size="13" lengthAdjust="spacing" textLength="49.7974" x="1439.58" y="564.7935">effect {</text><text fill="#000000" font-family="sans-serif" font-size="13" lengthAdjust="spacing" textLength="127.8926" x="1456.1093" y="579.9263">heating_power = 0;</text><text fill="#000000" font-family="sans-serif" font-size="13" lengthAdjust="spacing" textLength="125.2583" x="1456.1093" y="595.0591">cooling_power = 0;</text><text fill="#000000" font-family="sans-serif" font-size="13" lengthAdjust="spacing" textLength="8.271" x="1439.58" y="610.1919">}</text></g><!--link thermostat_controller__operational_mode__heating to thermostat_controller__operational_mode__idle--><g class="link" data-entity-1="thermostat_controller__operational_mode__heating" data-entity-2="thermostat_controller__operational_mode__idle" data-source-line="61" data-uid="lnk18" id="link_thermostat_controller__operational_mode__heating_thermostat_controller__operational_mode__idle"><path d="M431.04,556.2437 C450.21,544.8837 473.44,528.2137 488.12,507.5937 C510.22,476.5637 484.01,450.1837 513.12,425.5937 C552.5,392.3337 706.75,388.619 769.62,388.459" fill="none" id="thermostat_controller__operational_mode__heating-to-thermostat_controller__operational_mode__idle-1" style="stroke:#181818;stroke-width:1;"/><polygon fill="#181818" points="775.62,388.4437,766.6098,384.4667,770.62,388.4565,766.6302,392.4666,775.62,388.4437" style="stroke:#181818;stroke-width:1;"/><text fill="#000000" font-family="sans-serif" font-size="13" lengthAdjust="spacing" textLength="140.0547" x="517.6798" y="438.6606">heating_power &gt; 100</text><path d="M518.12,447.7266 L518.12,502.7266 L657.12,502.7266 L657.12,457.7266 L647.12,447.7266 L518.12,447.7266" fill="#FEFFDD" style="stroke:#181818;stroke-width:0.5;"/><path d="M647.12,447.7266 L647.12,457.7266 L657.12,457.7266 L647.12,447.7266" fill="#FEFFDD" style="stroke:#181818;stroke-width:0.5;"/><text fill="#000000" font-family="sans-serif" font-size="13" lengthAdjust="spacing" textLength="49.7974" x="524.12" y="464.7935">effect {</text><text fill="#000000" font-family="sans-serif" font-size="13" lengthAdjust="spacing" textLength="101.645" x="540.6493" y="479.9263">error_code = 1;</text><text fill="#000000" font-family="sans-serif" font-size="13" lengthAdjust="spacing" textLength="8.271" x="524.12" y="495.0591">}</text></g><!--link thermostat_controller__operational_mode__cooling to thermostat_controller__operational_mode__idle--><g class="link" data-entity-1="thermostat_controller__operational_mode__cooling" data-entity-2="thermostat_controller__operational_mode__idle" data-source-line="67" data-uid="lnk19" id="link_thermostat_controller__operational_mode__cooling_thermostat_controller__operational_mode__idle"><path d="M1000.8,569.6637 C1037.17,563.8437 1095.23,548.3537 1122.12,507.5937 C1142.19,477.1737 1146.37,452.8037 1122.12,425.5937 C1102.52,403.6137 905.0643,393.0559 832.5843,389.8859" fill="none" id="thermostat_controller__operational_mode__cooling-to-thermostat_controller__operational_mode__idle-1" style="stroke:#181818;stroke-width:1;"/><polygon fill="#181818" points="826.59,389.6237,835.4066,394.0132,831.5852,389.8422,835.7562,386.0208,826.59,389.6237" style="stroke:#181818;stroke-width:1;"/><text fill="#000000" font-family="sans-serif" font-size="13" lengthAdjust="spacing" textLength="137.4204" x="1144.657" y="438.6606">cooling_power &gt; 100</text><path d="M1143.78,447.7266 L1143.78,502.7266 L1282.78,502.7266 L1282.78,457.7266 L1272.78,447.7266 L1143.78,447.7266" fill="#FEFFDD" style="stroke:#181818;stroke-width:0.5;"/><path d="M1272.78,447.7266 L1272.78,457.7266 L1282.78,457.7266 L1272.78,447.7266" fill="#FEFFDD" style="stroke:#181818;stroke-width:0.5;"/><text fill="#000000" font-family="sans-serif" font-size="13" lengthAdjust="spacing" textLength="49.7974" x="1149.78" y="464.7935">effect {</text><text fill="#000000" font-family="sans-serif" font-size="13" lengthAdjust="spacing" textLength="101.645" x="1166.3093" y="479.9263">error_code = 2;</text><text fill="#000000" font-family="sans-serif" font-size="13" lengthAdjust="spacing" textLength="8.271" x="1149.78" y="495.0591">}</text></g><rect fill="#F1F1F1" height="40" rx="12.5" ry="12.5" style="stroke:#181818;stroke-width:0.5;" width="100.1592" x="953.21" y="1077.8869"/><text fill="#000000" font-family="sans-serif" font-size="14" lengthAdjust="spacing" textLength="90.1592" x="958.21" y="1102.7336">Maintenance</text><rect fill="#F1F1F1" height="40" rx="12.5" ry="12.5" style="stroke:#181818;stroke-width:0.5;" width="81.7363" x="1542.42" y="1077.8869"/><text fill="#000000" font-family="sans-serif" font-size="14" lengthAdjust="spacing" textLength="71.7363" x="1547.42" y="1102.7336">ErrorState</text><ellipse cx="1643.29" cy="133.2969" fill="#222222" rx="10" ry="10" style="stroke:#222222;stroke-width:1;"/><ellipse cx="1003.29" cy="1181.8869" fill="none" rx="11" ry="11" style="stroke:#222222;stroke-width:1;"/><ellipse cx="1003.29" cy="1181.8869" fill="#222222" rx="6" ry="6" style="stroke:#222222;stroke-width:1;"/><!--link *start*thermostat_controller to thermostat_controller__initializing--><g class="link" data-entity-1="*start*thermostat_controller" data-entity-2="thermostat_controller__initializing" data-source-line="76" data-uid="lnk21" id="link_*start*thermostat_controller_thermostat_controller__initializing"><path d="M1643.29,143.6069 C1643.29,153.0169 1643.29,161.8269 1643.29,173.8169" fill="none" id="*start*thermostat_controller-to-thermostat_controller__initializing" style="stroke:#181818;stroke-width:1;"/><polygon fill="#181818" points="1643.29,179.8169,1647.29,170.8169,1643.29,174.8169,1639.29,170.8169,1643.29,179.8169" style="stroke:#181818;stroke-width:1;"/></g><!--link thermostat_controller__initializing to thermostat_controller__operational_mode--><g class="link" data-entity-1="thermostat_controller__initializing" data-entity-2="thermostat_controller__operational_mode" data-source-line="77" data-uid="lnk22" id="link_thermostat_controller__initializing_thermostat_controller__operational_mode"><path d="M1602.09,211.3569 C1577.61,217.8869 1546.19,227.2169 1519.29,238.2969 C1492.78,249.1969 1471.4311,258.3338 1444.5311,270.4438" fill="none" id="thermostat_controller__initializing-to-thermostat_controller__operational_mode" style="stroke:#181818;stroke-width:1;"/><polygon fill="#181818" points="1439.06,272.9069,1448.9087,272.8598,1443.6193,270.8543,1445.6247,265.5649,1439.06,272.9069" style="stroke:#181818;stroke-width:1;"/><text fill="#000000" font-family="sans-serif" font-size="13" lengthAdjust="spacing" textLength="108.1577" x="1520.29" y="251.3638">error_code == 0</text></g><!--link thermostat_controller__operational_mode to thermostat_controller__maintenance--><g class="link" data-entity-1="thermostat_controller__operational_mode" data-entity-2="thermostat_controller__maintenance" data-source-line="78" data-uid="lnk23" id="link_thermostat_controller__operational_mode_thermostat_controller__maintenance"><path d="M975.4,960.0569 C977.43,966.0269 979.4,971.9669 981.29,977.8869 C992.23,1012.1069 997.6532,1047.7499 1000.5232,1071.5999" fill="none" id="thermostat_controller__operational_mode-to-thermostat_controller__maintenance" style="stroke:#181818;stroke-width:1;"/><polygon fill="#181818" points="1001.24,1077.5569,1004.1361,1068.1434,1000.6426,1072.5927,996.1934,1069.0992,1001.24,1077.5569" style="stroke:#181818;stroke-width:1;"/><text fill="#000000" font-family="sans-serif" font-size="13" lengthAdjust="spacing" textLength="252.9351" x="999.84" y="1023.4538">OperationalMode.MaintenanceRequest</text></g><!--link thermostat_controller__maintenance to thermostat_controller__operational_mode--><g class="link" data-entity-1="thermostat_controller__maintenance" data-entity-2="thermostat_controller__operational_mode" data-source-line="79" data-uid="lnk24" id="link_thermostat_controller__maintenance_thermostat_controller__operational_mode"><path d="M952.71,1087.1569 C935.2,1083.9669 915.42,1080.5569 897.29,1077.8869 C862.77,1072.8069 764.51,1085.9369 741.29,1059.8869 C724.82,1041.4069 720.5165,1010.7782 724.0465,966.1882" fill="none" id="thermostat_controller__maintenance-to-thermostat_controller__operational_mode" style="stroke:#181818;stroke-width:1;"/><polygon fill="#181818" points="724.52,960.2069,719.8222,968.8631,724.1254,965.1913,727.7973,969.4945,724.52,960.2069" style="stroke:#181818;stroke-width:1;"/><text fill="#000000" font-family="sans-serif" font-size="13" lengthAdjust="spacing" textLength="234.2222" x="742.29" y="1023.4538">Maintenance.MaintenanceComplete</text></g><!--link thermostat_controller__initializing to thermostat_controller__error_state--><g class="link" data-entity-1="thermostat_controller__initializing" data-entity-2="thermostat_controller__error_state" data-source-line="80" data-uid="lnk25" id="link_thermostat_controller__initializing_thermostat_controller__error_state"><path d="M1643.95,220.4669 C1647.91,340.1669 1667.28,982.2069 1629.29,1059.8869 C1625.96,1066.6969 1625.2322,1068.7236 1619.4522,1073.7636" fill="none" id="thermostat_controller__initializing-to-thermostat_controller__error_state" style="stroke:#181818;stroke-width:1;"/><polygon fill="#181818" points="1614.93,1077.7069,1624.3422,1074.8068,1618.6985,1074.4208,1619.0845,1068.7771,1614.93,1077.7069" style="stroke:#181818;stroke-width:1;"/><text fill="#000000" font-family="sans-serif" font-size="13" lengthAdjust="spacing" textLength="102.4766" x="1653.4" y="621.1538">error_code != 0</text></g><!--link thermostat_controller__operational_mode to thermostat_controller__error_state--><g class="link" data-entity-1="thermostat_controller__operational_mode" data-entity-2="thermostat_controller__error_state" data-source-line="81" data-uid="lnk26" id="link_thermostat_controller__operational_mode_thermostat_controller__error_state"><path d="M1481.55,960.1669 C1486.91,965.9869 1492.16,971.8969 1497.29,977.8869 C1522.32,1007.1569 1501.5,1029.6069 1525.29,1059.8869 C1530.6,1066.6469 1532.5812,1069.1298 1539.7712,1074.0898" fill="none" id="thermostat_controller__operational_mode-to-thermostat_controller__error_state" style="stroke:#181818;stroke-width:1;"/><polygon fill="#181818" points="1544.71,1077.4969,1539.5731,1069.0938,1540.5943,1074.6577,1535.0304,1075.6789,1544.71,1077.4969" style="stroke:#181818;stroke-width:1;"/><text fill="#000000" font-family="sans-serif" font-size="13" lengthAdjust="spacing" textLength="102.4766" x="1526.29" y="1023.4538">error_code != 0</text></g><!--link thermostat_controller__error_state to thermostat_controller__initializing--><g class="link" data-entity-1="thermostat_controller__error_state" data-entity-2="thermostat_controller__initializing" data-source-line="82" data-uid="lnk27" id="link_thermostat_controller__error_state_thermostat_controller__initializing"><path d="M1624.65,1079.4869 C1668.32,1058.4869 1734.35,1018.5269 1760.29,959.8869 C1883.74,680.8169 1909.14,539.6769 1760.29,273.2969 C1744.18,244.4569 1716.7943,228.0406 1689.9643,216.9406" fill="none" id="thermostat_controller__error_state-to-thermostat_controller__initializing" style="stroke:#181818;stroke-width:1;"/><polygon fill="#181818" points="1684.42,214.6469,1691.2072,221.7837,1689.0402,216.5583,1694.2655,214.3913,1684.42,214.6469" style="stroke:#181818;stroke-width:1;"/><text fill="#000000" font-family="sans-serif" font-size="13" lengthAdjust="spacing" textLength="107.6436" x="1883.3954" y="588.6538">ErrorState.Reset</text><path d="M1867.63,597.7197 L1867.63,652.7197 L2006.63,652.7197 L2006.63,607.7197 L1996.63,597.7197 L1867.63,597.7197" fill="#FEFFDD" style="stroke:#181818;stroke-width:0.5;"/><path d="M1996.63,597.7197 L1996.63,607.7197 L2006.63,607.7197 L1996.63,597.7197" fill="#FEFFDD" style="stroke:#181818;stroke-width:0.5;"/><text fill="#000000" font-family="sans-serif" font-size="13" lengthAdjust="spacing" textLength="49.7974" x="1873.63" y="614.7866">effect {</text><text fill="#000000" font-family="sans-serif" font-size="13" lengthAdjust="spacing" textLength="101.645" x="1890.1593" y="629.9194">error_code = 0;</text><text fill="#000000" font-family="sans-serif" font-size="13" lengthAdjust="spacing" textLength="8.271" x="1873.63" y="645.0522">}</text></g><!--link thermostat_controller__operational_mode to thermostat_controller__maintenance--><g class="link" data-entity-1="thermostat_controller__operational_mode" data-entity-2="thermostat_controller__maintenance" data-source-line="88" data-uid="lnk28" id="link_thermostat_controller__operational_mode_thermostat_controller__maintenance"><path d="M1248.36,960.2769 C1251.48,966.0769 1254.46,971.9469 1257.29,977.8869 C1272.96,1010.7869 1281.13,1032.3169 1257.29,1059.8869 C1231.53,1089.6769 1126.2593,1095.8729 1059.8393,1096.9129" fill="none" id="thermostat_controller__operational_mode-to-thermostat_controller__maintenance-1" style="stroke:#181818;stroke-width:1;"/><polygon fill="#181818" points="1053.84,1097.0069,1062.9015,1100.8655,1058.8394,1096.9286,1062.7763,1092.8665,1053.84,1097.0069" style="stroke:#181818;stroke-width:1;"/><text fill="#000000" font-family="sans-serif" font-size="13" lengthAdjust="spacing" textLength="193.9272" x="1285.8081" y="990.9538">maintenance_counter &gt; 1000</text><path d="M1277.26,1000.0197 L1277.26,1055.0197 L1488.26,1055.0197 L1488.26,1010.0197 L1478.26,1000.0197 L1277.26,1000.0197" fill="#FEFFDD" style="stroke:#181818;stroke-width:0.5;"/><path d="M1478.26,1000.0197 L1478.26,1010.0197 L1488.26,1010.0197 L1478.26,1000.0197" fill="#FEFFDD" style="stroke:#181818;stroke-width:0.5;"/><text fill="#000000" font-family="sans-serif" font-size="13" lengthAdjust="spacing" textLength="49.7974" x="1283.26" y="1017.0866">effect {</text><text fill="#000000" font-family="sans-serif" font-size="13" lengthAdjust="spacing" textLength="173.4941" x="1299.7893" y="1032.2194">maintenance_counter = 0;</text><text fill="#000000" font-family="sans-serif" font-size="13" lengthAdjust="spacing" textLength="8.271" x="1283.26" y="1047.3522">}</text></g><!--link thermostat_controller__operational_mode to *end*thermostat_controller--><g class="link" data-entity-1="thermostat_controller__operational_mode" data-entity-2="*end*thermostat_controller" data-source-line="94" data-uid="lnk30" id="link_thermostat_controller__operational_mode_*end*thermostat_controller"><path d="M712.31,960.1169 C712.12,994.0269 715.91,1027.7569 725.29,1059.8869 C733.86,1089.2369 737.57,1099.8869 762.29,1117.8869 C837.11,1172.3569 949.2521,1179.6286 986.0021,1180.5986" fill="none" id="thermostat_controller__operational_mode-to-*end*thermostat_controller" style="stroke:#181818;stroke-width:1;"/><polygon fill="#181818" points="992,1180.7569,983.1087,1176.5208,987.0017,1180.6249,982.8976,1184.518,992,1180.7569" style="stroke:#181818;stroke-width:1;"/><text fill="#000000" font-family="sans-serif" font-size="13" lengthAdjust="spacing" textLength="180.7305" x="763.29" y="1102.4538">OperationalMode.Shutdown</text></g><!--link thermostat_controller__maintenance to *end*thermostat_controller--><g class="link" data-entity-1="thermostat_controller__maintenance" data-entity-2="*end*thermostat_controller" data-source-line="95" data-uid="lnk31" id="link_thermostat_controller__maintenance_*end*thermostat_controller"><path d="M1003.29,1118.3169 C1003.29,1134.7969 1003.29,1151.7869 1003.29,1164.8169" fill="none" id="thermostat_controller__maintenance-to-*end*thermostat_controller" style="stroke:#181818;stroke-width:1;"/><polygon fill="#181818" points="1003.29,1170.8169,1007.29,1161.8169,1003.29,1165.8169,999.29,1161.8169,1003.29,1170.8169" style="stroke:#181818;stroke-width:1;"/><text fill="#000000" font-family="sans-serif" font-size="13" lengthAdjust="spacing" textLength="152.7563" x="1004.29" y="1148.9538">Maintenance.Shutdown</text></g><!--link thermostat_controller__error_state to *end*thermostat_controller--><g class="link" data-entity-1="thermostat_controller__error_state" data-entity-2="*end*thermostat_controller" data-source-line="96" data-uid="lnk32" id="link_thermostat_controller__error_state_*end*thermostat_controller"><path d="M1542.04,1104.7169 C1422.48,1121.6269 1085.9608,1169.1964 1020.2208,1178.4964" fill="none" id="thermostat_controller__error_state-to-*end*thermostat_controller" style="stroke:#181818;stroke-width:1;"/><polygon fill="#181818" points="1014.28,1179.3369,1023.7516,1182.0368,1019.2307,1178.6365,1022.631,1174.1157,1014.28,1179.3369" style="stroke:#181818;stroke-width:1;"/><text fill="#000000" font-family="sans-serif" font-size="13" lengthAdjust="spacing" textLength="179.8228" x="1311.68" y="1148.9538">ErrorState.ForcedShutdown</text></g><ellipse cx="1011.32" cy="16" fill="#222222" rx="10" ry="10" style="stroke:#222222;stroke-width:1;"/><ellipse cx="1011.32" cy="1273.89" fill="none" rx="11" ry="11" style="stroke:#222222;stroke-width:1;"/><ellipse cx="1011.32" cy="1273.89" fill="#222222" rx="6" ry="6" style="stroke:#222222;stroke-width:1;"/><!--link *start* to thermostat_controller--><g class="link" data-entity-1="*start*" data-entity-2="thermostat_controller" data-source-line="98" data-uid="lnk34" id="link_*start*_thermostat_controller"><path d="M1011.32,26.34 C1011.32,37.57 1011.32,52.36 1011.32,79.74" fill="none" id="*start*-to-thermostat_controller" style="stroke:#181818;stroke-width:1;"/><polygon fill="#181818" points="1011.32,85.74,1015.32,76.74,1011.32,80.74,1007.32,76.74,1011.32,85.74" style="stroke:#181818;stroke-width:1;"/></g><!--link thermostat_controller to *end*--><g class="link" data-entity-1="thermostat_controller" data-entity-2="*end*" data-source-line="99" data-uid="lnk36" id="link_thermostat_controller_*end*"><path d="M1011.32,1203.35 C1011.32,1230.34 1011.32,1245.02 1011.32,1256.56" fill="none" id="thermostat_controller-to-*end*" style="stroke:#181818;stroke-width:1;"/><polygon fill="#181818" points="1011.32,1262.56,1015.32,1253.56,1011.32,1257.56,1007.32,1253.56,1011.32,1262.56" style="stroke:#181818;stroke-width:1;"/></g><!--SRC=[pLXTRzCm57tFhp1z1BLgnnjhAx6o0H8JqhOtX28JtxPM4piuZgQ2-jzn6ZTrd13Y91hTKr9VdtlkkH-njwK444Int2C2II1eB2bddfViA8knm15A99Q0Vdi8tU1Wjn4yPMJ5GoxcypY1bF3b4dsXcwtyAF2-pYhWKSmJAk5aU1Eca1boGK3OK1hbZZFvAFSX64jKuf06ta6nEt8QFMr1H3nxMIbpmSCGn0ZX1CbYmG-A5LIcaaM4T7IZpunAgj1_KRRvEuBlKyFEtFyr1e4pvN1upmaqGV2pgHyfsrfQ9ZKIEk4facg7ZV89b4rpR5MWRRx9nbfn7ZfZ1Vac6-jzAhchOhwFrQvcyImNdS8llEX7MmxBHoTPR1-sJ9OFzsAm7PIA8_lxzlex6e-N0oBsGkh7HQS8lKD1AWGmwKirtD0SIImseD_6wEfI-EfqstoN9RvlXk9xKgTtkYjy5oRXOSYUf1cSxBoUxC7ht16b3d3QvUQdPNNF2YwCgy716L92xeeVORs6G5gpSesPdyG012tGrNMDAC384UubucpP5NtZV3jid9swow6RkWKv6pR8Jbtfq8KN4MIFkQx2pBxHark6VuIGVR9Vg91C1lgqquj4l_6hIEZZK2yIPxmkzNOwMqu-qAJ2eNsXwNJuCNzMbuW5cbwNbhLGTSl_UwgKcI_HR3hj43y8mOLogB9mMUEa9FmWqVtxotSmRtttc3893BEWyL0UdStCtRUPvyVikMbppk-unMjnEAbSK5lOkQYlT3SLK-NkEIIyoPEXad9YNQWdXjGFy3E5H3RvDR7SWZFyc3vNwf8PWav1JqcDZ9RLV3MWcfsTc1jRrfboSAxboGCaa2UdqeIL1YmrdnwSUOULccxmwZBUb5MgdlK0cROaNWSmL0HPXrSRu76RIiAVcKlPvqXcIRT1iIiWHp4oVCT50AI0EdYDCych_sUSHlu3]--></g></svg>