<?xml version="1.0" encoding="us-ascii" standalone="no"?><svg xmlns="http://www.w3.org/2000/svg" xmlns:xlink="http://www.w3.org/1999/xlink" contentStyleType="text/css" height="1472px" preserveAspectRatio="none" style="width:2010px;height:1472px;background:#FFFFFF;" version="1.1" viewBox="0 0 2010 1472" width="2010px" zoomAndPan="magnify"><defs/><g><rect fill="#DDDDDD" height="160.6719" id="_legend" rx="7.5" ry="7.5" style="stroke:#000000;stroke-width:1.0;" width="318" x="12" y="12"/><text fill="#000000" font-family="sans-serif" font-size="14" font-weight="bold" lengthAdjust="spacing" textLength="64" x="22" y="31.9951">Variable</text><text fill="#000000" font-family="sans-serif" font-size="14" font-weight="bold" lengthAdjust="spacing" textLength="39" x="181" y="31.9951">Type</text><text fill="#000000" font-family="sans-serif" font-size="14" font-weight="bold" lengthAdjust="spacing" textLength="90" x="230" y="31.9951">Initial Value</text><text fill="#000000" font-family="sans-serif" font-size="14" lengthAdjust="spacing" textLength="93" x="21" y="48.292">current_temp</text><text fill="#000000" font-family="sans-serif" font-size="14" lengthAdjust="spacing" textLength="17" x="180" y="48.292">int</text><text fill="#000000" font-family="sans-serif" font-size="14" lengthAdjust="spacing" textLength="18" x="229" y="48.292">20</text><text fill="#000000" font-family="sans-serif" font-size="14" lengthAdjust="spacing" textLength="84" x="21" y="64.5889">target_temp</text><text fill="#000000" font-family="sans-serif" font-size="14" lengthAdjust="spacing" textLength="17" x="180" y="64.5889">int</text><text fill="#000000" font-family="sans-serif" font-size="14" lengthAdjust="spacing" textLength="18" x="229" y="64.5889">22</text><text fill="#000000" font-family="sans-serif" font-size="14" lengthAdjust="spacing" textLength="102" x="21" y="80.8857">heating_power</text><text fill="#000000" font-family="sans-serif" font-size="14" lengthAdjust="spacing" textLength="17" x="180" y="80.8857">int</text><text fill="#000000" font-family="sans-serif" font-size="14" lengthAdjust="spacing" textLength="9" x="229" y="80.8857">0</text><text fill="#000000" font-family="sans-serif" font-size="14" lengthAdjust="spacing" textLength="100" x="21" y="97.1826">cooling_power</text><text fill="#000000" font-family="sans-serif" font-size="14" lengthAdjust="spacing" textLength="17" x="180" y="97.1826">int</text><text fill="#000000" font-family="sans-serif" font-size="14" lengthAdjust="spacing" textLength="9" x="229" y="97.1826">0</text><text fill="#000000" font-family="sans-serif" font-size="14" lengthAdjust="spacing" textLength="72" x="21" y="113.4795">fan_speed</text><text fill="#000000" font-family="sans-serif" font-size="14" lengthAdjust="spacing" textLength="17" x="180" y="113.4795">int</text><text fill="#000000" font-family="sans-serif" font-size="14" lengthAdjust="spacing" textLength="9" x="229" y="113.4795">0</text><text fill="#000000" font-family="sans-serif" font-size="14" lengthAdjust="spacing" textLength="75" x="21" y="129.7764">error_code</text><text fill="#000000" font-family="sans-serif" font-size="14" lengthAdjust="spacing" textLength="17" x="180" y="129.7764">int</text><text fill="#000000" font-family="sans-serif" font-size="14" lengthAdjust="spacing" textLength="9" x="229" y="129.7764">0</text><text fill="#000000" font-family="sans-serif" font-size="14" lengthAdjust="spacing" textLength="100" x="21" y="146.0732">runtime_hours</text><text fill="#000000" font-family="sans-serif" font-size="14" lengthAdjust="spacing" textLength="17" x="180" y="146.0732">int</text><text fill="#000000" font-family="sans-serif" font-size="14" lengthAdjust="spacing" textLength="9" x="229" y="146.0732">0</text><text fill="#000000" font-family="sans-serif" font-size="14" lengthAdjust="spacing" textLength="151" x="21" y="162.3701">maintenance_counter</text><text fill="#000000" font-family="sans-serif" font-size="14" lengthAdjust="spacing" textLength="17" x="180" y="162.3701">int</text><text fill="#000000" font-family="sans-serif" font-size="14" lengthAdjust="spacing" textLength="9" x="229" y="162.3701">0</text><line style="stroke:#000000;stroke-width:1.0;" x1="17" x2="325" y1="19" y2="19"/><line style="stroke:#000000;stroke-width:1.0;" x1="17" x2="325" y1="35.2969" y2="35.2969"/><line style="stroke:#000000;stroke-width:1.0;" x1="17" x2="325" y1="51.5938" y2="51.5938"/><line style="stroke:#000000;stroke-width:1.0;" x1="17" x2="325" y1="67.8906" y2="67.8906"/><line style="stroke:#000000;stroke-width:1.0;" x1="17" x2="325" y1="84.1875" y2="84.1875"/><line style="stroke:#000000;stroke-width:1.0;" x1="17" x2="325" y1="100.4844" y2="100.4844"/><line style="stroke:#000000;stroke-width:1.0;" x1="17" x2="325" y1="116.7813" y2="116.7813"/><line style="stroke:#000000;stroke-width:1.0;" x1="17" x2="325" y1="133.0781" y2="133.0781"/><line style="stroke:#000000;stroke-width:1.0;" x1="17" x2="325" y1="149.375" y2="149.375"/><line style="stroke:#000000;stroke-width:1.0;" x1="17" x2="325" y1="165.6719" y2="165.6719"/><line style="stroke:#000000;stroke-width:1.0;" x1="17" x2="17" y1="19" y2="165.6719"/><line style="stroke:#000000;stroke-width:1.0;" x1="176" x2="176" y1="19" y2="165.6719"/><line style="stroke:#000000;stroke-width:1.0;" x1="225" x2="225" y1="19" y2="165.6719"/><line style="stroke:#000000;stroke-width:1.0;" x1="325" x2="325" y1="19" y2="165.6719"/><path d="M19.5,271.6719 L1984,271.6719 A12.5,12.5 0 0 1 1996.5,284.1719 L1996.5,297.9688 L7,297.9688 L7,284.1719 A12.5,12.5 0 0 1 19.5,271.6719 " fill="#ADD8E6" style="stroke:#ADD8E6;stroke-width:1.0;"/><rect fill="none" height="1115.2969" rx="12.5" ry="12.5" style="stroke:#181818;stroke-width:0.5;" width="1989.5" x="7" y="271.6719"/><line style="stroke:#181818;stroke-width:0.5;" x1="7" x2="1996.5" y1="297.9688" y2="297.9688"/><text fill="#000000" font-family="sans-serif" font-size="14" lengthAdjust="spacing" textLength="147" x="928.25" y="289.667">ThermostatController</text><rect fill="#F1F1F1" height="40" rx="12.5" ry="12.5" style="stroke:#181818;stroke-width:0.5;" width="76" x="1590.5" y="365.9688"/><text fill="#000000" font-family="sans-serif" font-size="14" lengthAdjust="spacing" textLength="66" x="1595.5" y="390.8154">Initializing</text><path d="M31.5,458.9688 L1579.62,458.9688 A12.5,12.5 0 0 1 1592.12,471.4688 L1592.12,485.2656 L19,485.2656 L19,471.4688 A12.5,12.5 0 0 1 31.5,458.9688 " fill="#ADD8E6" style="stroke:#ADD8E6;stroke-width:1.0;"/><rect fill="none" height="686.5938" rx="12.5" ry="12.5" style="stroke:#181818;stroke-width:0.5;" width="1573.12" x="19" y="458.9688"/><line style="stroke:#181818;stroke-width:0.5;" x1="19" x2="1592.12" y1="485.2656" y2="485.2656"/><text fill="#000000" font-family="sans-serif" font-size="14" lengthAdjust="spacing" textLength="118" x="746.56" y="476.9639">OperationalMode</text><rect fill="#F1F1F1" height="40" rx="12.5" ry="12.5" style="stroke:#181818;stroke-width:0.5;" width="50" x="772.12" y="553.2656"/><text fill="#000000" font-family="sans-serif" font-size="14" lengthAdjust="spacing" textLength="24" x="785.12" y="578.1123">Idle</text><rect fill="#F1F1F1" height="40" rx="12.5" ry="12.5" style="stroke:#181818;stroke-width:0.5;" width="63" x="365.62" y="739.7656"/><text fill="#000000" font-family="sans-serif" font-size="14" lengthAdjust="spacing" textLength="53" x="370.62" y="764.6123">Heating</text><rect fill="#F1F1F1" height="40" rx="12.5" ry="12.5" style="stroke:#181818;stroke-width:0.5;" width="62" x="933.12" y="739.7656"/><text fill="#000000" font-family="sans-serif" font-size="14" lengthAdjust="spacing" textLength="52" x="938.12" y="764.6123">Cooling</text><path d="M980.62,861.2656 L1523.87,861.2656 A12.5,12.5 0 0 1 1536.37,873.7656 L1536.37,887.5625 L968.12,887.5625 L968.12,873.7656 A12.5,12.5 0 0 1 980.62,861.2656 " fill="#ADD8E6" style="stroke:#ADD8E6;stroke-width:1.0;"/><rect fill="none" height="274.2969" rx="12.5" ry="12.5" style="stroke:#181818;stroke-width:0.5;" width="568.25" x="968.12" y="861.2656"/><line style="stroke:#181818;stroke-width:0.5;" x1="968.12" x2="1536.37" y1="887.5625" y2="887.5625"/><text fill="#000000" font-family="sans-serif" font-size="14" lengthAdjust="spacing" textLength="71" x="1216.745" y="879.2607">AutoMode</text><rect fill="#F1F1F1" height="40" rx="12.5" ry="12.5" style="stroke:#181818;stroke-width:0.5;" width="95" x="1067.87" y="899.5625"/><text fill="#000000" font-family="sans-serif" font-size="14" lengthAdjust="spacing" textLength="85" x="1072.87" y="924.4092">AutoHeating</text><rect fill="#F1F1F1" height="40" rx="12.5" ry="12.5" style="stroke:#181818;stroke-width:0.5;" width="94" x="1179.37" y="1085.5625"/><text fill="#000000" font-family="sans-serif" font-size="14" lengthAdjust="spacing" textLength="84" x="1184.37" y="1110.4092">AutoCooling</text><rect fill="#F1F1F1" height="40" rx="12.5" ry="12.5" style="stroke:#181818;stroke-width:0.5;" width="66" x="1193.37" y="992.5625"/><text fill="#000000" font-family="sans-serif" font-size="14" lengthAdjust="spacing" textLength="56" x="1198.37" y="1017.4092">AutoIdle</text><ellipse cx="1450.37" cy="919.5625" fill="#181818" rx="10" ry="10" style="stroke:none;stroke-width:1.0;"/><!--link *start*thermostat_controller__operational_mode__auto_mode to thermostat_controller__operational_mode__auto_mode__auto_idle--><g id="link_*start*thermostat_controller__operational_mode__auto_mode_thermostat_controller__operational_mode__auto_mode__auto_idle"><path d="M1449.5,929.7825 C1447.83,941.9925 1443.02,963.2925 1429.37,974.5625 C1404.89,994.7625 1317.06,1004.7225 1265.3,1008.9425 " fill="none" id="*start*thermostat_controller__operational_mode__auto_mode-to-thermostat_controller__operational_mode__auto_mode__auto_idle" style="stroke:#181818;stroke-width:1.0;"/><polygon fill="#181818" points="1260.48,1009.4025,1269.7711,1012.6699,1265.464,1009.0026,1269.1313,1004.6956,1260.48,1009.4025" style="stroke:#181818;stroke-width:1.0;"/></g><!--link thermostat_controller__operational_mode__auto_mode__auto_idle to thermostat_controller__operational_mode__auto_mode__auto_heating--><g id="link_thermostat_controller__operational_mode__auto_mode__auto_idle_thermostat_controller__operational_mode__auto_mode__auto_heating"><path d="M1222.44,992.2425 C1219.25,980.8925 1213.71,966.9725 1204.37,957.5625 C1194.46,947.5925 1181.48,940.1725 1168.5,934.7225 " fill="none" id="thermostat_controller__operational_mode__auto_mode__auto_idle-to-thermostat_controller__operational_mode__auto_mode__auto_heating" style="stroke:#181818;stroke-width:1.0;"/><polygon fill="#181818" points="1163.94,932.4925,1170.8107,939.5489,1168.5824,934.3495,1173.7819,932.1211,1163.94,932.4925" style="stroke:#181818;stroke-width:1.0;"/><text fill="#000000" font-family="sans-serif" font-size="13" lengthAdjust="spacing" textLength="207" x="1217.37" y="970.6294">current_temp &lt; target_temp - 2</text></g><!--link thermostat_controller__operational_mode__auto_mode__auto_idle to thermostat_controller__operational_mode__auto_mode__auto_cooling--><g id="link_thermostat_controller__operational_mode__auto_mode__auto_idle_thermostat_controller__operational_mode__auto_mode__auto_cooling"><path d="M1193.06,1013.9225 C1165.41,1016.2025 1127.62,1024.3425 1108.37,1050.5625 C1088.16,1078.0825 1133.23,1091.9425 1173.37,1098.6725 " fill="none" id="thermostat_controller__operational_mode__auto_mode__auto_idle-to-thermostat_controller__operational_mode__auto_mode__auto_cooling" style="stroke:#181818;stroke-width:1.0;"/><polygon fill="#181818" points="1178.25,1099.6125,1169.9896,1094.2492,1173.312,1098.8276,1168.7336,1102.15,1178.25,1099.6125" style="stroke:#181818;stroke-width:1.0;"/><text fill="#000000" font-family="sans-serif" font-size="13" lengthAdjust="spacing" textLength="213" x="1109.37" y="1063.6294">current_temp &gt; target_temp + 2</text></g><!--link thermostat_controller__operational_mode__auto_mode__auto_heating to thermostat_controller__operational_mode__auto_mode__auto_idle--><g id="link_thermostat_controller__operational_mode__auto_mode__auto_heating_thermostat_controller__operational_mode__auto_mode__auto_idle"><path d="M1067.42,926.7825 C1027.03,933.9825 979.12,948.3525 1001.37,974.5625 C1024.78,1002.1325 1129.4,1009.1925 1187.37,1010.9825 " fill="none" id="thermostat_controller__operational_mode__auto_mode__auto_heating-to-thermostat_controller__operational_mode__auto_mode__auto_idle" style="stroke:#181818;stroke-width:1.0;"/><polygon fill="#181818" points="1192.17,1011.1425,1183.2879,1006.8871,1187.172,1010.9997,1183.0594,1014.8838,1192.17,1011.1425" style="stroke:#181818;stroke-width:1.0;"/><text fill="#000000" font-family="sans-serif" font-size="13" lengthAdjust="spacing" textLength="197" x="1002.37" y="970.6294">current_temp &gt;= target_temp</text></g><!--link thermostat_controller__operational_mode__auto_mode__auto_cooling to thermostat_controller__operational_mode__auto_mode__auto_idle--><g id="link_thermostat_controller__operational_mode__auto_mode__auto_cooling_thermostat_controller__operational_mode__auto_mode__auto_idle"><path d="M1273.55,1096.0525 C1305.54,1088.0425 1339.33,1073.7325 1323.37,1050.5625 C1310.38,1031.7025 1286.39,1022.4525 1265.52,1017.9125 " fill="none" id="thermostat_controller__operational_mode__auto_mode__auto_cooling-to-thermostat_controller__operational_mode__auto_mode__auto_idle" style="stroke:#181818;stroke-width:1.0;"/><polygon fill="#181818" points="1260.73,1016.7525,1268.7644,1022.4489,1265.6318,1017.7386,1270.3421,1014.606,1260.73,1016.7525" style="stroke:#181818;stroke-width:1.0;"/><text fill="#000000" font-family="sans-serif" font-size="13" lengthAdjust="spacing" textLength="197" x="1329.37" y="1063.6294">current_temp &lt;= target_temp</text></g><ellipse cx="797.12" cy="506.2656" fill="#181818" rx="10" ry="10" style="stroke:none;stroke-width:1.0;"/><!--link *start*thermostat_controller__operational_mode to thermostat_controller__operational_mode__idle--><g id="link_*start*thermostat_controller__operational_mode_thermostat_controller__operational_mode__idle"><path d="M797.12,516.5756 C797.12,524.5156 797.12,536.3056 797.12,546.9956 " fill="none" id="*start*thermostat_controller__operational_mode-to-thermostat_controller__operational_mode__idle" style="stroke:#181818;stroke-width:1.0;"/><polygon fill="#181818" points="797.12,551.7856,801.12,542.7856,797.12,546.7856,793.12,542.7856,797.12,551.7856" style="stroke:#181818;stroke-width:1.0;"/></g><!--link thermostat_controller__operational_mode__idle to thermostat_controller__operational_mode__heating--><g id="link_thermostat_controller__operational_mode__idle_thermostat_controller__operational_mode__heating"><path d="M771.68,574.5656 C644.24,576.1656 80.34,584.7456 55.12,611.2656 C30,637.6656 31.9,665.1756 55.12,693.2656 C93.48,739.6756 279.25,753.5256 359.77,757.3756 " fill="none" id="thermostat_controller__operational_mode__idle-to-thermostat_controller__operational_mode__heating" style="stroke:#181818;stroke-width:1.0;"/><polygon fill="#181818" points="364.38,757.6356,355.5847,753.2037,359.3859,757.3931,355.1965,761.1943,364.38,757.6356" style="stroke:#181818;stroke-width:1.0;"/><text fill="#000000" font-family="sans-serif" font-size="13" lengthAdjust="spacing" textLength="207" x="56.12" y="624.3325">current_temp &lt; target_temp - 1</text><path d="M92.62,633.3984 L92.62,688.3984 L226.62,688.3984 L226.62,643.3984 L216.62,633.3984 L92.62,633.3984 " fill="#FEFFDD" style="stroke:#181818;stroke-width:0.5;"/><path d="M216.62,633.3984 L216.62,643.3984 L226.62,643.3984 L216.62,633.3984 " fill="#FEFFDD" style="stroke:#181818;stroke-width:0.5;"/><text fill="#000000" font-family="sans-serif" font-size="13" lengthAdjust="spacing" textLength="48" x="98.62" y="650.4653">effect {</text><text fill="#000000" font-family="sans-serif" font-size="13" lengthAdjust="spacing" textLength="97" x="114.62" y="665.5981">fan_speed = 2;</text><text fill="#000000" font-family="sans-serif" font-size="13" lengthAdjust="spacing" textLength="8" x="98.62" y="680.731">}</text></g><!--link thermostat_controller__operational_mode__idle to thermostat_controller__operational_mode__cooling--><g id="link_thermostat_controller__operational_mode__idle_thermostat_controller__operational_mode__cooling"><path d="M771.69,574.1056 C743.83,575.4656 700.28,582.4556 679.12,611.2656 C657.54,640.6356 656.42,664.7556 679.12,693.2656 C709.72,731.7056 856.97,749.4656 926.98,755.8356 " fill="none" id="thermostat_controller__operational_mode__idle-to-thermostat_controller__operational_mode__cooling" style="stroke:#181818;stroke-width:1.0;"/><polygon fill="#181818" points="931.7,756.3456,923.1028,751.5406,926.7209,755.8891,922.3724,759.5071,931.7,756.3456" style="stroke:#181818;stroke-width:1.0;"/><text fill="#000000" font-family="sans-serif" font-size="13" lengthAdjust="spacing" textLength="213" x="680.12" y="624.3325">current_temp &gt; target_temp + 1</text><path d="M719.62,633.3984 L719.62,688.3984 L853.62,688.3984 L853.62,643.3984 L843.62,633.3984 L719.62,633.3984 " fill="#FEFFDD" style="stroke:#181818;stroke-width:0.5;"/><path d="M843.62,633.3984 L843.62,643.3984 L853.62,643.3984 L843.62,633.3984 " fill="#FEFFDD" style="stroke:#181818;stroke-width:0.5;"/><text fill="#000000" font-family="sans-serif" font-size="13" lengthAdjust="spacing" textLength="48" x="725.62" y="650.4653">effect {</text><text fill="#000000" font-family="sans-serif" font-size="13" lengthAdjust="spacing" textLength="97" x="741.62" y="665.5981">fan_speed = 3;</text><text fill="#000000" font-family="sans-serif" font-size="13" lengthAdjust="spacing" textLength="8" x="725.62" y="680.731">}</text></g><!--link thermostat_controller__operational_mode__heating to thermostat_controller__operational_mode__idle--><g id="link_thermostat_controller__operational_mode__heating_thermostat_controller__operational_mode__idle"><path d="M365.15,749.4756 C338.99,739.9856 303.7,722.4456 287.12,693.2656 C269.11,661.5856 262.3,637.9556 287.12,611.2656 C319.75,576.1756 660.14,573.9556 765.92,574.1256 " fill="none" id="thermostat_controller__operational_mode__heating-to-thermostat_controller__operational_mode__idle" style="stroke:#181818;stroke-width:1.0;"/><polygon fill="#181818" points="770.67,574.1356,761.67,570.1356,765.67,574.1356,761.67,578.1356,770.67,574.1356" style="stroke:#181818;stroke-width:1.0;"/><text fill="#000000" font-family="sans-serif" font-size="13" lengthAdjust="spacing" textLength="197" x="288.12" y="624.3325">current_temp &gt;= target_temp</text><path d="M319.62,633.3984 L319.62,688.3984 L453.62,688.3984 L453.62,643.3984 L443.62,633.3984 L319.62,633.3984 " fill="#FEFFDD" style="stroke:#181818;stroke-width:0.5;"/><path d="M443.62,633.3984 L443.62,643.3984 L453.62,643.3984 L443.62,633.3984 " fill="#FEFFDD" style="stroke:#181818;stroke-width:0.5;"/><text fill="#000000" font-family="sans-serif" font-size="13" lengthAdjust="spacing" textLength="48" x="325.62" y="650.4653">effect {</text><text fill="#000000" font-family="sans-serif" font-size="13" lengthAdjust="spacing" textLength="97" x="341.62" y="665.5981">fan_speed = 1;</text><text fill="#000000" font-family="sans-serif" font-size="13" lengthAdjust="spacing" textLength="8" x="325.62" y="680.731">}</text></g><!--link thermostat_controller__operational_mode__cooling to thermostat_controller__operational_mode__idle--><g id="link_thermostat_controller__operational_mode__cooling_thermostat_controller__operational_mode__idle"><path d="M947.35,739.2756 C937.36,726.8156 925.12,709.9156 917.12,693.2656 C900.72,659.1456 919.64,639.2156 894.12,611.2656 C877.12,592.6456 849.75,583.3356 828.4,578.7056 " fill="none" id="thermostat_controller__operational_mode__cooling-to-thermostat_controller__operational_mode__idle" style="stroke:#181818;stroke-width:1.0;"/><polygon fill="#181818" points="823.56,577.5256,831.5784,583.2445,828.459,578.5254,833.1781,575.406,823.56,577.5256" style="stroke:#181818;stroke-width:1.0;"/><text fill="#000000" font-family="sans-serif" font-size="13" lengthAdjust="spacing" textLength="197" x="918.12" y="624.3325">current_temp &lt;= target_temp</text><path d="M949.62,633.3984 L949.62,688.3984 L1083.62,688.3984 L1083.62,643.3984 L1073.62,633.3984 L949.62,633.3984 " fill="#FEFFDD" style="stroke:#181818;stroke-width:0.5;"/><path d="M1073.62,633.3984 L1073.62,643.3984 L1083.62,643.3984 L1073.62,633.3984 " fill="#FEFFDD" style="stroke:#181818;stroke-width:0.5;"/><text fill="#000000" font-family="sans-serif" font-size="13" lengthAdjust="spacing" textLength="48" x="955.62" y="650.4653">effect {</text><text fill="#000000" font-family="sans-serif" font-size="13" lengthAdjust="spacing" textLength="97" x="971.62" y="665.5981">fan_speed = 1;</text><text fill="#000000" font-family="sans-serif" font-size="13" lengthAdjust="spacing" textLength="8" x="955.62" y="680.731">}</text></g><!--link thermostat_controller__operational_mode__idle to thermostat_controller__operational_mode__auto_mode--><g id="link_thermostat_controller__operational_mode__idle_thermostat_controller__operational_mode__auto_mode"><path d="M822.34,574.2356 C917.58,574.3556 1251.59,577.2456 1283.12,611.2656 C1315.4,646.1056 1302.6,760.0956 1284.65,855.2356 " fill="none" id="thermostat_controller__operational_mode__idle-to-thermostat_controller__operational_mode__auto_mode" style="stroke:#181818;stroke-width:1.0;"/><polygon fill="#181818" points="1283.57,859.9056,1289.1715,851.8048,1284.4983,854.9926,1281.3106,850.3194,1283.57,859.9056" style="stroke:#181818;stroke-width:1.0;"/><text fill="#000000" font-family="sans-serif" font-size="13" lengthAdjust="spacing" textLength="99" x="1303.12" y="764.3325">Idle.EnableAuto</text></g><!--link thermostat_controller__operational_mode__heating to thermostat_controller__operational_mode__auto_mode--><g id="link_thermostat_controller__operational_mode__heating_thermostat_controller__operational_mode__auto_mode"><path d="M429.07,769.6056 C515.61,793.5456 761.48,861.5556 962.13,917.0556 " fill="none" id="thermostat_controller__operational_mode__heating-to-thermostat_controller__operational_mode__auto_mode" style="stroke:#181818;stroke-width:1.0;"/><polygon fill="#181818" points="966.75,918.6056,959.1508,912.3404,961.9328,917.2659,957.0073,920.0479,966.75,918.6056" style="stroke:#181818;stroke-width:1.0;"/><text fill="#000000" font-family="sans-serif" font-size="13" lengthAdjust="spacing" textLength="127" x="675.12" y="839.3325">Heating.EnableAuto</text></g><!--link thermostat_controller__operational_mode__cooling to thermostat_controller__operational_mode__auto_mode--><g id="link_thermostat_controller__operational_mode__cooling_thermostat_controller__operational_mode__auto_mode"><path d="M987.68,780.1156 C1009.57,798.0856 1044.29,826.5956 1081.46,857.1256 " fill="none" id="thermostat_controller__operational_mode__cooling-to-thermostat_controller__operational_mode__auto_mode" style="stroke:#181818;stroke-width:1.0;"/><polygon fill="#181818" points="1085.01,860.8656,1080.5986,852.06,1081.1479,857.6901,1075.5177,858.2394,1085.01,860.8656" style="stroke:#181818;stroke-width:1.0;"/><text fill="#000000" font-family="sans-serif" font-size="13" lengthAdjust="spacing" textLength="124" x="1059.12" y="839.3325">Cooling.EnableAuto</text></g><!--link thermostat_controller__operational_mode__auto_mode to thermostat_controller__operational_mode__idle--><g id="link_thermostat_controller__operational_mode__auto_mode_thermostat_controller__operational_mode__idle"><path d="M1380.98,860.9356 C1391.53,844.1356 1400.61,826.4456 1407.12,808.2656 C1440.25,715.6156 1395.69,651.9656 1306.12,611.2656 C1220.29,572.2656 925.46,572.5356 828.38,573.7356 " fill="none" id="thermostat_controller__operational_mode__auto_mode-to-thermostat_controller__operational_mode__idle" style="stroke:#181818;stroke-width:1.0;"/><polygon fill="#181818" points="823.55,573.8156,832.5951,577.7125,828.5497,573.7585,832.5037,569.713,823.55,573.8156" style="stroke:#181818;stroke-width:1.0;"/><text fill="#000000" font-family="sans-serif" font-size="13" lengthAdjust="spacing" textLength="146" x="1429.62" y="724.3325">AutoMode.DisableAuto</text><path d="M1422.12,733.3984 L1422.12,803.3984 L1583.12,803.3984 L1583.12,743.3984 L1573.12,733.3984 L1422.12,733.3984 " fill="#FEFFDD" style="stroke:#181818;stroke-width:0.5;"/><path d="M1573.12,733.3984 L1573.12,743.3984 L1583.12,743.3984 L1573.12,733.3984 " fill="#FEFFDD" style="stroke:#181818;stroke-width:0.5;"/><text fill="#000000" font-family="sans-serif" font-size="13" lengthAdjust="spacing" textLength="48" x="1428.12" y="750.4653">effect {</text><text fill="#000000" font-family="sans-serif" font-size="13" lengthAdjust="spacing" textLength="124" x="1444.12" y="765.5981">heating_power = 0;</text><text fill="#000000" font-family="sans-serif" font-size="13" lengthAdjust="spacing" textLength="121" x="1444.12" y="780.731">cooling_power = 0;</text><text fill="#000000" font-family="sans-serif" font-size="13" lengthAdjust="spacing" textLength="8" x="1428.12" y="795.8638">}</text></g><!--link thermostat_controller__operational_mode__heating to thermostat_controller__operational_mode__idle--><g id="link_thermostat_controller__operational_mode__heating_thermostat_controller__operational_mode__idle"><path d="M428.72,742.2956 C447.81,730.8756 471.26,714.0056 486.12,693.2656 C508.38,662.1856 482.79,635.7956 512.12,611.2656 C550.11,579.4956 700.55,574.7456 766.2,574.2156 " fill="none" id="thermostat_controller__operational_mode__heating-to-thermostat_controller__operational_mode__idle-1" style="stroke:#181818;stroke-width:1.0;"/><polygon fill="#181818" points="770.91,574.1856,761.8873,570.2371,765.9101,574.2142,761.933,578.237,770.91,574.1856" style="stroke:#181818;stroke-width:1.0;"/><text fill="#000000" font-family="sans-serif" font-size="13" lengthAdjust="spacing" textLength="136" x="517.62" y="624.3325">heating_power &gt; 100</text><path d="M517.12,633.3984 L517.12,688.3984 L654.12,688.3984 L654.12,643.3984 L644.12,633.3984 L517.12,633.3984 " fill="#FEFFDD" style="stroke:#181818;stroke-width:0.5;"/><path d="M644.12,633.3984 L644.12,643.3984 L654.12,643.3984 L644.12,633.3984 " fill="#FEFFDD" style="stroke:#181818;stroke-width:0.5;"/><text fill="#000000" font-family="sans-serif" font-size="13" lengthAdjust="spacing" textLength="48" x="523.12" y="650.4653">effect {</text><text fill="#000000" font-family="sans-serif" font-size="13" lengthAdjust="spacing" textLength="100" x="539.12" y="665.5981">error_code = 1;</text><text fill="#000000" font-family="sans-serif" font-size="13" lengthAdjust="spacing" textLength="8" x="523.12" y="680.731">}</text></g><!--link thermostat_controller__operational_mode__cooling to thermostat_controller__operational_mode__idle--><g id="link_thermostat_controller__operational_mode__cooling_thermostat_controller__operational_mode__idle"><path d="M995.6,755.2656 C1031.73,749.3856 1089.42,733.8356 1116.12,693.2656 C1136.15,662.8156 1140.36,638.4756 1116.12,611.2656 C1097.14,589.9656 904.61,579.0756 828.16,575.5656 " fill="none" id="thermostat_controller__operational_mode__cooling-to-thermostat_controller__operational_mode__idle-1" style="stroke:#181818;stroke-width:1.0;"/><polygon fill="#181818" points="823.43,575.3056,832.2374,579.7136,828.4248,575.5346,832.6037,571.722,823.43,575.3056" style="stroke:#181818;stroke-width:1.0;"/><text fill="#000000" font-family="sans-serif" font-size="13" lengthAdjust="spacing" textLength="133" x="1139.12" y="624.3325">cooling_power &gt; 100</text><path d="M1137.12,633.3984 L1137.12,688.3984 L1274.12,688.3984 L1274.12,643.3984 L1264.12,633.3984 L1137.12,633.3984 " fill="#FEFFDD" style="stroke:#181818;stroke-width:0.5;"/><path d="M1264.12,633.3984 L1264.12,643.3984 L1274.12,643.3984 L1264.12,633.3984 " fill="#FEFFDD" style="stroke:#181818;stroke-width:0.5;"/><text fill="#000000" font-family="sans-serif" font-size="13" lengthAdjust="spacing" textLength="48" x="1143.12" y="650.4653">effect {</text><text fill="#000000" font-family="sans-serif" font-size="13" lengthAdjust="spacing" textLength="100" x="1159.12" y="665.5981">error_code = 2;</text><text fill="#000000" font-family="sans-serif" font-size="13" lengthAdjust="spacing" textLength="8" x="1143.12" y="680.731">}</text></g><rect fill="#F1F1F1" height="40" rx="12.5" ry="12.5" style="stroke:#181818;stroke-width:0.5;" width="99" x="948" y="1263.9688"/><text fill="#000000" font-family="sans-serif" font-size="14" lengthAdjust="spacing" textLength="89" x="953" y="1288.8154">Maintenance</text><rect fill="#F1F1F1" height="40" rx="12.5" ry="12.5" style="stroke:#181818;stroke-width:0.5;" width="79" x="1530" y="1263.9688"/><text fill="#000000" font-family="sans-serif" font-size="14" lengthAdjust="spacing" textLength="69" x="1535" y="1288.8154">ErrorState</text><ellipse cx="1628.5" cy="318.9688" fill="#181818" rx="10" ry="10" style="stroke:none;stroke-width:1.0;"/><ellipse cx="997.5" cy="1366.9688" fill="none" rx="10" ry="10" style="stroke:#181818;stroke-width:1.0;"/><ellipse cx="998" cy="1367.4688" fill="#181818" rx="6" ry="6" style="stroke:none;stroke-width:1.0;"/><!--link *start*thermostat_controller to thermostat_controller__initializing--><g id="link_*start*thermostat_controller_thermostat_controller__initializing"><path d="M1628.5,329.2787 C1628.5,337.2188 1628.5,349.0087 1628.5,359.6988 " fill="none" id="*start*thermostat_controller-to-thermostat_controller__initializing" style="stroke:#181818;stroke-width:1.0;"/><polygon fill="#181818" points="1628.5,364.4888,1632.5,355.4888,1628.5,359.4888,1624.5,355.4888,1628.5,364.4888" style="stroke:#181818;stroke-width:1.0;"/></g><!--link thermostat_controller__initializing to thermostat_controller__operational_mode--><g id="link_thermostat_controller__initializing_thermostat_controller__operational_mode"><path d="M1590.13,396.3688 C1565.51,402.9188 1533.1,412.5187 1505.5,423.9688 C1480.94,434.1588 1456.12,444.9588 1431.21,456.1988 " fill="none" id="thermostat_controller__initializing-to-thermostat_controller__operational_mode" style="stroke:#181818;stroke-width:1.0;"/><polygon fill="#181818" points="1426.9,458.6088,1436.7487,458.5516,1431.4572,456.5516,1433.4572,451.2601,1426.9,458.6088" style="stroke:#181818;stroke-width:1.0;"/><text fill="#000000" font-family="sans-serif" font-size="13" lengthAdjust="spacing" textLength="107" x="1506.5" y="437.0356">error_code == 0</text></g><!--link thermostat_controller__operational_mode to thermostat_controller__maintenance--><g id="link_thermostat_controller__operational_mode_thermostat_controller__maintenance"><path d="M969.55,1146.1087 C971.6,1152.0888 973.59,1158.0388 975.5,1163.9688 C985.66,1195.4888 991.65,1233.3188 994.75,1257.7288 " fill="none" id="thermostat_controller__operational_mode-to-thermostat_controller__maintenance" style="stroke:#181818;stroke-width:1.0;"/><polygon fill="#181818" points="995.48,1262.6287,998.3428,1253.2052,994.8651,1257.6667,990.4036,1254.189,995.48,1262.6287" style="stroke:#181818;stroke-width:1.0;"/><text fill="#000000" font-family="sans-serif" font-size="13" lengthAdjust="spacing" textLength="247" x="994.5" y="1209.5356">OperationalMode.MaintenanceRequest</text></g><!--link thermostat_controller__maintenance to thermostat_controller__operational_mode--><g id="link_thermostat_controller__maintenance_thermostat_controller__operational_mode"><path d="M947.72,1273.4188 C930.01,1270.1888 909.9,1266.7088 891.5,1263.9688 C857.86,1258.9688 762.09,1271.3988 739.5,1245.9688 C723.82,1228.3288 719.31,1194.1287 721.54,1152.2288 " fill="none" id="thermostat_controller__maintenance-to-thermostat_controller__operational_mode" style="stroke:#181818;stroke-width:1.0;"/><polygon fill="#181818" points="721.9,1147.2688,717.3682,1156.013,721.6005,1152.2598,725.3538,1156.4922,721.9,1147.2688" style="stroke:#181818;stroke-width:1.0;"/><text fill="#000000" font-family="sans-serif" font-size="13" lengthAdjust="spacing" textLength="230" x="740.5" y="1209.5356">Maintenance.MaintenanceComplete</text></g><!--link thermostat_controller__initializing to thermostat_controller__error_state--><g id="link_thermostat_controller__initializing_thermostat_controller__error_state"><path d="M1629.14,406.1487 C1633.05,525.8688 1652.09,1168.0488 1614.5,1245.9688 C1612.06,1251.0288 1608.56,1255.6287 1604.58,1259.7388 " fill="none" id="thermostat_controller__initializing-to-thermostat_controller__error_state" style="stroke:#181818;stroke-width:1.0;"/><polygon fill="#181818" points="1601.46,1262.6788,1610.7287,1259.3483,1605.0732,1259.2226,1605.1989,1253.5672,1601.46,1262.6788" style="stroke:#181818;stroke-width:1.0;"/><text fill="#000000" font-family="sans-serif" font-size="13" lengthAdjust="spacing" textLength="101" x="1638.5" y="807.0356">error_code != 0</text></g><!--link thermostat_controller__operational_mode to thermostat_controller__error_state--><g id="link_thermostat_controller__operational_mode_thermostat_controller__error_state"><path d="M1467.9,1146.3288 C1473.22,1152.1287 1478.42,1158.0088 1483.5,1163.9688 C1508.47,1193.2888 1487.71,1215.6888 1511.5,1245.9688 C1515.65,1251.2488 1520.78,1255.9988 1526.25,1260.1888 " fill="none" id="thermostat_controller__operational_mode-to-thermostat_controller__error_state" style="stroke:#181818;stroke-width:1.0;"/><polygon fill="#181818" points="1529.92,1263.5788,1524.9976,1255.0482,1525.8776,1260.6362,1520.2896,1261.5161,1529.92,1263.5788" style="stroke:#181818;stroke-width:1.0;"/><text fill="#000000" font-family="sans-serif" font-size="13" lengthAdjust="spacing" textLength="101" x="1512.5" y="1209.5356">error_code != 0</text></g><!--link thermostat_controller__error_state to thermostat_controller__initializing--><g id="link_thermostat_controller__error_state_thermostat_controller__initializing"><path d="M1609.23,1266.0088 C1652.39,1245.0388 1718.64,1204.7788 1744.5,1145.9688 C1867.39,866.4588 1892.93,725.7988 1744.5,458.9688 C1729.12,431.3188 1698.23,412.9188 1672.19,401.6487 " fill="none" id="thermostat_controller__error_state-to-thermostat_controller__initializing" style="stroke:#181818;stroke-width:1.0;"/><polygon fill="#181818" points="1667.72,399.3588,1674.4625,406.5378,1672.3282,401.299,1677.5669,399.1647,1667.72,399.3588" style="stroke:#181818;stroke-width:1.0;"/><text fill="#000000" font-family="sans-serif" font-size="13" lengthAdjust="spacing" textLength="106" x="1866" y="774.5356">ErrorState.Reset</text><path d="M1850.5,783.6016 L1850.5,838.6016 L1987.5,838.6016 L1987.5,793.6016 L1977.5,783.6016 L1850.5,783.6016 " fill="#FEFFDD" style="stroke:#181818;stroke-width:0.5;"/><path d="M1977.5,783.6016 L1977.5,793.6016 L1987.5,793.6016 L1977.5,783.6016 " fill="#FEFFDD" style="stroke:#181818;stroke-width:0.5;"/><text fill="#000000" font-family="sans-serif" font-size="13" lengthAdjust="spacing" textLength="48" x="1856.5" y="800.6685">effect {</text><text fill="#000000" font-family="sans-serif" font-size="13" lengthAdjust="spacing" textLength="100" x="1872.5" y="815.8013">error_code = 0;</text><text fill="#000000" font-family="sans-serif" font-size="13" lengthAdjust="spacing" textLength="8" x="1856.5" y="830.9341">}</text></g><!--link thermostat_controller__operational_mode to thermostat_controller__maintenance--><g id="link_thermostat_controller__operational_mode_thermostat_controller__maintenance"><path d="M1237.64,1146.4088 C1240.74,1152.1988 1243.69,1158.0488 1246.5,1163.9688 C1262.11,1196.8988 1270.3,1218.3688 1246.5,1245.9688 C1222.05,1274.3188 1118.8,1281.2988 1053.17,1282.8088 " fill="none" id="thermostat_controller__operational_mode-to-thermostat_controller__maintenance-1" style="stroke:#181818;stroke-width:1.0;"/><polygon fill="#181818" points="1048.34,1282.9288,1057.4182,1286.748,1053.339,1282.8288,1057.2582,1278.7496,1048.34,1282.9288" style="stroke:#181818;stroke-width:1.0;"/><text fill="#000000" font-family="sans-serif" font-size="13" lengthAdjust="spacing" textLength="191" x="1275" y="1177.0356">maintenance_counter &gt; 1000</text><path d="M1266.5,1186.1016 L1266.5,1241.1016 L1474.5,1241.1016 L1474.5,1196.1016 L1464.5,1186.1016 L1266.5,1186.1016 " fill="#FEFFDD" style="stroke:#181818;stroke-width:0.5;"/><path d="M1464.5,1186.1016 L1464.5,1196.1016 L1474.5,1196.1016 L1464.5,1186.1016 " fill="#FEFFDD" style="stroke:#181818;stroke-width:0.5;"/><text fill="#000000" font-family="sans-serif" font-size="13" lengthAdjust="spacing" textLength="48" x="1272.5" y="1203.1685">effect {</text><text fill="#000000" font-family="sans-serif" font-size="13" lengthAdjust="spacing" textLength="171" x="1288.5" y="1218.3013">maintenance_counter = 0;</text><text fill="#000000" font-family="sans-serif" font-size="13" lengthAdjust="spacing" textLength="8" x="1272.5" y="1233.4341">}</text></g><!--link thermostat_controller__operational_mode to *end*thermostat_controller--><g id="link_thermostat_controller__operational_mode_*end*thermostat_controller"><path d="M710.12,1146.3188 C710.2,1180.2088 714.14,1213.9088 723.5,1245.9688 C732.07,1275.3188 735.78,1285.9688 760.5,1303.9688 C830.83,1355.1788 940.08,1364.1388 981.16,1365.6688 " fill="none" id="thermostat_controller__operational_mode-to-*end*thermostat_controller" style="stroke:#181818;stroke-width:1.0;"/><polygon fill="#181818" points="986.14,1365.8588,977.2701,1361.578,981.1425,1365.7017,977.0188,1369.5741,986.14,1365.8588" style="stroke:#181818;stroke-width:1.0;"/><text fill="#000000" font-family="sans-serif" font-size="13" lengthAdjust="spacing" textLength="176" x="761.5" y="1288.5356">OperationalMode.Shutdown</text></g><!--link thermostat_controller__maintenance to *end*thermostat_controller--><g id="link_thermostat_controller__maintenance_*end*thermostat_controller"><path d="M997.5,1304.1688 C997.5,1318.4788 997.5,1337.7488 997.5,1350.9488 " fill="none" id="thermostat_controller__maintenance-to-*end*thermostat_controller" style="stroke:#181818;stroke-width:1.0;"/><polygon fill="#181818" points="997.5,1355.8888,1001.5,1346.8888,997.5,1350.8888,993.5,1346.8888,997.5,1355.8888" style="stroke:#181818;stroke-width:1.0;"/><text fill="#000000" font-family="sans-serif" font-size="13" lengthAdjust="spacing" textLength="149" x="998.5" y="1335.0356">Maintenance.Shutdown</text></g><!--link thermostat_controller__error_state to *end*thermostat_controller--><g id="link_thermostat_controller__error_state_*end*thermostat_controller"><path d="M1529.73,1290.5988 C1415.39,1306.7888 1089.09,1352.9988 1013.34,1363.7288 " fill="none" id="thermostat_controller__error_state-to-*end*thermostat_controller" style="stroke:#181818;stroke-width:1.0;"/><polygon fill="#181818" points="1008.56,1364.5488,1018.0309,1367.251,1013.5109,1363.8496,1016.9123,1359.3296,1008.56,1364.5488" style="stroke:#181818;stroke-width:1.0;"/><text fill="#000000" font-family="sans-serif" font-size="13" lengthAdjust="spacing" textLength="176" x="1302.5" y="1335.0356">ErrorState.ForcedShutdown</text></g><ellipse cx="1001.5" cy="201.6719" fill="#181818" rx="10" ry="10" style="stroke:none;stroke-width:1.0;"/><ellipse cx="1001.5" cy="1456.6719" fill="none" rx="10" ry="10" style="stroke:#181818;stroke-width:1.0;"/><ellipse cx="1002" cy="1457.1719" fill="#181818" rx="6" ry="6" style="stroke:none;stroke-width:1.0;"/><!--link *start* to thermostat_controller--><g id="link_*start*_thermostat_controller"><path d="M1001.5,212.0019 C1001.5,222.3719 1001.5,240.9419 1001.5,265.3319 " fill="none" id="*start*-to-thermostat_controller" style="stroke:#181818;stroke-width:1.0;"/><polygon fill="#181818" points="1001.5,270.3019,1005.5,261.3019,1001.5,265.3019,997.5,261.3019,1001.5,270.3019" style="stroke:#181818;stroke-width:1.0;"/></g><!--link thermostat_controller to *end*--><g id="link_thermostat_controller_*end*"><path d="M1001.5,1386.9419 C1001.5,1410.0119 1001.5,1428.4119 1001.5,1440.3519 " fill="none" id="thermostat_controller-to-*end*" style="stroke:#181818;stroke-width:1.0;"/><polygon fill="#181818" points="1001.5,1445.3019,1005.5,1436.3019,1001.5,1440.3019,997.5,1436.3019,1001.5,1445.3019" style="stroke:#181818;stroke-width:1.0;"/></g><!--SRC=[pLXTRzem57tFh_1ut5H4sTiAI2jhjqch9hNLNgOfyf8BM4tip75KiS5_tpK9O9iqovUwze42rpxtt7C_OhDY8H284xKc8QI1P8bYWdjU-i1uGYMDIQge0lB78-II1WzBAJ8UpaKav6IIf925OZOZNzXofJvAkYvR5OWu4IbJi5zu6MMW5mePWdIX2fHhmTMTMaTWc9YY4GkyhUT5i0GU4YKI4i52UPif-KObepyZ8FZ-Vfti_d_cJ34QeGqzaest8K4c9N3bAmoPR0ZZ2b_7evrDKRa4rpJUcLP05UDBFn6F80_6V5iWHFIKRK6vdoO0eVCzI2ca7mZKtZR8Z2iMWxyIcKmTMqpn4t3A0y2jkD1nXuhakc3sTZaRtAz0na9_cAESKaGHo06XAL470oBjBSHEbSuuAR8_A9Halp7Ifn5ydndhpFrV4v1KLnQDRZ3gAWXnNEh7Mg4oMYOrZBe97fB47IxAfpp3pO2Aid2nvdb5DCCgoiZ5UfyfqLGntwUugreynqMhy0zUYhUk78wFLhAuFboP71_DYy5rO1M7_ll- -WSvEvlrYDW9gHkN8aNadJq99zRmEoFZbyAtIBVBTsRnVTCNtxqwdTDzmdTg4kw7x5wQtibEoibklTOTONL0ertD_DIixlC35ovmS0XEKCY7mvUmM42Wd5bvV99FoVYYH1Hz7j5mpn5dpQxe6kVRVkDirLqDkgbTaEVz1jcgAnjquOi8iiDSnp3rCtfunVLXNJ-odwcGJ0R5QQSJYMxZ5qaKnw5E98vuRUfjVxOSVc3f2OVwXMPVZgPaT66PxVkHPVxVKyLcFYFder6B-8tBtCiQ9vRmlKJtxoVVrhprtHnlh5M7SkDYQ-w-qfxlzFkgpJc_tHQlnk7av89QOrqJzL5tKp4iTwz1mgiy6IgX4-T2FJIaleLV6QIgog-9rImumu_fSuwNp0YA57IKrCYehUQh7jLixSJSMBFEqC6nbeUta4AUd9CcF6b0g_cAmPbtcDLqlLTNsKzDkm4ogacy3A2l27I7dpR0tIfJeNZaJSe-Hp9BkWwAMm4vYf7XQo4320zGMwzo9ddbFyOLo7y1]--></g></svg>