<?xml version="1.0" encoding="us-ascii" standalone="no"?><svg xmlns="http://www.w3.org/2000/svg" xmlns:xlink="http://www.w3.org/1999/xlink" contentStyleType="text/css" height="730px" preserveAspectRatio="none" style="width:925px;height:730px;background:#FFFFFF;" version="1.1" viewBox="0 0 925 730" width="925px" zoomAndPan="magnify"><defs/><g><!--class State--><g id="elem_State"><rect codeLine="1" fill="#F1F1F1" height="178.375" id="State" rx="2.5" ry="2.5" style="stroke:#181818;stroke-width:0.5;" width="268" x="343" y="388"/><ellipse cx="454.75" cy="404" fill="#A9DCDF" rx="11" ry="11" style="stroke:#181818;stroke-width:1.0;"/><path d="M454.8594,399.3438 L453.7031,404.4219 L456.0313,404.4219 L454.8594,399.3438 Z M453.375,397.1094 L456.3594,397.1094 L459.7188,409.5 L457.2656,409.5 L456.5,406.4375 L453.2188,406.4375 L452.4688,409.5 L450.0313,409.5 L453.375,397.1094 Z " fill="#000000"/><text fill="#000000" font-family="sans-serif" font-size="14" font-style="italic" lengthAdjust="spacing" textLength="36" x="475.25" y="408.8467">State</text><line style="stroke:#181818;stroke-width:0.5;" x1="344" x2="610" y1="420" y2="420"/><text fill="#000000" font-family="sans-serif" font-size="14" lengthAdjust="spacing" textLength="66" x="349" y="436.9951">name: str</text><text fill="#000000" font-family="sans-serif" font-size="14" lengthAdjust="spacing" textLength="104" x="349" y="453.292">description: str</text><line style="stroke:#181818;stroke-width:1.0;" x1="344" x2="610" y1="460.5938" y2="460.5938"/><text fill="#000000" font-family="sans-serif" font-size="14" lengthAdjust="spacing" textLength="123" x="349" y="477.5889">min_time_lock: int</text><text fill="#000000" font-family="sans-serif" font-size="14" lengthAdjust="spacing" textLength="126" x="349" y="493.8857">max_time_lock: int</text><text fill="#000000" font-family="sans-serif" font-size="14" lengthAdjust="spacing" textLength="234" x="349" y="510.1826">on_entry: List[UpdateAssignment]</text><text fill="#000000" font-family="sans-serif" font-size="14" lengthAdjust="spacing" textLength="256" x="349" y="526.4795">on_duration: List[UpdateAssignment]</text><text fill="#000000" font-family="sans-serif" font-size="14" lengthAdjust="spacing" textLength="223" x="349" y="542.7764">on_exit: List[UpdateAssignment]</text><text fill="#000000" font-family="sans-serif" font-size="14" lengthAdjust="spacing" textLength="128" x="349" y="559.0732">events: List[Event]</text></g><!--class UpdateAssignment--><g id="elem_UpdateAssignment"><rect codeLine="78" fill="#F1F1F1" height="64.2969" id="UpdateAssignment" rx="2.5" ry="2.5" style="stroke:#181818;stroke-width:0.5;" width="164" x="106" y="651.5"/><ellipse cx="121" cy="667.5" fill="#ADD1B2" rx="11" ry="11" style="stroke:#181818;stroke-width:1.0;"/><path d="M123.9688,673.1406 Q123.3906,673.4375 122.75,673.5781 Q122.1094,673.7344 121.4063,673.7344 Q118.9063,673.7344 117.5781,672.0938 Q116.2656,670.4375 116.2656,667.3125 Q116.2656,664.1875 117.5781,662.5313 Q118.9063,660.875 121.4063,660.875 Q122.1094,660.875 122.75,661.0313 Q123.4063,661.1875 123.9688,661.4844 L123.9688,664.2031 Q123.3438,663.625 122.75,663.3594 Q122.1563,663.0781 121.5313,663.0781 Q120.1875,663.0781 119.5,664.1563 Q118.8125,665.2188 118.8125,667.3125 Q118.8125,669.4063 119.5,670.4844 Q120.1875,671.5469 121.5313,671.5469 Q122.1563,671.5469 122.75,671.2813 Q123.3438,671 123.9688,670.4219 L123.9688,673.1406 Z " fill="#000000"/><text fill="#000000" font-family="sans-serif" font-size="14" lengthAdjust="spacing" textLength="132" x="135" y="672.3467">UpdateAssignment</text><line style="stroke:#181818;stroke-width:0.5;" x1="107" x2="269" y1="683.5" y2="683.5"/><text fill="#000000" font-family="sans-serif" font-size="14" lengthAdjust="spacing" textLength="126" x="112" y="700.4951">rvalue: expression</text><line style="stroke:#181818;stroke-width:0.5;" x1="107" x2="269" y1="707.7969" y2="707.7969"/></g><!--class CompositeState--><g id="elem_CompositeState"><rect codeLine="19" fill="#F1F1F1" height="80.5938" id="CompositeState" rx="2.5" ry="2.5" style="stroke:#181818;stroke-width:0.5;" width="143" x="440.5" y="643"/><ellipse cx="455.5" cy="659" fill="#ADD1B2" rx="11" ry="11" style="stroke:#181818;stroke-width:1.0;"/><path d="M458.4688,664.6406 Q457.8906,664.9375 457.25,665.0781 Q456.6094,665.2344 455.9063,665.2344 Q453.4063,665.2344 452.0781,663.5938 Q450.7656,661.9375 450.7656,658.8125 Q450.7656,655.6875 452.0781,654.0313 Q453.4063,652.375 455.9063,652.375 Q456.6094,652.375 457.25,652.5313 Q457.9063,652.6875 458.4688,652.9844 L458.4688,655.7031 Q457.8438,655.125 457.25,654.8594 Q456.6563,654.5781 456.0313,654.5781 Q454.6875,654.5781 454,655.6563 Q453.3125,656.7188 453.3125,658.8125 Q453.3125,660.9063 454,661.9844 Q454.6875,663.0469 456.0313,663.0469 Q456.6563,663.0469 457.25,662.7813 Q457.8438,662.5 458.4688,661.9219 L458.4688,664.6406 Z " fill="#000000"/><text fill="#000000" font-family="sans-serif" font-size="14" lengthAdjust="spacing" textLength="111" x="469.5" y="663.8467">CompositeState</text><line style="stroke:#181818;stroke-width:0.5;" x1="441.5" x2="582.5" y1="675" y2="675"/><text fill="#000000" font-family="sans-serif" font-size="14" lengthAdjust="spacing" textLength="121" x="446.5" y="691.9951">initial_state: State</text><text fill="#000000" font-family="sans-serif" font-size="14" lengthAdjust="spacing" textLength="121" x="446.5" y="708.292">states: List[State]</text><line style="stroke:#181818;stroke-width:0.5;" x1="441.5" x2="582.5" y1="715.5938" y2="715.5938"/></g><!--class NormalState--><g id="elem_NormalState"><rect codeLine="29" fill="#F1F1F1" height="48" id="NormalState" rx="2.5" ry="2.5" style="stroke:#181818;stroke-width:0.5;" width="116" x="647" y="659.5"/><ellipse cx="662" cy="675.5" fill="#ADD1B2" rx="11" ry="11" style="stroke:#181818;stroke-width:1.0;"/><path d="M664.9688,681.1406 Q664.3906,681.4375 663.75,681.5781 Q663.1094,681.7344 662.4063,681.7344 Q659.9063,681.7344 658.5781,680.0938 Q657.2656,678.4375 657.2656,675.3125 Q657.2656,672.1875 658.5781,670.5313 Q659.9063,668.875 662.4063,668.875 Q663.1094,668.875 663.75,669.0313 Q664.4063,669.1875 664.9688,669.4844 L664.9688,672.2031 Q664.3438,671.625 663.75,671.3594 Q663.1563,671.0781 662.5313,671.0781 Q661.1875,671.0781 660.5,672.1563 Q659.8125,673.2188 659.8125,675.3125 Q659.8125,677.4063 660.5,678.4844 Q661.1875,679.5469 662.5313,679.5469 Q663.1563,679.5469 663.75,679.2813 Q664.3438,679 664.9688,678.4219 L664.9688,681.1406 Z " fill="#000000"/><text fill="#000000" font-family="sans-serif" font-size="14" lengthAdjust="spacing" textLength="84" x="676" y="680.3467">NormalState</text><line style="stroke:#181818;stroke-width:0.5;" x1="648" x2="762" y1="691.5" y2="691.5"/><line style="stroke:#181818;stroke-width:0.5;" x1="648" x2="762" y1="699.5" y2="699.5"/></g><!--class PseudaState--><g id="elem_PseudaState"><rect codeLine="34" fill="#F1F1F1" height="48" id="PseudaState" rx="2.5" ry="2.5" style="stroke:#181818;stroke-width:0.5;" width="120" x="798" y="659.5"/><ellipse cx="813" cy="675.5" fill="#ADD1B2" rx="11" ry="11" style="stroke:#181818;stroke-width:1.0;"/><path d="M815.9688,681.1406 Q815.3906,681.4375 814.75,681.5781 Q814.1094,681.7344 813.4063,681.7344 Q810.9063,681.7344 809.5781,680.0938 Q808.2656,678.4375 808.2656,675.3125 Q808.2656,672.1875 809.5781,670.5313 Q810.9063,668.875 813.4063,668.875 Q814.1094,668.875 814.75,669.0313 Q815.4063,669.1875 815.9688,669.4844 L815.9688,672.2031 Q815.3438,671.625 814.75,671.3594 Q814.1563,671.0781 813.5313,671.0781 Q812.1875,671.0781 811.5,672.1563 Q810.8125,673.2188 810.8125,675.3125 Q810.8125,677.4063 811.5,678.4844 Q812.1875,679.5469 813.5313,679.5469 Q814.1563,679.5469 814.75,679.2813 Q815.3438,679 815.9688,678.4219 L815.9688,681.1406 Z " fill="#000000"/><text fill="#000000" font-family="sans-serif" font-size="14" lengthAdjust="spacing" textLength="88" x="827" y="680.3467">PseudaState</text><line style="stroke:#181818;stroke-width:0.5;" x1="799" x2="917" y1="691.5" y2="691.5"/><line style="stroke:#181818;stroke-width:0.5;" x1="799" x2="917" y1="699.5" y2="699.5"/></g><!--class Event--><g id="elem_Event"><rect codeLine="38" fill="#F1F1F1" height="80.5938" id="Event" rx="2.5" ry="2.5" style="stroke:#181818;stroke-width:0.5;" width="78" x="230" y="436.5"/><ellipse cx="248.15" cy="452.5" fill="#ADD1B2" rx="11" ry="11" style="stroke:#181818;stroke-width:1.0;"/><path d="M251.1188,458.1406 Q250.5406,458.4375 249.9,458.5781 Q249.2594,458.7344 248.5563,458.7344 Q246.0563,458.7344 244.7281,457.0938 Q243.4156,455.4375 243.4156,452.3125 Q243.4156,449.1875 244.7281,447.5313 Q246.0563,445.875 248.5563,445.875 Q249.2594,445.875 249.9,446.0313 Q250.5563,446.1875 251.1188,446.4844 L251.1188,449.2031 Q250.4938,448.625 249.9,448.3594 Q249.3063,448.0781 248.6813,448.0781 Q247.3375,448.0781 246.65,449.1563 Q245.9625,450.2188 245.9625,452.3125 Q245.9625,454.4063 246.65,455.4844 Q247.3375,456.5469 248.6813,456.5469 Q249.3063,456.5469 249.9,456.2813 Q250.4938,456 251.1188,455.4219 L251.1188,458.1406 Z " fill="#000000"/><text fill="#000000" font-family="sans-serif" font-size="14" lengthAdjust="spacing" textLength="39" x="262.85" y="457.3467">Event</text><line style="stroke:#181818;stroke-width:0.5;" x1="231" x2="307" y1="468.5" y2="468.5"/><text fill="#000000" font-family="sans-serif" font-size="14" lengthAdjust="spacing" textLength="66" x="236" y="485.4951">name: str</text><text fill="#000000" font-family="sans-serif" font-size="14" lengthAdjust="spacing" textLength="40" x="236" y="501.792">guard</text><line style="stroke:#181818;stroke-width:0.5;" x1="231" x2="307" y1="509.0938" y2="509.0938"/></g><!--class Transition--><g id="elem_Transition"><rect codeLine="43" fill="#F1F1F1" height="96.8906" id="Transition" rx="2.5" ry="2.5" style="stroke:#181818;stroke-width:0.5;" width="121" x="344.5" y="214"/><ellipse cx="368.95" cy="230" fill="#ADD1B2" rx="11" ry="11" style="stroke:#181818;stroke-width:1.0;"/><path d="M371.9188,235.6406 Q371.3406,235.9375 370.7,236.0781 Q370.0594,236.2344 369.3563,236.2344 Q366.8563,236.2344 365.5281,234.5938 Q364.2156,232.9375 364.2156,229.8125 Q364.2156,226.6875 365.5281,225.0313 Q366.8563,223.375 369.3563,223.375 Q370.0594,223.375 370.7,223.5313 Q371.3563,223.6875 371.9188,223.9844 L371.9188,226.7031 Q371.2938,226.125 370.7,225.8594 Q370.1063,225.5781 369.4813,225.5781 Q368.1375,225.5781 367.45,226.6563 Q366.7625,227.7188 366.7625,229.8125 Q366.7625,231.9063 367.45,232.9844 Q368.1375,234.0469 369.4813,234.0469 Q370.1063,234.0469 370.7,233.7813 Q371.2938,233.5 371.9188,232.9219 L371.9188,235.6406 Z " fill="#000000"/><text fill="#000000" font-family="sans-serif" font-size="14" lengthAdjust="spacing" textLength="68" x="385.05" y="234.8467">Transition</text><line style="stroke:#181818;stroke-width:0.5;" x1="345.5" x2="464.5" y1="246" y2="246"/><text fill="#000000" font-family="sans-serif" font-size="14" lengthAdjust="spacing" textLength="87" x="350.5" y="262.9951">event: Event</text><text fill="#000000" font-family="sans-serif" font-size="14" lengthAdjust="spacing" textLength="108" x="350.5" y="279.292">src_state: State</text><text fill="#000000" font-family="sans-serif" font-size="14" lengthAdjust="spacing" textLength="109" x="350.5" y="295.5889">dst_state: State</text><line style="stroke:#181818;stroke-width:0.5;" x1="345.5" x2="464.5" y1="302.8906" y2="302.8906"/></g><!--class Statechart--><g id="elem_Statechart"><rect codeLine="52" fill="#F1F1F1" height="145.7813" id="Statechart" rx="2.5" ry="2.5" style="stroke:#181818;stroke-width:0.5;" width="254" x="278" y="7"/><ellipse cx="365.25" cy="23" fill="#ADD1B2" rx="11" ry="11" style="stroke:#181818;stroke-width:1.0;"/><path d="M368.2188,28.6406 Q367.6406,28.9375 367,29.0781 Q366.3594,29.2344 365.6563,29.2344 Q363.1563,29.2344 361.8281,27.5938 Q360.5156,25.9375 360.5156,22.8125 Q360.5156,19.6875 361.8281,18.0313 Q363.1563,16.375 365.6563,16.375 Q366.3594,16.375 367,16.5313 Q367.6563,16.6875 368.2188,16.9844 L368.2188,19.7031 Q367.5938,19.125 367,18.8594 Q366.4063,18.5781 365.7813,18.5781 Q364.4375,18.5781 363.75,19.6563 Q363.0625,20.7188 363.0625,22.8125 Q363.0625,24.9063 363.75,25.9844 Q364.4375,27.0469 365.7813,27.0469 Q366.4063,27.0469 367,26.7813 Q367.5938,26.5 368.2188,25.9219 L368.2188,28.6406 Z " fill="#000000"/><text fill="#000000" font-family="sans-serif" font-size="14" lengthAdjust="spacing" textLength="71" x="385.75" y="27.8467">Statechart</text><line style="stroke:#181818;stroke-width:0.5;" x1="279" x2="531" y1="39" y2="39"/><text fill="#000000" font-family="sans-serif" font-size="14" lengthAdjust="spacing" textLength="66" x="284" y="55.9951">name: str</text><text fill="#000000" font-family="sans-serif" font-size="14" lengthAdjust="spacing" textLength="242" x="284" y="72.292">preamble: List[DeclareAssignment]</text><text fill="#000000" font-family="sans-serif" font-size="14" lengthAdjust="spacing" textLength="148" x="284" y="88.5889">root_state: RootState</text><line style="stroke:#181818;stroke-width:1.0;" x1="279" x2="531" y1="95.8906" y2="95.8906"/><text fill="#000000" font-family="sans-serif" font-size="14" lengthAdjust="spacing" textLength="121" x="284" y="112.8857">states: List[State]</text><text fill="#000000" font-family="sans-serif" font-size="14" lengthAdjust="spacing" textLength="128" x="284" y="129.1826">events: List[Event]</text><text fill="#000000" font-family="sans-serif" font-size="14" lengthAdjust="spacing" textLength="182" x="284" y="145.4795">transitions: List[Transition]</text></g><!--class DeclareAssignment--><g id="elem_DeclareAssignment"><rect codeLine="72" fill="#F1F1F1" height="64.2969" id="DeclareAssignment" rx="2.5" ry="2.5" style="stroke:#181818;stroke-width:0.5;" width="167" x="48.5" y="230.5"/><ellipse cx="63.5" cy="246.5" fill="#ADD1B2" rx="11" ry="11" style="stroke:#181818;stroke-width:1.0;"/><path d="M66.4688,252.1406 Q65.8906,252.4375 65.25,252.5781 Q64.6094,252.7344 63.9063,252.7344 Q61.4063,252.7344 60.0781,251.0938 Q58.7656,249.4375 58.7656,246.3125 Q58.7656,243.1875 60.0781,241.5313 Q61.4063,239.875 63.9063,239.875 Q64.6094,239.875 65.25,240.0313 Q65.9063,240.1875 66.4688,240.4844 L66.4688,243.2031 Q65.8438,242.625 65.25,242.3594 Q64.6563,242.0781 64.0313,242.0781 Q62.6875,242.0781 62,243.1563 Q61.3125,244.2188 61.3125,246.3125 Q61.3125,248.4063 62,249.4844 Q62.6875,250.5469 64.0313,250.5469 Q64.6563,250.5469 65.25,250.2813 Q65.8438,250 66.4688,249.4219 L66.4688,252.1406 Z " fill="#000000"/><text fill="#000000" font-family="sans-serif" font-size="14" lengthAdjust="spacing" textLength="135" x="77.5" y="251.3467">DeclareAssignment</text><line style="stroke:#181818;stroke-width:0.5;" x1="49.5" x2="214.5" y1="262.5" y2="262.5"/><text fill="#000000" font-family="sans-serif" font-size="14" lengthAdjust="spacing" textLength="140" x="54.5" y="279.4951">initial_value: number</text><line style="stroke:#181818;stroke-width:0.5;" x1="49.5" x2="214.5" y1="286.7969" y2="286.7969"/></g><!--class Assignment--><g id="elem_Assignment"><rect codeLine="68" fill="#F1F1F1" height="64.2969" id="Assignment" rx="2.5" ry="2.5" style="stroke:#181818;stroke-width:0.5;" width="114" x="7" y="48"/><ellipse cx="22" cy="64" fill="#A9DCDF" rx="11" ry="11" style="stroke:#181818;stroke-width:1.0;"/><path d="M22.1094,59.3438 L20.9531,64.4219 L23.2813,64.4219 L22.1094,59.3438 Z M20.625,57.1094 L23.6094,57.1094 L26.9688,69.5 L24.5156,69.5 L23.75,66.4375 L20.4688,66.4375 L19.7188,69.5 L17.2813,69.5 L20.625,57.1094 Z " fill="#000000"/><text fill="#000000" font-family="sans-serif" font-size="14" font-style="italic" lengthAdjust="spacing" textLength="82" x="36" y="68.8467">Assignment</text><line style="stroke:#181818;stroke-width:0.5;" x1="8" x2="120" y1="80" y2="80"/><text fill="#000000" font-family="sans-serif" font-size="14" lengthAdjust="spacing" textLength="66" x="13" y="96.9951">lvalue: str</text><line style="stroke:#181818;stroke-width:0.5;" x1="8" x2="120" y1="104.2969" y2="104.2969"/></g><!--reverse link State to UpdateAssignment--><g id="link_State_UpdateAssignment"><path codeLine="13" d="M329.98,564.18 C328.32,564.81 326.66,565.41 325,566 C284.92,580.23 163.61,563.66 136,596 C121.66,612.79 134.04,634.01 150.3,651.23 " fill="none" id="State-backto-UpdateAssignment" style="stroke:#181818;stroke-width:1.0;"/><polygon fill="#181818" points="341.72,559.09,334.6636,557.6044,330.5783,563.5467,337.6347,565.0323,341.72,559.09" style="stroke:#181818;stroke-width:1.0;"/><text fill="#000000" font-family="sans-serif" font-size="13" lengthAdjust="spacing" textLength="56" x="137" y="609.0669">on_entry</text><text fill="#000000" font-family="sans-serif" font-size="13" lengthAdjust="spacing" textLength="8" x="327.1578" y="576.0497">1</text><text fill="#000000" font-family="sans-serif" font-size="13" lengthAdjust="spacing" textLength="7" x="135.1888" y="640.451">*</text></g><!--reverse link State to UpdateAssignment--><g id="link_State_UpdateAssignment"><path codeLine="14" d="M330.22,563.62 C328.47,564.43 326.73,565.22 325,566 C286.14,583.43 266.56,568.56 234,596 C216.96,610.36 205.32,632.67 198,651.04 " fill="none" id="State-backto-UpdateAssignment-1" style="stroke:#181818;stroke-width:1.0;"/><polygon fill="#181818" points="341.67,557.7,334.5331,556.6685,330.8359,562.8597,337.9729,563.8912,341.67,557.7" style="stroke:#181818;stroke-width:1.0;"/><text fill="#000000" font-family="sans-serif" font-size="13" lengthAdjust="spacing" textLength="76" x="235" y="609.0669">on_duration</text><text fill="#000000" font-family="sans-serif" font-size="13" lengthAdjust="spacing" textLength="8" x="327.1051" y="558.7634">1</text><text fill="#000000" font-family="sans-serif" font-size="13" lengthAdjust="spacing" textLength="7" x="192.2391" y="640.4739">*</text></g><!--reverse link State to UpdateAssignment--><g id="link_State_UpdateAssignment"><path codeLine="15" d="M367.2,574.98 C350.46,588.3 333.07,601.38 316,613 C295.83,626.73 272.68,639.98 251.66,651.17 " fill="none" id="State-backto-UpdateAssignment-2" style="stroke:#181818;stroke-width:1.0;"/><polygon fill="#181818" points="377.09,566.19,369.9081,566.8381,367.7441,573.7168,374.926,573.0687,377.09,566.19" style="stroke:#181818;stroke-width:1.0;"/><text fill="#000000" font-family="sans-serif" font-size="13" lengthAdjust="spacing" textLength="46" x="341" y="609.0669">on_exit</text><text fill="#000000" font-family="sans-serif" font-size="13" lengthAdjust="spacing" textLength="8" x="361.2462" y="586.5558">1</text><text fill="#000000" font-family="sans-serif" font-size="13" lengthAdjust="spacing" textLength="7" x="256.504" y="640.3792">*</text></g><!--reverse link State to CompositeState--><g id="link_State_CompositeState"><path codeLine="17" d="M442.56,587.12 C443.08,595.98 444.76,604.71 448,613 C452.17,623.7 458.85,633.74 466.35,642.69 " fill="none" id="State-backto-CompositeState" style="stroke:#181818;stroke-width:1.0;"/><polygon fill="none" points="435.59,587.09,443.28,567.35,449.58,587.58,435.59,587.09" style="stroke:#181818;stroke-width:1.0;"/></g><!--reverse link CompositeState to State--><g id="link_CompositeState_State"><path codeLine="24" d="M486,629.85 C484,624.26 482.27,618.58 481,613 C477.61,598.14 475.68,582.13 474.69,566.5 " fill="none" id="CompositeState-backto-State" style="stroke:#181818;stroke-width:1.0;"/><polygon fill="#181818" points="491.05,641.63,492.56,634.5788,486.632,630.4729,485.122,637.5241,491.05,641.63" style="stroke:#181818;stroke-width:1.0;"/><text fill="#000000" font-family="sans-serif" font-size="13" lengthAdjust="spacing" textLength="73" x="482" y="609.0669">initial_state</text><text fill="#000000" font-family="sans-serif" font-size="13" lengthAdjust="spacing" textLength="8" x="479.0736" y="632.0309">1</text><text fill="#000000" font-family="sans-serif" font-size="13" lengthAdjust="spacing" textLength="8" x="466.1675" y="586.5897">1</text></g><!--reverse link CompositeState to State--><g id="link_CompositeState_State"><path codeLine="25" d="M556.69,630.58 C561.61,619.52 563.69,607.66 560,596 C556.83,585.97 552.46,576.06 547.38,566.49 " fill="none" id="CompositeState-backto-State-1" style="stroke:#181818;stroke-width:1.0;"/><polygon fill="#181818" points="550.09,641.66,556.4785,638.3153,555.8482,631.1318,549.4597,634.4765,550.09,641.66" style="stroke:#181818;stroke-width:1.0;"/><text fill="#000000" font-family="sans-serif" font-size="13" lengthAdjust="spacing" textLength="40" x="563" y="609.0669">states</text><text fill="#000000" font-family="sans-serif" font-size="13" lengthAdjust="spacing" textLength="8" x="547.5231" y="632.0657">1</text><text fill="#000000" font-family="sans-serif" font-size="13" lengthAdjust="spacing" textLength="23" x="529.256" y="586.5789">0..*</text></g><!--reverse link State to NormalState--><g id="link_State_NormalState"><path codeLine="27" d="M594.22,580.07 C600.25,585.44 606.21,590.77 612,596 C635.42,617.12 661.69,641.63 680.32,659.16 " fill="none" id="State-backto-NormalState" style="stroke:#181818;stroke-width:1.0;"/><polygon fill="none" points="589.97,585.77,579.66,567.26,599.26,575.3,589.97,585.77" style="stroke:#181818;stroke-width:1.0;"/></g><!--reverse link State to PseudaState--><g id="link_State_PseudaState"><path codeLine="32" d="M629.46,559.83 C696.09,595.6 769.2,634.84 814.35,659.07 " fill="none" id="State-backto-PseudaState" style="stroke:#181818;stroke-width:1.0;"/><polygon fill="none" points="626.64,565.73,612.33,550.1,633.26,553.39,626.64,565.73" style="stroke:#181818;stroke-width:1.0;"/></g><!--reverse link Transition to State--><g id="link_Transition_State"><path codeLine="48" d="M459,323.04 C462.51,328.85 465.59,334.87 468,341 C473.76,355.65 477.12,371.87 478.94,387.85 " fill="none" id="Transition-backto-State" style="stroke:#181818;stroke-width:1.0;"/><polygon fill="#181818" points="451.3,312.46,451.2912,319.6711,457.9442,322.4527,457.953,315.2416,451.3,312.46" style="stroke:#181818;stroke-width:1.0;"/><text fill="#000000" font-family="sans-serif" font-size="13" lengthAdjust="spacing" textLength="59" x="474" y="354.0669">src_state</text><text fill="#000000" font-family="sans-serif" font-size="13" lengthAdjust="spacing" textLength="7" x="450.0513" y="331.13">*</text><text fill="#000000" font-family="sans-serif" font-size="13" lengthAdjust="spacing" textLength="8" x="470.7694" y="376.903">1</text></g><!--reverse link Transition to State--><g id="link_Transition_State"><path codeLine="49" d="M393.94,325.18 C393.78,336.27 394.84,347.6 398,358 C401.05,368.03 405.26,377.97 410.16,387.6 " fill="none" id="Transition-backto-State-1" style="stroke:#181818;stroke-width:1.0;"/><polygon fill="#181818" points="394.74,312.36,390.3972,318.1167,394.0407,324.3396,398.3836,318.5829,394.74,312.36" style="stroke:#181818;stroke-width:1.0;"/><text fill="#000000" font-family="sans-serif" font-size="13" lengthAdjust="spacing" textLength="60" x="399" y="354.0669">dst_state</text><text fill="#000000" font-family="sans-serif" font-size="13" lengthAdjust="spacing" textLength="7" x="385.891" y="331.0165">*</text><text fill="#000000" font-family="sans-serif" font-size="13" lengthAdjust="spacing" textLength="8" x="396.5149" y="376.9355">1</text></g><!--reverse link Transition to Event--><g id="link_Transition_Event"><path codeLine="50" d="M361.56,322.46 C357.24,328.67 352.98,334.93 349,341 C328.46,372.33 306.91,408.95 291.35,436.14 " fill="none" id="Transition-backto-Event" style="stroke:#181818;stroke-width:1.0;"/><polygon fill="#181818" points="369.36,312.4,362.6348,315.0022,362.4502,322.2109,369.1754,319.6087,369.36,312.4" style="stroke:#181818;stroke-width:1.0;"/><text fill="#000000" font-family="sans-serif" font-size="13" lengthAdjust="spacing" textLength="36" x="350" y="354.0669">event</text><text fill="#000000" font-family="sans-serif" font-size="13" lengthAdjust="spacing" textLength="7" x="357.1006" y="331.0619">*</text><text fill="#000000" font-family="sans-serif" font-size="13" lengthAdjust="spacing" textLength="8" x="286.2745" y="425.5425">1</text></g><!--reverse link Statechart to DeclareAssignment--><g id="link_Statechart_DeclareAssignment"><path codeLine="62" d="M277.02,160.68 C265.47,168.15 253.99,175.66 243,183 C220.43,198.07 195.73,215.44 175.38,230.01 " fill="none" id="Statechart-backto-DeclareAssignment" style="stroke:#181818;stroke-width:1.0;"/><polygon fill="#181818" points="287.59,153.24,280.3799,153.1213,277.4971,159.7311,284.7073,159.8498,287.59,153.24" style="stroke:#181818;stroke-width:1.0;"/><text fill="#000000" font-family="sans-serif" font-size="13" lengthAdjust="spacing" textLength="8" x="269.4897" y="172.7663">1</text><text fill="#000000" font-family="sans-serif" font-size="13" lengthAdjust="spacing" textLength="7" x="175.9821" y="219.4382">*</text></g><!--reverse link Statechart to CompositeState--><g id="link_Statechart_CompositeState"><path codeLine="63" d="M496.67,163.17 C512.1,179.21 527.23,196.5 540,214 C591.09,284 607.9,303.7 628,388 C651.26,485.52 672.33,532.94 612,613 C603.67,624.06 593.05,634.01 581.87,642.69 " fill="none" id="Statechart-backto-CompositeState" style="stroke:#181818;stroke-width:1.0;"/><polygon fill="#181818" points="488.04,154.36,489.3883,161.4439,496.4459,162.924,495.0976,155.84,488.04,154.36" style="stroke:#181818;stroke-width:1.0;"/><text fill="#000000" font-family="sans-serif" font-size="13" lengthAdjust="spacing" textLength="8" x="486.2343" y="172.8974">1</text><text fill="#000000" font-family="sans-serif" font-size="13" lengthAdjust="spacing" textLength="8" x="584.7797" y="631.8002">1</text></g><!--reverse link Statechart to State--><g id="link_Statechart_State"><path codeLine="64" d="M464.13,165.1 C494.55,213.92 528.09,278.06 542,341 C545.45,356.62 543.49,372.53 538.53,387.68 " fill="none" id="Statechart-backto-State" style="stroke:#181818;stroke-width:1.0;"/><polygon fill="none" points="456.69,154.34,456.5208,161.5491,463.1103,164.478,463.2795,157.2689,456.69,154.34" style="stroke:#181818;stroke-width:1.0;"/><text fill="#000000" font-family="sans-serif" font-size="13" lengthAdjust="spacing" textLength="8" x="453.0864" y="172.8755">1</text><text fill="#000000" font-family="sans-serif" font-size="13" lengthAdjust="spacing" textLength="7" x="536.1543" y="377.0219">*</text></g><!--reverse link Statechart to Event--><g id="link_Statechart_Event"><path codeLine="65" d="M350.29,165.34 C341.6,181.08 333.39,197.72 327,214 C297.29,289.67 281.13,383.92 273.86,436.25 " fill="none" id="Statechart-backto-Event" style="stroke:#181818;stroke-width:1.0;"/><polygon fill="none" points="357,154.49,350.5643,157.743,351.0918,164.9348,357.5275,161.6818,357,154.49" style="stroke:#181818;stroke-width:1.0;"/><text fill="#000000" font-family="sans-serif" font-size="13" lengthAdjust="spacing" textLength="8" x="344.3688" y="172.7857">1</text><text fill="#000000" font-family="sans-serif" font-size="13" lengthAdjust="spacing" textLength="7" x="267.0853" y="425.3701">*</text></g><!--reverse link Statechart to Transition--><g id="link_Statechart_Transition"><path codeLine="66" d="M405,167.32 C405,183.29 405,199.43 405,213.72 " fill="none" id="Statechart-backto-Transition" style="stroke:#181818;stroke-width:1.0;"/><polygon fill="none" points="405,154.38,401,160.38,405,166.38,409,160.38,405,154.38" style="stroke:#181818;stroke-width:1.0;"/><text fill="#000000" font-family="sans-serif" font-size="13" lengthAdjust="spacing" textLength="8" x="396.6313" y="172.9192">1</text><text fill="#000000" font-family="sans-serif" font-size="13" lengthAdjust="spacing" textLength="7" x="397.5078" y="202.8895">*</text></g><!--reverse link Assignment to DeclareAssignment--><g id="link_Assignment_DeclareAssignment"><path codeLine="76" d="M83.15,131.83 C95.05,163.43 109.98,203.04 120.18,230.12 " fill="none" id="Assignment-backto-DeclareAssignment" style="stroke:#181818;stroke-width:1.0;"/><polygon fill="none" points="76.35,134.62,75.84,113.44,89.45,129.69,76.35,134.62" style="stroke:#181818;stroke-width:1.0;"/></g><!--reverse link Assignment to UpdateAssignment--><g id="link_Assignment_UpdateAssignment"><path codeLine="82" d="M48.19,132.24 C41.44,156.72 34.35,186.6 31,214 C25.77,256.79 24.71,268.35 31,311 C51.44,449.69 51.6,491.77 122,613 C130.02,626.81 141.31,640.04 152.28,651.18 " fill="none" id="Assignment-backto-UpdateAssignment" style="stroke:#181818;stroke-width:1.0;"/><polygon fill="none" points="41.67,130.58,53.94,113.31,55.12,134.46,41.67,130.58" style="stroke:#181818;stroke-width:1.0;"/></g><!--SRC=[ZLJBJiCm4BpxAwmUAwM2Qmv82BWXX7YS48gsYLKiOZkodQgezD_Ps4wSPsalJdTd9pExti3MM0svfNa9nj1N2vRH8w7uao1OIZ7j_XNCv9fNbYiPWqcIk5DmcLakM5Qg_3kbN5eVXiDSMCcCIQj_Klh8ZVruhmfywQqnV2S59ZvRK55hyEyxZsC7RizYs1uVJO0yx5tyH8WtkxfUqNMIqDLwHSVbQQVrKd2h-M9or4x8dHALCjmoNvNKLV9xuuT1Y9_C2E97n2Mt7ChCDB4q53G95sWTkx1pF2BfrE7f8-cGSh7WQhDPnnh_DaAUb1PGBdlevu-DdcV3wWAM2_hv8sagVDpDSFQQxchGHGI-QP0e7mSIqEugf9x0Tqhdq_OLnWw39z9ZQeOvRbj7yn-meru2Uc-fLzhwSDNv5-XvrvLc8BOb2mE_PrYb9skWbUfilU1pzDlkyTorMLgW9cux2sqoceehvdNtLs4YS1Q8v_3-ZL4gq9rD-b4l9ADSGc3uAOpYGilBFPHrQ7ftmIPEHfiPQcGjjioLJGl2nUyr8t2FFnY1MWTETi2nOnAr8-y4FA7z0m00]--></g></svg>