<?xml version="1.0" encoding="us-ascii" standalone="no"?><svg xmlns="http://www.w3.org/2000/svg" xmlns:xlink="http://www.w3.org/1999/xlink" contentStyleType="text/css" height="730px" preserveAspectRatio="none" style="width:489px;height:730px;background:#FFFFFF;" version="1.1" viewBox="0 0 489 730" width="489px" zoomAndPan="magnify"><defs/><g><!--class State--><g id="elem_State"><rect codeLine="1" fill="#F1F1F1" height="194.6719" id="State" rx="2.5" ry="2.5" style="stroke:#181818;stroke-width:0.5;" width="140" x="178" y="371"/><ellipse cx="225.75" cy="387" fill="#A9DCDF" rx="11" ry="11" style="stroke:#181818;stroke-width:1.0;"/><path d="M225.8594,382.3438 L224.7031,387.4219 L227.0313,387.4219 L225.8594,382.3438 Z M224.375,380.1094 L227.3594,380.1094 L230.7188,392.5 L228.2656,392.5 L227.5,389.4375 L224.2188,389.4375 L223.4688,392.5 L221.0313,392.5 L224.375,380.1094 Z " fill="#000000"/><text fill="#000000" font-family="sans-serif" font-size="14" font-style="italic" lengthAdjust="spacing" textLength="36" x="246.25" y="391.8467">State</text><line style="stroke:#181818;stroke-width:0.5;" x1="179" x2="317" y1="403" y2="403"/><text fill="#000000" font-family="sans-serif" font-size="14" lengthAdjust="spacing" textLength="66" x="184" y="419.9951">name: str</text><text fill="#000000" font-family="sans-serif" font-size="14" lengthAdjust="spacing" textLength="104" x="184" y="436.292">description: str</text><text fill="#000000" font-family="sans-serif" font-size="14" lengthAdjust="spacing" textLength="109" x="184" y="452.5889">type: StateType</text><text fill="#000000" font-family="sans-serif" font-size="14" lengthAdjust="spacing" textLength="123" x="184" y="468.8857">min_time_lock: int</text><text fill="#000000" font-family="sans-serif" font-size="14" lengthAdjust="spacing" textLength="126" x="184" y="485.1826">max_time_lock: int</text><text fill="#000000" font-family="sans-serif" font-size="14" lengthAdjust="spacing" textLength="60" x="184" y="501.4795">on_entry</text><text fill="#000000" font-family="sans-serif" font-size="14" lengthAdjust="spacing" textLength="82" x="184" y="517.7764">on_duration</text><text fill="#000000" font-family="sans-serif" font-size="14" lengthAdjust="spacing" textLength="49" x="184" y="534.0732">on_exit</text><text fill="#000000" font-family="sans-serif" font-size="14" lengthAdjust="spacing" textLength="128" x="184" y="550.3701">events: List[Event]</text><line style="stroke:#181818;stroke-width:0.5;" x1="179" x2="317" y1="557.6719" y2="557.6719"/></g><!--class CompositeState--><g id="elem_CompositeState"><rect codeLine="15" fill="#F1F1F1" height="80.5938" id="CompositeState" rx="2.5" ry="2.5" style="stroke:#181818;stroke-width:0.5;" width="158" x="169" y="643"/><ellipse cx="190.75" cy="659" fill="#ADD1B2" rx="11" ry="11" style="stroke:#181818;stroke-width:1.0;"/><path d="M193.7188,664.6406 Q193.1406,664.9375 192.5,665.0781 Q191.8594,665.2344 191.1563,665.2344 Q188.6563,665.2344 187.3281,663.5938 Q186.0156,661.9375 186.0156,658.8125 Q186.0156,655.6875 187.3281,654.0313 Q188.6563,652.375 191.1563,652.375 Q191.8594,652.375 192.5,652.5313 Q193.1563,652.6875 193.7188,652.9844 L193.7188,655.7031 Q193.0938,655.125 192.5,654.8594 Q191.9063,654.5781 191.2813,654.5781 Q189.9375,654.5781 189.25,655.6563 Q188.5625,656.7188 188.5625,658.8125 Q188.5625,660.9063 189.25,661.9844 Q189.9375,663.0469 191.2813,663.0469 Q191.9063,663.0469 192.5,662.7813 Q193.0938,662.5 193.7188,661.9219 L193.7188,664.6406 Z " fill="#000000"/><text fill="#000000" font-family="sans-serif" font-size="14" lengthAdjust="spacing" textLength="111" x="206.25" y="663.8467">CompositeState</text><line style="stroke:#181818;stroke-width:0.5;" x1="170" x2="326" y1="675" y2="675"/><text fill="#000000" font-family="sans-serif" font-size="14" lengthAdjust="spacing" textLength="146" x="175" y="691.9951">initial: Optional[State]</text><text fill="#000000" font-family="sans-serif" font-size="14" lengthAdjust="spacing" textLength="121" x="175" y="708.292">states: List[State]</text><line style="stroke:#181818;stroke-width:0.5;" x1="170" x2="326" y1="715.5938" y2="715.5938"/></g><!--class NormalState--><g id="elem_NormalState"><rect codeLine="25" fill="#F1F1F1" height="48" id="NormalState" rx="2.5" ry="2.5" style="stroke:#181818;stroke-width:0.5;" width="116" x="18" y="659.5"/><ellipse cx="33" cy="675.5" fill="#ADD1B2" rx="11" ry="11" style="stroke:#181818;stroke-width:1.0;"/><path d="M35.9688,681.1406 Q35.3906,681.4375 34.75,681.5781 Q34.1094,681.7344 33.4063,681.7344 Q30.9063,681.7344 29.5781,680.0938 Q28.2656,678.4375 28.2656,675.3125 Q28.2656,672.1875 29.5781,670.5313 Q30.9063,668.875 33.4063,668.875 Q34.1094,668.875 34.75,669.0313 Q35.4063,669.1875 35.9688,669.4844 L35.9688,672.2031 Q35.3438,671.625 34.75,671.3594 Q34.1563,671.0781 33.5313,671.0781 Q32.1875,671.0781 31.5,672.1563 Q30.8125,673.2188 30.8125,675.3125 Q30.8125,677.4063 31.5,678.4844 Q32.1875,679.5469 33.5313,679.5469 Q34.1563,679.5469 34.75,679.2813 Q35.3438,679 35.9688,678.4219 L35.9688,681.1406 Z " fill="#000000"/><text fill="#000000" font-family="sans-serif" font-size="14" lengthAdjust="spacing" textLength="84" x="47" y="680.3467">NormalState</text><line style="stroke:#181818;stroke-width:0.5;" x1="19" x2="133" y1="691.5" y2="691.5"/><line style="stroke:#181818;stroke-width:0.5;" x1="19" x2="133" y1="699.5" y2="699.5"/></g><!--class PseudaState--><g id="elem_PseudaState"><rect codeLine="30" fill="#F1F1F1" height="48" id="PseudaState" rx="2.5" ry="2.5" style="stroke:#181818;stroke-width:0.5;" width="120" x="362" y="659.5"/><ellipse cx="377" cy="675.5" fill="#ADD1B2" rx="11" ry="11" style="stroke:#181818;stroke-width:1.0;"/><path d="M379.9688,681.1406 Q379.3906,681.4375 378.75,681.5781 Q378.1094,681.7344 377.4063,681.7344 Q374.9063,681.7344 373.5781,680.0938 Q372.2656,678.4375 372.2656,675.3125 Q372.2656,672.1875 373.5781,670.5313 Q374.9063,668.875 377.4063,668.875 Q378.1094,668.875 378.75,669.0313 Q379.4063,669.1875 379.9688,669.4844 L379.9688,672.2031 Q379.3438,671.625 378.75,671.3594 Q378.1563,671.0781 377.5313,671.0781 Q376.1875,671.0781 375.5,672.1563 Q374.8125,673.2188 374.8125,675.3125 Q374.8125,677.4063 375.5,678.4844 Q376.1875,679.5469 377.5313,679.5469 Q378.1563,679.5469 378.75,679.2813 Q379.3438,679 379.9688,678.4219 L379.9688,681.1406 Z " fill="#000000"/><text fill="#000000" font-family="sans-serif" font-size="14" lengthAdjust="spacing" textLength="88" x="391" y="680.3467">PseudaState</text><line style="stroke:#181818;stroke-width:0.5;" x1="363" x2="481" y1="691.5" y2="691.5"/><line style="stroke:#181818;stroke-width:0.5;" x1="363" x2="481" y1="699.5" y2="699.5"/></g><!--class Event--><g id="elem_Event"><rect codeLine="34" fill="#F1F1F1" height="80.5938" id="Event" rx="2.5" ry="2.5" style="stroke:#181818;stroke-width:0.5;" width="78" x="7" y="428"/><ellipse cx="25.15" cy="444" fill="#ADD1B2" rx="11" ry="11" style="stroke:#181818;stroke-width:1.0;"/><path d="M28.1188,449.6406 Q27.5406,449.9375 26.9,450.0781 Q26.2594,450.2344 25.5563,450.2344 Q23.0563,450.2344 21.7281,448.5938 Q20.4156,446.9375 20.4156,443.8125 Q20.4156,440.6875 21.7281,439.0313 Q23.0563,437.375 25.5563,437.375 Q26.2594,437.375 26.9,437.5313 Q27.5563,437.6875 28.1188,437.9844 L28.1188,440.7031 Q27.4938,440.125 26.9,439.8594 Q26.3063,439.5781 25.6813,439.5781 Q24.3375,439.5781 23.65,440.6563 Q22.9625,441.7188 22.9625,443.8125 Q22.9625,445.9063 23.65,446.9844 Q24.3375,448.0469 25.6813,448.0469 Q26.3063,448.0469 26.9,447.7813 Q27.4938,447.5 28.1188,446.9219 L28.1188,449.6406 Z " fill="#000000"/><text fill="#000000" font-family="sans-serif" font-size="14" lengthAdjust="spacing" textLength="39" x="39.85" y="448.8467">Event</text><line style="stroke:#181818;stroke-width:0.5;" x1="8" x2="84" y1="460" y2="460"/><text fill="#000000" font-family="sans-serif" font-size="14" lengthAdjust="spacing" textLength="66" x="13" y="476.9951">name: str</text><text fill="#000000" font-family="sans-serif" font-size="14" lengthAdjust="spacing" textLength="40" x="13" y="493.292">guard</text><line style="stroke:#181818;stroke-width:0.5;" x1="8" x2="84" y1="500.5938" y2="500.5938"/></g><!--class Transition--><g id="elem_Transition"><rect codeLine="39" fill="#F1F1F1" height="96.8906" id="Transition" rx="2.5" ry="2.5" style="stroke:#181818;stroke-width:0.5;" width="130" x="88" y="197"/><ellipse cx="116.5" cy="213" fill="#ADD1B2" rx="11" ry="11" style="stroke:#181818;stroke-width:1.0;"/><path d="M119.4688,218.6406 Q118.8906,218.9375 118.25,219.0781 Q117.6094,219.2344 116.9063,219.2344 Q114.4063,219.2344 113.0781,217.5938 Q111.7656,215.9375 111.7656,212.8125 Q111.7656,209.6875 113.0781,208.0313 Q114.4063,206.375 116.9063,206.375 Q117.6094,206.375 118.25,206.5313 Q118.9063,206.6875 119.4688,206.9844 L119.4688,209.7031 Q118.8438,209.125 118.25,208.8594 Q117.6563,208.5781 117.0313,208.5781 Q115.6875,208.5781 115,209.6563 Q114.3125,210.7188 114.3125,212.8125 Q114.3125,214.9063 115,215.9844 Q115.6875,217.0469 117.0313,217.0469 Q117.6563,217.0469 118.25,216.7813 Q118.8438,216.5 119.4688,215.9219 L119.4688,218.6406 Z " fill="#000000"/><text fill="#000000" font-family="sans-serif" font-size="14" lengthAdjust="spacing" textLength="68" x="133.5" y="217.8467">Transition</text><line style="stroke:#181818;stroke-width:0.5;" x1="89" x2="217" y1="229" y2="229"/><text fill="#000000" font-family="sans-serif" font-size="14" lengthAdjust="spacing" textLength="87" x="94" y="245.9951">event: Event</text><text fill="#000000" font-family="sans-serif" font-size="14" lengthAdjust="spacing" textLength="118" x="94" y="262.292">from_state: State</text><text fill="#000000" font-family="sans-serif" font-size="14" lengthAdjust="spacing" textLength="101" x="94" y="278.5889">to_state: State</text><line style="stroke:#181818;stroke-width:0.5;" x1="89" x2="217" y1="285.8906" y2="285.8906"/></g><!--class Statechart--><g id="elem_Statechart"><rect codeLine="48" fill="#F1F1F1" height="129.4844" id="Statechart" rx="2.5" ry="2.5" style="stroke:#181818;stroke-width:0.5;" width="194" x="56" y="7"/><ellipse cx="113.25" cy="23" fill="#ADD1B2" rx="11" ry="11" style="stroke:#181818;stroke-width:1.0;"/><path d="M116.2188,28.6406 Q115.6406,28.9375 115,29.0781 Q114.3594,29.2344 113.6563,29.2344 Q111.1563,29.2344 109.8281,27.5938 Q108.5156,25.9375 108.5156,22.8125 Q108.5156,19.6875 109.8281,18.0313 Q111.1563,16.375 113.6563,16.375 Q114.3594,16.375 115,16.5313 Q115.6563,16.6875 116.2188,16.9844 L116.2188,19.7031 Q115.5938,19.125 115,18.8594 Q114.4063,18.5781 113.7813,18.5781 Q112.4375,18.5781 111.75,19.6563 Q111.0625,20.7188 111.0625,22.8125 Q111.0625,24.9063 111.75,25.9844 Q112.4375,27.0469 113.7813,27.0469 Q114.4063,27.0469 115,26.7813 Q115.5938,26.5 116.2188,25.9219 L116.2188,28.6406 Z " fill="#000000"/><text fill="#000000" font-family="sans-serif" font-size="14" lengthAdjust="spacing" textLength="71" x="133.75" y="27.8467">Statechart</text><line style="stroke:#181818;stroke-width:0.5;" x1="57" x2="249" y1="39" y2="39"/><text fill="#000000" font-family="sans-serif" font-size="14" lengthAdjust="spacing" textLength="66" x="62" y="55.9951">name: str</text><text fill="#000000" font-family="sans-serif" font-size="14" lengthAdjust="spacing" textLength="65" x="62" y="72.292">preamble</text><text fill="#000000" font-family="sans-serif" font-size="14" lengthAdjust="spacing" textLength="121" x="62" y="88.5889">states: List[State]</text><text fill="#000000" font-family="sans-serif" font-size="14" lengthAdjust="spacing" textLength="128" x="62" y="104.8857">events: List[Event]</text><text fill="#000000" font-family="sans-serif" font-size="14" lengthAdjust="spacing" textLength="182" x="62" y="121.1826">transitions: List[Transition]</text><line style="stroke:#181818;stroke-width:0.5;" x1="57" x2="249" y1="128.4844" y2="128.4844"/></g><!--reverse link State to CompositeState--><g id="link_State_CompositeState"><path codeLine="13" d="M248,587.21 C248,607.17 248,626.59 248,642.64 " fill="none" id="State-backto-CompositeState" style="stroke:#181818;stroke-width:1.0;"/><polygon fill="none" points="241,587.34,248,567.34,255,587.34,241,587.34" style="stroke:#181818;stroke-width:1.0;"/></g><!--reverse link CompositeState to State--><g id="link_CompositeState_State"><path codeLine="20" d="M264.07,629.37 C265.26,623.88 266.28,618.36 267,613 C269.02,597.93 269.03,581.97 267.86,566.38 " fill="none" id="CompositeState-backto-State" style="stroke:#181818;stroke-width:1.0;"/><polygon fill="#181818" points="260.8,641.82,266.1046,636.9352,263.6359,630.1599,258.3312,635.0447,260.8,641.82" style="stroke:#181818;stroke-width:1.0;"/><text fill="#000000" font-family="sans-serif" font-size="13" lengthAdjust="spacing" textLength="33" x="269" y="609.0669">initial</text><text fill="#000000" font-family="sans-serif" font-size="13" lengthAdjust="spacing" textLength="8" x="254.2575" y="631.9517">1</text><text fill="#000000" font-family="sans-serif" font-size="13" lengthAdjust="spacing" textLength="24" x="244.4127" y="585.8726">0..1</text></g><!--reverse link CompositeState to State--><g id="link_CompositeState_State"><path codeLine="21" d="M205.91,631 C202.72,625.18 199.98,619.13 198,613 C193.1,597.81 193.31,581.78 196.49,566.17 " fill="none" id="CompositeState-backto-State-1" style="stroke:#181818;stroke-width:1.0;"/><polygon fill="#181818" points="212.98,641.56,213.2592,634.3543,206.7151,631.3252,206.436,638.5309,212.98,641.56" style="stroke:#181818;stroke-width:1.0;"/><text fill="#000000" font-family="sans-serif" font-size="13" lengthAdjust="spacing" textLength="40" x="199" y="609.0669">states</text><text fill="#000000" font-family="sans-serif" font-size="13" lengthAdjust="spacing" textLength="8" x="198.7612" y="631.9497">1</text><text fill="#000000" font-family="sans-serif" font-size="13" lengthAdjust="spacing" textLength="23" x="169.0596" y="585.6479">0..*</text></g><!--reverse link State to NormalState--><g id="link_State_NormalState"><path codeLine="23" d="M164.39,573.04 C138.31,605.34 111.92,638.01 94.86,659.14 " fill="none" id="State-backto-NormalState" style="stroke:#181818;stroke-width:1.0;"/><polygon fill="none" points="159.53,568.91,177.54,557.75,170.43,577.71,159.53,568.91" style="stroke:#181818;stroke-width:1.0;"/></g><!--reverse link State to PseudaState--><g id="link_State_PseudaState"><path codeLine="28" d="M331.37,571.56 C358.22,604.42 385.53,637.86 403.05,659.3 " fill="none" id="State-backto-PseudaState" style="stroke:#181818;stroke-width:1.0;"/><polygon fill="none" points="325.5,576.44,318.27,556.52,336.34,567.58,325.5,576.44" style="stroke:#181818;stroke-width:1.0;"/></g><!--reverse link Transition to State--><g id="link_Transition_State"><path codeLine="44" d="M198.99,305.75 C202.67,311.75 206.08,317.88 209,324 C216.01,338.68 221.93,354.82 226.87,370.82 " fill="none" id="Transition-backto-State" style="stroke:#181818;stroke-width:1.0;"/><polygon fill="#181818" points="191.66,295.44,191.5655,302.6505,198.185,305.5109,198.2795,298.3005,191.66,295.44" style="stroke:#181818;stroke-width:1.0;"/><text fill="#000000" font-family="sans-serif" font-size="13" lengthAdjust="spacing" textLength="70" x="216" y="337.0669">from_state</text><text fill="#000000" font-family="sans-serif" font-size="13" lengthAdjust="spacing" textLength="7" x="189.3846" y="314.1073">*</text><text fill="#000000" font-family="sans-serif" font-size="13" lengthAdjust="spacing" textLength="8" x="216.946" y="359.8517">1</text></g><!--reverse link Transition to State--><g id="link_Transition_State"><path codeLine="45" d="M141.19,308.08 C141.07,319.25 142.34,330.64 146,341 C153.04,360.95 164.71,380.07 177.7,397.13 " fill="none" id="Transition-backto-State-1" style="stroke:#181818;stroke-width:1.0;"/><polygon fill="#181818" points="142,295.13,137.6575,300.887,141.3015,307.1097,145.644,301.3527,142,295.13" style="stroke:#181818;stroke-width:1.0;"/><text fill="#000000" font-family="sans-serif" font-size="13" lengthAdjust="spacing" textLength="53" x="147" y="337.0669">to_state</text><text fill="#000000" font-family="sans-serif" font-size="13" lengthAdjust="spacing" textLength="7" x="132.9609" y="314.1072">*</text><text fill="#000000" font-family="sans-serif" font-size="13" lengthAdjust="spacing" textLength="8" x="162.0378" y="386.0872">1</text></g><!--reverse link Transition to Event--><g id="link_Transition_Event"><path codeLine="46" d="M106.79,305.66 C102.9,311.7 99.22,317.88 96,324 C78.48,357.26 64.97,397.96 56.44,427.51 " fill="none" id="Transition-backto-Event" style="stroke:#181818;stroke-width:1.0;"/><polygon fill="#181818" points="114.49,295.24,107.8218,297.9851,107.7911,305.1961,114.4592,302.451,114.49,295.24" style="stroke:#181818;stroke-width:1.0;"/><text fill="#000000" font-family="sans-serif" font-size="13" lengthAdjust="spacing" textLength="36" x="97" y="337.0669">event</text><text fill="#000000" font-family="sans-serif" font-size="13" lengthAdjust="spacing" textLength="7" x="101.8449" y="313.8804">*</text><text fill="#000000" font-family="sans-serif" font-size="13" lengthAdjust="spacing" textLength="8" x="49.4664" y="416.8918">1</text></g><!--reverse link Statechart to State--><g id="link_Statechart_State"><path codeLine="56" d="M211.23,147.75 C243.87,195.33 280.81,259.77 295,324 C298.37,339.23 297.63,355.13 294.51,370.57 " fill="none" id="Statechart-backto-State" style="stroke:#181818;stroke-width:1.0;"/><polygon fill="none" points="203.26,137.34,203.4161,144.5494,210.1309,147.1782,209.9749,139.9688,203.26,137.34" style="stroke:#181818;stroke-width:1.0;"/><text fill="#000000" font-family="sans-serif" font-size="13" lengthAdjust="spacing" textLength="8" x="200.6088" y="156.7509">1</text><text fill="#000000" font-family="sans-serif" font-size="13" lengthAdjust="spacing" textLength="7" x="290.6685" y="359.9113">*</text></g><!--reverse link Statechart to Event--><g id="link_Statechart_Event"><path codeLine="57" d="M94.16,147.99 C84.6,163.48 75.91,180.21 70,197 C42.47,275.28 41.45,373.78 43.5,427.69 " fill="none" id="Statechart-backto-Event" style="stroke:#181818;stroke-width:1.0;"/><polygon fill="none" points="101.61,137.41,95.0002,140.2927,95.1189,147.5029,101.7287,144.6201,101.61,137.41" style="stroke:#181818;stroke-width:1.0;"/><text fill="#000000" font-family="sans-serif" font-size="13" lengthAdjust="spacing" textLength="8" x="87.5517" y="156.3775">1</text><text fill="#000000" font-family="sans-serif" font-size="13" lengthAdjust="spacing" textLength="7" x="35.5063" y="416.8002">*</text></g><!--reverse link Statechart to Transition--><g id="link_Statechart_Transition"><path codeLine="58" d="M153,149.86 C153,165.76 153,182.04 153,196.53 " fill="none" id="Statechart-backto-Transition" style="stroke:#181818;stroke-width:1.0;"/><polygon fill="none" points="153,137.06,149,143.06,153,149.06,157,143.06,153,137.06" style="stroke:#181818;stroke-width:1.0;"/><text fill="#000000" font-family="sans-serif" font-size="13" lengthAdjust="spacing" textLength="8" x="144.5375" y="156.4385">1</text><text fill="#000000" font-family="sans-serif" font-size="13" lengthAdjust="spacing" textLength="7" x="145.5297" y="186.025">*</text></g><!--SRC=[XLB1JiGW5Bpp5QJ79jtebOCNuyseYNlRR9gtBIgnG0FKxARklmkyigrQb1FC3E_DF823TGOQHviEhANF3Xod8w5-AP2SKK_7KyjjOqJlX5Opw4wzbyHBMx-Dc1IgTaBokjFDEwD2EOJXk0PhLNFbp2aTsi50w74XZmA5_CFhBAFtmhhTNJZioPcGMorxRONZwBmQ-khp1XqHWfb-I32SKC89w1XzZ96WsqLs7qaRjgdNXF_kLLmNjAmgMbnjDdwB84kL_rANinfR4VAWZOGk7sB9Zy7Ca-L32_aBItuauGRYSNIhB_mwW6bduTQ0ylRzS2PrV0661IBmOhIiOu3f3-2VqD-nCrbKAiff2ek1pMN-KwRIEHrcO-WqvOYNcpSmwwbxmq4UEfvz-DpdYralFX8vEujVPj4y6DJ1Q7hz78a3pf1p_Iy0]--></g></svg>