<?xml version="1.0" encoding="us-ascii" standalone="no"?><svg xmlns="http://www.w3.org/2000/svg" xmlns:xlink="http://www.w3.org/1999/xlink" contentStyleType="text/css" height="540px" preserveAspectRatio="none" style="width:413px;height:540px;background:#FFFFFF;" version="1.1" viewBox="0 0 413 540" width="413px" zoomAndPan="magnify"><defs/><g><!--class StateType--><g id="elem_StateType"><rect codeLine="1" fill="#F1F1F1" height="96.8906" id="StateType" rx="2.5" ry="2.5" style="stroke:#181818;stroke-width:0.5;" width="102" x="7" y="7"/><ellipse cx="22" cy="23" fill="#EB937F" rx="11" ry="11" style="stroke:#181818;stroke-width:1.0;"/><path d="M26.1094,29 L18.3906,29 L18.3906,16.6094 L26.1094,16.6094 L26.1094,18.7656 L20.8438,18.7656 L20.8438,21.4375 L25.6094,21.4375 L25.6094,23.5938 L20.8438,23.5938 L20.8438,26.8438 L26.1094,26.8438 L26.1094,29 Z " fill="#000000"/><text fill="#000000" font-family="sans-serif" font-size="14" lengthAdjust="spacing" textLength="70" x="36" y="27.8467">StateType</text><line style="stroke:#181818;stroke-width:0.5;" x1="8" x2="108" y1="39" y2="39"/><text fill="#000000" font-family="sans-serif" font-size="14" lengthAdjust="spacing" textLength="75" x="13" y="55.9951">Composite</text><text fill="#000000" font-family="sans-serif" font-size="14" lengthAdjust="spacing" textLength="48" x="13" y="72.292">Normal</text><text fill="#000000" font-family="sans-serif" font-size="14" lengthAdjust="spacing" textLength="52" x="13" y="88.5889">Pseuda</text><line style="stroke:#181818;stroke-width:0.5;" x1="8" x2="108" y1="95.8906" y2="95.8906"/></g><!--class State--><g id="elem_State"><rect codeLine="7" fill="#F1F1F1" height="194.6719" id="State" rx="2.5" ry="2.5" style="stroke:#181818;stroke-width:0.5;" width="140" x="266" y="339"/><ellipse cx="313.75" cy="355" fill="#ADD1B2" rx="11" ry="11" style="stroke:#181818;stroke-width:1.0;"/><path d="M316.7188,360.6406 Q316.1406,360.9375 315.5,361.0781 Q314.8594,361.2344 314.1563,361.2344 Q311.6563,361.2344 310.3281,359.5938 Q309.0156,357.9375 309.0156,354.8125 Q309.0156,351.6875 310.3281,350.0313 Q311.6563,348.375 314.1563,348.375 Q314.8594,348.375 315.5,348.5313 Q316.1563,348.6875 316.7188,348.9844 L316.7188,351.7031 Q316.0938,351.125 315.5,350.8594 Q314.9063,350.5781 314.2813,350.5781 Q312.9375,350.5781 312.25,351.6563 Q311.5625,352.7188 311.5625,354.8125 Q311.5625,356.9063 312.25,357.9844 Q312.9375,359.0469 314.2813,359.0469 Q314.9063,359.0469 315.5,358.7813 Q316.0938,358.5 316.7188,357.9219 L316.7188,360.6406 Z " fill="#000000"/><text fill="#000000" font-family="sans-serif" font-size="14" lengthAdjust="spacing" textLength="36" x="334.25" y="359.8467">State</text><line style="stroke:#181818;stroke-width:0.5;" x1="267" x2="405" y1="371" y2="371"/><text fill="#000000" font-family="sans-serif" font-size="14" lengthAdjust="spacing" textLength="66" x="272" y="387.9951">name: str</text><text fill="#000000" font-family="sans-serif" font-size="14" lengthAdjust="spacing" textLength="104" x="272" y="404.292">description: str</text><text fill="#000000" font-family="sans-serif" font-size="14" lengthAdjust="spacing" textLength="109" x="272" y="420.5889">type: StateType</text><text fill="#000000" font-family="sans-serif" font-size="14" lengthAdjust="spacing" textLength="123" x="272" y="436.8857">min_time_lock: int</text><text fill="#000000" font-family="sans-serif" font-size="14" lengthAdjust="spacing" textLength="126" x="272" y="453.1826">max_time_lock: int</text><text fill="#000000" font-family="sans-serif" font-size="14" lengthAdjust="spacing" textLength="60" x="272" y="469.4795">on_entry</text><text fill="#000000" font-family="sans-serif" font-size="14" lengthAdjust="spacing" textLength="82" x="272" y="485.7764">on_duration</text><text fill="#000000" font-family="sans-serif" font-size="14" lengthAdjust="spacing" textLength="49" x="272" y="502.0732">on_exit</text><text fill="#000000" font-family="sans-serif" font-size="14" lengthAdjust="spacing" textLength="128" x="272" y="518.3701">events: List[Event]</text><line style="stroke:#181818;stroke-width:0.5;" x1="267" x2="405" y1="525.6719" y2="525.6719"/></g><!--class Event--><g id="elem_Event"><rect codeLine="20" fill="#F1F1F1" height="80.5938" id="Event" rx="2.5" ry="2.5" style="stroke:#181818;stroke-width:0.5;" width="78" x="95" y="396"/><ellipse cx="113.15" cy="412" fill="#ADD1B2" rx="11" ry="11" style="stroke:#181818;stroke-width:1.0;"/><path d="M116.1188,417.6406 Q115.5406,417.9375 114.9,418.0781 Q114.2594,418.2344 113.5563,418.2344 Q111.0563,418.2344 109.7281,416.5938 Q108.4156,414.9375 108.4156,411.8125 Q108.4156,408.6875 109.7281,407.0313 Q111.0563,405.375 113.5563,405.375 Q114.2594,405.375 114.9,405.5313 Q115.5563,405.6875 116.1188,405.9844 L116.1188,408.7031 Q115.4938,408.125 114.9,407.8594 Q114.3063,407.5781 113.6813,407.5781 Q112.3375,407.5781 111.65,408.6563 Q110.9625,409.7188 110.9625,411.8125 Q110.9625,413.9063 111.65,414.9844 Q112.3375,416.0469 113.6813,416.0469 Q114.3063,416.0469 114.9,415.7813 Q115.4938,415.5 116.1188,414.9219 L116.1188,417.6406 Z " fill="#000000"/><text fill="#000000" font-family="sans-serif" font-size="14" lengthAdjust="spacing" textLength="39" x="127.85" y="416.8467">Event</text><line style="stroke:#181818;stroke-width:0.5;" x1="96" x2="172" y1="428" y2="428"/><text fill="#000000" font-family="sans-serif" font-size="14" lengthAdjust="spacing" textLength="66" x="101" y="444.9951">name: str</text><text fill="#000000" font-family="sans-serif" font-size="14" lengthAdjust="spacing" textLength="40" x="101" y="461.292">guard</text><line style="stroke:#181818;stroke-width:0.5;" x1="96" x2="172" y1="468.5938" y2="468.5938"/></g><!--class Transition--><g id="elem_Transition"><rect codeLine="25" fill="#F1F1F1" height="96.8906" id="Transition" rx="2.5" ry="2.5" style="stroke:#181818;stroke-width:0.5;" width="130" x="176" y="165"/><ellipse cx="204.5" cy="181" fill="#ADD1B2" rx="11" ry="11" style="stroke:#181818;stroke-width:1.0;"/><path d="M207.4688,186.6406 Q206.8906,186.9375 206.25,187.0781 Q205.6094,187.2344 204.9063,187.2344 Q202.4063,187.2344 201.0781,185.5938 Q199.7656,183.9375 199.7656,180.8125 Q199.7656,177.6875 201.0781,176.0313 Q202.4063,174.375 204.9063,174.375 Q205.6094,174.375 206.25,174.5313 Q206.9063,174.6875 207.4688,174.9844 L207.4688,177.7031 Q206.8438,177.125 206.25,176.8594 Q205.6563,176.5781 205.0313,176.5781 Q203.6875,176.5781 203,177.6563 Q202.3125,178.7188 202.3125,180.8125 Q202.3125,182.9063 203,183.9844 Q203.6875,185.0469 205.0313,185.0469 Q205.6563,185.0469 206.25,184.7813 Q206.8438,184.5 207.4688,183.9219 L207.4688,186.6406 Z " fill="#000000"/><text fill="#000000" font-family="sans-serif" font-size="14" lengthAdjust="spacing" textLength="68" x="221.5" y="185.8467">Transition</text><line style="stroke:#181818;stroke-width:0.5;" x1="177" x2="305" y1="197" y2="197"/><text fill="#000000" font-family="sans-serif" font-size="14" lengthAdjust="spacing" textLength="87" x="182" y="213.9951">event: Event</text><text fill="#000000" font-family="sans-serif" font-size="14" lengthAdjust="spacing" textLength="118" x="182" y="230.292">from_state: State</text><text fill="#000000" font-family="sans-serif" font-size="14" lengthAdjust="spacing" textLength="101" x="182" y="246.5889">to_state: State</text><line style="stroke:#181818;stroke-width:0.5;" x1="177" x2="305" y1="253.8906" y2="253.8906"/></g><!--class Statechart--><g id="elem_Statechart"><rect codeLine="34" fill="#F1F1F1" height="96.8906" id="Statechart" rx="2.5" ry="2.5" style="stroke:#181818;stroke-width:0.5;" width="194" x="144" y="7"/><ellipse cx="201.25" cy="23" fill="#ADD1B2" rx="11" ry="11" style="stroke:#181818;stroke-width:1.0;"/><path d="M204.2188,28.6406 Q203.6406,28.9375 203,29.0781 Q202.3594,29.2344 201.6563,29.2344 Q199.1563,29.2344 197.8281,27.5938 Q196.5156,25.9375 196.5156,22.8125 Q196.5156,19.6875 197.8281,18.0313 Q199.1563,16.375 201.6563,16.375 Q202.3594,16.375 203,16.5313 Q203.6563,16.6875 204.2188,16.9844 L204.2188,19.7031 Q203.5938,19.125 203,18.8594 Q202.4063,18.5781 201.7813,18.5781 Q200.4375,18.5781 199.75,19.6563 Q199.0625,20.7188 199.0625,22.8125 Q199.0625,24.9063 199.75,25.9844 Q200.4375,27.0469 201.7813,27.0469 Q202.4063,27.0469 203,26.7813 Q203.5938,26.5 204.2188,25.9219 L204.2188,28.6406 Z " fill="#000000"/><text fill="#000000" font-family="sans-serif" font-size="14" lengthAdjust="spacing" textLength="71" x="221.75" y="27.8467">Statechart</text><line style="stroke:#181818;stroke-width:0.5;" x1="145" x2="337" y1="39" y2="39"/><text fill="#000000" font-family="sans-serif" font-size="14" lengthAdjust="spacing" textLength="121" x="150" y="55.9951">states: List[State]</text><text fill="#000000" font-family="sans-serif" font-size="14" lengthAdjust="spacing" textLength="128" x="150" y="72.292">events: List[Event]</text><text fill="#000000" font-family="sans-serif" font-size="14" lengthAdjust="spacing" textLength="182" x="150" y="88.5889">transitions: List[Transition]</text><line style="stroke:#181818;stroke-width:0.5;" x1="145" x2="337" y1="95.8906" y2="95.8906"/></g><!--reverse link Transition to State--><g id="link_Transition_State"><path codeLine="30" d="M286.99,273.75 C290.67,279.75 294.08,285.88 297,292 C304.01,306.68 309.93,322.82 314.87,338.82 " fill="none" id="Transition-backto-State" style="stroke:#181818;stroke-width:1.0;"/><polygon fill="#181818" points="279.66,263.44,279.5655,270.6505,286.185,273.5109,286.2795,266.3005,279.66,263.44" style="stroke:#181818;stroke-width:1.0;"/><text fill="#000000" font-family="sans-serif" font-size="13" lengthAdjust="spacing" textLength="70" x="304" y="305.0669">from_state</text><text fill="#000000" font-family="sans-serif" font-size="13" lengthAdjust="spacing" textLength="7" x="277.3846" y="282.1073">*</text><text fill="#000000" font-family="sans-serif" font-size="13" lengthAdjust="spacing" textLength="8" x="304.946" y="327.8517">1</text></g><!--reverse link Transition to State--><g id="link_Transition_State"><path codeLine="31" d="M229.19,276.08 C229.07,287.25 230.34,298.64 234,309 C241.04,328.95 252.71,348.07 265.7,365.13 " fill="none" id="Transition-backto-State-1" style="stroke:#181818;stroke-width:1.0;"/><polygon fill="#181818" points="230,263.13,225.6575,268.887,229.3015,275.1097,233.644,269.3527,230,263.13" style="stroke:#181818;stroke-width:1.0;"/><text fill="#000000" font-family="sans-serif" font-size="13" lengthAdjust="spacing" textLength="53" x="235" y="305.0669">to_state</text><text fill="#000000" font-family="sans-serif" font-size="13" lengthAdjust="spacing" textLength="7" x="220.9609" y="282.1072">*</text><text fill="#000000" font-family="sans-serif" font-size="13" lengthAdjust="spacing" textLength="8" x="250.0378" y="354.0872">1</text></g><!--reverse link Transition to Event--><g id="link_Transition_Event"><path codeLine="32" d="M194.79,273.66 C190.9,279.7 187.22,285.88 184,292 C166.48,325.26 152.97,365.96 144.44,395.51 " fill="none" id="Transition-backto-Event" style="stroke:#181818;stroke-width:1.0;"/><polygon fill="#181818" points="202.49,263.24,195.8218,265.9851,195.7911,273.1961,202.4592,270.451,202.49,263.24" style="stroke:#181818;stroke-width:1.0;"/><text fill="#000000" font-family="sans-serif" font-size="13" lengthAdjust="spacing" textLength="36" x="185" y="305.0669">event</text><text fill="#000000" font-family="sans-serif" font-size="13" lengthAdjust="spacing" textLength="7" x="189.8449" y="281.8804">*</text><text fill="#000000" font-family="sans-serif" font-size="13" lengthAdjust="spacing" textLength="8" x="137.4664" y="384.8918">1</text></g><!--reverse link Statechart to State--><g id="link_Statechart_State"><path codeLine="40" d="M291.38,115.22 C326.03,160.19 368.33,225.6 383,292 C386.37,307.23 385.63,323.13 382.51,338.57 " fill="none" id="Statechart-backto-State" style="stroke:#181818;stroke-width:1.0;"/><polygon fill="none" points="282.76,105.24,283.3181,112.4295,290.1692,114.6795,289.6111,107.49,282.76,105.24" style="stroke:#181818;stroke-width:1.0;"/><text fill="#000000" font-family="sans-serif" font-size="13" lengthAdjust="spacing" textLength="8" x="279.834" y="123.8804">1</text><text fill="#000000" font-family="sans-serif" font-size="13" lengthAdjust="spacing" textLength="7" x="378.6685" y="327.9113">*</text></g><!--reverse link Statechart to Event--><g id="link_Statechart_Event"><path codeLine="41" d="M187.55,115.05 C176.3,130.33 165.8,147.46 159,165 C128.92,242.62 128.44,341.79 131.03,395.9 " fill="none" id="Statechart-backto-Event" style="stroke:#181818;stroke-width:1.0;"/><polygon fill="none" points="195.83,105.28,189.0005,107.5946,188.5103,114.789,195.3398,112.4744,195.83,105.28" style="stroke:#181818;stroke-width:1.0;"/><text fill="#000000" font-family="sans-serif" font-size="13" lengthAdjust="spacing" textLength="8" x="181.2228" y="123.9258">1</text><text fill="#000000" font-family="sans-serif" font-size="13" lengthAdjust="spacing" textLength="7" x="122.9584" y="385.045">*</text></g><!--reverse link Statechart to Transition--><g id="link_Statechart_Transition"><path codeLine="42" d="M241,118.04 C241,133.52 241,149.9 241,164.6 " fill="none" id="Statechart-backto-Transition" style="stroke:#181818;stroke-width:1.0;"/><polygon fill="none" points="241,105.15,237,111.15,241,117.15,245,111.15,241,105.15" style="stroke:#181818;stroke-width:1.0;"/><text fill="#000000" font-family="sans-serif" font-size="13" lengthAdjust="spacing" textLength="8" x="232.4375" y="124.13">1</text><text fill="#000000" font-family="sans-serif" font-size="13" lengthAdjust="spacing" textLength="7" x="233.5297" y="154.1044">*</text></g><!--SRC=[XL4zQyCm4DtrAuH7GuQkMaktKWhDLemvx6ihQab6EfU4alzUwMH53iJKa-_T-NqPxMBa6m7XyJoZ_1KoFe_Ep2veGfvUd3SmyUjhm6K4SH5Yc224_E7waGM3IWRoF8qO1gzdqivMaAA4gcgC6MrxqWRxoGtVIcfB6ORJFTZP7YtvSnd6nKFIk2vFEX_YJxmBIZxhGEzFQUX4zSt0NT-V2_Yn7Xuzs5X4L5YlcLTb0WO-l3DzI97MP3cfkyKkOiFKj8ri3mVPF3HhWsf3yzzbeTwxozbKTdhpeuOly2KrKvH-UDljziQ1hc9bMUMxrDT68RbmoKsxkjvRvXPtbfN_3m00]--></g></svg>