<?xml version="1.0" encoding="us-ascii" standalone="no"?><svg xmlns="http://www.w3.org/2000/svg" xmlns:xlink="http://www.w3.org/1999/xlink" contentStyleType="text/css" height="730px" preserveAspectRatio="none" style="width:927px;height:730px;background:#FFFFFF;" version="1.1" viewBox="0 0 927 730" width="927px" zoomAndPan="magnify"><defs/><g><!--class State--><g id="elem_State"><rect codeLine="1" fill="#F1F1F1" height="178.375" id="State" rx="2.5" ry="2.5" style="stroke:#181818;stroke-width:0.5;" width="268" x="345" y="388"/><ellipse cx="456.75" cy="404" fill="#A9DCDF" rx="11" ry="11" style="stroke:#181818;stroke-width:1.0;"/><path d="M456.8594,399.3438 L455.7031,404.4219 L458.0313,404.4219 L456.8594,399.3438 Z M455.375,397.1094 L458.3594,397.1094 L461.7188,409.5 L459.2656,409.5 L458.5,406.4375 L455.2188,406.4375 L454.4688,409.5 L452.0313,409.5 L455.375,397.1094 Z " fill="#000000"/><text fill="#000000" font-family="sans-serif" font-size="14" font-style="italic" lengthAdjust="spacing" textLength="36" x="477.25" y="408.8467">State</text><line style="stroke:#181818;stroke-width:0.5;" x1="346" x2="612" y1="420" y2="420"/><text fill="#000000" font-family="sans-serif" font-size="14" lengthAdjust="spacing" textLength="66" x="351" y="436.9951">name: str</text><text fill="#000000" font-family="sans-serif" font-size="14" lengthAdjust="spacing" textLength="104" x="351" y="453.292">description: str</text><line style="stroke:#181818;stroke-width:1.0;" x1="346" x2="612" y1="460.5938" y2="460.5938"/><text fill="#000000" font-family="sans-serif" font-size="14" lengthAdjust="spacing" textLength="123" x="351" y="477.5889">min_time_lock: int</text><text fill="#000000" font-family="sans-serif" font-size="14" lengthAdjust="spacing" textLength="126" x="351" y="493.8857">max_time_lock: int</text><text fill="#000000" font-family="sans-serif" font-size="14" lengthAdjust="spacing" textLength="234" x="351" y="510.1826">on_entry: List[UpdateAssignment]</text><text fill="#000000" font-family="sans-serif" font-size="14" lengthAdjust="spacing" textLength="256" x="351" y="526.4795">on_duration: List[UpdateAssignment]</text><text fill="#000000" font-family="sans-serif" font-size="14" lengthAdjust="spacing" textLength="223" x="351" y="542.7764">on_exit: List[UpdateAssignment]</text><text fill="#000000" font-family="sans-serif" font-size="14" lengthAdjust="spacing" textLength="128" x="351" y="559.0732">events: List[Event]</text></g><!--class UpdateAssignment--><g id="elem_UpdateAssignment"><rect codeLine="78" fill="#F1F1F1" height="64.2969" id="UpdateAssignment" rx="2.5" ry="2.5" style="stroke:#181818;stroke-width:0.5;" width="164" x="148" y="651.5"/><ellipse cx="163" cy="667.5" fill="#ADD1B2" rx="11" ry="11" style="stroke:#181818;stroke-width:1.0;"/><path d="M165.9688,673.1406 Q165.3906,673.4375 164.75,673.5781 Q164.1094,673.7344 163.4063,673.7344 Q160.9063,673.7344 159.5781,672.0938 Q158.2656,670.4375 158.2656,667.3125 Q158.2656,664.1875 159.5781,662.5313 Q160.9063,660.875 163.4063,660.875 Q164.1094,660.875 164.75,661.0313 Q165.4063,661.1875 165.9688,661.4844 L165.9688,664.2031 Q165.3438,663.625 164.75,663.3594 Q164.1563,663.0781 163.5313,663.0781 Q162.1875,663.0781 161.5,664.1563 Q160.8125,665.2188 160.8125,667.3125 Q160.8125,669.4063 161.5,670.4844 Q162.1875,671.5469 163.5313,671.5469 Q164.1563,671.5469 164.75,671.2813 Q165.3438,671 165.9688,670.4219 L165.9688,673.1406 Z " fill="#000000"/><text fill="#000000" font-family="sans-serif" font-size="14" lengthAdjust="spacing" textLength="132" x="177" y="672.3467">UpdateAssignment</text><line style="stroke:#181818;stroke-width:0.5;" x1="149" x2="311" y1="683.5" y2="683.5"/><text fill="#000000" font-family="sans-serif" font-size="14" lengthAdjust="spacing" textLength="126" x="154" y="700.4951">rvalue: expression</text><line style="stroke:#181818;stroke-width:0.5;" x1="149" x2="311" y1="707.7969" y2="707.7969"/></g><!--class CompositeState--><g id="elem_CompositeState"><rect codeLine="19" fill="#F1F1F1" height="80.5938" id="CompositeState" rx="2.5" ry="2.5" style="stroke:#181818;stroke-width:0.5;" width="158" x="451" y="643"/><ellipse cx="472.75" cy="659" fill="#ADD1B2" rx="11" ry="11" style="stroke:#181818;stroke-width:1.0;"/><path d="M475.7188,664.6406 Q475.1406,664.9375 474.5,665.0781 Q473.8594,665.2344 473.1563,665.2344 Q470.6563,665.2344 469.3281,663.5938 Q468.0156,661.9375 468.0156,658.8125 Q468.0156,655.6875 469.3281,654.0313 Q470.6563,652.375 473.1563,652.375 Q473.8594,652.375 474.5,652.5313 Q475.1563,652.6875 475.7188,652.9844 L475.7188,655.7031 Q475.0938,655.125 474.5,654.8594 Q473.9063,654.5781 473.2813,654.5781 Q471.9375,654.5781 471.25,655.6563 Q470.5625,656.7188 470.5625,658.8125 Q470.5625,660.9063 471.25,661.9844 Q471.9375,663.0469 473.2813,663.0469 Q473.9063,663.0469 474.5,662.7813 Q475.0938,662.5 475.7188,661.9219 L475.7188,664.6406 Z " fill="#000000"/><text fill="#000000" font-family="sans-serif" font-size="14" lengthAdjust="spacing" textLength="111" x="488.25" y="663.8467">CompositeState</text><line style="stroke:#181818;stroke-width:0.5;" x1="452" x2="608" y1="675" y2="675"/><text fill="#000000" font-family="sans-serif" font-size="14" lengthAdjust="spacing" textLength="146" x="457" y="691.9951">initial: Optional[State]</text><text fill="#000000" font-family="sans-serif" font-size="14" lengthAdjust="spacing" textLength="121" x="457" y="708.292">states: List[State]</text><line style="stroke:#181818;stroke-width:0.5;" x1="452" x2="608" y1="715.5938" y2="715.5938"/></g><!--class NormalState--><g id="elem_NormalState"><rect codeLine="29" fill="#F1F1F1" height="48" id="NormalState" rx="2.5" ry="2.5" style="stroke:#181818;stroke-width:0.5;" width="116" x="649" y="659.5"/><ellipse cx="664" cy="675.5" fill="#ADD1B2" rx="11" ry="11" style="stroke:#181818;stroke-width:1.0;"/><path d="M666.9688,681.1406 Q666.3906,681.4375 665.75,681.5781 Q665.1094,681.7344 664.4063,681.7344 Q661.9063,681.7344 660.5781,680.0938 Q659.2656,678.4375 659.2656,675.3125 Q659.2656,672.1875 660.5781,670.5313 Q661.9063,668.875 664.4063,668.875 Q665.1094,668.875 665.75,669.0313 Q666.4063,669.1875 666.9688,669.4844 L666.9688,672.2031 Q666.3438,671.625 665.75,671.3594 Q665.1563,671.0781 664.5313,671.0781 Q663.1875,671.0781 662.5,672.1563 Q661.8125,673.2188 661.8125,675.3125 Q661.8125,677.4063 662.5,678.4844 Q663.1875,679.5469 664.5313,679.5469 Q665.1563,679.5469 665.75,679.2813 Q666.3438,679 666.9688,678.4219 L666.9688,681.1406 Z " fill="#000000"/><text fill="#000000" font-family="sans-serif" font-size="14" lengthAdjust="spacing" textLength="84" x="678" y="680.3467">NormalState</text><line style="stroke:#181818;stroke-width:0.5;" x1="650" x2="764" y1="691.5" y2="691.5"/><line style="stroke:#181818;stroke-width:0.5;" x1="650" x2="764" y1="699.5" y2="699.5"/></g><!--class PseudaState--><g id="elem_PseudaState"><rect codeLine="34" fill="#F1F1F1" height="48" id="PseudaState" rx="2.5" ry="2.5" style="stroke:#181818;stroke-width:0.5;" width="120" x="800" y="659.5"/><ellipse cx="815" cy="675.5" fill="#ADD1B2" rx="11" ry="11" style="stroke:#181818;stroke-width:1.0;"/><path d="M817.9688,681.1406 Q817.3906,681.4375 816.75,681.5781 Q816.1094,681.7344 815.4063,681.7344 Q812.9063,681.7344 811.5781,680.0938 Q810.2656,678.4375 810.2656,675.3125 Q810.2656,672.1875 811.5781,670.5313 Q812.9063,668.875 815.4063,668.875 Q816.1094,668.875 816.75,669.0313 Q817.4063,669.1875 817.9688,669.4844 L817.9688,672.2031 Q817.3438,671.625 816.75,671.3594 Q816.1563,671.0781 815.5313,671.0781 Q814.1875,671.0781 813.5,672.1563 Q812.8125,673.2188 812.8125,675.3125 Q812.8125,677.4063 813.5,678.4844 Q814.1875,679.5469 815.5313,679.5469 Q816.1563,679.5469 816.75,679.2813 Q817.3438,679 817.9688,678.4219 L817.9688,681.1406 Z " fill="#000000"/><text fill="#000000" font-family="sans-serif" font-size="14" lengthAdjust="spacing" textLength="88" x="829" y="680.3467">PseudaState</text><line style="stroke:#181818;stroke-width:0.5;" x1="801" x2="919" y1="691.5" y2="691.5"/><line style="stroke:#181818;stroke-width:0.5;" x1="801" x2="919" y1="699.5" y2="699.5"/></g><!--class Event--><g id="elem_Event"><rect codeLine="38" fill="#F1F1F1" height="80.5938" id="Event" rx="2.5" ry="2.5" style="stroke:#181818;stroke-width:0.5;" width="78" x="231" y="436.5"/><ellipse cx="249.15" cy="452.5" fill="#ADD1B2" rx="11" ry="11" style="stroke:#181818;stroke-width:1.0;"/><path d="M252.1188,458.1406 Q251.5406,458.4375 250.9,458.5781 Q250.2594,458.7344 249.5563,458.7344 Q247.0563,458.7344 245.7281,457.0938 Q244.4156,455.4375 244.4156,452.3125 Q244.4156,449.1875 245.7281,447.5313 Q247.0563,445.875 249.5563,445.875 Q250.2594,445.875 250.9,446.0313 Q251.5563,446.1875 252.1188,446.4844 L252.1188,449.2031 Q251.4938,448.625 250.9,448.3594 Q250.3063,448.0781 249.6813,448.0781 Q248.3375,448.0781 247.65,449.1563 Q246.9625,450.2188 246.9625,452.3125 Q246.9625,454.4063 247.65,455.4844 Q248.3375,456.5469 249.6813,456.5469 Q250.3063,456.5469 250.9,456.2813 Q251.4938,456 252.1188,455.4219 L252.1188,458.1406 Z " fill="#000000"/><text fill="#000000" font-family="sans-serif" font-size="14" lengthAdjust="spacing" textLength="39" x="263.85" y="457.3467">Event</text><line style="stroke:#181818;stroke-width:0.5;" x1="232" x2="308" y1="468.5" y2="468.5"/><text fill="#000000" font-family="sans-serif" font-size="14" lengthAdjust="spacing" textLength="66" x="237" y="485.4951">name: str</text><text fill="#000000" font-family="sans-serif" font-size="14" lengthAdjust="spacing" textLength="40" x="237" y="501.792">guard</text><line style="stroke:#181818;stroke-width:0.5;" x1="232" x2="308" y1="509.0938" y2="509.0938"/></g><!--class Transition--><g id="elem_Transition"><rect codeLine="43" fill="#F1F1F1" height="96.8906" id="Transition" rx="2.5" ry="2.5" style="stroke:#181818;stroke-width:0.5;" width="130" x="340" y="214"/><ellipse cx="368.5" cy="230" fill="#ADD1B2" rx="11" ry="11" style="stroke:#181818;stroke-width:1.0;"/><path d="M371.4688,235.6406 Q370.8906,235.9375 370.25,236.0781 Q369.6094,236.2344 368.9063,236.2344 Q366.4063,236.2344 365.0781,234.5938 Q363.7656,232.9375 363.7656,229.8125 Q363.7656,226.6875 365.0781,225.0313 Q366.4063,223.375 368.9063,223.375 Q369.6094,223.375 370.25,223.5313 Q370.9063,223.6875 371.4688,223.9844 L371.4688,226.7031 Q370.8438,226.125 370.25,225.8594 Q369.6563,225.5781 369.0313,225.5781 Q367.6875,225.5781 367,226.6563 Q366.3125,227.7188 366.3125,229.8125 Q366.3125,231.9063 367,232.9844 Q367.6875,234.0469 369.0313,234.0469 Q369.6563,234.0469 370.25,233.7813 Q370.8438,233.5 371.4688,232.9219 L371.4688,235.6406 Z " fill="#000000"/><text fill="#000000" font-family="sans-serif" font-size="14" lengthAdjust="spacing" textLength="68" x="385.5" y="234.8467">Transition</text><line style="stroke:#181818;stroke-width:0.5;" x1="341" x2="469" y1="246" y2="246"/><text fill="#000000" font-family="sans-serif" font-size="14" lengthAdjust="spacing" textLength="87" x="346" y="262.9951">event: Event</text><text fill="#000000" font-family="sans-serif" font-size="14" lengthAdjust="spacing" textLength="118" x="346" y="279.292">from_state: State</text><text fill="#000000" font-family="sans-serif" font-size="14" lengthAdjust="spacing" textLength="101" x="346" y="295.5889">to_state: State</text><line style="stroke:#181818;stroke-width:0.5;" x1="341" x2="469" y1="302.8906" y2="302.8906"/></g><!--class Statechart--><g id="elem_Statechart"><rect codeLine="52" fill="#F1F1F1" height="145.7813" id="Statechart" rx="2.5" ry="2.5" style="stroke:#181818;stroke-width:0.5;" width="254" x="278" y="7"/><ellipse cx="365.25" cy="23" fill="#ADD1B2" rx="11" ry="11" style="stroke:#181818;stroke-width:1.0;"/><path d="M368.2188,28.6406 Q367.6406,28.9375 367,29.0781 Q366.3594,29.2344 365.6563,29.2344 Q363.1563,29.2344 361.8281,27.5938 Q360.5156,25.9375 360.5156,22.8125 Q360.5156,19.6875 361.8281,18.0313 Q363.1563,16.375 365.6563,16.375 Q366.3594,16.375 367,16.5313 Q367.6563,16.6875 368.2188,16.9844 L368.2188,19.7031 Q367.5938,19.125 367,18.8594 Q366.4063,18.5781 365.7813,18.5781 Q364.4375,18.5781 363.75,19.6563 Q363.0625,20.7188 363.0625,22.8125 Q363.0625,24.9063 363.75,25.9844 Q364.4375,27.0469 365.7813,27.0469 Q366.4063,27.0469 367,26.7813 Q367.5938,26.5 368.2188,25.9219 L368.2188,28.6406 Z " fill="#000000"/><text fill="#000000" font-family="sans-serif" font-size="14" lengthAdjust="spacing" textLength="71" x="385.75" y="27.8467">Statechart</text><line style="stroke:#181818;stroke-width:0.5;" x1="279" x2="531" y1="39" y2="39"/><text fill="#000000" font-family="sans-serif" font-size="14" lengthAdjust="spacing" textLength="66" x="284" y="55.9951">name: str</text><text fill="#000000" font-family="sans-serif" font-size="14" lengthAdjust="spacing" textLength="242" x="284" y="72.292">preamble: List[DeclareAssignment]</text><text fill="#000000" font-family="sans-serif" font-size="14" lengthAdjust="spacing" textLength="148" x="284" y="88.5889">root_state: RootState</text><line style="stroke:#181818;stroke-width:1.0;" x1="279" x2="531" y1="95.8906" y2="95.8906"/><text fill="#000000" font-family="sans-serif" font-size="14" lengthAdjust="spacing" textLength="121" x="284" y="112.8857">states: List[State]</text><text fill="#000000" font-family="sans-serif" font-size="14" lengthAdjust="spacing" textLength="128" x="284" y="129.1826">events: List[Event]</text><text fill="#000000" font-family="sans-serif" font-size="14" lengthAdjust="spacing" textLength="182" x="284" y="145.4795">transitions: List[Transition]</text></g><!--class DeclareAssignment--><g id="elem_DeclareAssignment"><rect codeLine="72" fill="#F1F1F1" height="64.2969" id="DeclareAssignment" rx="2.5" ry="2.5" style="stroke:#181818;stroke-width:0.5;" width="167" x="48.5" y="230.5"/><ellipse cx="63.5" cy="246.5" fill="#ADD1B2" rx="11" ry="11" style="stroke:#181818;stroke-width:1.0;"/><path d="M66.4688,252.1406 Q65.8906,252.4375 65.25,252.5781 Q64.6094,252.7344 63.9063,252.7344 Q61.4063,252.7344 60.0781,251.0938 Q58.7656,249.4375 58.7656,246.3125 Q58.7656,243.1875 60.0781,241.5313 Q61.4063,239.875 63.9063,239.875 Q64.6094,239.875 65.25,240.0313 Q65.9063,240.1875 66.4688,240.4844 L66.4688,243.2031 Q65.8438,242.625 65.25,242.3594 Q64.6563,242.0781 64.0313,242.0781 Q62.6875,242.0781 62,243.1563 Q61.3125,244.2188 61.3125,246.3125 Q61.3125,248.4063 62,249.4844 Q62.6875,250.5469 64.0313,250.5469 Q64.6563,250.5469 65.25,250.2813 Q65.8438,250 66.4688,249.4219 L66.4688,252.1406 Z " fill="#000000"/><text fill="#000000" font-family="sans-serif" font-size="14" lengthAdjust="spacing" textLength="135" x="77.5" y="251.3467">DeclareAssignment</text><line style="stroke:#181818;stroke-width:0.5;" x1="49.5" x2="214.5" y1="262.5" y2="262.5"/><text fill="#000000" font-family="sans-serif" font-size="14" lengthAdjust="spacing" textLength="140" x="54.5" y="279.4951">initial_value: number</text><line style="stroke:#181818;stroke-width:0.5;" x1="49.5" x2="214.5" y1="286.7969" y2="286.7969"/></g><!--class Assignment--><g id="elem_Assignment"><rect codeLine="68" fill="#F1F1F1" height="64.2969" id="Assignment" rx="2.5" ry="2.5" style="stroke:#181818;stroke-width:0.5;" width="114" x="7" y="48"/><ellipse cx="22" cy="64" fill="#A9DCDF" rx="11" ry="11" style="stroke:#181818;stroke-width:1.0;"/><path d="M22.1094,59.3438 L20.9531,64.4219 L23.2813,64.4219 L22.1094,59.3438 Z M20.625,57.1094 L23.6094,57.1094 L26.9688,69.5 L24.5156,69.5 L23.75,66.4375 L20.4688,66.4375 L19.7188,69.5 L17.2813,69.5 L20.625,57.1094 Z " fill="#000000"/><text fill="#000000" font-family="sans-serif" font-size="14" font-style="italic" lengthAdjust="spacing" textLength="82" x="36" y="68.8467">Assignment</text><line style="stroke:#181818;stroke-width:0.5;" x1="8" x2="120" y1="80" y2="80"/><text fill="#000000" font-family="sans-serif" font-size="14" lengthAdjust="spacing" textLength="66" x="13" y="96.9951">lvalue: str</text><line style="stroke:#181818;stroke-width:0.5;" x1="8" x2="120" y1="104.2969" y2="104.2969"/></g><!--reverse link State to UpdateAssignment--><g id="link_State_UpdateAssignment"><path codeLine="13" d="M331.79,563.75 C329.86,564.52 327.93,565.27 326,566 C263.21,589.7 220.48,544.04 178,596 C164.14,612.96 176.21,633.98 192.2,651.05 " fill="none" id="State-backto-UpdateAssignment" style="stroke:#181818;stroke-width:1.0;"/><polygon fill="#181818" points="343.57,558.38,336.4883,557.0199,332.5091,563.0337,339.5908,564.3938,343.57,558.38" style="stroke:#181818;stroke-width:1.0;"/><text fill="#000000" font-family="sans-serif" font-size="13" lengthAdjust="spacing" textLength="56" x="179" y="609.0669">on_entry</text><text fill="#000000" font-family="sans-serif" font-size="13" lengthAdjust="spacing" textLength="8" x="328.9996" y="559.4806">1</text><text fill="#000000" font-family="sans-serif" font-size="13" lengthAdjust="spacing" textLength="7" x="177.3272" y="640.4858">*</text></g><!--reverse link State to UpdateAssignment--><g id="link_State_UpdateAssignment"><path codeLine="14" d="M332.95,561.98 C301.75,580.1 277.55,594.39 276,596 C260.9,611.68 249.4,633.31 241.67,651.01 " fill="none" id="State-backto-UpdateAssignment-1" style="stroke:#181818;stroke-width:1.0;"/><polygon fill="#181818" points="343.73,555.14,336.5327,554.6939,333.3527,561.1659,340.55,561.6121,343.73,555.14" style="stroke:#181818;stroke-width:1.0;"/><text fill="#000000" font-family="sans-serif" font-size="13" lengthAdjust="spacing" textLength="76" x="277" y="609.0669">on_duration</text><text fill="#000000" font-family="sans-serif" font-size="13" lengthAdjust="spacing" textLength="8" x="329.1684" y="571.8837">1</text><text fill="#000000" font-family="sans-serif" font-size="13" lengthAdjust="spacing" textLength="7" x="236.2274" y="640.4382">*</text></g><!--reverse link State to UpdateAssignment--><g id="link_State_UpdateAssignment"><path codeLine="15" d="M398.28,576.31 C385.49,589.38 371.87,602.04 358,613 C339.85,627.34 318.32,640.31 298.15,651.06 " fill="none" id="State-backto-UpdateAssignment-2" style="stroke:#181818;stroke-width:1.0;"/><polygon fill="#181818" points="406.9,567.25,399.8626,568.8234,398.6083,575.9246,405.6457,574.3512,406.9,567.25" style="stroke:#181818;stroke-width:1.0;"/><text fill="#000000" font-family="sans-serif" font-size="13" lengthAdjust="spacing" textLength="46" x="378" y="609.0669">on_exit</text><text fill="#000000" font-family="sans-serif" font-size="13" lengthAdjust="spacing" textLength="8" x="393.6808" y="586.319">1</text><text fill="#000000" font-family="sans-serif" font-size="13" lengthAdjust="spacing" textLength="7" x="303.4739" y="640.4977">*</text></g><!--reverse link State to CompositeState--><g id="link_State_CompositeState"><path codeLine="17" d="M483.61,586.66 C485.27,595.66 487.37,604.55 490,613 C493.14,623.1 497.95,633.33 503.15,642.72 " fill="none" id="State-backto-CompositeState" style="stroke:#181818;stroke-width:1.0;"/><polygon fill="none" points="476.59,588.03,480.56,567.22,490.44,585.97,476.59,588.03" style="stroke:#181818;stroke-width:1.0;"/></g><!--reverse link CompositeState to State--><g id="link_CompositeState_State"><path codeLine="24" d="M516.73,629.3 C511.93,610.03 506.36,587.7 501,566.21 " fill="none" id="CompositeState-backto-State" style="stroke:#181818;stroke-width:1.0;"/><polygon fill="#181818" points="520.09,641.75,522.5135,634.9584,517.1765,630.1091,514.7529,636.9007,520.09,641.75" style="stroke:#181818;stroke-width:1.0;"/><text fill="#000000" font-family="sans-serif" font-size="13" lengthAdjust="spacing" textLength="33" x="514" y="609.0669">initial</text><text fill="#000000" font-family="sans-serif" font-size="13" lengthAdjust="spacing" textLength="8" x="509.7862" y="631.8701">1</text><text fill="#000000" font-family="sans-serif" font-size="13" lengthAdjust="spacing" textLength="24" x="477.8594" y="586.5775">0..1</text></g><!--reverse link CompositeState to State--><g id="link_CompositeState_State"><path codeLine="25" d="M555.92,629.69 C558.56,618.56 559.24,606.9 556,596 C553,585.92 548.84,575.89 543.99,566.19 " fill="none" id="CompositeState-backto-State-1" style="stroke:#181818;stroke-width:1.0;"/><polygon fill="#181818" points="551.86,641.9,557.4491,637.3435,555.3927,630.4318,549.8036,634.9883,551.86,641.9" style="stroke:#181818;stroke-width:1.0;"/><text fill="#000000" font-family="sans-serif" font-size="13" lengthAdjust="spacing" textLength="40" x="560" y="609.0669">states</text><text fill="#000000" font-family="sans-serif" font-size="13" lengthAdjust="spacing" textLength="8" x="546.8181" y="632.045">1</text><text fill="#000000" font-family="sans-serif" font-size="13" lengthAdjust="spacing" textLength="23" x="525.5868" y="586.5558">0..*</text></g><!--reverse link State to NormalState--><g id="link_State_NormalState"><path codeLine="27" d="M592.96,580.21 C625.9,609.76 658.86,639.32 680.81,659.01 " fill="none" id="State-backto-NormalState" style="stroke:#181818;stroke-width:1.0;"/><polygon fill="none" points="588.56,585.78,578.35,567.21,597.91,575.35,588.56,585.78" style="stroke:#181818;stroke-width:1.0;"/></g><!--reverse link State to PseudaState--><g id="link_State_PseudaState"><path codeLine="32" d="M631.46,559.83 C698.09,595.6 771.2,634.84 816.35,659.07 " fill="none" id="State-backto-PseudaState" style="stroke:#181818;stroke-width:1.0;"/><polygon fill="none" points="628.64,565.73,614.33,550.1,635.26,553.39,628.64,565.73" style="stroke:#181818;stroke-width:1.0;"/></g><!--reverse link Transition to State--><g id="link_Transition_State"><path codeLine="48" d="M452.28,323.1 C455.61,328.95 458.59,334.96 461,341 C466.82,355.61 470.83,371.74 473.58,387.61 " fill="none" id="Transition-backto-State" style="stroke:#181818;stroke-width:1.0;"/><polygon fill="#181818" points="445.05,312.38,444.7994,319.5867,451.3554,322.5899,451.606,315.3832,445.05,312.38" style="stroke:#181818;stroke-width:1.0;"/><text fill="#000000" font-family="sans-serif" font-size="13" lengthAdjust="spacing" textLength="70" x="467" y="354.0669">from_state</text><text fill="#000000" font-family="sans-serif" font-size="13" lengthAdjust="spacing" textLength="7" x="442.9614" y="331.0392">*</text><text fill="#000000" font-family="sans-serif" font-size="13" lengthAdjust="spacing" textLength="8" x="464.8293" y="376.9463">1</text></g><!--reverse link Transition to State--><g id="link_Transition_State"><path codeLine="49" d="M393.84,325.21 C393.69,336.29 394.78,347.61 398,358 C401.13,368.09 405.45,378.08 410.48,387.72 " fill="none" id="Transition-backto-State-1" style="stroke:#181818;stroke-width:1.0;"/><polygon fill="#181818" points="394.63,312.39,390.2935,318.1515,393.9439,324.3704,398.2804,318.6089,394.63,312.39" style="stroke:#181818;stroke-width:1.0;"/><text fill="#000000" font-family="sans-serif" font-size="13" lengthAdjust="spacing" textLength="53" x="399" y="354.0669">to_state</text><text fill="#000000" font-family="sans-serif" font-size="13" lengthAdjust="spacing" textLength="7" x="385.7662" y="331.0506">*</text><text fill="#000000" font-family="sans-serif" font-size="13" lengthAdjust="spacing" textLength="8" x="396.7011" y="377.0651">1</text></g><!--reverse link Transition to Event--><g id="link_Transition_Event"><path codeLine="50" d="M361.53,322.44 C357.21,328.65 352.97,334.92 349,341 C328.61,372.28 307.34,408.91 292.01,436.11 " fill="none" id="Transition-backto-Event" style="stroke:#181818;stroke-width:1.0;"/><polygon fill="#181818" points="369.32,312.37,362.5948,314.9722,362.4102,322.1809,369.1354,319.5787,369.32,312.37" style="stroke:#181818;stroke-width:1.0;"/><text fill="#000000" font-family="sans-serif" font-size="13" lengthAdjust="spacing" textLength="36" x="350" y="354.0669">event</text><text fill="#000000" font-family="sans-serif" font-size="13" lengthAdjust="spacing" textLength="7" x="357.0552" y="331.0279">*</text><text fill="#000000" font-family="sans-serif" font-size="13" lengthAdjust="spacing" textLength="8" x="286.8803" y="425.5077">1</text></g><!--reverse link Statechart to DeclareAssignment--><g id="link_Statechart_DeclareAssignment"><path codeLine="62" d="M277.02,160.68 C265.47,168.15 253.99,175.66 243,183 C220.43,198.07 195.73,215.44 175.38,230.01 " fill="none" id="Statechart-backto-DeclareAssignment" style="stroke:#181818;stroke-width:1.0;"/><polygon fill="#181818" points="287.59,153.24,280.3799,153.1213,277.4971,159.7311,284.7073,159.8498,287.59,153.24" style="stroke:#181818;stroke-width:1.0;"/><text fill="#000000" font-family="sans-serif" font-size="13" lengthAdjust="spacing" textLength="8" x="269.4897" y="172.7663">1</text><text fill="#000000" font-family="sans-serif" font-size="13" lengthAdjust="spacing" textLength="7" x="175.9821" y="219.4382">*</text></g><!--reverse link Statechart to CompositeState--><g id="link_Statechart_CompositeState"><path codeLine="63" d="M499.14,163.22 C514.79,179.2 530.11,196.46 543,214 C594.2,283.67 610.14,303.85 630,388 C653.08,485.75 668.55,532.13 609,613 C601.2,623.59 591.54,633.72 581.68,642.81 " fill="none" id="Statechart-backto-CompositeState" style="stroke:#181818;stroke-width:1.0;"/><polygon fill="#181818" points="490.36,154.44,491.7742,161.5111,498.8453,162.9253,497.4311,155.8542,490.36,154.44" style="stroke:#181818;stroke-width:1.0;"/><text fill="#000000" font-family="sans-serif" font-size="13" lengthAdjust="spacing" textLength="8" x="488.5171" y="172.7313">1</text><text fill="#000000" font-family="sans-serif" font-size="13" lengthAdjust="spacing" textLength="8" x="581.577" y="631.9401">1</text></g><!--reverse link Statechart to State--><g id="link_Statechart_State"><path codeLine="64" d="M466.08,164.74 C497.46,213.48 532,277.64 546,341 C549.47,356.71 547.41,372.67 542.27,387.84 " fill="none" id="Statechart-backto-State" style="stroke:#181818;stroke-width:1.0;"/><polygon fill="none" points="458.6,154.33,458.5451,161.5409,465.1801,164.365,465.2351,157.1541,458.6,154.33" style="stroke:#181818;stroke-width:1.0;"/><text fill="#000000" font-family="sans-serif" font-size="13" lengthAdjust="spacing" textLength="8" x="455.1725" y="172.8646">1</text><text fill="#000000" font-family="sans-serif" font-size="13" lengthAdjust="spacing" textLength="7" x="540.2197" y="376.8922">*</text></g><!--reverse link Statechart to Event--><g id="link_Statechart_Event"><path codeLine="65" d="M346.19,165.2 C337.05,180.91 328.51,197.56 322,214 C292.22,289.24 278.87,383.64 273.4,436.12 " fill="none" id="Statechart-backto-Event" style="stroke:#181818;stroke-width:1.0;"/><polygon fill="none" points="353.26,154.39,346.746,157.4831,347.0958,164.6857,353.6098,161.5926,353.26,154.39" style="stroke:#181818;stroke-width:1.0;"/><text fill="#000000" font-family="sans-serif" font-size="13" lengthAdjust="spacing" textLength="8" x="340.1215" y="172.9301">1</text><text fill="#000000" font-family="sans-serif" font-size="13" lengthAdjust="spacing" textLength="7" x="266.3841" y="425.5193">*</text></g><!--reverse link Statechart to Transition--><g id="link_Statechart_Transition"><path codeLine="66" d="M405,167.32 C405,183.29 405,199.43 405,213.72 " fill="none" id="Statechart-backto-Transition" style="stroke:#181818;stroke-width:1.0;"/><polygon fill="none" points="405,154.38,401,160.38,405,166.38,409,160.38,405,154.38" style="stroke:#181818;stroke-width:1.0;"/><text fill="#000000" font-family="sans-serif" font-size="13" lengthAdjust="spacing" textLength="8" x="396.6313" y="172.9192">1</text><text fill="#000000" font-family="sans-serif" font-size="13" lengthAdjust="spacing" textLength="7" x="397.5078" y="202.8895">*</text></g><!--reverse link Assignment to DeclareAssignment--><g id="link_Assignment_DeclareAssignment"><path codeLine="76" d="M83.15,131.83 C95.05,163.43 109.98,203.04 120.18,230.12 " fill="none" id="Assignment-backto-DeclareAssignment" style="stroke:#181818;stroke-width:1.0;"/><polygon fill="none" points="76.35,134.62,75.84,113.44,89.45,129.69,76.35,134.62" style="stroke:#181818;stroke-width:1.0;"/></g><!--reverse link Assignment to UpdateAssignment--><g id="link_Assignment_UpdateAssignment"><path codeLine="82" d="M46.37,132.48 C32.75,179.31 18.21,250.2 31,311 C61.2,454.52 82.74,490.91 164,613 C173.03,626.58 184.82,639.94 195.94,651.27 " fill="none" id="Assignment-backto-UpdateAssignment" style="stroke:#181818;stroke-width:1.0;"/><polygon fill="none" points="39.96,130.51,52.56,113.48,53.33,134.65,39.96,130.51" style="stroke:#181818;stroke-width:1.0;"/></g><!--SRC=[ZLJ9JiCm4BtxAwmUAmN1rGSa1DmG89PJXQ9fOef5R4UsKnML_ZkEbpXj5ffBd9atp_Dc2QorKL0ON5IWDNurO2ZU8smV0PmIRDtkgwIwKAmsJ8fapBBClJaJkM6SvfKilWbcmdWpxCRCKkHK6FL3y0FJPlLUb_RI6wtPHd3h-8YWib7Wxvl7qHqpinYwjKST8FTRPpyWvCKkhXPucMLuiLpWqt3IvNekEEPyDhdD7Q5RoMkfcQ4-AclgxFVQDmCXtvaJY6yH4ymmg0X-Ses1QkMyNhLkZr5ri1y6TtKPNbvSsACtaiWyXrucjByAeKUfE5JJ8lh-VPlCiwPD2TC1VVyUjH7UxfeuEgUR1bIPW6yAX4tV5YUWtImGJ-0Cdqhot0aWuUxMQkInxO1wJ6qtNHLw1Kiq_o4ZzHJEQoC-qwZ31HTVeCPLrue2NrSqTFkEsYWrs0CbfOcoNkmvoOsBF3OpKnlaojH9YCuaAksOpxk_2uC4Hu7sVJn_foWPw6QTljKJpfGkGd3yBqp9XP9NMwYQKFHkm0PAZbSp3p6YuMlgmeO1OV1xnGZSft-CGAq29ztPjbkdpTto3i03sZy0]--></g></svg>