<svg xmlns="http://www.w3.org/2000/svg" xmlns:xlink="http://www.w3.org/1999/xlink" contentStyleType="text/css" data-diagram-type="CLASS" height="714px" preserveAspectRatio="none" style="width:933px;height:714px;background:#FFFFFF;" version="1.1" viewBox="0 0 933 714" width="933px" zoomAndPan="magnify"><defs/><g><!--class State--><g class="entity" data-entity="State" data-source-line="1" data-uid="ent0002" id="entity_State"><rect fill="#F1F1F1" height="162.0781" rx="2.5" ry="2.5" style="stroke:#181818;stroke-width:0.5;" width="273.0439" x="343.69" y="387.67"/><ellipse cx="457.4332" cy="403.67" fill="#A9DCDF" rx="11" ry="11" style="stroke:#181818;stroke-width:1;"/><path d="M457.5425,399.0138 L456.3863,404.0919 L458.7144,404.0919 L457.5425,399.0138 Z M456.0582,396.7794 L459.0425,396.7794 L462.4019,409.17 L459.9488,409.17 L459.1832,406.1075 L455.9019,406.1075 L455.1519,409.17 L452.7144,409.17 L456.0582,396.7794 Z " fill="#000000"/><text fill="#000000" font-family="sans-serif" font-size="14" font-style="italic" lengthAdjust="spacing" textLength="37.0576" x="477.9332" y="408.5167">State</text><line style="stroke:#181818;stroke-width:0.5;" x1="344.69" x2="615.7339" y1="419.67" y2="419.67"/><text fill="#000000" font-family="sans-serif" font-size="14" lengthAdjust="spacing" textLength="67.4092" x="349.69" y="436.6651">name: str</text><text fill="#000000" font-family="sans-serif" font-size="14" lengthAdjust="spacing" textLength="105.5469" x="349.69" y="452.962">description: str</text><line style="stroke:#181818;stroke-width:1;" x1="344.69" x2="615.7339" y1="460.2638" y2="460.2638"/><text fill="#000000" font-family="sans-serif" font-size="14" lengthAdjust="spacing" textLength="127.709" x="349.69" y="477.2589">min_time_lock: int</text><text fill="#000000" font-family="sans-serif" font-size="14" lengthAdjust="spacing" textLength="131.8105" x="349.69" y="493.5557">max_time_lock: int</text><text fill="#000000" font-family="sans-serif" font-size="14" lengthAdjust="spacing" textLength="239.1484" x="349.69" y="509.8526">on_entry: List[UpdateAssignment]</text><text fill="#000000" font-family="sans-serif" font-size="14" lengthAdjust="spacing" textLength="261.0439" x="349.69" y="526.1495">on_duration: List[UpdateAssignment]</text><text fill="#000000" font-family="sans-serif" font-size="14" lengthAdjust="spacing" textLength="228.4092" x="349.69" y="542.4464">on_exit: List[UpdateAssignment]</text></g><!--class UpdateAssignment--><g class="entity" data-entity="UpdateAssignment" data-source-line="12" data-uid="ent0003" id="entity_UpdateAssignment"><rect fill="#F1F1F1" height="64.2969" rx="2.5" ry="2.5" style="stroke:#181818;stroke-width:0.5;" width="165.1299" x="108.65" y="634.89"/><ellipse cx="123.65" cy="650.89" fill="#ADD1B2" rx="11" ry="11" style="stroke:#181818;stroke-width:1;"/><path d="M126.6188,656.5306 Q126.0406,656.8275 125.4,656.9681 Q124.7594,657.1244 124.0563,657.1244 Q121.5563,657.1244 120.2281,655.4838 Q118.9156,653.8275 118.9156,650.7025 Q118.9156,647.5775 120.2281,645.9213 Q121.5563,644.265 124.0563,644.265 Q124.7594,644.265 125.4,644.4213 Q126.0563,644.5775 126.6188,644.8744 L126.6188,647.5931 Q125.9938,647.015 125.4,646.7494 Q124.8063,646.4681 124.1813,646.4681 Q122.8375,646.4681 122.15,647.5463 Q121.4625,648.6088 121.4625,650.7025 Q121.4625,652.7963 122.15,653.8744 Q122.8375,654.9369 124.1813,654.9369 Q124.8063,654.9369 125.4,654.6713 Q125.9938,654.39 126.6188,653.8119 L126.6188,656.5306 Z " fill="#000000"/><text fill="#000000" font-family="sans-serif" font-size="14" lengthAdjust="spacing" textLength="133.1299" x="137.65" y="655.7367">UpdateAssignment</text><line style="stroke:#181818;stroke-width:0.5;" x1="109.65" x2="272.7799" y1="666.89" y2="666.89"/><text fill="#000000" font-family="sans-serif" font-size="14" lengthAdjust="spacing" textLength="129.2334" x="114.65" y="683.8851">rvalue: expression</text><line style="stroke:#181818;stroke-width:0.5;" x1="109.65" x2="272.7799" y1="691.1869" y2="691.1869"/></g><!--class CompositeState--><g class="entity" data-entity="CompositeState" data-source-line="16" data-uid="ent0007" id="entity_CompositeState"><rect fill="#F1F1F1" height="80.5938" rx="2.5" ry="2.5" style="stroke:#181818;stroke-width:0.5;" width="143.7744" x="444.33" y="626.75"/><ellipse cx="459.33" cy="642.75" fill="#ADD1B2" rx="11" ry="11" style="stroke:#181818;stroke-width:1;"/><path d="M462.2988,648.3906 Q461.7206,648.6875 461.08,648.8281 Q460.4394,648.9844 459.7363,648.9844 Q457.2363,648.9844 455.9081,647.3438 Q454.5956,645.6875 454.5956,642.5625 Q454.5956,639.4375 455.9081,637.7813 Q457.2363,636.125 459.7363,636.125 Q460.4394,636.125 461.08,636.2813 Q461.7363,636.4375 462.2988,636.7344 L462.2988,639.4531 Q461.6738,638.875 461.08,638.6094 Q460.4863,638.3281 459.8613,638.3281 Q458.5175,638.3281 457.83,639.4063 Q457.1425,640.4688 457.1425,642.5625 Q457.1425,644.6563 457.83,645.7344 Q458.5175,646.7969 459.8613,646.7969 Q460.4863,646.7969 461.08,646.5313 Q461.6738,646.25 462.2988,645.6719 L462.2988,648.3906 Z " fill="#000000"/><text fill="#000000" font-family="sans-serif" font-size="14" lengthAdjust="spacing" textLength="111.7744" x="473.33" y="647.5967">CompositeState</text><line style="stroke:#181818;stroke-width:0.5;" x1="445.33" x2="587.1044" y1="658.75" y2="658.75"/><text fill="#000000" font-family="sans-serif" font-size="14" lengthAdjust="spacing" textLength="127.1895" x="450.33" y="675.7451">initial_state: State</text><text fill="#000000" font-family="sans-serif" font-size="14" lengthAdjust="spacing" textLength="124.3799" x="450.33" y="692.042">states: List[State]</text><line style="stroke:#181818;stroke-width:0.5;" x1="445.33" x2="587.1044" y1="699.3438" y2="699.3438"/></g><!--class NormalState--><g class="entity" data-entity="NormalState" data-source-line="26" data-uid="ent0012" id="entity_NormalState"><rect fill="#F1F1F1" height="48" rx="2.5" ry="2.5" style="stroke:#181818;stroke-width:0.5;" width="119.958" x="651.23" y="643.04"/><ellipse cx="666.23" cy="659.04" fill="#ADD1B2" rx="11" ry="11" style="stroke:#181818;stroke-width:1;"/><path d="M669.1988,664.6806 Q668.6206,664.9775 667.98,665.1181 Q667.3394,665.2744 666.6363,665.2744 Q664.1363,665.2744 662.8081,663.6338 Q661.4956,661.9775 661.4956,658.8525 Q661.4956,655.7275 662.8081,654.0713 Q664.1363,652.415 666.6363,652.415 Q667.3394,652.415 667.98,652.5713 Q668.6363,652.7275 669.1988,653.0244 L669.1988,655.7431 Q668.5738,655.165 667.98,654.8994 Q667.3863,654.6181 666.7613,654.6181 Q665.4175,654.6181 664.73,655.6963 Q664.0425,656.7588 664.0425,658.8525 Q664.0425,660.9463 664.73,662.0244 Q665.4175,663.0869 666.7613,663.0869 Q667.3863,663.0869 667.98,662.8213 Q668.5738,662.54 669.1988,661.9619 L669.1988,664.6806 Z " fill="#000000"/><text fill="#000000" font-family="sans-serif" font-size="14" lengthAdjust="spacing" textLength="87.958" x="680.23" y="663.8867">NormalState</text><line style="stroke:#181818;stroke-width:0.5;" x1="652.23" x2="770.188" y1="675.04" y2="675.04"/><line style="stroke:#181818;stroke-width:0.5;" x1="652.23" x2="770.188" y1="683.04" y2="683.04"/></g><!--class PseudaState--><g class="entity" data-entity="PseudaState" data-source-line="31" data-uid="ent0015" id="entity_PseudaState"><rect fill="#F1F1F1" height="48" rx="2.5" ry="2.5" style="stroke:#181818;stroke-width:0.5;" width="119.7461" x="806.34" y="643.04"/><ellipse cx="821.34" cy="659.04" fill="#ADD1B2" rx="11" ry="11" style="stroke:#181818;stroke-width:1;"/><path d="M824.3088,664.6806 Q823.7306,664.9775 823.09,665.1181 Q822.4494,665.2744 821.7463,665.2744 Q819.2463,665.2744 817.9181,663.6338 Q816.6056,661.9775 816.6056,658.8525 Q816.6056,655.7275 817.9181,654.0713 Q819.2463,652.415 821.7463,652.415 Q822.4494,652.415 823.09,652.5713 Q823.7463,652.7275 824.3088,653.0244 L824.3088,655.7431 Q823.6838,655.165 823.09,654.8994 Q822.4963,654.6181 821.8713,654.6181 Q820.5275,654.6181 819.84,655.6963 Q819.1525,656.7588 819.1525,658.8525 Q819.1525,660.9463 819.84,662.0244 Q820.5275,663.0869 821.8713,663.0869 Q822.4963,663.0869 823.09,662.8213 Q823.6838,662.54 824.3088,661.9619 L824.3088,664.6806 Z " fill="#000000"/><text fill="#000000" font-family="sans-serif" font-size="14" lengthAdjust="spacing" textLength="87.7461" x="835.34" y="663.8867">PseudaState</text><line style="stroke:#181818;stroke-width:0.5;" x1="807.34" x2="925.0861" y1="675.04" y2="675.04"/><line style="stroke:#181818;stroke-width:0.5;" x1="807.34" x2="925.0861" y1="683.04" y2="683.04"/></g><!--class Event--><g class="entity" data-entity="Event" data-source-line="37" data-uid="ent0018" id="entity_Event"><rect fill="#F1F1F1" height="80.5938" rx="2.5" ry="2.5" style="stroke:#181818;stroke-width:0.5;" width="79.4092" x="229.51" y="428.41"/><ellipse cx="247.7962" cy="444.41" fill="#ADD1B2" rx="11" ry="11" style="stroke:#181818;stroke-width:1;"/><path d="M250.765,450.0506 Q250.1869,450.3475 249.5462,450.4881 Q248.9056,450.6444 248.2025,450.6444 Q245.7025,450.6444 244.3744,449.0038 Q243.0619,447.3475 243.0619,444.2225 Q243.0619,441.0975 244.3744,439.4413 Q245.7025,437.785 248.2025,437.785 Q248.9056,437.785 249.5462,437.9413 Q250.2025,438.0975 250.765,438.3944 L250.765,441.1131 Q250.14,440.535 249.5462,440.2694 Q248.9525,439.9881 248.3275,439.9881 Q246.9837,439.9881 246.2962,441.0663 Q245.6087,442.1288 245.6087,444.2225 Q245.6087,446.3163 246.2962,447.3944 Q246.9837,448.4569 248.3275,448.4569 Q248.9525,448.4569 249.5462,448.1913 Q250.14,447.91 250.765,447.3319 L250.765,450.0506 Z " fill="#000000"/><text fill="#000000" font-family="sans-serif" font-size="14" lengthAdjust="spacing" textLength="40.1064" x="262.5265" y="449.2567">Event</text><line style="stroke:#181818;stroke-width:0.5;" x1="230.51" x2="307.9192" y1="460.41" y2="460.41"/><text fill="#000000" font-family="sans-serif" font-size="14" lengthAdjust="spacing" textLength="67.4092" x="235.51" y="477.4051">name: str</text><text fill="#000000" font-family="sans-serif" font-size="14" lengthAdjust="spacing" textLength="40.9814" x="235.51" y="493.702">guard</text><line style="stroke:#181818;stroke-width:0.5;" x1="230.51" x2="307.9192" y1="501.0038" y2="501.0038"/></g><!--class Transition--><g class="entity" data-entity="Transition" data-source-line="42" data-uid="ent0019" id="entity_Transition"><rect fill="#F1F1F1" height="96.8906" rx="2.5" ry="2.5" style="stroke:#181818;stroke-width:0.5;" width="122.3594" x="345.03" y="213.78"/><ellipse cx="369.2994" cy="229.78" fill="#ADD1B2" rx="11" ry="11" style="stroke:#181818;stroke-width:1;"/><path d="M372.2681,235.4206 Q371.69,235.7175 371.0494,235.8581 Q370.4088,236.0144 369.7056,236.0144 Q367.2056,236.0144 365.8775,234.3738 Q364.565,232.7175 364.565,229.5925 Q364.565,226.4675 365.8775,224.8113 Q367.2056,223.155 369.7056,223.155 Q370.4088,223.155 371.0494,223.3113 Q371.7056,223.4675 372.2681,223.7644 L372.2681,226.4831 Q371.6431,225.905 371.0494,225.6394 Q370.4556,225.3581 369.8306,225.3581 Q368.4869,225.3581 367.7994,226.4363 Q367.1119,227.4988 367.1119,229.5925 Q367.1119,231.6863 367.7994,232.7644 Q368.4869,233.8269 369.8306,233.8269 Q370.4556,233.8269 371.0494,233.5613 Q371.6431,233.28 372.2681,232.7019 L372.2681,235.4206 Z " fill="#000000"/><text fill="#000000" font-family="sans-serif" font-size="14" lengthAdjust="spacing" textLength="69.7607" x="385.3592" y="234.6267">Transition</text><line style="stroke:#181818;stroke-width:0.5;" x1="346.03" x2="466.3894" y1="245.78" y2="245.78"/><text fill="#000000" font-family="sans-serif" font-size="14" lengthAdjust="spacing" textLength="89.1475" x="351.03" y="262.7751">event: Event</text><text fill="#000000" font-family="sans-serif" font-size="14" lengthAdjust="spacing" textLength="109.4365" x="351.03" y="279.072">src_state: State</text><text fill="#000000" font-family="sans-serif" font-size="14" lengthAdjust="spacing" textLength="110.3594" x="351.03" y="295.3689">dst_state: State</text><line style="stroke:#181818;stroke-width:0.5;" x1="346.03" x2="466.3894" y1="302.6706" y2="302.6706"/></g><!--class Statechart--><g class="entity" data-entity="Statechart" data-source-line="51" data-uid="ent0023" id="entity_Statechart"><rect fill="#F1F1F1" height="145.7813" rx="2.5" ry="2.5" style="stroke:#181818;stroke-width:0.5;" width="259.7822" x="276.32" y="7"/><ellipse cx="365.235" cy="23" fill="#ADD1B2" rx="11" ry="11" style="stroke:#181818;stroke-width:1;"/><path d="M368.2038,28.6406 Q367.6257,28.9375 366.985,29.0781 Q366.3444,29.2344 365.6413,29.2344 Q363.1413,29.2344 361.8132,27.5938 Q360.5007,25.9375 360.5007,22.8125 Q360.5007,19.6875 361.8132,18.0313 Q363.1413,16.375 365.6413,16.375 Q366.3444,16.375 366.985,16.5313 Q367.6413,16.6875 368.2038,16.9844 L368.2038,19.7031 Q367.5788,19.125 366.985,18.8594 Q366.3913,18.5781 365.7663,18.5781 Q364.4225,18.5781 363.735,19.6563 Q363.0475,20.7188 363.0475,22.8125 Q363.0475,24.9063 363.735,25.9844 Q364.4225,27.0469 365.7663,27.0469 Q366.3913,27.0469 366.985,26.7813 Q367.5788,26.5 368.2038,25.9219 L368.2038,28.6406 Z " fill="#000000"/><text fill="#000000" font-family="sans-serif" font-size="14" lengthAdjust="spacing" textLength="73.4521" x="385.735" y="27.8467">Statechart</text><line style="stroke:#181818;stroke-width:0.5;" x1="277.32" x2="535.1022" y1="39" y2="39"/><text fill="#000000" font-family="sans-serif" font-size="14" lengthAdjust="spacing" textLength="67.4092" x="282.32" y="55.9951">name: str</text><text fill="#000000" font-family="sans-serif" font-size="14" lengthAdjust="spacing" textLength="247.7822" x="282.32" y="72.292">preamble: List[DeclareAssignment]</text><text fill="#000000" font-family="sans-serif" font-size="14" lengthAdjust="spacing" textLength="149.4131" x="282.32" y="88.5889">root_state: RootState</text><line style="stroke:#181818;stroke-width:1;" x1="277.32" x2="535.1022" y1="95.8906" y2="95.8906"/><text fill="#000000" font-family="sans-serif" font-size="14" lengthAdjust="spacing" textLength="124.3799" x="282.32" y="112.8857">states: List[State]</text><text fill="#000000" font-family="sans-serif" font-size="14" lengthAdjust="spacing" textLength="131.8379" x="282.32" y="129.1826">events: List[Event]</text><text fill="#000000" font-family="sans-serif" font-size="14" lengthAdjust="spacing" textLength="188.3164" x="282.32" y="145.4795">transitions: List[Transition]</text></g><!--class DeclareAssignment--><g class="entity" data-entity="DeclareAssignment" data-source-line="61" data-uid="ent0024" id="entity_DeclareAssignment"><rect fill="#F1F1F1" height="64.2969" rx="2.5" ry="2.5" style="stroke:#181818;stroke-width:0.5;" width="168.3564" x="48.04" y="230.07"/><ellipse cx="63.04" cy="246.07" fill="#ADD1B2" rx="11" ry="11" style="stroke:#181818;stroke-width:1;"/><path d="M66.0087,251.7106 Q65.4306,252.0075 64.79,252.1481 Q64.1494,252.3044 63.4463,252.3044 Q60.9463,252.3044 59.6181,250.6638 Q58.3056,249.0075 58.3056,245.8825 Q58.3056,242.7575 59.6181,241.1013 Q60.9463,239.445 63.4463,239.445 Q64.1494,239.445 64.79,239.6013 Q65.4462,239.7575 66.0087,240.0544 L66.0087,242.7731 Q65.3837,242.195 64.79,241.9294 Q64.1962,241.6481 63.5713,241.6481 Q62.2275,241.6481 61.54,242.7263 Q60.8525,243.7888 60.8525,245.8825 Q60.8525,247.9763 61.54,249.0544 Q62.2275,250.1169 63.5713,250.1169 Q64.1962,250.1169 64.79,249.8513 Q65.3837,249.57 66.0087,248.9919 L66.0087,251.7106 Z " fill="#000000"/><text fill="#000000" font-family="sans-serif" font-size="14" lengthAdjust="spacing" textLength="136.3564" x="77.04" y="250.9167">DeclareAssignment</text><line style="stroke:#181818;stroke-width:0.5;" x1="49.04" x2="215.3964" y1="262.07" y2="262.07"/><text fill="#000000" font-family="sans-serif" font-size="14" lengthAdjust="spacing" textLength="147.5469" x="54.04" y="279.0651">initial_value: number</text><line style="stroke:#181818;stroke-width:0.5;" x1="49.04" x2="215.3964" y1="286.3669" y2="286.3669"/></g><!--class Assignment--><g class="entity" data-entity="Assignment" data-source-line="67" data-uid="ent0030" id="entity_Assignment"><rect fill="#F1F1F1" height="64.2969" rx="2.5" ry="2.5" style="stroke:#181818;stroke-width:0.5;" width="114.4277" x="7" y="47.74"/><ellipse cx="22" cy="63.74" fill="#A9DCDF" rx="11" ry="11" style="stroke:#181818;stroke-width:1;"/><path d="M22.1094,59.0838 L20.9531,64.1619 L23.2813,64.1619 L22.1094,59.0838 Z M20.625,56.8494 L23.6094,56.8494 L26.9688,69.24 L24.5156,69.24 L23.75,66.1775 L20.4688,66.1775 L19.7188,69.24 L17.2813,69.24 L20.625,56.8494 Z " fill="#000000"/><text fill="#000000" font-family="sans-serif" font-size="14" font-style="italic" lengthAdjust="spacing" textLength="82.4277" x="36" y="68.5867">Assignment</text><line style="stroke:#181818;stroke-width:0.5;" x1="8" x2="120.4277" y1="79.74" y2="79.74"/><text fill="#000000" font-family="sans-serif" font-size="14" lengthAdjust="spacing" textLength="69.8359" x="13" y="96.7351">lvalue: str</text><line style="stroke:#181818;stroke-width:0.5;" x1="8" x2="120.4277" y1="104.0369" y2="104.0369"/></g><!--reverse link State to UpdateAssignment--><g class="link" data-entity-1="State" data-entity-2="UpdateAssignment" data-source-line="12" data-uid="lnk4" id="link_State_UpdateAssignment"><path codeLine="12" d="M332.2934,547.8828 C326.5234,550.1228 331.94,547.86 326.21,549.75 C286.04,563.01 165.67,547.56 138.21,579.75 C123.95,596.47 136.25,617.43 152.58,634.51" fill="none" id="State-backto-UpdateAssignment" style="stroke:#181818;stroke-width:1;"/><polygon fill="#181818" points="343.48,543.54,336.4391,541.9825,332.2934,547.8828,339.3343,549.4403,343.48,543.54" style="stroke:#181818;stroke-width:1;"/><text fill="#000000" font-family="sans-serif" font-size="13" lengthAdjust="spacing" textLength="57.0654" x="139.21" y="592.8169">on_entry</text><text fill="#000000" font-family="sans-serif" font-size="13" lengthAdjust="spacing" textLength="8.271" x="327.3518" y="560.3705">1</text><text fill="#000000" font-family="sans-serif" font-size="13" lengthAdjust="spacing" textLength="6.5" x="138.4323" y="623.7094">*</text></g><!--reverse link State to UpdateAssignment--><g class="link" data-entity-1="State" data-entity-2="UpdateAssignment" data-source-line="13" data-uid="lnk5" id="link_State_UpdateAssignment"><path codeLine="13" d="M332.5243,547.1128 C326.7343,549.7428 331.9,547.33 326.21,549.75 C287.8,566.09 269.06,552.76 237.21,579.75 C220.25,594.13 208.6,616.39 201.27,634.7" fill="none" id="State-backto-UpdateAssignment-1" style="stroke:#181818;stroke-width:1;"/><polygon fill="#181818" points="343.45,542.15,336.3329,540.9895,332.5243,547.1128,339.6414,548.2733,343.45,542.15" style="stroke:#181818;stroke-width:1;"/><text fill="#000000" font-family="sans-serif" font-size="13" lengthAdjust="spacing" textLength="77.397" x="238.21" y="592.8169">on_duration</text><text fill="#000000" font-family="sans-serif" font-size="13" lengthAdjust="spacing" textLength="8.271" x="327.32" y="543.0329">1</text><text fill="#000000" font-family="sans-serif" font-size="13" lengthAdjust="spacing" textLength="6.5" x="196.7082" y="623.9368">*</text></g><!--reverse link State to UpdateAssignment--><g class="link" data-entity-1="State" data-entity-2="UpdateAssignment" data-source-line="14" data-uid="lnk6" id="link_State_UpdateAssignment"><path codeLine="14" d="M375.0827,557.5336 C354.3727,573.6636 341.7,582.61 320.21,596.75 C299.72,610.23 276.35,623.4 255.18,634.57" fill="none" id="State-backto-UpdateAssignment-2" style="stroke:#181818;stroke-width:1;"/><polygon fill="#181818" points="384.55,550.16,377.3585,550.691,375.0827,557.5336,382.2742,557.0026,384.55,550.16" style="stroke:#181818;stroke-width:1;"/><text fill="#000000" font-family="sans-serif" font-size="13" lengthAdjust="spacing" textLength="47.0933" x="344.21" y="592.8169">on_exit</text><text fill="#000000" font-family="sans-serif" font-size="13" lengthAdjust="spacing" textLength="8.271" x="367.9969" y="569.8768">1</text><text fill="#000000" font-family="sans-serif" font-size="13" lengthAdjust="spacing" textLength="6.5" x="261.2317" y="623.7812">*</text></g><!--reverse link State to CompositeState--><g class="link" data-entity-1="State" data-entity-2="CompositeState" data-source-line="16" data-uid="lnk9" id="link_State_CompositeState"><path codeLine="16" d="M446.6679,567.958 C444.4779,583.688 447.52,582.02 453.21,596.75 C457.32,607.36 463.89,617.35 471.27,626.27" fill="none" id="State-backto-CompositeState" style="stroke:#181818;stroke-width:1;"/><polygon fill="none" points="449.15,550.13,440.7252,567.1307,452.6106,568.7854,449.15,550.13" style="stroke:#181818;stroke-width:1;"/></g><!--reverse link CompositeState to State--><g class="link" data-entity-1="CompositeState" data-entity-2="State" data-source-line="23" data-uid="lnk10" id="link_CompositeState_State"><path codeLine="23" d="M491.5701,615.5075 C487.5601,605.9675 488.52,606.71 486.21,596.75 C482.75,581.8 480.72,565.6 479.61,549.94" fill="none" id="CompositeState-backto-State" style="stroke:#181818;stroke-width:1;"/><polygon fill="#181818" points="496.22,626.57,497.5825,619.4888,491.5701,615.5075,490.2075,622.5888,496.22,626.57" style="stroke:#181818;stroke-width:1;"/><text fill="#000000" font-family="sans-serif" font-size="13" lengthAdjust="spacing" textLength="75.1816" x="487.21" y="592.8169">initial_state</text><text fill="#000000" font-family="sans-serif" font-size="13" lengthAdjust="spacing" textLength="8.271" x="484.2679" y="615.7017">1</text><text fill="#000000" font-family="sans-serif" font-size="13" lengthAdjust="spacing" textLength="8.271" x="471.2122" y="569.9154">1</text></g><!--reverse link CompositeState to State--><g class="link" data-entity-1="CompositeState" data-entity-2="State" data-source-line="24" data-uid="lnk11" id="link_CompositeState_State"><path codeLine="24" d="M563.7205,616.5299 C573.4605,602.3999 572.81,595.86 567.21,579.75 C563.66,569.51 558.71,559.51 552.96,549.97" fill="none" id="CompositeState-backto-State-1" style="stroke:#181818;stroke-width:1;"/><polygon fill="#181818" points="556.91,626.41,563.6086,623.7401,563.7205,616.5299,557.0219,619.1998,556.91,626.41" style="stroke:#181818;stroke-width:1;"/><text fill="#000000" font-family="sans-serif" font-size="13" lengthAdjust="spacing" textLength="39.7046" x="571.21" y="592.8169">states</text><text fill="#000000" font-family="sans-serif" font-size="13" lengthAdjust="spacing" textLength="8.271" x="554.7795" y="615.8157">1</text><text fill="#000000" font-family="sans-serif" font-size="13" lengthAdjust="spacing" textLength="23.0356" x="535.4165" y="569.9481">0..*</text></g><!--reverse link State to NormalState--><g class="link" data-entity-1="State" data-entity-2="NormalState" data-source-line="26" data-uid="lnk14" id="link_State_NormalState"><path codeLine="26" d="M597.8091,561.5442 C609.8591,571.3542 607.91,570 619.21,579.75 C643.1,600.34 669.22,625.07 687.51,642.77" fill="none" id="State-backto-NormalState" style="stroke:#181818;stroke-width:1;"/><polygon fill="none" points="583.85,550.18,594.021,566.1972,601.5971,556.8912,583.85,550.18" style="stroke:#181818;stroke-width:1;"/></g><!--reverse link State to PseudaState--><g class="link" data-entity-1="State" data-entity-2="PseudaState" data-source-line="31" data-uid="lnk17" id="link_State_PseudaState"><path codeLine="31" d="M633.1633,547.5016 C704.2633,583.6716 770.45,617.34 820.37,642.73" fill="none" id="State-backto-PseudaState" style="stroke:#181818;stroke-width:1;"/><polygon fill="none" points="617.12,539.34,630.4428,552.8494,635.8839,542.1538,617.12,539.34" style="stroke:#181818;stroke-width:1;"/></g><!--reverse link Transition to State--><g class="link" data-entity-1="Transition" data-entity-2="State" data-source-line="47" data-uid="lnk20" id="link_Transition_State"><path codeLine="47" d="M458.2663,320.6279 C464.9763,329.9179 464.01,330.29 468.21,340.67 C474.12,355.25 477.67,371.51 479.72,387.41" fill="none" id="Transition-backto-State" style="stroke:#181818;stroke-width:1;"/><polygon fill="#181818" points="451.24,310.9,451.5105,318.106,458.2663,320.6279,457.9958,313.4218,451.24,310.9" style="stroke:#181818;stroke-width:1;"/><text fill="#000000" font-family="sans-serif" font-size="13" lengthAdjust="spacing" textLength="58.6968" x="475.21" y="353.7369">src_state</text><text fill="#000000" font-family="sans-serif" font-size="13" lengthAdjust="spacing" textLength="6.5" x="451.1857" y="330.8758">*</text><text fill="#000000" font-family="sans-serif" font-size="13" lengthAdjust="spacing" textLength="8.271" x="471.332" y="376.5741">1</text></g><!--reverse link Transition to State--><g class="link" data-entity-1="Transition" data-entity-2="State" data-source-line="48" data-uid="lnk21" id="link_Transition_State"><path codeLine="48" d="M394.3936,322.6282 C392.8336,337.9382 394.34,342.83 399.21,357.67 C402.54,367.81 407.21,377.79 412.63,387.34" fill="none" id="Transition-backto-State-1" style="stroke:#181818;stroke-width:1;"/><polygon fill="#181818" points="395.61,310.69,391.0224,316.2536,394.3936,322.6282,398.9812,317.0646,395.61,310.69" style="stroke:#181818;stroke-width:1;"/><text fill="#000000" font-family="sans-serif" font-size="13" lengthAdjust="spacing" textLength="59.5537" x="400.21" y="353.7369">dst_state</text><text fill="#000000" font-family="sans-serif" font-size="13" lengthAdjust="spacing" textLength="6.5" x="387.7327" y="330.6363">*</text><text fill="#000000" font-family="sans-serif" font-size="13" lengthAdjust="spacing" textLength="8.271" x="398.2668" y="376.4979">1</text></g><!--reverse link Transition to Event--><g class="link" data-entity-1="Transition" data-entity-2="Event" data-source-line="49" data-uid="lnk22" id="link_Transition_Event"><path codeLine="49" d="M363.319,320.4554 C356.179,330.2454 355.89,330.87 349.21,340.67 C329.62,369.42 308.7,402.73 293.18,428.03" fill="none" id="Transition-backto-Event" style="stroke:#181818;stroke-width:1;"/><polygon fill="#181818" points="370.39,310.76,363.6227,313.2507,363.319,320.4554,370.0863,317.9647,370.39,310.76" style="stroke:#181818;stroke-width:1;"/><text fill="#000000" font-family="sans-serif" font-size="13" lengthAdjust="spacing" textLength="37.0259" x="350.21" y="353.7369">event</text><text fill="#000000" font-family="sans-serif" font-size="13" lengthAdjust="spacing" textLength="6.5" x="358.9661" y="330.7161">*</text><text fill="#000000" font-family="sans-serif" font-size="13" lengthAdjust="spacing" textLength="8.271" x="288.3836" y="417.4293">1</text></g><!--reverse link Statechart to DeclareAssignment--><g class="link" data-entity-1="Statechart" data-entity-2="DeclareAssignment" data-source-line="61" data-uid="lnk25" id="link_Statechart_DeclareAssignment"><path codeLine="61" d="M278.9379,159.4555 C263.4379,169.3255 257.94,172.98 243.21,182.78 C220.62,197.81 195.92,215.16 175.58,229.72" fill="none" id="Statechart-backto-DeclareAssignment" style="stroke:#181818;stroke-width:1;"/><polygon fill="#181818" points="289.06,153.01,281.8505,152.8587,278.9379,159.4555,286.1475,159.6068,289.06,153.01" style="stroke:#181818;stroke-width:1;"/><text fill="#000000" font-family="sans-serif" font-size="13" lengthAdjust="spacing" textLength="8.271" x="269.5257" y="172.7673">1</text><text fill="#000000" font-family="sans-serif" font-size="13" lengthAdjust="spacing" textLength="6.5" x="177.5754" y="218.9253">*</text></g><!--reverse link Statechart to CompositeState--><g class="link" data-entity-1="Statechart" data-entity-2="CompositeState" data-source-line="62" data-uid="lnk26" id="link_Statechart_CompositeState"><path codeLine="62" d="M494.4823,161.6374 C550.4523,218.7074 610.86,295.35 634.21,387.67 C657.06,477.99 675.13,522.23 619.21,596.75 C610.74,608.04 599.86,618.09 588.36,626.79" fill="none" id="Statechart-backto-CompositeState" style="stroke:#181818;stroke-width:1;"/><polygon fill="#181818" points="486.08,153.07,487.4253,160.1545,494.4823,161.6374,493.137,154.553,486.08,153.07" style="stroke:#181818;stroke-width:1;"/><text fill="#000000" font-family="sans-serif" font-size="13" lengthAdjust="spacing" textLength="8.271" x="485.3242" y="172.833">1</text><text fill="#000000" font-family="sans-serif" font-size="13" lengthAdjust="spacing" textLength="8.271" x="592.0953" y="615.6601">1</text></g><!--reverse link Statechart to State--><g class="link" data-entity-1="Statechart" data-entity-2="State" data-source-line="63" data-uid="lnk27" id="link_Statechart_State"><path codeLine="63" d="M464.2418,163.2688 C496.3018,213.2188 527.63,272.6 542.21,340.67 C545.58,356.39 543.17,372.38 537.71,387.47" fill="none" id="Statechart-backto-State" style="stroke:#181818;stroke-width:1;"/><polygon fill="none" points="457.76,153.17,457.6346,160.38,464.2418,163.2688,464.3672,156.0588,457.76,153.17" style="stroke:#181818;stroke-width:1;"/><text fill="#000000" font-family="sans-serif" font-size="13" lengthAdjust="spacing" textLength="8.271" x="454.3049" y="172.9425">1</text><text fill="#000000" font-family="sans-serif" font-size="13" lengthAdjust="spacing" textLength="6.5" x="536.586" y="376.6395">*</text></g><!--reverse link Statechart to Event--><g class="link" data-entity-1="Statechart" data-entity-2="Event" data-source-line="64" data-uid="lnk28" id="link_Statechart_Event"><path codeLine="64" d="M351.7723,163.2753 C340.4623,182.4453 335.44,193.22 327.21,213.78 C298.08,286.62 281.8,377.37 274.33,428.29" fill="none" id="Statechart-backto-Event" style="stroke:#181818;stroke-width:1;"/><polygon fill="none" points="357.87,152.94,351.3761,156.0751,351.7723,163.2753,358.2663,160.1402,357.87,152.94" style="stroke:#181818;stroke-width:1;"/><text fill="#000000" font-family="sans-serif" font-size="13" lengthAdjust="spacing" textLength="8.271" x="344.731" y="172.9425">1</text><text fill="#000000" font-family="sans-serif" font-size="13" lengthAdjust="spacing" textLength="6.5" x="268.7218" y="417.4317">*</text></g><!--reverse link Statechart to Transition--><g class="link" data-entity-1="Statechart" data-entity-2="Transition" data-source-line="65" data-uid="lnk29" id="link_Statechart_Transition"><path codeLine="65" d="M406.21,165.2 C406.21,185.48 406.21,195.02 406.21,213.49" fill="none" id="Statechart-backto-Transition" style="stroke:#181818;stroke-width:1;"/><polygon fill="none" points="406.21,153.2,402.21,159.2,406.21,165.2,410.21,159.2,406.21,153.2" style="stroke:#181818;stroke-width:1;"/><text fill="#000000" font-family="sans-serif" font-size="13" lengthAdjust="spacing" textLength="8.271" x="397.8536" y="172.7226">1</text><text fill="#000000" font-family="sans-serif" font-size="13" lengthAdjust="spacing" textLength="6.5" x="399.8233" y="202.6581">*</text></g><!--reverse link Assignment to DeclareAssignment--><g class="link" data-entity-1="Assignment" data-entity-2="DeclareAssignment" data-source-line="75" data-uid="lnk32" id="link_Assignment_DeclareAssignment"><path codeLine="75" d="M82.4093,129.143 C94.8493,162.143 107.96,196.89 120.39,229.87" fill="none" id="Assignment-backto-DeclareAssignment" style="stroke:#181818;stroke-width:1;"/><polygon fill="none" points="76.06,112.3,76.795,131.2594,88.0236,127.0266,76.06,112.3" style="stroke:#181818;stroke-width:1;"/></g><!--reverse link Assignment to UpdateAssignment--><g class="link" data-entity-1="Assignment" data-entity-2="UpdateAssignment" data-source-line="81" data-uid="lnk34" id="link_Assignment_UpdateAssignment"><path codeLine="81" d="M48.4429,129.6037 C40.1829,156.2637 34.66,178.45 30.21,213.78 C24.83,256.5 23.41,268.15 30.21,310.67 C51.37,442.82 55.06,482.16 124.21,596.75 C132.43,610.36 143.77,623.41 154.79,634.44" fill="none" id="Assignment-backto-UpdateAssignment" style="stroke:#181818;stroke-width:1;"/><polygon fill="none" points="53.77,112.41,42.7117,127.828,54.1742,131.3794,53.77,112.41" style="stroke:#181818;stroke-width:1;"/></g><!--SRC=[ZLJBJiCm4BpxAwmUAwM2Qmv82BWXX7YS48hSn2eMiHtPJbLK-kzil4wSPsakJdPdnpExTjZMEiDoH_EIMKjV7NES7Wc5Hp79Kmff_rLmcnjHEQ5L32P9ubSfLEQ4v5cfy- -K2kKmp0vpOQqohfpvIUcZiExZlIfWqrjhnKv9I7oseA8s3FSxZ-C7uHOn9qBGrEfwHTT9GbVh5Ht3qaxJfU1MsyNae96GEoqhRONZM9NKLV9xWqqd12SmWk0eX19Ei3ApJImD1Kt21smmxyFUyOYaKmShHj8XvMB1rMQpZZMu6o5FsaXMBdlevu-DdcVBwu8j5_JpHz9KOFnX3_sRFOwxcfaY0jyCKo0V1XBGVEyxxmcmKoQVjg-mRXWyaHvJCynnspgQ_u0TzH8GlQMejFNXg_ClPkPTLuOpkIrv6FWzXoepkH96wyxM2xn7l-rzdJisNTVQk1U8STTPQ9FHLBnYgBj_5IO2Pu6m3i_V6AK3tTaaZdeX6UKImeQ_l2WkjBpSix8EJUyEsCJ9w6Q66bNBBVTbqu9my7lD2DpZ7qQWDe6J7s3ia0Jjm3i1JsZ_0000]--></g></svg>