<svg xmlns="http://www.w3.org/2000/svg" xmlns:xlink="http://www.w3.org/1999/xlink" version="1.1" data-diagram-type="STATE" style="width:269px;height:586px;background:#FFFFFF;" width="269px" height="586px" viewBox="0 0 269 586" zoomAndPan="magnify" preserveAspectRatio="none" contentStyleType="text/css"><?plantuml 1.2026.7beta5?><defs/><g font-family="sans-serif" lengthAdjust="spacing"><g class="legend" data-source-line="10"><rect x="12" y="12" width="238.313" height="46.594" fill="#DDD" style="stroke:#000;stroke-width:1;" rx="7.5" ry="7.5"/><text x="21.874" y="31.995" fill="#000" font-size="14" textLength="65.748" font-weight="700">Variable</text><text x="97.37" y="31.995" fill="#000" font-size="14" textLength="38.192" font-weight="700">Type</text><text x="145.311" y="31.995" fill="#000" font-size="14" textLength="95.129" font-weight="700">Initial Value</text><text x="21.45" y="48.292" fill="#000" font-size="14" textLength="37.386">timer</text><text x="96.946" y="48.292" fill="#000" font-size="14" textLength="18.252">int</text><text x="144.887" y="48.292" fill="#000" font-size="14">0</text><line x1="17" y1="19" x2="245.313" y2="19" style="stroke:#000;stroke-width:1;"/><line x1="17" y1="35.297" x2="245.313" y2="35.297" style="stroke:#000;stroke-width:1;"/><line x1="17" y1="51.594" x2="245.313" y2="51.594" style="stroke:#000;stroke-width:1;"/><line x1="17" y1="19" x2="17" y2="51.594" style="stroke:#000;stroke-width:1;"/><line x1="92.496" y1="19" x2="92.496" y2="51.594" style="stroke:#000;stroke-width:1;"/><line x1="140.437" y1="19" x2="140.437" y2="51.594" style="stroke:#000;stroke-width:1;"/><line x1="245.313" y1="19" x2="245.313" y2="51.594" style="stroke:#000;stroke-width:1;"/></g><g class="entity" data-qualified-name="traffic_light" id="ent0001" data-source-line="15"><path d="M25.964,157.594 L235.35,157.594 A12.5,12.5 0 0 1 247.85,170.094 L247.85,183.891 L13.464,183.891 L13.464,170.094 A12.5,12.5 0 0 1 25.964,157.594" fill="#ADD8E6"/><path d="M13.464,183.891 L247.85,183.891 L247.85,478.391 A12.5,12.5 0 0 1 235.35,490.891 L25.964,490.891 A12.5,12.5 0 0 1 13.464,478.391 L13.464,183.891" fill="#ADD8E6"/><rect x="13.464" y="157.594" width="234.386" height="333.297" fill="none" style="stroke:#181818;stroke-width:0.5;" rx="12.5" ry="12.5"/><line x1="13.464" y1="183.891" x2="247.85" y2="183.891" style="stroke:#181818;stroke-width:0.5;"/><text x="91.022" y="175.589" fill="#000" font-size="14" textLength="79.27">TrafficLight</text><rect x="75.814" y="251.891" width="50" height="40" fill="#F1F1F1" style="stroke:#181818;stroke-width:0.5;" rx="12.5" ry="12.5"/><text x="87.2" y="276.737" fill="#000" font-size="14" textLength="27.228">Red</text><rect x="73.334" y="437.891" width="54.96" height="40" fill="#F1F1F1" style="stroke:#181818;stroke-width:0.5;" rx="12.5" ry="12.5"/><text x="78.334" y="462.737" fill="#000" font-size="14" textLength="44.96">Yellow</text><rect x="25.464" y="344.891" width="52.704" height="40" fill="#F1F1F1" style="stroke:#181818;stroke-width:0.5;" rx="12.5" ry="12.5"/><text x="30.464" y="369.737" fill="#000" font-size="14" textLength="42.704">Green</text><g class="start_entity" data-qualified-name="traffic_light..start.traffic_light" id="ent0005" data-source-line="19"><ellipse cx="100.814" cy="204.891" rx="10" ry="10" fill="#222" style="stroke:#222;stroke-width:1;"/></g><!--link *start*traffic_light to traffic_light__red--><g class="link" data-entity-1="ent0005" data-entity-2="ent0002" id="lnk6" data-source-line="19" data-link-type="dependency"><path d="M100.814,215.201 C100.814,224.611 100.814,234.431 100.814,246.411" style="stroke:#181818;stroke-width:1;" fill="none" id="*start*traffic_light-to-traffic_light__red"/><polygon points="100.814,251.411,104.814,242.411,100.814,246.411,96.814,242.411,100.814,251.411" fill="#181818" style="stroke:#181818;stroke-width:1;stroke-linejoin:miter;stroke-miterlimit:10;"/></g><!--link traffic_light__red to traffic_light__green--><g class="link" data-entity-1="ent0002" data-entity-2="ent0004" id="lnk7" data-source-line="20" data-link-type="dependency"><path d="M75.344,286.191 C66.584,292.181 57.734,300.121 52.814,309.891 C47.504,320.441 46.706,328.714 47.736,339.444" style="stroke:#181818;stroke-width:1;" fill="none" id="traffic_light__red-to-traffic_light__green"/><polygon points="48.214,344.421,51.335,335.08,47.736,339.444,43.372,335.844,48.214,344.421" fill="#181818" style="stroke:#181818;stroke-width:1;stroke-linejoin:miter;stroke-miterlimit:10;"/><text x="53.814" y="322.958" fill="#000" font-size="13" textLength="81.307">timer >= 30</text></g><!--link traffic_light__green to traffic_light__yellow--><g class="link" data-entity-1="ent0004" data-entity-2="ent0003" id="lnk8" data-source-line="21" data-link-type="dependency"><path d="M48.214,385.361 C47.184,396.091 47.504,409.341 52.814,419.891 C57.314,428.821 61.018,433.296 69.018,439.066" style="stroke:#181818;stroke-width:1;" fill="none" id="traffic_light__green-to-traffic_light__yellow"/><polygon points="73.074,441.991,68.114,433.482,69.018,439.066,63.434,439.97,73.074,441.991" fill="#181818" style="stroke:#181818;stroke-width:1;stroke-linejoin:miter;stroke-miterlimit:10;"/><text x="53.814" y="415.958" fill="#000" font-size="13" textLength="81.307">timer >= 25</text></g><!--link traffic_light__yellow to traffic_light__red--><g class="link" data-entity-1="ent0003" data-entity-2="ent0002" id="lnk9" data-source-line="22" data-link-type="dependency"><path d="M124.354,437.401 C129.024,432.241 133.264,426.301 135.814,419.891 C153.894,374.471 153.894,355.311 135.814,309.891 C133.264,303.481 132.379,301.248 127.709,296.088" style="stroke:#181818;stroke-width:1;" fill="none" id="traffic_light__yellow-to-traffic_light__red"/><polygon points="124.354,292.381,127.427,301.738,127.709,296.088,133.359,296.369,124.354,292.381" fill="#181818" style="stroke:#181818;stroke-width:1;stroke-linejoin:miter;stroke-miterlimit:10;"/><text x="149.814" y="369.458" fill="#000" font-size="13" textLength="73.036">timer >= 5</text></g></g><g class="start_entity" data-qualified-name=".start." id="ent0010" data-source-line="24"><ellipse cx="130.654" cy="87.594" rx="10" ry="10" fill="#222" style="stroke:#222;stroke-width:1;"/></g><g class="end_entity" data-qualified-name=".end." id="ent0012" data-source-line="25"><ellipse cx="130.654" cy="561.894" rx="11" ry="11" fill="none" style="stroke:#222;stroke-width:1;"/><ellipse cx="130.654" cy="561.894" rx="6" ry="6" fill="#222" style="stroke:#222;stroke-width:1;"/></g><!--link *start* to traffic_light--><g class="link" data-entity-1="ent0010" data-entity-2="ent0001" id="lnk11" data-source-line="24" data-link-type="dependency"><path d="M130.654,98.084 C130.654,109.914 130.654,126.734 130.654,152.284" style="stroke:#181818;stroke-width:1;" fill="none" id="*start*-to-traffic_light"/><polygon points="130.654,157.284,134.654,148.284,130.654,152.284,126.654,148.284,130.654,157.284" fill="#181818" style="stroke:#181818;stroke-width:1;stroke-linejoin:miter;stroke-miterlimit:10;"/></g><!--link traffic_light to *end*--><g class="link" data-entity-1="ent0001" data-entity-2="ent0012" id="lnk13" data-source-line="25" data-link-type="dependency"><path d="M130.654,491.144 C130.654,516.534 130.654,533.324 130.654,545.504" style="stroke:#181818;stroke-width:1;" fill="none" id="traffic_light-to-*end*"/><polygon points="130.654,550.504,134.654,541.504,130.654,545.504,126.654,541.504,130.654,550.504" fill="#181818" style="stroke:#181818;stroke-width:1;stroke-linejoin:miter;stroke-miterlimit:10;"/></g><?plantuml-src TP7VIyCm4CVVyrSSUnG6GzcBR7sOu11yqY68I8dDjJkM9Y6z8iNwlvkc5JeNNv9mtyzzxqUEf12mTjo1mgRmv9Yi4Q8vaN7IoneQbepm9G1siZXLthP6tLbj_MRZ6coLpJ9ufEh8Uo-x55NOsjc667_1dMvn0ArNwFzQJIxtrl0pTnfd4h7KL8Xl8JHMQ1ImTQ2nPD5luKLwaXyQ8RmFdOltWo4cgOCMAa8lUc2gqKCFP3YSgn0BFgDRc3bEkZXuMPPKn5ON81lWCP3h8GBd0mrxWMb7YoTKbmbvxb7DgLVKsdwcm2ugStRl4KqAhGOXaczNxx1SPlyLlGodw6W7jzD-iYtSh5BP8vR87pkV6rolKmOJb-vtdhuEtvoSJ9p_ng07xWS0?></g></svg>