<?xml version="1.0" encoding="us-ascii" standalone="no"?><svg xmlns="http://www.w3.org/2000/svg" xmlns:xlink="http://www.w3.org/1999/xlink" contentStyleType="text/css" height="573px" preserveAspectRatio="none" style="width:265px;height:573px;background:#FFFFFF;" version="1.1" viewBox="0 0 265 573" width="265px" zoomAndPan="magnify"><defs/><g><rect fill="#DDDDDD" height="46.5938" id="_legend" rx="7.5" ry="7.5" style="stroke:#000000;stroke-width:1.0;" width="233" x="12" y="12"/><text fill="#000000" font-family="sans-serif" font-size="14" font-weight="bold" lengthAdjust="spacing" textLength="64" x="22" y="31.9951">Variable</text><text fill="#000000" font-family="sans-serif" font-size="14" font-weight="bold" lengthAdjust="spacing" textLength="39" x="96" y="31.9951">Type</text><text fill="#000000" font-family="sans-serif" font-size="14" font-weight="bold" lengthAdjust="spacing" textLength="90" x="145" y="31.9951">Initial Value</text><text fill="#000000" font-family="sans-serif" font-size="14" lengthAdjust="spacing" textLength="35" x="21" y="48.292">timer</text><text fill="#000000" font-family="sans-serif" font-size="14" lengthAdjust="spacing" textLength="17" x="95" y="48.292">int</text><text fill="#000000" font-family="sans-serif" font-size="14" lengthAdjust="spacing" textLength="9" x="144" y="48.292">0</text><line style="stroke:#000000;stroke-width:1.0;" x1="17" x2="240" y1="19" y2="19"/><line style="stroke:#000000;stroke-width:1.0;" x1="17" x2="240" y1="35.2969" y2="35.2969"/><line style="stroke:#000000;stroke-width:1.0;" x1="17" x2="240" y1="51.5938" y2="51.5938"/><line style="stroke:#000000;stroke-width:1.0;" x1="17" x2="17" y1="19" y2="51.5938"/><line style="stroke:#000000;stroke-width:1.0;" x1="91" x2="91" y1="19" y2="51.5938"/><line style="stroke:#000000;stroke-width:1.0;" x1="140" x2="140" y1="19" y2="51.5938"/><line style="stroke:#000000;stroke-width:1.0;" x1="240" x2="240" y1="19" y2="51.5938"/><path d="M38.75,157.5938 L232.25,157.5938 A12.5,12.5 0 0 1 244.75,170.0938 L244.75,183.8906 L26.25,183.8906 L26.25,170.0938 A12.5,12.5 0 0 1 38.75,157.5938 " fill="#ADD8E6" style="stroke:#ADD8E6;stroke-width:1.0;"/><rect fill="none" height="330.2969" rx="12.5" ry="12.5" style="stroke:#181818;stroke-width:0.5;" width="218.5" x="26.25" y="157.5938"/><line style="stroke:#181818;stroke-width:0.5;" x1="26.25" x2="244.75" y1="183.8906" y2="183.8906"/><text fill="#000000" font-family="sans-serif" font-size="14" lengthAdjust="spacing" textLength="74" x="98.5" y="175.5889">TrafficLight</text><rect fill="#F1F1F1" height="40" rx="12.5" ry="12.5" style="stroke:#181818;stroke-width:0.5;" width="50" x="87.75" y="251.8906"/><text fill="#000000" font-family="sans-serif" font-size="14" lengthAdjust="spacing" textLength="28" x="98.75" y="276.7373">Red</text><rect fill="#F1F1F1" height="40" rx="12.5" ry="12.5" style="stroke:#181818;stroke-width:0.5;" width="54" x="85.75" y="437.8906"/><text fill="#000000" font-family="sans-serif" font-size="14" lengthAdjust="spacing" textLength="44" x="90.75" y="462.7373">Yellow</text><rect fill="#F1F1F1" height="40" rx="12.5" ry="12.5" style="stroke:#181818;stroke-width:0.5;" width="53" x="38.25" y="344.8906"/><text fill="#000000" font-family="sans-serif" font-size="14" lengthAdjust="spacing" textLength="43" x="43.25" y="369.7373">Green</text><ellipse cx="112.75" cy="204.8906" fill="#181818" rx="10" ry="10" style="stroke:none;stroke-width:1.0;"/><!--link *start*traffic_light to traffic_light__red--><g id="link_*start*traffic_light_traffic_light__red"><path d="M112.75,215.2006 C112.75,223.1406 112.75,234.9306 112.75,245.6206 " fill="none" id="*start*traffic_light-to-traffic_light__red" style="stroke:#181818;stroke-width:1.0;"/><polygon fill="#181818" points="112.75,250.4106,116.75,241.4106,112.75,245.4106,108.75,241.4106,112.75,250.4106" style="stroke:#181818;stroke-width:1.0;"/></g><!--link traffic_light__red to traffic_light__green--><g id="link_traffic_light__red_traffic_light__green"><path d="M87.31,286.6506 C78.88,292.6006 70.46,300.4006 65.75,309.8906 C61.4,318.6506 60.43,329.2406 60.8,338.7106 " fill="none" id="traffic_light__red-to-traffic_light__green" style="stroke:#181818;stroke-width:1.0;"/><polygon fill="#181818" points="61.19,343.4406,64.5631,334.1874,60.847,338.4524,56.582,334.7363,61.19,343.4406" style="stroke:#181818;stroke-width:1.0;"/><text fill="#000000" font-family="sans-serif" font-size="13" lengthAdjust="spacing" textLength="80" x="66.75" y="322.9575">timer &gt;= 30</text></g><!--link traffic_light__green to traffic_light__yellow--><g id="link_traffic_light__green_traffic_light__yellow"><path d="M61.19,385.3406 C60.17,396.0606 60.49,409.3106 65.75,419.8906 C69.21,426.8606 74.67,432.9106 80.66,438.0006 " fill="none" id="traffic_light__green-to-traffic_light__yellow" style="stroke:#181818;stroke-width:1.0;"/><polygon fill="#181818" points="84.33,441.6906,79.7776,432.957,80.4173,438.5776,74.7967,439.2173,84.33,441.6906" style="stroke:#181818;stroke-width:1.0;"/><text fill="#000000" font-family="sans-serif" font-size="13" lengthAdjust="spacing" textLength="80" x="66.75" y="415.9575">timer &gt;= 25</text></g><!--link traffic_light__yellow to traffic_light__red--><g id="link_traffic_light__yellow_traffic_light__red"><path d="M136.28,437.4006 C140.95,432.2406 145.2,426.3006 147.75,419.8906 C165.83,374.4706 165.83,355.3106 147.75,309.8906 C145.92,305.2806 143.21,300.9206 140.09,296.9206 " fill="none" id="traffic_light__yellow-to-traffic_light__red" style="stroke:#181818;stroke-width:1.0;"/><polygon fill="#181818" points="136.28,293.3806,139.0241,302.8395,139.5033,297.203,145.1398,297.6822,136.28,293.3806" style="stroke:#181818;stroke-width:1.0;"/><text fill="#000000" font-family="sans-serif" font-size="13" lengthAdjust="spacing" textLength="72" x="162.75" y="369.4575">timer &gt;= 5</text></g><ellipse cx="135.25" cy="87.5938" fill="#181818" rx="10" ry="10" style="stroke:none;stroke-width:1.0;"/><ellipse cx="135.25" cy="557.5938" fill="none" rx="10" ry="10" style="stroke:#181818;stroke-width:1.0;"/><ellipse cx="135.75" cy="558.0938" fill="#181818" rx="6" ry="6" style="stroke:none;stroke-width:1.0;"/><!--link *start* to traffic_light--><g id="link_*start*_traffic_light"><path d="M135.25,98.0138 C135.25,108.9237 135.25,128.3838 135.25,151.4138 " fill="none" id="*start*-to-traffic_light" style="stroke:#181818;stroke-width:1.0;"/><polygon fill="#181818" points="135.25,156.3438,139.25,147.3438,135.25,151.3438,131.25,147.3438,135.25,156.3438" style="stroke:#181818;stroke-width:1.0;"/></g><!--link traffic_light to *end*--><g id="link_traffic_light_*end*"><path d="M135.25,487.9438 C135.25,509.7537 135.25,528.8438 135.25,541.3238 " fill="none" id="traffic_light-to-*end*" style="stroke:#181818;stroke-width:1.0;"/><polygon fill="#181818" points="135.25,546.2238,139.25,537.2238,135.25,541.2238,131.25,537.2238,135.25,546.2238" style="stroke:#181818;stroke-width:1.0;"/></g><!--SRC=[TP7VIyCm4CVVyrSSUnG6GzcBR7sOu11yqY68I8dDjJkM9Y6z8iNwlvkc5JeNNv9mtyzzxqUEf12mTjo1mgRmv9Yi4Q8vaN7IoneQbepm9G1siZXLthP6tLbj_MRZ6coLpJ9ufEh8Uo-x55NOsjc667_1dMvn0ArNwFzQJIxtrl0pTnfd4h7KL8Xl8JHMQ1ImTQ2nPD5luKLwaXyQ8RmFdOltWo4cgOCMAa8lUc2gqKCFP3YSgn0BFgDRc3bEkZXuMPPKn5ON81lWCP3h8GBd0mrxWMb7YoTKbmbvxb7DgLVKsdwcm2ugStRl4KqAhGOXaczNxx1SPlyLlGodw6W7jzD-iYtSh5BP8vR87pkV6rolKmOJb-vtdhuEtvoSJ9p_ng07xWS0]--></g></svg>