<?xml version="1.0" encoding="us-ascii" standalone="no"?><svg xmlns="http://www.w3.org/2000/svg" xmlns:xlink="http://www.w3.org/1999/xlink" contentStyleType="text/css" height="500px" preserveAspectRatio="none" style="width:265px;height:500px;background:#FFFFFF;" version="1.1" viewBox="0 0 265 500" width="265px" zoomAndPan="magnify"><defs/><g><rect fill="#DDDDDD" height="160.6719" id="_legend" rx="7.5" ry="7.5" style="stroke:#000000;stroke-width:1.0;" width="233" x="12" y="12"/><text fill="#000000" font-family="sans-serif" font-size="14" font-weight="bold" lengthAdjust="spacing" textLength="64" x="22" y="31.9951">Variable</text><text fill="#000000" font-family="sans-serif" font-size="14" font-weight="bold" lengthAdjust="spacing" textLength="39" x="96" y="31.9951">Type</text><text fill="#000000" font-family="sans-serif" font-size="14" font-weight="bold" lengthAdjust="spacing" textLength="90" x="145" y="31.9951">Initial Value</text><text fill="#000000" font-family="sans-serif" font-size="14" lengthAdjust="spacing" textLength="8" x="21" y="48.292">a</text><text fill="#000000" font-family="sans-serif" font-size="14" lengthAdjust="spacing" textLength="17" x="95" y="48.292">int</text><text fill="#000000" font-family="sans-serif" font-size="14" lengthAdjust="spacing" textLength="9" x="144" y="48.292">0</text><text fill="#000000" font-family="sans-serif" font-size="14" lengthAdjust="spacing" textLength="9" x="21" y="64.5889">b</text><text fill="#000000" font-family="sans-serif" font-size="14" lengthAdjust="spacing" textLength="17" x="95" y="64.5889">int</text><text fill="#000000" font-family="sans-serif" font-size="14" lengthAdjust="spacing" textLength="9" x="144" y="64.5889">0</text><text fill="#000000" font-family="sans-serif" font-size="14" lengthAdjust="spacing" textLength="8" x="21" y="80.8857">c</text><text fill="#000000" font-family="sans-serif" font-size="14" lengthAdjust="spacing" textLength="17" x="95" y="80.8857">int</text><text fill="#000000" font-family="sans-serif" font-size="14" lengthAdjust="spacing" textLength="9" x="144" y="80.8857">0</text><text fill="#000000" font-family="sans-serif" font-size="14" lengthAdjust="spacing" textLength="9" x="21" y="97.1826">d</text><text fill="#000000" font-family="sans-serif" font-size="14" lengthAdjust="spacing" textLength="17" x="95" y="97.1826">int</text><text fill="#000000" font-family="sans-serif" font-size="14" lengthAdjust="spacing" textLength="9" x="144" y="97.1826">0</text><text fill="#000000" font-family="sans-serif" font-size="14" lengthAdjust="spacing" textLength="9" x="21" y="113.4795">e</text><text fill="#000000" font-family="sans-serif" font-size="14" lengthAdjust="spacing" textLength="17" x="95" y="113.4795">int</text><text fill="#000000" font-family="sans-serif" font-size="14" lengthAdjust="spacing" textLength="9" x="144" y="113.4795">0</text><text fill="#000000" font-family="sans-serif" font-size="14" lengthAdjust="spacing" textLength="4" x="21" y="129.7764">f</text><text fill="#000000" font-family="sans-serif" font-size="14" lengthAdjust="spacing" textLength="17" x="95" y="129.7764">int</text><text fill="#000000" font-family="sans-serif" font-size="14" lengthAdjust="spacing" textLength="9" x="144" y="129.7764">0</text><text fill="#000000" font-family="sans-serif" font-size="14" lengthAdjust="spacing" textLength="9" x="21" y="146.0732">g</text><text fill="#000000" font-family="sans-serif" font-size="14" lengthAdjust="spacing" textLength="17" x="95" y="146.0732">int</text><text fill="#000000" font-family="sans-serif" font-size="14" lengthAdjust="spacing" textLength="9" x="144" y="146.0732">0</text><text fill="#000000" font-family="sans-serif" font-size="14" lengthAdjust="spacing" textLength="9" x="21" y="162.3701">h</text><text fill="#000000" font-family="sans-serif" font-size="14" lengthAdjust="spacing" textLength="17" x="95" y="162.3701">int</text><text fill="#000000" font-family="sans-serif" font-size="14" lengthAdjust="spacing" textLength="9" x="144" y="162.3701">0</text><line style="stroke:#000000;stroke-width:1.0;" x1="17" x2="240" y1="19" y2="19"/><line style="stroke:#000000;stroke-width:1.0;" x1="17" x2="240" y1="35.2969" y2="35.2969"/><line style="stroke:#000000;stroke-width:1.0;" x1="17" x2="240" y1="51.5938" y2="51.5938"/><line style="stroke:#000000;stroke-width:1.0;" x1="17" x2="240" y1="67.8906" y2="67.8906"/><line style="stroke:#000000;stroke-width:1.0;" x1="17" x2="240" y1="84.1875" y2="84.1875"/><line style="stroke:#000000;stroke-width:1.0;" x1="17" x2="240" y1="100.4844" y2="100.4844"/><line style="stroke:#000000;stroke-width:1.0;" x1="17" x2="240" y1="116.7813" y2="116.7813"/><line style="stroke:#000000;stroke-width:1.0;" x1="17" x2="240" y1="133.0781" y2="133.0781"/><line style="stroke:#000000;stroke-width:1.0;" x1="17" x2="240" y1="149.375" y2="149.375"/><line style="stroke:#000000;stroke-width:1.0;" x1="17" x2="240" y1="165.6719" y2="165.6719"/><line style="stroke:#000000;stroke-width:1.0;" x1="17" x2="17" y1="19" y2="165.6719"/><line style="stroke:#000000;stroke-width:1.0;" x1="91" x2="91" y1="19" y2="165.6719"/><line style="stroke:#000000;stroke-width:1.0;" x1="140" x2="140" y1="19" y2="165.6719"/><line style="stroke:#000000;stroke-width:1.0;" x1="240" x2="240" y1="19" y2="165.6719"/><path d="M112.5,271.6719 L158.5,271.6719 A12.5,12.5 0 0 1 171,284.1719 L171,297.9688 L100,297.9688 L100,284.1719 A12.5,12.5 0 0 1 112.5,271.6719 " fill="#ADD8E6" style="stroke:#ADD8E6;stroke-width:1.0;"/><rect fill="none" height="143.2969" rx="12.5" ry="12.5" style="stroke:#181818;stroke-width:0.5;" width="71" x="100" y="271.6719"/><line style="stroke:#181818;stroke-width:0.5;" x1="100" x2="171" y1="297.9688" y2="297.9688"/><text fill="#000000" font-family="sans-serif" font-size="14" lengthAdjust="spacing" textLength="33" x="119" y="289.667">Root</text><rect fill="#F1F1F1" height="40" rx="12.5" ry="12.5" style="stroke:#181818;stroke-width:0.5;" width="51" x="112" y="364.9688"/><text fill="#000000" font-family="sans-serif" font-size="14" lengthAdjust="spacing" textLength="41" x="117" y="389.8154">Active</text><ellipse cx="137.5" cy="318.9688" fill="#181818" rx="10" ry="10" style="stroke:none;stroke-width:1.0;"/><!--link *start*root to root__active--><g id="link_*start*root_root__active"><path d="M137.5,329.4088 C137.5,337.1488 137.5,348.4488 137.5,358.7688 " fill="none" id="*start*root-to-root__active" style="stroke:#181818;stroke-width:1.0;"/><polygon fill="#181818" points="137.5,363.6888,141.5,354.6888,137.5,358.6888,133.5,354.6888,137.5,363.6888" style="stroke:#181818;stroke-width:1.0;"/></g><ellipse cx="135.5" cy="201.6719" fill="#181818" rx="10" ry="10" style="stroke:none;stroke-width:1.0;"/><ellipse cx="135.5" cy="484.6719" fill="none" rx="10" ry="10" style="stroke:#181818;stroke-width:1.0;"/><ellipse cx="136" cy="485.1719" fill="#181818" rx="6" ry="6" style="stroke:none;stroke-width:1.0;"/><!--link *start* to root--><g id="link_*start*_root"><path d="M135.5,211.8219 C135.5,223.2319 135.5,243.8619 135.5,265.3919 " fill="none" id="*start*-to-root" style="stroke:#181818;stroke-width:1.0;"/><polygon fill="#181818" points="135.5,270.1819,139.5,261.1819,135.5,265.1819,131.5,261.1819,135.5,270.1819" style="stroke:#181818;stroke-width:1.0;"/></g><!--link root to *end*--><g id="link_root_*end*"><path d="M135.5,415.1519 C135.5,435.2819 135.5,455.2719 135.5,468.4219 " fill="none" id="root-to-*end*" style="stroke:#181818;stroke-width:1.0;"/><polygon fill="#181818" points="135.5,473.2919,139.5,464.2919,135.5,468.2919,131.5,464.2919,135.5,473.2919" style="stroke:#181818;stroke-width:1.0;"/></g><!--SRC=[RP31IWCn48RlUOfXZqB11wWBLb04JofUHCeqcMw7PfEGp0gBstSt6wjqWvTalfcVVuR_m8Q0-Y0Z64ewSX3sJgbqP1SmOWz9K0Y-5C06zR6BVd3cpbiVr-kGQ32-RU69kuCyH1p_KsdV1vzOw5UuiGFDGXyDnThgx7BldRp8QEbYn8AMjJefPQaZPq1y04jxKTCDl65at5c2NB-EeVoFZeNHvbdU29EQ0642TfBVwyAxYdN5fcAgU5znL_5XmVdcdyjplYNLvjbxQG0Jn5p0CgivSZZ7tznguK_waswtM1f5ydxr0QjLknoSr6LR5V-PSlSR]--></g></svg>