<svg xmlns="http://www.w3.org/2000/svg" xmlns:xlink="http://www.w3.org/1999/xlink" version="1.1" data-diagram-type="STATE" style="width:284px;height:591px;background:#FFFFFF;" width="284px" height="591px" viewBox="0 0 284 591" zoomAndPan="magnify" preserveAspectRatio="none" contentStyleType="text/css"><?plantuml 1.2026.7beta8?><defs/><g font-family="sans-serif" lengthAdjust="spacing"><g class="legend" data-source-line="10"><rect x="12" y="12" width="238.313" height="79.188" fill="#DDD" style="stroke:#000;stroke-width:1;" rx="7.5" ry="7.5"/><text x="21.874" y="31.995" fill="#000" font-size="14" textLength="65.748" font-weight="700">Variable</text><text x="97.37" y="31.995" fill="#000" font-size="14" textLength="38.192" font-weight="700">Type</text><text x="145.311" y="31.995" fill="#000" font-size="14" textLength="95.129" font-weight="700">Initial Value</text><text x="21.45" y="48.292" fill="#000" font-size="14" textLength="53.867">counter</text><text x="96.946" y="48.292" fill="#000" font-size="14" textLength="18.252">int</text><text x="144.887" y="48.292" fill="#000" font-size="14">0</text><text x="21.45" y="64.589" fill="#000" font-size="14" textLength="32.279">ratio</text><text x="96.946" y="64.589" fill="#000" font-size="14" textLength="31.452">float</text><text x="144.887" y="64.589" fill="#000" font-size="14" textLength="22.265">0.5</text><text x="21.45" y="80.886" fill="#000" font-size="14" textLength="34.221">keep</text><text x="96.946" y="80.886" fill="#000" font-size="14" textLength="18.252">int</text><text x="144.887" y="80.886" fill="#000" font-size="14">5</text><line x1="17" y1="19" x2="245.313" y2="19" style="stroke:#000;stroke-width:1;"/><line x1="17" y1="35.297" x2="245.313" y2="35.297" style="stroke:#000;stroke-width:1;"/><line x1="17" y1="51.594" x2="245.313" y2="51.594" style="stroke:#000;stroke-width:1;"/><line x1="17" y1="67.891" x2="245.313" y2="67.891" style="stroke:#000;stroke-width:1;"/><line x1="17" y1="84.188" x2="245.313" y2="84.188" style="stroke:#000;stroke-width:1;"/><line x1="17" y1="19" x2="17" y2="84.188" style="stroke:#000;stroke-width:1;"/><line x1="92.496" y1="19" x2="92.496" y2="84.188" style="stroke:#000;stroke-width:1;"/><line x1="140.437" y1="19" x2="140.437" y2="84.188" style="stroke:#000;stroke-width:1;"/><line x1="245.313" y1="19" x2="245.313" y2="84.188" style="stroke:#000;stroke-width:1;"/></g><g class="entity" data-qualified-name="root" id="ent0001" data-source-line="17"><path d="M19.5,190.188 L256.5,190.188 A12.5,12.5 0 0 1 269,202.688 L269,216.484 L7,216.484 L7,202.688 A12.5,12.5 0 0 1 19.5,190.188" fill="#ADD8E6"/><path d="M7,216.484 L269,216.484 L269,482.984 A12.5,12.5 0 0 1 256.5,495.484 L19.5,495.484 A12.5,12.5 0 0 1 7,482.984 L7,216.484" fill="#ADD8E6"/><rect x="7" y="190.188" width="262" height="305.297" fill="none" style="stroke:#181818;stroke-width:0.5;" rx="12.5" ry="12.5"/><line x1="7" y1="216.484" x2="269" y2="216.484" style="stroke:#181818;stroke-width:0.5;"/><text x="121.826" y="208.183" fill="#000" font-size="14" textLength="32.348">Root</text><rect x="19" y="284.484" width="50" height="40" fill="#F1F1F1" style="stroke:#181818;stroke-width:0.5;" rx="12.5" ry="12.5"/><text x="39.211" y="309.331" fill="#000" font-size="14">A</text><rect x="19" y="442.484" width="50" height="40" fill="#F1F1F1" style="stroke:#181818;stroke-width:0.5;" rx="12.5" ry="12.5"/><text x="39.198" y="467.331" fill="#000" font-size="14">B</text><g class="start_entity" data-qualified-name="root..start.root" id="ent0004" data-source-line="20"><ellipse cx="44" cy="237.484" rx="10" ry="10" fill="#222" style="stroke:#222;stroke-width:1;"/></g><!--link *start*root to root__a--><g class="link" data-entity-1="ent0004" data-entity-2="ent0002" id="lnk5" data-source-line="20" data-link-type="dependency"><path d="M44,247.794 C44,257.204 44,267.024 44,279.004" style="stroke:#181818;stroke-width:1;" fill="none" id="*start*root-to-root__a"/><polygon points="44,284.004,48,275.004,44,279.004,40,275.004,44,284.004" fill="#181818" style="stroke:#181818;stroke-width:1;stroke-linejoin:miter;stroke-miterlimit:10;"/></g><!--link root__a to root__b--><g class="link" data-entity-1="ent0002" data-entity-2="ent0003" id="lnk6" data-source-line="21" data-link-type="dependency"><path d="M44,324.924 C44,354.984 44,407.384 44,437.284" style="stroke:#181818;stroke-width:1;" fill="none" id="root__a-to-root__b"/><polygon points="44,442.284,48,433.284,44,437.284,40,433.284,44,442.284" fill="#181818" style="stroke:#181818;stroke-width:1;stroke-linejoin:miter;stroke-miterlimit:10;"/><text x="138.389" y="355.551" fill="#000" font-size="13" textLength="18.027">Go</text><path d="M49,364.617 L49,419.617 L245,419.617 L245,374.617 L235,364.617 L49,364.617" style="stroke:#181818;stroke-width:0.5;" fill="#FEFFDD"/><path d="M235,364.617 L235,374.617 L245,374.617 L235,364.617" style="stroke:#181818;stroke-width:0.5;" fill="#FEFFDD"/><text x="55" y="381.684" fill="#000" font-size="13" textLength="49.797">effect {</text><text x="71.529" y="396.817" fill="#000" font-size="13" textLength="159.275">counter = counter + 10;</text><text x="55" y="411.95" fill="#000" font-size="13">}</text></g></g><g class="start_entity" data-qualified-name=".start." id="ent0007" data-source-line="28"><ellipse cx="138" cy="120.188" rx="10" ry="10" fill="#222" style="stroke:#222;stroke-width:1;"/></g><g class="end_entity" data-qualified-name=".end." id="ent0009" data-source-line="29"><ellipse cx="138" cy="566.488" rx="11" ry="11" fill="none" style="stroke:#222;stroke-width:1;"/><ellipse cx="138" cy="566.488" rx="6" ry="6" fill="#222" style="stroke:#222;stroke-width:1;"/></g><!--link *start* to root--><g class="link" data-entity-1="ent0007" data-entity-2="ent0001" id="lnk8" data-source-line="28" data-link-type="dependency"><path d="M138,130.668 C138,142.548 138,159.448 138,184.798" style="stroke:#181818;stroke-width:1;" fill="none" id="*start*-to-root"/><polygon points="138,189.798,142,180.798,138,184.798,134,180.798,138,189.798" fill="#181818" style="stroke:#181818;stroke-width:1;stroke-linejoin:miter;stroke-miterlimit:10;"/></g><!--link root to *end*--><g class="link" data-entity-1="ent0001" data-entity-2="ent0009" id="lnk10" data-source-line="29" data-link-type="dependency"><path d="M138,495.968 C138,521.048 138,537.828 138,550.048" style="stroke:#181818;stroke-width:1;" fill="none" id="root-to-*end*"/><polygon points="138,555.048,142,546.048,138,550.048,134,546.048,138,555.048" fill="#181818" style="stroke:#181818;stroke-width:1;stroke-linejoin:miter;stroke-miterlimit:10;"/></g><?plantuml-src RL1DJyCm3BtdLrWxWeR6WGjiaoWI4n8dG5mGchBMxQncSPHwXuhkl-DctTGXSaZizrxyyRPK8E0kI0i5Ddca8CJUcAOc7soqEsZ42iAF0SXiNbUHzxvuOiTnFWyDxWjUBk6Lggsiect_K-My2zoGu4cOkJtsGeu5nh-bXYhFxELTMeSZYiGwoit168SL-WA40pWinNGB-BIHxCOXQFpHXlI-U1AoJZdj29tf8DUv12DqG5xqdYKqMbrQizAnJUZDNS9hn72Mzf0sFRPMWv8japTccO1j86e0bylsdi7Wt-Jnh5glxPZ8HiGc4LzNtp2TBY_4Gpp2Dt0FAqwaPot47XpvEW5ObfZBC41_Jdilpj4rtCuU4dyuVb4_-pfgxxY_INlrcQA_?></g></svg>