<?xml version="1.0" encoding="us-ascii" standalone="no"?><svg xmlns="http://www.w3.org/2000/svg" xmlns:xlink="http://www.w3.org/1999/xlink" contentStyleType="text/css" height="703px" preserveAspectRatio="none" style="width:458px;height:703px;background:#FFFFFF;" version="1.1" viewBox="0 0 458 703" width="458px" zoomAndPan="magnify"><defs/><g><rect fill="#DDDDDD" height="111.7813" id="_legend" rx="7.5" ry="7.5" style="stroke:#000000;stroke-width:1.0;" width="330" x="12" y="12"/><text fill="#000000" font-family="sans-serif" font-size="14" font-weight="bold" lengthAdjust="spacing" textLength="64" x="22" y="31.9951">Variable</text><text fill="#000000" font-family="sans-serif" font-size="14" font-weight="bold" lengthAdjust="spacing" textLength="39" x="114" y="31.9951">Type</text><text fill="#000000" font-family="sans-serif" font-size="14" font-weight="bold" lengthAdjust="spacing" textLength="90" x="163" y="31.9951">Initial Value</text><text fill="#000000" font-family="sans-serif" font-size="14" lengthAdjust="spacing" textLength="54" x="21" y="48.292">counter</text><text fill="#000000" font-family="sans-serif" font-size="14" lengthAdjust="spacing" textLength="17" x="113" y="48.292">int</text><text fill="#000000" font-family="sans-serif" font-size="14" lengthAdjust="spacing" textLength="9" x="162" y="48.292">0</text><text fill="#000000" font-family="sans-serif" font-size="14" lengthAdjust="spacing" textLength="38" x="21" y="64.5889">ready</text><text fill="#000000" font-family="sans-serif" font-size="14" lengthAdjust="spacing" textLength="17" x="113" y="64.5889">int</text><text fill="#000000" font-family="sans-serif" font-size="14" lengthAdjust="spacing" textLength="9" x="162" y="64.5889">1</text><text fill="#000000" font-family="sans-serif" font-size="14" lengthAdjust="spacing" textLength="84" x="21" y="80.8857">unused_flag</text><text fill="#000000" font-family="sans-serif" font-size="14" lengthAdjust="spacing" textLength="17" x="113" y="80.8857">int</text><text fill="#000000" font-family="sans-serif" font-size="14" lengthAdjust="spacing" textLength="9" x="162" y="80.8857">0</text><text fill="#000000" font-family="sans-serif" font-size="14" lengthAdjust="spacing" textLength="64" x="21" y="97.1826">too_large</text><text fill="#000000" font-family="sans-serif" font-size="14" lengthAdjust="spacing" textLength="17" x="113" y="97.1826">int</text><text fill="#000000" font-family="sans-serif" font-size="14" lengthAdjust="spacing" textLength="171" x="162" y="97.1826">9223372036854775808</text><text fill="#000000" font-family="sans-serif" font-size="14" lengthAdjust="spacing" textLength="30" x="21" y="113.4795">ratio</text><text fill="#000000" font-family="sans-serif" font-size="14" lengthAdjust="spacing" textLength="29" x="113" y="113.4795">float</text><text fill="#000000" font-family="sans-serif" font-size="14" lengthAdjust="spacing" textLength="22" x="162" y="113.4795">1.5</text><line style="stroke:#000000;stroke-width:1.0;" x1="17" x2="337" y1="19" y2="19"/><line style="stroke:#000000;stroke-width:1.0;" x1="17" x2="337" y1="35.2969" y2="35.2969"/><line style="stroke:#000000;stroke-width:1.0;" x1="17" x2="337" y1="51.5938" y2="51.5938"/><line style="stroke:#000000;stroke-width:1.0;" x1="17" x2="337" y1="67.8906" y2="67.8906"/><line style="stroke:#000000;stroke-width:1.0;" x1="17" x2="337" y1="84.1875" y2="84.1875"/><line style="stroke:#000000;stroke-width:1.0;" x1="17" x2="337" y1="100.4844" y2="100.4844"/><line style="stroke:#000000;stroke-width:1.0;" x1="17" x2="337" y1="116.7813" y2="116.7813"/><line style="stroke:#000000;stroke-width:1.0;" x1="17" x2="17" y1="19" y2="116.7813"/><line style="stroke:#000000;stroke-width:1.0;" x1="109" x2="109" y1="19" y2="116.7813"/><line style="stroke:#000000;stroke-width:1.0;" x1="158" x2="158" y1="19" y2="116.7813"/><line style="stroke:#000000;stroke-width:1.0;" x1="337" x2="337" y1="19" y2="116.7813"/><path d="M19.5,222.7813 L432.5,222.7813 A12.5,12.5 0 0 1 445,235.2813 L445,249.0781 L7,249.0781 L7,235.2813 A12.5,12.5 0 0 1 19.5,222.7813 " fill="#ADD8E6" style="stroke:#ADD8E6;stroke-width:1.0;"/><rect fill="none" height="395.2969" rx="12.5" ry="12.5" style="stroke:#181818;stroke-width:0.5;" width="438" x="7" y="222.7813"/><line style="stroke:#181818;stroke-width:0.5;" x1="7" x2="445" y1="249.0781" y2="249.0781"/><text fill="#000000" font-family="sans-serif" font-size="14" lengthAdjust="spacing" textLength="93" x="179.5" y="240.7764">InspectDemo</text><rect fill="#F1F1F1" height="40" rx="12.5" ry="12.5" style="stroke:#181818;stroke-width:0.5;" width="51" x="158.5" y="317.0781"/><text fill="#000000" font-family="sans-serif" font-size="14" lengthAdjust="spacing" textLength="41" x="163.5" y="341.9248">Active</text><rect fill="#F1F1F1" height="40" rx="12.5" ry="12.5" style="stroke:#181818;stroke-width:0.5;" width="50" x="249" y="568.0781"/><text fill="#000000" font-family="sans-serif" font-size="14" lengthAdjust="spacing" textLength="38" x="255" y="592.9248">Done</text><rect fill="#F1F1F1" height="40" rx="12.5" ry="12.5" style="stroke:#181818;stroke-width:0.5;" width="98" x="45" y="568.0781"/><text fill="#000000" font-family="sans-serif" font-size="14" lengthAdjust="spacing" textLength="88" x="50" y="592.9248">ComboDone</text><rect fill="#D3D3D3" height="40" rx="12.5" ry="12.5" style="stroke:#808080;stroke-width:1.0;stroke-dasharray:1.0,3.0;" width="150" x="19" y="410.0781"/><text fill="#000000" font-family="sans-serif" font-size="14" font-style="italic" lengthAdjust="spacing" textLength="140" x="24" y="434.9248">combo after Confirm</text><rect fill="#D3D3D3" height="40" rx="12.5" ry="12.5" style="stroke:#808080;stroke-width:1.0;stroke-dasharray:1.0,3.0;" width="174" x="187" y="410.0781"/><text fill="#000000" font-family="sans-serif" font-size="14" font-style="italic" lengthAdjust="spacing" textLength="164" x="192" y="434.9248">combo after [ready &gt; 0]</text><ellipse cx="184" cy="270.0781" fill="#181818" rx="10" ry="10" style="stroke:none;stroke-width:1.0;"/><!--link *start*inspect_demo to inspect_demo__active--><g id="link_*start*inspect_demo_inspect_demo__active"><path d="M184,280.3881 C184,288.3281 184,300.1181 184,310.8081 " fill="none" id="*start*inspect_demo-to-inspect_demo__active" style="stroke:#181818;stroke-width:1.0;"/><polygon fill="#181818" points="184,315.5981,188,306.5981,184,310.5981,180,306.5981,184,315.5981" style="stroke:#181818;stroke-width:1.0;"/></g><!--link inspect_demo__active to inspect_demo___combo_inspectdemo_active_confirm_h0856b3147dad--><g id="link_inspect_demo__active_inspect_demo___combo_inspectdemo_active_confirm_h0856b3147dad"><path d="M160.24,357.4581 C153.83,362.9681 147.01,369.1081 141,375.0781 C131.45,384.5781 121.56,395.7181 113.33,405.3981 " fill="none" id="inspect_demo__active-to-inspect_demo___combo_inspectdemo_active_confirm_h0856b3147dad" style="stroke:#181818;stroke-width:1.0;"/><polygon fill="#181818" points="109.67,408.7381,118.5284,404.4335,112.892,404.9147,112.4108,399.2783,109.67,408.7381" style="stroke:#181818;stroke-width:1.0;"/><text fill="#000000" font-family="sans-serif" font-size="13" lengthAdjust="spacing" textLength="93" x="142" y="388.145">Active.Confirm</text></g><!--link inspect_demo___combo_inspectdemo_active_confirm_h0856b3147dad to inspect_demo__combo_done--><g id="link_inspect_demo___combo_inspectdemo_active_confirm_h0856b3147dad_inspect_demo__combo_done"><path d="M94,450.5181 C94,478.6981 94,530.9081 94,561.9681 " fill="none" id="inspect_demo___combo_inspectdemo_active_confirm_h0856b3147dad-to-inspect_demo__combo_done" style="stroke:#181818;stroke-width:1.0;"/><polygon fill="#181818" points="94,566.8781,98,557.8781,94,561.8781,90,557.8781,94,566.8781" style="stroke:#181818;stroke-width:1.0;"/><text fill="#000000" font-family="sans-serif" font-size="13" lengthAdjust="spacing" textLength="93" x="95" y="513.645">Active.Confirm</text></g><!--link inspect_demo__active to inspect_demo___combo_inspectdemo_active_if_ready_gt_0_h653c4e2008e5--><g id="link_inspect_demo__active_inspect_demo___combo_inspectdemo_active_if_ready_gt_0_h653c4e2008e5"><path d="M209.96,353.9781 C218.73,360.0081 228.26,367.2981 236,375.0781 C244.74,383.8681 252.88,394.8681 259.36,404.6381 " fill="none" id="inspect_demo__active-to-inspect_demo___combo_inspectdemo_active_if_ready_gt_0_h653c4e2008e5" style="stroke:#181818;stroke-width:1.0;"/><polygon fill="#181818" points="262.6,408.6281,261.0361,398.9042,259.8695,404.4395,254.3343,403.273,262.6,408.6281" style="stroke:#181818;stroke-width:1.0;"/><text fill="#000000" font-family="sans-serif" font-size="13" lengthAdjust="spacing" textLength="63" x="251" y="388.145">ready &gt; 0</text></g><!--link inspect_demo___combo_inspectdemo_active_if_ready_gt_0_h653c4e2008e5 to inspect_demo__done--><g id="link_inspect_demo___combo_inspectdemo_active_if_ready_gt_0_h653c4e2008e5_inspect_demo__done"><path d="M274,450.5181 C274,478.6981 274,530.9081 274,561.9681 " fill="none" id="inspect_demo___combo_inspectdemo_active_if_ready_gt_0_h653c4e2008e5-to-inspect_demo__done" style="stroke:#181818;stroke-width:1.0;"/><polygon fill="#181818" points="274,566.8781,278,557.8781,274,561.8781,270,557.8781,274,566.8781" style="stroke:#181818;stroke-width:1.0;"/><text fill="#000000" font-family="sans-serif" font-size="13" lengthAdjust="spacing" textLength="68" x="323.5" y="481.145">ready &gt; -1</text><path d="M279,490.2109 L279,545.2109 L436,545.2109 L436,500.2109 L426,490.2109 L279,490.2109 " fill="#FEFFDD" style="stroke:#181818;stroke-width:0.5;"/><path d="M426,490.2109 L426,500.2109 L436,500.2109 L426,490.2109 " fill="#FEFFDD" style="stroke:#181818;stroke-width:0.5;"/><text fill="#000000" font-family="sans-serif" font-size="13" lengthAdjust="spacing" textLength="48" x="285" y="507.2778">effect {</text><text fill="#000000" font-family="sans-serif" font-size="13" lengthAdjust="spacing" textLength="120" x="301" y="522.4106">ratio = ratio + 1.0;</text><text fill="#000000" font-family="sans-serif" font-size="13" lengthAdjust="spacing" textLength="8" x="285" y="537.5435">}</text></g><ellipse cx="226" cy="152.7813" fill="#181818" rx="10" ry="10" style="stroke:none;stroke-width:1.0;"/><ellipse cx="226" cy="687.7813" fill="none" rx="10" ry="10" style="stroke:#181818;stroke-width:1.0;"/><ellipse cx="226.5" cy="688.2813" fill="#181818" rx="6" ry="6" style="stroke:none;stroke-width:1.0;"/><!--link *start* to inspect_demo--><g id="link_*start*_inspect_demo"><path d="M226,163.2313 C226,174.0912 226,193.4713 226,216.8712 " fill="none" id="*start*-to-inspect_demo" style="stroke:#181818;stroke-width:1.0;"/><polygon fill="#181818" points="226,221.5813,230,212.5813,226,216.5813,222,212.5813,226,221.5813" style="stroke:#181818;stroke-width:1.0;"/></g><!--link inspect_demo to *end*--><g id="link_inspect_demo_*end*"><path d="M226,618.0613 C226,640.2713 226,659.3413 226,671.7113 " fill="none" id="inspect_demo-to-*end*" style="stroke:#181818;stroke-width:1.0;"/><polygon fill="#181818" points="226,676.5613,230,667.5613,226,671.5613,222,667.5613,226,676.5613" style="stroke:#181818;stroke-width:1.0;"/></g><!--SRC=[dLHDRzf04BtxLupehHN8O0maJP0QebQHUclLInHPYtTiLgnthFLI2PNyzuxN3YN1e50V_F7Ucuzzi-kLaWXOb6uB4glKgj8fCa5GhPKfXHK5L4uuX3y1m9r8rxcbZP4BqcHlRieADvBcS_YkyfNxPiMsIvLIKLAb7Bu8x_G6Qo5PYVPjgZRBLpBkXzjgFA2K4rgbmNCGQCpHI71KWiRC1RjR-2Mi4akDmEy_jwL_FXZbbD3CSKNO1Jj8kI-75dQWZEDxw56BGcxtsD1Z6xEfK2QP5laRjIDAjB0vxl6hqIYAfgCmcipYyNGQpy9ParUmcSndceJFF8WPvywR_jbbxstlmLGbfkuU2-g1g3Yh_qua0_3Qm7eEqCwazoLrwZSUXII9yCIXz9vCbr0oV2XRKB6a4zgqveuYF0eYgrrTaCcKBJfYs-0Mz5ZJ8nC-9bc5itYoZ8RZgHGI3gR-GIk30qdEeJnL-B6Pu1p2fukAgopnaKdkaZ1PJU8e7UCe36SOdstXyUCJzFlpqwvt4HqHbzfo3St81wtJ7RKkJNdSrByvlwVUVwpjdElNi1_bHOixb_EujtPnBwNwGr_B4EyhCi3JNdi0iunZsZDNNys1lcsVd_X0Xvyz-Tpe-PzK9-5VLDSE2LwTwvfbrLy0]--></g></svg>