<?xml version="1.0" encoding="us-ascii" standalone="no"?><svg xmlns="http://www.w3.org/2000/svg" xmlns:xlink="http://www.w3.org/1999/xlink" contentStyleType="text/css" height="523px" preserveAspectRatio="none" style="width:1151px;height:523px;background:#FFFFFF;" version="1.1" viewBox="0 0 1151 523" width="1151px" zoomAndPan="magnify"><defs/><g><!--cluster Input Layer--><g id="cluster_Input Layer"><path d="M8.5,6 L98.5,6 A3.75,3.75 0 0 1 101,8.5 L108,28.2969 L643.5,28.2969 A2.5,2.5 0 0 1 646,30.7969 L646,100.5 A2.5,2.5 0 0 1 643.5,103 L8.5,103 A2.5,2.5 0 0 1 6,100.5 L6,8.5 A2.5,2.5 0 0 1 8.5,6 " fill="none" style="stroke:#000000;stroke-width:1.5;"/><line style="stroke:#000000;stroke-width:1.5;" x1="6" x2="108" y1="28.2969" y2="28.2969"/><text fill="#000000" font-family="sans-serif" font-size="14" font-weight="bold" lengthAdjust="spacing" textLength="89" x="10" y="20.9951">Input Layer</text></g><!--cluster Processing Layer--><g id="cluster_Processing Layer"><path d="M68.5,152 L206.5,152 A3.75,3.75 0 0 1 209,154.5 L216,174.2969 L457.5,174.2969 A2.5,2.5 0 0 1 460,176.7969 L460,513.5 A2.5,2.5 0 0 1 457.5,516 L68.5,516 A2.5,2.5 0 0 1 66,513.5 L66,154.5 A2.5,2.5 0 0 1 68.5,152 " fill="none" style="stroke:#000000;stroke-width:1.5;"/><line style="stroke:#000000;stroke-width:1.5;" x1="66" x2="216" y1="174.2969" y2="174.2969"/><text fill="#000000" font-family="sans-serif" font-size="14" font-weight="bold" lengthAdjust="spacing" textLength="137" x="70" y="166.9951">Processing Layer</text></g><!--cluster Output Layer--><g id="cluster_Output Layer"><path d="M486.5,419 L590.5,419 A3.75,3.75 0 0 1 593,421.5 L600,441.2969 L1141.5,441.2969 A2.5,2.5 0 0 1 1144,443.7969 L1144,513.5 A2.5,2.5 0 0 1 1141.5,516 L486.5,516 A2.5,2.5 0 0 1 484,513.5 L484,421.5 A2.5,2.5 0 0 1 486.5,419 " fill="none" style="stroke:#000000;stroke-width:1.5;"/><line style="stroke:#000000;stroke-width:1.5;" x1="484" x2="600" y1="441.2969" y2="441.2969"/><text fill="#000000" font-family="sans-serif" font-size="14" font-weight="bold" lengthAdjust="spacing" textLength="103" x="488" y="433.9951">Output Layer</text></g><!--entity dsl--><g id="elem_dsl"><rect fill="#F1F1F1" height="46.2969" rx="2.5" ry="2.5" style="stroke:#181818;stroke-width:0.5;" width="238" x="22" y="41"/><rect fill="#F1F1F1" height="10" style="stroke:#181818;stroke-width:0.5;" width="15" x="240" y="46"/><rect fill="#F1F1F1" height="2" style="stroke:#181818;stroke-width:0.5;" width="4" x="238" y="48"/><rect fill="#F1F1F1" height="2" style="stroke:#181818;stroke-width:0.5;" width="4" x="238" y="52"/><text fill="#000000" font-family="sans-serif" font-size="14" lengthAdjust="spacing" textLength="198" x="37" y="73.9951">State Machine DSL Definition</text></g><!--entity templates--><g id="elem_templates"><rect fill="#F1F1F1" height="46.2969" rx="2.5" ry="2.5" style="stroke:#181818;stroke-width:0.5;" width="140" x="295" y="41"/><rect fill="#F1F1F1" height="10" style="stroke:#181818;stroke-width:0.5;" width="15" x="415" y="46"/><rect fill="#F1F1F1" height="2" style="stroke:#181818;stroke-width:0.5;" width="4" x="413" y="48"/><rect fill="#F1F1F1" height="2" style="stroke:#181818;stroke-width:0.5;" width="4" x="413" y="52"/><text fill="#000000" font-family="sans-serif" font-size="14" lengthAdjust="spacing" textLength="100" x="310" y="73.9951">Template Files</text></g><!--entity config--><g id="elem_config"><rect fill="#F1F1F1" height="46.2969" rx="2.5" ry="2.5" style="stroke:#181818;stroke-width:0.5;" width="159" x="470.5" y="41"/><rect fill="#F1F1F1" height="10" style="stroke:#181818;stroke-width:0.5;" width="15" x="609.5" y="46"/><rect fill="#F1F1F1" height="2" style="stroke:#181818;stroke-width:0.5;" width="4" x="607.5" y="48"/><rect fill="#F1F1F1" height="2" style="stroke:#181818;stroke-width:0.5;" width="4" x="607.5" y="52"/><text fill="#000000" font-family="sans-serif" font-size="14" lengthAdjust="spacing" textLength="119" x="485.5" y="73.9951">Configuration File</text></g><!--entity parser--><g id="elem_parser"><rect fill="#F1F1F1" height="46.2969" rx="2.5" ry="2.5" style="stroke:#181818;stroke-width:0.5;" width="84" x="139" y="187"/><rect fill="#F1F1F1" height="10" style="stroke:#181818;stroke-width:0.5;" width="15" x="203" y="192"/><rect fill="#F1F1F1" height="2" style="stroke:#181818;stroke-width:0.5;" width="4" x="201" y="194"/><rect fill="#F1F1F1" height="2" style="stroke:#181818;stroke-width:0.5;" width="4" x="201" y="198"/><text fill="#000000" font-family="sans-serif" font-size="14" lengthAdjust="spacing" textLength="44" x="154" y="219.9951">Parser</text></g><!--entity engine--><g id="elem_engine"><rect fill="#F1F1F1" height="46.2969" rx="2.5" ry="2.5" style="stroke:#181818;stroke-width:0.5;" width="157" x="286.5" y="310"/><rect fill="#F1F1F1" height="10" style="stroke:#181818;stroke-width:0.5;" width="15" x="423.5" y="315"/><rect fill="#F1F1F1" height="2" style="stroke:#181818;stroke-width:0.5;" width="4" x="421.5" y="317"/><rect fill="#F1F1F1" height="2" style="stroke:#181818;stroke-width:0.5;" width="4" x="421.5" y="321"/><text fill="#000000" font-family="sans-serif" font-size="14" lengthAdjust="spacing" textLength="117" x="301.5" y="342.9951">Template Engine</text></g><!--entity expr--><g id="elem_expr"><rect fill="#F1F1F1" height="46.2969" rx="2.5" ry="2.5" style="stroke:#181818;stroke-width:0.5;" width="185" x="145.5" y="454"/><rect fill="#F1F1F1" height="10" style="stroke:#181818;stroke-width:0.5;" width="15" x="310.5" y="459"/><rect fill="#F1F1F1" height="2" style="stroke:#181818;stroke-width:0.5;" width="4" x="308.5" y="461"/><rect fill="#F1F1F1" height="2" style="stroke:#181818;stroke-width:0.5;" width="4" x="308.5" y="465"/><text fill="#000000" font-family="sans-serif" font-size="14" lengthAdjust="spacing" textLength="145" x="160.5" y="486.9951">Expression Renderer</text></g><!--entity output_c--><g id="elem_output_c"><rect fill="#F1F1F1" height="46.2969" rx="2.5" ry="2.5" style="stroke:#181818;stroke-width:0.5;" width="169" x="500.5" y="454"/><rect fill="#F1F1F1" height="10" style="stroke:#181818;stroke-width:0.5;" width="15" x="649.5" y="459"/><rect fill="#F1F1F1" height="2" style="stroke:#181818;stroke-width:0.5;" width="4" x="647.5" y="461"/><rect fill="#F1F1F1" height="2" style="stroke:#181818;stroke-width:0.5;" width="4" x="647.5" y="465"/><text fill="#000000" font-family="sans-serif" font-size="14" lengthAdjust="spacing" textLength="129" x="515.5" y="486.9951">Generated C Code</text></g><!--entity output_h--><g id="elem_output_h"><rect fill="#F1F1F1" height="46.2969" rx="2.5" ry="2.5" style="stroke:#181818;stroke-width:0.5;" width="203" x="704.5" y="454"/><rect fill="#F1F1F1" height="10" style="stroke:#181818;stroke-width:0.5;" width="15" x="887.5" y="459"/><rect fill="#F1F1F1" height="2" style="stroke:#181818;stroke-width:0.5;" width="4" x="885.5" y="461"/><rect fill="#F1F1F1" height="2" style="stroke:#181818;stroke-width:0.5;" width="4" x="885.5" y="465"/><text fill="#000000" font-family="sans-serif" font-size="14" lengthAdjust="spacing" textLength="163" x="719.5" y="486.9951">Generated Header Files</text></g><!--entity output_other--><g id="elem_output_other"><rect fill="#F1F1F1" height="46.2969" rx="2.5" ry="2.5" style="stroke:#181818;stroke-width:0.5;" width="185" x="942.5" y="454"/><rect fill="#F1F1F1" height="10" style="stroke:#181818;stroke-width:0.5;" width="15" x="1107.5" y="459"/><rect fill="#F1F1F1" height="2" style="stroke:#181818;stroke-width:0.5;" width="4" x="1105.5" y="461"/><rect fill="#F1F1F1" height="2" style="stroke:#181818;stroke-width:0.5;" width="4" x="1105.5" y="465"/><text fill="#000000" font-family="sans-serif" font-size="14" lengthAdjust="spacing" textLength="145" x="957.5" y="486.9951">Other Resource Files</text></g><!--link dsl to parser--><g id="link_dsl_parser"><path d="M147.25,87.5 C154.27,112.76 165.66,153.76 173.24,181.05 " fill="none" id="dsl-to-parser" style="stroke:#181818;stroke-width:1.0;"/><polygon fill="#181818" points="174.79,185.66,176.2248,175.9162,173.4466,180.8438,168.519,178.0656,174.79,185.66" style="stroke:#181818;stroke-width:1.0;"/><text fill="#000000" font-family="sans-serif" font-size="13" lengthAdjust="spacing" textLength="132" x="161" y="132.0669">Parse State Machine</text></g><!--link templates to engine--><g id="link_templates_engine"><path d="M365,87.31 C365,135.7 365,250.27 365,303.68 " fill="none" id="templates-to-engine" style="stroke:#181818;stroke-width:1.0;"/><polygon fill="#181818" points="365,308.57,369,299.57,365,303.57,361,299.57,365,308.57" style="stroke:#181818;stroke-width:1.0;"/><text fill="#000000" font-family="sans-serif" font-size="13" lengthAdjust="spacing" textLength="102" x="366" y="214.5669">Load Templates</text></g><!--link config to engine--><g id="link_config_engine"><path d="M543.76,87.26 C533.57,121.02 511.02,186.18 477,233 C456.19,261.64 425.76,287.86 401.87,306.12 " fill="none" id="config-to-engine" style="stroke:#181818;stroke-width:1.0;"/><polygon fill="#181818" points="398.18,309.66,407.7711,307.4216,402.168,306.644,402.9455,301.0409,398.18,309.66" style="stroke:#181818;stroke-width:1.0;"/><text fill="#000000" font-family="sans-serif" font-size="13" lengthAdjust="spacing" textLength="129" x="524" y="214.5669">Configure Rendering</text></g><!--link parser to engine--><g id="link_parser_engine"><path d="M182.85,233.31 C185.23,248.35 190.65,267.63 203,280 C223.74,300.78 252.78,313.26 280.57,320.75 " fill="none" id="parser-to-engine" style="stroke:#181818;stroke-width:1.0;"/><polygon fill="#181818" points="285.1,322.19,277.3768,316.0783,280.2569,320.9471,275.3882,323.8272,285.1,322.19" style="stroke:#181818;stroke-width:1.0;"/><text fill="#000000" font-family="sans-serif" font-size="13" lengthAdjust="spacing" textLength="134" x="204" y="276.0669">State Machine Model</text></g><!--link engine to expr--><g id="link_engine_expr"><path d="M286.24,339.66 C220.95,346.18 135.49,359.6 114,386 C92.31,412.64 124.06,435.31 160.86,451.23 " fill="none" id="engine-to-expr" style="stroke:#181818;stroke-width:1.0;"/><polygon fill="#181818" points="165.32,453.53,158.5855,446.3435,160.714,451.5846,155.4728,453.7131,165.32,453.53" style="stroke:#181818;stroke-width:1.0;"/><text fill="#000000" font-family="sans-serif" font-size="13" lengthAdjust="spacing" textLength="142" x="115" y="399.0669">Expression Processing</text></g><!--link expr to engine--><g id="link_expr_engine"><path d="M257.7,453.97 C280.29,428.71 317.3,387.34 341.4,360.38 " fill="none" id="expr-to-engine" style="stroke:#181818;stroke-width:1.0;"/><polygon fill="#181818" points="344.16,357.19,335.1824,361.2401,340.8302,360.9199,341.1503,366.5677,344.16,357.19" style="stroke:#181818;stroke-width:1.0;"/><text fill="#000000" font-family="sans-serif" font-size="13" lengthAdjust="spacing" textLength="141" x="318" y="399.0669">Rendered Expressions</text></g><!--link engine to output_c--><g id="link_engine_output_c"><path d="M413.98,356.38 C431.43,364.96 450.96,375.28 468,386 C498.91,405.45 531.66,431.13 554.63,450.08 " fill="none" id="engine-to-output_c" style="stroke:#181818;stroke-width:1.0;"/><polygon fill="#181818" points="558.08,453.78,553.7041,444.9567,554.2307,450.5889,548.5984,451.1155,558.08,453.78" style="stroke:#181818;stroke-width:1.0;"/><text fill="#000000" font-family="sans-serif" font-size="13" lengthAdjust="spacing" textLength="97" x="492" y="399.0669">Generate Code</text></g><!--link engine to output_h--><g id="link_engine_output_h"><path d="M443.83,345.94 C510.33,357.62 607.15,378.47 687,411 C713.96,421.98 742.63,437.52 765.08,450.65 " fill="none" id="engine-to-output_h" style="stroke:#181818;stroke-width:1.0;"/><polygon fill="#181818" points="769.07,453.58,763.3279,445.5782,764.7563,451.0518,759.2827,452.4801,769.07,453.58" style="stroke:#181818;stroke-width:1.0;"/><text fill="#000000" font-family="sans-serif" font-size="13" lengthAdjust="spacing" textLength="118" x="662" y="399.0669">Generate Headers</text></g><!--link engine to output_other--><g id="link_engine_output_other"><path d="M443.71,334.05 C554.55,336.5 761.38,349.83 925,411 C951.16,420.78 978.2,436.66 998.92,450.28 " fill="none" id="engine-to-output_other" style="stroke:#181818;stroke-width:1.0;"/><polygon fill="#181818" points="1002.78,453.51,997.4972,445.1978,998.6154,450.7431,993.0701,451.8613,1002.78,453.51" style="stroke:#181818;stroke-width:1.0;"/><text fill="#000000" font-family="sans-serif" font-size="13" lengthAdjust="spacing" textLength="127" x="897" y="399.0669">Copy Resource Files</text></g><!--SRC=[RP7FRiCW38VlF8NLUrzWXrtIxe-KgbNRspHDABW9QWO8YBHgshlFEAGBNM-8tsTZVpZPd6MBi7WrReXGomlw1NmBWBT3b15X8vjE6uJLeOOLdhJHKLlp3ZA02dtYZlZf-eG-wHu39p5VXPHNrfnqEtYP2XbYfk5hyIE4csROUTjW2DgqnI0xwGDwBd9yB5vTcvRcunJvcDBrb_Ef4psuHwFGvtga- -B9xH1lztv6WpGiAgYWicfiRPdxQ4hW1INrdYsUiIvXszXHjiTW1z_WVyYcF0r37c6vVCpBmGFmmb3u5rUbZ8wR4bfRgU1urJrABP79FsOLf5Vafmgk_EyDRTwB7397weYQcVtxBi5XqIrhLxE2C6yt2ILqyicsxp3Td1cLtsl5FdbVTxdH_Wi0]--></g></svg>