<svg xmlns="http://www.w3.org/2000/svg" xmlns:xlink="http://www.w3.org/1999/xlink" contentStyleType="text/css" data-diagram-type="ACTIVITY" height="1003px" preserveAspectRatio="none" style="width:568px;height:1003px;background:#FFFFFF;" version="1.1" viewBox="0 0 568 1003" width="568px" zoomAndPan="magnify"><defs/><g><ellipse cx="191.4534" cy="20" fill="#222222" rx="10" ry="10" style="stroke:#222222;stroke-width:1;"/><rect fill="#F1F1F1" height="33.9688" rx="12.5" ry="12.5" style="stroke:#181818;stroke-width:0.5;" width="164.7441" x="109.0813" y="50"/><text fill="#000000" font-family="sans-serif" font-size="12" lengthAdjust="spacing" textLength="144.7441" x="119.0813" y="71.1387">Load template directory</text><rect fill="#F1F1F1" height="33.9688" rx="12.5" ry="12.5" style="stroke:#181818;stroke-width:0.5;" width="124.5195" x="129.1936" y="103.9688"/><text fill="#000000" font-family="sans-serif" font-size="12" lengthAdjust="spacing" textLength="104.5195" x="139.1936" y="125.1074">Read config.yaml</text><rect fill="#F1F1F1" height="33.9688" rx="12.5" ry="12.5" style="stroke:#181818;stroke-width:0.5;" width="173.75" x="104.5784" y="157.9375"/><text fill="#000000" font-family="sans-serif" font-size="12" lengthAdjust="spacing" textLength="153.75" x="114.5784" y="179.0762">Parse configuration items</text><rect fill="none" height="244.1719" style="stroke:#000000;stroke-width:1.5;" width="197.2539" x="92.8264" y="201.9063"/><path d="M234.4524,201.9063 L234.4524,211.2031 L224.4524,221.2031 L92.8264,221.2031" fill="none" style="stroke:#000000;stroke-width:1.5;"/><text fill="#000000" font-family="sans-serif" font-size="14" lengthAdjust="spacing" textLength="131.626" x="95.8264" y="215.9014">Initialization Phase</text><rect fill="#F1F1F1" height="33.9688" rx="12.5" ry="12.5" style="stroke:#181818;stroke-width:0.5;" width="177.2539" x="102.8264" y="238.2031"/><text fill="#000000" font-family="sans-serif" font-size="12" lengthAdjust="spacing" textLength="157.2539" x="112.8264" y="259.3418">Create Jinja2 environment</text><rect fill="#F1F1F1" height="33.9688" rx="12.5" ry="12.5" style="stroke:#181818;stroke-width:0.5;" width="169.4434" x="106.7317" y="292.1719"/><text fill="#000000" font-family="sans-serif" font-size="12" lengthAdjust="spacing" textLength="149.4434" x="116.7317" y="313.3105">Register global functions</text><rect fill="#F1F1F1" height="33.9688" rx="12.5" ry="12.5" style="stroke:#181818;stroke-width:0.5;" width="107.9258" x="137.4905" y="346.1406"/><text fill="#000000" font-family="sans-serif" font-size="12" lengthAdjust="spacing" textLength="87.9258" x="147.4905" y="367.2793">Register filters</text><rect fill="#F1F1F1" height="33.9688" rx="12.5" ry="12.5" style="stroke:#181818;stroke-width:0.5;" width="147.5645" x="117.6711" y="400.1094"/><text fill="#000000" font-family="sans-serif" font-size="12" lengthAdjust="spacing" textLength="127.5645" x="127.6711" y="421.248">Set expression styles</text><rect fill="none" height="440.1094" style="stroke:#000000;stroke-width:1.5;" width="546.4531" x="11" y="456.0781"/><path d="M171.459,456.0781 L171.459,465.375 L161.459,475.375 L11,475.375" fill="none" style="stroke:#000000;stroke-width:1.5;"/><text fill="#000000" font-family="sans-serif" font-size="14" lengthAdjust="spacing" textLength="150.459" x="14" y="470.0732">File Processing Phase</text><rect fill="#F1F1F1" height="33.9688" rx="12.5" ry="12.5" style="stroke:#181818;stroke-width:0.5;" width="249.3477" x="66.7795" y="492.375"/><text fill="#000000" font-family="sans-serif" font-size="12" lengthAdjust="spacing" textLength="229.3477" x="76.7795" y="513.5137">Traverse all files in template directory</text><polygon fill="#F1F1F1" points="143.0786,546.3438,239.8281,546.3438,251.8281,558.3438,239.8281,570.3438,143.0786,570.3438,131.0786,558.3438,143.0786,546.3438" style="stroke:#181818;stroke-width:0.5;"/><text fill="#000000" font-family="sans-serif" font-size="11" lengthAdjust="spacing" textLength="96.7495" x="143.0786" y="562.1519">File in ignore list?</text><text fill="#000000" font-family="sans-serif" font-size="11" lengthAdjust="spacing" textLength="19.0083" x="112.0703" y="555.7495">yes</text><text fill="#000000" font-family="sans-serif" font-size="11" lengthAdjust="spacing" textLength="13.7017" x="251.8281" y="555.7495">no</text><rect fill="#F1F1F1" height="33.9688" rx="12.5" ry="12.5" style="stroke:#181818;stroke-width:0.5;" width="67.6074" x="23" y="580.3438"/><text fill="#000000" font-family="sans-serif" font-size="12" lengthAdjust="spacing" textLength="47.6074" x="33" y="601.4824">Skip file</text><polygon fill="#F1F1F1" points="273.4717,580.3438,378.7344,580.3438,390.7344,592.3438,378.7344,604.3438,273.4717,604.3438,261.4717,592.3438,273.4717,580.3438" style="stroke:#181818;stroke-width:0.5;"/><text fill="#000000" font-family="sans-serif" font-size="11" lengthAdjust="spacing" textLength="105.2627" x="273.4717" y="596.1519">Is .j2 template file?</text><text fill="#000000" font-family="sans-serif" font-size="11" lengthAdjust="spacing" textLength="19.0083" x="242.4634" y="589.7495">yes</text><text fill="#000000" font-family="sans-serif" font-size="11" lengthAdjust="spacing" textLength="95.8042" x="390.7344" y="589.7495">Non-template file</text><rect fill="#F1F1F1" height="33.9688" rx="12.5" ry="12.5" style="stroke:#181818;stroke-width:0.5;" width="156.7402" x="136.5215" y="614.3438"/><text fill="#000000" font-family="sans-serif" font-size="12" lengthAdjust="spacing" textLength="136.7402" x="146.5215" y="635.4824">Load template content</text><rect fill="#F1F1F1" height="33.9688" rx="12.5" ry="12.5" style="stroke:#181818;stroke-width:0.5;" width="177.5645" x="126.1094" y="668.3125"/><text fill="#000000" font-family="sans-serif" font-size="12" lengthAdjust="spacing" textLength="157.5645" x="136.1094" y="689.4512">Bind state machine model</text><rect fill="#F1F1F1" height="33.9688" rx="12.5" ry="12.5" style="stroke:#181818;stroke-width:0.5;" width="188.5684" x="120.6074" y="722.2813"/><text fill="#000000" font-family="sans-serif" font-size="12" lengthAdjust="spacing" textLength="168.5684" x="130.6074" y="743.4199">Execute template rendering</text><rect fill="#F1F1F1" height="47.9375" rx="12.5" ry="12.5" style="stroke:#181818;stroke-width:0.5;" width="156.3184" x="136.7324" y="776.25"/><text fill="#000000" font-family="sans-serif" font-size="12" lengthAdjust="spacing" textLength="97.7051" x="146.7324" y="797.3887">Write output file</text><text fill="#000000" font-family="sans-serif" font-size="12" lengthAdjust="spacing" textLength="136.3184" x="146.7324" y="811.3574">(remove .j2 extension)</text><rect fill="#F1F1F1" height="33.9688" rx="12.5" ry="12.5" style="stroke:#181818;stroke-width:0.5;" width="216.2773" x="329.1758" y="614.3438"/><text fill="#000000" font-family="sans-serif" font-size="12" lengthAdjust="spacing" textLength="196.2773" x="339.1758" y="635.4824">Copy directly to output directory</text><polygon fill="#F1F1F1" points="326.103,830.1875,338.103,842.1875,326.103,854.1875,314.103,842.1875,326.103,830.1875" style="stroke:#181818;stroke-width:0.5;"/><polygon fill="#F1F1F1" points="191.4534,860.1875,203.4534,872.1875,191.4534,884.1875,179.4534,872.1875,191.4534,860.1875" style="stroke:#181818;stroke-width:0.5;"/><rect fill="#F1F1F1" height="33.9688" rx="12.5" ry="12.5" style="stroke:#181818;stroke-width:0.5;" width="186.5059" x="98.2004" y="916.1875"/><text fill="#000000" font-family="sans-serif" font-size="12" lengthAdjust="spacing" textLength="166.5059" x="108.2004" y="937.3262">Complete all file processing</text><ellipse cx="191.4534" cy="981.1563" fill="none" rx="11" ry="11" style="stroke:#222222;stroke-width:1;"/><ellipse cx="191.4534" cy="981.1563" fill="#222222" rx="6" ry="6" style="stroke:#222222;stroke-width:1;"/><line style="stroke:#181818;stroke-width:1;" x1="191.4534" x2="191.4534" y1="30" y2="50"/><polygon fill="#181818" points="187.4534,40,191.4534,50,195.4534,40,191.4534,44" style="stroke:#181818;stroke-width:1;"/><line style="stroke:#181818;stroke-width:1;" x1="191.4534" x2="191.4534" y1="83.9688" y2="103.9688"/><polygon fill="#181818" points="187.4534,93.9688,191.4534,103.9688,195.4534,93.9688,191.4534,97.9688" style="stroke:#181818;stroke-width:1;"/><line style="stroke:#181818;stroke-width:1;" x1="191.4534" x2="191.4534" y1="137.9375" y2="157.9375"/><polygon fill="#181818" points="187.4534,147.9375,191.4534,157.9375,195.4534,147.9375,191.4534,151.9375" style="stroke:#181818;stroke-width:1;"/><line style="stroke:#181818;stroke-width:1;" x1="191.4534" x2="191.4534" y1="272.1719" y2="292.1719"/><polygon fill="#181818" points="187.4534,282.1719,191.4534,292.1719,195.4534,282.1719,191.4534,286.1719" style="stroke:#181818;stroke-width:1;"/><line style="stroke:#181818;stroke-width:1;" x1="191.4534" x2="191.4534" y1="326.1406" y2="346.1406"/><polygon fill="#181818" points="187.4534,336.1406,191.4534,346.1406,195.4534,336.1406,191.4534,340.1406" style="stroke:#181818;stroke-width:1;"/><line style="stroke:#181818;stroke-width:1;" x1="191.4534" x2="191.4534" y1="380.1094" y2="400.1094"/><polygon fill="#181818" points="187.4534,390.1094,191.4534,400.1094,195.4534,390.1094,191.4534,394.1094" style="stroke:#181818;stroke-width:1;"/><line style="stroke:#181818;stroke-width:1;" x1="191.4534" x2="191.4534" y1="191.9063" y2="238.2031"/><polygon fill="#181818" points="187.4534,228.2031,191.4534,238.2031,195.4534,228.2031,191.4534,232.2031" style="stroke:#181818;stroke-width:1;"/><line style="stroke:#181818;stroke-width:1;" x1="214.8916" x2="214.8916" y1="648.3125" y2="668.3125"/><polygon fill="#181818" points="210.8916,658.3125,214.8916,668.3125,218.8916,658.3125,214.8916,662.3125" style="stroke:#181818;stroke-width:1;"/><line style="stroke:#181818;stroke-width:1;" x1="214.8916" x2="214.8916" y1="702.2813" y2="722.2813"/><polygon fill="#181818" points="210.8916,712.2813,214.8916,722.2813,218.8916,712.2813,214.8916,716.2813" style="stroke:#181818;stroke-width:1;"/><line style="stroke:#181818;stroke-width:1;" x1="214.8916" x2="214.8916" y1="756.25" y2="776.25"/><polygon fill="#181818" points="210.8916,766.25,214.8916,776.25,218.8916,766.25,214.8916,770.25" style="stroke:#181818;stroke-width:1;"/><line style="stroke:#181818;stroke-width:1;" x1="261.4717" x2="214.8916" y1="592.3438" y2="592.3438"/><line style="stroke:#181818;stroke-width:1;" x1="214.8916" x2="214.8916" y1="592.3438" y2="614.3438"/><polygon fill="#181818" points="210.8916,604.3438,214.8916,614.3438,218.8916,604.3438,214.8916,608.3438" style="stroke:#181818;stroke-width:1;"/><line style="stroke:#181818;stroke-width:1;" x1="390.7344" x2="437.3145" y1="592.3438" y2="592.3438"/><line style="stroke:#181818;stroke-width:1;" x1="437.3145" x2="437.3145" y1="592.3438" y2="614.3438"/><polygon fill="#181818" points="433.3145,604.3438,437.3145,614.3438,441.3145,604.3438,437.3145,608.3438" style="stroke:#181818;stroke-width:1;"/><line style="stroke:#181818;stroke-width:1;" x1="214.8916" x2="214.8916" y1="824.1875" y2="842.1875"/><line style="stroke:#181818;stroke-width:1;" x1="214.8916" x2="314.103" y1="842.1875" y2="842.1875"/><polygon fill="#181818" points="304.103,838.1875,314.103,842.1875,304.103,846.1875,308.103,842.1875" style="stroke:#181818;stroke-width:1;"/><line style="stroke:#181818;stroke-width:1;" x1="437.3145" x2="437.3145" y1="648.3125" y2="842.1875"/><line style="stroke:#181818;stroke-width:1;" x1="437.3145" x2="338.103" y1="842.1875" y2="842.1875"/><polygon fill="#181818" points="348.103,838.1875,338.103,842.1875,348.103,846.1875,344.103,842.1875" style="stroke:#181818;stroke-width:1;"/><line style="stroke:#181818;stroke-width:1;" x1="131.0786" x2="56.8037" y1="558.3438" y2="558.3438"/><line style="stroke:#181818;stroke-width:1;" x1="56.8037" x2="56.8037" y1="558.3438" y2="580.3438"/><polygon fill="#181818" points="52.8037,570.3438,56.8037,580.3438,60.8037,570.3438,56.8037,574.3438" style="stroke:#181818;stroke-width:1;"/><line style="stroke:#181818;stroke-width:1;" x1="251.8281" x2="326.103" y1="558.3438" y2="558.3438"/><line style="stroke:#181818;stroke-width:1;" x1="326.103" x2="326.103" y1="558.3438" y2="580.3438"/><polygon fill="#181818" points="322.103,570.3438,326.103,580.3438,330.103,570.3438,326.103,574.3438" style="stroke:#181818;stroke-width:1;"/><line style="stroke:#181818;stroke-width:1;" x1="56.8037" x2="56.8037" y1="614.3125" y2="872.1875"/><line style="stroke:#181818;stroke-width:1;" x1="56.8037" x2="179.4534" y1="872.1875" y2="872.1875"/><polygon fill="#181818" points="169.4534,868.1875,179.4534,872.1875,169.4534,876.1875,173.4534,872.1875" style="stroke:#181818;stroke-width:1;"/><line style="stroke:#181818;stroke-width:1;" x1="326.103" x2="326.103" y1="854.1875" y2="872.1875"/><line style="stroke:#181818;stroke-width:1;" x1="326.103" x2="203.4534" y1="872.1875" y2="872.1875"/><polygon fill="#181818" points="213.4534,868.1875,203.4534,872.1875,213.4534,876.1875,209.4534,872.1875" style="stroke:#181818;stroke-width:1;"/><line style="stroke:#181818;stroke-width:1;" x1="191.4534" x2="191.4534" y1="526.3438" y2="546.3438"/><polygon fill="#181818" points="187.4534,536.3438,191.4534,546.3438,195.4534,536.3438,191.4534,540.3438" style="stroke:#181818;stroke-width:1;"/><line style="stroke:#181818;stroke-width:1;" x1="191.4534" x2="191.4534" y1="434.0781" y2="492.375"/><polygon fill="#181818" points="187.4534,482.375,191.4534,492.375,195.4534,482.375,191.4534,486.375" style="stroke:#181818;stroke-width:1;"/><line style="stroke:#181818;stroke-width:1;" x1="191.4534" x2="191.4534" y1="884.1875" y2="916.1875"/><polygon fill="#181818" points="187.4534,906.1875,191.4534,916.1875,195.4534,906.1875,191.4534,910.1875" style="stroke:#181818;stroke-width:1;"/><line style="stroke:#181818;stroke-width:1;" x1="191.4534" x2="191.4534" y1="950.1563" y2="970.1563"/><polygon fill="#181818" points="187.4534,960.1563,191.4534,970.1563,195.4534,960.1563,191.4534,964.1563" style="stroke:#181818;stroke-width:1;"/><!--SRC=[RL6nJiD03Dtp5LQdT82XOpCWKO5KX51La5XOZiH9NIw-wCwf6X3_ZYzfKoAOVF9xz_py7CHuIPBbepC52DQDDO9GaCTSdE-oPBb5HNB79LNNdQcjjZR61pprMc-470Ffvv0bIQDwr7TcQzQ7iVGvC3Ox4t06Nmd0SkKnpdaWtfi581_8EwwH9Ole5YiAWXugwzwDXRBbF4g4ALgIrJ8qdr40Zut74EAi89r5HRudXkx98coyooEBgucZ5syE6DSoraPb343yRoBAfXBINamfLB7p25OztSn1TiYGTXZcIek-FgZfvQ9BjAgViXkmAB8ESBrVNCP4vbyLrPdUHwENKrWzUajSwCuHgas-8zRg2hGZuUw8UQlegE2H2_GQmaXvzNf2SAqqhVG-tZZrMBi3zXRng1DZjlFXnx3Ba-EhYVdHyCertIarsu6ui_Al87iPBgXCpbNFfHzL3kLo26Z6YsL94DVy0000]--></g></svg>