<svg xmlns="http://www.w3.org/2000/svg" xmlns:xlink="http://www.w3.org/1999/xlink" version="1.1" data-diagram-type="DESCRIPTION" style="width:1919px;height:1032px;background:#FFFFFF;" width="1919px" height="1032px" viewBox="0 0 1919 1032" zoomAndPan="magnify" preserveAspectRatio="none" contentStyleType="text/css"><?plantuml 1.2026.7beta6?><defs/><g font-family="sans-serif" lengthAdjust="spacing"><!--cluster Model consumers--><g class="cluster" data-qualified-name="Model consumers" id="ent0006" data-source-line="20"><path d="M154.97,638.18 L294.213,638.18 A3.75,3.75 0 0 1 296.713,640.68 L303.713,660.477 L915.97,660.477 A2.5,2.5 0 0 1 918.47,662.977 L918.47,862.56 A2.5,2.5 0 0 1 915.97,865.06 L154.97,865.06 A2.5,2.5 0 0 1 152.47,862.56 L152.47,640.68 A2.5,2.5 0 0 1 154.97,638.18" style="stroke:#000;stroke-width:1.5;" fill="none"/><line x1="152.47" y1="660.477" x2="303.713" y2="660.477" style="stroke:#000;stroke-width:1.5;"/><text x="156.47" y="653.175" fill="#000" font-size="14" textLength="138.243" font-weight="700">Model consumers</text></g><!--cluster Template assets--><g class="cluster" data-qualified-name="Template assets" id="ent0012" data-source-line="28"><path d="M191.97,343.99 L322.566,343.99 A3.75,3.75 0 0 1 325.066,346.49 L332.066,366.287 L392.97,366.287 A2.5,2.5 0 0 1 395.47,368.787 L395.47,586.68 A2.5,2.5 0 0 1 392.97,589.18 L191.97,589.18 A2.5,2.5 0 0 1 189.47,586.68 L189.47,346.49 A2.5,2.5 0 0 1 191.97,343.99" style="stroke:#000;stroke-width:1.5;" fill="none"/><line x1="189.47" y1="366.287" x2="332.066" y2="366.287" style="stroke:#000;stroke-width:1.5;"/><text x="193.47" y="358.985" fill="#000" font-size="14" textLength="129.596" font-weight="700">Template assets</text></g><!--entity inspect--><g class="entity" data-qualified-name="Model consumers.inspect" id="ent0007" data-source-line="21"><rect x="554.11" y="673.18" width="170.719" height="68.891" fill="#FFF8E1" style="stroke:#181818;stroke-width:0.5;" rx="2.5" ry="2.5"/><text x="564.11" y="696.175" fill="#000" font-size="14" textLength="150.719">inspect + diagnostics</text><text x="564.11" y="712.472" fill="#000" font-size="14" textLength="140.014">pyfcstm.diagnostics</text><text x="564.11" y="728.769" fill="#000" font-size="14" textLength="100.427">pyfcstm.verify</text></g><!--entity simulate--><g class="entity" data-qualified-name="Model consumers.simulate" id="ent0008" data-source-line="22"><rect x="750.19" y="681.32" width="152.563" height="52.594" fill="#FFF8E1" style="stroke:#181818;stroke-width:0.5;" rx="2.5" ry="2.5"/><text x="760.19" y="704.315" fill="#000" font-size="14" textLength="132.563">simulation runtime</text><text x="760.19" y="720.612" fill="#000" font-size="14" textLength="120.935">pyfcstm.simulate</text></g><!--entity plantuml--><g class="entity" data-qualified-name="Model consumers.plantuml" id="ent0009" data-source-line="23"><rect x="342.12" y="681.32" width="186.694" height="52.594" fill="#F3E5F5" style="stroke:#181818;stroke-width:0.5;" rx="2.5" ry="2.5"/><text x="352.12" y="704.315" fill="#000" font-size="14" textLength="166.694">PlantUML source export</text><text x="352.12" y="720.612" fill="#000" font-size="14" textLength="131.216">model.to_plantuml</text></g><!--entity visualize--><g class="entity" data-qualified-name="Model consumers.visualize" id="ent0010" data-source-line="24"><rect x="641.87" y="796.47" width="155.194" height="52.594" fill="#F3E5F5" style="stroke:#181818;stroke-width:0.5;" rx="2.5" ry="2.5"/><text x="651.87" y="819.465" fill="#000" font-size="14" textLength="135.194">renderer command</text><text x="651.87" y="835.762" fill="#000" font-size="14" textLength="121.331">pyfcstm visualize</text></g><!--entity render--><g class="entity" data-qualified-name="Model consumers.render" id="ent0011" data-source-line="25"><rect x="168.21" y="681.32" width="148.516" height="52.594" fill="#F3E5F5" style="stroke:#181818;stroke-width:0.5;" rx="2.5" ry="2.5"/><text x="178.21" y="704.315" fill="#000" font-size="14" textLength="128.516">template renderer</text><text x="178.21" y="720.612" fill="#000" font-size="14" textLength="107.167">pyfcstm.render</text></g><!--entity templates--><g class="entity" data-qualified-name="Template assets.templates" id="ent0013" data-source-line="29"><path d="M213.1,378.99 L254.1,378.99 A3.75,3.75 0 0 1 256.6,381.49 L263.6,399.99 L359.841,399.99 A2.5,2.5 0 0 1 362.341,402.49 L362.341,447.084 A2.5,2.5 0 0 1 359.841,449.584 L213.1,449.584 A2.5,2.5 0 0 1 210.6,447.084 L210.6,381.49 A2.5,2.5 0 0 1 213.1,378.99" style="stroke:#181818;stroke-width:0.5;" fill="#E8F5E9"/><line x1="210.6" y1="399.99" x2="263.6" y2="399.99" style="stroke:#181818;stroke-width:0.5;"/><text x="220.6" y="419.985" fill="#000" font-size="14" textLength="121.741">source templates</text><text x="220.6" y="436.282" fill="#000" font-size="14" textLength="75.209">templates/</text></g><!--entity packaged--><g class="entity" data-qualified-name="Template assets.packaged" id="ent0014" data-source-line="30"><path d="M208.38,502.58 L249.38,502.58 A3.75,3.75 0 0 1 251.88,505.08 L258.88,523.58 L376.559,523.58 A2.5,2.5 0 0 1 379.059,526.08 L379.059,570.674 A2.5,2.5 0 0 1 376.559,573.174 L208.38,573.174 A2.5,2.5 0 0 1 205.88,570.674 L205.88,505.08 A2.5,2.5 0 0 1 208.38,502.58" style="stroke:#181818;stroke-width:0.5;" fill="#F3E5F5"/><line x1="205.88" y1="523.58" x2="258.88" y2="523.58" style="stroke:#181818;stroke-width:0.5;"/><text x="215.88" y="543.575" fill="#000" font-size="14" textLength="143.179">packaged templates</text><text x="215.88" y="559.872" fill="#000" font-size="14" textLength="128.851">pyfcstm/template/</text></g><!--entity User--><g class="entity" data-qualified-name="User" id="ent0001" data-source-line="14"><ellipse cx="551.465" cy="14" rx="8" ry="8" fill="#F1F1F1" style="stroke:#181818;stroke-width:0.5;"/><path d="M551.465,22 L551.465,49 M538.465,30 L564.465,30 M551.465,49 L538.465,64 M551.465,49 L564.465,64" style="stroke:#181818;stroke-width:0.5;" fill="none"/><text x="535.51" y="78.495" fill="#000" font-size="14" textLength="31.91">User</text></g><!--entity source--><g class="entity" data-qualified-name="source" id="ent0002" data-source-line="15"><path d="M492.17,137.3 L492.17,184.894 A2.5,2.5 0 0 0 494.67,187.394 L608.265,187.394 A2.5,2.5 0 0 0 610.765,184.894 L610.765,144.8 L600.765,134.8 L494.67,134.8 A2.5,2.5 0 0 0 492.17,137.3" style="stroke:#181818;stroke-width:0.5;" fill="#E8F5E9"/><path d="M600.765,134.8 L600.765,142.3 A2.5,2.5 0 0 0 603.265,144.8 L610.765,144.8" style="stroke:#181818;stroke-width:0.5;" fill="#E8F5E9"/><text x="502.17" y="157.795" fill="#000" font-size="14" textLength="98.595">FCSTM source</text><text x="502.17" y="174.092" fill="#000" font-size="14" textLength="54.421">(.fcstm)</text></g><!--entity parser--><g class="entity" data-qualified-name="parser" id="ent0003" data-source-line="16"><rect x="501.1" y="240.39" width="100.739" height="52.594" fill="#E3F2FD" style="stroke:#181818;stroke-width:0.5;" rx="2.5" ry="2.5"/><text x="511.1" y="263.385" fill="#000" font-size="14" textLength="76.802">DSL parser</text><text x="511.1" y="279.682" fill="#000" font-size="14" textLength="80.739">pyfcstm.dsl</text></g><!--entity ast--><g class="entity" data-qualified-name="ast" id="ent0004" data-source-line="17"><rect x="481.4" y="387.99" width="140.128" height="52.594" fill="#E3F2FD" style="stroke:#181818;stroke-width:0.5;" rx="2.5" ry="2.5"/><text x="491.4" y="410.985" fill="#000" font-size="14" textLength="73.698">AST nodes</text><text x="491.4" y="427.282" fill="#000" font-size="14" textLength="120.128">pyfcstm.dsl.node</text></g><!--entity model--><g class="entity" data-qualified-name="model" id="ent0005" data-source-line="18"><rect x="485.41" y="511.58" width="132.116" height="52.594" fill="#E3F2FD" style="stroke:#181818;stroke-width:0.5;" rx="2.5" ry="2.5"/><text x="495.41" y="534.575" fill="#000" font-size="14" textLength="112.116">semantic model</text><text x="495.41" y="550.872" fill="#000" font-size="14" textLength="104.262">pyfcstm.model</text></g><!--entity external--><g class="entity" data-qualified-name="external" id="ent0015" data-source-line="33"><path d="M857.097,925.557 C859.597,919.323 864.036,919.399 868.319,923.648 C872.143,916.445 877.191,917.287 881.391,923.276 C884.38,915.019 890.602,913.751 895.915,921.117 C899.152,915.202 903.604,914.104 907.802,920.162 C912.652,913.706 917.569,914.924 921.896,920.762 C924.418,915.084 930.228,913.69 934.18,919.191 C937.898,911.848 942.175,911.899 947.678,917.3 C952.73,911.807 958.808,911.835 961.583,919.676 C964.596,913.537 969.412,913.654 973.516,918.491 C978.976,913.812 985.061,914.326 987.587,921.869 C990.314,915.419 995.724,915.41 999.131,921.228 C1003.578,913.461 1010.223,914.813 1014.077,921.828 C1018.615,916.577 1023.897,918.224 1025.447,924.72 C1029.168,919.157 1035.658,919.431 1038.516,925.675 C1044.515,928.65 1045.497,932.455 1040.448,937.271 C1048.33,941.934 1046.208,948.039 1040.04,952.322 C1046.45,954.78 1047.723,960.548 1042.287,965.09 C1047.46,969.45 1047.052,973.67 1041.479,977.321 C1047.697,982.874 1045.99,987.441 1039.083,990.631 C1047.004,996.009 1045.241,1000.552 1038.853,1005.712 C1034.41,1011.293 1030.272,1011.898 1026.207,1005.32 C1021.843,1012.225 1016.745,1011.949 1012.163,1005.549 C1008.547,1011.331 1003.299,1011.623 999.654,1005.578 C997.145,1014.017 991.25,1014.66 985.756,1008.4 C981.925,1012.984 976.219,1013.322 973.549,1007.089 C970.229,1014.093 966.177,1013.096 961.587,1008.385 C958.524,1015.112 953.189,1017.501 947.761,1010.825 C942.425,1016.684 938.554,1014.879 935.537,1008.508 C931.617,1015.13 924.952,1016.075 920.291,1009.356 C915.766,1014.992 911.177,1013.772 908.441,1007.567 C904.716,1014.204 898.44,1014.127 895.399,1006.922 C891.406,1012.981 885.064,1013.685 881.413,1006.56 C877.295,1011.706 872.301,1011.918 868.977,1005.692 C864.882,1012.086 858.675,1010.617 856.168,1004.116 C848.517,1000.998 847.733,996.066 853.082,990.088 C847.239,986.319 845.217,982.481 851.617,977.309 C845.027,975.668 842.905,970.82 848.067,965.612 C842.738,960.319 843.503,954.177 851.101,951.705 C845.826,947.784 847.008,941.558 852.745,939.07 C846.599,933.337 850.374,927.145 857.097,925.557" style="stroke:#181818;stroke-width:0.5;" fill="#FFEBEE"/><text x="861.82" y="944.055" fill="#000" font-size="14" textLength="96.585">External tools</text><text x="861.82" y="960.352" fill="#000" font-size="14" textLength="131.264">Java / PlantUML jar</text><text x="861.82" y="976.649" fill="#000" font-size="14" textLength="169.292">remote PlantUML server</text><text x="861.82" y="992.946" fill="#000" font-size="14" textLength="120.408">C/C++ compilers</text></g><!--entity reports--><g class="entity" data-qualified-name="reports" id="ent0016" data-source-line="34"><path d="M1555.34,798.97 L1555.34,846.564 A2.5,2.5 0 0 0 1557.84,849.064 L1711.097,849.064 A2.5,2.5 0 0 0 1713.597,846.564 L1713.597,806.47 L1703.597,796.47 L1557.84,796.47 A2.5,2.5 0 0 0 1555.34,798.97" style="stroke:#181818;stroke-width:0.5;" fill="#F3E5F5"/><path d="M1703.597,796.47 L1703.597,803.97 A2.5,2.5 0 0 0 1706.097,806.47 L1713.597,806.47" style="stroke:#181818;stroke-width:0.5;" fill="#F3E5F5"/><text x="1565.34" y="819.465" fill="#000" font-size="14" textLength="54.332">Reports</text><text x="1565.34" y="835.762" fill="#000" font-size="14" textLength="138.257">human / JSON / LLM</text></g><!--entity transcript--><g class="entity" data-qualified-name="transcript" id="ent0017" data-source-line="35"><path d="M1738.1,807.12 L1738.1,838.417 A2.5,2.5 0 0 0 1740.6,840.917 L1902.333,840.917 A2.5,2.5 0 0 0 1904.833,838.417 L1904.833,814.62 L1894.833,804.62 L1740.6,804.62 A2.5,2.5 0 0 0 1738.1,807.12" style="stroke:#181818;stroke-width:0.5;" fill="#F3E5F5"/><path d="M1894.833,804.62 L1894.833,812.12 A2.5,2.5 0 0 0 1897.333,814.62 L1904.833,814.62" style="stroke:#181818;stroke-width:0.5;" fill="#F3E5F5"/><text x="1748.1" y="827.615" fill="#000" font-size="14" textLength="146.733">Simulation transcript</text></g><!--entity puml--><g class="entity" data-qualified-name="puml" id="ent0018" data-source-line="36"><path d="M1412.6,798.97 L1412.6,846.564 A2.5,2.5 0 0 0 1415.1,849.064 L1527.827,849.064 A2.5,2.5 0 0 0 1530.327,846.564 L1530.327,806.47 L1520.327,796.47 L1415.1,796.47 A2.5,2.5 0 0 0 1412.6,798.97" style="stroke:#181818;stroke-width:0.5;" fill="#F3E5F5"/><path d="M1520.327,796.47 L1520.327,803.97 A2.5,2.5 0 0 0 1522.827,806.47 L1530.327,806.47" style="stroke:#181818;stroke-width:0.5;" fill="#F3E5F5"/><text x="1422.6" y="819.465" fill="#000" font-size="14" textLength="97.727">PlantUML text</text><text x="1422.6" y="835.762" fill="#000" font-size="14" textLength="50.661">(.puml)</text></g><!--entity diagram--><g class="entity" data-qualified-name="diagram" id="ent0019" data-source-line="37"><path d="M1071.15,939.86 L1071.15,987.454 A2.5,2.5 0 0 0 1073.65,989.954 L1219.285,989.954 A2.5,2.5 0 0 0 1221.785,987.454 L1221.785,947.36 L1211.785,937.36 L1073.65,937.36 A2.5,2.5 0 0 0 1071.15,939.86" style="stroke:#181818;stroke-width:0.5;" fill="#F3E5F5"/><path d="M1211.785,937.36 L1211.785,944.86 A2.5,2.5 0 0 0 1214.285,947.36 L1221.785,947.36" style="stroke:#181818;stroke-width:0.5;" fill="#F3E5F5"/><text x="1081.15" y="960.355" fill="#000" font-size="14" textLength="130.635">Rendered diagram</text><text x="1081.15" y="976.652" fill="#000" font-size="14" textLength="114.399">.png / .svg / .pdf</text></g><!--entity runtime--><g class="entity" data-qualified-name="runtime" id="ent0020" data-source-line="38"><path d="M1233.54,807.12 L1233.54,838.417 A2.5,2.5 0 0 0 1236.04,840.917 L1384.894,840.917 A2.5,2.5 0 0 0 1387.394,838.417 L1387.394,814.62 L1377.394,804.62 L1236.04,804.62 A2.5,2.5 0 0 0 1233.54,807.12" style="stroke:#181818;stroke-width:0.5;" fill="#F3E5F5"/><path d="M1377.394,804.62 L1377.394,812.12 A2.5,2.5 0 0 0 1379.894,814.62 L1387.394,814.62" style="stroke:#181818;stroke-width:0.5;" fill="#F3E5F5"/><text x="1243.54" y="827.615" fill="#000" font-size="14" textLength="133.854">Generated runtime</text></g><g class="entity" data-qualified-name="GMN40" id="ent0041" data-source-line="63"><path d="M642.3,510.18 L642.3,533.88 L617.68,537.88 L642.3,541.88 L642.3,565.578 A0,0 0 0 0 642.3,565.578 L912.623,565.578 A0,0 0 0 0 912.623,565.578 L912.623,520.18 L902.623,510.18 L642.3,510.18 A0,0 0 0 0 642.3,510.18" style="stroke:#181818;stroke-width:0.5;" fill="#FEFFDD"/><path d="M902.623,510.18 L902.623,520.18 L912.623,520.18 L902.623,510.18" style="stroke:#181818;stroke-width:0.5;" fill="#FEFFDD"/><text x="648.3" y="527.247" fill="#000" font-size="13" textLength="208.127">Single semantic source of truth.</text><text x="648.3" y="542.38" fill="#000" font-size="13" textLength="249.323">Downstream tools should not re-parse</text><text x="648.3" y="557.513" fill="#000" font-size="13" textLength="162.481">or invent DSL semantics.</text></g><g class="entity" data-qualified-name="GMN43" id="ent0044" data-source-line="69"><path d="M548.73,935.96 L548.73,991.358 A0,0 0 0 0 548.73,991.358 L822.202,991.358 A0,0 0 0 0 822.202,991.358 L822.202,945.96 L812.202,935.96 L696.01,935.96 L713.23,849.24 L688.01,935.96 L548.73,935.96 A0,0 0 0 0 548.73,935.96" style="stroke:#181818;stroke-width:0.5;" fill="#FEFFDD"/><path d="M812.202,935.96 L812.202,945.96 L822.202,945.96 L812.202,935.96" style="stroke:#181818;stroke-width:0.5;" fill="#FEFFDD"/><text x="554.73" y="953.027" fill="#000" font-size="13" textLength="194.276">plantuml exports source only.</text><text x="554.73" y="968.16" fill="#000" font-size="13" textLength="203.252">visualize adds renderer, cache,</text><text x="554.73" y="983.293" fill="#000" font-size="13" textLength="252.472">viewer, suffix, and privacy boundaries.</text></g><g class="entity" data-qualified-name="GMN46" id="ent0047" data-source-line="75"><path d="M934.39,795.07 L934.39,850.468 L1208.547,850.468 L1208.547,805.07 L1198.547,795.07 L934.39,795.07" style="stroke:#181818;stroke-width:0.5;" fill="#FEFFDD"/><path d="M1198.547,795.07 L1198.547,805.07 L1208.547,805.07 L1198.547,795.07" style="stroke:#181818;stroke-width:1;" fill="#FEFFDD"/><text x="940.39" y="812.137" fill="#000" font-size="13" textLength="194.835">Generation writes target files.</text><text x="940.39" y="827.27" fill="#000" font-size="13" textLength="253.157">Compile/run evidence is separate from</text><text x="940.39" y="842.403" fill="#000" font-size="13" textLength="115.635">renderer success.</text></g><!--link User to source--><g class="link" data-entity-1="ent0001" data-entity-2="ent0002" id="lnk21" data-source-line="40" data-link-type="dependency"><path d="M551.47,82.13 C551.47,99.25 551.47,114.09 551.47,129.47" style="stroke:#181818;stroke-width:1;" fill="none" id="User-to-source"/><polygon points="551.47,134.47,555.47,125.47,551.47,129.47,547.47,125.47,551.47,134.47" fill="#181818" style="stroke:#181818;stroke-width:1;stroke-linejoin:miter;stroke-miterlimit:10;"/><text x="552.47" y="112.867" fill="#000" font-size="13" textLength="84.068">writes model</text></g><!--link source to parser--><g class="link" data-entity-1="ent0002" data-entity-2="ent0003" id="lnk22" data-source-line="41" data-link-type="dependency"><path d="M551.47,187.71 C551.47,203.64 551.47,219.07 551.47,235.02" style="stroke:#181818;stroke-width:1;" fill="none" id="source-to-parser"/><polygon points="551.47,240.02,555.47,231.02,551.47,235.02,547.47,231.02,551.47,240.02" fill="#181818" style="stroke:#181818;stroke-width:1;stroke-linejoin:miter;stroke-miterlimit:10;"/><text x="552.47" y="218.457" fill="#000" font-size="13" textLength="66.352">parse text</text></g><!--link parser to ast--><g class="link" data-entity-1="ent0003" data-entity-2="ent0004" id="lnk23" data-source-line="42" data-link-type="dependency"><path d="M551.47,293.39 C551.47,320 551.47,356.33 551.47,382.85" style="stroke:#181818;stroke-width:1;" fill="none" id="parser-to-ast"/><polygon points="551.47,387.85,555.47,378.85,551.47,382.85,547.47,378.85,551.47,387.85" fill="#181818" style="stroke:#181818;stroke-width:1;stroke-linejoin:miter;stroke-miterlimit:10;"/><text x="552.47" y="324.057" fill="#000" font-size="13" textLength="137.592">build parse/AST facts</text></g><!--link ast to model--><g class="link" data-entity-1="ent0004" data-entity-2="ent0005" id="lnk24" data-source-line="43" data-link-type="dependency"><path d="M551.47,441.07 C551.47,461.71 551.47,485.5 551.47,506.13" style="stroke:#181818;stroke-width:1;" fill="none" id="ast-to-model"/><polygon points="551.47,511.13,555.47,502.13,551.47,506.13,547.47,502.13,551.47,511.13" fill="#181818" style="stroke:#181818;stroke-width:1;stroke-linejoin:miter;stroke-miterlimit:10;"/><text x="552.47" y="480.647" fill="#000" font-size="13" textLength="184.679">import + validate semantics</text></g><!--link model to inspect--><g class="link" data-entity-1="ent0005" data-entity-2="ent0007" id="lnk25" data-source-line="44" data-link-type="dependency"><path d="M568.88,564.51 C576.79,576.61 586.02,591.39 593.47,605.18 C605.32,627.13 614.938,648.115 623.518,668.105" style="stroke:#181818;stroke-width:1;" fill="none" id="model-to-inspect"/><polygon points="625.49,672.7,625.616,662.852,623.518,668.105,618.265,666.007,625.49,672.7" fill="#181818" style="stroke:#181818;stroke-width:1;stroke-linejoin:miter;stroke-miterlimit:10;"/><text x="602.47" y="618.247" fill="#000" font-size="13" textLength="201.481">model facts + bounded checks</text></g><!--link model to simulate--><g class="link" data-entity-1="ent0005" data-entity-2="ent0008" id="lnk26" data-source-line="45" data-link-type="dependency"><path d="M577.24,564.37 C591.42,576.67 610.04,590.24 629.47,597.18 C648.42,603.95 795.46,591.76 810.47,605.18 C831.34,623.83 833.082,652.78 830.952,676.23" style="stroke:#181818;stroke-width:1;" fill="none" id="model-to-simulate"/><polygon points="830.5,681.21,835.298,672.609,830.952,676.23,827.331,671.885,830.5,681.21" fill="#181818" style="stroke:#181818;stroke-width:1;stroke-linejoin:miter;stroke-miterlimit:10;"/><text x="822.47" y="618.247" fill="#000" font-size="13" textLength="209.181">executable reference semantics</text></g><!--link model to plantuml--><g class="link" data-entity-1="ent0005" data-entity-2="ent0009" id="lnk27" data-source-line="46" data-link-type="dependency"><path d="M492.75,564.62 C475.86,574.84 459.14,588.27 448.47,605.18 C434.15,627.85 432.014,654.073 432.824,675.863" style="stroke:#181818;stroke-width:1;" fill="none" id="model-to-plantuml"/><polygon points="433.01,680.86,436.673,671.718,432.824,675.863,428.678,672.015,433.01,680.86" fill="#181818" style="stroke:#181818;stroke-width:1;stroke-linejoin:miter;stroke-miterlimit:10;"/><text x="449.47" y="618.247" fill="#000" font-size="13" textLength="137.338">diagram source facts</text></g><!--link plantuml to visualize--><g class="link" data-entity-1="ent0009" data-entity-2="ent0010" id="lnk28" data-source-line="47" data-link-type="dependency"><path d="M499.91,734.3 C546.23,752.75 603.775,775.669 650.145,794.149" style="stroke:#181818;stroke-width:1;" fill="none" id="plantuml-to-visualize"/><polygon points="654.79,796,647.91,788.952,650.145,794.149,644.949,796.384,654.79,796" fill="#181818" style="stroke:#181818;stroke-width:1;stroke-linejoin:miter;stroke-miterlimit:10;"/><text x="603.47" y="773.137" fill="#000" font-size="13" textLength="107.948">source to render</text></g><!--link model to render--><g class="link" data-entity-1="ent0005" data-entity-2="ent0011" id="lnk29" data-source-line="48" data-link-type="dependency"><path d="M492.93,564.62 C463.61,576.43 427.25,589.49 393.47,597.18 C374.97,601.38 324.7,595.36 308.47,605.18 C280.06,622.36 263.502,652.354 253.512,676.344" style="stroke:#181818;stroke-width:1;" fill="none" id="model-to-render"/><polygon points="251.59,680.96,258.742,674.189,253.512,676.344,251.357,671.114,251.59,680.96" fill="#181818" style="stroke:#181818;stroke-width:1;stroke-linejoin:miter;stroke-miterlimit:10;"/><text x="309.47" y="618.247" fill="#000" font-size="13" textLength="124.059">generation context</text></g><!--link templates to packaged--><g class="link" data-entity-1="ent0013" data-entity-2="ent0014" id="lnk30" data-source-line="50" data-link-type="dependency"><path d="M288.17,449.8 C288.98,466.23 289.704,501.836 290.514,518.276" style="stroke:#181818;stroke-width:1;" fill="none" id="templates-to-packaged"/><polygon points="290.76,523.27,294.312,514.084,290.514,518.276,286.322,514.478,290.76,523.27" fill="#181818" style="stroke:#181818;stroke-width:1;stroke-linejoin:miter;stroke-miterlimit:10;"/><text x="290.47" y="480.647" fill="#000" font-size="13" textLength="57.25">make tpl</text></g><!--link packaged to render--><g class="link" data-entity-1="ent0014" data-entity-2="ent0011" id="lnk31" data-source-line="51" data-link-type="dependency"><path d="M239.67,573.63 C223.25,582.83 204.67,591.72 186.47,597.18 C175.79,600.38 94.03,596.99 86.47,605.18 C53.54,640.84 108.242,668.055 162.982,685.715" style="stroke:#181818;stroke-width:1;" fill="none" id="packaged-to-render"/><polygon points="167.74,687.25,160.403,680.68,162.982,685.715,157.947,688.293,167.74,687.25" fill="#181818" style="stroke:#181818;stroke-width:1;stroke-linejoin:miter;stroke-miterlimit:10;"/><text x="87.47" y="618.247" fill="#000" font-size="13" textLength="178.452">built-in template extraction</text></g><!--link templates to render--><g class="link" data-entity-1="ent0013" data-entity-2="ent0011" id="lnk32" data-source-line="52" data-link-type="dependency"><path d="M210.12,418.57 C150.42,425.65 70.98,445.97 30.47,502.58 C6,536.77 9.69,560.63 30.47,597.18 C58.92,647.23 114.202,673.715 163.152,688.825" style="stroke:#181818;stroke-width:1;" fill="none" id="templates-to-render"/><polygon points="167.93,690.3,160.51,683.823,163.152,688.825,158.151,691.468,167.93,690.3" fill="#181818" style="stroke:#181818;stroke-width:1;stroke-linejoin:miter;stroke-miterlimit:10;"/><text x="31.47" y="542.447" fill="#000" font-size="13" textLength="161.624">custom trusted template</text></g><!--link inspect to reports--><g class="link" data-entity-1="ent0007" data-entity-2="ent0016" id="lnk33" data-source-line="54" data-link-type="dependency"><path d="M725.12,739.5 C729.27,740.48 733.4,741.34 737.47,742.07 C902.25,771.44 1326.92,724.46 1490.47,760.07 C1524.08,767.38 1555.153,780.335 1582.523,793.785" style="stroke:#181818;stroke-width:1;" fill="none" id="inspect-to-reports"/><polygon points="1587.01,795.99,1580.697,788.431,1582.523,793.785,1577.168,795.611,1587.01,795.99" fill="#181818" style="stroke:#181818;stroke-width:1;stroke-linejoin:miter;stroke-miterlimit:10;"/></g><!--link simulate to transcript--><g class="link" data-entity-1="ent0008" data-entity-2="ent0017" id="lnk34" data-source-line="55" data-link-type="dependency"><path d="M903.07,711.45 C1033.38,716.86 1306.38,730.85 1535.47,760.07 C1621.08,770.98 1642.39,775.59 1726.47,795.07 C1738.07,797.75 1745.548,799.627 1757.318,802.857" style="stroke:#181818;stroke-width:1;" fill="none" id="simulate-to-transcript"/><polygon points="1762.14,804.18,1754.519,797.941,1757.318,802.857,1752.402,805.656,1762.14,804.18" fill="#181818" style="stroke:#181818;stroke-width:1;stroke-linejoin:miter;stroke-miterlimit:10;"/></g><!--link plantuml to puml--><g class="link" data-entity-1="ent0009" data-entity-2="ent0018" id="lnk35" data-source-line="56" data-link-type="dependency"><path d="M507.8,734.38 C518.95,737.49 530.43,740.22 541.47,742.07 C691.43,767.19 1074.37,743.01 1225.47,760.07 C1303.85,768.91 1323.59,773.51 1399.47,795.07 C1403.7,796.27 1403.288,796.045 1407.628,797.465" style="stroke:#181818;stroke-width:1;" fill="none" id="plantuml-to-puml"/><polygon points="1412.38,799.02,1405.07,792.42,1407.628,797.465,1402.582,800.023,1412.38,799.02" fill="#181818" style="stroke:#181818;stroke-width:1;stroke-linejoin:miter;stroke-miterlimit:10;"/></g><!--link visualize to diagram--><g class="link" data-entity-1="ent0010" data-entity-2="ent0019" id="lnk36" data-source-line="57" data-link-type="dependency"><path d="M797.42,846.67 C834.63,856.6 880,867.26 921.47,873.06 C932.92,874.66 1120.64,873.6 1129.47,881.06 C1145.38,894.52 1148.792,913.65 1148.712,932.19" style="stroke:#181818;stroke-width:1;" fill="none" id="visualize-to-diagram"/><polygon points="1148.69,937.19,1152.729,928.207,1148.712,932.19,1144.729,928.173,1148.69,937.19" fill="#181818" style="stroke:#181818;stroke-width:1;stroke-linejoin:miter;stroke-miterlimit:10;"/></g><!--link render to runtime--><g class="link" data-entity-1="ent0011" data-entity-2="ent0020" id="lnk37" data-source-line="58" data-link-type="dependency"><path d="M301.59,734.3 C310.78,737.42 320.27,740.18 329.47,742.07 C430.76,762.9 691.24,753.84 794.47,760.07 C984.54,771.53 1034.36,759.74 1221.47,795.07 C1233.67,797.37 1241.791,799.295 1253.881,802.835" style="stroke:#181818;stroke-width:1;" fill="none" id="render-to-runtime"/><polygon points="1258.68,804.24,1251.167,797.872,1253.881,802.835,1248.919,805.55,1258.68,804.24" fill="#181818" style="stroke:#181818;stroke-width:1;stroke-linejoin:miter;stroke-miterlimit:10;"/></g><!--link visualize to external--><g class="link" data-entity-1="ent0010" data-entity-2="ent0015" id="lnk38" data-source-line="59" data-link-type="dependency"><path d="M723.88,849.43 C728.01,865.71 735.85,885.91 750.47,898.06 C779.83,922.46 798.02,904.68 834.47,916.06 C838.39,917.29 837.635,916.956 841.625,918.336" style="stroke:#181818;stroke-width:1;" fill="none" id="visualize-to-external"/><polygon points="846.35,919.97,839.152,913.248,841.625,918.336,836.537,920.808,846.35,919.97" fill="#181818" style="stroke:#181818;stroke-width:1;stroke-linejoin:miter;stroke-miterlimit:10;"/><text x="751.47" y="894.127" fill="#000" font-size="13" textLength="172.853">optional renderer backend</text></g><!--link runtime to external--><g class="link" data-entity-1="ent0020" data-entity-2="ent0015" id="lnk39" data-source-line="60" data-link-type="dependency"><path d="M1282.89,841.38 C1265.74,851.73 1242.94,864.44 1221.47,873.06 C1151.94,900.98 1129.44,892.06 1058.47,916.06 C1054.48,917.41 1055.13,917.125 1051.05,918.605" style="stroke:#181818;stroke-width:1;" fill="none" id="runtime-to-external"/><polygon points="1046.35,920.31,1056.175,921.001,1051.05,918.605,1053.447,913.481,1046.35,920.31" fill="#181818" style="stroke:#181818;stroke-width:1;stroke-linejoin:miter;stroke-miterlimit:10;"/><text x="1198.47" y="894.127" fill="#000" font-size="13" textLength="162.018">optional target build/test</text></g><!--link render to GMN46--><g class="link" data-entity-1="ent0011" data-entity-2="ent0047" id="lnk48" data-source-line="75" data-link-type="association"><path d="M302.08,734.4 C311.12,737.47 320.44,740.17 329.47,742.07 C498.42,777.49 545.87,741.21 717.47,760.07 C791.26,768.18 872.94,782.08 939.23,794.64" style="stroke:#181818;stroke-width:1;stroke-dasharray:7,7;" fill="none" id="render-GMN46"/></g><?plantuml-src VLRVR-Cs37xNNy7bNZQqJR0h2jpoCA1BdSCExVLG9y0651XKMqwqsf8XoMcpOV_xIFsoS-ljoH95KkJ7ZvJjirGzDxo3IdUzLaAvqXrR0KPKZgjTAvZDAa-yUjuPFQXwfLjju6KltVJSxdcjNwJQGSDREprHkXPMzF3-QY8qN3sJy78gxF4ElXCRwLfntSgTwZ0aQ4NZ6Fkk5erK0ihxxSEgW7V5X_LLyLCMh-uVI7YvVh--oSBhpzUtlvU_bl1klLv_A7xC1_VRpPVj1iMNnTNwAekBtpR50zgGVl5BKJ36AuUvRgqmh968p6ozAZTtOFLWAl6elfytbNNT3pFWDWfZW2n32hERyXPJC-ZaKVL7Rp6lRUkDWjo7FpMvBZS1jnEBEOcy6RVkFpPMT5mvMK67MkrewBVUog-27OjOm-pE2okjxD09OsVmDmEOk9NAziW7E8DQyftI5g-OXlMMy22CR8x-pcIUQd7gtCfkQBcJMe4PCFXEZ4xYMKWuRRxXvqkBgM_lRbCHn6klZNjKFkEvqt_qf31q4VIuYJmuTMM4geN1cg0C0QrpG72GTk2j_2j4b7TlUd6YwtsyoTsOLv1u7s6P7FmpgSecsNDhXOjLQNHBwhEOPBe3WS_BXVURjucDessyePvQnyWMIRI8r8oQOtXLguSQPiMh4qRn5fpMBTf_uWSE2yX5-9DZkaPq6kCVAoFCWM1OBLPdPnugR2ZY6rubaiFKWR7R7WIL4M_O3rWAlE9JUVyPFxUtTn4_VvuY34Rbo2c7OyPMHlOkm9AtfnOvHeU1K5VtI8xGrFs49YacNz3QjmDEhKSrxt7gBM1k3_xJruqtZUUdrX-54WOXhXFVGnvXdLGP3HoukFWvqNa9BqPIEJsVMPIIGfmVox3m2R0eesEQ4qju6cHR1uq5JPO6nvfbT4OwOIeiGNO49lRv0MbT4_VIHB4iw91swkTbjFE-qEY9dWPCgzgBwdbga3jtYMKMrU3uatzY6WHHLMzVaXjqcL6CEOVGypafZusuJ5fEnzQQ-8ozjeHTA07n0wUUHuoD3HD0ZSp79FapkkjRbcKdlWXPTo5LxYQYii4OqVjNJhDDDLYdEoGZVYTzo5Y2DcXxPhEC7Wb7_fuYG2Hb8mmaYh2nUAjt6KZsbM9klINediB6PHw1zEZZcYL-Vil0SRCJBl0CfuX5H1Krlv6xlGFTHDu2b99-AtBDKxrG0-5m-pcgtEWNPPqHM7C_Nl3FGWz8NtI8WLru5gCQFijI7MZMqlEQIJHd62_fYXZ2atQ4DjwGyqRh35zuAFBZhLLxf216Z7XTsmp8ELGS2NxkDSGB2UpGDFBr7F2bWDx80w-EeHUuaUB_mea41VWuyZ5sUOIJ9eQbQ5PXM2wm320EilPz8p5eGVzDwBKnkaEzN3SxL9Mmazl_1G00?></g></svg>