<?xml version="1.0" encoding="us-ascii" standalone="no"?><svg xmlns="http://www.w3.org/2000/svg" xmlns:xlink="http://www.w3.org/1999/xlink" contentStyleType="text/css" height="1413px" preserveAspectRatio="none" style="width:502px;height:1413px;background:#FFFFFF;" version="1.1" viewBox="0 0 502 1413" width="502px" zoomAndPan="magnify"><defs/><g><g id="elem_DefinitionNote"><path d="M11,6 L11,91.6641 L203,91.6641 L203,16 L193,6 L11,6 " fill="#FEFFDD" style="stroke:#181818;stroke-width:0.5;"/><path d="M193,6 L193,16 L203,16 L193,6 " fill="#FEFFDD" style="stroke:#181818;stroke-width:1.0;"/><text fill="#000000" font-family="sans-serif" font-size="13" lengthAdjust="spacing" textLength="58" x="17" y="23.0669">defines {</text><text fill="#000000" font-family="sans-serif" font-size="13" lengthAdjust="spacing" textLength="83" x="33" y="38.1997">def int a = 0;</text><text fill="#000000" font-family="sans-serif" font-size="13" lengthAdjust="spacing" textLength="83" x="33" y="53.3325">def int b = 0;</text><text fill="#000000" font-family="sans-serif" font-size="13" lengthAdjust="spacing" textLength="155" x="33" y="68.4653">def int round_count = 0;</text><text fill="#000000" font-family="sans-serif" font-size="13" lengthAdjust="spacing" textLength="8" x="17" y="83.5981">}</text></g><path d="M19.5,152 L476.5,152 A12.5,12.5 0 0 1 489,164.5 L489,178.2969 L7,178.2969 L7,164.5 A12.5,12.5 0 0 1 19.5,152 " fill="#F1F1F1" style="stroke:#F1F1F1;stroke-width:1.0;"/><rect fill="none" height="1175.2969" rx="12.5" ry="12.5" style="stroke:#181818;stroke-width:0.5;" width="482" x="7" y="152"/><line style="stroke:#181818;stroke-width:0.5;" x1="7" x2="489" y1="178.2969" y2="178.2969"/><text fill="#000000" font-family="sans-serif" font-size="14" lengthAdjust="spacing" textLength="74" x="211" y="169.9951">TrafficLight</text><path d="M31.5,246.2969 L467.5,246.2969 A12.5,12.5 0 0 1 480,258.7969 L480,570.9375 L19,570.9375 L19,258.7969 A12.5,12.5 0 0 1 31.5,246.2969 " fill="#F1F1F1" style="stroke:#F1F1F1;stroke-width:1.0;"/><rect fill="none" height="910.6406" rx="12.5" ry="12.5" style="stroke:#181818;stroke-width:0.5;" width="461" x="19" y="246.2969"/><line style="stroke:#181818;stroke-width:0.5;" x1="19" x2="480" y1="570.9375" y2="570.9375"/><line style="stroke:#181818;stroke-width:0.5;" x1="19" x2="480" y1="272.5938" y2="272.5938"/><text fill="#000000" font-family="sans-serif" font-size="14" lengthAdjust="spacing" textLength="62" x="218.5" y="264.292">InService</text><text fill="#000000" font-family="sans-serif" font-size="12" lengthAdjust="spacing" textLength="46" x="24" y="283.7324">enter {</text><text fill="#000000" font-family="sans-serif" font-size="12" lengthAdjust="spacing" textLength="38" x="40" y="297.7012">a = 0;</text><text fill="#000000" font-family="sans-serif" font-size="12" lengthAdjust="spacing" textLength="38" x="40" y="311.6699">b = 0;</text><text fill="#000000" font-family="sans-serif" font-size="12" lengthAdjust="spacing" textLength="109" x="40" y="325.6387">round_count = 0;</text><text fill="#000000" font-family="sans-serif" font-size="12" lengthAdjust="spacing" textLength="8" x="24" y="339.6074">}</text><text fill="#000000" font-family="sans-serif" font-size="12" lengthAdjust="spacing" textLength="252" x="24" y="353.5762">enter abstract InServiceAbstractEnter /*</text><text fill="#000000" font-family="sans-serif" font-size="12" lengthAdjust="spacing" textLength="319" x="40" y="367.5449">Abstract Operation When Entering State 'InService'</text><text fill="#000000" font-family="sans-serif" font-size="12" lengthAdjust="spacing" textLength="384" x="40" y="381.5137">TODO: Should be Implemented In Generated Code Framework</text><ellipse cx="29.5" cy="390.8125" fill="#000000" rx="2.5" ry="2.5" style="stroke:#000000;stroke-width:0.0;"/><text fill="#000000" font-family="sans-serif" font-size="12" lengthAdjust="spacing" textLength="4" x="36" y="395.4824">/</text><text fill="#000000" font-family="sans-serif" font-size="12" lengthAdjust="spacing" textLength="321" x="24" y="409.4512">during before abstract InServiceBeforeEnterChild /*</text><text fill="#000000" font-family="sans-serif" font-size="12" lengthAdjust="spacing" textLength="420" x="40" y="423.4199">Abstract Operation Before Entering Child States of State 'InService'</text><text fill="#000000" font-family="sans-serif" font-size="12" lengthAdjust="spacing" textLength="384" x="40" y="437.3887">TODO: Should be Implemented In Generated Code Framework</text><ellipse cx="29.5" cy="446.6875" fill="#000000" rx="2.5" ry="2.5" style="stroke:#000000;stroke-width:0.0;"/><text fill="#000000" font-family="sans-serif" font-size="12" lengthAdjust="spacing" textLength="4" x="36" y="451.3574">/</text><text fill="#000000" font-family="sans-serif" font-size="12" lengthAdjust="spacing" textLength="299" x="24" y="465.3262">during after abstract InServiceAfterEnterChild /*</text><text fill="#000000" font-family="sans-serif" font-size="12" lengthAdjust="spacing" textLength="409" x="40" y="479.2949">Abstract Operation After Entering Child States of State 'InService'</text><text fill="#000000" font-family="sans-serif" font-size="12" lengthAdjust="spacing" textLength="384" x="40" y="493.2637">TODO: Should be Implemented In Generated Code Framework</text><ellipse cx="29.5" cy="502.5625" fill="#000000" rx="2.5" ry="2.5" style="stroke:#000000;stroke-width:0.0;"/><text fill="#000000" font-family="sans-serif" font-size="12" lengthAdjust="spacing" textLength="4" x="36" y="507.2324">/</text><text fill="#000000" font-family="sans-serif" font-size="12" lengthAdjust="spacing" textLength="228" x="24" y="521.2012">exit abstract InServiceAbstractExit /*</text><text fill="#000000" font-family="sans-serif" font-size="12" lengthAdjust="spacing" textLength="313" x="40" y="535.1699">Abstract Operation When Leaving State 'InService'</text><text fill="#000000" font-family="sans-serif" font-size="12" lengthAdjust="spacing" textLength="384" x="40" y="549.1387">TODO: Should be Implemented In Generated Code Framework</text><ellipse cx="29.5" cy="558.4375" fill="#000000" rx="2.5" ry="2.5" style="stroke:#000000;stroke-width:0.0;"/><text fill="#000000" font-family="sans-serif" font-size="12" lengthAdjust="spacing" textLength="4" x="36" y="563.1074">/</text><g id="TrafficLight.InService.Red"><rect fill="#F1F1F1" height="78.2031" rx="12.5" ry="12.5" style="stroke:#181818;stroke-width:0.5;" width="110" x="57.5" y="719.9375"/><line style="stroke:#181818;stroke-width:0.5;" x1="57.5" x2="167.5" y1="746.2344" y2="746.2344"/><text fill="#000000" font-family="sans-serif" font-size="14" lengthAdjust="spacing" textLength="28" x="98.5" y="737.9326">Red</text><text fill="#000000" font-family="sans-serif" font-size="12" lengthAdjust="spacing" textLength="52" x="62.5" y="762.373">during {</text><text fill="#000000" font-family="sans-serif" font-size="12" lengthAdjust="spacing" textLength="74" x="78.5" y="776.3418">a = 1 &lt;&lt; 2;</text><text fill="#000000" font-family="sans-serif" font-size="12" lengthAdjust="spacing" textLength="8" x="62.5" y="790.3105">}</text></g><g id="TrafficLight.InService.Yellow"><rect fill="#F1F1F1" height="50" rx="12.5" ry="12.5" style="stroke:#181818;stroke-width:0.5;" width="64" x="80.5" y="1096.9375"/><line style="stroke:#181818;stroke-width:0.5;" x1="80.5" x2="144.5" y1="1123.2344" y2="1123.2344"/><text fill="#000000" font-family="sans-serif" font-size="14" lengthAdjust="spacing" textLength="44" x="90.5" y="1114.9326">Yellow</text></g><g id="TrafficLight.InService.Green"><rect fill="#F1F1F1" height="50" rx="12.5" ry="12.5" style="stroke:#181818;stroke-width:0.5;" width="63" x="31" y="922.4375"/><line style="stroke:#181818;stroke-width:0.5;" x1="31" x2="94" y1="948.7344" y2="948.7344"/><text fill="#000000" font-family="sans-serif" font-size="14" lengthAdjust="spacing" textLength="43" x="41" y="940.4326">Green</text></g><ellipse cx="112.5" cy="591.9375" fill="#181818" rx="10" ry="10" style="stroke:none;stroke-width:1.0;"/><!--link *start*InService to Red--><g id="link_*start*InService_Red"><path d="M112.5,602.2775 C112.5,623.3175 112.5,675.5075 112.5,713.6775 " fill="none" id="*start*InService-to-Red" style="stroke:#181818;stroke-width:1.0;"/><polygon fill="#181818" points="112.5,718.6775,116.5,709.6775,112.5,713.6775,108.5,709.6775,112.5,718.6775" style="stroke:#181818;stroke-width:1.0;"/><text fill="#000000" font-family="sans-serif" font-size="13" lengthAdjust="spacing" textLength="32" x="139.5" y="633.0044">Start</text><path d="M117.5,642.0703 L117.5,697.0703 L193.5,697.0703 L193.5,652.0703 L183.5,642.0703 L117.5,642.0703 " fill="#FEFFDD" style="stroke:#181818;stroke-width:0.5;"/><path d="M183.5,642.0703 L183.5,652.0703 L193.5,652.0703 L183.5,642.0703 " fill="#FEFFDD" style="stroke:#181818;stroke-width:0.5;"/><text fill="#000000" font-family="sans-serif" font-size="13" lengthAdjust="spacing" textLength="48" x="123.5" y="659.1372">effect {</text><text fill="#000000" font-family="sans-serif" font-size="13" lengthAdjust="spacing" textLength="39" x="139.5" y="674.27">b = 1;</text><text fill="#000000" font-family="sans-serif" font-size="13" lengthAdjust="spacing" textLength="8" x="123.5" y="689.4028">}</text></g><!--link Red to Green--><g id="link_Red_Green"><path d="M73.06,798.3075 C69.19,803.8475 65.84,809.7775 63.5,815.9375 C51.15,848.4275 53.24,888.8375 56.9,916.0075 " fill="none" id="Red-to-Green" style="stroke:#181818;stroke-width:1.0;"/><polygon fill="#181818" points="57.75,920.9375,60.4255,911.459,57.0369,915.9886,52.5073,912.6,57.75,920.9375" style="stroke:#181818;stroke-width:1.0;"/><path d="M68.5,820.9375 L68.5,875.9375 L144.5,875.9375 L144.5,830.9375 L134.5,820.9375 L68.5,820.9375 " fill="#FEFFDD" style="stroke:#181818;stroke-width:0.5;"/><path d="M134.5,820.9375 L134.5,830.9375 L144.5,830.9375 L134.5,820.9375 " fill="#FEFFDD" style="stroke:#181818;stroke-width:0.5;"/><text fill="#000000" font-family="sans-serif" font-size="13" lengthAdjust="spacing" textLength="48" x="74.5" y="838.0044">effect {</text><text fill="#000000" font-family="sans-serif" font-size="13" lengthAdjust="spacing" textLength="39" x="90.5" y="853.1372">b = 3;</text><text fill="#000000" font-family="sans-serif" font-size="13" lengthAdjust="spacing" textLength="8" x="74.5" y="868.27">}</text></g><!--link Green to Yellow--><g id="link_Green_Yellow"><path d="M56.91,972.8375 C51.94,1000.0875 47.65,1044.8275 63.5,1078.9375 C66.45,1085.2875 70.88,1091.0375 75.89,1096.1075 " fill="none" id="Green-to-Yellow" style="stroke:#181818;stroke-width:1.0;"/><polygon fill="#181818" points="79.22,1099.2075,75.4255,1090.119,75.5857,1095.7735,69.9311,1095.9338,79.22,1099.2075" style="stroke:#181818;stroke-width:1.0;"/><path d="M68.5,1018.9375 L68.5,1073.9375 L144.5,1073.9375 L144.5,1028.9375 L134.5,1018.9375 L68.5,1018.9375 " fill="#FEFFDD" style="stroke:#181818;stroke-width:0.5;"/><path d="M134.5,1018.9375 L134.5,1028.9375 L144.5,1028.9375 L134.5,1018.9375 " fill="#FEFFDD" style="stroke:#181818;stroke-width:0.5;"/><text fill="#000000" font-family="sans-serif" font-size="13" lengthAdjust="spacing" textLength="48" x="74.5" y="1036.0044">effect {</text><text fill="#000000" font-family="sans-serif" font-size="13" lengthAdjust="spacing" textLength="39" x="90.5" y="1051.1372">b = 2;</text><text fill="#000000" font-family="sans-serif" font-size="13" lengthAdjust="spacing" textLength="8" x="74.5" y="1066.27">}</text></g><!--link Yellow to Red--><g id="link_Yellow_Red"><path d="M138.91,1096.7175 C143.24,1091.3275 147.1,1085.2975 149.5,1078.9375 C190.8,969.5875 183.14,927.8775 149.5,815.9375 C148.23,811.6975 146.52,807.4875 144.53,803.3875 " fill="none" id="Yellow-to-Red" style="stroke:#181818;stroke-width:1.0;"/><polygon fill="#181818" points="141.87,799.2575,142.4304,809.0904,144.1574,803.7036,149.5442,805.4306,141.87,799.2575" style="stroke:#181818;stroke-width:1.0;"/><text fill="#000000" font-family="sans-serif" font-size="13" lengthAdjust="spacing" textLength="54" x="280" y="912.0044">a &gt;= 10</text><path d="M183.5,921.0703 L183.5,991.0703 L430.5,991.0703 L430.5,931.0703 L420.5,921.0703 L183.5,921.0703 " fill="#FEFFDD" style="stroke:#181818;stroke-width:0.5;"/><path d="M420.5,921.0703 L420.5,931.0703 L430.5,931.0703 L420.5,921.0703 " fill="#FEFFDD" style="stroke:#181818;stroke-width:0.5;"/><text fill="#000000" font-family="sans-serif" font-size="13" lengthAdjust="spacing" textLength="48" x="189.5" y="938.1372">effect {</text><text fill="#000000" font-family="sans-serif" font-size="13" lengthAdjust="spacing" textLength="39" x="205.5" y="953.27">b = 1;</text><text fill="#000000" font-family="sans-serif" font-size="13" lengthAdjust="spacing" textLength="210" x="205.5" y="968.4028">round_count = round_count + 1;</text><text fill="#000000" font-family="sans-serif" font-size="13" lengthAdjust="spacing" textLength="8" x="189.5" y="983.5356">}</text></g><g id="TrafficLight.Idle"><rect fill="#F1F1F1" height="50" rx="12.5" ry="12.5" style="stroke:#181818;stroke-width:0.5;" width="50" x="224.5" y="1210.2969"/><line style="stroke:#181818;stroke-width:0.5;" x1="224.5" x2="274.5" y1="1236.5938" y2="1236.5938"/><text fill="#000000" font-family="sans-serif" font-size="14" lengthAdjust="spacing" textLength="24" x="237.5" y="1228.292">Idle</text></g><ellipse cx="249.5" cy="199.2969" fill="#181818" rx="10" ry="10" style="stroke:none;stroke-width:1.0;"/><ellipse cx="249.5" cy="1307.2969" fill="none" rx="10" ry="10" style="stroke:#181818;stroke-width:1.0;"/><ellipse cx="250" cy="1307.7969" fill="#181818" rx="6" ry="6" style="stroke:none;stroke-width:1.0;"/><!--link *start*TrafficLight to InService--><g id="link_*start*TrafficLight_InService"><path d="M249.5,209.4069 C249.5,216.2469 249.5,226.7069 249.5,239.9769 " fill="none" id="*start*TrafficLight-to-InService" style="stroke:#181818;stroke-width:1.0;"/><polygon fill="#181818" points="249.5,244.8369,253.5,235.8369,249.5,239.8369,245.5,235.8369,249.5,244.8369" style="stroke:#181818;stroke-width:1.0;"/></g><!--link InService to Idle--><g id="link_InService_Idle"><path d="M249.5,1157.5769 C249.5,1175.9169 249.5,1191.7669 249.5,1204.2169 " fill="none" id="InService-to-Idle" style="stroke:#181818;stroke-width:1.0;"/><polygon fill="#181818" points="249.5,1209.0569,253.5,1200.0569,249.5,1204.0569,245.5,1200.0569,249.5,1209.0569" style="stroke:#181818;stroke-width:1.0;"/><text fill="#000000" font-family="sans-serif" font-size="13" lengthAdjust="spacing" textLength="116" x="250.5" y="1188.3638">InService.Maintain</text></g><!--link Idle to *end*TrafficLight--><g id="link_Idle_*end*TrafficLight"><path d="M249.5,1260.7769 C249.5,1270.8069 249.5,1282.0969 249.5,1290.9269 " fill="none" id="Idle-to-*end*TrafficLight" style="stroke:#181818;stroke-width:1.0;"/><polygon fill="#181818" points="249.5,1295.8669,253.5,1286.8669,249.5,1290.8669,245.5,1286.8669,249.5,1295.8669" style="stroke:#181818;stroke-width:1.0;"/></g><ellipse cx="248" cy="49" fill="#181818" rx="10" ry="10" style="stroke:none;stroke-width:1.0;"/><ellipse cx="248" cy="1397" fill="none" rx="10" ry="10" style="stroke:#181818;stroke-width:1.0;"/><ellipse cx="248.5" cy="1397.5" fill="#181818" rx="6" ry="6" style="stroke:none;stroke-width:1.0;"/><!--link *start* to TrafficLight--><g id="link_*start*_TrafficLight"><path d="M248,59.47 C248,74.16 248,105.07 248,145.97 " fill="none" id="*start*-to-TrafficLight" style="stroke:#181818;stroke-width:1.0;"/><polygon fill="#181818" points="248,150.81,252,141.81,248,145.81,244,141.81,248,150.81" style="stroke:#181818;stroke-width:1.0;"/></g><!--link TrafficLight to *end*--><g id="link_TrafficLight_*end*"><path d="M248,1327.4 C248,1350.49 248,1368.85 248,1380.74 " fill="none" id="TrafficLight-to-*end*" style="stroke:#181818;stroke-width:1.0;"/><polygon fill="#181818" points="248,1385.67,252,1376.67,248,1380.67,244,1376.67,248,1385.67" style="stroke:#181818;stroke-width:1.0;"/></g><!--SRC=[lLHXIoCn4Fs-lsA-2HMrwZVh2QUU8gY5go37xN5acraRt4uac-g1-D-TIRRfTa-zYdY1bkJDPDxhz4t8UWHLmp6MXemtbYuPoRGSiOR737Zn2GnvKF05-eCbgFWRSdP6-lUOltqCFcL86aZgPhLNJ7ZbL5cQyRcvcVY68mREQ8JkteonGHUHxwWJmdlO0prpXcxWCIV1HDisxE_3pY2dfyxb7rXLzg43dZf4IjZFtY_Os3XeQe-ySZx5H3fOWihGRGAnB77iMpfbIJks1mbQw4WTQFy6uLjMyJwctPMO0aFWwhJXVMGxAv55YbOd5HnmI_eVxwMiPMkrJ-ihj3t22uljSTYZQpkeFuZxehNl-fdjbLEygOhQEyNAKz6l3V8jnBTwiSGSXU4TEYLJ1jSJ_bD2bfXu51ovbiginNjNm-CXct5YPvM6WiTZUbVXLBWrKy8fafJZmv7L22TEJV71kjkSUbivDVDHO6aTlY3rC0I2XAE9OO8trCRSXTvu8QYkmPQVgL-LhtHQyDNKXzJ_Anx_6F-MFIJyBtUSexh_77EqNrnTnUcOFu29fZCj8SR9F3O9tBnG_EBp9-PALDAu53_wyuBjnpvRUlcRt6S0]--></g></svg>