<?xml version="1.0" encoding="us-ascii" standalone="no"?><svg xmlns="http://www.w3.org/2000/svg" xmlns:xlink="http://www.w3.org/1999/xlink" contentStyleType="text/css" height="730px" preserveAspectRatio="none" style="width:858px;height:730px;background:#FFFFFF;" version="1.1" viewBox="0 0 858 730" width="858px" zoomAndPan="magnify"><defs/><g><!--class State--><g id="elem_State"><rect codeLine="1" fill="#F1F1F1" height="194.6719" id="State" rx="2.5" ry="2.5" style="stroke:#181818;stroke-width:0.5;" width="268" x="364" y="371"/><ellipse cx="475.75" cy="387" fill="#A9DCDF" rx="11" ry="11" style="stroke:#181818;stroke-width:1.0;"/><path d="M475.8594,382.3438 L474.7031,387.4219 L477.0313,387.4219 L475.8594,382.3438 Z M474.375,380.1094 L477.3594,380.1094 L480.7188,392.5 L478.2656,392.5 L477.5,389.4375 L474.2188,389.4375 L473.4688,392.5 L471.0313,392.5 L474.375,380.1094 Z " fill="#000000"/><text fill="#000000" font-family="sans-serif" font-size="14" font-style="italic" lengthAdjust="spacing" textLength="36" x="496.25" y="391.8467">State</text><line style="stroke:#181818;stroke-width:0.5;" x1="365" x2="631" y1="403" y2="403"/><text fill="#000000" font-family="sans-serif" font-size="14" lengthAdjust="spacing" textLength="66" x="370" y="419.9951">name: str</text><text fill="#000000" font-family="sans-serif" font-size="14" lengthAdjust="spacing" textLength="104" x="370" y="436.292">description: str</text><text fill="#000000" font-family="sans-serif" font-size="14" lengthAdjust="spacing" textLength="109" x="370" y="452.5889">type: StateType</text><text fill="#000000" font-family="sans-serif" font-size="14" lengthAdjust="spacing" textLength="123" x="370" y="468.8857">min_time_lock: int</text><text fill="#000000" font-family="sans-serif" font-size="14" lengthAdjust="spacing" textLength="126" x="370" y="485.1826">max_time_lock: int</text><text fill="#000000" font-family="sans-serif" font-size="14" lengthAdjust="spacing" textLength="234" x="370" y="501.4795">on_entry: List[UpdateAssignment]</text><text fill="#000000" font-family="sans-serif" font-size="14" lengthAdjust="spacing" textLength="256" x="370" y="517.7764">on_duration: List[UpdateAssignment]</text><text fill="#000000" font-family="sans-serif" font-size="14" lengthAdjust="spacing" textLength="223" x="370" y="534.0732">on_exit: List[UpdateAssignment]</text><text fill="#000000" font-family="sans-serif" font-size="14" lengthAdjust="spacing" textLength="128" x="370" y="550.3701">events: List[Event]</text><line style="stroke:#181818;stroke-width:0.5;" x1="365" x2="631" y1="557.6719" y2="557.6719"/></g><!--class UpdateAssignment--><g id="elem_UpdateAssignment"><rect codeLine="75" fill="#F1F1F1" height="64.2969" id="UpdateAssignment" rx="2.5" ry="2.5" style="stroke:#181818;stroke-width:0.5;" width="164" x="130" y="651.5"/><ellipse cx="145" cy="667.5" fill="#ADD1B2" rx="11" ry="11" style="stroke:#181818;stroke-width:1.0;"/><path d="M147.9688,673.1406 Q147.3906,673.4375 146.75,673.5781 Q146.1094,673.7344 145.4063,673.7344 Q142.9063,673.7344 141.5781,672.0938 Q140.2656,670.4375 140.2656,667.3125 Q140.2656,664.1875 141.5781,662.5313 Q142.9063,660.875 145.4063,660.875 Q146.1094,660.875 146.75,661.0313 Q147.4063,661.1875 147.9688,661.4844 L147.9688,664.2031 Q147.3438,663.625 146.75,663.3594 Q146.1563,663.0781 145.5313,663.0781 Q144.1875,663.0781 143.5,664.1563 Q142.8125,665.2188 142.8125,667.3125 Q142.8125,669.4063 143.5,670.4844 Q144.1875,671.5469 145.5313,671.5469 Q146.1563,671.5469 146.75,671.2813 Q147.3438,671 147.9688,670.4219 L147.9688,673.1406 Z " fill="#000000"/><text fill="#000000" font-family="sans-serif" font-size="14" lengthAdjust="spacing" textLength="132" x="159" y="672.3467">UpdateAssignment</text><line style="stroke:#181818;stroke-width:0.5;" x1="131" x2="293" y1="683.5" y2="683.5"/><text fill="#000000" font-family="sans-serif" font-size="14" lengthAdjust="spacing" textLength="126" x="136" y="700.4951">rvalue: expression</text><line style="stroke:#181818;stroke-width:0.5;" x1="131" x2="293" y1="707.7969" y2="707.7969"/></g><!--class CompositeState--><g id="elem_CompositeState"><rect codeLine="19" fill="#F1F1F1" height="80.5938" id="CompositeState" rx="2.5" ry="2.5" style="stroke:#181818;stroke-width:0.5;" width="158" x="387" y="643"/><ellipse cx="408.75" cy="659" fill="#ADD1B2" rx="11" ry="11" style="stroke:#181818;stroke-width:1.0;"/><path d="M411.7188,664.6406 Q411.1406,664.9375 410.5,665.0781 Q409.8594,665.2344 409.1563,665.2344 Q406.6563,665.2344 405.3281,663.5938 Q404.0156,661.9375 404.0156,658.8125 Q404.0156,655.6875 405.3281,654.0313 Q406.6563,652.375 409.1563,652.375 Q409.8594,652.375 410.5,652.5313 Q411.1563,652.6875 411.7188,652.9844 L411.7188,655.7031 Q411.0938,655.125 410.5,654.8594 Q409.9063,654.5781 409.2813,654.5781 Q407.9375,654.5781 407.25,655.6563 Q406.5625,656.7188 406.5625,658.8125 Q406.5625,660.9063 407.25,661.9844 Q407.9375,663.0469 409.2813,663.0469 Q409.9063,663.0469 410.5,662.7813 Q411.0938,662.5 411.7188,661.9219 L411.7188,664.6406 Z " fill="#000000"/><text fill="#000000" font-family="sans-serif" font-size="14" lengthAdjust="spacing" textLength="111" x="424.25" y="663.8467">CompositeState</text><line style="stroke:#181818;stroke-width:0.5;" x1="388" x2="544" y1="675" y2="675"/><text fill="#000000" font-family="sans-serif" font-size="14" lengthAdjust="spacing" textLength="146" x="393" y="691.9951">initial: Optional[State]</text><text fill="#000000" font-family="sans-serif" font-size="14" lengthAdjust="spacing" textLength="121" x="393" y="708.292">states: List[State]</text><line style="stroke:#181818;stroke-width:0.5;" x1="388" x2="544" y1="715.5938" y2="715.5938"/></g><!--class NormalState--><g id="elem_NormalState"><rect codeLine="29" fill="#F1F1F1" height="48" id="NormalState" rx="2.5" ry="2.5" style="stroke:#181818;stroke-width:0.5;" width="116" x="580" y="659.5"/><ellipse cx="595" cy="675.5" fill="#ADD1B2" rx="11" ry="11" style="stroke:#181818;stroke-width:1.0;"/><path d="M597.9688,681.1406 Q597.3906,681.4375 596.75,681.5781 Q596.1094,681.7344 595.4063,681.7344 Q592.9063,681.7344 591.5781,680.0938 Q590.2656,678.4375 590.2656,675.3125 Q590.2656,672.1875 591.5781,670.5313 Q592.9063,668.875 595.4063,668.875 Q596.1094,668.875 596.75,669.0313 Q597.4063,669.1875 597.9688,669.4844 L597.9688,672.2031 Q597.3438,671.625 596.75,671.3594 Q596.1563,671.0781 595.5313,671.0781 Q594.1875,671.0781 593.5,672.1563 Q592.8125,673.2188 592.8125,675.3125 Q592.8125,677.4063 593.5,678.4844 Q594.1875,679.5469 595.5313,679.5469 Q596.1563,679.5469 596.75,679.2813 Q597.3438,679 597.9688,678.4219 L597.9688,681.1406 Z " fill="#000000"/><text fill="#000000" font-family="sans-serif" font-size="14" lengthAdjust="spacing" textLength="84" x="609" y="680.3467">NormalState</text><line style="stroke:#181818;stroke-width:0.5;" x1="581" x2="695" y1="691.5" y2="691.5"/><line style="stroke:#181818;stroke-width:0.5;" x1="581" x2="695" y1="699.5" y2="699.5"/></g><!--class PseudaState--><g id="elem_PseudaState"><rect codeLine="34" fill="#F1F1F1" height="48" id="PseudaState" rx="2.5" ry="2.5" style="stroke:#181818;stroke-width:0.5;" width="120" x="731" y="659.5"/><ellipse cx="746" cy="675.5" fill="#ADD1B2" rx="11" ry="11" style="stroke:#181818;stroke-width:1.0;"/><path d="M748.9688,681.1406 Q748.3906,681.4375 747.75,681.5781 Q747.1094,681.7344 746.4063,681.7344 Q743.9063,681.7344 742.5781,680.0938 Q741.2656,678.4375 741.2656,675.3125 Q741.2656,672.1875 742.5781,670.5313 Q743.9063,668.875 746.4063,668.875 Q747.1094,668.875 747.75,669.0313 Q748.4063,669.1875 748.9688,669.4844 L748.9688,672.2031 Q748.3438,671.625 747.75,671.3594 Q747.1563,671.0781 746.5313,671.0781 Q745.1875,671.0781 744.5,672.1563 Q743.8125,673.2188 743.8125,675.3125 Q743.8125,677.4063 744.5,678.4844 Q745.1875,679.5469 746.5313,679.5469 Q747.1563,679.5469 747.75,679.2813 Q748.3438,679 748.9688,678.4219 L748.9688,681.1406 Z " fill="#000000"/><text fill="#000000" font-family="sans-serif" font-size="14" lengthAdjust="spacing" textLength="88" x="760" y="680.3467">PseudaState</text><line style="stroke:#181818;stroke-width:0.5;" x1="732" x2="850" y1="691.5" y2="691.5"/><line style="stroke:#181818;stroke-width:0.5;" x1="732" x2="850" y1="699.5" y2="699.5"/></g><!--class Event--><g id="elem_Event"><rect codeLine="38" fill="#F1F1F1" height="80.5938" id="Event" rx="2.5" ry="2.5" style="stroke:#181818;stroke-width:0.5;" width="78" x="240" y="428"/><ellipse cx="258.15" cy="444" fill="#ADD1B2" rx="11" ry="11" style="stroke:#181818;stroke-width:1.0;"/><path d="M261.1188,449.6406 Q260.5406,449.9375 259.9,450.0781 Q259.2594,450.2344 258.5563,450.2344 Q256.0563,450.2344 254.7281,448.5938 Q253.4156,446.9375 253.4156,443.8125 Q253.4156,440.6875 254.7281,439.0313 Q256.0563,437.375 258.5563,437.375 Q259.2594,437.375 259.9,437.5313 Q260.5563,437.6875 261.1188,437.9844 L261.1188,440.7031 Q260.4938,440.125 259.9,439.8594 Q259.3063,439.5781 258.6813,439.5781 Q257.3375,439.5781 256.65,440.6563 Q255.9625,441.7188 255.9625,443.8125 Q255.9625,445.9063 256.65,446.9844 Q257.3375,448.0469 258.6813,448.0469 Q259.3063,448.0469 259.9,447.7813 Q260.4938,447.5 261.1188,446.9219 L261.1188,449.6406 Z " fill="#000000"/><text fill="#000000" font-family="sans-serif" font-size="14" lengthAdjust="spacing" textLength="39" x="272.85" y="448.8467">Event</text><line style="stroke:#181818;stroke-width:0.5;" x1="241" x2="317" y1="460" y2="460"/><text fill="#000000" font-family="sans-serif" font-size="14" lengthAdjust="spacing" textLength="66" x="246" y="476.9951">name: str</text><text fill="#000000" font-family="sans-serif" font-size="14" lengthAdjust="spacing" textLength="40" x="246" y="493.292">guard</text><line style="stroke:#181818;stroke-width:0.5;" x1="241" x2="317" y1="500.5938" y2="500.5938"/></g><!--class Transition--><g id="elem_Transition"><rect codeLine="43" fill="#F1F1F1" height="96.8906" id="Transition" rx="2.5" ry="2.5" style="stroke:#181818;stroke-width:0.5;" width="130" x="335" y="197"/><ellipse cx="363.5" cy="213" fill="#ADD1B2" rx="11" ry="11" style="stroke:#181818;stroke-width:1.0;"/><path d="M366.4688,218.6406 Q365.8906,218.9375 365.25,219.0781 Q364.6094,219.2344 363.9063,219.2344 Q361.4063,219.2344 360.0781,217.5938 Q358.7656,215.9375 358.7656,212.8125 Q358.7656,209.6875 360.0781,208.0313 Q361.4063,206.375 363.9063,206.375 Q364.6094,206.375 365.25,206.5313 Q365.9063,206.6875 366.4688,206.9844 L366.4688,209.7031 Q365.8438,209.125 365.25,208.8594 Q364.6563,208.5781 364.0313,208.5781 Q362.6875,208.5781 362,209.6563 Q361.3125,210.7188 361.3125,212.8125 Q361.3125,214.9063 362,215.9844 Q362.6875,217.0469 364.0313,217.0469 Q364.6563,217.0469 365.25,216.7813 Q365.8438,216.5 366.4688,215.9219 L366.4688,218.6406 Z " fill="#000000"/><text fill="#000000" font-family="sans-serif" font-size="14" lengthAdjust="spacing" textLength="68" x="380.5" y="217.8467">Transition</text><line style="stroke:#181818;stroke-width:0.5;" x1="336" x2="464" y1="229" y2="229"/><text fill="#000000" font-family="sans-serif" font-size="14" lengthAdjust="spacing" textLength="87" x="341" y="245.9951">event: Event</text><text fill="#000000" font-family="sans-serif" font-size="14" lengthAdjust="spacing" textLength="118" x="341" y="262.292">from_state: State</text><text fill="#000000" font-family="sans-serif" font-size="14" lengthAdjust="spacing" textLength="101" x="341" y="278.5889">to_state: State</text><line style="stroke:#181818;stroke-width:0.5;" x1="336" x2="464" y1="285.8906" y2="285.8906"/></g><!--class Statechart--><g id="elem_Statechart"><rect codeLine="52" fill="#F1F1F1" height="129.4844" id="Statechart" rx="2.5" ry="2.5" style="stroke:#181818;stroke-width:0.5;" width="254" x="186" y="7"/><ellipse cx="273.25" cy="23" fill="#ADD1B2" rx="11" ry="11" style="stroke:#181818;stroke-width:1.0;"/><path d="M276.2188,28.6406 Q275.6406,28.9375 275,29.0781 Q274.3594,29.2344 273.6563,29.2344 Q271.1563,29.2344 269.8281,27.5938 Q268.5156,25.9375 268.5156,22.8125 Q268.5156,19.6875 269.8281,18.0313 Q271.1563,16.375 273.6563,16.375 Q274.3594,16.375 275,16.5313 Q275.6563,16.6875 276.2188,16.9844 L276.2188,19.7031 Q275.5938,19.125 275,18.8594 Q274.4063,18.5781 273.7813,18.5781 Q272.4375,18.5781 271.75,19.6563 Q271.0625,20.7188 271.0625,22.8125 Q271.0625,24.9063 271.75,25.9844 Q272.4375,27.0469 273.7813,27.0469 Q274.4063,27.0469 275,26.7813 Q275.5938,26.5 276.2188,25.9219 L276.2188,28.6406 Z " fill="#000000"/><text fill="#000000" font-family="sans-serif" font-size="14" lengthAdjust="spacing" textLength="71" x="293.75" y="27.8467">Statechart</text><line style="stroke:#181818;stroke-width:0.5;" x1="187" x2="439" y1="39" y2="39"/><text fill="#000000" font-family="sans-serif" font-size="14" lengthAdjust="spacing" textLength="66" x="192" y="55.9951">name: str</text><text fill="#000000" font-family="sans-serif" font-size="14" lengthAdjust="spacing" textLength="242" x="192" y="72.292">preamble: List[DeclareAssignment]</text><text fill="#000000" font-family="sans-serif" font-size="14" lengthAdjust="spacing" textLength="121" x="192" y="88.5889">states: List[State]</text><text fill="#000000" font-family="sans-serif" font-size="14" lengthAdjust="spacing" textLength="128" x="192" y="104.8857">events: List[Event]</text><text fill="#000000" font-family="sans-serif" font-size="14" lengthAdjust="spacing" textLength="182" x="192" y="121.1826">transitions: List[Transition]</text><line style="stroke:#181818;stroke-width:0.5;" x1="187" x2="439" y1="128.4844" y2="128.4844"/></g><!--class DeclareAssignment--><g id="elem_DeclareAssignment"><rect codeLine="69" fill="#F1F1F1" height="64.2969" id="DeclareAssignment" rx="2.5" ry="2.5" style="stroke:#181818;stroke-width:0.5;" width="167" x="52.5" y="213.5"/><ellipse cx="67.5" cy="229.5" fill="#ADD1B2" rx="11" ry="11" style="stroke:#181818;stroke-width:1.0;"/><path d="M70.4688,235.1406 Q69.8906,235.4375 69.25,235.5781 Q68.6094,235.7344 67.9063,235.7344 Q65.4063,235.7344 64.0781,234.0938 Q62.7656,232.4375 62.7656,229.3125 Q62.7656,226.1875 64.0781,224.5313 Q65.4063,222.875 67.9063,222.875 Q68.6094,222.875 69.25,223.0313 Q69.9063,223.1875 70.4688,223.4844 L70.4688,226.2031 Q69.8438,225.625 69.25,225.3594 Q68.6563,225.0781 68.0313,225.0781 Q66.6875,225.0781 66,226.1563 Q65.3125,227.2188 65.3125,229.3125 Q65.3125,231.4063 66,232.4844 Q66.6875,233.5469 68.0313,233.5469 Q68.6563,233.5469 69.25,233.2813 Q69.8438,233 70.4688,232.4219 L70.4688,235.1406 Z " fill="#000000"/><text fill="#000000" font-family="sans-serif" font-size="14" lengthAdjust="spacing" textLength="135" x="81.5" y="234.3467">DeclareAssignment</text><line style="stroke:#181818;stroke-width:0.5;" x1="53.5" x2="218.5" y1="245.5" y2="245.5"/><text fill="#000000" font-family="sans-serif" font-size="14" lengthAdjust="spacing" textLength="140" x="58.5" y="262.4951">initial_value: number</text><line style="stroke:#181818;stroke-width:0.5;" x1="53.5" x2="218.5" y1="269.7969" y2="269.7969"/></g><!--class Assignment--><g id="elem_Assignment"><rect codeLine="65" fill="#F1F1F1" height="64.2969" id="Assignment" rx="2.5" ry="2.5" style="stroke:#181818;stroke-width:0.5;" width="114" x="7" y="39.5"/><ellipse cx="22" cy="55.5" fill="#A9DCDF" rx="11" ry="11" style="stroke:#181818;stroke-width:1.0;"/><path d="M22.1094,50.8438 L20.9531,55.9219 L23.2813,55.9219 L22.1094,50.8438 Z M20.625,48.6094 L23.6094,48.6094 L26.9688,61 L24.5156,61 L23.75,57.9375 L20.4688,57.9375 L19.7188,61 L17.2813,61 L20.625,48.6094 Z " fill="#000000"/><text fill="#000000" font-family="sans-serif" font-size="14" font-style="italic" lengthAdjust="spacing" textLength="82" x="36" y="60.3467">Assignment</text><line style="stroke:#181818;stroke-width:0.5;" x1="8" x2="120" y1="71.5" y2="71.5"/><text fill="#000000" font-family="sans-serif" font-size="14" lengthAdjust="spacing" textLength="66" x="13" y="88.4951">lvalue: str</text><line style="stroke:#181818;stroke-width:0.5;" x1="8" x2="120" y1="95.7969" y2="95.7969"/></g><!--reverse link State to UpdateAssignment--><g id="link_State_UpdateAssignment"><path codeLine="13" d="M370.62,574.87 C353.81,587.99 336.63,600.99 320,613 C301.92,626.05 281.49,639.51 263.29,651.07 " fill="none" id="State-backto-UpdateAssignment" style="stroke:#181818;stroke-width:1.0;"/><polygon fill="#181818" points="380.61,566.25,373.4205,566.8081,371.1705,573.6592,378.36,573.1011,380.61,566.25" style="stroke:#181818;stroke-width:1.0;"/><text fill="#000000" font-family="sans-serif" font-size="13" lengthAdjust="spacing" textLength="56" x="340" y="609.0669">on_entry</text><text fill="#000000" font-family="sans-serif" font-size="13" lengthAdjust="spacing" textLength="8" x="365.1451" y="585.7335">1</text><text fill="#000000" font-family="sans-serif" font-size="13" lengthAdjust="spacing" textLength="7" x="265.4" y="640.5096">*</text></g><!--reverse link State to UpdateAssignment--><g id="link_State_UpdateAssignment"><path codeLine="14" d="M351.18,560.04 C346.11,562.17 341.05,564.17 336,566 C257.3,594.6 204.29,532.25 150,596 C135.15,613.44 149.23,634.28 167.7,651.14 " fill="none" id="State-backto-UpdateAssignment-1" style="stroke:#181818;stroke-width:1.0;"/><polygon fill="#181818" points="362.73,554.49,355.6253,553.2557,351.7534,559.3392,358.8581,560.5735,362.73,554.49" style="stroke:#181818;stroke-width:1.0;"/><text fill="#000000" font-family="sans-serif" font-size="13" lengthAdjust="spacing" textLength="76" x="151" y="609.0669">on_duration</text><text fill="#000000" font-family="sans-serif" font-size="13" lengthAdjust="spacing" textLength="8" x="348.1684" y="571.6822">1</text><text fill="#000000" font-family="sans-serif" font-size="13" lengthAdjust="spacing" textLength="7" x="151.2894" y="640.3433">*</text></g><!--reverse link State to UpdateAssignment--><g id="link_State_UpdateAssignment"><path codeLine="15" d="M351.44,558.04 C346.26,560.77 341.1,563.44 336,566 C305.03,581.58 290.24,573.35 264,596 C246.76,610.89 233.62,632.96 224.86,651.08 " fill="none" id="State-backto-UpdateAssignment-2" style="stroke:#181818;stroke-width:1.0;"/><polygon fill="#181818" points="362.56,551.53,355.382,550.8399,351.9842,557.2003,359.1622,557.8904,362.56,551.53" style="stroke:#181818;stroke-width:1.0;"/><text fill="#000000" font-family="sans-serif" font-size="13" lengthAdjust="spacing" textLength="46" x="265" y="609.0669">on_exit</text><text fill="#000000" font-family="sans-serif" font-size="13" lengthAdjust="spacing" textLength="8" x="347.9891" y="552.74">1</text><text fill="#000000" font-family="sans-serif" font-size="13" lengthAdjust="spacing" textLength="7" x="219.6443" y="640.5215">*</text></g><!--reverse link State to CompositeState--><g id="link_State_CompositeState"><path codeLine="17" d="M463.43,586.81 C462.9,589.89 462.42,592.96 462,596 C460.96,603.48 461.78,605.45 462,613 C462.28,622.66 462.77,633.08 463.32,642.82 " fill="none" id="State-backto-CompositeState" style="stroke:#181818;stroke-width:1.0;"/><polygon fill="none" points="456.74,585.54,467.52,567.3,470.47,588.28,456.74,585.54" style="stroke:#181818;stroke-width:1.0;"/></g><!--reverse link CompositeState to State--><g id="link_CompositeState_State"><path codeLine="24" d="M474.03,629.05 C476.89,609.99 480.21,587.9 483.45,566.34 " fill="none" id="CompositeState-backto-State" style="stroke:#181818;stroke-width:1.0;"/><polygon fill="#181818" points="471.99,641.64,476.8416,636.305,473.783,629.7747,468.9314,635.1097,471.99,641.64" style="stroke:#181818;stroke-width:1.0;"/><text fill="#000000" font-family="sans-serif" font-size="13" lengthAdjust="spacing" textLength="33" x="479" y="609.0669">initial</text><text fill="#000000" font-family="sans-serif" font-size="13" lengthAdjust="spacing" textLength="8" x="464.3072" y="632.0425">1</text><text fill="#000000" font-family="sans-serif" font-size="13" lengthAdjust="spacing" textLength="24" x="457.5832" y="585.8298">0..1</text></g><!--reverse link CompositeState to State--><g id="link_CompositeState_State"><path codeLine="25" d="M512.41,631.1 C515.87,625.29 518.84,619.21 521,613 C526.14,598.22 527.44,582.19 526.46,566.37 " fill="none" id="CompositeState-backto-State-1" style="stroke:#181818;stroke-width:1.0;"/><polygon fill="#181818" points="504.75,641.62,511.403,638.8384,511.3942,631.6273,504.7412,634.4089,504.75,641.62" style="stroke:#181818;stroke-width:1.0;"/><text fill="#000000" font-family="sans-serif" font-size="13" lengthAdjust="spacing" textLength="40" x="525" y="609.0669">states</text><text fill="#000000" font-family="sans-serif" font-size="13" lengthAdjust="spacing" textLength="8" x="502.2883" y="632.0193">1</text><text fill="#000000" font-family="sans-serif" font-size="13" lengthAdjust="spacing" textLength="23" x="504.6525" y="585.8619">0..*</text></g><!--reverse link State to NormalState--><g id="link_State_NormalState"><path codeLine="27" d="M573.11,583.77 C592.01,612.52 610.4,640.51 622.75,659.3 " fill="none" id="State-backto-NormalState" style="stroke:#181818;stroke-width:1.0;"/><polygon fill="none" points="566.79,587.9,561.65,567.34,578.49,580.21,566.79,587.9" style="stroke:#181818;stroke-width:1.0;"/></g><!--reverse link State to PseudaState--><g id="link_State_PseudaState"><path codeLine="32" d="M648.17,578.67 C689.99,609.07 731.41,639.18 758.79,659.09 " fill="none" id="State-backto-PseudaState" style="stroke:#181818;stroke-width:1.0;"/><polygon fill="none" points="644.27,583.76,632.21,566.34,652.5,572.44,644.27,583.76" style="stroke:#181818;stroke-width:1.0;"/></g><!--reverse link Transition to State--><g id="link_Transition_State"><path codeLine="48" d="M454.17,305.66 C458.2,311.62 461.9,317.77 465,324 C472.24,338.53 477.91,354.68 482.36,370.76 " fill="none" id="Transition-backto-State" style="stroke:#181818;stroke-width:1.0;"/><polygon fill="#181818" points="446.06,295.48,446.3413,302.6856,453.1008,305.1974,452.8195,297.9917,446.06,295.48" style="stroke:#181818;stroke-width:1.0;"/><text fill="#000000" font-family="sans-serif" font-size="13" lengthAdjust="spacing" textLength="70" x="472" y="337.0669">from_state</text><text fill="#000000" font-family="sans-serif" font-size="13" lengthAdjust="spacing" textLength="7" x="444.513" y="313.7989">*</text><text fill="#000000" font-family="sans-serif" font-size="13" lengthAdjust="spacing" textLength="8" x="472.8563" y="359.7871">1</text></g><!--reverse link Transition to State--><g id="link_Transition_State"><path codeLine="49" d="M395.75,308.09 C396.53,319.27 398.39,330.65 402,341 C405.54,351.15 410.22,361.15 415.63,370.8 " fill="none" id="Transition-backto-State-1" style="stroke:#181818;stroke-width:1.0;"/><polygon fill="#181818" points="395.29,295.15,391.4901,301.2787,395.6858,307.1435,399.4857,301.0148,395.29,295.15" style="stroke:#181818;stroke-width:1.0;"/><text fill="#000000" font-family="sans-serif" font-size="13" lengthAdjust="spacing" textLength="53" x="403" y="337.0669">to_state</text><text fill="#000000" font-family="sans-serif" font-size="13" lengthAdjust="spacing" textLength="7" x="387.1355" y="314.13">*</text><text fill="#000000" font-family="sans-serif" font-size="13" lengthAdjust="spacing" textLength="8" x="401.0173" y="359.8302">1</text></g><!--reverse link Transition to Event--><g id="link_Transition_Event"><path codeLine="50" d="M362.18,306.47 C358.67,312.35 355.23,318.27 352,324 C332.6,358.47 312.35,398.67 298.11,427.75 " fill="none" id="Transition-backto-Event" style="stroke:#181818;stroke-width:1.0;"/><polygon fill="#181818" points="369.41,295.5,362.8826,298.5649,363.2012,305.7689,369.7286,302.7041,369.41,295.5" style="stroke:#181818;stroke-width:1.0;"/><text fill="#000000" font-family="sans-serif" font-size="13" lengthAdjust="spacing" textLength="36" x="353" y="337.0669">event</text><text fill="#000000" font-family="sans-serif" font-size="13" lengthAdjust="spacing" textLength="7" x="358.0422" y="313.8215">*</text><text fill="#000000" font-family="sans-serif" font-size="13" lengthAdjust="spacing" textLength="8" x="292.6126" y="416.8701">1</text></g><!--reverse link Statechart to DeclareAssignment--><g id="link_Statechart_DeclareAssignment"><path codeLine="60" d="M237.44,145.93 C213.24,169.44 187.72,194.24 168.34,213.08 " fill="none" id="Statechart-backto-DeclareAssignment" style="stroke:#181818;stroke-width:1.0;"/><polygon fill="#181818" points="246.34,137.3,239.2498,138.6151,237.7368,145.6657,244.827,144.3506,246.34,137.3" style="stroke:#181818;stroke-width:1.0;"/><text fill="#000000" font-family="sans-serif" font-size="13" lengthAdjust="spacing" textLength="8" x="231.2856" y="156.7063">1</text><text fill="#000000" font-family="sans-serif" font-size="13" lengthAdjust="spacing" textLength="7" x="166.8376" y="202.5215">*</text></g><!--reverse link Statechart to State--><g id="link_Statechart_State"><path codeLine="61" d="M426.79,144.76 C446.91,160.51 466.63,178.15 483,197 C524.98,245.34 535.42,261.9 551,324 C554.85,339.33 554.04,355.28 550.54,370.74 " fill="none" id="Statechart-backto-State" style="stroke:#181818;stroke-width:1.0;"/><polygon fill="none" points="416.92,136.46,419.2616,143.2803,426.4579,143.7421,424.1163,136.9217,416.92,136.46" style="stroke:#181818;stroke-width:1.0;"/><text fill="#000000" font-family="sans-serif" font-size="13" lengthAdjust="spacing" textLength="8" x="418.7394" y="156.433">1</text><text fill="#000000" font-family="sans-serif" font-size="13" lengthAdjust="spacing" textLength="7" x="547.1414" y="360.0938">*</text></g><!--reverse link Statechart to Event--><g id="link_Statechart_Event"><path codeLine="62" d="M306.32,150.15 C299.13,233.62 287.99,363 282.42,427.75 " fill="none" id="Statechart-backto-Event" style="stroke:#181818;stroke-width:1.0;"/><polygon fill="none" points="307.5,137.4,303.0006,143.0352,306.4718,149.3559,310.9712,143.7207,307.5,137.4" style="stroke:#181818;stroke-width:1.0;"/><text fill="#000000" font-family="sans-serif" font-size="13" lengthAdjust="spacing" textLength="8" x="298.4609" y="156.3664">1</text><text fill="#000000" font-family="sans-serif" font-size="13" lengthAdjust="spacing" textLength="7" x="275.4068" y="416.8701">*</text></g><!--reverse link Statechart to Transition--><g id="link_Statechart_Transition"><path codeLine="63" d="M351.4,148.42 C359.67,164.77 368.19,181.6 375.74,196.53 " fill="none" id="Statechart-backto-Transition" style="stroke:#181818;stroke-width:1.0;"/><polygon fill="none" points="345.15,137.06,344.2907,144.2197,350.5692,147.7666,351.4285,140.6069,345.15,137.06" style="stroke:#181818;stroke-width:1.0;"/><text fill="#000000" font-family="sans-serif" font-size="13" lengthAdjust="spacing" textLength="8" x="340.4048" y="156.4385">1</text><text fill="#000000" font-family="sans-serif" font-size="13" lengthAdjust="spacing" textLength="7" x="365.0098" y="186.025">*</text></g><!--reverse link Assignment to DeclareAssignment--><g id="link_Assignment_DeclareAssignment"><path codeLine="73" d="M85.14,123 C97.33,152.13 112.29,187.85 122.82,213 " fill="none" id="Assignment-backto-DeclareAssignment" style="stroke:#181818;stroke-width:1.0;"/><polygon fill="none" points="78.3,125.8,77.04,104.65,91.22,120.39,78.3,125.8" style="stroke:#181818;stroke-width:1.0;"/></g><!--reverse link Assignment to UpdateAssignment--><g id="link_Assignment_UpdateAssignment"><path codeLine="79" d="M49.19,124.09 C43.54,146.32 37.79,172.73 35,197 C30.08,239.83 28.48,251.39 35,294 C57.48,440.87 54.8,487.92 135,613 C144.14,627.25 156.95,640.41 169.5,651.35 " fill="none" id="Assignment-backto-UpdateAssignment" style="stroke:#181818;stroke-width:1.0;"/><polygon fill="none" points="42.67,122.39,54.59,104.88,56.19,126,42.67,122.39" style="stroke:#181818;stroke-width:1.0;"/></g><!--SRC=[ZLJ9JiCm4BtxAwmSAwM2Qmv82BWXGAASAXHD4rCiOZkodQfLwR_ZU9obMKfxScVUl7cp1JR6QiWipGemXhvRi8mU2NK_2O8brBdzlvoPJFFISYKxepsK3kA3LkxfROBBr7B1qa9bFmdbqg8PzbDc9LCchJuaz9aRk_ueSyTrRmpVIk4SdmqehpHWxiiujkVs8eRjtDC4oDFEsq-4OE7HRKGNSKoZHKI7uKchzLfme_bgSgUTa0SbIcMuPHWLLsNyUuSz9WIdD83WkBZabaEHq5S_92ZMtejLc_hPL1tifr6kLk7DSkcUQ4mQvaleHOV6L8IyA2sWc2-Yxp_MOjuCgtAO3-ZxZwIEGBiVukJERYlGUGTSQP1ElcjEGFjTI9306xwq4gal86mrRhawjvr8ZwcUfkz2hs4TpN_8XdeEXxKbgBIfmmTdtw2dgour0x4fM9Zs8tDHUdG7KninTn- -2Qt0njb9xYu8LVKtVPH-25G1YBsTSUA8PfoT44BW_7lMfGsjAdPGLA5PxMACD9wVL1fYP2Ksp8UD0yB2zieCtCDB3zGwSBAz6vTpEksETmGUqVu1]--></g></svg>