<svg xmlns="http://www.w3.org/2000/svg" xmlns:xlink="http://www.w3.org/1999/xlink" version="1.1" data-diagram-type="STATE" style="width:837px;height:1902px;background:#FFFFFF;" width="837px" height="1902px" viewBox="0 0 837 1902" zoomAndPan="magnify" preserveAspectRatio="none" contentStyleType="text/css"><?plantuml 1.2026.8beta1?><defs/><g font-family="sans-serif" lengthAdjust="spacing"><g class="legend" data-source-line="10"><rect x="12" y="12" width="299.994" height="193.266" fill="#DDD" style="stroke:#000;stroke-width:1;" rx="7.5" ry="7.5"/><text x="21.874" y="31.995" fill="#000" font-size="14" textLength="65.748" font-weight="700">Variable</text><text x="101.314" y="31.995" fill="#000" font-size="14" textLength="38.192" font-weight="700">Type</text><text x="149.255" y="31.995" fill="#000" font-size="14" textLength="95.129" font-weight="700">Initial Value</text><text x="254.132" y="31.995" fill="#000" font-size="14" textLength="34.692" font-weight="700">Role</text><text x="21.45" y="48.292" fill="#000" font-size="14" textLength="70.54">maximum</text><text x="100.891" y="48.292" fill="#000" font-size="14" textLength="18.252">int</text><text x="148.831" y="48.292" fill="#000" font-size="14">0</text><text x="253.708" y="48.292" fill="#000" font-size="14" textLength="45.438">param</text><text x="21.45" y="64.589" fill="#000" font-size="14" textLength="63.212">quantum</text><text x="100.891" y="64.589" fill="#000" font-size="14" textLength="18.252">int</text><text x="148.831" y="64.589" fill="#000" font-size="14">0</text><text x="253.708" y="64.589" fill="#000" font-size="14" textLength="45.438">param</text><text x="21.45" y="80.886" fill="#000" font-size="14" textLength="49.711">display</text><text x="100.891" y="80.886" fill="#000" font-size="14" textLength="18.252">int</text><text x="148.831" y="80.886" fill="#000" font-size="14">0</text><text x="253.708" y="80.886" fill="#000" font-size="14" textLength="48.836">control</text><text x="21.45" y="97.183" fill="#000" font-size="14" textLength="41.658">saved</text><text x="100.891" y="97.183" fill="#000" font-size="14" textLength="18.252">int</text><text x="148.831" y="97.183" fill="#000" font-size="14">0</text><text x="253.708" y="97.183" fill="#000" font-size="14" textLength="48.836">control</text><text x="21.45" y="113.479" fill="#000" font-size="14" textLength="63.854">snapshot</text><text x="100.891" y="113.479" fill="#000" font-size="14" textLength="18.252">int</text><text x="148.831" y="113.479" fill="#000" font-size="14">0</text><text x="253.708" y="113.479" fill="#000" font-size="14" textLength="48.836">control</text><text x="21.45" y="129.776" fill="#000" font-size="14" textLength="60.423">proposal</text><text x="100.891" y="129.776" fill="#000" font-size="14" textLength="18.252">int</text><text x="148.831" y="129.776" fill="#000" font-size="14">0</text><text x="253.708" y="129.776" fill="#000" font-size="14" textLength="48.836">control</text><text x="21.45" y="146.073" fill="#000" font-size="14" textLength="49.622">margin</text><text x="100.891" y="146.073" fill="#000" font-size="14" textLength="18.252">int</text><text x="148.831" y="146.073" fill="#000" font-size="14">0</text><text x="253.708" y="146.073" fill="#000" font-size="14" textLength="48.836">control</text><text x="21.45" y="162.37" fill="#000" font-size="14" textLength="35.458">delta</text><text x="100.891" y="162.37" fill="#000" font-size="14" textLength="18.252">int</text><text x="148.831" y="162.37" fill="#000" font-size="14">0</text><text x="253.708" y="162.37" fill="#000" font-size="14" textLength="48.836">control</text><text x="21.45" y="178.667" fill="#000" font-size="14" textLength="45.931">refund</text><text x="100.891" y="178.667" fill="#000" font-size="14" textLength="18.252">int</text><text x="148.831" y="178.667" fill="#000" font-size="14">0</text><text x="253.708" y="178.667" fill="#000" font-size="14" textLength="48.836">control</text><text x="21.45" y="194.964" fill="#000" font-size="14" textLength="35.718">audit</text><text x="100.891" y="194.964" fill="#000" font-size="14" textLength="18.252">int</text><text x="148.831" y="194.964" fill="#000" font-size="14">0</text><text x="253.708" y="194.964" fill="#000" font-size="14" textLength="48.836">control</text><line x1="17" y1="19" x2="306.994" y2="19" style="stroke:#000;stroke-width:1;"/><line x1="17" y1="35.297" x2="306.994" y2="35.297" style="stroke:#000;stroke-width:1;"/><line x1="17" y1="51.594" x2="306.994" y2="51.594" style="stroke:#000;stroke-width:1;"/><line x1="17" y1="67.891" x2="306.994" y2="67.891" style="stroke:#000;stroke-width:1;"/><line x1="17" y1="84.188" x2="306.994" y2="84.188" style="stroke:#000;stroke-width:1;"/><line x1="17" y1="100.484" x2="306.994" y2="100.484" style="stroke:#000;stroke-width:1;"/><line x1="17" y1="116.781" x2="306.994" y2="116.781" style="stroke:#000;stroke-width:1;"/><line x1="17" y1="133.078" x2="306.994" y2="133.078" style="stroke:#000;stroke-width:1;"/><line x1="17" y1="149.375" x2="306.994" y2="149.375" style="stroke:#000;stroke-width:1;"/><line x1="17" y1="165.672" x2="306.994" y2="165.672" style="stroke:#000;stroke-width:1;"/><line x1="17" y1="181.969" x2="306.994" y2="181.969" style="stroke:#000;stroke-width:1;"/><line x1="17" y1="198.266" x2="306.994" y2="198.266" style="stroke:#000;stroke-width:1;"/><line x1="17" y1="19" x2="17" y2="198.266" style="stroke:#000;stroke-width:1;"/><line x1="96.44" y1="19" x2="96.44" y2="198.266" style="stroke:#000;stroke-width:1;"/><line x1="144.381" y1="19" x2="144.381" y2="198.266" style="stroke:#000;stroke-width:1;"/><line x1="249.258" y1="19" x2="249.258" y2="198.266" style="stroke:#000;stroke-width:1;"/><line x1="306.994" y1="19" x2="306.994" y2="198.266" style="stroke:#000;stroke-width:1;"/></g><g class="entity" data-qualified-name="dose_editor" id="ent0001" data-source-line="24"><path d="M19.5,304.266 L810.32,304.266 A12.5,12.5 0 0 1 822.82,316.766 L822.82,330.563 L7,330.563 L7,316.766 A12.5,12.5 0 0 1 19.5,304.266" fill="#ADD8E6"/><path d="M7,330.563 L822.82,330.563 L822.82,1793.663 A12.5,12.5 0 0 1 810.32,1806.163 L19.5,1806.163 A12.5,12.5 0 0 1 7,1793.663 L7,330.563" fill="#ADD8E6"/><rect x="7" y="304.266" width="815.82" height="1501.897" fill="none" style="stroke:#181818;stroke-width:0.5;" rx="12.5" ry="12.5"/><line x1="7" y1="330.563" x2="822.82" y2="330.563" style="stroke:#181818;stroke-width:0.5;"/><text x="376.567" y="322.261" fill="#000" font-size="14" textLength="76.686">DoseEditor</text><rect x="546.47" y="398.563" width="50" height="40" fill="#F1F1F1" style="stroke:#181818;stroke-width:0.5;" rx="12.5" ry="12.5"/><text x="558.711" y="423.409" fill="#000" font-size="14" textLength="25.519">Idle</text><g class="entity" data-qualified-name="dose_editor.dose_editor__editing" id="ent0003" data-source-line="26"><path d="M31.5,584.563 L631.44,584.563 A12.5,12.5 0 0 1 643.94,597.063 L643.94,610.859 L19,610.859 L19,597.063 A12.5,12.5 0 0 1 31.5,584.563" fill="#ADD8E6"/><path d="M19,610.859 L643.94,610.859 L643.94,1703.659 A12.5,12.5 0 0 1 631.44,1716.159 L31.5,1716.159 A12.5,12.5 0 0 1 19,1703.659 L19,610.859" fill="#ADD8E6"/><rect x="19" y="584.563" width="624.94" height="1131.597" fill="none" style="stroke:#181818;stroke-width:0.5;" rx="12.5" ry="12.5"/><line x1="19" y1="610.859" x2="643.94" y2="610.859" style="stroke:#181818;stroke-width:0.5;"/><text x="307.09" y="602.558" fill="#000" font-size="14" textLength="48.761">Editing</text><g class="entity" data-qualified-name="dose_editor.dose_editor__editing.dose_editor__editing__adjust" id="ent0004" data-source-line="27"><path d="M43.5,678.859 L607.44,678.859 A12.5,12.5 0 0 1 619.94,691.359 L619.94,705.156 L31,705.156 L31,691.359 A12.5,12.5 0 0 1 43.5,678.859" fill="#ADD8E6"/><path d="M31,705.156 L619.94,705.156 L619.94,1380.656 A12.5,12.5 0 0 1 607.44,1393.156 L43.5,1393.156 A12.5,12.5 0 0 1 31,1380.656 L31,705.156" fill="#ADD8E6"/><rect x="31" y="678.859" width="588.94" height="714.297" fill="none" style="stroke:#181818;stroke-width:0.5;" rx="12.5" ry="12.5"/><line x1="31" y1="705.156" x2="619.94" y2="705.156" style="stroke:#181818;stroke-width:0.5;"/><text x="303.465" y="696.854" fill="#000" font-size="14" textLength="44.01">Adjust</text><rect x="214.1" y="773.156" width="61.687" height="40" fill="#F1F1F1" style="stroke:#181818;stroke-width:0.5;" rx="12.5" ry="12.5"/><text x="219.1" y="798.003" fill="#000" font-size="14" textLength="51.687">Choose</text><rect x="181.65" y="1172.156" width="60.579" height="40" fill="#F1F1F1" style="stroke:#181818;stroke-width:0.5;" rx="12.5" ry="12.5"/><text x="186.65" y="1197.003" fill="#000" font-size="14" textLength="50.579">Review</text><rect x="113.94" y="1265.156" width="50" height="40" fill="#F1F1F1" style="stroke:#181818;stroke-width:0.5;" rx="12.5" ry="12.5"/><text x="123.023" y="1290.003" fill="#000" font-size="14" textLength="31.835">Trim</text><rect x="71" y="894.656" width="163.891" height="40" fill="#D3D3D3" style="stroke:#808080;stroke-width:1;stroke-dasharray:1,3;" rx="12.5" ry="12.5"/><text x="76" y="919.503" fill="#000" font-size="14" textLength="153.891" font-style="italic">combo after /Increase</text><g class="start_entity" data-qualified-name="dose_editor.dose_editor__editing.dose_editor__editing__adjust..start.dose_editor__editing__adjust" id="ent0013" data-source-line="32"><ellipse cx="244.94" cy="726.156" rx="10" ry="10" fill="#222" style="stroke:#222;stroke-width:1;"/></g><g class="end_entity" data-qualified-name="dose_editor.dose_editor__editing.dose_editor__editing__adjust..end.dose_editor__editing__adjust" id="ent0019" data-source-line="54"><ellipse cx="208.94" cy="1369.156" rx="11" ry="11" fill="none" style="stroke:#222;stroke-width:1;"/><ellipse cx="208.94" cy="1369.156" rx="6" ry="6" fill="#222" style="stroke:#222;stroke-width:1;"/></g><!--link *start*dose_editor__editing__adjust to dose_editor__editing__adjust__choose--><g class="link" data-entity-1="ent0013" data-entity-2="ent0005" id="lnk14" data-source-line="32" data-link-type="dependency"><path d="M244.94,736.466 C244.94,745.876 244.94,755.696 244.94,767.676" style="stroke:#181818;stroke-width:1;" fill="none" id="*start*dose_editor__editing__adjust-to-dose_editor__editing__adjust__choose"/><polygon points="244.94,772.676,248.94,763.676,244.94,767.676,240.94,763.676,244.94,772.676" fill="#181818" style="stroke:#181818;stroke-width:1;stroke-linejoin:miter;stroke-miterlimit:10;"/></g><!--link dose_editor__editing__adjust__choose to dose_editor__editing__adjust___combo_doseeditor_editing_adjust_choose_abs_increase_h4bd867e9e598--><g class="link" data-entity-1="ent0005" data-entity-2="ent0008" id="lnk15" data-source-line="33" data-link-type="dependency"><path d="M229.96,813.626 C212.85,835.846 188.081,868.015 170.971,890.235" style="stroke:#181818;stroke-width:1;" fill="none" id="dose_editor__editing__adjust__choose-to-dose_editor__editing__adjust___combo_doseeditor_editing_adjust_choose_abs_increase_h4bd867e9e598"/><polygon points="167.92,894.196,176.58,889.506,170.971,890.235,170.242,884.625,167.92,894.196" fill="#181818" style="stroke:#181818;stroke-width:1;stroke-linejoin:miter;stroke-miterlimit:10;"/><text x="216.94" y="844.223" fill="#000" font-size="13" textLength="59.681">/Increase</text></g><!--link dose_editor__editing__adjust___combo_doseeditor_editing_adjust_choose_abs_increase_h4bd867e9e598 to dose_editor__editing__adjust__review--><g class="link" data-entity-1="ent0008" data-entity-2="ent0006" id="lnk16" data-source-line="34" data-link-type="dependency"><path d="M125.29,935.016 C111.25,946.586 95.57,962.636 87.94,981.156 C58.65,1052.246 42,1092.506 87.94,1154.156 C109.29,1182.796 146.956,1189.889 176.226,1191.339" style="stroke:#181818;stroke-width:1;" fill="none" id="dose_editor__editing__adjust___combo_doseeditor_editing_adjust_choose_abs_increase_h4bd867e9e598-to-dose_editor__editing__adjust__review"/><polygon points="181.22,1191.586,172.429,1187.146,176.226,1191.339,172.033,1195.136,181.22,1191.586" fill="#181818" style="stroke:#181818;stroke-width:1;stroke-linejoin:miter;stroke-miterlimit:10;"/><text x="162.559" y="994.223" fill="#000" font-size="13" textLength="86.125">quantum > 0</text><path d="M92.94,1003.289 L92.94,1149.289 L317.94,1149.289 L317.94,1013.289 L307.94,1003.289 L92.94,1003.289" style="stroke:#181818;stroke-width:0.5;" fill="#FEFFDD"/><path d="M307.94,1003.289 L307.94,1013.289 L317.94,1013.289 L307.94,1003.289" style="stroke:#181818;stroke-width:0.5;" fill="#FEFFDD"/><text x="98.94" y="1020.356" fill="#000" font-size="13" textLength="49.797">effect {</text><text x="115.469" y="1035.489" fill="#000" font-size="13" textLength="181.835">if [margin > quantum * 2] {</text><text x="115.469" y="1050.622" fill="#000" font-size="13" textLength="138.195">delta = quantum * 2;</text><text x="98.94" y="1065.754" fill="#000" font-size="13" textLength="51.188">} else {</text><text x="115.469" y="1080.887" fill="#000" font-size="13" textLength="115.159">delta = quantum;</text><text x="98.94" y="1096.02" fill="#000" font-size="13">}</text><text x="115.469" y="1111.153" fill="#000" font-size="13" textLength="187.833">proposal = proposal + delta;</text><text x="115.469" y="1126.286" fill="#000" font-size="13" textLength="161.573">margin = margin - delta;</text><text x="98.94" y="1141.418" fill="#000" font-size="13">}</text></g><!--link dose_editor__editing__adjust__review to dose_editor__editing__adjust__choose--><g class="link" data-entity-1="ent0006" data-entity-2="ent0005" id="lnk17" data-source-line="46" data-link-type="dependency"><path d="M242.56,1190.256 C268.67,1187.656 304.77,1179.366 322.94,1154.156 C407.59,1036.716 353.17,956.616 280.94,831.156 C277.28,824.786 275.72,822.315 270.61,816.985" style="stroke:#181818;stroke-width:1;" fill="none" id="dose_editor__editing__adjust__review-to-dose_editor__editing__adjust__choose"/><polygon points="267.15,813.376,270.491,822.641,270.61,816.985,276.266,817.105,267.15,813.376" fill="#181818" style="stroke:#181818;stroke-width:1;stroke-linejoin:miter;stroke-miterlimit:10;"/><text x="456.624" y="879.223" fill="#000" font-size="13" textLength="38.34">/Undo</text><path d="M354.94,888.289 L354.94,958.289 L595.94,958.289 L595.94,898.289 L585.94,888.289 L354.94,888.289" style="stroke:#181818;stroke-width:0.5;" fill="#FEFFDD"/><path d="M585.94,888.289 L585.94,898.289 L595.94,898.289 L585.94,888.289" style="stroke:#181818;stroke-width:0.5;" fill="#FEFFDD"/><text x="360.94" y="905.356" fill="#000" font-size="13" textLength="49.797">effect {</text><text x="377.469" y="920.489" fill="#000" font-size="13" textLength="138.938">proposal = snapshot;</text><text x="377.469" y="935.622" fill="#000" font-size="13" textLength="204.179">margin = maximum - proposal;</text><text x="360.94" y="950.754" fill="#000" font-size="13">}</text></g><!--link dose_editor__editing__adjust__review to dose_editor__editing__adjust__trim--><g class="link" data-entity-1="ent0006" data-entity-2="ent0007" id="lnk18" data-source-line="53" data-link-type="dependency"><path d="M181.29,1203.226 C168.33,1209.056 154.33,1217.746 145.94,1230.156 C139.17,1240.186 137.447,1248.686 137.387,1259.676" style="stroke:#181818;stroke-width:1;" fill="none" id="dose_editor__editing__adjust__review-to-dose_editor__editing__adjust__trim"/><polygon points="137.36,1264.676,141.409,1255.698,137.387,1259.676,133.409,1255.655,137.36,1264.676" fill="#181818" style="stroke:#181818;stroke-width:1;stroke-linejoin:miter;stroke-miterlimit:10;"/><text x="146.94" y="1243.223" fill="#000" font-size="13" textLength="123.932">margin &lt; quantum</text></g><!--link dose_editor__editing__adjust__review to *end*dose_editor__editing__adjust--><g class="link" data-entity-1="ent0006" data-entity-2="ent0019" id="lnk20" data-source-line="54" data-link-type="dependency"><path d="M242.58,1204.826 C253.56,1210.666 264.74,1218.946 270.94,1230.156 C294.61,1272.936 297.46,1299.086 270.94,1340.156 C259.67,1357.616 239.52,1363.471 224.95,1365.941" style="stroke:#181818;stroke-width:1;" fill="none" id="dose_editor__editing__adjust__review-to-*end*dose_editor__editing__adjust"/><polygon points="220.02,1366.776,229.562,1369.216,224.95,1365.941,228.225,1361.328,220.02,1366.776" fill="#181818" style="stroke:#181818;stroke-width:1;stroke-linejoin:miter;stroke-miterlimit:10;"/><text x="290.94" y="1289.723" fill="#000" font-size="13" textLength="134.824">margin >= quantum</text></g><!--link dose_editor__editing__adjust__trim to *end*dose_editor__editing__adjust--><g class="link" data-entity-1="ent0007" data-entity-2="ent0019" id="lnk21" data-source-line="55" data-link-type="dependency"><path d="M131.88,1305.476 C129.12,1316.546 128.05,1330.176 134.94,1340.156 C149.23,1360.836 175.917,1365.841 192.827,1367.251" style="stroke:#181818;stroke-width:1;" fill="none" id="dose_editor__editing__adjust__trim-to-*end*dose_editor__editing__adjust"/><polygon points="197.81,1367.666,189.174,1362.932,192.827,1367.251,188.509,1370.905,197.81,1367.666" fill="#181818" style="stroke:#181818;stroke-width:1;stroke-linejoin:miter;stroke-miterlimit:10;"/><text x="135.94" y="1336.223" fill="#000" font-size="13" textLength="134.824">margin >= quantum</text></g></g><rect x="298.42" y="1430.159" width="54.092" height="40" fill="#F1F1F1" style="stroke:#181818;stroke-width:0.5;" rx="12.5" ry="12.5"/><text x="303.42" y="1455.006" fill="#000" font-size="14" textLength="44.092">Ready</text><rect x="245.59" y="1523.159" width="159.762" height="40" fill="#D3D3D3" style="stroke:#808080;stroke-width:1;stroke-dasharray:1,3;" rx="12.5" ry="12.5"/><text x="250.59" y="1548.006" fill="#000" font-size="14" textLength="149.762" font-style="italic">combo after /Confirm</text><g class="start_entity" data-qualified-name="dose_editor.dose_editor__editing..start.dose_editor__editing" id="ent0022" data-source-line="59"><ellipse cx="325.47" cy="631.859" rx="10" ry="10" fill="#222" style="stroke:#222;stroke-width:1;"/></g><g class="end_entity" data-qualified-name="dose_editor.dose_editor__editing..end.dose_editor__editing" id="ent0026" data-source-line="62"><ellipse cx="325.47" cy="1692.159" rx="11" ry="11" fill="none" style="stroke:#222;stroke-width:1;"/><ellipse cx="325.47" cy="1692.159" rx="6" ry="6" fill="#222" style="stroke:#222;stroke-width:1;"/></g><!--link *start*dose_editor__editing to dose_editor__editing__adjust--><g class="link" data-entity-1="ent0022" data-entity-2="ent0004" id="lnk23" data-source-line="59" data-link-type="dependency"><path d="M325.47,642.019 C325.47,649.909 325.47,657.549 325.47,673.549" style="stroke:#181818;stroke-width:1;" fill="none" id="*start*dose_editor__editing-to-dose_editor__editing__adjust"/><polygon points="325.47,678.549,329.47,669.549,325.47,673.549,321.47,669.549,325.47,678.549" fill="#181818" style="stroke:#181818;stroke-width:1;stroke-linejoin:miter;stroke-miterlimit:10;"/></g><!--link dose_editor__editing__adjust to dose_editor__editing__ready--><g class="link" data-entity-1="ent0004" data-entity-2="ent0009" id="lnk24" data-source-line="60" data-link-type="dependency"><path d="M325.47,1393.579 C325.47,1408.049 325.47,1415.349 325.47,1424.669" style="stroke:#181818;stroke-width:1;" fill="none" id="dose_editor__editing__adjust-to-dose_editor__editing__ready"/><polygon points="325.47,1429.669,329.47,1420.669,325.47,1424.669,321.47,1420.669,325.47,1429.669" fill="#181818" style="stroke:#181818;stroke-width:1;stroke-linejoin:miter;stroke-miterlimit:10;"/></g><!--link dose_editor__editing__ready to dose_editor__editing___combo_doseeditor_editing_ready_abs_confirm_h1eedf1f5d924--><g class="link" data-entity-1="ent0009" data-entity-2="ent0010" id="lnk25" data-source-line="61" data-link-type="dependency"><path d="M325.47,1470.459 C325.47,1485.899 325.47,1502.449 325.47,1517.889" style="stroke:#181818;stroke-width:1;" fill="none" id="dose_editor__editing__ready-to-dose_editor__editing___combo_doseeditor_editing_ready_abs_confirm_h1eedf1f5d924"/><polygon points="325.47,1522.889,329.47,1513.889,325.47,1517.889,321.47,1513.889,325.47,1522.889" fill="#181818" style="stroke:#181818;stroke-width:1;stroke-linejoin:miter;stroke-miterlimit:10;"/><text x="326.47" y="1501.226" fill="#000" font-size="13" textLength="55.847">/Confirm</text></g><!--link dose_editor__editing___combo_doseeditor_editing_ready_abs_confirm_h1eedf1f5d924 to *end*dose_editor__editing--><g class="link" data-entity-1="ent0010" data-entity-2="ent0026" id="lnk27" data-source-line="62" data-link-type="dependency"><path d="M325.47,1563.379 C325.47,1594.819 325.47,1651.199 325.47,1675.699" style="stroke:#181818;stroke-width:1;" fill="none" id="dose_editor__editing___combo_doseeditor_editing_ready_abs_confirm_h1eedf1f5d924-to-*end*dose_editor__editing"/><polygon points="325.47,1680.699,329.47,1671.699,325.47,1675.699,321.47,1671.699,325.47,1680.699" fill="#181818" style="stroke:#181818;stroke-width:1;stroke-linejoin:miter;stroke-miterlimit:10;"/><text x="340.986" y="1594.226" fill="#000" font-size="13" textLength="134.824">margin >= quantum</text><path d="M330.47,1603.292 L330.47,1658.292 L485.47,1658.292 L485.47,1613.292 L475.47,1603.292 L330.47,1603.292" style="stroke:#181818;stroke-width:0.5;" fill="#FEFFDD"/><path d="M475.47,1603.292 L475.47,1613.292 L485.47,1613.292 L475.47,1603.292" style="stroke:#181818;stroke-width:0.5;" fill="#FEFFDD"/><text x="336.47" y="1620.359" fill="#000" font-size="13" textLength="49.797">effect {</text><text x="352.999" y="1635.492" fill="#000" font-size="13" textLength="118.327">saved = proposal;</text><text x="336.47" y="1650.625" fill="#000" font-size="13">}</text></g></g><rect x="457.48" y="1753.163" width="87.984" height="40" fill="#F1F1F1" style="stroke:#181818;stroke-width:0.5;" rx="12.5" ry="12.5"/><text x="462.48" y="1778.009" fill="#000" font-size="14" textLength="77.984">Committed</text><rect x="401.61" y="491.563" width="141.729" height="40" fill="#D3D3D3" style="stroke:#808080;stroke-width:1;stroke-dasharray:1,3;" rx="12.5" ry="12.5"/><text x="406.61" y="516.409" fill="#000" font-size="14" textLength="131.729" font-style="italic">combo after /Open</text><g class="start_entity" data-qualified-name="dose_editor..start.dose_editor" id="ent0028" data-source-line="71"><ellipse cx="571.47" cy="351.563" rx="10" ry="10" fill="#222" style="stroke:#222;stroke-width:1;"/></g><!--link *start*dose_editor to dose_editor__idle--><g class="link" data-entity-1="ent0028" data-entity-2="ent0002" id="lnk29" data-source-line="71" data-link-type="dependency"><path d="M571.47,361.882 C571.47,371.282 571.47,381.102 571.47,393.093" style="stroke:#181818;stroke-width:1;" fill="none" id="*start*dose_editor-to-dose_editor__idle"/><polygon points="571.47,398.093,575.47,389.093,571.47,393.093,567.47,389.093,571.47,398.093" fill="#181818" style="stroke:#181818;stroke-width:1;stroke-linejoin:miter;stroke-miterlimit:10;"/></g><!--link dose_editor__idle to dose_editor___combo_doseeditor_idle_abs_open_h8c837e3b1e99--><g class="link" data-entity-1="ent0002" data-entity-2="ent0012" id="lnk30" data-source-line="72" data-link-type="dependency"><path d="M550.47,438.862 C533.67,454.303 513.911,472.479 497.121,487.909" style="stroke:#181818;stroke-width:1;" fill="none" id="dose_editor__idle-to-dose_editor___combo_doseeditor_idle_abs_open_h8c837e3b1e99"/><polygon points="493.44,491.293,502.773,488.148,497.121,487.909,497.36,482.257,493.44,491.293" fill="#181818" style="stroke:#181818;stroke-width:1;stroke-linejoin:miter;stroke-miterlimit:10;"/><text x="532.47" y="469.629" fill="#000" font-size="13" textLength="34.722">Open</text></g><!--link dose_editor___combo_doseeditor_idle_abs_open_h8c837e3b1e99 to dose_editor__editing--><g class="link" data-entity-1="ent0012" data-entity-2="ent0003" id="lnk31" data-source-line="73" data-link-type="dependency"><path d="M429.95,532.043 C423.18,536.882 416.94,542.692 412.47,549.563 C405.17,560.803 400.732,567.98 394.452,579.89" style="stroke:#181818;stroke-width:1;" fill="none" id="dose_editor___combo_doseeditor_idle_abs_open_h8c837e3b1e99-to-dose_editor__editing"/><polygon points="392.12,584.313,399.856,578.217,394.452,579.89,392.78,574.486,392.12,584.313" fill="#181818" style="stroke:#181818;stroke-width:1;stroke-linejoin:miter;stroke-miterlimit:10;"/><text x="413.47" y="562.629" fill="#000" font-size="13" textLength="243.839">display >= 0 &amp;&amp; display &lt; maximum</text></g><!--link dose_editor__editing to dose_editor__committed--><g class="link" data-entity-1="ent0003" data-entity-2="ent0011" id="lnk32" data-source-line="74" data-link-type="dependency"><path d="M486.23,1716.522 C490.26,1731.212 492.286,1738.651 494.826,1747.901" style="stroke:#181818;stroke-width:1;" fill="none" id="dose_editor__editing-to-dose_editor__committed"/><polygon points="496.15,1752.722,497.624,1742.985,494.826,1747.901,489.91,1745.103,496.15,1752.722" fill="#181818" style="stroke:#181818;stroke-width:1;stroke-linejoin:miter;stroke-miterlimit:10;"/></g><!--link dose_editor__committed to dose_editor__idle--><g class="link" data-entity-1="ent0011" data-entity-2="ent0002" id="lnk33" data-source-line="75" data-link-type="dependency"><path d="M545.69,1768.942 C581.05,1763.762 628.52,1750.423 652.47,1716.163 C798.82,1506.773 656.91,822.032 657.47,566.563 C657.49,559.012 659.65,556.803 657.47,549.563 C644.22,505.512 613.95,466.39 592.89,442.55" style="stroke:#181818;stroke-width:1;" fill="none" id="dose_editor__committed-to-dose_editor__idle"/><polygon points="589.58,438.803,592.541,448.196,592.89,442.55,598.536,442.899,589.58,438.803" fill="#181818" style="stroke:#181818;stroke-width:1;stroke-linejoin:miter;stroke-miterlimit:10;"/></g></g><g class="start_entity" data-qualified-name=".start." id="ent0034" data-source-line="77"><ellipse cx="414.91" cy="234.266" rx="10" ry="10" fill="#222" style="stroke:#222;stroke-width:1;"/></g><g class="end_entity" data-qualified-name=".end." id="ent0036" data-source-line="78"><ellipse cx="414.91" cy="1877.166" rx="11" ry="11" fill="none" style="stroke:#222;stroke-width:1;"/><ellipse cx="414.91" cy="1877.166" rx="6" ry="6" fill="#222" style="stroke:#222;stroke-width:1;"/></g><!--link *start* to dose_editor--><g class="link" data-entity-1="ent0034" data-entity-2="ent0001" id="lnk35" data-source-line="77" data-link-type="dependency"><path d="M414.91,244.746 C414.91,255.926 414.91,271.516 414.91,299.056" style="stroke:#181818;stroke-width:1;" fill="none" id="*start*-to-dose_editor"/><polygon points="414.91,304.056,418.91,295.056,414.91,299.056,410.91,295.056,414.91,304.056" fill="#181818" style="stroke:#181818;stroke-width:1;stroke-linejoin:miter;stroke-miterlimit:10;"/></g><!--link dose_editor to *end*--><g class="link" data-entity-1="ent0001" data-entity-2="ent0036" id="lnk37" data-source-line="78" data-link-type="dependency"><path d="M414.91,1806.616 C414.91,1833.966 414.91,1849.556 414.91,1860.986" style="stroke:#181818;stroke-width:1;" fill="none" id="dose_editor-to-*end*"/><polygon points="414.91,1865.986,418.91,1856.986,414.91,1860.986,410.91,1856.986,414.91,1865.986" fill="#181818" style="stroke:#181818;stroke-width:1;stroke-linejoin:miter;stroke-miterlimit:10;"/></g><?plantuml-src nLThJzim5FtkNs4nYGzCtNYCqK9RQNGF8KsQnDY-81IvyKtZaTYPux1Le_zzTbuaJPoc7T8gqIQvvnvV7n_V69zHm116QeafnAvaaMA28nJVCnuHIK8SAw80_q4ONnBtVY55mkbC14AEnr4C2HNJAVxC5hxw9Cco3UMAC18nKr00BuC435182dATAcVvABZwgfO1L49CaO2vQ8LG00lW52iHuG0yXHud-3kHZCm3mFhwPXcblrUSAKO27TCZcWVNmW3G8mx9RnOc8Nx4Z2lzVQZ_ikcQwC-4S6MDKXP70LdMegukLueWZSVa0QWzoaaK-q9P0P4KMYvTjGqG4hbWt1gc42XYZKhmzCfOmoIXp5QQLZpJNRiZzSJUUn731vqWv1ucCQRwre7q7jUNtRW7vqxQkz8qwtZ7OVff5MLu6LyqWP05MaUevB-ZFv9OMTCTXwG0Aqs5QkOBpR2Hod7S5DX6SGqF37xre90fi8tYHhAm1u7IiBPqFSkvmCHJ8F7hA-vA8BtcvAI9ZW7bc0AI8x99EsGUEoodTVmtSpfyUmOZE1qDSMKBlmWOXrTKA0MqLkNjmHqU3ARR2zmdeGVpCqpp_4dNBIfyXe4tpovpbQwmw6nJV5YhaGlj4S6nNfxxMW0y3rorjY_CXtduDkz4qvBs01_VjM2pbZIfmYvge1M688RDcMjP3NZPEoTFboypaei6EAz-KbmCse3rCSnBnqYrnVhcqlVrjd7HDqx5FwvEHOZYXTCfGFOs79Hv_qi4qxsq17bbusBTTnlAz9IIQphPWImjfm_L2ZKQFg7BZlOgJHnrzUYPu1wJNItVtZfIzhHbk1cBunzfZ7VadTBHyPkD7RbFDqPz9EnWgIlGWUdWs5s1yrBW3INiFaGVtxJkxDPTdPqg9oqxzCbxjPsvgfwcPY8CcLdYfftS8eHiJlmI0M_cDOKnHxXK3w4J77_e3a_Eu6H-1ADHf-DQtLQU1njFczZjIZd7Pa9DxkrORARKzCK_27gz3_7-Vda_BXejijcjoLfVdVQGHRmLQX4MLG_fkKF_0W00?></g></svg>