<svg xmlns="http://www.w3.org/2000/svg" xmlns:xlink="http://www.w3.org/1999/xlink" contentStyleType="text/css" data-diagram-type="STATE" height="558px" preserveAspectRatio="none" style="width:269px;height:558px;background:#FFFFFF;" version="1.1" viewBox="0 0 269 558" width="269px" zoomAndPan="magnify"><?plantuml 1.2026.3beta6?><defs/><g><g class="legend" data-source-line="10"><rect fill="#DDDDDD" height="46.5938" rx="7.5" ry="7.5" style="stroke:#000000;stroke-width:1;" width="238.3135" x="12" y="12"/><text fill="#000000" font-family="sans-serif" font-size="14" font-weight="700" lengthAdjust="spacing" textLength="65.748" x="21.874" y="31.9951">Variable</text><text fill="#000000" font-family="sans-serif" font-size="14" font-weight="700" lengthAdjust="spacing" textLength="38.1924" x="97.3701" y="31.9951">Type</text><text fill="#000000" font-family="sans-serif" font-size="14" font-weight="700" lengthAdjust="spacing" textLength="95.1289" x="145.3105" y="31.9951">Initial Value</text><text fill="#000000" font-family="sans-serif" font-size="14" lengthAdjust="spacing" textLength="42.2939" x="21.4502" y="48.292">speed</text><text fill="#000000" font-family="sans-serif" font-size="14" lengthAdjust="spacing" textLength="18.252" x="96.9463" y="48.292">int</text><text fill="#000000" font-family="sans-serif" font-size="14" lengthAdjust="spacing" textLength="8.9072" x="144.8867" y="48.292">0</text><line style="stroke:#000000;stroke-width:1;" x1="17" x2="245.3135" y1="19" y2="19"/><line style="stroke:#000000;stroke-width:1;" x1="17" x2="245.3135" y1="35.2969" y2="35.2969"/><line style="stroke:#000000;stroke-width:1;" x1="17" x2="245.3135" y1="51.5938" y2="51.5938"/><line style="stroke:#000000;stroke-width:1;" x1="17" x2="17" y1="19" y2="51.5938"/><line style="stroke:#000000;stroke-width:1;" x1="92.4961" x2="92.4961" y1="19" y2="51.5938"/><line style="stroke:#000000;stroke-width:1;" x1="140.4365" x2="140.4365" y1="19" y2="51.5938"/><line style="stroke:#000000;stroke-width:1;" x1="245.3135" x2="245.3135" y1="19" y2="51.5938"/></g><path d="M24.0117,157.5938 L237.3017,157.5938 A12.5,12.5 0 0 1 249.8017,170.0938 L249.8017,183.8906 L11.5117,183.8906 L11.5117,170.0938 A12.5,12.5 0 0 1 24.0117,157.5938" fill="#ADD8E6"/><rect fill="none" height="305.2969" rx="12.5" ry="12.5" style="stroke:#181818;stroke-width:0.5;" width="238.29" x="11.5117" y="157.5938"/><line style="stroke:#181818;stroke-width:0.5;" x1="11.5117" x2="249.8017" y1="183.8906" y2="183.8906"/><text fill="#000000" font-family="sans-serif" font-size="14" lengthAdjust="spacing" textLength="92.1416" x="84.5859" y="175.5889">RobotModule</text><rect fill="#F1F1F1" height="40" rx="12.5" ry="12.5" style="stroke:#181818;stroke-width:0.5;" width="50" x="28.8017" y="251.8906"/><text fill="#000000" font-family="sans-serif" font-size="14" lengthAdjust="spacing" textLength="25.5186" x="41.0425" y="276.7373">Idle</text><rect fill="#F1F1F1" height="40" rx="12.5" ry="12.5" style="stroke:#181818;stroke-width:0.5;" width="60.5791" x="23.5117" y="409.8906"/><text fill="#000000" font-family="sans-serif" font-size="14" lengthAdjust="spacing" textLength="50.5791" x="28.5117" y="434.7373">Moving</text><g class="start_entity" data-qualified-name="robot_module..start.robot_module" data-source-line="18" id="ent0002"><ellipse cx="53.8017" cy="204.8906" fill="#222222" rx="10" ry="10" style="stroke:#222222;stroke-width:1;"/></g><!--link *start*robot_module to robot_module__idle--><g class="link" data-entity-1="ent0002" data-entity-2="ent0003" data-link-type="dependency" data-source-line="18" id="lnk3"><path d="M53.8017,215.2006 C53.8017,224.6106 53.8017,233.4306 53.8017,245.4106" fill="none" id="*start*robot_module-to-robot_module__idle" style="stroke:#181818;stroke-width:1;"/><polygon fill="#181818" points="53.8017,251.4106,57.8017,242.4106,53.8017,246.4106,49.8017,242.4106,53.8017,251.4106" style="stroke:#181818;stroke-width:1;"/></g><!--link robot_module__idle to robot_module__moving--><g class="link" data-entity-1="ent0003" data-entity-2="ent0004" data-link-type="dependency" data-source-line="19" id="lnk4"><path d="M53.8017,292.3306 C53.8017,322.3906 53.8017,373.7906 53.8017,403.6906" fill="none" id="robot_module__idle-to-robot_module__moving" style="stroke:#181818;stroke-width:1;"/><polygon fill="#181818" points="53.8017,409.6906,57.8017,400.6906,53.8017,404.6906,49.8017,400.6906,53.8017,409.6906" style="stroke:#181818;stroke-width:1;"/><text fill="#000000" font-family="sans-serif" font-size="13" lengthAdjust="spacing" textLength="31.7573" x="126.4433" y="322.9575">Start</text><path d="M58.8017,332.0234 L58.8017,387.0234 L225.8017,387.0234 L225.8017,342.0234 L215.8017,332.0234 L58.8017,332.0234" fill="#FEFFDD" style="stroke:#181818;stroke-width:0.5;"/><path d="M215.8017,332.0234 L215.8017,342.0234 L225.8017,342.0234 L215.8017,332.0234" fill="#FEFFDD" style="stroke:#181818;stroke-width:0.5;"/><text fill="#000000" font-family="sans-serif" font-size="13" lengthAdjust="spacing" textLength="49.7974" x="64.8017" y="349.0903">effect {</text><text fill="#000000" font-family="sans-serif" font-size="13" lengthAdjust="spacing" textLength="129.5112" x="81.331" y="364.2231">speed = speed + 1;</text><text fill="#000000" font-family="sans-serif" font-size="13" lengthAdjust="spacing" textLength="8.271" x="64.8017" y="379.356">}</text></g><g class="start_entity" data-qualified-name=".start." data-source-line="26" id="ent0005"><ellipse cx="130.6517" cy="87.5938" fill="#222222" rx="10" ry="10" style="stroke:#222222;stroke-width:1;"/></g><g class="end_entity" data-qualified-name=".end." data-source-line="27" id="ent0007"><ellipse cx="130.6517" cy="533.8938" fill="none" rx="11" ry="11" style="stroke:#222222;stroke-width:1;"/><ellipse cx="130.6517" cy="533.8938" fill="#222222" rx="6" ry="6" style="stroke:#222222;stroke-width:1;"/></g><!--link *start* to robot_module--><g class="link" data-entity-1="ent0005" data-entity-2="ent0002" data-link-type="dependency" data-source-line="26" id="lnk6"><path d="M130.6517,98.0738 C130.6517,109.9538 130.6517,125.8537 130.6517,151.2038" fill="none" id="*start*-to-robot_module" style="stroke:#181818;stroke-width:1;"/><polygon fill="#181818" points="130.6517,157.2038,134.6517,148.2038,130.6517,152.2038,126.6517,148.2038,130.6517,157.2038" style="stroke:#181818;stroke-width:1;"/></g><!--link robot_module to *end*--><g class="link" data-entity-1="ent0002" data-entity-2="ent0007" data-link-type="dependency" data-source-line="27" id="lnk8"><path d="M130.6517,463.3738 C130.6517,488.4538 130.6517,504.2338 130.6517,516.4538" fill="none" id="robot_module-to-*end*" style="stroke:#181818;stroke-width:1;"/><polygon fill="#181818" points="130.6517,522.4538,134.6517,513.4538,130.6517,517.4538,126.6517,513.4538,130.6517,522.4538" style="stroke:#181818;stroke-width:1;"/></g><?plantuml-src TL5DImCn4BtdLmmzAWMzQjj31QLWBrQyY9HqCxiTcis4P5POtFvti-aAhQwNVBptvcNcPKy60MilBHYCHI0ln4wfU23dTT0rHD62yAK0bheuL84RPnxOSfZDVCJ6y681prJjvIdeTanLSEqvak2FS6aRx8KS38RVLeFB8plPI6lnZ2BHbWfrLCfYXSw0i0UBfQXk3cywaDvPX7H-RNtULuw4j4rSUX4wrK7qY0Ow82TflKbOyZcvfPdpf9CNth6isJGM9w0ZXFw-hJC0b-FqgS2Gq6HbHWgsMqhmkMpDd-Ig4M6TYInzl_g0wNJndzDVU4HzieCxs8WEakiSfmROWILto02M9HOoZ95xpFdCX_qQRkypTJofK-IzHVg1iGRLHL0zcrJV?></g></svg>