<?xml version="1.0" encoding="us-ascii" standalone="no"?><svg xmlns="http://www.w3.org/2000/svg" xmlns:xlink="http://www.w3.org/1999/xlink" contentStyleType="text/css" height="943px" preserveAspectRatio="none" style="width:475px;height:943px;background:#FFFFFF;" version="1.1" viewBox="0 0 475 943" width="475px" zoomAndPan="magnify"><defs/><g><text fill="#000000" font-family="sans-serif" font-size="14" font-weight="bold" lengthAdjust="spacing" textLength="155" x="153.25" y="22.9951">Leaf State Lifecycle</text><ellipse cx="172.5" cy="53.2969" fill="#181818" rx="10" ry="10" style="stroke:none;stroke-width:1.0;"/><g id="EnterState"><rect fill="#F1F1F1" height="50.2656" rx="12.5" ry="12.5" style="stroke:#181818;stroke-width:0.5;" width="173" x="86" y="140.2969"/><line style="stroke:#181818;stroke-width:0.5;" x1="86" x2="259" y1="166.5938" y2="166.5938"/><text fill="#000000" font-family="sans-serif" font-size="14" lengthAdjust="spacing" textLength="73" x="136" y="158.292">EnterState</text><text fill="#000000" font-family="sans-serif" font-size="12" lengthAdjust="spacing" textLength="153" x="91" y="182.7324">Entry point for leaf state</text></g><g id="ExecuteEnterOperation"><rect fill="#F1F1F1" height="50.2656" rx="12.5" ry="12.5" style="stroke:#181818;stroke-width:0.5;" width="270" x="37.5" y="267.2969"/><line style="stroke:#181818;stroke-width:0.5;" x1="37.5" x2="307.5" y1="293.5938" y2="293.5938"/><text fill="#000000" font-family="sans-serif" font-size="14" lengthAdjust="spacing" textLength="161" x="92" y="285.292">ExecuteEnterOperation</text><text fill="#000000" font-family="sans-serif" font-size="12" lengthAdjust="spacing" textLength="250" x="42.5" y="309.7324">Execute current state's enter operation</text></g><g id="ExecuteDuringOperation"><rect fill="#F1F1F1" height="50.2656" rx="12.5" ry="12.5" style="stroke:#181818;stroke-width:0.5;" width="276" x="34.5" y="394.2969"/><line style="stroke:#181818;stroke-width:0.5;" x1="34.5" x2="310.5" y1="420.5938" y2="420.5938"/><text fill="#000000" font-family="sans-serif" font-size="14" lengthAdjust="spacing" textLength="170" x="87.5" y="412.292">ExecuteDuringOperation</text><text fill="#000000" font-family="sans-serif" font-size="12" lengthAdjust="spacing" textLength="256" x="39.5" y="436.7324">Execute current state's during operation</text></g><g id="CheckTransitions"><rect fill="#F1F1F1" height="50.2656" rx="12.5" ry="12.5" style="stroke:#181818;stroke-width:0.5;" width="244" x="50.5" y="536.2969"/><line style="stroke:#181818;stroke-width:0.5;" x1="50.5" x2="294.5" y1="562.5938" y2="562.5938"/><text fill="#000000" font-family="sans-serif" font-size="14" lengthAdjust="spacing" textLength="120" x="112.5" y="554.292">CheckTransitions</text><text fill="#000000" font-family="sans-serif" font-size="12" lengthAdjust="spacing" textLength="224" x="55.5" y="578.7324">Check transition events and guards</text></g><g id="ExecuteExitOperation"><rect fill="#F1F1F1" height="50.2656" rx="12.5" ry="12.5" style="stroke:#181818;stroke-width:0.5;" width="258" x="43.5" y="663.2969"/><line style="stroke:#181818;stroke-width:0.5;" x1="43.5" x2="301.5" y1="689.5938" y2="689.5938"/><text fill="#000000" font-family="sans-serif" font-size="14" lengthAdjust="spacing" textLength="148" x="98.5" y="681.292">ExecuteExitOperation</text><text fill="#000000" font-family="sans-serif" font-size="12" lengthAdjust="spacing" textLength="238" x="48.5" y="705.7324">Execute current state's exit operation</text></g><g id="ExecuteTransition"><rect fill="#F1F1F1" height="50.2656" rx="12.5" ry="12.5" style="stroke:#181818;stroke-width:0.5;" width="331" x="7" y="790.2969"/><line style="stroke:#181818;stroke-width:0.5;" x1="7" x2="338" y1="816.5938" y2="816.5938"/><text fill="#000000" font-family="sans-serif" font-size="14" lengthAdjust="spacing" textLength="124" x="110.5" y="808.292">ExecuteTransition</text><text fill="#000000" font-family="sans-serif" font-size="12" lengthAdjust="spacing" textLength="311" x="12" y="832.7324">Execute transition effects and move to next state</text></g><ellipse cx="172.5" cy="927.2969" fill="none" rx="10" ry="10" style="stroke:#181818;stroke-width:1.0;"/><ellipse cx="173" cy="927.7969" fill="#181818" rx="6" ry="6" style="stroke:none;stroke-width:1.0;"/><!--link *start* to EnterState--><g id="link_*start*_EnterState"><path d="M172.5,63.6769 C172.5,79.0969 172.5,110.4569 172.5,134.0969 " fill="none" id="*start*-to-EnterState" style="stroke:#181818;stroke-width:1.0;"/><polygon fill="#181818" points="172.5,138.9269,176.5,129.9269,172.5,133.9269,168.5,129.9269,172.5,138.9269" style="stroke:#181818;stroke-width:1.0;"/><text fill="#000000" font-family="sans-serif" font-size="13" lengthAdjust="spacing" textLength="98" x="173.5" y="106.3638">Enter leaf state</text></g><!--link EnterState to ExecuteEnterOperation--><g id="link_EnterState_ExecuteEnterOperation"><path d="M172.5,190.6969 C172.5,210.8269 172.5,239.4869 172.5,261.0769 " fill="none" id="EnterState-to-ExecuteEnterOperation" style="stroke:#181818;stroke-width:1.0;"/><polygon fill="#181818" points="172.5,265.9569,176.5,256.9569,172.5,260.9569,168.5,256.9569,172.5,265.9569" style="stroke:#181818;stroke-width:1.0;"/><text fill="#000000" font-family="sans-serif" font-size="13" lengthAdjust="spacing" textLength="146" x="173.5" y="233.3638">Step 1: Enter the state</text></g><!--link ExecuteEnterOperation to ExecuteDuringOperation--><g id="link_ExecuteEnterOperation_ExecuteDuringOperation"><path d="M172.5,317.6969 C172.5,337.8269 172.5,366.4869 172.5,388.0769 " fill="none" id="ExecuteEnterOperation-to-ExecuteDuringOperation" style="stroke:#181818;stroke-width:1.0;"/><polygon fill="#181818" points="172.5,392.9569,176.5,383.9569,172.5,387.9569,168.5,383.9569,172.5,392.9569" style="stroke:#181818;stroke-width:1.0;"/><text fill="#000000" font-family="sans-serif" font-size="13" lengthAdjust="spacing" textLength="204" x="173.5" y="360.3638">Step 2: Execute enter operation</text></g><!--link ExecuteDuringOperation to CheckTransitions--><g id="link_ExecuteDuringOperation_CheckTransitions"><path d="M76.9,444.7369 C63.71,452.1369 51.84,461.7669 43.5,474.2969 C26.65,499.6069 49.79,519.3269 80.91,533.4669 " fill="none" id="ExecuteDuringOperation-to-CheckTransitions" style="stroke:#181818;stroke-width:1.0;"/><polygon fill="#181818" points="85.39,535.8569,78.7586,528.5751,80.8122,533.846,75.5412,535.8997,85.39,535.8569" style="stroke:#181818;stroke-width:1.0;"/><text fill="#000000" font-family="sans-serif" font-size="13" lengthAdjust="spacing" textLength="210" x="44.5" y="494.8638">Step 3: Execute during operation</text></g><!--link CheckTransitions to ExecuteDuringOperation--><g id="link_CheckTransitions_ExecuteDuringOperation"><path d="M230.42,535.8569 C242.05,528.1569 252.76,518.4169 259.5,506.2969 C266.41,493.8669 266.41,486.7269 259.5,474.2969 C253.71,463.8869 244.98,455.2169 235.26,448.1069 " fill="none" id="CheckTransitions-to-ExecuteDuringOperation" style="stroke:#181818;stroke-width:1.0;"/><polygon fill="#181818" points="231.42,444.7369,236.517,453.1642,235.5222,447.5955,241.0909,446.6007,231.42,444.7369" style="stroke:#181818;stroke-width:1.0;"/><text fill="#000000" font-family="sans-serif" font-size="13" lengthAdjust="spacing" textLength="202" x="265.5" y="487.3638">Step 4a: No transition triggered</text><text fill="#000000" font-family="sans-serif" font-size="13" lengthAdjust="spacing" textLength="101" x="316" y="502.4966">(back to step 3)</text></g><!--link CheckTransitions to ExecuteExitOperation--><g id="link_CheckTransitions_ExecuteExitOperation"><path d="M172.5,586.6969 C172.5,606.8269 172.5,635.4869 172.5,657.0769 " fill="none" id="CheckTransitions-to-ExecuteExitOperation" style="stroke:#181818;stroke-width:1.0;"/><polygon fill="#181818" points="172.5,661.9569,176.5,652.9569,172.5,656.9569,168.5,652.9569,172.5,661.9569" style="stroke:#181818;stroke-width:1.0;"/><text fill="#000000" font-family="sans-serif" font-size="13" lengthAdjust="spacing" textLength="182" x="173.5" y="629.3638">Step 4b: Transition triggered</text></g><!--link ExecuteExitOperation to ExecuteTransition--><g id="link_ExecuteExitOperation_ExecuteTransition"><path d="M172.5,713.6969 C172.5,733.8269 172.5,762.4869 172.5,784.0769 " fill="none" id="ExecuteExitOperation-to-ExecuteTransition" style="stroke:#181818;stroke-width:1.0;"/><polygon fill="#181818" points="172.5,788.9569,176.5,779.9569,172.5,783.9569,168.5,779.9569,172.5,788.9569" style="stroke:#181818;stroke-width:1.0;"/><text fill="#000000" font-family="sans-serif" font-size="13" lengthAdjust="spacing" textLength="193" x="173.5" y="756.3638">Step 5: Execute exit operation</text></g><!--link ExecuteTransition to *end*--><g id="link_ExecuteTransition_*end*"><path d="M172.5,840.7069 C172.5,862.3169 172.5,893.1669 172.5,911.3169 " fill="none" id="ExecuteTransition-to-*end*" style="stroke:#181818;stroke-width:1.0;"/><polygon fill="#181818" points="172.5,915.9569,176.5,906.9569,172.5,910.9569,168.5,906.9569,172.5,915.9569" style="stroke:#181818;stroke-width:1.0;"/><text fill="#000000" font-family="sans-serif" font-size="13" lengthAdjust="spacing" textLength="198" x="173.5" y="883.3638">Step 6: Transition to next state</text></g><!--SRC=[XPGzKyCm38Pt_mfjVDnru7F8m0BTE1ZQ3HZSH4bz5BldABtqEFuxjfjGEKxer5JL- -YfeuGKRH2UKPQm84dkKfMOx_CD2l5s-G6psGFCDQ4z_9eTli361sfV4Y9yyAPl0Kd6xc5hb2OeJPJ-4OArXcajvWrXgBvkqKfIHZl8Wd0BLxq0hN4mVpGML2Q0NHtonbfqPe5pLWE60QRl38gZ26Rxr5YbgqJt-ZXbI8srXtdcdQAdn8lGEMe-X7ZrnpNcdqihTQryhUwbRuuJ4c9ddKIzxmWlb83-Qe0x9ro3r0LKZRH5xHsJuEc3lPKPl1XE9gkg2YqMx_fy9VrKumx6_vsBVmVCMqKfVfN1SeGzNBOeotTj09rSDTStlcaHWEaogyxrZkrOZ8jbMPAPHhoUmszOwLu7tHtxCZlqnwgn9VRu9Y2lwzyTdU1zV9Oy_mi0]--></g></svg>