<svg xmlns="http://www.w3.org/2000/svg" xmlns:xlink="http://www.w3.org/1999/xlink" contentStyleType="text/css" data-diagram-type="STATE" height="962px" preserveAspectRatio="none" style="width:1168px;height:962px;background:#FFFFFF;" version="1.1" viewBox="0 0 1168 962" width="1168px" zoomAndPan="magnify"><defs/><g><path d="M19.5,86 L1142.17,86 A12.5,12.5 0 0 1 1154.67,98.5 L1154.67,112.2969 L7,112.2969 L7,98.5 A12.5,12.5 0 0 1 19.5,86" fill="#ADD8E6"/><rect fill="none" height="788.5969" rx="12.5" ry="12.5" style="stroke:#181818;stroke-width:0.5;" width="1147.67" x="7" y="86"/><line style="stroke:#181818;stroke-width:0.5;" x1="7" x2="1154.67" y1="112.2969" y2="112.2969"/><text fill="#000000" font-family="sans-serif" font-size="14" lengthAdjust="spacing" textLength="155.4014" x="503.1343" y="103.9951">FileDownloadManager</text><rect fill="#F1F1F1" height="40" rx="12.5" ry="12.5" style="stroke:#181818;stroke-width:0.5;" width="50" x="886.89" y="180.2969"/><text fill="#000000" font-family="sans-serif" font-size="14" lengthAdjust="spacing" textLength="25.5186" x="899.1307" y="205.1436">Idle</text><path d="M31.5,273.2969 L730.2798,273.2969 A12.5,12.5 0 0 1 742.7798,285.7969 L742.7798,299.5938 L19,299.5938 L19,285.7969 A12.5,12.5 0 0 1 31.5,273.2969" fill="#ADD8E6"/><rect fill="none" height="405.2969" rx="12.5" ry="12.5" style="stroke:#181818;stroke-width:0.5;" width="723.7798" x="19" y="273.2969"/><line style="stroke:#181818;stroke-width:0.5;" x1="19" x2="742.7798" y1="299.5938" y2="299.5938"/><text fill="#000000" font-family="sans-serif" font-size="14" lengthAdjust="spacing" textLength="91.2393" x="335.2703" y="291.292">Downloading</text><rect fill="#F1F1F1" height="40" rx="12.5" ry="12.5" style="stroke:#181818;stroke-width:0.5;" width="89.5361" x="490.17" y="367.5938"/><text fill="#000000" font-family="sans-serif" font-size="14" lengthAdjust="spacing" textLength="79.5361" x="495.17" y="392.4404">Connecting</text><rect fill="#F1F1F1" height="40" rx="12.5" ry="12.5" style="stroke:#181818;stroke-width:0.5;" width="95.7568" x="350.06" y="460.5938"/><text fill="#000000" font-family="sans-serif" font-size="14" lengthAdjust="spacing" textLength="85.7568" x="355.06" y="485.4404">Transferring</text><rect fill="#F1F1F1" height="40" rx="12.5" ry="12.5" style="stroke:#181818;stroke-width:0.5;" width="60.6885" x="217.59" y="553.5938"/><text fill="#000000" font-family="sans-serif" font-size="14" lengthAdjust="spacing" textLength="50.6885" x="222.59" y="578.4404">Paused</text><ellipse cx="457.94" cy="657.5938" fill="none" rx="11" ry="11" style="stroke:#222222;stroke-width:1;"/><ellipse cx="457.94" cy="657.5938" fill="#222222" rx="6" ry="6" style="stroke:#222222;stroke-width:1;"/><ellipse cx="534.94" cy="320.5938" fill="#222222" rx="10" ry="10" style="stroke:#222222;stroke-width:1;"/><!--link file_download_manager__downloading__connecting to *end*file_download_manager__downloading--><g class="link" data-entity-1="file_download_manager__downloading__connecting" data-entity-2="*end*file_download_manager__downloading" data-source-line="16" data-uid="lnk3" id="link_file_download_manager__downloading__connecting_*end*file_download_manager__downloading"><path d="M573.07,407.9138 C580.12,412.8837 586.85,418.7938 591.94,425.5938 C637.77,486.9138 673.78,530.8438 629.94,593.5938 C591.87,648.0738 507.3175,655.4212 475.3475,656.3412" fill="none" id="file_download_manager__downloading__connecting-to-*end*file_download_manager__downloading" style="stroke:#181818;stroke-width:1;"/><polygon fill="#181818" points="469.35,656.5138,478.4613,660.2532,474.3479,656.3699,478.2312,652.2565,469.35,656.5138" style="stroke:#181818;stroke-width:1;"/><text fill="#000000" font-family="sans-serif" font-size="13" lengthAdjust="spacing" textLength="82.0498" x="650.73" y="531.6606">/CriticalError</text></g><!--link file_download_manager__downloading__transferring to *end*file_download_manager__downloading--><g class="link" data-entity-1="file_download_manager__downloading__transferring" data-entity-2="*end*file_download_manager__downloading" data-source-line="17" data-uid="lnk4" id="link_file_download_manager__downloading__transferring_*end*file_download_manager__downloading"><path d="M397.46,500.9438 C397.54,523.8638 399.73,562.8138 411.94,593.5938 C420.92,616.2538 435.8628,633.8578 446.4128,644.8878" fill="none" id="file_download_manager__downloading__transferring-to-*end*file_download_manager__downloading" style="stroke:#181818;stroke-width:1;"/><polygon fill="#181818" points="450.56,649.2238,447.2298,639.955,447.104,645.6105,441.4485,645.4847,450.56,649.2238" style="stroke:#181818;stroke-width:1;"/><text fill="#000000" font-family="sans-serif" font-size="13" lengthAdjust="spacing" textLength="82.0498" x="412.94" y="578.1606">/CriticalError</text></g><!--link file_download_manager__downloading__paused to *end*file_download_manager__downloading--><g class="link" data-entity-1="file_download_manager__downloading__paused" data-entity-2="*end*file_download_manager__downloading" data-source-line="18" data-uid="lnk5" id="link_file_download_manager__downloading__paused_*end*file_download_manager__downloading"><path d="M261.42,593.8438 C270.82,605.7638 284.43,620.3238 299.94,628.5938 C349.84,655.2038 413.9504,657.2807 440.8404,656.9807" fill="none" id="file_download_manager__downloading__paused-to-*end*file_download_manager__downloading" style="stroke:#181818;stroke-width:1;"/><polygon fill="#181818" points="446.84,656.9137,437.7959,653.0144,441.8403,656.9695,437.8852,661.0139,446.84,656.9137" style="stroke:#181818;stroke-width:1;"/><text fill="#000000" font-family="sans-serif" font-size="13" lengthAdjust="spacing" textLength="82.0498" x="300.94" y="624.6606">/CriticalError</text></g><!--link *start*file_download_manager__downloading to file_download_manager__downloading__connecting--><g class="link" data-entity-1="*start*file_download_manager__downloading" data-entity-2="file_download_manager__downloading__connecting" data-source-line="19" data-uid="lnk7" id="link_*start*file_download_manager__downloading_file_download_manager__downloading__connecting"><path d="M534.94,330.9038 C534.94,340.3138 534.94,349.1338 534.94,361.1138" fill="none" id="*start*file_download_manager__downloading-to-file_download_manager__downloading__connecting" style="stroke:#181818;stroke-width:1;"/><polygon fill="#181818" points="534.94,367.1138,538.94,358.1138,534.94,362.1138,530.94,358.1138,534.94,367.1138" style="stroke:#181818;stroke-width:1;"/></g><!--link file_download_manager__downloading__connecting to file_download_manager__downloading__transferring--><g class="link" data-entity-1="file_download_manager__downloading__connecting" data-entity-2="file_download_manager__downloading__transferring" data-source-line="20" data-uid="lnk8" id="link_file_download_manager__downloading__connecting_file_download_manager__downloading__transferring"><path d="M505.88,407.8938 C482.63,423.3338 455.1876,441.5635 431.9476,457.0035" fill="none" id="file_download_manager__downloading__connecting-to-file_download_manager__downloading__transferring" style="stroke:#181818;stroke-width:1;"/><polygon fill="#181818" points="426.95,460.3238,436.6599,458.6751,431.1147,457.5569,432.2329,452.0116,426.95,460.3238" style="stroke:#181818;stroke-width:1;"/><text fill="#000000" font-family="sans-serif" font-size="13" lengthAdjust="spacing" textLength="107.415" x="479.71" y="438.6606">progress &gt;= 5.0</text></g><!--link file_download_manager__downloading__transferring to file_download_manager__downloading__paused--><g class="link" data-entity-1="file_download_manager__downloading__transferring" data-entity-2="file_download_manager__downloading__paused" data-source-line="21" data-uid="lnk9" id="link_file_download_manager__downloading__transferring_file_download_manager__downloading__paused"><path d="M349.74,483.5838 C263.51,487.6438 90.1,498.2537 71.94,518.5938 C30,565.5638 150.8303,572.1674 211.5203,572.7374" fill="none" id="file_download_manager__downloading__transferring-to-file_download_manager__downloading__paused" style="stroke:#181818;stroke-width:1;"/><polygon fill="#181818" points="217.52,572.7938,208.558,568.7094,212.5202,572.7468,208.4828,576.709,217.52,572.7938" style="stroke:#181818;stroke-width:1;"/><text fill="#000000" font-family="sans-serif" font-size="13" lengthAdjust="spacing" textLength="152.2104" x="72.94" y="531.6606">Transferring.UserPause</text></g><!--link file_download_manager__downloading__paused to file_download_manager__downloading__transferring--><g class="link" data-entity-1="file_download_manager__downloading__paused" data-entity-2="file_download_manager__downloading__transferring" data-source-line="22" data-uid="lnk10" id="link_file_download_manager__downloading__paused_file_download_manager__downloading__transferring"><path d="M242.9,553.1538 C241.2,541.9038 241.34,528.1238 248.94,518.5938 C261.48,502.8538 305.1321,493.6746 343.6921,488.0846" fill="none" id="file_download_manager__downloading__paused-to-file_download_manager__downloading__transferring" style="stroke:#181818;stroke-width:1;"/><polygon fill="#181818" points="349.63,487.2238,340.1492,484.5564,344.6817,487.9411,341.297,492.4736,349.63,487.2238" style="stroke:#181818;stroke-width:1;"/><text fill="#000000" font-family="sans-serif" font-size="13" lengthAdjust="spacing" textLength="133.5356" x="249.94" y="531.6606">Paused.UserResume</text></g><!--link file_download_manager__downloading__transferring to *end*file_download_manager__downloading--><g class="link" data-entity-1="file_download_manager__downloading__transferring" data-entity-2="*end*file_download_manager__downloading" data-source-line="23" data-uid="lnk11" id="link_file_download_manager__downloading__transferring_*end*file_download_manager__downloading"><path d="M440.56,501.0838 C461.32,513.0438 484.26,530.5238 495.94,553.5938 C513.15,587.6038 484.216,626.8152 469.006,644.3152" fill="none" id="file_download_manager__downloading__transferring-to-*end*file_download_manager__downloading-1" style="stroke:#181818;stroke-width:1;"/><polygon fill="#181818" points="465.07,648.8438,473.993,644.6749,468.35,645.0699,467.9549,639.4269,465.07,648.8438" style="stroke:#181818;stroke-width:1;"/><text fill="#000000" font-family="sans-serif" font-size="13" lengthAdjust="spacing" textLength="123.957" x="501.8" y="578.1606">progress &gt;= 100.0</text></g><rect fill="#F1F1F1" height="40" rx="12.5" ry="12.5" style="stroke:#181818;stroke-width:0.5;" width="69.5205" x="547.13" y="731.5969"/><text fill="#000000" font-family="sans-serif" font-size="14" lengthAdjust="spacing" textLength="59.5205" x="552.13" y="756.4436">Retrying</text><rect fill="#F1F1F1" height="40" rx="12.5" ry="12.5" style="stroke:#181818;stroke-width:0.5;" width="86.3574" x="658.71" y="731.5969"/><text fill="#000000" font-family="sans-serif" font-size="14" lengthAdjust="spacing" textLength="76.3574" x="663.71" y="756.4436">Completed</text><rect fill="#F1F1F1" height="40" rx="12.5" ry="12.5" style="stroke:#181818;stroke-width:0.5;" width="51.9111" x="619.93" y="824.5969"/><text fill="#000000" font-family="sans-serif" font-size="14" lengthAdjust="spacing" textLength="41.9111" x="624.93" y="849.4436">Failed</text><ellipse cx="911.89" cy="133.2969" fill="#222222" rx="10" ry="10" style="stroke:#222222;stroke-width:1;"/><!--link file_download_manager__idle to file_download_manager__failed--><g class="link" data-entity-1="file_download_manager__idle" data-entity-2="file_download_manager__failed" data-source-line="28" data-uid="lnk12" id="link_file_download_manager__idle_file_download_manager__failed"><path d="M933.31,220.7269 C946.35,234.0569 961.82,252.9769 968.89,273.2969 C1028.08,443.4269 1056.59,521.2569 968.89,678.5969 C906.2,791.0769 743.4702,828.1717 678.1502,838.9317" fill="none" id="file_download_manager__idle-to-file_download_manager__failed" style="stroke:#181818;stroke-width:1;"/><polygon fill="#181818" points="672.23,839.9069,681.7605,842.3909,677.1635,839.0942,680.4602,834.4972,672.23,839.9069" style="stroke:#181818;stroke-width:1;"/><text fill="#000000" font-family="sans-serif" font-size="13" lengthAdjust="spacing" textLength="77.6699" x="958" y="709.6638">CriticalError</text></g><!--link file_download_manager__downloading to file_download_manager__failed--><g class="link" data-entity-1="file_download_manager__downloading" data-entity-2="file_download_manager__failed" data-source-line="29" data-uid="lnk13" id="link_file_download_manager__downloading_file_download_manager__failed"><path d="M173.29,678.7269 C162.08,709.8469 162.62,741.5969 182.89,771.5969 C232.19,844.5669 523.2507,845.7004 613.7407,844.2904" fill="none" id="file_download_manager__downloading-to-file_download_manager__failed" style="stroke:#181818;stroke-width:1;"/><polygon fill="#181818" points="619.74,844.1969,610.6788,840.3376,614.7406,844.2748,610.8034,848.3366,619.74,844.1969" style="stroke:#181818;stroke-width:1;"/><text fill="#000000" font-family="sans-serif" font-size="13" lengthAdjust="spacing" textLength="77.6699" x="183.89" y="756.1638">CriticalError</text></g><!--link file_download_manager__retrying to file_download_manager__failed--><g class="link" data-entity-1="file_download_manager__retrying" data-entity-2="file_download_manager__failed" data-source-line="30" data-uid="lnk14" id="link_file_download_manager__retrying_file_download_manager__failed"><path d="M579.2,771.8869 C578.64,782.8169 579.64,796.3169 585.89,806.5969 C593.52,819.1469 601.7704,825.4615 614.1304,831.3915" fill="none" id="file_download_manager__retrying-to-file_download_manager__failed" style="stroke:#181818;stroke-width:1;"/><polygon fill="#181818" points="619.54,833.9869,613.1558,826.4874,615.032,831.824,609.6953,833.7002,619.54,833.9869" style="stroke:#181818;stroke-width:1;"/><text fill="#000000" font-family="sans-serif" font-size="13" lengthAdjust="spacing" textLength="77.6699" x="586.89" y="802.6638">CriticalError</text></g><!--link file_download_manager__completed to file_download_manager__failed--><g class="link" data-entity-1="file_download_manager__completed" data-entity-2="file_download_manager__failed" data-source-line="31" data-uid="lnk15" id="link_file_download_manager__completed_file_download_manager__failed"><path d="M690.17,771.8669 C683.88,782.1769 675.98,795.0969 668.89,806.5969 C665.32,812.3869 664.5904,813.5929 661.0304,819.3129" fill="none" id="file_download_manager__completed-to-file_download_manager__failed" style="stroke:#181818;stroke-width:1;"/><polygon fill="#181818" points="657.86,824.4069,666.0116,818.8795,660.502,820.1619,659.2196,814.6523,657.86,824.4069" style="stroke:#181818;stroke-width:1;"/><text fill="#000000" font-family="sans-serif" font-size="13" lengthAdjust="spacing" textLength="77.6699" x="679.9" y="802.6638">CriticalError</text></g><!--link file_download_manager__failed to file_download_manager__failed--><g class="link" data-entity-1="file_download_manager__failed" data-entity-2="file_download_manager__failed" data-source-line="32" data-uid="lnk16" id="link_file_download_manager__failed_file_download_manager__failed"><path d="M672.06,835.8969 C681.82,835.6169 689.85,838.5169 689.85,844.5969 C689.85,850.6769 687.8175,853.7489 678.0575,853.4689" fill="none" id="file_download_manager__failed-to-file_download_manager__failed" style="stroke:#181818;stroke-width:1;"/><polygon fill="#181818" points="672.06,853.2969,680.9416,857.5533,677.0579,853.4403,681.171,849.5566,672.06,853.2969" style="stroke:#181818;stroke-width:1;"/><text fill="#000000" font-family="sans-serif" font-size="13" lengthAdjust="spacing" textLength="77.6699" x="695.85" y="849.1638">CriticalError</text></g><!--link *start*file_download_manager to file_download_manager__idle--><g class="link" data-entity-1="*start*file_download_manager" data-entity-2="file_download_manager__idle" data-source-line="33" data-uid="lnk18" id="link_*start*file_download_manager_file_download_manager__idle"><path d="M911.89,143.6169 C911.89,153.0169 911.89,161.8369 911.89,173.8269" fill="none" id="*start*file_download_manager-to-file_download_manager__idle" style="stroke:#181818;stroke-width:1;"/><polygon fill="#181818" points="911.89,179.8269,915.89,170.8269,911.89,174.8269,907.89,170.8269,911.89,179.8269" style="stroke:#181818;stroke-width:1;"/></g><!--link file_download_manager__idle to file_download_manager__downloading--><g class="link" data-entity-1="file_download_manager__idle" data-entity-2="file_download_manager__downloading" data-source-line="34" data-uid="lnk19" id="link_file_download_manager__idle_file_download_manager__downloading"><path d="M886.59,202.0469 C846.04,204.0569 764.67,211.3969 701.89,238.2969 C678.82,248.1869 661.0387,257.004 638.5987,270.034" fill="none" id="file_download_manager__idle-to-file_download_manager__downloading" style="stroke:#181818;stroke-width:1;"/><polygon fill="#181818" points="633.41,273.0469,643.2016,271.9867,637.7339,270.5362,639.1845,265.0684,633.41,273.0469" style="stroke:#181818;stroke-width:1;"/><text fill="#000000" font-family="sans-serif" font-size="13" lengthAdjust="spacing" textLength="124.2046" x="702.89" y="251.3638">Idle.StartDownload</text></g><!--link file_download_manager__downloading to file_download_manager__retrying--><g class="link" data-entity-1="file_download_manager__downloading" data-entity-2="file_download_manager__retrying" data-source-line="35" data-uid="lnk20" id="link_file_download_manager__downloading_file_download_manager__retrying"><path d="M299.07,679.0269 C302.3,691.4969 308.32,703.1969 317.89,713.5969 C334.12,731.2369 509.53,726.2069 532.89,731.5969 C537.42,732.6469 536.4142,732.1109 540.9842,733.6509" fill="none" id="file_download_manager__downloading-to-file_download_manager__retrying" style="stroke:#181818;stroke-width:1;"/><polygon fill="#181818" points="546.67,735.5669,539.4186,728.9023,541.9318,733.9702,536.8639,736.4834,546.67,735.5669" style="stroke:#181818;stroke-width:1;"/><text fill="#000000" font-family="sans-serif" font-size="13" lengthAdjust="spacing" textLength="233.0986" x="318.89" y="709.6638">error_code != 0 &amp;&amp; retry_count &lt; 3</text></g><!--link file_download_manager__downloading to file_download_manager__failed--><g class="link" data-entity-1="file_download_manager__downloading" data-entity-2="file_download_manager__failed" data-source-line="36" data-uid="lnk21" id="link_file_download_manager__downloading_file_download_manager__failed"><path d="M270.43,678.9869 C265.77,712.2469 270.86,744.6169 292.89,771.5969 C334.38,822.4069 538.8589,837.9597 613.5589,842.0397" fill="none" id="file_download_manager__downloading-to-file_download_manager__failed-1" style="stroke:#181818;stroke-width:1;"/><polygon fill="#181818" points="619.55,842.3669,610.7815,837.882,614.5574,842.0942,610.3452,845.8701,619.55,842.3669" style="stroke:#181818;stroke-width:1;"/><text fill="#000000" font-family="sans-serif" font-size="13" lengthAdjust="spacing" textLength="243.9912" x="293.89" y="756.1638">error_code != 0 &amp;&amp; retry_count &gt;= 3</text></g><!--link file_download_manager__retrying to file_download_manager__downloading--><g class="link" data-entity-1="file_download_manager__retrying" data-entity-2="file_download_manager__downloading" data-source-line="37" data-uid="lnk22" id="link_file_download_manager__retrying_file_download_manager__downloading"><path d="M572.47,731.1469 C567.14,720.6569 560.11,707.6469 552.89,696.5969 C549.05,690.7169 548.4739,689.7516 544.4239,683.8216" fill="none" id="file_download_manager__retrying-to-file_download_manager__downloading" style="stroke:#181818;stroke-width:1;"/><polygon fill="#181818" points="541.04,678.8669,542.8127,688.5549,543.8599,682.9958,549.419,684.043,541.04,678.8669" style="stroke:#181818;stroke-width:1;"/><text fill="#000000" font-family="sans-serif" font-size="13" lengthAdjust="spacing" textLength="102.083" x="563.46" y="709.6638">retry_count &lt; 3</text></g><!--link file_download_manager__downloading to file_download_manager__completed--><g class="link" data-entity-1="file_download_manager__downloading" data-entity-2="file_download_manager__completed" data-source-line="38" data-uid="lnk23" id="link_file_download_manager__downloading_file_download_manager__completed"><path d="M654.72,678.9969 C660.27,684.7969 665.67,690.6669 670.89,696.5969 C679.96,706.8969 684.9649,714.9062 690.4249,725.7662" fill="none" id="file_download_manager__downloading-to-file_download_manager__completed" style="stroke:#181818;stroke-width:1;"/><polygon fill="#181818" points="693.12,731.1269,692.6511,721.2892,690.8741,726.6597,685.5036,724.8827,693.12,731.1269" style="stroke:#181818;stroke-width:1;"/><text fill="#000000" font-family="sans-serif" font-size="13" lengthAdjust="spacing" textLength="123.957" x="683.99" y="709.6638">progress &gt;= 100.0</text></g><!--link file_download_manager__completed to file_download_manager__idle--><g class="link" data-entity-1="file_download_manager__completed" data-entity-2="file_download_manager__idle" data-source-line="39" data-uid="lnk24" id="link_file_download_manager__completed_file_download_manager__idle"><path d="M745.38,747.1269 C768.74,742.8669 795.94,733.6069 811.89,713.5969 C873.18,636.7069 819.39,364.6069 855.89,273.2969 C863.88,253.3069 875.0946,238.6118 887.6846,225.1318" fill="none" id="file_download_manager__completed-to-file_download_manager__idle" style="stroke:#181818;stroke-width:1;"/><polygon fill="#181818" points="891.78,220.7469,882.7136,224.594,888.3672,224.401,888.5602,230.0545,891.78,220.7469" style="stroke:#181818;stroke-width:1;"/><text fill="#000000" font-family="sans-serif" font-size="13" lengthAdjust="spacing" textLength="111.9346" x="856.89" y="480.5138">Completed.Reset</text></g><!--link file_download_manager__failed to file_download_manager__idle--><g class="link" data-entity-1="file_download_manager__failed" data-entity-2="file_download_manager__idle" data-source-line="40" data-uid="lnk25" id="link_file_download_manager__failed_file_download_manager__idle"><path d="M672.19,840.2669 C708.95,835.2069 777.54,824.2369 833.89,806.5969 C929.76,776.5869 985.71,798.1869 1039.89,713.5969 C1145.67,548.4569 1100.1,447.9469 1010.89,273.2969 C995.52,243.2069 966.4834,225.262 942.5734,214.062" fill="none" id="file_download_manager__failed-to-file_download_manager__idle" style="stroke:#181818;stroke-width:1;"/><polygon fill="#181818" points="937.14,211.5169,943.5934,218.9569,941.6679,213.6378,946.9869,211.7123,937.14,211.5169" style="stroke:#181818;stroke-width:1;"/><text fill="#000000" font-family="sans-serif" font-size="13" lengthAdjust="spacing" textLength="79.9487" x="1050.23" y="709.6638">Failed.Reset</text></g><ellipse cx="580.83" cy="16" fill="#222222" rx="10" ry="10" style="stroke:#222222;stroke-width:1;"/><ellipse cx="580.83" cy="945.6" fill="none" rx="11" ry="11" style="stroke:#222222;stroke-width:1;"/><ellipse cx="580.83" cy="945.6" fill="#222222" rx="6" ry="6" style="stroke:#222222;stroke-width:1;"/><!--link *start* to file_download_manager--><g class="link" data-entity-1="*start*" data-entity-2="file_download_manager" data-source-line="42" data-uid="lnk27" id="link_*start*_file_download_manager"><path d="M580.83,26.24 C580.83,37.56 580.83,52.64 580.83,79.74" fill="none" id="*start*-to-file_download_manager" style="stroke:#181818;stroke-width:1;"/><polygon fill="#181818" points="580.83,85.74,584.83,76.74,580.83,80.74,576.83,76.74,580.83,85.74" style="stroke:#181818;stroke-width:1;"/></g><!--link file_download_manager to *end*--><g class="link" data-entity-1="file_download_manager" data-entity-2="*end*" data-source-line="43" data-uid="lnk29" id="link_file_download_manager_*end*"><path d="M580.83,874.99 C580.83,901.82 580.83,916.84 580.83,928.49" fill="none" id="file_download_manager-to-*end*" style="stroke:#181818;stroke-width:1;"/><polygon fill="#181818" points="580.83,934.49,584.83,925.49,580.83,929.49,576.83,925.49,580.83,934.49" style="stroke:#181818;stroke-width:1;"/></g><!--SRC=[hLPDRzim3BtxLt0vz32WMOfY5oFDeMbJ3DY0ejrEms085kCAbIM3aZ44HVxxvCygMUh4Zg_YuvFu-4JfHN04J3Ex0Ouc9f5PeLKGc5UXCaOi1MEPHNWB06vP_9gGpXLVQgbfFiyCvbml5l1T92_sWTZc42hMQQQDiDW0RsME1L0JHzgdgbbMMjbdkv7eXOHbKiJ1rfskFDDa9IJUwRzAQiP_CCKIf0am0skt7l4w4ALL17PFKXG4TN6JRrpYnvbH95pSnpUR2fLqfV5tsC7TFSQbLWfZUpfX5CLjoZxPJsBAh96e3vtralO97rbka9zCbPNmbgHVCN1vkO3Vd_z025-M9Ao8cRmdqjIBpwzc7CQggEDSHR003MpX0B5wwn52HZeXD0OMD_1rEZjFsXxgXU1xS_hB89NU6jg90QLNNYwtVaAJfpY6htmzhsQpMj6jFpEUqDBco8Ma6XFiJ8OqasYxhr_SWFpC5NFWphHrYGWwYYycNvVI5ODJuF_BSC9G79Mu4MzSrbRPSMdhZ66SHqPC-reDxAdVeH2Ajt7wR1dPvjKReRjjhqB0eYmdi_k7VBg16LnSG1brIxcoC8VhCTrqP3TtVQ_FzTYkVEFNykx8Z-REELOkpU5Crs2dRaYYFS_ADMSrZsh2RT3fuk3m7wwUkFy0]--></g></svg>