<?plantuml 1.2026.2beta3?><svg xmlns="http://www.w3.org/2000/svg" xmlns:xlink="http://www.w3.org/1999/xlink" contentStyleType="text/css" data-diagram-type="STATE" height="1384px" preserveAspectRatio="none" style="width:1161px;height:1384px;background:#FFFFFF;" version="1.1" viewBox="0 0 1161 1384" width="1161px" zoomAndPan="magnify"><defs/><g><g class="entity" data-qualified-name="DefinitionNote" data-source-line="3" id="ent0002"><path d="M336.1,6 L336.1,106.7969 L532.8285,106.7969 L532.8285,16 L522.8285,6 L336.1,6" fill="#FEFFDD" style="stroke:#181818;stroke-width:0.5;"/><path d="M522.8285,6 L522.8285,16 L532.8285,16 L522.8285,6" fill="#FEFFDD" style="stroke:#181818;stroke-width:1;"/><text fill="#000000" font-family="sans-serif" font-size="13" lengthAdjust="spacing" textLength="59.8521" x="342.1" y="23.0669">defines {</text><text fill="#000000" font-family="sans-serif" font-size="13" lengthAdjust="spacing" textLength="152.5024" x="358.6293" y="38.1997">def int retry_count = 0;</text><text fill="#000000" font-family="sans-serif" font-size="13" lengthAdjust="spacing" textLength="147.6846" x="358.6293" y="53.3325">def int error_code = 0;</text><text fill="#000000" font-family="sans-serif" font-size="13" lengthAdjust="spacing" textLength="138.8359" x="358.6293" y="68.4653">def int data_size = 0;</text><text fill="#000000" font-family="sans-serif" font-size="13" lengthAdjust="spacing" textLength="159.1992" x="358.6293" y="83.5981">def float progress = 0.0;</text><text fill="#000000" font-family="sans-serif" font-size="13" lengthAdjust="spacing" textLength="8.271" x="342.1" y="98.731">}</text></g><path d="M19.5,166.8 L1135.43,166.8 A12.5,12.5 0 0 1 1147.93,179.3 L1147.93,193.0969 L7,193.0969 L7,179.3 A12.5,12.5 0 0 1 19.5,166.8" fill="#F1F1F1"/><rect fill="none" height="1129.56" rx="12.5" ry="12.5" style="stroke:#181818;stroke-width:0.5;" width="1140.93" x="7" y="166.8"/><line style="stroke:#181818;stroke-width:0.5;" x1="7" x2="1147.93" y1="193.0969" y2="193.0969"/><text fill="#000000" font-family="sans-serif" font-size="14" lengthAdjust="spacing" textLength="155.4014" x="499.7643" y="184.7951">FileDownloadManager</text><g class="entity" data-qualified-name="file_download_manager.file_download_manager__idle" id="ent0004"><rect fill="#F1F1F1" height="120.1094" rx="12.5" ry="12.5" style="stroke:#181818;stroke-width:0.5;" width="133.5313" x="845.55" y="261.0969"/><line style="stroke:#181818;stroke-width:0.5;" x1="845.55" x2="979.0813" y1="287.3937" y2="287.3937"/><text fill="#000000" font-family="sans-serif" font-size="14" lengthAdjust="spacing" textLength="25.5186" x="899.5563" y="279.092">Idle</text><text fill="#000000" font-family="sans-serif" font-size="12" lengthAdjust="spacing" textLength="43.459" x="850.55" y="303.5324">enter {</text><text fill="#000000" font-family="sans-serif" font-size="12" lengthAdjust="spacing" textLength="98.2734" x="865.8078" y="317.5012">retry_count = 0;</text><text fill="#000000" font-family="sans-serif" font-size="12" lengthAdjust="spacing" textLength="93.8262" x="865.8078" y="331.4699">error_code = 0;</text><text fill="#000000" font-family="sans-serif" font-size="12" lengthAdjust="spacing" textLength="85.6582" x="865.8078" y="345.4387">data_size = 0;</text><text fill="#000000" font-family="sans-serif" font-size="12" lengthAdjust="spacing" textLength="93.1406" x="865.8078" y="359.4074">progress = 0.0;</text><text fill="#000000" font-family="sans-serif" font-size="12" lengthAdjust="spacing" textLength="7.6348" x="850.55" y="373.3762">}</text></g><path d="M31.5,434.2069 L731.1398,434.2069 A12.5,12.5 0 0 1 743.6398,446.7069 L743.6398,460.5037 L19,460.5037 L19,446.7069 A12.5,12.5 0 0 1 31.5,434.2069" fill="#F1F1F1"/><rect fill="none" height="575.7769" rx="12.5" ry="12.5" style="stroke:#181818;stroke-width:0.5;" width="724.6398" x="19" y="434.2069"/><line style="stroke:#181818;stroke-width:0.5;" x1="19" x2="743.6398" y1="460.5037" y2="460.5037"/><text fill="#000000" font-family="sans-serif" font-size="14" lengthAdjust="spacing" textLength="91.2393" x="335.7003" y="452.202">Downloading</text><g class="entity" data-qualified-name="file_download_manager.file_download_manager__downloading.file_download_manager__downloading__connecting" id="ent0006"><rect fill="#F1F1F1" height="120.1094" rx="12.5" ry="12.5" style="stroke:#181818;stroke-width:0.5;" width="198.4121" x="428.38" y="528.5038"/><line style="stroke:#181818;stroke-width:0.5;" x1="428.38" x2="626.7921" y1="554.8006" y2="554.8006"/><text fill="#000000" font-family="sans-serif" font-size="14" lengthAdjust="spacing" textLength="79.5361" x="487.818" y="546.4989">Connecting</text><text fill="#000000" font-family="sans-serif" font-size="12" lengthAdjust="spacing" textLength="43.459" x="433.38" y="570.9393">enter {</text><text fill="#000000" font-family="sans-serif" font-size="12" lengthAdjust="spacing" textLength="93.1406" x="448.6378" y="584.908">progress = 0.0;</text><text fill="#000000" font-family="sans-serif" font-size="12" lengthAdjust="spacing" textLength="7.6348" x="433.38" y="598.8768">}</text><text fill="#000000" font-family="sans-serif" font-size="12" lengthAdjust="spacing" textLength="50.1621" x="433.38" y="612.8455">during {</text><text fill="#000000" font-family="sans-serif" font-size="12" lengthAdjust="spacing" textLength="163.1543" x="448.6378" y="626.8143">progress = progress + 0.1;</text><text fill="#000000" font-family="sans-serif" font-size="12" lengthAdjust="spacing" textLength="7.6348" x="433.38" y="640.783">}</text></g><g class="entity" data-qualified-name="file_download_manager.file_download_manager__downloading.file_download_manager__downloading__transferring" id="ent0007"><rect fill="#F1F1F1" height="92.1719" rx="12.5" ry="12.5" style="stroke:#181818;stroke-width:0.5;" width="217.8008" x="281.68" y="701.6038"/><line style="stroke:#181818;stroke-width:0.5;" x1="281.68" x2="499.4808" y1="727.9006" y2="727.9006"/><text fill="#000000" font-family="sans-serif" font-size="14" lengthAdjust="spacing" textLength="85.7568" x="347.702" y="719.5989">Transferring</text><text fill="#000000" font-family="sans-serif" font-size="12" lengthAdjust="spacing" textLength="50.1621" x="286.68" y="744.0393">during {</text><text fill="#000000" font-family="sans-serif" font-size="12" lengthAdjust="spacing" textLength="182.543" x="301.9378" y="758.008">data_size = data_size + 1024;</text><text fill="#000000" font-family="sans-serif" font-size="12" lengthAdjust="spacing" textLength="163.1543" x="301.9378" y="771.9768">progress = progress + 1.0;</text><text fill="#000000" font-family="sans-serif" font-size="12" lengthAdjust="spacing" textLength="7.6348" x="286.68" y="785.9455">}</text></g><g class="entity" data-qualified-name="file_download_manager.file_download_manager__downloading.file_download_manager__downloading__paused" id="ent0008"><rect fill="#F1F1F1" height="78.2031" rx="12.5" ry="12.5" style="stroke:#181818;stroke-width:0.5;" width="129.084" x="176.04" y="846.7838"/><line style="stroke:#181818;stroke-width:0.5;" x1="176.04" x2="305.124" y1="873.0806" y2="873.0806"/><text fill="#000000" font-family="sans-serif" font-size="14" lengthAdjust="spacing" textLength="50.6885" x="215.2378" y="864.7789">Paused</text><text fill="#000000" font-family="sans-serif" font-size="12" lengthAdjust="spacing" textLength="43.459" x="181.04" y="889.2193">enter {</text><text fill="#000000" font-family="sans-serif" font-size="12" lengthAdjust="spacing" textLength="93.8262" x="196.2978" y="903.188">error_code = 0;</text><text fill="#000000" font-family="sans-serif" font-size="12" lengthAdjust="spacing" textLength="7.6348" x="181.04" y="917.1568">}</text></g><g class="end_entity" data-qualified-name="file_download_manager.file_download_manager__downloading..end.file_download_manager__downloading" data-source-line="21" id="ent0002"><ellipse cx="450.59" cy="988.9838" fill="none" rx="11" ry="11" style="stroke:#222222;stroke-width:1;"/><ellipse cx="450.59" cy="988.9838" fill="#222222" rx="6" ry="6" style="stroke:#222222;stroke-width:1;"/></g><g class="start_entity" data-qualified-name="file_download_manager.file_download_manager__downloading..start.file_download_manager__downloading" data-source-line="24" id="ent0006"><ellipse cx="527.59" cy="481.5037" fill="#222222" rx="10" ry="10" style="stroke:#222222;stroke-width:1;"/></g><!--link file_download_manager__downloading__connecting to *end*file_download_manager__downloading--><g class="link" data-entity-1="ent0006" data-entity-2="ent0002" data-link-type="dependency" data-source-line="21" id="lnk3"><path d="M573.5,648.7938 C622.67,720.0138 686.1,840.4638 626.59,924.9838 C587.35,980.7038 500.0489,987.2903 467.7889,987.9003" fill="none" id="file_download_manager__downloading__connecting-to-*end*file_download_manager__downloading" style="stroke:#181818;stroke-width:1;"/><polygon fill="#181818" points="461.79,988.0138,470.864,991.8429,466.7891,987.9192,470.7128,983.8443,461.79,988.0138" style="stroke:#181818;stroke-width:1;"/><text fill="#000000" font-family="sans-serif" font-size="13" lengthAdjust="spacing" textLength="82.0498" x="651.59" y="824.8506">/CriticalError</text></g><!--link file_download_manager__downloading__transferring to *end*file_download_manager__downloading--><g class="link" data-entity-1="ent0007" data-entity-2="ent0002" data-link-type="dependency" data-source-line="22" id="lnk4"><path d="M387.52,793.9738 C386.6,830.4638 388.85,882.5238 404.59,924.9838 C413.06,947.8438 428.1666,965.4124 438.8766,976.3724" fill="none" id="file_download_manager__downloading__transferring-to-*end*file_download_manager__downloading" style="stroke:#181818;stroke-width:1;"/><polygon fill="#181818" points="443.07,980.6637,439.6407,971.4312,439.5755,977.0877,433.919,977.0224,443.07,980.6637" style="stroke:#181818;stroke-width:1;"/><text fill="#000000" font-family="sans-serif" font-size="13" lengthAdjust="spacing" textLength="82.0498" x="405.59" y="890.4506">/CriticalError</text></g><!--link file_download_manager__downloading__paused to *end*file_download_manager__downloading--><g class="link" data-entity-1="ent0008" data-entity-2="ent0002" data-link-type="dependency" data-source-line="23" id="lnk5"><path d="M259.82,925.1937 C268.18,938.1637 279.16,951.4938 292.59,959.9838 C317.31,975.6238 401.8111,983.9405 433.5311,986.6105" fill="none" id="file_download_manager__downloading__paused-to-*end*file_download_manager__downloading" style="stroke:#181818;stroke-width:1;"/><polygon fill="#181818" points="439.51,987.1138,430.8772,982.3729,434.5276,986.6944,430.2062,990.3448,439.51,987.1138" style="stroke:#181818;stroke-width:1;"/><text fill="#000000" font-family="sans-serif" font-size="13" lengthAdjust="spacing" textLength="82.0498" x="293.59" y="956.0506">/CriticalError</text></g><!--link *start*file_download_manager__downloading to file_download_manager__downloading__connecting--><g class="link" data-entity-1="ent0006" data-entity-2="ent0006" data-link-type="dependency" data-source-line="24" id="lnk7"><path d="M527.59,491.8237 C527.59,500.4638 527.59,508.0938 527.59,522.4038" fill="none" id="*start*file_download_manager__downloading-to-file_download_manager__downloading__connecting" style="stroke:#181818;stroke-width:1;"/><polygon fill="#181818" points="527.59,528.4038,531.59,519.4038,527.59,523.4038,523.59,519.4038,527.59,528.4038" style="stroke:#181818;stroke-width:1;"/></g><!--link file_download_manager__downloading__connecting to file_download_manager__downloading__transferring--><g class="link" data-entity-1="ent0006" data-entity-2="ent0007" data-link-type="dependency" data-source-line="25" id="lnk8"><path d="M475.79,648.9638 C460.64,666.3438 448.2638,680.542 434.0038,696.892" fill="none" id="file_download_manager__downloading__connecting-to-file_download_manager__downloading__transferring" style="stroke:#181818;stroke-width:1;"/><polygon fill="#181818" points="430.06,701.4137,438.9902,697.2602,433.3465,697.6456,432.9611,692.0019,430.06,701.4137" style="stroke:#181818;stroke-width:1;"/><text fill="#000000" font-family="sans-serif" font-size="13" lengthAdjust="spacing" textLength="107.415" x="460.59" y="679.6706">progress &gt;= 5.0</text></g><!--link file_download_manager__downloading__transferring to file_download_manager__downloading__paused--><g class="link" data-entity-1="ent0007" data-entity-2="ent0008" data-link-type="dependency" data-source-line="26" id="lnk9"><path d="M281.24,755.2238 C197.51,762.7738 91.87,778.7038 64.59,811.7838 C30,853.7038 106.2934,871.203 169.6834,878.873" fill="none" id="file_download_manager__downloading__transferring-to-file_download_manager__downloading__paused" style="stroke:#181818;stroke-width:1;"/><polygon fill="#181818" points="175.64,879.5938,167.1857,874.5416,170.6762,878.9931,166.2247,882.4837,175.64,879.5938" style="stroke:#181818;stroke-width:1;"/><text fill="#000000" font-family="sans-serif" font-size="13" lengthAdjust="spacing" textLength="152.2104" x="65.59" y="824.8506">Transferring.UserPause</text></g><!--link file_download_manager__downloading__paused to file_download_manager__downloading__transferring--><g class="link" data-entity-1="ent0008" data-entity-2="ent0007" data-link-type="dependency" data-source-line="27" id="lnk10"><path d="M233.29,846.3838 C232.98,834.4337 234.86,821.7838 241.59,811.7838 C251.54,796.9738 260.4691,788.5368 276.1691,779.8568" fill="none" id="file_download_manager__downloading__paused-to-file_download_manager__downloading__transferring" style="stroke:#181818;stroke-width:1;"/><polygon fill="#181818" points="281.42,776.9538,271.6082,777.8077,277.0442,779.373,275.479,784.809,281.42,776.9538" style="stroke:#181818;stroke-width:1;"/><text fill="#000000" font-family="sans-serif" font-size="13" lengthAdjust="spacing" textLength="133.5356" x="242.59" y="824.8506">Paused.UserResume</text></g><!--link file_download_manager__downloading__transferring to *end*file_download_manager__downloading--><g class="link" data-entity-1="ent0007" data-entity-2="ent0002" data-link-type="dependency" data-source-line="28" id="lnk11"><path d="M450.83,794.1837 C466.05,809.1038 480.39,826.9838 488.59,846.7838 C501.88,878.8938 497.9,891.5038 488.59,924.9838 C482.49,946.8838 470.2812,964.1352 461.1012,975.4452" fill="none" id="file_download_manager__downloading__transferring-to-*end*file_download_manager__downloading-1" style="stroke:#181818;stroke-width:1;"/><polygon fill="#181818" points="457.32,980.1038,466.0976,975.6367,460.471,976.2216,459.8861,970.5951,457.32,980.1038" style="stroke:#181818;stroke-width:1;"/><text fill="#000000" font-family="sans-serif" font-size="13" lengthAdjust="spacing" textLength="123.957" x="498.59" y="890.4506">progress &gt;= 100.0</text></g><g class="entity" data-qualified-name="file_download_manager.file_download_manager__retrying" id="ent0009"><rect fill="#F1F1F1" height="92.1719" rx="12.5" ry="12.5" style="stroke:#181818;stroke-width:0.5;" width="220.127" x="540.26" y="1062.9769"/><line style="stroke:#181818;stroke-width:0.5;" x1="540.26" x2="760.387" y1="1089.2737" y2="1089.2737"/><text fill="#000000" font-family="sans-serif" font-size="14" lengthAdjust="spacing" textLength="59.5205" x="620.5632" y="1080.972">Retrying</text><text fill="#000000" font-family="sans-serif" font-size="12" lengthAdjust="spacing" textLength="43.459" x="545.26" y="1105.4124">enter {</text><text fill="#000000" font-family="sans-serif" font-size="12" lengthAdjust="spacing" textLength="184.8691" x="560.5178" y="1119.3812">retry_count = retry_count + 1;</text><text fill="#000000" font-family="sans-serif" font-size="12" lengthAdjust="spacing" textLength="93.8262" x="560.5178" y="1133.3499">error_code = 0;</text><text fill="#000000" font-family="sans-serif" font-size="12" lengthAdjust="spacing" textLength="7.6348" x="545.26" y="1147.3187">}</text></g><g class="entity" data-qualified-name="file_download_manager.file_download_manager__completed" id="ent0010"><rect fill="#F1F1F1" height="78.2031" rx="12.5" ry="12.5" style="stroke:#181818;stroke-width:0.5;" width="143.668" x="778.49" y="1069.9669"/><line style="stroke:#181818;stroke-width:0.5;" x1="778.49" x2="922.158" y1="1096.2638" y2="1096.2638"/><text fill="#000000" font-family="sans-serif" font-size="14" lengthAdjust="spacing" textLength="76.3574" x="812.1453" y="1087.962">Completed</text><text fill="#000000" font-family="sans-serif" font-size="12" lengthAdjust="spacing" textLength="43.459" x="783.49" y="1112.4024">enter {</text><text fill="#000000" font-family="sans-serif" font-size="12" lengthAdjust="spacing" textLength="108.4102" x="798.7478" y="1126.3712">progress = 100.0;</text><text fill="#000000" font-family="sans-serif" font-size="12" lengthAdjust="spacing" textLength="7.6348" x="783.49" y="1140.3399">}</text></g><g class="entity" data-qualified-name="file_download_manager.file_download_manager__failed" id="ent0011"><rect fill="#F1F1F1" height="78.2031" rx="12.5" ry="12.5" style="stroke:#181818;stroke-width:0.5;" width="129.084" x="709.78" y="1208.1569"/><line style="stroke:#181818;stroke-width:0.5;" x1="709.78" x2="838.864" y1="1234.4538" y2="1234.4538"/><text fill="#000000" font-family="sans-serif" font-size="14" lengthAdjust="spacing" textLength="41.9111" x="753.3664" y="1226.152">Failed</text><text fill="#000000" font-family="sans-serif" font-size="12" lengthAdjust="spacing" textLength="43.459" x="714.78" y="1250.5924">enter {</text><text fill="#000000" font-family="sans-serif" font-size="12" lengthAdjust="spacing" textLength="93.8262" x="730.0378" y="1264.5612">error_code = 1;</text><text fill="#000000" font-family="sans-serif" font-size="12" lengthAdjust="spacing" textLength="7.6348" x="714.78" y="1278.5299">}</text></g><g class="start_entity" data-qualified-name="file_download_manager..start.file_download_manager" data-source-line="41" id="ent0017"><ellipse cx="912.32" cy="214.0969" fill="#222222" rx="10" ry="10" style="stroke:#222222;stroke-width:1;"/></g><!--link file_download_manager__idle to file_download_manager__failed--><g class="link" data-entity-1="ent0004" data-entity-2="ent0011" data-link-type="dependency" data-source-line="36" id="lnk12"><path d="M949,381.4869 C957.35,397.9669 965.02,416.2669 969.32,434.2069 C1028.98,683.0569 1001.99,756.1769 969.32,1009.9769 C958.33,1095.3469 968.38,1140.1569 898.32,1190.1569 C880.43,1202.9169 864.675,1211.4076 844.855,1220.0976" fill="none" id="file_download_manager__idle-to-file_download_manager__failed" style="stroke:#181818;stroke-width:1;"/><polygon fill="#181818" points="839.36,1222.5069,849.2087,1222.5563,843.9392,1220.4991,845.9964,1215.2296,839.36,1222.5069" style="stroke:#181818;stroke-width:1;"/><text fill="#000000" font-family="sans-serif" font-size="13" lengthAdjust="spacing" textLength="77.6699" x="968.32" y="1041.0438">CriticalError</text></g><!--link file_download_manager__downloading to file_download_manager__failed--><g class="link" data-entity-1="ent0005" data-entity-2="ent0011" data-link-type="dependency" data-source-line="37" id="lnk13"><path d="M159.06,1010.1969 C144.44,1059.9969 145.93,1110.1769 176.32,1155.1569 C199.65,1189.6869 222.9,1180.0069 263.32,1190.1569 C420.43,1229.5869 605.6238,1241.0939 703.6038,1244.5739" fill="none" id="file_download_manager__downloading-to-file_download_manager__failed" style="stroke:#181818;stroke-width:1;"/><polygon fill="#181818" points="709.6,1244.7869,700.7477,1240.4699,704.6032,1244.6094,700.4637,1248.4649,709.6,1244.7869" style="stroke:#181818;stroke-width:1;"/><text fill="#000000" font-family="sans-serif" font-size="13" lengthAdjust="spacing" textLength="77.6699" x="177.32" y="1113.6338">CriticalError</text></g><!--link file_download_manager__retrying to file_download_manager__failed--><g class="link" data-entity-1="ent0009" data-entity-2="ent0011" data-link-type="dependency" data-source-line="38" id="lnk14"><path d="M691.61,1155.4169 C707.11,1172.4369 720.5204,1187.1704 735.3804,1203.4904" fill="none" id="file_download_manager__retrying-to-file_download_manager__failed" style="stroke:#181818;stroke-width:1;"/><polygon fill="#181818" points="739.42,1207.9269,736.3183,1198.5792,736.0537,1204.2298,730.403,1203.9652,739.42,1207.9269" style="stroke:#181818;stroke-width:1;"/><text fill="#000000" font-family="sans-serif" font-size="13" lengthAdjust="spacing" textLength="77.6699" x="721.32" y="1186.2238">CriticalError</text></g><!--link file_download_manager__completed to file_download_manager__failed--><g class="link" data-entity-1="ent0010" data-entity-2="ent0011" data-link-type="dependency" data-source-line="39" id="lnk15"><path d="M828.95,1148.3669 C818.59,1166.9369 809.0917,1183.9363 798.7217,1202.5363" fill="none" id="file_download_manager__completed-to-file_download_manager__failed" style="stroke:#181818;stroke-width:1;"/><polygon fill="#181818" points="795.8,1207.7769,803.6763,1201.8639,798.2348,1203.4097,796.6889,1197.9682,795.8,1207.7769" style="stroke:#181818;stroke-width:1;"/><text fill="#000000" font-family="sans-serif" font-size="13" lengthAdjust="spacing" textLength="77.6699" x="816.32" y="1186.2238">CriticalError</text></g><!--link file_download_manager__failed to file_download_manager__failed--><g class="link" data-entity-1="ent0011" data-entity-2="ent0011" data-link-type="dependency" data-source-line="40" id="lnk16"><path d="M839.03,1235.8769 C849.6,1237.5069 856.86,1241.2969 856.86,1247.2569 C856.86,1253.2169 855.5299,1256.0924 844.9599,1257.7224" fill="none" id="file_download_manager__failed-to-file_download_manager__failed" style="stroke:#181818;stroke-width:1;"/><polygon fill="#181818" points="839.03,1258.6369,848.5345,1261.2185,843.9716,1257.8748,847.3152,1253.3119,839.03,1258.6369" style="stroke:#181818;stroke-width:1;"/><text fill="#000000" font-family="sans-serif" font-size="13" lengthAdjust="spacing" textLength="77.6699" x="862.86" y="1251.8238">CriticalError</text></g><!--link *start*file_download_manager to file_download_manager__idle--><g class="link" data-entity-1="ent0017" data-entity-2="ent0004" data-link-type="dependency" data-source-line="41" id="lnk18"><path d="M912.32,224.4169 C912.32,233.0569 912.32,240.6969 912.32,254.9969" fill="none" id="*start*file_download_manager-to-file_download_manager__idle" style="stroke:#181818;stroke-width:1;"/><polygon fill="#181818" points="912.32,260.9969,916.32,251.9969,912.32,255.9969,908.32,251.9969,912.32,260.9969" style="stroke:#181818;stroke-width:1;"/></g><!--link file_download_manager__idle to file_download_manager__downloading--><g class="link" data-entity-1="ent0004" data-entity-2="ent0005" data-link-type="dependency" data-source-line="42" id="lnk19"><path d="M845.52,338.5769 C802.46,351.0669 746.48,370.9469 702.32,399.2069 C685.7,409.8369 674.0382,417.8249 657.9082,430.1449" fill="none" id="file_download_manager__idle-to-file_download_manager__downloading" style="stroke:#181818;stroke-width:1;"/><polygon fill="#181818" points="653.14,433.7869,662.7203,431.5028,657.1135,430.7519,657.8644,425.1451,653.14,433.7869" style="stroke:#181818;stroke-width:1;"/><text fill="#000000" font-family="sans-serif" font-size="13" lengthAdjust="spacing" textLength="124.2046" x="703.32" y="412.2738">Idle.StartDownload</text></g><!--link file_download_manager__downloading to file_download_manager__retrying--><g class="link" data-entity-1="ent0005" data-entity-2="ent0009" data-link-type="dependency" data-source-line="43" id="lnk20"><path d="M296.35,1010.3769 C301.41,1022.7469 308.6,1034.3869 318.32,1044.9769 C334,1062.0769 503.67,1057.9769 526.32,1062.9769 C530.79,1063.9669 529.5207,1063.538 534.0807,1064.748" fill="none" id="file_download_manager__downloading-to-file_download_manager__retrying" style="stroke:#181818;stroke-width:1;"/><polygon fill="#181818" points="539.88,1066.2869,532.2069,1060.1124,535.0472,1065.0045,530.1551,1067.8448,539.88,1066.2869" style="stroke:#181818;stroke-width:1;"/><text fill="#000000" font-family="sans-serif" font-size="13" lengthAdjust="spacing" textLength="233.0986" x="319.32" y="1041.0438">error_code != 0 &amp;&amp; retry_count &lt; 3</text></g><!--link file_download_manager__downloading to file_download_manager__failed--><g class="link" data-entity-1="ent0005" data-entity-2="ent0011" data-link-type="dependency" data-source-line="44" id="lnk21"><path d="M282.87,1010.2769 C268.93,1073.9769 265.46,1130.0469 286.32,1155.1569 C339.39,1219.0469 583.1966,1238.0957 703.3966,1243.7357" fill="none" id="file_download_manager__downloading-to-file_download_manager__failed-1" style="stroke:#181818;stroke-width:1;"/><polygon fill="#181818" points="709.39,1244.0169,700.5874,1239.5994,704.3955,1243.7825,700.2124,1247.5906,709.39,1244.0169" style="stroke:#181818;stroke-width:1;"/><text fill="#000000" font-family="sans-serif" font-size="13" lengthAdjust="spacing" textLength="243.9912" x="287.32" y="1113.6338">error_code != 0 &amp;&amp; retry_count &gt;= 3</text></g><!--link file_download_manager__retrying to file_download_manager__downloading--><g class="link" data-entity-1="ent0009" data-entity-2="ent0005" data-link-type="dependency" data-source-line="45" id="lnk22"><path d="M593.17,1062.6669 C587.21,1056.9769 581.46,1051.0269 576.32,1044.9769 C566.9,1033.9069 561.2782,1027.1056 552.2282,1015.1856" fill="none" id="file_download_manager__retrying-to-file_download_manager__downloading" style="stroke:#181818;stroke-width:1;"/><polygon fill="#181818" points="548.6,1010.4069,550.8564,1019.9938,551.6235,1014.3892,557.2281,1015.1562,548.6,1010.4069" style="stroke:#181818;stroke-width:1;"/><text fill="#000000" font-family="sans-serif" font-size="13" lengthAdjust="spacing" textLength="102.083" x="577.32" y="1041.0438">retry_count &lt; 3</text></g><!--link file_download_manager__downloading to file_download_manager__completed--><g class="link" data-entity-1="ent0005" data-entity-2="ent0010" data-link-type="dependency" data-source-line="46" id="lnk23"><path d="M662.26,1010.4469 C681.19,1028.1069 695.76,1040.5969 703.32,1044.9769 C729.62,1060.2369 741.16,1051.5069 769.32,1062.9769 C774.24,1064.9869 773.8122,1064.6485 778.7922,1067.0185" fill="none" id="file_download_manager__downloading-to-file_download_manager__completed" style="stroke:#181818;stroke-width:1;"/><polygon fill="#181818" points="784.21,1069.5969,777.8022,1062.1175,779.6952,1067.4483,774.3645,1069.3412,784.21,1069.5969" style="stroke:#181818;stroke-width:1;"/><text fill="#000000" font-family="sans-serif" font-size="13" lengthAdjust="spacing" textLength="123.957" x="704.32" y="1041.0438">progress &gt;= 100.0</text></g><!--link file_download_manager__completed to file_download_manager__idle--><g class="link" data-entity-1="ent0010" data-entity-2="ent0004" data-link-type="dependency" data-source-line="47" id="lnk24"><path d="M844.72,1069.7069 C830.78,965.6369 799.58,669.9469 856.32,434.2069 C860.62,416.3369 865.5032,403.4267 873.7132,386.9567" fill="none" id="file_download_manager__completed-to-file_download_manager__idle" style="stroke:#181818;stroke-width:1;"/><polygon fill="#181818" points="876.39,381.5869,868.795,387.8571,874.1594,386.0617,875.9547,391.4261,876.39,381.5869" style="stroke:#181818;stroke-width:1;"/><text fill="#000000" font-family="sans-serif" font-size="13" lengthAdjust="spacing" textLength="111.9346" x="857.32" y="726.6638">Completed.Reset</text></g><!--link file_download_manager__failed to file_download_manager__idle--><g class="link" data-entity-1="ent0011" data-entity-2="ent0004" data-link-type="dependency" data-source-line="48" id="lnk25"><path d="M839.09,1226.9469 C865.79,1217.6669 896.46,1205.2569 922.32,1190.1569 C996.6,1146.7769 1022.33,1126.3169 1050.32,1044.9769 C1138.93,787.4669 1097.41,689.0169 1001.32,434.2069 C994.26,415.4969 986.5158,402.2091 974.1758,386.2891" fill="none" id="file_download_manager__failed-to-file_download_manager__idle" style="stroke:#181818;stroke-width:1;"/><polygon fill="#181818" points="970.5,381.5469,972.8522,391.1107,973.5632,385.4987,979.1752,386.2096,970.5,381.5469" style="stroke:#181818;stroke-width:1;"/><text fill="#000000" font-family="sans-serif" font-size="13" lengthAdjust="spacing" textLength="79.9487" x="1055.32" y="1041.0438">Failed.Reset</text></g><g class="start_entity" data-qualified-name=".start." data-source-line="50" id="ent0026"><ellipse cx="577.47" cy="56.4" fill="#222222" rx="10" ry="10" style="stroke:#222222;stroke-width:1;"/></g><g class="end_entity" data-qualified-name=".end." data-source-line="51" id="ent0028"><ellipse cx="577.47" cy="1367.36" fill="none" rx="11" ry="11" style="stroke:#222222;stroke-width:1;"/><ellipse cx="577.47" cy="1367.36" fill="#222222" rx="6" ry="6" style="stroke:#222222;stroke-width:1;"/></g><!--link *start* to file_download_manager--><g class="link" data-entity-1="ent0026" data-entity-2="ent0003" data-link-type="dependency" data-source-line="50" id="lnk27"><path d="M577.47,66.41 C577.47,82.44 577.47,112.79 577.47,160.65" fill="none" id="*start*-to-file_download_manager" style="stroke:#181818;stroke-width:1;"/><polygon fill="#181818" points="577.47,166.65,581.47,157.65,577.47,161.65,573.47,157.65,577.47,166.65" style="stroke:#181818;stroke-width:1;"/></g><!--link file_download_manager to *end*--><g class="link" data-entity-1="ent0003" data-entity-2="ent0028" data-link-type="dependency" data-source-line="51" id="lnk29"><path d="M577.47,1296.72 C577.47,1323.76 577.47,1338.47 577.47,1350.02" fill="none" id="file_download_manager-to-*end*" style="stroke:#181818;stroke-width:1;"/><polygon fill="#181818" points="577.47,1356.02,581.47,1347.02,577.47,1351.02,573.47,1347.02,577.47,1356.02" style="stroke:#181818;stroke-width:1;"/></g><?plantuml-src lLV1RjGm4BtdAqmFFL0rP2bSMDfBIoKE85JAYKMH5KyMIradihr21Us_CqwSn4cADyb6xCdnFC_C6u-VlJyv0mAxGZyH1YgHlD0y5u78DH2go1saN70pzHbd0cO-GP4_0S4VVX4kD96WvLESv7iSNvDetJ62bBb48uOPs1ZLD5RyTy-KPZdLf93vLe9InXQYzH20OCGa5WHAKyplx9vdS9V_4eXddwYWMv1d9kiKvsDc3V6kijYaxTAFB8D_O-EOext4U-pa7G6XZUUDCD1-7QhPNW6goIxpQgv7U2CERi8rJowslhnP2xE47H-tkH2GwF4kOioxNj8ucxQiNwGXourWUrdcEq0qmmi4hvgIE9GU9HKgnHfF8QMTHPDekGkHM3TlTq_RyGLPHQ_Vh7tKLivkEzI-qBq2DffKKS8dqQcMz7TeqB27kLj_UNb3lh_yWG5UtKfKaOHc7upp-JLVnAEbVTINCHhG_padOoFrUh3fevjhyZQCJYljfAPnZrxuJO4i6tRkJioWNXsGClG3gFqEbkWhjvwhAB8LxKZnWz7v8teZBSPtXzGO_ptYVg5MhBs7j17wNP61zgj7KeDyEJOWZuwNPUgdS4_HeJT-MY9ymIk4Lv_QIy5tKNiQh8anr80HL-oYZfj-MDHhkuEBkhKhvlayegoZ7b_ZH0F3cwTU-5LJgUitr0AxwvxTjXzVu5aav-UTC_kUN2tPJKUYeMfTdTfZtV8jpyNLbEVbzfHMjY_pHW93l1j0dzRArcUbQTRX8V1sSV3ydn1xqVm5?></g></svg>