<?plantuml 1.2026.2beta3?><svg xmlns="http://www.w3.org/2000/svg" xmlns:xlink="http://www.w3.org/1999/xlink" contentStyleType="text/css" data-diagram-type="STATE" height="669px" preserveAspectRatio="none" style="width:419px;height:669px;background:#FFFFFF;" version="1.1" viewBox="0 0 419 669" width="419px" zoomAndPan="magnify"><defs/><g><g class="entity" data-qualified-name="DefinitionNote" data-source-line="3" id="ent0002"><path d="M6,6 L6,61.3984 L171.3965,61.3984 L171.3965,16 L161.3965,6 L6,6" fill="#FEFFDD" style="stroke:#181818;stroke-width:0.5;"/><path d="M161.3965,6 L161.3965,16 L171.3965,16 L161.3965,6" fill="#FEFFDD" style="stroke:#181818;stroke-width:1;"/><text fill="#000000" font-family="sans-serif" font-size="13" lengthAdjust="spacing" textLength="59.8521" x="12" y="23.0669">defines {</text><text fill="#000000" font-family="sans-serif" font-size="13" lengthAdjust="spacing" textLength="127.8672" x="28.5293" y="38.1997">def int counter = 0;</text><text fill="#000000" font-family="sans-serif" font-size="13" lengthAdjust="spacing" textLength="8.271" x="12" y="53.3325">}</text></g><path d="M39.62,121.4 L393.7679,121.4 A12.5,12.5 0 0 1 406.2679,133.9 L406.2679,147.6969 L27.12,147.6969 L27.12,133.9 A12.5,12.5 0 0 1 39.62,121.4" fill="#F1F1F1"/><rect fill="none" height="460.2969" rx="12.5" ry="12.5" style="stroke:#181818;stroke-width:0.5;" width="379.1479" x="27.12" y="121.4"/><line style="stroke:#181818;stroke-width:0.5;" x1="27.12" x2="406.2679" y1="147.6969" y2="147.6969"/><text fill="#000000" font-family="sans-serif" font-size="14" lengthAdjust="spacing" textLength="106.4082" x="163.4898" y="139.3951">SimpleMachine</text><rect fill="#F1F1F1" height="40" rx="12.5" ry="12.5" style="stroke:#181818;stroke-width:0.5;" width="50" x="157.18" y="215.6969"/><text fill="#000000" font-family="sans-serif" font-size="14" lengthAdjust="spacing" textLength="25.5186" x="169.4207" y="240.5436">Idle</text><rect fill="#F1F1F1" height="40" rx="12.5" ry="12.5" style="stroke:#181818;stroke-width:0.5;" width="67.9961" x="58.18" y="373.6969"/><text fill="#000000" font-family="sans-serif" font-size="14" lengthAdjust="spacing" textLength="57.9961" x="63.18" y="398.5436">Running</text><rect fill="#F1F1F1" height="40" rx="12.5" ry="12.5" style="stroke:#181818;stroke-width:0.5;" width="68.2148" x="130.07" y="531.6969"/><text fill="#000000" font-family="sans-serif" font-size="14" lengthAdjust="spacing" textLength="58.2148" x="135.07" y="556.5436">Stopped</text><g class="start_entity" data-qualified-name="simple_machine..start.simple_machine" data-source-line="12" id="ent0002"><ellipse cx="182.18" cy="168.6969" fill="#222222" rx="10" ry="10" style="stroke:#222222;stroke-width:1;"/></g><!--link *start*simple_machine to simple_machine__idle--><g class="link" data-entity-1="ent0002" data-entity-2="ent0004" data-link-type="dependency" data-source-line="12" id="lnk3"><path d="M182.18,179.0069 C182.18,188.4169 182.18,197.2369 182.18,209.2169" fill="none" id="*start*simple_machine-to-simple_machine__idle" style="stroke:#181818;stroke-width:1;"/><polygon fill="#181818" points="182.18,215.2169,186.18,206.2169,182.18,210.2169,178.18,206.2169,182.18,215.2169" style="stroke:#181818;stroke-width:1;"/></g><!--link simple_machine__idle to simple_machine__running--><g class="link" data-entity-1="ent0004" data-entity-2="ent0005" data-link-type="dependency" data-source-line="13" id="lnk4"><path d="M156.73,249.2269 C146.57,255.3569 135.56,263.6069 128.18,273.6969 C105.99,303.9969 98.1165,342.1373 94.8365,367.2673" fill="none" id="simple_machine__idle-to-simple_machine__running" style="stroke:#181818;stroke-width:1;"/><polygon fill="#181818" points="94.06,373.2169,99.1912,364.8103,94.7071,368.2589,91.2585,363.7749,94.06,373.2169" style="stroke:#181818;stroke-width:1;"/><text fill="#000000" font-family="sans-serif" font-size="13" lengthAdjust="spacing" textLength="59.5854" x="163.0657" y="286.7638">Idle.Start</text><path d="M133.18,295.8297 L133.18,350.8297 L252.18,350.8297 L252.18,305.8297 L242.18,295.8297 L133.18,295.8297" fill="#FEFFDD" style="stroke:#181818;stroke-width:0.5;"/><path d="M242.18,295.8297 L242.18,305.8297 L252.18,305.8297 L242.18,295.8297" fill="#FEFFDD" style="stroke:#181818;stroke-width:0.5;"/><text fill="#000000" font-family="sans-serif" font-size="13" lengthAdjust="spacing" textLength="49.7974" x="139.18" y="312.8966">effect {</text><text fill="#000000" font-family="sans-serif" font-size="13" lengthAdjust="spacing" textLength="81.8276" x="155.7093" y="328.0294">counter = 0;</text><text fill="#000000" font-family="sans-serif" font-size="13" lengthAdjust="spacing" textLength="8.271" x="139.18" y="343.1622">}</text></g><!--link simple_machine__running to simple_machine__stopped--><g class="link" data-entity-1="ent0005" data-entity-2="ent0006" data-link-type="dependency" data-source-line="19" id="lnk5"><path d="M70.31,413.9869 C65.77,419.2369 61.63,425.2669 59.18,431.6969 C46.2,465.7469 38.12,483.9469 59.18,513.6969 C75.04,536.0969 99.6731,544.159 123.7531,547.679" fill="none" id="simple_machine__running-to-simple_machine__stopped" style="stroke:#181818;stroke-width:1;"/><polygon fill="#181818" points="129.69,548.5469,121.3632,543.2872,124.7426,547.8237,120.2061,551.203,129.69,548.5469" style="stroke:#181818;stroke-width:1;"/><text fill="#000000" font-family="sans-serif" font-size="13" lengthAdjust="spacing" textLength="87.5405" x="114.6766" y="444.7638">Running.Stop</text><path d="M64.18,453.8297 L64.18,508.8297 L252.18,508.8297 L252.18,463.8297 L242.18,453.8297 L64.18,453.8297" fill="#FEFFDD" style="stroke:#181818;stroke-width:0.5;"/><path d="M242.18,453.8297 L242.18,463.8297 L252.18,463.8297 L242.18,453.8297" fill="#FEFFDD" style="stroke:#181818;stroke-width:0.5;"/><text fill="#000000" font-family="sans-serif" font-size="13" lengthAdjust="spacing" textLength="49.7974" x="70.18" y="470.8966">effect {</text><text fill="#000000" font-family="sans-serif" font-size="13" lengthAdjust="spacing" textLength="151.0044" x="86.7093" y="486.0294">counter = counter + 1;</text><text fill="#000000" font-family="sans-serif" font-size="13" lengthAdjust="spacing" textLength="8.271" x="70.18" y="501.1622">}</text></g><!--link simple_machine__stopped to simple_machine__idle--><g class="link" data-entity-1="ent0006" data-entity-2="ent0004" data-link-type="dependency" data-source-line="25" id="lnk6"><path d="M198.51,546.6269 C219.24,542.1969 244.11,532.9669 257.18,513.6969 C317.06,425.4269 313.5,364.2869 257.18,273.6969 C246.37,256.3069 230.4845,248.5215 213.2045,243.5315" fill="none" id="simple_machine__stopped-to-simple_machine__idle" style="stroke:#181818;stroke-width:1;"/><polygon fill="#181818" points="207.44,241.8669,214.9769,248.2068,212.2437,243.2541,217.1964,240.5208,207.44,241.8669" style="stroke:#181818;stroke-width:1;"/><text fill="#000000" font-family="sans-serif" font-size="13" lengthAdjust="spacing" textLength="95.0879" x="301.18" y="398.2638">Stopped.Reset</text></g><g class="start_entity" data-qualified-name=".start." data-source-line="27" id="ent0007"><ellipse cx="216.7" cy="33.7" fill="#222222" rx="10" ry="10" style="stroke:#222222;stroke-width:1;"/></g><g class="end_entity" data-qualified-name=".end." data-source-line="28" id="ent0009"><ellipse cx="216.7" cy="652.7" fill="none" rx="11" ry="11" style="stroke:#222222;stroke-width:1;"/><ellipse cx="216.7" cy="652.7" fill="#222222" rx="6" ry="6" style="stroke:#222222;stroke-width:1;"/></g><!--link *start* to simple_machine--><g class="link" data-entity-1="ent0007" data-entity-2="ent0003" data-link-type="dependency" data-source-line="27" id="lnk8"><path d="M216.7,44.16 C216.7,58.27 216.7,80.9 216.7,115.23" fill="none" id="*start*-to-simple_machine" style="stroke:#181818;stroke-width:1;"/><polygon fill="#181818" points="216.7,121.23,220.7,112.23,216.7,116.23,212.7,112.23,216.7,121.23" style="stroke:#181818;stroke-width:1;"/></g><!--link simple_machine to *end*--><g class="link" data-entity-1="ent0003" data-entity-2="ent0009" data-link-type="dependency" data-source-line="28" id="lnk10"><path d="M216.7,581.94 C216.7,608.11 216.7,623.68 216.7,635.6" fill="none" id="simple_machine-to-*end*" style="stroke:#181818;stroke-width:1;"/><polygon fill="#181818" points="216.7,641.6,220.7,632.6,216.7,636.6,212.7,632.6,216.7,641.6" style="stroke:#181818;stroke-width:1;"/></g><?plantuml-src bLB1JiCm3BtdAwmTcLR1bGbEN3YCmtf4KrKrBhDedQZn3cZQl-EagJHGG91JylnilppxI1O1HoyVO35q4taXnuQT8BG1dh0dfWYzA69iV6A0im4z-W9YWSwTM7221xZTcej1jX3pZGdIQfbLJQCVSDTsHqrUnR8X8SquGxbSPZ_ReKHg6jB0DN5_OYP-AtAdENPDhyLvZxP83tCiqLzl3h3PFFxIlX0ePcGHS0_nJrKjxIIfGdBNCGp4xmd0liTEiW_nVB4q0fUPjrXRqh6qAqd97rGfsRKgsl5lCSjj3NT_bhMq_ibJrPH7K-qneEW6bKTWlcrDP2Zp4m00?></g></svg>