<svg xmlns="http://www.w3.org/2000/svg" xmlns:xlink="http://www.w3.org/1999/xlink" contentStyleType="text/css" data-diagram-type="STATE" height="634px" preserveAspectRatio="none" style="width:400px;height:634px;background:#FFFFFF;" version="1.1" viewBox="0 0 400 634" width="400px" zoomAndPan="magnify"><defs/><g><path d="M19.5,86 L374.2279,86 A12.5,12.5 0 0 1 386.7279,98.5 L386.7279,112.2969 L7,112.2969 L7,98.5 A12.5,12.5 0 0 1 19.5,86" fill="#ADD8E6"/><rect fill="none" height="460.2969" rx="12.5" ry="12.5" style="stroke:#181818;stroke-width:0.5;" width="379.7279" x="7" y="86"/><line style="stroke:#181818;stroke-width:0.5;" x1="7" x2="386.7279" y1="112.2969" y2="112.2969"/><text fill="#000000" font-family="sans-serif" font-size="14" lengthAdjust="spacing" textLength="106.4082" x="143.6598" y="103.9951">SimpleMachine</text><rect fill="#F1F1F1" height="40" rx="12.5" ry="12.5" style="stroke:#181818;stroke-width:0.5;" width="50" x="137.06" y="180.2969"/><text fill="#000000" font-family="sans-serif" font-size="14" lengthAdjust="spacing" textLength="25.5186" x="149.3007" y="205.1436">Idle</text><rect fill="#F1F1F1" height="40" rx="12.5" ry="12.5" style="stroke:#181818;stroke-width:0.5;" width="67.9961" x="38.06" y="338.2969"/><text fill="#000000" font-family="sans-serif" font-size="14" lengthAdjust="spacing" textLength="57.9961" x="43.06" y="363.1436">Running</text><rect fill="#F1F1F1" height="40" rx="12.5" ry="12.5" style="stroke:#181818;stroke-width:0.5;" width="68.2148" x="109.95" y="496.2969"/><text fill="#000000" font-family="sans-serif" font-size="14" lengthAdjust="spacing" textLength="58.2148" x="114.95" y="521.1436">Stopped</text><ellipse cx="162.06" cy="133.2969" fill="#222222" rx="10" ry="10" style="stroke:#222222;stroke-width:1;"/><!--link *start*simple_machine to simple_machine__idle--><g class="link" data-entity-1="*start*simple_machine" data-entity-2="simple_machine__idle" data-source-line="14" data-uid="lnk3" id="link_*start*simple_machine_simple_machine__idle"><path d="M162.06,143.6069 C162.06,153.0169 162.06,161.8369 162.06,173.8169" fill="none" id="*start*simple_machine-to-simple_machine__idle" style="stroke:#181818;stroke-width:1;"/><polygon fill="#181818" points="162.06,179.8169,166.06,170.8169,162.06,174.8169,158.06,170.8169,162.06,179.8169" style="stroke:#181818;stroke-width:1;"/></g><!--link simple_machine__idle to simple_machine__running--><g class="link" data-entity-1="simple_machine__idle" data-entity-2="simple_machine__running" data-source-line="15" data-uid="lnk4" id="link_simple_machine__idle_simple_machine__running"><path d="M136.61,213.8269 C126.45,219.9569 115.44,228.2069 108.06,238.2969 C85.87,268.5969 77.9965,306.7373 74.7165,331.8673" fill="none" id="simple_machine__idle-to-simple_machine__running" style="stroke:#181818;stroke-width:1;"/><polygon fill="#181818" points="73.94,337.8169,79.0712,329.4103,74.5871,332.8589,71.1385,328.3749,73.94,337.8169" style="stroke:#181818;stroke-width:1;"/><text fill="#000000" font-family="sans-serif" font-size="13" lengthAdjust="spacing" textLength="59.5854" x="142.9457" y="251.3638">Idle.Start</text><path d="M113.06,260.4297 L113.06,315.4297 L232.06,315.4297 L232.06,270.4297 L222.06,260.4297 L113.06,260.4297" fill="#FEFFDD" style="stroke:#181818;stroke-width:0.5;"/><path d="M222.06,260.4297 L222.06,270.4297 L232.06,270.4297 L222.06,260.4297" fill="#FEFFDD" style="stroke:#181818;stroke-width:0.5;"/><text fill="#000000" font-family="sans-serif" font-size="13" lengthAdjust="spacing" textLength="49.7974" x="119.06" y="277.4966">effect {</text><text fill="#000000" font-family="sans-serif" font-size="13" lengthAdjust="spacing" textLength="81.8276" x="135.5893" y="292.6294">counter = 0;</text><text fill="#000000" font-family="sans-serif" font-size="13" lengthAdjust="spacing" textLength="8.271" x="119.06" y="307.7622">}</text></g><!--link simple_machine__running to simple_machine__stopped--><g class="link" data-entity-1="simple_machine__running" data-entity-2="simple_machine__stopped" data-source-line="21" data-uid="lnk5" id="link_simple_machine__running_simple_machine__stopped"><path d="M50.19,378.5869 C45.65,383.8369 41.51,389.8669 39.06,396.2969 C26.08,430.3469 18,448.5469 39.06,478.2969 C54.92,500.6969 79.5531,508.759 103.6331,512.279" fill="none" id="simple_machine__running-to-simple_machine__stopped" style="stroke:#181818;stroke-width:1;"/><polygon fill="#181818" points="109.57,513.1469,101.2432,507.8872,104.6226,512.4237,100.0861,515.803,109.57,513.1469" style="stroke:#181818;stroke-width:1;"/><text fill="#000000" font-family="sans-serif" font-size="13" lengthAdjust="spacing" textLength="87.5405" x="94.5566" y="409.3638">Running.Stop</text><path d="M44.06,418.4297 L44.06,473.4297 L232.06,473.4297 L232.06,428.4297 L222.06,418.4297 L44.06,418.4297" fill="#FEFFDD" style="stroke:#181818;stroke-width:0.5;"/><path d="M222.06,418.4297 L222.06,428.4297 L232.06,428.4297 L222.06,418.4297" fill="#FEFFDD" style="stroke:#181818;stroke-width:0.5;"/><text fill="#000000" font-family="sans-serif" font-size="13" lengthAdjust="spacing" textLength="49.7974" x="50.06" y="435.4966">effect {</text><text fill="#000000" font-family="sans-serif" font-size="13" lengthAdjust="spacing" textLength="151.0044" x="66.5893" y="450.6294">counter = counter + 1;</text><text fill="#000000" font-family="sans-serif" font-size="13" lengthAdjust="spacing" textLength="8.271" x="50.06" y="465.7622">}</text></g><!--link simple_machine__stopped to simple_machine__idle--><g class="link" data-entity-1="simple_machine__stopped" data-entity-2="simple_machine__idle" data-source-line="27" data-uid="lnk6" id="link_simple_machine__stopped_simple_machine__idle"><path d="M178.39,511.2269 C199.12,506.7969 223.99,497.5669 237.06,478.2969 C296.94,390.0269 293.38,328.8869 237.06,238.2969 C226.25,220.9069 210.3645,213.1215 193.0845,208.1315" fill="none" id="simple_machine__stopped-to-simple_machine__idle" style="stroke:#181818;stroke-width:1;"/><polygon fill="#181818" points="187.32,206.4669,194.8569,212.8068,192.1237,207.8541,197.0764,205.1208,187.32,206.4669" style="stroke:#181818;stroke-width:1;"/><text fill="#000000" font-family="sans-serif" font-size="13" lengthAdjust="spacing" textLength="95.0879" x="281.64" y="362.8638">Stopped.Reset</text></g><ellipse cx="196.86" cy="16" fill="#222222" rx="10" ry="10" style="stroke:#222222;stroke-width:1;"/><ellipse cx="196.86" cy="617.3" fill="none" rx="11" ry="11" style="stroke:#222222;stroke-width:1;"/><ellipse cx="196.86" cy="617.3" fill="#222222" rx="6" ry="6" style="stroke:#222222;stroke-width:1;"/><!--link *start* to simple_machine--><g class="link" data-entity-1="*start*" data-entity-2="simple_machine" data-source-line="29" data-uid="lnk8" id="link_*start*_simple_machine"><path d="M196.86,26.25 C196.86,37.85 196.86,53.45 196.86,79.82" fill="none" id="*start*-to-simple_machine" style="stroke:#181818;stroke-width:1;"/><polygon fill="#181818" points="196.86,85.82,200.86,76.82,196.86,80.82,192.86,76.82,196.86,85.82" style="stroke:#181818;stroke-width:1;"/></g><!--link simple_machine to *end*--><g class="link" data-entity-1="simple_machine" data-entity-2="*end*" data-source-line="30" data-uid="lnk10" id="link_simple_machine_*end*"><path d="M196.86,546.54 C196.86,572.71 196.86,588.28 196.86,600.2" fill="none" id="simple_machine-to-*end*" style="stroke:#181818;stroke-width:1;"/><polygon fill="#181818" points="196.86,606.2,200.86,597.2,196.86,601.2,192.86,597.2,196.86,606.2" style="stroke:#181818;stroke-width:1;"/></g><!--SRC=[bPB1JiCm38RlVGfhHz0gkCBOOKWW9BYiHuIcAF4wQsaI9UwXGdjtqZILnXGGz5Jv_sp_jdCWXO2Tum4K1kd9CLbJLU58nWalEWWi6E6p0jW8UMozxOrwjDhwrSe5x9LTh-6LsWC_Up6KA6axPmCnpk16zpY2rYlqbwLobIThkE51uvb4B3J9wXJT9K-BXZgdyKt80nbSW0WGKcJNJI7utdoS0V8yYnUbIocx7KNX7Dpsnf1fYwoVj7EyOUiSgY8U9YtXxrSVi5okVsbV48ePsGJSmJXJtR3md2eO6mrP0vhCCGLmlqV9UG_Z9-EP63qymCrz2fucpgYKNFGnjojPoGD6AtbhzRYEVvkP_wxXzi-svjO_xJHwogUfjnYGupCgdw2wU4CZ4Sal]--></g></svg>