<svg xmlns="http://www.w3.org/2000/svg" xmlns:xlink="http://www.w3.org/1999/xlink" contentStyleType="text/css" data-diagram-type="STATE" height="665px" preserveAspectRatio="none" style="width:355px;height:665px;background:#FFFFFF;" version="1.1" viewBox="0 0 355 665" width="355px" zoomAndPan="magnify"><?plantuml 1.2026.3beta6?><defs/><g><g class="legend" data-source-line="10"><rect fill="#DDDDDD" height="46.5938" rx="7.5" ry="7.5" style="stroke:#000000;stroke-width:1;" width="246.2773" x="12" y="12"/><text fill="#000000" font-family="sans-serif" font-size="14" font-weight="700" lengthAdjust="spacing" textLength="65.748" x="21.874" y="31.9951">Variable</text><text fill="#000000" font-family="sans-serif" font-size="14" font-weight="700" lengthAdjust="spacing" textLength="38.1924" x="105.334" y="31.9951">Type</text><text fill="#000000" font-family="sans-serif" font-size="14" font-weight="700" lengthAdjust="spacing" textLength="95.1289" x="153.2744" y="31.9951">Initial Value</text><text fill="#000000" font-family="sans-serif" font-size="14" lengthAdjust="spacing" textLength="74.5596" x="21.4502" y="48.292">line_speed</text><text fill="#000000" font-family="sans-serif" font-size="14" lengthAdjust="spacing" textLength="18.252" x="104.9102" y="48.292">int</text><text fill="#000000" font-family="sans-serif" font-size="14" lengthAdjust="spacing" textLength="8.9072" x="152.8506" y="48.292">0</text><line style="stroke:#000000;stroke-width:1;" x1="17" x2="253.2773" y1="19" y2="19"/><line style="stroke:#000000;stroke-width:1;" x1="17" x2="253.2773" y1="35.2969" y2="35.2969"/><line style="stroke:#000000;stroke-width:1;" x1="17" x2="253.2773" y1="51.5938" y2="51.5938"/><line style="stroke:#000000;stroke-width:1;" x1="17" x2="17" y1="19" y2="51.5938"/><line style="stroke:#000000;stroke-width:1;" x1="100.46" x2="100.46" y1="19" y2="51.5938"/><line style="stroke:#000000;stroke-width:1;" x1="148.4004" x2="148.4004" y1="19" y2="51.5938"/><line style="stroke:#000000;stroke-width:1;" x1="253.2773" x2="253.2773" y1="19" y2="51.5938"/></g><path d="M19.5,157.5938 L327.79,157.5938 A12.5,12.5 0 0 1 340.29,170.0938 L340.29,183.8906 L7,183.8906 L7,170.0938 A12.5,12.5 0 0 1 19.5,157.5938" fill="#ADD8E6"/><rect fill="none" height="411.5938" rx="12.5" ry="12.5" style="stroke:#181818;stroke-width:0.5;" width="333.29" x="7" y="157.5938"/><line style="stroke:#181818;stroke-width:0.5;" x1="7" x2="340.29" y1="183.8906" y2="183.8906"/><text fill="#000000" font-family="sans-serif" font-size="14" lengthAdjust="spacing" textLength="29.1758" x="159.0571" y="175.5889">Line</text><path d="M31.5,250.8906 L303.79,250.8906 A12.5,12.5 0 0 1 316.29,263.3906 L316.29,277.1875 L19,277.1875 L19,263.3906 A12.5,12.5 0 0 1 31.5,250.8906" fill="#ADD8E6"/><rect fill="none" height="305.2969" rx="12.5" ry="12.5" style="stroke:#181818;stroke-width:0.5;" width="297.29" x="19" y="250.8906"/><line style="stroke:#181818;stroke-width:0.5;" x1="19" x2="316.29" y1="277.1875" y2="277.1875"/><text fill="#000000" font-family="sans-serif" font-size="14" lengthAdjust="spacing" textLength="41.2344" x="147.0278" y="268.8857">Robot</text><rect fill="#F1F1F1" height="40" rx="12.5" ry="12.5" style="stroke:#181818;stroke-width:0.5;" width="50" x="36.29" y="345.1875"/><text fill="#000000" font-family="sans-serif" font-size="14" lengthAdjust="spacing" textLength="25.5186" x="48.5307" y="370.0342">Idle</text><rect fill="#F1F1F1" height="40" rx="12.5" ry="12.5" style="stroke:#181818;stroke-width:0.5;" width="60.5791" x="31" y="503.1875"/><text fill="#000000" font-family="sans-serif" font-size="14" lengthAdjust="spacing" textLength="50.5791" x="36" y="528.0342">Moving</text><g class="start_entity" data-qualified-name="line.line__robot..start.line__robot" data-source-line="19" id="ent0002"><ellipse cx="61.29" cy="298.1875" fill="#222222" rx="10" ry="10" style="stroke:#222222;stroke-width:1;"/></g><!--link *start*line__robot to line__robot__idle--><g class="link" data-entity-1="ent0002" data-entity-2="ent0004" data-link-type="dependency" data-source-line="19" id="lnk3"><path d="M61.29,308.4975 C61.29,317.9075 61.29,326.7275 61.29,338.7075" fill="none" id="*start*line__robot-to-line__robot__idle" style="stroke:#181818;stroke-width:1;"/><polygon fill="#181818" points="61.29,344.7075,65.29,335.7075,61.29,339.7075,57.29,335.7075,61.29,344.7075" style="stroke:#181818;stroke-width:1;"/></g><!--link line__robot__idle to line__robot__moving--><g class="link" data-entity-1="ent0004" data-entity-2="ent0005" data-link-type="dependency" data-source-line="20" id="lnk4"><path d="M61.29,385.6275 C61.29,415.6875 61.29,467.0875 61.29,496.9875" fill="none" id="line__robot__idle-to-line__robot__moving" style="stroke:#181818;stroke-width:1;"/><polygon fill="#181818" points="61.29,502.9875,65.29,493.9875,61.29,497.9875,57.29,493.9875,61.29,502.9875" style="stroke:#181818;stroke-width:1;"/><text fill="#000000" font-family="sans-serif" font-size="13" lengthAdjust="spacing" textLength="36.1372" x="161.7026" y="416.2544">/Start</text><path d="M66.29,425.3203 L66.29,480.3203 L292.29,480.3203 L292.29,435.3203 L282.29,425.3203 L66.29,425.3203" fill="#FEFFDD" style="stroke:#181818;stroke-width:0.5;"/><path d="M282.29,425.3203 L282.29,435.3203 L292.29,435.3203 L282.29,425.3203" fill="#FEFFDD" style="stroke:#181818;stroke-width:0.5;"/><text fill="#000000" font-family="sans-serif" font-size="13" lengthAdjust="spacing" textLength="49.7974" x="72.29" y="442.3872">effect {</text><text fill="#000000" font-family="sans-serif" font-size="13" lengthAdjust="spacing" textLength="189.4331" x="88.8193" y="457.52">line_speed = line_speed + 1;</text><text fill="#000000" font-family="sans-serif" font-size="13" lengthAdjust="spacing" textLength="8.271" x="72.29" y="472.6528">}</text></g><g class="start_entity" data-qualified-name="line..start.line" data-source-line="27" id="ent0005"><ellipse cx="167.65" cy="204.8906" fill="#222222" rx="10" ry="10" style="stroke:#222222;stroke-width:1;"/></g><!--link *start*line to line__robot--><g class="link" data-entity-1="ent0005" data-entity-2="ent0003" data-link-type="dependency" data-source-line="27" id="lnk6"><path d="M167.65,215.3806 C167.65,223.3606 167.65,229.8206 167.65,244.6106" fill="none" id="*start*line-to-line__robot" style="stroke:#181818;stroke-width:1;"/><polygon fill="#181818" points="167.65,250.6106,171.65,241.6106,167.65,245.6106,163.65,241.6106,167.65,250.6106" style="stroke:#181818;stroke-width:1;"/></g><g class="start_entity" data-qualified-name=".start." data-source-line="29" id="ent0007"><ellipse cx="173.65" cy="87.5938" fill="#222222" rx="10" ry="10" style="stroke:#222222;stroke-width:1;"/></g><g class="end_entity" data-qualified-name=".end." data-source-line="30" id="ent0009"><ellipse cx="173.65" cy="640.1838" fill="none" rx="11" ry="11" style="stroke:#222222;stroke-width:1;"/><ellipse cx="173.65" cy="640.1838" fill="#222222" rx="6" ry="6" style="stroke:#222222;stroke-width:1;"/></g><!--link *start* to line--><g class="link" data-entity-1="ent0007" data-entity-2="ent0002" data-link-type="dependency" data-source-line="29" id="lnk8"><path d="M173.65,98.0138 C173.65,109.6738 173.65,125.1938 173.65,151.1138" fill="none" id="*start*-to-line" style="stroke:#181818;stroke-width:1;"/><polygon fill="#181818" points="173.65,157.1138,177.65,148.1138,173.65,152.1138,169.65,148.1138,173.65,157.1138" style="stroke:#181818;stroke-width:1;"/></g><!--link line to *end*--><g class="link" data-entity-1="ent0002" data-entity-2="ent0009" data-link-type="dependency" data-source-line="30" id="lnk10"><path d="M173.65,569.4838 C173.65,595.3838 173.65,611.0038 173.65,623.0038" fill="none" id="line-to-*end*" style="stroke:#181818;stroke-width:1;"/><polygon fill="#181818" points="173.65,629.0038,177.65,620.0038,173.65,624.0038,169.65,620.0038,173.65,629.0038" style="stroke:#181818;stroke-width:1;"/></g><?plantuml-src VP71JiCm38RlUGfhHz04N67ROKYWIUF241U4ggpnEcjf72KUKaNtxgJTwCesSMdhtvz_r_QQ30AMNYem6FD0NeYTKd53pkkWIuYY1U5R0KnrlYa2RvrvPCjXDF8HjuOd4vXJiPRdeAjBLCwbvqY2l-3KRh41EHWCfrO7boTsif3AOYz5eYtbQgUKnGAT0M4F5bUYwZ6ywq1wQH7Izrlbs_VCaP2sAPSwGgrgiEGmYnxHG0ta93rlKoAPxItJuEsuWta21w1ZMm5_XsXs0OUz35vvoTAHMHQQ-691hsYMsftMP1abzPHyuIzonJbRjdf7Vrnzmd0u-SVlB7FExptX7cuMeeDqfOxJdx1hu4qducg5kVH6wvhirplk1zTmzz21kwD7kc5ZhexoXK7ImVkgQY_IH4dz0G00?></g></svg>