<svg xmlns="http://www.w3.org/2000/svg" xmlns:xlink="http://www.w3.org/1999/xlink" contentStyleType="text/css" data-diagram-type="DESCRIPTION" height="524px" preserveAspectRatio="none" style="width:870px;height:524px;background:#FFFFFF;" version="1.1" viewBox="0 0 870 524" width="870px" zoomAndPan="magnify"><defs/><g><!--cluster Foundation Layer--><g class="cluster" data-entity="Foundation Layer" data-source-line="5" data-uid="ent0002" id="cluster_Foundation Layer"><path d="M71.5,35.56 L210.9277,35.56 A3.75,3.75 0 0 1 213.4277,38.06 L220.4277,57.8569 L342.5,57.8569 A2.5,2.5 0 0 1 345,60.3569 L345,120.36 A2.5,2.5 0 0 1 342.5,122.86 L71.5,122.86 A2.5,2.5 0 0 1 69,120.36 L69,38.06 A2.5,2.5 0 0 1 71.5,35.56" fill="none" style="stroke:#000000;stroke-width:1.5;"/><line style="stroke:#000000;stroke-width:1.5;" x1="69" x2="220.4277" y1="57.8569" y2="57.8569"/><text fill="#000000" font-family="sans-serif" font-size="14" font-weight="bold" lengthAdjust="spacing" textLength="138.4277" x="73" y="50.5551">Foundation Layer</text></g><!--cluster Core Layer--><g class="cluster" data-entity="Core Layer" data-source-line="10" data-uid="ent0005" id="cluster_Core Layer"><path d="M8.5,146.86 L94.5596,146.86 A3.75,3.75 0 0 1 97.0596,149.36 L104.0596,169.1569 L159.5,169.1569 A2.5,2.5 0 0 1 162,171.6569 L162,328.5 A2.5,2.5 0 0 1 159.5,331 L8.5,331 A2.5,2.5 0 0 1 6,328.5 L6,149.36 A2.5,2.5 0 0 1 8.5,146.86" fill="none" style="stroke:#000000;stroke-width:1.5;"/><line style="stroke:#000000;stroke-width:1.5;" x1="6" x2="104.0596" y1="169.1569" y2="169.1569"/><text fill="#000000" font-family="sans-serif" font-size="14" font-weight="bold" lengthAdjust="spacing" textLength="85.0596" x="10" y="161.8551">Core Layer</text></g><!--cluster Application Layer--><g class="cluster" data-entity="Application Layer" data-source-line="15" data-uid="ent0008" id="cluster_Application Layer"><path d="M270.5,355 L409.5654,355 A3.75,3.75 0 0 1 412.0654,357.5 L419.0654,377.2969 L425.5,377.2969 A2.5,2.5 0 0 1 428,379.7969 L428,515.2 A2.5,2.5 0 0 1 425.5,517.7 L270.5,517.7 A2.5,2.5 0 0 1 268,515.2 L268,357.5 A2.5,2.5 0 0 1 270.5,355" fill="none" style="stroke:#000000;stroke-width:1.5;"/><line style="stroke:#000000;stroke-width:1.5;" x1="268" x2="419.0654" y1="377.2969" y2="377.2969"/><text fill="#000000" font-family="sans-serif" font-size="14" font-weight="bold" lengthAdjust="spacing" textLength="138.0654" x="272" y="369.9951">Application Layer</text></g><!--cluster Extension Layer--><g class="cluster" data-entity="Extension Layer" data-source-line="20" data-uid="ent0011" id="cluster_Extension Layer"><path d="M372.5,243.71 L499.7324,243.71 A3.75,3.75 0 0 1 502.2324,246.21 L509.2324,266.0069 L543.5,266.0069 A2.5,2.5 0 0 1 546,268.5069 L546,328.5 A2.5,2.5 0 0 1 543.5,331 L372.5,331 A2.5,2.5 0 0 1 370,328.5 L370,246.21 A2.5,2.5 0 0 1 372.5,243.71" fill="none" style="stroke:#000000;stroke-width:1.5;"/><line style="stroke:#000000;stroke-width:1.5;" x1="370" x2="509.2324" y1="266.0069" y2="266.0069"/><text fill="#000000" font-family="sans-serif" font-size="14" font-weight="bold" lengthAdjust="spacing" textLength="126.2324" x="374" y="258.7051">Extension Layer</text></g><!--entity utils--><g class="entity" data-entity="utils" data-source-line="6" data-uid="ent0003" id="entity_utils"><rect fill="#F1F1F1" height="36.2969" rx="2.5" ry="2.5" style="stroke:#181818;stroke-width:0.5;" width="110.1045" x="84.95" y="70.56"/><text fill="#000000" font-family="sans-serif" font-size="14" lengthAdjust="spacing" textLength="90.1045" x="94.95" y="93.5551">pyfcstm.utils</text></g><!--entity config--><g class="entity" data-entity="config" data-source-line="7" data-uid="ent0004" id="entity_config"><rect fill="#F1F1F1" height="36.2969" rx="2.5" ry="2.5" style="stroke:#181818;stroke-width:0.5;" width="123.5098" x="205.25" y="70.56"/><text fill="#000000" font-family="sans-serif" font-size="14" lengthAdjust="spacing" textLength="103.5098" x="215.25" y="93.5551">pyfcstm.config</text></g><!--entity dsl--><g class="entity" data-entity="dsl" data-source-line="11" data-uid="ent0006" id="entity_dsl"><rect fill="#F1F1F1" height="36.2969" rx="2.5" ry="2.5" style="stroke:#181818;stroke-width:0.5;" width="100.7393" x="23.63" y="181.86"/><text fill="#000000" font-family="sans-serif" font-size="14" lengthAdjust="spacing" textLength="80.7393" x="33.63" y="204.8551">pyfcstm.dsl</text></g><!--entity model--><g class="entity" data-entity="model" data-source-line="12" data-uid="ent0007" id="entity_model"><rect fill="#F1F1F1" height="36.2969" rx="2.5" ry="2.5" style="stroke:#181818;stroke-width:0.5;" width="124.2617" x="21.87" y="278.71"/><text fill="#000000" font-family="sans-serif" font-size="14" lengthAdjust="spacing" textLength="104.2617" x="31.87" y="301.7051">pyfcstm.model</text></g><!--entity entry--><g class="entity" data-entity="entry" data-source-line="16" data-uid="ent0009" id="entity_entry"><rect fill="#F1F1F1" height="36.2969" rx="2.5" ry="2.5" style="stroke:#181818;stroke-width:0.5;" width="117.6855" x="291.16" y="465.4"/><text fill="#000000" font-family="sans-serif" font-size="14" lengthAdjust="spacing" textLength="97.6855" x="301.16" y="488.3951">pyfcstm.entry</text></g><!--entity render--><g class="entity" data-entity="render" data-source-line="17" data-uid="ent0010" id="entity_render"><rect fill="#F1F1F1" height="36.2969" rx="2.5" ry="2.5" style="stroke:#181818;stroke-width:0.5;" width="127.167" x="284.42" y="390"/><text fill="#000000" font-family="sans-serif" font-size="14" lengthAdjust="spacing" textLength="107.167" x="294.42" y="412.9951">pyfcstm.render</text></g><!--entity template--><g class="entity" data-entity="template" data-source-line="21" data-uid="ent0012" id="entity_template"><rect fill="#F1F1F1" height="36.2969" rx="2.5" ry="2.5" style="stroke:#181818;stroke-width:0.5;" width="143.8672" x="386.07" y="278.71"/><text fill="#000000" font-family="sans-serif" font-size="14" lengthAdjust="spacing" textLength="123.8672" x="396.07" y="301.7051">pyfcstm.template</text></g><g class="entity" data-entity="GMN25" data-source-line="40" data-uid="ent0026" id="entity_GMN25"><path d="M361.26,53.45 L361.26,123.9813 L488.7419,123.9813 L488.7419,63.45 L478.7419,53.45 L361.26,53.45" fill="#FEFFDD" style="stroke:#181818;stroke-width:0.5;"/><path d="M478.7419,53.45 L478.7419,63.45 L488.7419,63.45 L478.7419,53.45" fill="#FEFFDD" style="stroke:#181818;stroke-width:1;"/><text fill="#000000" font-family="sans-serif" font-size="13" lengthAdjust="spacing" textLength="102.248" x="367.26" y="70.5169">Utility functions</text><text fill="#000000" font-family="sans-serif" font-size="13" lengthAdjust="spacing" textLength="106.4819" x="367.26" y="85.6497">for file handling,</text><text fill="#000000" font-family="sans-serif" font-size="13" lengthAdjust="spacing" textLength="104.4951" x="367.26" y="100.7825">text processing,</text><text fill="#000000" font-family="sans-serif" font-size="13" lengthAdjust="spacing" textLength="96.6431" x="367.26" y="115.9153">validation, etc.</text></g><g class="entity" data-entity="GMN28" data-source-line="47" data-uid="ent0029" id="entity_GMN28"><path d="M178.47,172.31 L178.47,196.01 L124.8,200.01 L178.47,204.01 L178.47,227.7084 A0,0 0 0 0 178.47,227.7084 L309.532,227.7084 A0,0 0 0 0 309.532,227.7084 L309.532,182.31 L299.532,172.31 L178.47,172.31 A0,0 0 0 0 178.47,172.31" fill="#FEFFDD" style="stroke:#181818;stroke-width:0.5;"/><path d="M299.532,172.31 L299.532,182.31 L309.532,182.31 L299.532,172.31" fill="#FEFFDD" style="stroke:#181818;stroke-width:0.5;"/><text fill="#000000" font-family="sans-serif" font-size="13" lengthAdjust="spacing" textLength="106.666" x="184.47" y="189.3769">DSL parsing and</text><text fill="#000000" font-family="sans-serif" font-size="13" lengthAdjust="spacing" textLength="110.062" x="184.47" y="204.5097">AST construction</text><text fill="#000000" font-family="sans-serif" font-size="13" lengthAdjust="spacing" textLength="82.8179" x="184.47" y="219.6425">with ANTLR4</text></g><g class="entity" data-entity="GMN31" data-source-line="53" data-uid="ent0032" id="entity_GMN31"><path d="M561.62,269.16 L561.62,324.5584 L704.3871,324.5584 L704.3871,279.16 L694.3871,269.16 L561.62,269.16" fill="#FEFFDD" style="stroke:#181818;stroke-width:0.5;"/><path d="M694.3871,269.16 L694.3871,279.16 L704.3871,279.16 L694.3871,269.16" fill="#FEFFDD" style="stroke:#181818;stroke-width:1;"/><text fill="#000000" font-family="sans-serif" font-size="13" lengthAdjust="spacing" textLength="94.4087" x="567.62" y="286.2269">State machine</text><text fill="#000000" font-family="sans-serif" font-size="13" lengthAdjust="spacing" textLength="89.1719" x="567.62" y="301.3597">modeling and</text><text fill="#000000" font-family="sans-serif" font-size="13" lengthAdjust="spacing" textLength="121.7671" x="567.62" y="316.4925">expression system</text></g><g class="entity" data-entity="GMN34" data-source-line="59" data-uid="ent0035" id="entity_GMN34"><path d="M736.41,380.45 L736.41,404.15 L412,408.15 L736.41,412.15 L736.41,435.8484 A0,0 0 0 0 736.41,435.8484 L863.5936,435.8484 A0,0 0 0 0 863.5936,435.8484 L863.5936,390.45 L853.5936,380.45 L736.41,380.45 A0,0 0 0 0 736.41,380.45" fill="#FEFFDD" style="stroke:#181818;stroke-width:0.5;"/><path d="M853.5936,380.45 L853.5936,390.45 L863.5936,390.45 L853.5936,380.45" fill="#FEFFDD" style="stroke:#181818;stroke-width:0.5;"/><text fill="#000000" font-family="sans-serif" font-size="13" lengthAdjust="spacing" textLength="105.46" x="742.41" y="397.5169">Template-based</text><text fill="#000000" font-family="sans-serif" font-size="13" lengthAdjust="spacing" textLength="106.1836" x="742.41" y="412.6497">code generation</text><text fill="#000000" font-family="sans-serif" font-size="13" lengthAdjust="spacing" textLength="67.2471" x="742.41" y="427.7825">with Jinja2</text></g><g class="entity" data-entity="GMN37" data-source-line="65" data-uid="ent0038" id="entity_GMN37"><path d="M443.71,455.85 L443.71,479.55 L409.26,483.55 L443.71,487.55 L443.71,511.2484 A0,0 0 0 0 443.71,511.2484 L626.2959,511.2484 A0,0 0 0 0 626.2959,511.2484 L626.2959,465.85 L616.2959,455.85 L443.71,455.85 A0,0 0 0 0 443.71,455.85" fill="#FEFFDD" style="stroke:#181818;stroke-width:0.5;"/><path d="M616.2959,455.85 L616.2959,465.85 L626.2959,465.85 L616.2959,455.85" fill="#FEFFDD" style="stroke:#181818;stroke-width:0.5;"/><text fill="#000000" font-family="sans-serif" font-size="13" lengthAdjust="spacing" textLength="82.2656" x="449.71" y="472.9169">CLI interface</text><text fill="#000000" font-family="sans-serif" font-size="13" lengthAdjust="spacing" textLength="124.8013" x="449.71" y="488.0497">for user interaction</text><text fill="#000000" font-family="sans-serif" font-size="13" lengthAdjust="spacing" textLength="161.5859" x="449.71" y="503.1825">and command execution</text></g><!--link utils to dsl--><g class="link" data-entity-1="utils" data-entity-2="dsl" data-source-line="24" data-uid="lnk13" id="link_utils_dsl"><path d="M129.4,107.27 C117.08,127.67 99.9803,155.9731 87.6803,176.3531" fill="none" id="utils-to-dsl" style="stroke:#181818;stroke-width:1;"/><polygon fill="#181818" points="84.58,181.49,92.6551,175.8515,87.1636,177.2092,85.8058,171.7177,84.58,181.49" style="stroke:#181818;stroke-width:1;"/></g><!--link utils to model--><g class="link" data-entity-1="utils" data-entity-2="model" data-source-line="25" data-uid="lnk14" id="link_utils_model"><path d="M141.34,107.27 C142.79,134.05 143.24,186.35 129,227.71 C122.49,246.61 113.2323,260.6622 102.8723,273.7022" fill="none" id="utils-to-model" style="stroke:#181818;stroke-width:1;"/><polygon fill="#181818" points="99.14,278.4,107.8704,273.8415,102.2503,274.4851,101.6066,268.865,99.14,278.4" style="stroke:#181818;stroke-width:1;"/></g><!--link utils to render--><g class="link" data-entity-1="utils" data-entity-2="render" data-source-line="26" data-uid="lnk15" id="link_utils_render"><path d="M159.88,107.35 C170.9,116.05 185.33,125.75 200,130.86 C212.1,135.07 305.71,130.05 315,138.86 C333.26,156.18 343.7705,326.8385 346.8005,383.6585" fill="none" id="utils-to-render" style="stroke:#181818;stroke-width:1;"/><polygon fill="#181818" points="347.12,389.65,350.6351,380.4498,346.8537,384.6571,342.6464,380.8758,347.12,389.65" style="stroke:#181818;stroke-width:1;"/></g><!--link config to dsl--><g class="link" data-entity-1="config" data-entity-2="dsl" data-source-line="27" data-uid="lnk16" id="link_config_dsl"><path d="M243.34,107.31 C231,115.66 215.32,125.07 200,130.86 C180.59,138.2 173.04,130.62 154,138.86 C130.4,149.07 111.7989,163.5541 96.5489,177.3541" fill="none" id="config-to-dsl" style="stroke:#181818;stroke-width:1;"/><polygon fill="#181818" points="92.1,181.38,101.4572,178.3071,95.8074,178.0251,96.0894,172.3753,92.1,181.38" style="stroke:#181818;stroke-width:1;"/></g><!--link config to model--><g class="link" data-entity-1="config" data-entity-2="model" data-source-line="28" data-uid="lnk17" id="link_config_model"><path d="M242.09,107.18 C229.84,115.2 214.59,124.36 200,130.86 C188.57,135.96 181.97,130.13 173,138.86 C143.23,167.83 164.59,191.63 144,227.71 C133.06,246.87 120.4119,261.2468 107.3219,274.1568" fill="none" id="config-to-model" style="stroke:#181818;stroke-width:1;"/><polygon fill="#181818" points="103.05,278.37,112.2666,274.8982,106.6099,274.859,106.6491,269.2023,103.05,278.37" style="stroke:#181818;stroke-width:1;"/></g><!--link config to entry--><g class="link" data-entity-1="config" data-entity-2="entry" data-source-line="29" data-uid="lnk18" id="link_config_entry"><path d="M302.01,107.32 C318.21,115.1 337.84,124.01 356,130.86 C509.12,188.65 611.12,104.54 709,235.71 C736.46,272.5 734.74,300.99 709,339 C690.96,365.65 504.2172,430.998 408.7672,463.088" fill="none" id="config-to-entry" style="stroke:#181818;stroke-width:1;"/><polygon fill="#181818" points="403.08,465,412.8855,465.9234,407.8193,463.4067,410.3361,458.3405,403.08,465" style="stroke:#181818;stroke-width:1;"/></g><!--link config to render--><g class="link" data-entity-1="config" data-entity-2="render" data-source-line="30" data-uid="lnk19" id="link_config_render"><path d="M302.27,107.15 C314.48,115.07 326.87,125.66 334,138.86 C379.53,223.2 362.1836,339.1399 353.0936,383.9199" fill="none" id="config-to-render" style="stroke:#181818;stroke-width:1;"/><polygon fill="#181818" points="351.9,389.8,357.6105,381.7756,352.8947,384.8999,349.7704,380.1841,351.9,389.8" style="stroke:#181818;stroke-width:1;"/></g><!--link dsl to model--><g class="link" data-entity-1="dsl" data-entity-2="model" data-source-line="32" data-uid="lnk20" id="link_dsl_model"><path d="M75.83,218.41 C77.63,235.41 79.7112,255.203 81.5112,272.283" fill="none" id="dsl-to-model" style="stroke:#181818;stroke-width:1;"/><polygon fill="#181818" points="82.14,278.25,85.1747,268.8803,81.616,273.2775,77.2188,269.7188,82.14,278.25" style="stroke:#181818;stroke-width:1;"/></g><!--link model to render--><g class="link" data-entity-1="model" data-entity-2="render" data-source-line="33" data-uid="lnk21" id="link_model_render"><path d="M126.42,315.42 C175.68,335.81 250.9264,366.9646 300.1464,387.3446" fill="none" id="model-to-render" style="stroke:#181818;stroke-width:1;"/><polygon fill="#181818" points="305.69,389.64,298.9049,382.5012,301.0704,387.7272,295.8444,389.8927,305.69,389.64" style="stroke:#181818;stroke-width:1;"/></g><!--link model to entry--><g class="link" data-entity-1="model" data-entity-2="entry" data-source-line="34" data-uid="lnk22" id="link_model_entry"><path d="M108.13,315.33 C144.79,341.79 216.82,393.42 279,435.85 C293.38,445.67 304.5665,453.0691 317.8565,461.7491" fill="none" id="model-to-entry" style="stroke:#181818;stroke-width:1;"/><polygon fill="#181818" points="322.88,465.03,317.5321,456.7596,318.6938,462.2959,313.1575,463.4576,322.88,465.03" style="stroke:#181818;stroke-width:1;"/></g><!--link render to entry--><g class="link" data-entity-1="render" data-entity-2="entry" data-source-line="36" data-uid="lnk23" id="link_render_entry"><path d="M348.47,426.55 C348.79,438.16 349.0503,447.3921 349.3603,459.0321" fill="none" id="render-to-entry" style="stroke:#181818;stroke-width:1;"/><polygon fill="#181818" points="349.52,465.03,353.279,455.9267,349.3869,460.0318,345.2818,456.1397,349.52,465.03" style="stroke:#181818;stroke-width:1;"/></g><!--link template to render--><g class="link" data-entity-1="template" data-entity-2="render" data-source-line="37" data-uid="lnk24" id="link_template_render"><path d="M440.33,315.42 C419.8,335.81 390.3961,365.0309 369.8861,385.4109" fill="none" id="template-to-render" style="stroke:#181818;stroke-width:1;"/><polygon fill="#181818" points="365.63,389.64,374.8336,386.1337,369.1768,386.1157,369.1947,380.4589,365.63,389.64" style="stroke:#181818;stroke-width:1;"/></g><!--link utils to GMN25--><g class="link" data-entity-1="utils" data-entity-2="GMN25" data-source-line="40" data-uid="lnk27" id="link_utils_GMN25"><path d="M150.65,70.1 C161.72,52.83 180.81,28.23 205,17.56 C231.23,6 306.9,8.23 334,17.56 C355.05,24.81 374.95,39.15 390.74,53.07" fill="none" id="utils-GMN25" style="stroke:#181818;stroke-width:1;stroke-dasharray:7,7;"/></g><!--link model to GMN31--><g class="link" data-entity-1="model" data-entity-2="GMN31" data-source-line="53" data-uid="lnk33" id="link_model_GMN31"><path d="M146.5,279.02 C206.16,262.98 298.87,240.61 381,231.71 C398.01,229.86 518.62,226.76 535,231.71 C559.45,239.09 583.38,254.8 601.48,268.94" fill="none" id="model-GMN31" style="stroke:#181818;stroke-width:1;stroke-dasharray:7,7;"/></g><!--SRC=[VLJ1Rjim3BtxAuYUcw8jUXuGT1km8kYXoKx53fnCEsfiIf3aBKQnVvz49R5SmFN1fjuJ7wadmlwWsQB37fJfhM7Yi0rZH-181UIseyfVjh2foPE5kzi2TCY71DxVLfL5TS2MuEgx6RZ6e0t31aToL_1UGNnUxTWe7_gR8UZE_mBq8D6SL8ORtGgRm-fVeVre72serhwJhFYT4ttiF5CIpVJMrdPQVTPiDCMDaYtHd7J4DJbXSpWJ_tOCn7vPEb1lEmma-UT5KX1ROBNw8eUPLhd_QNsgcNswx2-MEQ40yXaAu2HHnSGYGzubFm5PeSfuWPpxdwcoYO3JxJw0QOhR_XaZ7KPe1bR9-umsna6Zu_pjaUjEStijSA1Z0EkC8kylu1_iT1woQw2WRgfO4LAvZqNFu_1rku4uj4a1ehnWw-qk3PaFRf0s1FohmnxMpxlDoyEYQ7OfxTw6TEOUrLup2I9SMOMErgNMunpuqKUV5cLFjgMatSdErM_qb7LK58QMc1pEcttI_8RtYwhJt3vkVe3cGAv1HHVB1nylKc2SN8ZDfxz2dxvq93K8Soxn7m00]--></g></svg>