<?plantuml 1.2026.2beta3?><svg xmlns="http://www.w3.org/2000/svg" xmlns:xlink="http://www.w3.org/1999/xlink" contentStyleType="text/css" data-diagram-type="DESCRIPTION" height="1182px" preserveAspectRatio="none" style="width:1083px;height:1182px;background:#FFFFFF;" version="1.1" viewBox="0 0 1083 1182" width="1083px" zoomAndPan="magnify"><defs/><g><!--cluster Foundation Layer--><g class="cluster" data-qualified-name="Foundation Layer" data-source-line="13" id="ent0002"><path d="M410.68,26.9 L550.1077,26.9 A3.75,3.75 0 0 1 552.6077,29.4 L559.6077,49.1969 L686.68,49.1969 A2.5,2.5 0 0 1 689.18,51.6969 L689.18,266.07 A2.5,2.5 0 0 1 686.68,268.57 L410.68,268.57 A2.5,2.5 0 0 1 408.18,266.07 L408.18,29.4 A2.5,2.5 0 0 1 410.68,26.9" fill="none" style="stroke:#000000;stroke-width:1.5;"/><line style="stroke:#000000;stroke-width:1.5;" x1="408.18" x2="559.6077" y1="49.1969" y2="49.1969"/><text fill="#000000" font-family="sans-serif" font-size="14" font-weight="bold" lengthAdjust="spacing" textLength="138.4277" x="412.18" y="41.8951">Foundation Layer</text><text fill="#000000" font-family="sans-serif" font-size="14" font-style="italic" lengthAdjust="spacing" textLength="87.5" x="508.93" y="64.192">&#171;Rectangle&#187;</text></g><!--cluster Core Layer--><g class="cluster" data-qualified-name="Core Layer" data-source-line="19" id="ent0005"><path d="M569.68,317.57 L655.7396,317.57 A3.75,3.75 0 0 1 658.2396,320.07 L665.2396,339.8669 L774.68,339.8669 A2.5,2.5 0 0 1 777.18,342.3669 L777.18,671.6 A2.5,2.5 0 0 1 774.68,674.1 L569.68,674.1 A2.5,2.5 0 0 1 567.18,671.6 L567.18,320.07 A2.5,2.5 0 0 1 569.68,317.57" fill="none" style="stroke:#000000;stroke-width:1.5;"/><line style="stroke:#000000;stroke-width:1.5;" x1="567.18" x2="665.2396" y1="339.8669" y2="339.8669"/><text fill="#000000" font-family="sans-serif" font-size="14" font-weight="bold" lengthAdjust="spacing" textLength="85.0596" x="571.18" y="332.5651">Core Layer</text><text fill="#000000" font-family="sans-serif" font-size="14" font-style="italic" lengthAdjust="spacing" textLength="87.5" x="632.43" y="354.862">&#171;Rectangle&#187;</text></g><!--cluster Application Layer--><g class="cluster" data-qualified-name="Application Layer" data-source-line="25" id="ent0008"><path d="M461.68,723.1 L600.7454,723.1 A3.75,3.75 0 0 1 603.2454,725.6 L610.2454,745.3969 L616.68,745.3969 A2.5,2.5 0 0 1 619.18,747.8969 L619.18,1069.86 A2.5,2.5 0 0 1 616.68,1072.36 L461.68,1072.36 A2.5,2.5 0 0 1 459.18,1069.86 L459.18,725.6 A2.5,2.5 0 0 1 461.68,723.1" fill="none" style="stroke:#000000;stroke-width:1.5;"/><line style="stroke:#000000;stroke-width:1.5;" x1="459.18" x2="610.2454" y1="745.3969" y2="745.3969"/><text fill="#000000" font-family="sans-serif" font-size="14" font-weight="bold" lengthAdjust="spacing" textLength="138.0654" x="463.18" y="738.0951">Application Layer</text><text fill="#000000" font-family="sans-serif" font-size="14" font-style="italic" lengthAdjust="spacing" textLength="87.5" x="499.43" y="760.392">&#171;Rectangle&#187;</text></g><!--cluster Extension Layer--><g class="cluster" data-qualified-name="Extension Layer" data-source-line="31" id="ent0011"><path d="M223.68,542.35 L350.9124,542.35 A3.75,3.75 0 0 1 353.4124,544.85 L360.4124,564.6469 L394.68,564.6469 A2.5,2.5 0 0 1 397.18,567.1469 L397.18,643.15 A2.5,2.5 0 0 1 394.68,645.65 L223.68,645.65 A2.5,2.5 0 0 1 221.18,643.15 L221.18,544.85 A2.5,2.5 0 0 1 223.68,542.35" fill="none" style="stroke:#000000;stroke-width:1.5;"/><line style="stroke:#000000;stroke-width:1.5;" x1="221.18" x2="360.4124" y1="564.6469" y2="564.6469"/><text fill="#000000" font-family="sans-serif" font-size="14" font-weight="bold" lengthAdjust="spacing" textLength="126.2324" x="225.18" y="557.3451">Extension Layer</text><text fill="#000000" font-family="sans-serif" font-size="14" font-style="italic" lengthAdjust="spacing" textLength="87.5" x="269.43" y="579.642">&#171;Rectangle&#187;</text></g><!--entity config--><g class="entity" data-qualified-name="Foundation Layer.config" data-source-line="14" id="ent0003"><rect fill="#E8F5E9" height="60.5938" rx="2.5" ry="2.5" style="stroke:#181818;stroke-width:0.5;" width="123.5098" x="549.43" y="134.94"/><text fill="#000000" font-family="sans-serif" font-size="14" lengthAdjust="spacing" textLength="103.5098" x="559.43" y="157.9351">pyfcstm.config</text><line style="stroke:#181818;stroke-width:1;" x1="550.43" x2="671.9398" y1="161.2369" y2="161.2369"/><text fill="#000000" font-family="sans-serif" font-size="14" lengthAdjust="spacing" textLength="57.9414" x="559.43" y="178.232">meta.py</text></g><!--entity utils--><g class="entity" data-qualified-name="Foundation Layer.utils" data-source-line="15" id="ent0004"><rect fill="#E8F5E9" height="174.6719" rx="2.5" ry="2.5" style="stroke:#181818;stroke-width:0.5;" width="110.1045" x="424.13" y="77.9"/><text fill="#000000" font-family="sans-serif" font-size="14" lengthAdjust="spacing" textLength="90.1045" x="434.13" y="100.8951">pyfcstm.utils</text><line style="stroke:#181818;stroke-width:1;" x1="425.13" x2="533.2345" y1="104.1969" y2="104.1969"/><text fill="#000000" font-family="sans-serif" font-size="14" lengthAdjust="spacing" textLength="77.834" x="434.13" y="121.192">validate.py</text><text fill="#000000" font-family="sans-serif" font-size="14" lengthAdjust="spacing" textLength="49.499" x="434.13" y="137.4889">text.py</text><text fill="#000000" font-family="sans-serif" font-size="14" lengthAdjust="spacing" textLength="51.0371" x="434.13" y="153.7857">safe.py</text><text fill="#000000" font-family="sans-serif" font-size="14" lengthAdjust="spacing" textLength="46.7715" x="434.13" y="170.0826">doc.py</text><text fill="#000000" font-family="sans-serif" font-size="14" lengthAdjust="spacing" textLength="65.8916" x="434.13" y="186.3795">binary.py</text><text fill="#000000" font-family="sans-serif" font-size="14" lengthAdjust="spacing" textLength="72.8848" x="434.13" y="202.6764">decode.py</text><text fill="#000000" font-family="sans-serif" font-size="14" lengthAdjust="spacing" textLength="59.6504" x="434.13" y="218.9732">jinja2.py</text><text fill="#000000" font-family="sans-serif" font-size="14" lengthAdjust="spacing" textLength="50.2441" x="434.13" y="235.2701">json.py</text></g><!--entity dsl--><g class="entity" data-qualified-name="Core Layer.dsl" data-source-line="20" id="ent0006"><rect fill="#E3F2FD" height="125.7813" rx="2.5" ry="2.5" style="stroke:#181818;stroke-width:0.5;" width="178.5869" x="582.89" y="368.57"/><text fill="#000000" font-family="sans-serif" font-size="14" lengthAdjust="spacing" textLength="80.7393" x="592.89" y="391.5651">pyfcstm.dsl</text><line style="stroke:#181818;stroke-width:1;" x1="583.89" x2="760.4769" y1="394.8669" y2="394.8669"/><text fill="#000000" font-family="sans-serif" font-size="14" lengthAdjust="spacing" textLength="60.751" x="592.89" y="411.862">parse.py</text><text fill="#000000" font-family="sans-serif" font-size="14" lengthAdjust="spacing" textLength="74.04" x="592.89" y="428.1589">listener.py</text><text fill="#000000" font-family="sans-serif" font-size="14" lengthAdjust="spacing" textLength="56.5605" x="592.89" y="444.4557">node.py</text><text fill="#000000" font-family="sans-serif" font-size="14" lengthAdjust="spacing" textLength="56.0684" x="592.89" y="460.7526">error.py</text><text fill="#000000" font-family="sans-serif" font-size="14" lengthAdjust="spacing" textLength="158.5869" x="592.89" y="477.0495">grammar/Grammar.g4</text></g><!--entity model--><g class="entity" data-qualified-name="Core Layer.model" data-source-line="21" id="ent0007"><rect fill="#E3F2FD" height="93.1875" rx="2.5" ry="2.5" style="stroke:#181818;stroke-width:0.5;" width="124.2617" x="583.05" y="564.91"/><text fill="#000000" font-family="sans-serif" font-size="14" lengthAdjust="spacing" textLength="104.2617" x="593.05" y="587.9051">pyfcstm.model</text><line style="stroke:#181818;stroke-width:1;" x1="584.05" x2="706.3117" y1="591.2069" y2="591.2069"/><text fill="#000000" font-family="sans-serif" font-size="14" lengthAdjust="spacing" textLength="65.2148" x="593.05" y="608.202">model.py</text><text fill="#000000" font-family="sans-serif" font-size="14" lengthAdjust="spacing" textLength="53.1631" x="593.05" y="624.4989">expr.py</text><text fill="#000000" font-family="sans-serif" font-size="14" lengthAdjust="spacing" textLength="54.9951" x="593.05" y="640.7957">base.py</text></g><!--entity render--><g class="entity" data-qualified-name="Application Layer.render" data-source-line="26" id="ent0009"><rect fill="#FFF3E0" height="109.4844" rx="2.5" ry="2.5" style="stroke:#181818;stroke-width:0.5;" width="127.167" x="475.6" y="774.1"/><text fill="#000000" font-family="sans-serif" font-size="14" lengthAdjust="spacing" textLength="107.167" x="485.6" y="797.0951">pyfcstm.render</text><line style="stroke:#181818;stroke-width:1;" x1="476.6" x2="601.767" y1="800.3969" y2="800.3969"/><text fill="#000000" font-family="sans-serif" font-size="14" lengthAdjust="spacing" textLength="68.1201" x="485.6" y="817.392">render.py</text><text fill="#000000" font-family="sans-serif" font-size="14" lengthAdjust="spacing" textLength="47.3936" x="485.6" y="833.6889">env.py</text><text fill="#000000" font-family="sans-serif" font-size="14" lengthAdjust="spacing" textLength="53.1631" x="485.6" y="849.9857">expr.py</text><text fill="#000000" font-family="sans-serif" font-size="14" lengthAdjust="spacing" textLength="51.9941" x="485.6" y="866.2826">func.py</text></g><!--entity entry--><g class="entity" data-qualified-name="Application Layer.entry" data-source-line="27" id="ent0010"><rect fill="#FFF3E0" height="125.7813" rx="2.5" ry="2.5" style="stroke:#181818;stroke-width:0.5;" width="117.6855" x="485.34" y="930.58"/><text fill="#000000" font-family="sans-serif" font-size="14" lengthAdjust="spacing" textLength="97.6855" x="495.34" y="953.5751">pyfcstm.entry</text><line style="stroke:#181818;stroke-width:1;" x1="486.34" x2="602.0255" y1="956.8769" y2="956.8769"/><text fill="#000000" font-family="sans-serif" font-size="14" lengthAdjust="spacing" textLength="37.0986" x="495.34" y="973.872">cli.py</text><text fill="#000000" font-family="sans-serif" font-size="14" lengthAdjust="spacing" textLength="81.2178" x="495.34" y="990.1689">dispatch.py</text><text fill="#000000" font-family="sans-serif" font-size="14" lengthAdjust="spacing" textLength="83.7402" x="495.34" y="1006.4657">plantuml.py</text><text fill="#000000" font-family="sans-serif" font-size="14" lengthAdjust="spacing" textLength="85.0459" x="495.34" y="1022.7626">generate.py</text><text fill="#000000" font-family="sans-serif" font-size="14" lengthAdjust="spacing" textLength="54.9951" x="495.34" y="1039.0595">base.py</text></g><!--entity template--><g class="entity" data-qualified-name="Extension Layer.template" data-source-line="32" id="ent0012"><rect fill="#F3E5F5" height="36.2969" rx="2.5" ry="2.5" style="stroke:#181818;stroke-width:0.5;" width="143.8672" x="237.25" y="593.35"/><text fill="#000000" font-family="sans-serif" font-size="14" lengthAdjust="spacing" textLength="123.8672" x="247.25" y="616.3451">pyfcstm.template</text></g><!--entity User--><g class="entity" data-qualified-name="User" data-source-line="36" id="ent0013"><ellipse cx="847.1851" cy="799.19" fill="#F1F1F1" rx="8" ry="8" style="stroke:#181818;stroke-width:0.5;"/><path d="M847.1851,807.19 L847.1851,834.19 M834.1851,815.19 L860.1851,815.19 M847.1851,834.19 L834.1851,849.19 M847.1851,834.19 L860.1851,849.19" fill="none" style="stroke:#181818;stroke-width:0.5;"/><text fill="#000000" font-family="sans-serif" font-size="14" lengthAdjust="spacing" textLength="31.9102" x="831.23" y="863.6851">User</text></g><!--entity dsl_file--><g class="entity" data-qualified-name="dsl_file" data-source-line="37" id="ent0014"><path d="M914.3,805.04 L914.3,852.6338 A2.5,2.5 0 0 0 916.8,855.1338 L999.5578,855.1338 A2.5,2.5 0 0 0 1002.0578,852.6338 L1002.0578,812.54 L992.0578,802.54 L916.8,802.54 A2.5,2.5 0 0 0 914.3,805.04" fill="#F1F1F1" style="stroke:#181818;stroke-width:0.5;"/><path d="M992.0578,802.54 L992.0578,810.04 A2.5,2.5 0 0 0 994.5578,812.54 L1002.0578,812.54" fill="#F1F1F1" style="stroke:#181818;stroke-width:0.5;"/><text fill="#000000" font-family="sans-serif" font-size="14" lengthAdjust="spacing" textLength="67.7578" x="924.3" y="825.5351">DSL Code</text><text fill="#000000" font-family="sans-serif" font-size="14" lengthAdjust="spacing" textLength="54.4209" x="924.3" y="841.832">(.fcstm)</text></g><!--entity template_files--><g class="entity" data-qualified-name="template_files" data-source-line="38" id="ent0015"><path d="M412.81,587.71 L412.81,635.3038 A2.5,2.5 0 0 0 415.31,637.8038 L549.0639,637.8038 A2.5,2.5 0 0 0 551.5639,635.3038 L551.5639,595.21 L541.5639,585.21 L415.31,585.21 A2.5,2.5 0 0 0 412.81,587.71" fill="#F1F1F1" style="stroke:#181818;stroke-width:0.5;"/><path d="M541.5639,585.21 L541.5639,592.71 A2.5,2.5 0 0 0 544.0639,595.21 L551.5639,595.21" fill="#F1F1F1" style="stroke:#181818;stroke-width:0.5;"/><text fill="#000000" font-family="sans-serif" font-size="14" lengthAdjust="spacing" textLength="73.5547" x="422.81" y="608.2051">Templates</text><text fill="#000000" font-family="sans-serif" font-size="14" lengthAdjust="spacing" textLength="118.7539" x="422.81" y="624.502">(config.yaml, .j2)</text></g><!--entity output_code--><g class="entity" data-qualified-name="output_code" data-source-line="39" id="ent0016"><path d="M351.9,1132.41 L351.9,1163.7069 A2.5,2.5 0 0 0 354.4,1166.2069 L483.9635,1166.2069 A2.5,2.5 0 0 0 486.4635,1163.7069 L486.4635,1139.91 L476.4635,1129.91 L354.4,1129.91 A2.5,2.5 0 0 0 351.9,1132.41" fill="#F1F1F1" style="stroke:#181818;stroke-width:0.5;"/><path d="M476.4635,1129.91 L476.4635,1137.41 A2.5,2.5 0 0 0 478.9635,1139.91 L486.4635,1139.91" fill="#F1F1F1" style="stroke:#181818;stroke-width:0.5;"/><text fill="#000000" font-family="sans-serif" font-size="14" lengthAdjust="spacing" textLength="114.5635" x="361.9" y="1152.9051">Generated Code</text></g><!--entity plantuml_file--><g class="entity" data-qualified-name="plantuml_file" data-source-line="40" id="ent0017"><path d="M501.48,1124.26 L501.48,1171.8538 A2.5,2.5 0 0 0 503.98,1174.3538 L584.3794,1174.3538 A2.5,2.5 0 0 0 586.8794,1171.8538 L586.8794,1131.76 L576.8794,1121.76 L503.98,1121.76 A2.5,2.5 0 0 0 501.48,1124.26" fill="#F1F1F1" style="stroke:#181818;stroke-width:0.5;"/><path d="M576.8794,1121.76 L576.8794,1129.26 A2.5,2.5 0 0 0 579.3794,1131.76 L586.8794,1131.76" fill="#F1F1F1" style="stroke:#181818;stroke-width:0.5;"/><text fill="#000000" font-family="sans-serif" font-size="14" lengthAdjust="spacing" textLength="65.3994" x="511.48" y="1144.7551">PlantUML</text><text fill="#000000" font-family="sans-serif" font-size="14" lengthAdjust="spacing" textLength="50.6611" x="511.48" y="1161.052">(.puml)</text></g><g class="entity" data-qualified-name="GMN32" data-source-line="64" id="ent0033"><path d="M901.64,137.54 L901.64,192.9384 L1076.723,192.9384 L1076.723,147.54 L1066.723,137.54 L901.64,137.54" fill="#FEFFDD" style="stroke:#181818;stroke-width:0.5;"/><path d="M1066.723,137.54 L1066.723,147.54 L1076.723,147.54 L1066.723,137.54" fill="#FEFFDD" style="stroke:#181818;stroke-width:1;"/><text fill="#000000" font-family="sans-serif" font-size="13" font-weight="bold" lengthAdjust="spacing" textLength="121.2339" x="907.64" y="154.6069">Stage 1: Parsing</text><text fill="#000000" font-family="sans-serif" font-size="13" lengthAdjust="spacing" textLength="115.4385" x="907.64" y="169.7397">ANTLR4 grammar</text><text fill="#000000" font-family="sans-serif" font-size="13" lengthAdjust="spacing" textLength="154.083" x="907.64" y="184.8725">Parse tree &#8594; AST nodes</text></g><g class="entity" data-qualified-name="GMN35" data-source-line="70" id="ent0036"><path d="M291.08,396.2 L291.08,466.7313 L449.2846,466.7313 L449.2846,406.2 L439.2846,396.2 L291.08,396.2" fill="#FEFFDD" style="stroke:#181818;stroke-width:0.5;"/><path d="M439.2846,396.2 L439.2846,406.2 L449.2846,406.2 L439.2846,396.2" fill="#FEFFDD" style="stroke:#181818;stroke-width:1;"/><text fill="#000000" font-family="sans-serif" font-size="13" font-weight="bold" lengthAdjust="spacing" textLength="133.231" x="297.08" y="413.2669">Stage 2: Modeling</text><text fill="#000000" font-family="sans-serif" font-size="13" lengthAdjust="spacing" textLength="137.2046" x="297.08" y="428.3997">AST &#8594; State Machine</text><text fill="#000000" font-family="sans-serif" font-size="13" lengthAdjust="spacing" textLength="121.6021" x="297.08" y="443.5325">Hierarchical states</text><text fill="#000000" font-family="sans-serif" font-size="13" lengthAdjust="spacing" textLength="133.9673" x="297.08" y="458.6653">Transitions &amp; Events</text></g><g class="entity" data-qualified-name="GMN38" data-source-line="77" id="ent0039"><path d="M6,576.24 L6,646.7713 L174.3672,646.7713 L174.3672,586.24 L164.3672,576.24 L6,576.24" fill="#FEFFDD" style="stroke:#181818;stroke-width:0.5;"/><path d="M164.3672,576.24 L164.3672,586.24 L174.3672,586.24 L164.3672,576.24" fill="#FEFFDD" style="stroke:#181818;stroke-width:1;"/><text fill="#000000" font-family="sans-serif" font-size="13" font-weight="bold" lengthAdjust="spacing" textLength="147.3672" x="12" y="593.3069">Stage 3: Generation</text><text fill="#000000" font-family="sans-serif" font-size="13" lengthAdjust="spacing" textLength="105.1235" x="12" y="608.4397">Jinja2 templates</text><text fill="#000000" font-family="sans-serif" font-size="13" lengthAdjust="spacing" textLength="138.2646" x="12" y="623.5725">Expression rendering</text><text fill="#000000" font-family="sans-serif" font-size="13" lengthAdjust="spacing" textLength="144.0029" x="12" y="638.7053">Multi-language output</text></g><g class="entity" data-qualified-name="GMN41" data-source-line="84" id="ent0042"><path d="M602.07,1120.36 L602.07,1175.7584 A0,0 0 0 0 602.07,1175.7584 L738.299,1175.7584 A0,0 0 0 0 738.299,1175.7584 L738.299,1130.36 L728.299,1120.36 L651.87,1120.36 L595.43,1056.54 L643.87,1120.36 L602.07,1120.36 A0,0 0 0 0 602.07,1120.36" fill="#FEFFDD" style="stroke:#181818;stroke-width:0.5;"/><path d="M728.299,1120.36 L728.299,1130.36 L738.299,1130.36 L728.299,1120.36" fill="#FEFFDD" style="stroke:#181818;stroke-width:0.5;"/><text fill="#000000" font-family="sans-serif" font-size="13" font-weight="bold" lengthAdjust="spacing" textLength="104.5332" x="608.07" y="1137.4269">User Interface</text><text fill="#000000" font-family="sans-serif" font-size="13" lengthAdjust="spacing" textLength="114.0166" x="608.07" y="1152.5597">pyfcstm plantuml</text><text fill="#000000" font-family="sans-serif" font-size="13" lengthAdjust="spacing" textLength="115.229" x="608.07" y="1167.6925">pyfcstm generate</text></g><g class="entity" data-qualified-name="GMN44" data-source-line="90" id="ent0045"><path d="M705.66,99.71 L705.66,230.7725 L886.7098,230.7725 L886.7098,109.71 L876.7098,99.71 L705.66,99.71" fill="#FEFFDD" style="stroke:#181818;stroke-width:0.5;"/><path d="M876.7098,99.71 L876.7098,109.71 L886.7098,109.71 L876.7098,99.71" fill="#FEFFDD" style="stroke:#181818;stroke-width:1;"/><text fill="#000000" font-family="sans-serif" font-size="13" font-weight="bold" lengthAdjust="spacing" textLength="160.0498" x="711.66" y="116.7769">Cross-cutting Utilities</text><text fill="#000000" font-family="sans-serif" font-size="13" lengthAdjust="spacing" textLength="151.144" x="711.66" y="131.9097">&#8226; Validation framework</text><text fill="#000000" font-family="sans-serif" font-size="13" lengthAdjust="spacing" textLength="133.7451" x="711.66" y="147.0425">&#8226; Text normalization</text><text fill="#000000" font-family="sans-serif" font-size="13" lengthAdjust="spacing" textLength="145.1963" x="711.66" y="162.1753">&#8226; Identifier generation</text><text fill="#000000" font-family="sans-serif" font-size="13" lengthAdjust="spacing" textLength="148.4272" x="711.66" y="177.3081">&#8226; Comment formatting</text><text fill="#000000" font-family="sans-serif" font-size="13" lengthAdjust="spacing" textLength="119.1011" x="711.66" y="192.441">&#8226; Binary detection</text><text fill="#000000" font-family="sans-serif" font-size="13" lengthAdjust="spacing" textLength="106.3804" x="711.66" y="207.5738">&#8226; Auto-decoding</text><text fill="#000000" font-family="sans-serif" font-size="13" lengthAdjust="spacing" textLength="99.6836" x="711.66" y="222.7066">&#8226; Jinja2 helpers</text></g><!--link User to entry--><g class="link" data-entity-1="ent0013" data-entity-2="ent0010" data-link-type="dependency" data-source-line="43" id="lnk18"><path d="M842.99,867.45 C839.28,884.23 832.3,903.01 819.18,915.58 C760.74,971.56 670.9865,987.0082 609.2965,991.1482" fill="none" id="User-to-entry" style="stroke:#181818;stroke-width:1;"/><polygon fill="#181818" points="603.31,991.55,612.5576,994.9384,608.2988,991.2152,612.022,986.9563,603.31,991.55" style="stroke:#181818;stroke-width:1;"/><text fill="#000000" font-family="sans-serif" font-size="13" lengthAdjust="spacing" textLength="95.9448" x="831.18" y="911.6469">CLI commands</text></g><!--link dsl_file to entry--><g class="link" data-entity-1="ent0014" data-entity-2="ent0010" data-link-type="dependency" data-source-line="44" id="lnk19"><path d="M956.59,855.32 C953.99,874.65 947.28,900.4 930.18,915.58 C882.46,957.93 704.9264,978.8784 609.1364,987.3984" fill="none" id="dsl_file-to-entry" style="stroke:#181818;stroke-width:1;"/><polygon fill="#181818" points="603.16,987.93,612.479,991.1169,608.1403,987.487,611.7702,983.1484,603.16,987.93" style="stroke:#181818;stroke-width:1;"/><text fill="#000000" font-family="sans-serif" font-size="13" lengthAdjust="spacing" textLength="33.6616" x="944.18" y="911.6469">Input</text></g><!--link template_files to render--><g class="link" data-entity-1="ent0015" data-entity-2="ent0009" data-link-type="dependency" data-source-line="45" id="lnk20"><path d="M481.5,638.14 C481.55,657.36 482.78,684.19 488.18,707.1 C493.51,729.69 500.2445,747.961 509.3545,768.371" fill="none" id="template_files-to-render" style="stroke:#181818;stroke-width:1;"/><polygon fill="#181818" points="511.8,773.85,511.7843,764.0012,509.762,769.2842,504.479,767.2619,511.8,773.85" style="stroke:#181818;stroke-width:1;"/><text fill="#000000" font-family="sans-serif" font-size="13" lengthAdjust="spacing" textLength="31.4146" x="489.18" y="703.1669">Load</text></g><!--link entry to output_code--><g class="link" data-entity-1="ent0010" data-entity-2="ent0016" data-link-type="dependency" data-source-line="46" id="lnk21"><path d="M493.34,1056.54 C471.71,1082.94 451.9521,1107.0585 437.3221,1124.9185" fill="none" id="entry-to-output_code" style="stroke:#181818;stroke-width:1;"/><polygon fill="#181818" points="433.52,1129.56,442.3175,1125.1324,436.6884,1125.692,436.1288,1120.0629,433.52,1129.56" style="stroke:#181818;stroke-width:1;"/><text fill="#000000" font-family="sans-serif" font-size="13" lengthAdjust="spacing" textLength="60.7153" x="467.18" y="1101.4269">Generate</text></g><!--link entry to plantuml_file--><g class="link" data-entity-1="ent0010" data-entity-2="ent0017" data-link-type="dependency" data-source-line="47" id="lnk22"><path d="M544.18,1056.54 C544.18,1079.31 544.18,1097.83 544.18,1115.61" fill="none" id="entry-to-plantuml_file" style="stroke:#181818;stroke-width:1;"/><polygon fill="#181818" points="544.18,1121.61,548.18,1112.61,544.18,1116.61,540.18,1112.61,544.18,1121.61" style="stroke:#181818;stroke-width:1;"/><text fill="#000000" font-family="sans-serif" font-size="13" lengthAdjust="spacing" textLength="42.5547" x="545.18" y="1101.4269">Export</text></g><!--link utils to dsl--><g class="link" data-entity-1="ent0004" data-entity-2="ent0006" data-link-type="dependency" data-source-line="50" id="lnk23"><path d="M526.37,252.83 C531.49,261 536.8,269.03 542.18,276.57 C553.53,292.46 558.48,294.75 571.18,309.57 C587.38,328.47 600.9751,344.6039 616.7351,363.4839" fill="none" id="utils-to-dsl" style="stroke:#181818;stroke-width:1;"/><polygon fill="#181818" points="620.58,368.09,617.8833,358.6175,617.3759,364.2516,611.7418,363.7441,620.58,368.09" style="stroke:#181818;stroke-width:1;"/><text fill="#000000" font-family="sans-serif" font-size="13" lengthAdjust="spacing" textLength="117.9648" x="564.18" y="297.6369">text, validate, doc</text></g><!--link utils to model--><g class="link" data-entity-1="ent0004" data-entity-2="ent0007" data-link-type="dependency" data-source-line="51" id="lnk24"><path d="M471.48,252.83 C465.73,336.22 462.46,455.26 486.18,494.35 C505.38,525.98 528.92,513.07 559.18,534.35 C572.07,543.42 580.6743,550.1892 592.6643,560.6792" fill="none" id="utils-to-model" style="stroke:#181818;stroke-width:1;"/><polygon fill="#181818" points="597.18,564.63,593.0403,555.6934,593.4169,561.3377,587.7726,561.7143,597.18,564.63" style="stroke:#181818;stroke-width:1;"/><text fill="#000000" font-family="sans-serif" font-size="13" lengthAdjust="spacing" textLength="87.0391" x="487.18" y="436.0269">validate, json</text></g><!--link utils to render--><g class="link" data-entity-1="ent0004" data-entity-2="ent0009" data-link-type="dependency" data-source-line="52" id="lnk25"><path d="M423.95,192.9 C379.37,217.23 318.45,257.34 283.18,309.57 C236.32,378.98 181.17,611.48 226.18,682.1 C280.88,767.9 394.7717,802.8376 469.2717,817.4176" fill="none" id="utils-to-render" style="stroke:#181818;stroke-width:1;"/><polygon fill="#181818" points="475.16,818.57,467.0958,812.9159,470.2531,817.6097,465.5593,820.767,475.16,818.57" style="stroke:#181818;stroke-width:1;"/><text fill="#000000" font-family="sans-serif" font-size="13" lengthAdjust="spacing" textLength="140.5498" x="218.18" y="522.4169">jinja2, binary, decode</text></g><!--link config to entry--><g class="link" data-entity-1="ent0003" data-entity-2="ent0010" data-link-type="dependency" data-source-line="53" id="lnk26"><path d="M628.73,195.76 C644.4,220.08 669.31,254.1 698.18,276.57 C726.6,298.69 748.43,282.51 772.18,309.57 C809.17,351.71 808.18,374.4 808.18,430.46 C808.18,430.46 808.18,430.46 808.18,829.84 C808.18,925.39 687.1425,965.3895 609.3025,981.6995" fill="none" id="config-to-entry" style="stroke:#181818;stroke-width:1;"/><polygon fill="#181818" points="603.43,982.93,613.059,984.9993,608.3237,981.9046,611.4184,977.1693,603.43,982.93" style="stroke:#181818;stroke-width:1;"/><text fill="#000000" font-family="sans-serif" font-size="13" lengthAdjust="spacing" textLength="33.7251" x="809.18" y="616.0669">meta</text></g><!--link dsl to model--><g class="link" data-entity-1="ent0006" data-entity-2="ent0007" data-link-type="dependency" data-source-line="55" id="lnk27"><path d="M662.74,494.73 C659.26,517.7 656.2812,537.3481 653.0512,558.6081" fill="none" id="dsl-to-model" style="stroke:#181818;stroke-width:1;"/><polygon fill="#181818" points="652.15,564.54,657.4565,556.2429,652.901,559.5967,649.5472,555.0413,652.15,564.54" style="stroke:#181818;stroke-width:1;"/><text fill="#000000" font-family="sans-serif" font-size="13" lengthAdjust="spacing" textLength="83.2749" x="661.18" y="522.4169">AST &#8594; Model</text></g><!--link model to render--><g class="link" data-entity-1="ent0007" data-entity-2="ent0009" data-link-type="dependency" data-source-line="56" id="lnk28"><path d="M592.65,658.58 C581.94,666.93 570.49,675.18 559.18,682.1 C551.72,686.67 546.01,682.79 541.18,690.1 C525.17,714.35 523.233,740.6383 526.323,767.8483" fill="none" id="model-to-render" style="stroke:#181818;stroke-width:1;"/><polygon fill="#181818" points="527,773.81,529.9589,764.4161,526.4358,768.8419,522.01,765.3188,527,773.81" style="stroke:#181818;stroke-width:1;"/><text fill="#000000" font-family="sans-serif" font-size="13" lengthAdjust="spacing" textLength="91.4697" x="542.18" y="703.1669">Model &#8594; Code</text></g><!--link model to entry--><g class="link" data-entity-1="ent0007" data-entity-2="ent0010" data-link-type="dependency" data-source-line="57" id="lnk29"><path d="M654.18,658.33 C663.99,720.14 673.41,832.08 633.18,915.58 C626.27,929.93 619.7549,938.6397 607.8549,949.4297" fill="none" id="model-to-entry" style="stroke:#181818;stroke-width:1;"/><polygon fill="#181818" points="603.41,953.46,612.7642,950.3778,607.1141,950.1014,607.3905,944.4513,603.41,953.46" style="stroke:#181818;stroke-width:1;"/><text fill="#000000" font-family="sans-serif" font-size="13" lengthAdjust="spacing" textLength="86.9692" x="663.18" y="833.4069">Model access</text></g><!--link render to entry--><g class="link" data-entity-1="ent0009" data-entity-2="ent0010" data-link-type="dependency" data-source-line="59" id="lnk30"><path d="M526.22,884.07 C525.4,888.96 524.69,893.84 524.18,898.58 C523.08,908.85 522.8013,913.7247 524.3513,924.1947" fill="none" id="render-to-entry" style="stroke:#181818;stroke-width:1;"/><polygon fill="#181818" points="525.23,930.13,527.8689,920.6412,524.4978,925.1839,519.9551,921.8128,525.23,930.13" style="stroke:#181818;stroke-width:1;"/><text fill="#000000" font-family="sans-serif" font-size="13" lengthAdjust="spacing" textLength="108.1133" x="525.18" y="911.6469">Code generation</text></g><!--link template to render--><g class="link" data-entity-1="ent0012" data-entity-2="ent0009" data-link-type="dependency" data-source-line="60" id="lnk31"><path d="M327.8,629.94 C348.06,648.92 381.42,680.17 410.18,707.1 C433.47,728.9 454.749,748.8204 477.009,769.6504" fill="none" id="template-to-render" style="stroke:#181818;stroke-width:1;"/><polygon fill="#181818" points="481.39,773.75,477.5515,764.6799,477.7391,770.3337,472.0854,770.5213,481.39,773.75" style="stroke:#181818;stroke-width:1;"/><text fill="#000000" font-family="sans-serif" font-size="13" lengthAdjust="spacing" textLength="70.5923" x="411.18" y="703.1669">Extensions</text></g><!--link GMN32 to dsl--><g class="link" data-entity-1="ent0033" data-entity-2="ent0006" data-link-type="association" data-source-line="64" id="lnk34"><path d="M969.02,193.34 C950.87,216.79 922.74,250.86 894.18,276.57 C853.58,313.13 803.96,348.28 761.93,375.74" fill="none" id="GMN32-dsl" style="stroke:#181818;stroke-width:1;stroke-dasharray:7,7;"/></g><!--link GMN35 to model--><g class="link" data-entity-1="ent0036" data-entity-2="ent0007" data-link-type="association" data-source-line="70" id="lnk37"><path d="M396.15,467.22 C413.93,488.2 439.43,513.31 468.18,526.35 C505.16,543.13 521.89,518.31 559.18,534.35 C575.49,541.37 590.85,552.71 603.95,564.52" fill="none" id="GMN35-model" style="stroke:#181818;stroke-width:1;stroke-dasharray:7,7;"/></g><!--link GMN38 to render--><g class="link" data-entity-1="ent0039" data-entity-2="ent0009" data-link-type="association" data-source-line="77" id="lnk40"><path d="M118.26,647.06 C135.96,666.96 160.31,691.1 186.18,707.1 C278.6,764.24 401.47,798.34 475.2,815.06" fill="none" id="GMN38-render" style="stroke:#181818;stroke-width:1;stroke-dasharray:7,7;"/></g><!--link utils to GMN44--><g class="link" data-entity-1="ent0004" data-entity-2="ent0045" data-link-type="association" data-source-line="90" id="lnk46"><path d="M494.97,77.65 C505.18,49.62 522,22.87 549.68,11.4 C562.72,6 663.65,6 676.68,11.4 C716.21,27.77 745.85,65.53 765.73,99.53" fill="none" id="utils-GMN44" style="stroke:#181818;stroke-width:1;stroke-dasharray:7,7;"/></g><?plantuml-src ZLPTRkCs47xNARWfq6w3sDsDDq1hB0AuZhrruSH1x1G5cY9WA4fc8f42IILnYmNsgGVe4NgqFKc7GrAHx0I8NoJE36U--UP7VfFoJ4XEfelBivFHQhOuknulveiByitan-dHvAVaJJ0OBoucZMemFPoUDAhH-VbyDkvSdawdWycxncBo-sfojcph1vEZwL6Ic3iXAwffIPWgAoMvj4kxAJZHd5agyuAtJAHAkU4LUN_K4cegxvnmyAublA7iBjUgbkbO5KgJXxMmRKzcJLFr86HECbeOdYJVaQcpfbOeIUPqmtLIWG-QSxAthTaZ7pzUH7Z7n-JlXC2lmK_-g3OPCxRiCoKpaL_97lokPCajxLURFmarn6jsI7_9KMr5OQAVUre8WCF1rvMq_D7YYw6PbwIAuVD6IAetNiGPC8UljqBUqaF_QfICU330BfpFZfYnqdoRaYVPgyb8JH4pW1eO3wSGndB9DHva1CcrLbwKGx5Agd_uv9_z_0F21L-jVdmfOWd-cfXuyDuVA-_yXY8Az8ZgjazCVLHLXM3FDiMEwjL4Q0u5qH6NFtbWyhuBCAibYm2ztUwelHG53deJWx12-4OGfgAMhV5G5LJQklIavAuAiQdQnA2VPy8YFvD7g9vvXfqjnQkviRm4M9PZw7ZOtXvFiRMaXKCehE0ceSp2g5yQ0989M25x9yivT6_Ah-JRFlh_VYzqpxKp25Qh40O6xAsVo_w6biK1wTyU-WiH2DuouTgdm5YA8T1ErRQgxRKRjc1qxZY-F9qx11LmxVr5vZqAoCLX9WA6MKCEm9f9KDBh7GV-XsGydpd2IYfJayGCEXOp2S6JBbOq2Aqp97D5qyIREtaBBYXZFYs33aumcJnMIbi76AjAKbuvrv8vzlqAwS5QbN3LJUYGkErqGEB2EY2mcxRi_DmDMpPkBMqPDGduxNL0_6u3VxZOah1Detaan2tSn76r4ssqN96l__nBJjqvyTATOAX4CrVWBQiOmnjHnhWnIHBkRXkv-oHC65ItgT5kp6PkZ6FvX5fAia8z40hBqLBV6l36YLKLKPcZ6KTfVtzftU2z7v9pMAxmOTlVHyNeR3M_-4327aMHCm07cdDCpd617rOeV4gSywGJ0lFk13aCQRUY13v13nTFALl3HnyrlmX8MiEPmQGQfpOeNy5dsmXCY7nB9lT0rKi0F3aT18EcNS51mF0hzaOpgpuCTAo6ohX5vDq0PbISreKLFUZll7OE_IXi0xXHrghIOS1A1WWucZCth1bbF4GF2wmPcOumVngjZdyjyhLrxh7TW_knLiRqM6sj-tjo2HhSRY7Ero__aT_yhBYaCgWhVr3whb6kOEGWXYx1w2_VRb4rIzsgpA0YxMQCsZ4i5xUBCtSNWpUgdt7SODeiPvqxezgg7WvXspnKOisBYkkdgluF?></g></svg>