<svg xmlns="http://www.w3.org/2000/svg" xmlns:xlink="http://www.w3.org/1999/xlink" version="1.1" data-diagram-type="STATE" style="width:712px;height:943px;background:#FFFFFF;" width="712px" height="943px" viewBox="0 0 712 943" zoomAndPan="magnify" preserveAspectRatio="none" contentStyleType="text/css"><?plantuml 1.2026.7beta5?><defs/><g font-family="sans-serif" lengthAdjust="spacing"><g class="legend" data-source-line="10"><rect x="12" y="12" width="252.662" height="62.891" fill="#DDD" style="stroke:#000;stroke-width:1;" rx="7.5" ry="7.5"/><text x="21.874" y="31.995" fill="#000" font-size="14" textLength="65.748" font-weight="700">Variable</text><text x="111.719" y="31.995" fill="#000" font-size="14" textLength="38.192" font-weight="700">Type</text><text x="159.659" y="31.995" fill="#000" font-size="14" textLength="95.129" font-weight="700">Initial Value</text><text x="21.45" y="48.292" fill="#000" font-size="14" textLength="53.867">counter</text><text x="111.295" y="48.292" fill="#000" font-size="14" textLength="18.252">int</text><text x="159.235" y="48.292" fill="#000" font-size="14">0</text><text x="21.45" y="64.589" fill="#000" font-size="14" textLength="80.944">error_count</text><text x="111.295" y="64.589" fill="#000" font-size="14" textLength="18.252">int</text><text x="159.235" y="64.589" fill="#000" font-size="14">0</text><line x1="17" y1="19" x2="259.662" y2="19" style="stroke:#000;stroke-width:1;"/><line x1="17" y1="35.297" x2="259.662" y2="35.297" style="stroke:#000;stroke-width:1;"/><line x1="17" y1="51.594" x2="259.662" y2="51.594" style="stroke:#000;stroke-width:1;"/><line x1="17" y1="67.891" x2="259.662" y2="67.891" style="stroke:#000;stroke-width:1;"/><line x1="17" y1="19" x2="17" y2="67.891" style="stroke:#000;stroke-width:1;"/><line x1="106.845" y1="19" x2="106.845" y2="67.891" style="stroke:#000;stroke-width:1;"/><line x1="154.785" y1="19" x2="154.785" y2="67.891" style="stroke:#000;stroke-width:1;"/><line x1="259.662" y1="19" x2="259.662" y2="67.891" style="stroke:#000;stroke-width:1;"/></g><g class="entity" data-qualified-name="system" id="ent0001" data-source-line="16"><path d="M19.5,173.891 L685.211,173.891 A12.5,12.5 0 0 1 697.711,186.391 L697.711,200.188 L7,200.188 L7,186.391 A12.5,12.5 0 0 1 19.5,173.891" fill="#ADD8E6"/><path d="M7,200.188 L697.711,200.188 L697.711,834.988 A12.5,12.5 0 0 1 685.211,847.488 L19.5,847.488 A12.5,12.5 0 0 1 7,834.988 L7,200.188" fill="#ADD8E6"/><rect x="7" y="173.891" width="690.711" height="673.597" fill="none" style="stroke:#181818;stroke-width:0.5;" rx="12.5" ry="12.5"/><line x1="7" y1="200.188" x2="697.711" y2="200.188" style="stroke:#181818;stroke-width:0.5;"/><text x="326.252" y="191.886" fill="#000" font-size="14" textLength="52.206">System</text><rect x="355.12" y="268.188" width="50" height="40" fill="#F1F1F1" style="stroke:#181818;stroke-width:0.5;" rx="12.5" ry="12.5"/><text x="367.361" y="293.034" fill="#000" font-size="14" textLength="25.519">Idle</text><g class="entity" data-qualified-name="system.system__active" id="ent0003" data-source-line="18"><path d="M31.5,426.187 L404.741,426.187 A12.5,12.5 0 0 1 417.241,438.687 L417.241,452.484 L19,452.484 L19,438.687 A12.5,12.5 0 0 1 31.5,426.187" fill="#ADD8E6"/><path d="M19,452.484 L417.241,452.484 L417.241,728.984 A12.5,12.5 0 0 1 404.741,741.484 L31.5,741.484 A12.5,12.5 0 0 1 19,728.984 L19,452.484" fill="#ADD8E6"/><rect x="19" y="426.187" width="398.241" height="315.297" fill="none" style="stroke:#181818;stroke-width:0.5;" rx="12.5" ry="12.5"/><line x1="19" y1="452.484" x2="417.241" y2="452.484" style="stroke:#181818;stroke-width:0.5;"/><text x="196.344" y="444.183" fill="#000" font-size="14" textLength="43.552">Active</text><rect x="151.89" y="520.484" width="85.312" height="40" fill="#F1F1F1" style="stroke:#181818;stroke-width:0.5;" rx="12.5" ry="12.5"/><text x="156.89" y="545.331" fill="#000" font-size="14" textLength="75.312">Processing</text><rect x="162.82" y="613.484" width="63.45" height="40" fill="#F1F1F1" style="stroke:#181818;stroke-width:0.5;" rx="12.5" ry="12.5"/><text x="167.82" y="638.331" fill="#000" font-size="14" textLength="53.45">Waiting</text><g class="end_entity" data-qualified-name="system.system__active..end.system__active" id="ent0007" data-source-line="21"><ellipse cx="255.54" cy="717.484" rx="11" ry="11" fill="none" style="stroke:#222;stroke-width:1;"/><ellipse cx="255.54" cy="717.484" rx="6" ry="6" fill="#222" style="stroke:#222;stroke-width:1;"/></g><g class="start_entity" data-qualified-name="system.system__active..start.system__active" id="ent0010" data-source-line="23"><ellipse cx="194.54" cy="473.484" rx="10" ry="10" fill="#222" style="stroke:#222;stroke-width:1;"/></g><!--link system__active__processing to *end*system__active--><g class="link" data-entity-1="ent0004" data-entity-2="ent0007" id="lnk8" data-source-line="21" data-link-type="dependency"><path d="M237.59,544.344 C261.18,548.374 288.59,557.614 303.54,578.484 C332.02,618.224 327.89,646.094 303.54,688.484 C295.57,702.374 282.516,708.513 270.976,712.173" style="stroke:#181818;stroke-width:1;" fill="none" id="system__active__processing-to-*end*system__active"/><polygon points="266.21,713.684,275.998,714.776,270.976,712.173,273.58,707.151,266.21,713.684" fill="#181818" style="stroke:#181818;stroke-width:1;stroke-linejoin:miter;stroke-miterlimit:10;"/><text x="323.54" y="638.051" fill="#000" font-size="13" textLength="68.701">/FatalError</text></g><!--link system__active__waiting to *end*system__active--><g class="link" data-entity-1="ent0005" data-entity-2="ent0007" id="lnk9" data-source-line="22" data-link-type="dependency"><path d="M208.25,653.864 C215.65,664.214 224.98,677.124 233.54,688.484 C238.6,695.194 241.386,698.772 245.796,704.312" style="stroke:#181818;stroke-width:1;" fill="none" id="system__active__waiting-to-*end*system__active"/><polygon points="248.91,708.224,246.434,698.692,245.796,704.312,240.175,703.674,248.91,708.224" fill="#181818" style="stroke:#181818;stroke-width:1;stroke-linejoin:miter;stroke-miterlimit:10;"/><text x="234.54" y="684.551" fill="#000" font-size="13" textLength="68.701">/FatalError</text></g><!--link *start*system__active to system__active__processing--><g class="link" data-entity-1="ent0010" data-entity-2="ent0004" id="lnk11" data-source-line="23" data-link-type="dependency"><path d="M194.54,483.794 C194.54,493.204 194.54,503.024 194.54,515.004" style="stroke:#181818;stroke-width:1;" fill="none" id="*start*system__active-to-system__active__processing"/><polygon points="194.54,520.004,198.54,511.004,194.54,515.004,190.54,511.004,194.54,520.004" fill="#181818" style="stroke:#181818;stroke-width:1;stroke-linejoin:miter;stroke-miterlimit:10;"/></g><!--link system__active__processing to system__active__waiting--><g class="link" data-entity-1="ent0004" data-entity-2="ent0005" id="lnk12" data-source-line="24" data-link-type="dependency"><path d="M151.73,547.414 C116.27,553.304 69.91,563.614 58.54,578.484 C30,615.824 108.753,627.03 157.393,630.58" style="stroke:#181818;stroke-width:1;" fill="none" id="system__active__processing-to-system__active__waiting"/><polygon points="162.38,630.944,153.695,626.3,157.393,630.58,153.113,634.279,162.38,630.944" fill="#181818" style="stroke:#181818;stroke-width:1;stroke-linejoin:miter;stroke-miterlimit:10;"/><text x="59.54" y="591.551" fill="#000" font-size="13" textLength="112.88">Processing.Pause</text></g><!--link system__active__waiting to system__active__processing--><g class="link" data-entity-1="ent0005" data-entity-2="ent0004" id="lnk13" data-source-line="25" data-link-type="dependency"><path d="M194.54,613.214 C194.54,597.774 194.54,581.224 194.54,565.784" style="stroke:#181818;stroke-width:1;" fill="none" id="system__active__waiting-to-system__active__processing"/><polygon points="194.54,560.784,190.54,569.784,194.54,565.784,198.54,569.784,194.54,560.784" fill="#181818" style="stroke:#181818;stroke-width:1;stroke-linejoin:miter;stroke-miterlimit:10;"/><text x="195.54" y="591.551" fill="#000" font-size="13" textLength="106.469">Waiting.Resume</text></g></g><rect x="364.12" y="794.488" width="50" height="40" fill="#F1F1F1" style="stroke:#181818;stroke-width:0.5;" rx="12.5" ry="12.5"/><text x="371.781" y="819.334" fill="#000" font-size="14" textLength="34.679">Error</text><g class="start_entity" data-qualified-name="system..start.system" id="ent0017" data-source-line="31"><ellipse cx="380.12" cy="221.188" rx="10" ry="10" fill="#222" style="stroke:#222;stroke-width:1;"/></g><!--link system__idle to system__error--><g class="link" data-entity-1="ent0002" data-entity-2="ent0006" id="lnk14" data-source-line="28" data-link-type="dependency"><path d="M405.52,298.237 C418.02,304.127 431.92,313.178 439.12,326.187 C463.34,369.968 461.64,731.807 439.12,776.488 C433.82,786.998 428.199,792.6 418.639,798.63" style="stroke:#181818;stroke-width:1;" fill="none" id="system__idle-to-system__error"/><polygon points="414.41,801.297,424.156,799.879,418.639,798.63,419.888,793.113,414.41,801.297" fill="#181818" style="stroke:#181818;stroke-width:1;stroke-linejoin:miter;stroke-miterlimit:10;"/><text x="457.12" y="588.404" fill="#000" font-size="13" textLength="64.321">FatalError</text></g><!--link system__active to system__error--><g class="link" data-entity-1="ent0003" data-entity-2="ent0006" id="lnk15" data-source-line="29" data-link-type="dependency"><path d="M224.71,741.598 C229.94,754.338 236.91,766.228 246.12,776.488 C261.66,793.808 322.098,804.475 358.838,809.615" style="stroke:#181818;stroke-width:1;" fill="none" id="system__active-to-system__error"/><polygon points="363.79,810.308,355.431,805.099,358.838,809.615,354.323,813.022,363.79,810.308" fill="#181818" style="stroke:#181818;stroke-width:1;stroke-linejoin:miter;stroke-miterlimit:10;"/><text x="247.12" y="772.554" fill="#000" font-size="13" textLength="64.321">FatalError</text></g><!--link system__error to system__error--><g class="link" data-entity-1="ent0006" data-entity-2="ent0006" id="lnk16" data-source-line="30" data-link-type="dependency"><path d="M414.3,805.808 C424.03,805.417 432.12,808.308 432.12,814.488 C432.12,820.667 429.026,823.758 419.296,823.368" style="stroke:#181818;stroke-width:1;" fill="none" id="system__error-to-system__error"/><polygon points="414.3,823.167,423.133,827.525,419.296,823.368,423.453,819.531,414.3,823.167" fill="#181818" style="stroke:#181818;stroke-width:1;stroke-linejoin:miter;stroke-miterlimit:10;"/><text x="438.12" y="819.054" fill="#000" font-size="13" textLength="64.321">FatalError</text></g><!--link *start*system to system__idle--><g class="link" data-entity-1="ent0017" data-entity-2="ent0002" id="lnk18" data-source-line="31" data-link-type="dependency"><path d="M380.12,231.507 C380.12,240.907 380.12,250.727 380.12,262.718" style="stroke:#181818;stroke-width:1;" fill="none" id="*start*system-to-system__idle"/><polygon points="380.12,267.718,384.12,258.718,380.12,262.718,376.12,258.718,380.12,267.718" fill="#181818" style="stroke:#181818;stroke-width:1;stroke-linejoin:miter;stroke-miterlimit:10;"/></g><!--link system__idle to system__active--><g class="link" data-entity-1="ent0002" data-entity-2="ent0003" id="lnk19" data-source-line="32" data-link-type="dependency"><path d="M354.84,291.497 C314.98,295.718 240.37,306.127 224.12,326.187 C201.47,354.157 192.739,385.023 191.089,421.013" style="stroke:#181818;stroke-width:1;" fill="none" id="system__idle-to-system__active"/><polygon points="190.86,426.007,195.268,417.2,191.089,421.013,187.276,416.834,190.86,426.007" fill="#181818" style="stroke:#181818;stroke-width:1;stroke-linejoin:miter;stroke-miterlimit:10;"/><text x="225.12" y="371.754" fill="#000" font-size="13" textLength="59.585">Idle.Start</text></g><!--link system__active to system__idle--><g class="link" data-entity-1="ent0003" data-entity-2="ent0002" id="lnk20" data-source-line="33" data-link-type="dependency"><path d="M278.91,425.937 C281.04,419.958 283.11,414.028 285.12,408.187 C297.51,372.157 285.86,355.567 310.12,326.187 C321.67,312.198 335.26,304.609 350.23,298.789" style="stroke:#181818;stroke-width:1;" fill="none" id="system__active-to-system__idle"/><polygon points="354.89,296.977,345.052,296.511,350.23,298.789,347.951,303.967,354.89,296.977" fill="#181818" style="stroke:#181818;stroke-width:1;stroke-linejoin:miter;stroke-miterlimit:10;"/><text x="337.735" y="339.254" fill="#000" font-size="13" textLength="74.128">Active.Stop</text><path d="M315.12,348.32 L315.12,403.32 L434.12,403.32 L434.12,358.32 L424.12,348.32 L315.12,348.32" style="stroke:#181818;stroke-width:0.5;" fill="#FEFFDD"/><path d="M424.12,348.32 L424.12,358.32 L434.12,358.32 L424.12,348.32" style="stroke:#181818;stroke-width:0.5;" fill="#FEFFDD"/><text x="321.12" y="365.387" fill="#000" font-size="13" textLength="49.797">effect {</text><text x="337.649" y="380.52" fill="#000" font-size="13" textLength="81.828">counter = 0;</text><text x="321.12" y="395.653" fill="#000" font-size="13">}</text></g><!--link system__active to system__error--><g class="link" data-entity-1="ent0003" data-entity-2="ent0006" id="lnk21" data-source-line="39" data-link-type="dependency"><path d="M315.36,741.578 C324.64,753.738 334.27,765.527 344.12,776.488 C349.93,782.958 353.054,786.087 359.774,791.597" style="stroke:#181818;stroke-width:1;" fill="none" id="system__active-to-system__error-1"/><polygon points="363.64,794.767,359.217,785.968,359.774,791.597,354.144,792.154,363.64,794.767" fill="#181818" style="stroke:#181818;stroke-width:1;stroke-linejoin:miter;stroke-miterlimit:10;"/><text x="345.12" y="772.554" fill="#000" font-size="13" textLength="93.99">counter > 100</text></g><!--link system__error to system__idle--><g class="link" data-entity-1="ent0006" data-entity-2="ent0002" id="lnk22" data-source-line="40" data-link-type="dependency"><path d="M414.56,808.448 C447.03,800.498 501.88,781.618 526.12,741.488 C598.58,621.547 566.88,560.267 526.12,426.187 C510.56,375.007 499.72,361.028 459.12,326.187 C443.49,312.777 426.866,304.884 410.316,298.834" style="stroke:#181818;stroke-width:1;" fill="none" id="system__error-to-system__idle"/><polygon points="405.62,297.117,412.7,303.964,410.316,298.834,415.446,296.451,405.62,297.117" fill="#181818" style="stroke:#181818;stroke-width:1;stroke-linejoin:miter;stroke-miterlimit:10;"/><text x="570.12" y="588.404" fill="#000" font-size="13" textLength="102.591">error_count &lt; 3</text></g></g><g class="start_entity" data-qualified-name=".start." id="ent0023" data-source-line="42"><ellipse cx="352.36" cy="103.891" rx="10" ry="10" fill="#222" style="stroke:#222;stroke-width:1;"/></g><g class="end_entity" data-qualified-name=".end." id="ent0025" data-source-line="43"><ellipse cx="352.36" cy="918.491" rx="11" ry="11" fill="none" style="stroke:#222;stroke-width:1;"/><ellipse cx="352.36" cy="918.491" rx="6" ry="6" fill="#222" style="stroke:#222;stroke-width:1;"/></g><!--link *start* to system--><g class="link" data-entity-1="ent0023" data-entity-2="ent0001" id="lnk24" data-source-line="42" data-link-type="dependency"><path d="M352.36,114.111 C352.36,125.461 352.36,141.591 352.36,168.411" style="stroke:#181818;stroke-width:1;" fill="none" id="*start*-to-system"/><polygon points="352.36,173.411,356.36,164.411,352.36,168.411,348.36,164.411,352.36,173.411" fill="#181818" style="stroke:#181818;stroke-width:1;stroke-linejoin:miter;stroke-miterlimit:10;"/></g><!--link system to *end*--><g class="link" data-entity-1="ent0001" data-entity-2="ent0025" id="lnk26" data-source-line="43" data-link-type="dependency"><path d="M352.36,847.731 C352.36,874.351 352.36,890.491 352.36,902.251" style="stroke:#181818;stroke-width:1;" fill="none" id="system-to-*end*"/><polygon points="352.36,907.251,356.36,898.251,352.36,902.251,348.36,898.251,352.36,907.251" fill="#181818" style="stroke:#181818;stroke-width:1;stroke-linejoin:miter;stroke-miterlimit:10;"/></g><?plantuml-src bLJ1Rjim3BthAuWS1oHBiPkR1bYATYYmGz0Kss4O3CrcKY6o94Xq2wFflq-MdKGsuYQzs0OVtoFrHFDPv0XO6AeWHvTPOKXenPZR2cMuvGKuueJmnW0MFDjkh2vLVgkbjhEPSLZcUZw7dsBpJ3yihqvbPRemsWd2VU92bbWdQfkZxKkrAlTQqOegYH4aY4kHiNV696vGvK3QWCGriTqD_E9My7yImNy_LIQy7vGWmQN7V4NOiHralYz22piGYlnp6g9ehRPfm3g8hz5Kydu45qQhoX4M8-0ENFY4xlbgcw2rRFJWsL5gcWeVY1E-PoHUkYayX4wgHiIbrHaw9zJc13bDpG7k4tzpxyW0wxN1ZfH1LHYFv_3dorz8uEizzxToLniuI6o5px1gfCwuv30VTpPKFu6ZRvCbBnrUrF87rH9e3PqyeYkBHkyzlk9mnexTU3XrF1QTIY75Y_TSwit89nWDV06XVmd7YHtgjMqcWNhQ9olYbiur6pGIQARVKxG93AMzOLg156eR0hXUOqRHzE__tXkONaTMrwkW9bzgqbvc3bVJwHcVsbxZ3J63Rtu7TPrYxJPeH_m_?></g></svg>