<?plantuml 1.2026.3beta3?><svg xmlns="http://www.w3.org/2000/svg" xmlns:xlink="http://www.w3.org/1999/xlink" contentStyleType="text/css" data-diagram-type="STATE" height="1123px" preserveAspectRatio="none" style="width:722px;height:1123px;background:#FFFFFF;" version="1.1" viewBox="0 0 722 1123" width="722px" zoomAndPan="magnify"><defs/><g><g class="legend" data-source-line="10"><rect fill="#DDDDDD" height="62.8906" rx="7.5" ry="7.5" style="stroke:#000000;stroke-width:1;" width="252.6621" x="12" y="12"/><text fill="#000000" font-family="sans-serif" font-size="14" font-weight="bold" lengthAdjust="spacing" textLength="65.748" x="21.874" y="31.9951">Variable</text><text fill="#000000" font-family="sans-serif" font-size="14" font-weight="bold" lengthAdjust="spacing" textLength="38.1924" x="111.7188" y="31.9951">Type</text><text fill="#000000" font-family="sans-serif" font-size="14" font-weight="bold" lengthAdjust="spacing" textLength="95.1289" x="159.6592" y="31.9951">Initial Value</text><text fill="#000000" font-family="sans-serif" font-size="14" lengthAdjust="spacing" textLength="53.8672" x="21.4502" y="48.292">counter</text><text fill="#000000" font-family="sans-serif" font-size="14" lengthAdjust="spacing" textLength="18.252" x="111.2949" y="48.292">int</text><text fill="#000000" font-family="sans-serif" font-size="14" lengthAdjust="spacing" textLength="8.9072" x="159.2354" y="48.292">0</text><text fill="#000000" font-family="sans-serif" font-size="14" lengthAdjust="spacing" textLength="80.9443" x="21.4502" y="64.5889">error_count</text><text fill="#000000" font-family="sans-serif" font-size="14" lengthAdjust="spacing" textLength="18.252" x="111.2949" y="64.5889">int</text><text fill="#000000" font-family="sans-serif" font-size="14" lengthAdjust="spacing" textLength="8.9072" x="159.2354" y="64.5889">0</text><line style="stroke:#000000;stroke-width:1;" x1="17" x2="259.6621" y1="19" y2="19"/><line style="stroke:#000000;stroke-width:1;" x1="17" x2="259.6621" y1="35.2969" y2="35.2969"/><line style="stroke:#000000;stroke-width:1;" x1="17" x2="259.6621" y1="51.5938" y2="51.5938"/><line style="stroke:#000000;stroke-width:1;" x1="17" x2="259.6621" y1="67.8906" y2="67.8906"/><line style="stroke:#000000;stroke-width:1;" x1="17" x2="17" y1="19" y2="67.8906"/><line style="stroke:#000000;stroke-width:1;" x1="106.8447" x2="106.8447" y1="19" y2="67.8906"/><line style="stroke:#000000;stroke-width:1;" x1="154.7852" x2="154.7852" y1="19" y2="67.8906"/><line style="stroke:#000000;stroke-width:1;" x1="259.6621" x2="259.6621" y1="19" y2="67.8906"/></g><path d="M19.5,173.8906 L694.6708,173.8906 A12.5,12.5 0 0 1 707.1708,186.3906 L707.1708,219.1563 L7,219.1563 L7,186.3906 A12.5,12.5 0 0 1 19.5,173.8906" fill="#ADD8E6"/><rect fill="none" height="854.0787" rx="12.5" ry="12.5" style="stroke:#181818;stroke-width:0.5;" width="700.1708" x="7" y="173.8906"/><line style="stroke:#181818;stroke-width:0.5;" x1="7" x2="707.1708" y1="219.1563" y2="219.1563"/><line style="stroke:#181818;stroke-width:0.5;" x1="7" x2="707.1708" y1="200.1875" y2="200.1875"/><text fill="#000000" font-family="sans-serif" font-size="14" lengthAdjust="spacing" textLength="52.2061" x="330.9824" y="191.8857">System</text><text fill="#000000" font-family="sans-serif" font-size="12" lengthAdjust="spacing" textLength="250.418" x="12" y="211.3262">&gt;&gt; during before abstract GlobalMonitor;</text><g class="entity" data-qualified-name="system.system__idle" id="ent0003"><rect fill="#F1F1F1" height="78.2031" rx="12.5" ry="12.5" style="stroke:#181818;stroke-width:0.5;" width="110.791" x="320.18" y="287.1563"/><line style="stroke:#181818;stroke-width:0.5;" x1="320.18" x2="430.971" y1="313.4531" y2="313.4531"/><text fill="#000000" font-family="sans-serif" font-size="14" lengthAdjust="spacing" textLength="25.5186" x="362.8162" y="305.1514">Idle</text><text fill="#000000" font-family="sans-serif" font-size="12" lengthAdjust="spacing" textLength="43.459" x="325.18" y="329.5918">enter {</text><text fill="#000000" font-family="sans-serif" font-size="12" lengthAdjust="spacing" textLength="75.5332" x="340.4378" y="343.5605">counter = 0;</text><text fill="#000000" font-family="sans-serif" font-size="12" lengthAdjust="spacing" textLength="7.6348" x="325.18" y="357.5293">}</text></g><path d="M31.5,483.3562 L399.6507,483.3562 A12.5,12.5 0 0 1 412.1507,495.8562 L412.1507,556.5594 L19,556.5594 L19,495.8562 A12.5,12.5 0 0 1 31.5,483.3562" fill="#ADD8E6"/><rect fill="none" height="400.4031" rx="12.5" ry="12.5" style="stroke:#181818;stroke-width:0.5;" width="393.1507" x="19" y="483.3562"/><line style="stroke:#181818;stroke-width:0.5;" x1="19" x2="412.1507" y1="556.5594" y2="556.5594"/><line style="stroke:#181818;stroke-width:0.5;" x1="19" x2="412.1507" y1="509.6531" y2="509.6531"/><text fill="#000000" font-family="sans-serif" font-size="14" lengthAdjust="spacing" textLength="43.5518" x="193.7995" y="501.3514">Active</text><text fill="#000000" font-family="sans-serif" font-size="12" lengthAdjust="spacing" textLength="92.8594" x="24" y="520.7918">during before {</text><text fill="#000000" font-family="sans-serif" font-size="12" lengthAdjust="spacing" textLength="139.3887" x="39.2578" y="534.7605">counter = counter + 1;</text><text fill="#000000" font-family="sans-serif" font-size="12" lengthAdjust="spacing" textLength="7.6348" x="24" y="548.7293">}</text><g class="entity" data-qualified-name="system.system__active.system__active__processing" id="ent0005"><rect fill="#F1F1F1" height="78.2031" rx="12.5" ry="12.5" style="stroke:#181818;stroke-width:0.5;" width="182.2813" x="94.31" y="624.5594"/><line style="stroke:#181818;stroke-width:0.5;" x1="94.31" x2="276.5913" y1="650.8562" y2="650.8562"/><text fill="#000000" font-family="sans-serif" font-size="14" lengthAdjust="spacing" textLength="75.3115" x="147.7949" y="642.5545">Processing</text><text fill="#000000" font-family="sans-serif" font-size="12" lengthAdjust="spacing" textLength="50.1621" x="99.31" y="666.9949">during {</text><text fill="#000000" font-family="sans-serif" font-size="12" lengthAdjust="spacing" textLength="147.0234" x="114.5678" y="680.9637">counter = counter + 10;</text><text fill="#000000" font-family="sans-serif" font-size="12" lengthAdjust="spacing" textLength="7.6348" x="99.31" y="694.9324">}</text></g><rect fill="#F1F1F1" height="40" rx="12.5" ry="12.5" style="stroke:#181818;stroke-width:0.5;" width="63.4502" x="153.72" y="755.7594"/><text fill="#000000" font-family="sans-serif" font-size="14" lengthAdjust="spacing" textLength="53.4502" x="158.72" y="780.6061">Waiting</text><g class="end_entity" data-qualified-name="system.system__active..end.system__active" data-source-line="23" id="ent0002"><ellipse cx="246.45" cy="859.7594" fill="none" rx="11" ry="11" style="stroke:#222222;stroke-width:1;"/><ellipse cx="246.45" cy="859.7594" fill="#222222" rx="6" ry="6" style="stroke:#222222;stroke-width:1;"/></g><g class="start_entity" data-qualified-name="system.system__active..start.system__active" data-source-line="25" id="ent0005"><ellipse cx="185.45" cy="577.5594" fill="#222222" rx="10" ry="10" style="stroke:#222222;stroke-width:1;"/></g><!--link system__active__processing to *end*system__active--><g class="link" data-entity-1="ent0005" data-entity-2="ent0002" data-link-type="dependency" data-source-line="23" id="lnk3"><path d="M276.85,700.7294 C283.73,706.4894 289.79,713.1294 294.45,720.7594 C319.91,762.4994 318.8,788.3694 294.45,830.7594 C286.47,844.6494 274.3792,850.4855 262.8392,854.1455" fill="none" id="system__active__processing-to-*end*system__active" style="stroke:#181818;stroke-width:1;"/><polygon fill="#181818" points="257.12,855.9594,266.9081,857.0514,261.886,854.4478,264.4896,849.4257,257.12,855.9594" style="stroke:#181818;stroke-width:1;"/><text fill="#000000" font-family="sans-serif" font-size="13" lengthAdjust="spacing" textLength="68.7007" x="313.45" y="780.3263">/FatalError</text></g><!--link system__active__waiting to *end*system__active--><g class="link" data-entity-1="ent0006" data-entity-2="ent0002" data-link-type="dependency" data-source-line="24" id="lnk4"><path d="M199.16,796.1394 C206.55,806.4894 215.89,819.3994 224.45,830.7594 C229.51,837.4694 231.6632,840.2651 236.0732,845.8051" fill="none" id="system__active__waiting-to-*end*system__active" style="stroke:#181818;stroke-width:1;"/><polygon fill="#181818" points="239.81,850.4994,237.3343,840.9667,236.696,846.5875,231.0753,845.9491,239.81,850.4994" style="stroke:#181818;stroke-width:1;"/><text fill="#000000" font-family="sans-serif" font-size="13" lengthAdjust="spacing" textLength="68.7007" x="225.45" y="826.8263">/FatalError</text></g><!--link *start*system__active to system__active__processing--><g class="link" data-entity-1="ent0005" data-entity-2="ent0005" data-link-type="dependency" data-source-line="25" id="lnk6"><path d="M185.45,587.8794 C185.45,596.7694 185.45,604.7794 185.45,618.2794" fill="none" id="*start*system__active-to-system__active__processing" style="stroke:#181818;stroke-width:1;"/><polygon fill="#181818" points="185.45,624.2794,189.45,615.2794,185.45,619.2794,181.45,615.2794,185.45,624.2794" style="stroke:#181818;stroke-width:1;"/></g><!--link system__active__processing to system__active__waiting--><g class="link" data-entity-1="ent0005" data-entity-2="ent0006" data-link-type="dependency" data-source-line="26" id="lnk7"><path d="M94.09,683.1394 C58.34,694.6894 30,712.3094 49.45,737.7594 C62,754.1894 111.3182,764.1473 147.4182,769.6373" fill="none" id="system__active__processing-to-system__active__waiting" style="stroke:#181818;stroke-width:1;"/><polygon fill="#181818" points="153.35,770.5394,145.0537,765.2317,148.4068,769.7876,143.8509,773.1408,153.35,770.5394" style="stroke:#181818;stroke-width:1;"/><text fill="#000000" font-family="sans-serif" font-size="13" lengthAdjust="spacing" textLength="112.8804" x="50.45" y="733.8263">Processing.Pause</text></g><!--link system__active__waiting to system__active__processing--><g class="link" data-entity-1="ent0006" data-entity-2="ent0005" data-link-type="dependency" data-source-line="27" id="lnk8"><path d="M185.45,755.2894 C185.45,740.8794 185.45,726.7794 185.45,709.1694" fill="none" id="system__active__waiting-to-system__active__processing" style="stroke:#181818;stroke-width:1;"/><polygon fill="#181818" points="185.45,703.1694,181.45,712.1694,185.45,708.1694,189.45,712.1694,185.45,703.1694" style="stroke:#181818;stroke-width:1;"/><text fill="#000000" font-family="sans-serif" font-size="13" lengthAdjust="spacing" textLength="106.4692" x="186.45" y="733.8263">Waiting.Resume</text></g><g class="entity" data-qualified-name="system.system__error" id="ent0007"><rect fill="#F1F1F1" height="78.2031" rx="12.5" ry="12.5" style="stroke:#181818;stroke-width:0.5;" width="221.0645" x="275.04" y="936.7662"/><line style="stroke:#181818;stroke-width:0.5;" x1="275.04" x2="496.1045" y1="963.0631" y2="963.0631"/><text fill="#000000" font-family="sans-serif" font-size="14" lengthAdjust="spacing" textLength="34.6787" x="368.2329" y="954.7614">Error</text><text fill="#000000" font-family="sans-serif" font-size="12" lengthAdjust="spacing" textLength="43.459" x="280.04" y="979.2018">enter {</text><text fill="#000000" font-family="sans-serif" font-size="12" lengthAdjust="spacing" textLength="185.8066" x="295.2978" y="993.1705">error_count = error_count + 1;</text><text fill="#000000" font-family="sans-serif" font-size="12" lengthAdjust="spacing" textLength="7.6348" x="280.04" y="1007.1393">}</text></g><g class="start_entity" data-qualified-name="system..start.system" data-source-line="35" id="ent0012"><ellipse cx="375.58" cy="240.1563" fill="#222222" rx="10" ry="10" style="stroke:#222222;stroke-width:1;"/></g><!--link system__idle to system__error--><g class="link" data-entity-1="ent0003" data-entity-2="ent0007" data-link-type="dependency" data-source-line="32" id="lnk9"><path d="M423.83,365.8362 C428.15,371.2562 431.9,377.1262 434.58,383.3562 C458.03,438.0262 455.47,863.0663 434.58,918.7662 C432.26,924.9363 432.3417,925.9476 428.4817,931.5076" fill="none" id="system__idle-to-system__error" style="stroke:#181818;stroke-width:1;"/><polygon fill="#181818" points="425.06,936.4363,433.4784,931.3244,427.9114,932.329,426.9068,926.7621,425.06,936.4363" style="stroke:#181818;stroke-width:1;"/><text fill="#000000" font-family="sans-serif" font-size="13" lengthAdjust="spacing" textLength="64.3208" x="452.58" y="688.1331">FatalError</text></g><!--link system__active to system__error--><g class="link" data-entity-1="ent0004" data-entity-2="ent0007" data-link-type="dependency" data-source-line="33" id="lnk10"><path d="M222.71,884.0062 C227.88,896.4063 234.4,908.1362 242.58,918.7662 C251.19,929.9663 257.1861,935.9151 269.5061,943.0951" fill="none" id="system__active-to-system__error" style="stroke:#181818;stroke-width:1;"/><polygon fill="#181818" points="274.69,946.1162,268.9282,938.1286,270.3701,943.5986,264.9001,945.0405,274.69,946.1162" style="stroke:#181818;stroke-width:1;"/><text fill="#000000" font-family="sans-serif" font-size="13" lengthAdjust="spacing" textLength="64.3208" x="243.58" y="914.8331">FatalError</text></g><!--link system__error to system__error--><g class="link" data-entity-1="ent0007" data-entity-2="ent0007" data-link-type="dependency" data-source-line="34" id="lnk11"><path d="M496.18,965.8363 C507.14,967.8462 514.11,971.1863 514.11,975.8662 C514.11,980.5463 513.0416,982.8039 502.0816,984.8139" fill="none" id="system__error-to-system__error" style="stroke:#181818;stroke-width:1;"/><polygon fill="#181818" points="496.18,985.8962,505.7539,988.2072,501.098,984.9943,504.3108,980.3384,496.18,985.8962" style="stroke:#181818;stroke-width:1;"/><text fill="#000000" font-family="sans-serif" font-size="13" lengthAdjust="spacing" textLength="64.3208" x="520.11" y="980.4331">FatalError</text></g><!--link *start*system to system__idle--><g class="link" data-entity-1="ent0012" data-entity-2="ent0003" data-link-type="dependency" data-source-line="35" id="lnk13"><path d="M375.58,250.4762 C375.58,259.3762 375.58,267.3862 375.58,280.8862" fill="none" id="*start*system-to-system__idle" style="stroke:#181818;stroke-width:1;"/><polygon fill="#181818" points="375.58,286.8862,379.58,277.8862,375.58,281.8862,371.58,277.8862,375.58,286.8862" style="stroke:#181818;stroke-width:1;"/></g><!--link system__idle to system__active--><g class="link" data-entity-1="ent0003" data-entity-2="ent0004" data-link-type="dependency" data-source-line="36" id="lnk14"><path d="M319.86,331.8662 C285.21,337.9363 243.11,351.8063 220.58,383.3562 C199.82,412.4263 190.4321,441.4846 186.9521,477.1846" fill="none" id="system__idle-to-system__active" style="stroke:#181818;stroke-width:1;"/><polygon fill="#181818" points="186.37,483.1563,191.2243,474.5868,186.8551,478.1798,183.262,473.8106,186.37,483.1563" style="stroke:#181818;stroke-width:1;"/><text fill="#000000" font-family="sans-serif" font-size="13" lengthAdjust="spacing" textLength="59.5854" x="221.58" y="428.9231">Idle.Start</text></g><!--link system__active to system__idle--><g class="link" data-entity-1="ent0004" data-entity-2="ent0003" data-link-type="dependency" data-source-line="37" id="lnk15"><path d="M276.34,482.8662 C278.11,476.9662 279.86,471.1162 281.58,465.3562 C292.43,428.9662 284.45,414.9163 305.58,383.3562 C309.82,377.0162 310.7293,375.2505 316.3293,369.7505" fill="none" id="system__active-to-system__idle" style="stroke:#181818;stroke-width:1;"/><polygon fill="#181818" points="320.61,365.5463,311.3861,368.9988,317.0428,369.0498,316.9918,374.7064,320.61,365.5463" style="stroke:#181818;stroke-width:1;"/><text fill="#000000" font-family="sans-serif" font-size="13" lengthAdjust="spacing" textLength="74.1279" x="333.1945" y="396.4231">Active.Stop</text><path d="M310.58,405.4891 L310.58,460.4891 L429.58,460.4891 L429.58,415.4891 L419.58,405.4891 L310.58,405.4891" fill="#FEFFDD" style="stroke:#181818;stroke-width:0.5;"/><path d="M419.58,405.4891 L419.58,415.4891 L429.58,415.4891 L419.58,405.4891" fill="#FEFFDD" style="stroke:#181818;stroke-width:0.5;"/><text fill="#000000" font-family="sans-serif" font-size="13" lengthAdjust="spacing" textLength="49.7974" x="316.58" y="422.556">effect {</text><text fill="#000000" font-family="sans-serif" font-size="13" lengthAdjust="spacing" textLength="81.8276" x="333.1093" y="437.6888">counter = 0;</text><text fill="#000000" font-family="sans-serif" font-size="13" lengthAdjust="spacing" textLength="8.271" x="316.58" y="452.8216">}</text></g><!--link system__active to system__error--><g class="link" data-entity-1="ent0004" data-entity-2="ent0007" data-link-type="dependency" data-source-line="43" id="lnk16"><path d="M317.73,884.2262 C324.88,896.0563 332.19,907.6563 339.58,918.7662 C343.48,924.6362 344.1952,925.891 348.6852,931.661" fill="none" id="system__active-to-system__error-1" style="stroke:#181818;stroke-width:1;"/><polygon fill="#181818" points="352.37,936.3963,349.9996,926.8369,349.2994,932.4502,343.686,931.7499,352.37,936.3963" style="stroke:#181818;stroke-width:1;"/><text fill="#000000" font-family="sans-serif" font-size="13" lengthAdjust="spacing" textLength="93.9897" x="340.58" y="914.8331">counter &gt; 100</text></g><!--link system__error to system__idle--><g class="link" data-entity-1="ent0007" data-entity-2="ent0003" data-link-type="dependency" data-source-line="44" id="lnk17"><path d="M470.26,936.4563 C490.72,922.8862 510,905.4463 521.58,883.7662 C605.37,726.7662 573.34,653.6263 521.58,483.3562 C506.01,432.1763 491.89,421.6962 454.58,383.3562 C447.54,376.1262 444.2091,372.8731 435.9591,366.5031" fill="none" id="system__error-to-system__idle" style="stroke:#181818;stroke-width:1;"/><polygon fill="#181818" points="431.21,362.8362,435.8891,371.5026,435.1676,365.892,440.7782,365.1705,431.21,362.8362" style="stroke:#181818;stroke-width:1;"/><text fill="#000000" font-family="sans-serif" font-size="13" lengthAdjust="spacing" textLength="102.5908" x="574.58" y="688.1331">error_count &lt; 3</text></g><g class="start_entity" data-qualified-name=".start." data-source-line="47" id="ent0018"><ellipse cx="357.09" cy="103.8906" fill="#222222" rx="10" ry="10" style="stroke:#222222;stroke-width:1;"/></g><g class="end_entity" data-qualified-name=".end." data-source-line="48" id="ent0020"><ellipse cx="357.09" cy="1098.9706" fill="none" rx="11" ry="11" style="stroke:#222222;stroke-width:1;"/><ellipse cx="357.09" cy="1098.9706" fill="#222222" rx="6" ry="6" style="stroke:#222222;stroke-width:1;"/></g><!--link *start* to system--><g class="link" data-entity-1="ent0018" data-entity-2="ent0002" data-link-type="dependency" data-source-line="47" id="lnk19"><path d="M357.09,114.3406 C357.09,125.7006 357.09,140.6706 357.09,167.7506" fill="none" id="*start*-to-system" style="stroke:#181818;stroke-width:1;"/><polygon fill="#181818" points="357.09,173.7506,361.09,164.7506,357.09,168.7506,353.09,164.7506,357.09,173.7506" style="stroke:#181818;stroke-width:1;"/></g><!--link system to *end*--><g class="link" data-entity-1="ent0002" data-entity-2="ent0020" data-link-type="dependency" data-source-line="48" id="lnk21"><path d="M357.09,1028.2106 C357.09,1055.2306 357.09,1070.2606 357.09,1081.8806" fill="none" id="system-to-*end*" style="stroke:#181818;stroke-width:1;"/><polygon fill="#181818" points="357.09,1087.8806,361.09,1078.8806,357.09,1082.8806,353.09,1078.8806,357.09,1087.8806" style="stroke:#181818;stroke-width:1;"/></g><?plantuml-src fLJVRzem47xtNt7YiLCPqzue8AtLMbNQf6fCsqCxHIOvg8LZHxQp2HN-zvsTf3WX5AQzW7C_lllydU-UHOQ0UU4saA5DZIYSq8enknQgu8RdO1rt22yCu9gdwvNHfSfkjDHcCYaibfcUpU2BM3sxEyCtVL6fpWjjXSCcy5gMw0EroT1qeMgKMwtSt6qaHYxXk1Gfsp4cSOKg0wSBaBXqR3k57zm8lf08TFw-ASB_lH9ES4a-gWXRjeMKU3aqi0MX7FsEWXMDqIO9lfQ7QbILI8-Wmc2-iGxp0N0BDXoXVJyl4zII3UufEmfD4a66AY0om1WmS7fvKjxNK9p2wEf9xMB0JwaJlzkGF9XwMKI93qQdQArGgvxa92bUtVl4eo74DokDFnmGRaxluCEUUqJZ9wT-7E7mf_ATG-3oSWQF5x-8oFjRJc_Yis_VqSGQ-4IMz_Y8_vEc3w6fFuPz5uOFlBHu5kKt6r4BElo6jimhl1qxHDotR85BRV3DpdKVNT2frJ9yLQvbwJxaUAgchQzMbNWKuWitc9rcTMxs3ncL-uo4xble7zl3vX2I7_dXt77ZJf6jHxyQQKhHHSXGcZJN2gHGws30vH9J5urql1-YZljzw9FF5Qc1cT6iZaxerAofg8KJ-4YBkDw1Ow2bqtvXV66TeV9m9_M2ow-QLh4sLwojRGDGp-PV?></g></svg>