<?plantuml 1.2026.3beta3?><svg xmlns="http://www.w3.org/2000/svg" xmlns:xlink="http://www.w3.org/1999/xlink" contentStyleType="text/css" data-diagram-type="STATE" height="1123px" preserveAspectRatio="none" style="width:722px;height:1123px;background:#FFFFFF;" version="1.1" viewBox="0 0 722 1123" width="722px" zoomAndPan="magnify"><defs/><g><path d="M19.5,86 L694.6708,86 A12.5,12.5 0 0 1 707.1708,98.5 L707.1708,131.2656 L7,131.2656 L7,98.5 A12.5,12.5 0 0 1 19.5,86" fill="#ADD8E6"/><rect fill="none" height="854.0787" rx="12.5" ry="12.5" style="stroke:#181818;stroke-width:0.5;" width="700.1708" x="7" y="86"/><line style="stroke:#181818;stroke-width:0.5;" x1="7" x2="707.1708" y1="131.2656" y2="131.2656"/><line style="stroke:#181818;stroke-width:0.5;" x1="7" x2="707.1708" y1="112.2969" y2="112.2969"/><text fill="#000000" font-family="sans-serif" font-size="14" lengthAdjust="spacing" textLength="52.2061" x="330.9824" y="103.9951">System</text><text fill="#000000" font-family="sans-serif" font-size="12" lengthAdjust="spacing" textLength="250.418" x="12" y="123.4355">&gt;&gt; during before abstract GlobalMonitor;</text><g class="entity" data-qualified-name="system.system__idle" id="ent0003"><rect fill="#F1F1F1" height="78.2031" rx="12.5" ry="12.5" style="stroke:#181818;stroke-width:0.5;" width="110.791" x="320.18" y="199.2656"/><line style="stroke:#181818;stroke-width:0.5;" x1="320.18" x2="430.971" y1="225.5625" y2="225.5625"/><text fill="#000000" font-family="sans-serif" font-size="14" lengthAdjust="spacing" textLength="25.5186" x="362.8162" y="217.2607">Idle</text><text fill="#000000" font-family="sans-serif" font-size="12" lengthAdjust="spacing" textLength="43.459" x="325.18" y="241.7012">enter {</text><text fill="#000000" font-family="sans-serif" font-size="12" lengthAdjust="spacing" textLength="75.5332" x="340.4378" y="255.6699">counter = 0;</text><text fill="#000000" font-family="sans-serif" font-size="12" lengthAdjust="spacing" textLength="7.6348" x="325.18" y="269.6387">}</text></g><path d="M31.5,395.4656 L399.6507,395.4656 A12.5,12.5 0 0 1 412.1507,407.9656 L412.1507,468.6687 L19,468.6687 L19,407.9656 A12.5,12.5 0 0 1 31.5,395.4656" fill="#ADD8E6"/><rect fill="none" height="400.4031" rx="12.5" ry="12.5" style="stroke:#181818;stroke-width:0.5;" width="393.1507" x="19" y="395.4656"/><line style="stroke:#181818;stroke-width:0.5;" x1="19" x2="412.1507" y1="468.6687" y2="468.6687"/><line style="stroke:#181818;stroke-width:0.5;" x1="19" x2="412.1507" y1="421.7625" y2="421.7625"/><text fill="#000000" font-family="sans-serif" font-size="14" lengthAdjust="spacing" textLength="43.5518" x="193.7995" y="413.4607">Active</text><text fill="#000000" font-family="sans-serif" font-size="12" lengthAdjust="spacing" textLength="92.8594" x="24" y="432.9012">during before {</text><text fill="#000000" font-family="sans-serif" font-size="12" lengthAdjust="spacing" textLength="139.3887" x="39.2578" y="446.8699">counter = counter + 1;</text><text fill="#000000" font-family="sans-serif" font-size="12" lengthAdjust="spacing" textLength="7.6348" x="24" y="460.8387">}</text><g class="entity" data-qualified-name="system.system__active.system__active__processing" id="ent0005"><rect fill="#F1F1F1" height="78.2031" rx="12.5" ry="12.5" style="stroke:#181818;stroke-width:0.5;" width="182.2813" x="94.31" y="536.6687"/><line style="stroke:#181818;stroke-width:0.5;" x1="94.31" x2="276.5913" y1="562.9656" y2="562.9656"/><text fill="#000000" font-family="sans-serif" font-size="14" lengthAdjust="spacing" textLength="75.3115" x="147.7949" y="554.6639">Processing</text><text fill="#000000" font-family="sans-serif" font-size="12" lengthAdjust="spacing" textLength="50.1621" x="99.31" y="579.1043">during {</text><text fill="#000000" font-family="sans-serif" font-size="12" lengthAdjust="spacing" textLength="147.0234" x="114.5678" y="593.073">counter = counter + 10;</text><text fill="#000000" font-family="sans-serif" font-size="12" lengthAdjust="spacing" textLength="7.6348" x="99.31" y="607.0418">}</text></g><rect fill="#F1F1F1" height="40" rx="12.5" ry="12.5" style="stroke:#181818;stroke-width:0.5;" width="63.4502" x="153.72" y="667.8687"/><text fill="#000000" font-family="sans-serif" font-size="14" lengthAdjust="spacing" textLength="53.4502" x="158.72" y="692.7154">Waiting</text><g class="end_entity" data-qualified-name="system.system__active..end.system__active" data-source-line="23" id="ent0002"><ellipse cx="246.45" cy="771.8687" fill="none" rx="11" ry="11" style="stroke:#222222;stroke-width:1;"/><ellipse cx="246.45" cy="771.8687" fill="#222222" rx="6" ry="6" style="stroke:#222222;stroke-width:1;"/></g><g class="start_entity" data-qualified-name="system.system__active..start.system__active" data-source-line="25" id="ent0005"><ellipse cx="185.45" cy="489.6687" fill="#222222" rx="10" ry="10" style="stroke:#222222;stroke-width:1;"/></g><!--link system__active__processing to *end*system__active--><g class="link" data-entity-1="ent0005" data-entity-2="ent0002" data-link-type="dependency" data-source-line="23" id="lnk3"><path d="M276.85,612.8387 C283.73,618.5987 289.79,625.2388 294.45,632.8687 C319.91,674.6087 318.8,700.4788 294.45,742.8687 C286.47,756.7588 274.3792,762.5948 262.8392,766.2548" fill="none" id="system__active__processing-to-*end*system__active" style="stroke:#181818;stroke-width:1;"/><polygon fill="#181818" points="257.12,768.0687,266.9081,769.1607,261.886,766.5572,264.4896,761.5351,257.12,768.0687" style="stroke:#181818;stroke-width:1;"/><text fill="#000000" font-family="sans-serif" font-size="13" lengthAdjust="spacing" textLength="68.7007" x="313.45" y="692.4356">/FatalError</text></g><!--link system__active__waiting to *end*system__active--><g class="link" data-entity-1="ent0006" data-entity-2="ent0002" data-link-type="dependency" data-source-line="24" id="lnk4"><path d="M199.16,708.2488 C206.55,718.5987 215.89,731.5088 224.45,742.8687 C229.51,749.5787 231.6632,752.3745 236.0732,757.9145" fill="none" id="system__active__waiting-to-*end*system__active" style="stroke:#181818;stroke-width:1;"/><polygon fill="#181818" points="239.81,762.6087,237.3343,753.0761,236.696,758.6968,231.0753,758.0585,239.81,762.6087" style="stroke:#181818;stroke-width:1;"/><text fill="#000000" font-family="sans-serif" font-size="13" lengthAdjust="spacing" textLength="68.7007" x="225.45" y="738.9356">/FatalError</text></g><!--link *start*system__active to system__active__processing--><g class="link" data-entity-1="ent0005" data-entity-2="ent0005" data-link-type="dependency" data-source-line="25" id="lnk6"><path d="M185.45,499.9887 C185.45,508.8787 185.45,516.8887 185.45,530.3888" fill="none" id="*start*system__active-to-system__active__processing" style="stroke:#181818;stroke-width:1;"/><polygon fill="#181818" points="185.45,536.3888,189.45,527.3888,185.45,531.3888,181.45,527.3888,185.45,536.3888" style="stroke:#181818;stroke-width:1;"/></g><!--link system__active__processing to system__active__waiting--><g class="link" data-entity-1="ent0005" data-entity-2="ent0006" data-link-type="dependency" data-source-line="26" id="lnk7"><path d="M94.09,595.2488 C58.34,606.7987 30,624.4187 49.45,649.8687 C62,666.2987 111.3182,676.2567 147.4182,681.7467" fill="none" id="system__active__processing-to-system__active__waiting" style="stroke:#181818;stroke-width:1;"/><polygon fill="#181818" points="153.35,682.6488,145.0537,677.3411,148.4068,681.897,143.8509,685.2501,153.35,682.6488" style="stroke:#181818;stroke-width:1;"/><text fill="#000000" font-family="sans-serif" font-size="13" lengthAdjust="spacing" textLength="112.8804" x="50.45" y="645.9356">Processing.Pause</text></g><!--link system__active__waiting to system__active__processing--><g class="link" data-entity-1="ent0006" data-entity-2="ent0005" data-link-type="dependency" data-source-line="27" id="lnk8"><path d="M185.45,667.3988 C185.45,652.9888 185.45,638.8888 185.45,621.2788" fill="none" id="system__active__waiting-to-system__active__processing" style="stroke:#181818;stroke-width:1;"/><polygon fill="#181818" points="185.45,615.2788,181.45,624.2788,185.45,620.2788,189.45,624.2788,185.45,615.2788" style="stroke:#181818;stroke-width:1;"/><text fill="#000000" font-family="sans-serif" font-size="13" lengthAdjust="spacing" textLength="106.4692" x="186.45" y="645.9356">Waiting.Resume</text></g><g class="entity" data-qualified-name="system.system__error" id="ent0007"><rect fill="#F1F1F1" height="78.2031" rx="12.5" ry="12.5" style="stroke:#181818;stroke-width:0.5;" width="221.0645" x="275.04" y="848.8756"/><line style="stroke:#181818;stroke-width:0.5;" x1="275.04" x2="496.1045" y1="875.1725" y2="875.1725"/><text fill="#000000" font-family="sans-serif" font-size="14" lengthAdjust="spacing" textLength="34.6787" x="368.2329" y="866.8707">Error</text><text fill="#000000" font-family="sans-serif" font-size="12" lengthAdjust="spacing" textLength="43.459" x="280.04" y="891.3112">enter {</text><text fill="#000000" font-family="sans-serif" font-size="12" lengthAdjust="spacing" textLength="185.8066" x="295.2978" y="905.2799">error_count = error_count + 1;</text><text fill="#000000" font-family="sans-serif" font-size="12" lengthAdjust="spacing" textLength="7.6348" x="280.04" y="919.2487">}</text></g><g class="start_entity" data-qualified-name="system..start.system" data-source-line="35" id="ent0012"><ellipse cx="375.58" cy="152.2656" fill="#222222" rx="10" ry="10" style="stroke:#222222;stroke-width:1;"/></g><!--link system__idle to system__error--><g class="link" data-entity-1="ent0003" data-entity-2="ent0007" data-link-type="dependency" data-source-line="32" id="lnk9"><path d="M423.83,277.9456 C428.15,283.3656 431.9,289.2356 434.58,295.4656 C458.03,350.1356 455.47,775.1756 434.58,830.8756 C432.26,837.0456 432.3417,838.0569 428.4817,843.6169" fill="none" id="system__idle-to-system__error" style="stroke:#181818;stroke-width:1;"/><polygon fill="#181818" points="425.06,848.5456,433.4784,843.4337,427.9114,844.4384,426.9068,838.8715,425.06,848.5456" style="stroke:#181818;stroke-width:1;"/><text fill="#000000" font-family="sans-serif" font-size="13" lengthAdjust="spacing" textLength="64.3208" x="452.58" y="600.2425">FatalError</text></g><!--link system__active to system__error--><g class="link" data-entity-1="ent0004" data-entity-2="ent0007" data-link-type="dependency" data-source-line="33" id="lnk10"><path d="M222.71,796.1156 C227.88,808.5156 234.4,820.2456 242.58,830.8756 C251.19,842.0756 257.1861,848.0245 269.5061,855.2045" fill="none" id="system__active-to-system__error" style="stroke:#181818;stroke-width:1;"/><polygon fill="#181818" points="274.69,858.2256,268.9282,850.238,270.3701,855.708,264.9001,857.1499,274.69,858.2256" style="stroke:#181818;stroke-width:1;"/><text fill="#000000" font-family="sans-serif" font-size="13" lengthAdjust="spacing" textLength="64.3208" x="243.58" y="826.9425">FatalError</text></g><!--link system__error to system__error--><g class="link" data-entity-1="ent0007" data-entity-2="ent0007" data-link-type="dependency" data-source-line="34" id="lnk11"><path d="M496.18,877.9456 C507.14,879.9556 514.11,883.2956 514.11,887.9756 C514.11,892.6556 513.0416,894.9133 502.0816,896.9233" fill="none" id="system__error-to-system__error" style="stroke:#181818;stroke-width:1;"/><polygon fill="#181818" points="496.18,898.0056,505.7539,900.3165,501.098,897.1037,504.3108,892.4478,496.18,898.0056" style="stroke:#181818;stroke-width:1;"/><text fill="#000000" font-family="sans-serif" font-size="13" lengthAdjust="spacing" textLength="64.3208" x="520.11" y="892.5425">FatalError</text></g><!--link *start*system to system__idle--><g class="link" data-entity-1="ent0012" data-entity-2="ent0003" data-link-type="dependency" data-source-line="35" id="lnk13"><path d="M375.58,162.5856 C375.58,171.4856 375.58,179.4956 375.58,192.9956" fill="none" id="*start*system-to-system__idle" style="stroke:#181818;stroke-width:1;"/><polygon fill="#181818" points="375.58,198.9956,379.58,189.9956,375.58,193.9956,371.58,189.9956,375.58,198.9956" style="stroke:#181818;stroke-width:1;"/></g><!--link system__idle to system__active--><g class="link" data-entity-1="ent0003" data-entity-2="ent0004" data-link-type="dependency" data-source-line="36" id="lnk14"><path d="M319.86,243.9756 C285.21,250.0456 243.11,263.9156 220.58,295.4656 C199.82,324.5356 190.4321,353.5939 186.9521,389.2939" fill="none" id="system__idle-to-system__active" style="stroke:#181818;stroke-width:1;"/><polygon fill="#181818" points="186.37,395.2656,191.2243,386.6962,186.8551,390.2892,183.262,385.92,186.37,395.2656" style="stroke:#181818;stroke-width:1;"/><text fill="#000000" font-family="sans-serif" font-size="13" lengthAdjust="spacing" textLength="59.5854" x="221.58" y="341.0325">Idle.Start</text></g><!--link system__active to system__idle--><g class="link" data-entity-1="ent0004" data-entity-2="ent0003" data-link-type="dependency" data-source-line="37" id="lnk15"><path d="M276.34,394.9756 C278.11,389.0756 279.86,383.2256 281.58,377.4656 C292.43,341.0756 284.45,327.0256 305.58,295.4656 C309.82,289.1256 310.7293,287.3599 316.3293,281.8599" fill="none" id="system__active-to-system__idle" style="stroke:#181818;stroke-width:1;"/><polygon fill="#181818" points="320.61,277.6556,311.3861,281.1082,317.0428,281.1592,316.9918,286.8158,320.61,277.6556" style="stroke:#181818;stroke-width:1;"/><text fill="#000000" font-family="sans-serif" font-size="13" lengthAdjust="spacing" textLength="74.1279" x="333.1945" y="308.5325">Active.Stop</text><path d="M310.58,317.5984 L310.58,372.5984 L429.58,372.5984 L429.58,327.5984 L419.58,317.5984 L310.58,317.5984" fill="#FEFFDD" style="stroke:#181818;stroke-width:0.5;"/><path d="M419.58,317.5984 L419.58,327.5984 L429.58,327.5984 L419.58,317.5984" fill="#FEFFDD" style="stroke:#181818;stroke-width:0.5;"/><text fill="#000000" font-family="sans-serif" font-size="13" lengthAdjust="spacing" textLength="49.7974" x="316.58" y="334.6653">effect {</text><text fill="#000000" font-family="sans-serif" font-size="13" lengthAdjust="spacing" textLength="81.8276" x="333.1093" y="349.7981">counter = 0;</text><text fill="#000000" font-family="sans-serif" font-size="13" lengthAdjust="spacing" textLength="8.271" x="316.58" y="364.931">}</text></g><!--link system__active to system__error--><g class="link" data-entity-1="ent0004" data-entity-2="ent0007" data-link-type="dependency" data-source-line="43" id="lnk16"><path d="M317.73,796.3356 C324.88,808.1656 332.19,819.7656 339.58,830.8756 C343.48,836.7456 344.1952,838.0004 348.6852,843.7704" fill="none" id="system__active-to-system__error-1" style="stroke:#181818;stroke-width:1;"/><polygon fill="#181818" points="352.37,848.5056,349.9996,838.9463,349.2994,844.5596,343.686,843.8593,352.37,848.5056" style="stroke:#181818;stroke-width:1;"/><text fill="#000000" font-family="sans-serif" font-size="13" lengthAdjust="spacing" textLength="93.9897" x="340.58" y="826.9425">counter &gt; 100</text></g><!--link system__error to system__idle--><g class="link" data-entity-1="ent0007" data-entity-2="ent0003" data-link-type="dependency" data-source-line="44" id="lnk17"><path d="M470.26,848.5656 C490.72,834.9956 510,817.5556 521.58,795.8756 C605.37,638.8756 573.34,565.7356 521.58,395.4656 C506.01,344.2856 491.89,333.8056 454.58,295.4656 C447.54,288.2356 444.2091,284.9825 435.9591,278.6125" fill="none" id="system__error-to-system__idle" style="stroke:#181818;stroke-width:1;"/><polygon fill="#181818" points="431.21,274.9456,435.8891,283.612,435.1676,278.0014,440.7782,277.2799,431.21,274.9456" style="stroke:#181818;stroke-width:1;"/><text fill="#000000" font-family="sans-serif" font-size="13" lengthAdjust="spacing" textLength="102.5908" x="574.58" y="600.2425">error_count &lt; 3</text></g><g class="start_entity" data-qualified-name=".start." data-source-line="47" id="ent0018"><ellipse cx="357.09" cy="16" fill="#222222" rx="10" ry="10" style="stroke:#222222;stroke-width:1;"/></g><g class="end_entity" data-qualified-name=".end." data-source-line="48" id="ent0020"><ellipse cx="357.09" cy="1011.08" fill="none" rx="11" ry="11" style="stroke:#222222;stroke-width:1;"/><ellipse cx="357.09" cy="1011.08" fill="#222222" rx="6" ry="6" style="stroke:#222222;stroke-width:1;"/></g><!--link *start* to system--><g class="link" data-entity-1="ent0018" data-entity-2="ent0002" data-link-type="dependency" data-source-line="47" id="lnk19"><path d="M357.09,26.45 C357.09,37.81 357.09,52.78 357.09,79.86" fill="none" id="*start*-to-system" style="stroke:#181818;stroke-width:1;"/><polygon fill="#181818" points="357.09,85.86,361.09,76.86,357.09,80.86,353.09,76.86,357.09,85.86" style="stroke:#181818;stroke-width:1;"/></g><!--link system to *end*--><g class="link" data-entity-1="ent0002" data-entity-2="ent0020" data-link-type="dependency" data-source-line="48" id="lnk21"><path d="M357.09,940.32 C357.09,967.34 357.09,982.37 357.09,993.99" fill="none" id="system-to-*end*" style="stroke:#181818;stroke-width:1;"/><polygon fill="#181818" points="357.09,999.99,361.09,990.99,357.09,994.99,353.09,990.99,357.09,999.99" style="stroke:#181818;stroke-width:1;"/></g><g class="legend" data-source-line="10"><rect fill="#DDDDDD" height="62.8906" rx="7.5" ry="7.5" style="stroke:#000000;stroke-width:1;" width="252.6621" x="450.5087" y="1042.08"/><text fill="#000000" font-family="sans-serif" font-size="14" font-weight="bold" lengthAdjust="spacing" textLength="65.748" x="460.3827" y="1062.0751">Variable</text><text fill="#000000" font-family="sans-serif" font-size="14" font-weight="bold" lengthAdjust="spacing" textLength="38.1924" x="550.2275" y="1062.0751">Type</text><text fill="#000000" font-family="sans-serif" font-size="14" font-weight="bold" lengthAdjust="spacing" textLength="95.1289" x="598.1679" y="1062.0751">Initial Value</text><text fill="#000000" font-family="sans-serif" font-size="14" lengthAdjust="spacing" textLength="53.8672" x="459.9589" y="1078.372">counter</text><text fill="#000000" font-family="sans-serif" font-size="14" lengthAdjust="spacing" textLength="18.252" x="549.8036" y="1078.372">int</text><text fill="#000000" font-family="sans-serif" font-size="14" lengthAdjust="spacing" textLength="8.9072" x="597.7441" y="1078.372">0</text><text fill="#000000" font-family="sans-serif" font-size="14" lengthAdjust="spacing" textLength="80.9443" x="459.9589" y="1094.6689">error_count</text><text fill="#000000" font-family="sans-serif" font-size="14" lengthAdjust="spacing" textLength="18.252" x="549.8036" y="1094.6689">int</text><text fill="#000000" font-family="sans-serif" font-size="14" lengthAdjust="spacing" textLength="8.9072" x="597.7441" y="1094.6689">0</text><line style="stroke:#000000;stroke-width:1;" x1="455.5087" x2="698.1708" y1="1049.08" y2="1049.08"/><line style="stroke:#000000;stroke-width:1;" x1="455.5087" x2="698.1708" y1="1065.3769" y2="1065.3769"/><line style="stroke:#000000;stroke-width:1;" x1="455.5087" x2="698.1708" y1="1081.6738" y2="1081.6738"/><line style="stroke:#000000;stroke-width:1;" x1="455.5087" x2="698.1708" y1="1097.9706" y2="1097.9706"/><line style="stroke:#000000;stroke-width:1;" x1="455.5087" x2="455.5087" y1="1049.08" y2="1097.9706"/><line style="stroke:#000000;stroke-width:1;" x1="545.3534" x2="545.3534" y1="1049.08" y2="1097.9706"/><line style="stroke:#000000;stroke-width:1;" x1="593.2939" x2="593.2939" y1="1049.08" y2="1097.9706"/><line style="stroke:#000000;stroke-width:1;" x1="698.1708" x2="698.1708" y1="1049.08" y2="1097.9706"/></g><?plantuml-src fLJVRzem47xtNt7YiLCPqzue8AtLMbNQf6fCsqCxHIOvg8LZHxQp2HN-zvsTf3WX5AQzW7C_lllydU-UHOQ0UU4saA5DZIYSq8enknQgu8RdO1rt22yCu9gdwvNHfSfkjDHcCYaibfcUpU2BM3sxEyCtVL6fpWjjXSCcy5gMw0EroT1qeMgKMwtSt6qaHYxXk1Gfsp4cSOKg0-FHs7OAFxWHV24HwFnzKuJ_UoMSu99yL0wsR0ifaN9eO0j2EVeT1IiQeqqIV2qF5QZAa1X1Wi5yOntc0-0MR3X2-t9U8wZr6jnJTXIQ988CLK1aW35WuFJofBoleJY5qTMJsiM0dr8dVhSXUJ3rieWI7unEqLgXLZt9ILAyklU9HqE8RrOQVpWWt9pUmOSzzuZ6JqxzECBXJ-KxXy3bvGmUBtuHaVUtd1x4Pz--euary8aix_4H_oTD7q9JVmpxBWmVU6dnBCflDg8MTFWDRPbNU3jsYBXlsGANsk2RdUi-kg1JgsNugbpBqdt8yLHDMr-jAl4en1TkC3lDwjpi7p8gzna9tRVGFxQ7pI4aF_B3kUF6dI9RZturqfIYYv2XD6ck5KYXri60ooMcBXhfU3z47VVBq2UVAr83CwDP7PtGgLbJKGidy96sSBq3nq1Bf_t2-C8wG-NXJke5bryrhM9jhbXRsmQWdis_?></g></svg>