<?plantuml 1.2026.3beta3?><svg xmlns="http://www.w3.org/2000/svg" xmlns:xlink="http://www.w3.org/1999/xlink" contentStyleType="text/css" data-diagram-type="STATE" height="855px" preserveAspectRatio="none" style="width:712px;height:855px;background:#FFFFFF;" version="1.1" viewBox="0 0 712 855" width="712px" zoomAndPan="magnify"><defs/><g><path d="M19.5,86 L685.2108,86 A12.5,12.5 0 0 1 697.7108,98.5 L697.7108,112.2969 L7,112.2969 L7,98.5 A12.5,12.5 0 0 1 19.5,86" fill="#ADD8E6"/><rect fill="none" height="673.5969" rx="12.5" ry="12.5" style="stroke:#181818;stroke-width:0.5;" width="690.7108" x="7" y="86"/><line style="stroke:#181818;stroke-width:0.5;" x1="7" x2="697.7108" y1="112.2969" y2="112.2969"/><text fill="#000000" font-family="sans-serif" font-size="14" lengthAdjust="spacing" textLength="52.2061" x="326.2524" y="103.9951">System</text><rect fill="#F1F1F1" height="40" rx="12.5" ry="12.5" style="stroke:#181818;stroke-width:0.5;" width="50" x="355.12" y="180.2969"/><text fill="#000000" font-family="sans-serif" font-size="14" lengthAdjust="spacing" textLength="25.5186" x="367.3607" y="205.1436">Idle</text><path d="M31.5,338.2969 L404.7407,338.2969 A12.5,12.5 0 0 1 417.2407,350.7969 L417.2407,364.5937 L19,364.5937 L19,350.7969 A12.5,12.5 0 0 1 31.5,338.2969" fill="#ADD8E6"/><rect fill="none" height="315.2969" rx="12.5" ry="12.5" style="stroke:#181818;stroke-width:0.5;" width="398.2407" x="19" y="338.2969"/><line style="stroke:#181818;stroke-width:0.5;" x1="19" x2="417.2407" y1="364.5937" y2="364.5937"/><text fill="#000000" font-family="sans-serif" font-size="14" lengthAdjust="spacing" textLength="43.5518" x="196.3445" y="356.292">Active</text><rect fill="#F1F1F1" height="40" rx="12.5" ry="12.5" style="stroke:#181818;stroke-width:0.5;" width="85.3115" x="151.89" y="432.5937"/><text fill="#000000" font-family="sans-serif" font-size="14" lengthAdjust="spacing" textLength="75.3115" x="156.89" y="457.4404">Processing</text><rect fill="#F1F1F1" height="40" rx="12.5" ry="12.5" style="stroke:#181818;stroke-width:0.5;" width="63.4502" x="162.82" y="525.5938"/><text fill="#000000" font-family="sans-serif" font-size="14" lengthAdjust="spacing" textLength="53.4502" x="167.82" y="550.4404">Waiting</text><g class="end_entity" data-qualified-name="system.system__active..end.system__active" data-source-line="15" id="ent0002"><ellipse cx="255.54" cy="629.5938" fill="none" rx="11" ry="11" style="stroke:#222222;stroke-width:1;"/><ellipse cx="255.54" cy="629.5938" fill="#222222" rx="6" ry="6" style="stroke:#222222;stroke-width:1;"/></g><g class="start_entity" data-qualified-name="system.system__active..start.system__active" data-source-line="17" id="ent0005"><ellipse cx="194.54" cy="385.5937" fill="#222222" rx="10" ry="10" style="stroke:#222222;stroke-width:1;"/></g><!--link system__active__processing to *end*system__active--><g class="link" data-entity-1="ent0005" data-entity-2="ent0002" data-link-type="dependency" data-source-line="15" id="lnk3"><path d="M237.59,456.4537 C261.18,460.4837 288.59,469.7237 303.54,490.5937 C332.02,530.3338 327.89,558.2037 303.54,600.5938 C295.57,614.4837 283.4692,620.3198 271.9292,623.9798" fill="none" id="system__active__processing-to-*end*system__active" style="stroke:#181818;stroke-width:1;"/><polygon fill="#181818" points="266.21,625.7937,275.9981,626.8857,270.976,624.2822,273.5796,619.2601,266.21,625.7937" style="stroke:#181818;stroke-width:1;"/><text fill="#000000" font-family="sans-serif" font-size="13" lengthAdjust="spacing" textLength="68.7007" x="323.54" y="550.1606">/FatalError</text></g><!--link system__active__waiting to *end*system__active--><g class="link" data-entity-1="ent0006" data-entity-2="ent0002" data-link-type="dependency" data-source-line="16" id="lnk4"><path d="M208.25,565.9737 C215.65,576.3238 224.98,589.2337 233.54,600.5938 C238.6,607.3037 240.7632,610.0995 245.1732,615.6395" fill="none" id="system__active__waiting-to-*end*system__active" style="stroke:#181818;stroke-width:1;"/><polygon fill="#181818" points="248.91,620.3338,246.4343,610.8011,245.796,616.4218,240.1753,615.7835,248.91,620.3338" style="stroke:#181818;stroke-width:1;"/><text fill="#000000" font-family="sans-serif" font-size="13" lengthAdjust="spacing" textLength="68.7007" x="234.54" y="596.6606">/FatalError</text></g><!--link *start*system__active to system__active__processing--><g class="link" data-entity-1="ent0005" data-entity-2="ent0005" data-link-type="dependency" data-source-line="17" id="lnk6"><path d="M194.54,395.9037 C194.54,405.3137 194.54,414.1337 194.54,426.1138" fill="none" id="*start*system__active-to-system__active__processing" style="stroke:#181818;stroke-width:1;"/><polygon fill="#181818" points="194.54,432.1138,198.54,423.1138,194.54,427.1138,190.54,423.1138,194.54,432.1138" style="stroke:#181818;stroke-width:1;"/></g><!--link system__active__processing to system__active__waiting--><g class="link" data-entity-1="ent0005" data-entity-2="ent0006" data-link-type="dependency" data-source-line="18" id="lnk7"><path d="M151.73,459.5237 C116.27,465.4137 69.91,475.7237 58.54,490.5937 C30,527.9337 107.7559,539.067 156.3959,542.617" fill="none" id="system__active__processing-to-system__active__waiting" style="stroke:#181818;stroke-width:1;"/><polygon fill="#181818" points="162.38,543.0537,153.695,538.4092,157.3933,542.6898,153.1127,546.388,162.38,543.0537" style="stroke:#181818;stroke-width:1;"/><text fill="#000000" font-family="sans-serif" font-size="13" lengthAdjust="spacing" textLength="112.8804" x="59.54" y="503.6606">Processing.Pause</text></g><!--link system__active__waiting to system__active__processing--><g class="link" data-entity-1="ent0006" data-entity-2="ent0005" data-link-type="dependency" data-source-line="19" id="lnk8"><path d="M194.54,525.3238 C194.54,509.8837 194.54,494.3337 194.54,478.8937" fill="none" id="system__active__waiting-to-system__active__processing" style="stroke:#181818;stroke-width:1;"/><polygon fill="#181818" points="194.54,472.8937,190.54,481.8937,194.54,477.8937,198.54,481.8937,194.54,472.8937" style="stroke:#181818;stroke-width:1;"/><text fill="#000000" font-family="sans-serif" font-size="13" lengthAdjust="spacing" textLength="106.4692" x="195.54" y="503.6606">Waiting.Resume</text></g><rect fill="#F1F1F1" height="40" rx="12.5" ry="12.5" style="stroke:#181818;stroke-width:0.5;" width="50" x="364.12" y="706.5969"/><text fill="#000000" font-family="sans-serif" font-size="14" lengthAdjust="spacing" textLength="34.6787" x="371.7806" y="731.4436">Error</text><g class="start_entity" data-qualified-name="system..start.system" data-source-line="25" id="ent0012"><ellipse cx="380.12" cy="133.2969" fill="#222222" rx="10" ry="10" style="stroke:#222222;stroke-width:1;"/></g><!--link system__idle to system__error--><g class="link" data-entity-1="ent0003" data-entity-2="ent0007" data-link-type="dependency" data-source-line="22" id="lnk9"><path d="M405.52,210.3469 C418.02,216.2369 431.92,225.2869 439.12,238.2969 C463.34,282.0769 461.64,643.9169 439.12,688.5969 C433.82,699.1069 429.0448,704.1759 419.4848,710.2059" fill="none" id="system__idle-to-system__error" style="stroke:#181818;stroke-width:1;"/><polygon fill="#181818" points="414.41,713.4069,424.1562,711.9886,418.639,710.7394,419.8883,705.2222,414.41,713.4069" style="stroke:#181818;stroke-width:1;"/><text fill="#000000" font-family="sans-serif" font-size="13" lengthAdjust="spacing" textLength="64.3208" x="457.12" y="500.5138">FatalError</text></g><!--link system__active to system__error--><g class="link" data-entity-1="ent0004" data-entity-2="ent0007" data-link-type="dependency" data-source-line="23" id="lnk10"><path d="M224.71,653.7069 C229.94,666.4469 236.91,678.3369 246.12,688.5969 C261.66,705.9169 321.1079,716.4456 357.8479,721.5856" fill="none" id="system__active-to-system__error" style="stroke:#181818;stroke-width:1;"/><polygon fill="#181818" points="363.79,722.4169,355.431,717.2085,358.8382,721.7241,354.3226,725.1313,363.79,722.4169" style="stroke:#181818;stroke-width:1;"/><text fill="#000000" font-family="sans-serif" font-size="13" lengthAdjust="spacing" textLength="64.3208" x="247.12" y="684.6638">FatalError</text></g><!--link system__error to system__error--><g class="link" data-entity-1="ent0007" data-entity-2="ent0007" data-link-type="dependency" data-source-line="24" id="lnk11"><path d="M414.3,717.9169 C424.03,717.5269 432.12,720.4169 432.12,726.5969 C432.12,732.7769 430.0252,735.9072 420.2952,735.5172" fill="none" id="system__error-to-system__error" style="stroke:#181818;stroke-width:1;"/><polygon fill="#181818" points="414.3,735.2769,423.1326,739.6341,419.296,735.4771,423.453,731.6405,414.3,735.2769" style="stroke:#181818;stroke-width:1;"/><text fill="#000000" font-family="sans-serif" font-size="13" lengthAdjust="spacing" textLength="64.3208" x="438.12" y="731.1638">FatalError</text></g><!--link *start*system to system__idle--><g class="link" data-entity-1="ent0012" data-entity-2="ent0003" data-link-type="dependency" data-source-line="25" id="lnk13"><path d="M380.12,143.6169 C380.12,153.0169 380.12,161.8369 380.12,173.8269" fill="none" id="*start*system-to-system__idle" style="stroke:#181818;stroke-width:1;"/><polygon fill="#181818" points="380.12,179.8269,384.12,170.8269,380.12,174.8269,376.12,170.8269,380.12,179.8269" style="stroke:#181818;stroke-width:1;"/></g><!--link system__idle to system__active--><g class="link" data-entity-1="ent0003" data-entity-2="ent0004" data-link-type="dependency" data-source-line="26" id="lnk14"><path d="M354.84,203.6069 C314.98,207.8269 240.37,218.2369 224.12,238.2969 C201.47,266.2669 192.7848,296.1332 191.1348,332.1232" fill="none" id="system__idle-to-system__active" style="stroke:#181818;stroke-width:1;"/><polygon fill="#181818" points="190.86,338.1169,195.268,329.3095,191.089,333.1221,187.2764,328.9431,190.86,338.1169" style="stroke:#181818;stroke-width:1;"/><text fill="#000000" font-family="sans-serif" font-size="13" lengthAdjust="spacing" textLength="59.5854" x="225.12" y="283.8638">Idle.Start</text></g><!--link system__active to system__idle--><g class="link" data-entity-1="ent0004" data-entity-2="ent0003" data-link-type="dependency" data-source-line="27" id="lnk15"><path d="M278.91,338.0469 C281.04,332.0669 283.11,326.1369 285.12,320.2969 C297.51,284.2669 285.86,267.6769 310.12,238.2969 C321.67,224.3069 334.3278,217.081 349.2978,211.261" fill="none" id="system__active-to-system__idle" style="stroke:#181818;stroke-width:1;"/><polygon fill="#181818" points="354.89,209.0869,345.0522,208.6199,350.2298,210.8987,347.9511,216.0762,354.89,209.0869" style="stroke:#181818;stroke-width:1;"/><text fill="#000000" font-family="sans-serif" font-size="13" lengthAdjust="spacing" textLength="74.1279" x="337.7345" y="251.3638">Active.Stop</text><path d="M315.12,260.4297 L315.12,315.4297 L434.12,315.4297 L434.12,270.4297 L424.12,260.4297 L315.12,260.4297" fill="#FEFFDD" style="stroke:#181818;stroke-width:0.5;"/><path d="M424.12,260.4297 L424.12,270.4297 L434.12,270.4297 L424.12,260.4297" fill="#FEFFDD" style="stroke:#181818;stroke-width:0.5;"/><text fill="#000000" font-family="sans-serif" font-size="13" lengthAdjust="spacing" textLength="49.7974" x="321.12" y="277.4966">effect {</text><text fill="#000000" font-family="sans-serif" font-size="13" lengthAdjust="spacing" textLength="81.8276" x="337.6493" y="292.6294">counter = 0;</text><text fill="#000000" font-family="sans-serif" font-size="13" lengthAdjust="spacing" textLength="8.271" x="321.12" y="307.7622">}</text></g><!--link system__active to system__error--><g class="link" data-entity-1="ent0004" data-entity-2="ent0007" data-link-type="dependency" data-source-line="33" id="lnk16"><path d="M315.36,653.6869 C324.64,665.8469 334.27,677.6369 344.12,688.5969 C349.93,695.0669 352.2803,697.5626 359.0003,703.0726" fill="none" id="system__active-to-system__error-1" style="stroke:#181818;stroke-width:1;"/><polygon fill="#181818" points="363.64,706.8769,359.2166,698.0772,359.7735,703.7066,354.1442,704.2636,363.64,706.8769" style="stroke:#181818;stroke-width:1;"/><text fill="#000000" font-family="sans-serif" font-size="13" lengthAdjust="spacing" textLength="93.9897" x="345.12" y="684.6638">counter &gt; 100</text></g><!--link system__error to system__idle--><g class="link" data-entity-1="ent0007" data-entity-2="ent0003" data-link-type="dependency" data-source-line="34" id="lnk17"><path d="M414.56,720.5569 C447.03,712.6069 501.88,693.7269 526.12,653.5969 C598.58,533.6569 566.88,472.3769 526.12,338.2969 C510.56,287.1169 499.72,273.1369 459.12,238.2969 C443.49,224.8869 427.8053,217.3369 411.2553,211.2869" fill="none" id="system__error-to-system__idle" style="stroke:#181818;stroke-width:1;"/><polygon fill="#181818" points="405.62,209.2269,412.6996,216.0738,410.3161,210.9436,415.4463,208.5601,405.62,209.2269" style="stroke:#181818;stroke-width:1;"/><text fill="#000000" font-family="sans-serif" font-size="13" lengthAdjust="spacing" textLength="102.5908" x="570.12" y="500.5138">error_count &lt; 3</text></g><g class="start_entity" data-qualified-name=".start." data-source-line="36" id="ent0018"><ellipse cx="352.36" cy="16" fill="#222222" rx="10" ry="10" style="stroke:#222222;stroke-width:1;"/></g><g class="end_entity" data-qualified-name=".end." data-source-line="37" id="ent0020"><ellipse cx="352.36" cy="830.6" fill="none" rx="11" ry="11" style="stroke:#222222;stroke-width:1;"/><ellipse cx="352.36" cy="830.6" fill="#222222" rx="6" ry="6" style="stroke:#222222;stroke-width:1;"/></g><!--link *start* to system--><g class="link" data-entity-1="ent0018" data-entity-2="ent0002" data-link-type="dependency" data-source-line="36" id="lnk19"><path d="M352.36,26.22 C352.36,37.57 352.36,52.7 352.36,79.52" fill="none" id="*start*-to-system" style="stroke:#181818;stroke-width:1;"/><polygon fill="#181818" points="352.36,85.52,356.36,76.52,352.36,80.52,348.36,76.52,352.36,85.52" style="stroke:#181818;stroke-width:1;"/></g><!--link system to *end*--><g class="link" data-entity-1="ent0002" data-entity-2="ent0020" data-link-type="dependency" data-source-line="37" id="lnk21"><path d="M352.36,759.84 C352.36,786.46 352.36,801.6 352.36,813.36" fill="none" id="system-to-*end*" style="stroke:#181818;stroke-width:1;"/><polygon fill="#181818" points="352.36,819.36,356.36,810.36,352.36,814.36,348.36,810.36,352.36,819.36" style="stroke:#181818;stroke-width:1;"/></g><?plantuml-src bLJ1IiD04BtdAuOUXTQAjrW3Lgm87eezU109osRQBarsm-v42T9_TxD9xIOqRRo5dVVUl7axsQr8433BgOG43TSY9w5a49YTa3dJB0D3Z11-0e0vuxkDLeLC7bMgz6oM6omI5KNmAZPRUjQiF8NYAikL4OG7u3mji08gdQ3kIZKg2oLfHMMANaaGImKFzjQTypHQbOOm6m4pODmdjBjLfg4POFIIfEX1urZO0n_mm4byjI7C7PrKzOXBhJWQ8-Jc13cEyxzob_ZE1FMnlklQaTAh2kDn11zNdn32zOBPZ9wqLhgNs0XVO5ML2Z5acFFE-lg7SCnjicI5mK6MptGBeGbqyeQco6gzlN_5RiPMtFWtjRyMhKuEOiKxANLsv1-CkZo0qBs4uyRsUMtCX51j-sH5JDCbiquZX7hxBKNbZY6L3Kn9I8NSkGDShv6Jj_tS_kE46kvXUkT5ZJ9nvA4X7MGYk9bEB-JKU7M5s15X1hVsHMWd5JIlGRFYlm00?></g></svg>