<?plantuml 1.2026.3beta3?><svg xmlns="http://www.w3.org/2000/svg" xmlns:xlink="http://www.w3.org/1999/xlink" contentStyleType="text/css" data-diagram-type="STATE" height="1086px" preserveAspectRatio="none" style="width:722px;height:1086px;background:#FFFFFF;" version="1.1" viewBox="0 0 722 1086" width="722px" zoomAndPan="magnify"><defs/><g><g class="entity" data-qualified-name="DefinitionNote" data-source-line="11" id="ent0002"><path d="M121.82,6 L121.82,76.5313 L312.3596,76.5313 L312.3596,16 L302.3596,6 L121.82,6" fill="#FEFFDD" style="stroke:#181818;stroke-width:0.5;"/><path d="M302.3596,6 L302.3596,16 L312.3596,16 L302.3596,6" fill="#FEFFDD" style="stroke:#181818;stroke-width:1;"/><text fill="#000000" font-family="sans-serif" font-size="13" lengthAdjust="spacing" textLength="59.8521" x="127.82" y="23.0669">defines {</text><text fill="#000000" font-family="sans-serif" font-size="13" lengthAdjust="spacing" textLength="127.8672" x="144.3493" y="38.1997">def int counter = 0;</text><text fill="#000000" font-family="sans-serif" font-size="13" lengthAdjust="spacing" textLength="153.0103" x="144.3493" y="53.3325">def int error_count = 0;</text><text fill="#000000" font-family="sans-serif" font-size="13" lengthAdjust="spacing" textLength="8.271" x="127.82" y="68.4653">}</text></g><path d="M19.5,136.53 L694.6708,136.53 A12.5,12.5 0 0 1 707.1708,149.03 L707.1708,181.7956 L7,181.7956 L7,149.03 A12.5,12.5 0 0 1 19.5,136.53" fill="#ADD8E6"/><rect fill="none" height="854.0787" rx="12.5" ry="12.5" style="stroke:#181818;stroke-width:0.5;" width="700.1708" x="7" y="136.53"/><line style="stroke:#181818;stroke-width:0.5;" x1="7" x2="707.1708" y1="181.7956" y2="181.7956"/><line style="stroke:#181818;stroke-width:0.5;" x1="7" x2="707.1708" y1="162.8269" y2="162.8269"/><text fill="#000000" font-family="sans-serif" font-size="14" lengthAdjust="spacing" textLength="52.2061" x="330.9824" y="154.5251">System</text><text fill="#000000" font-family="sans-serif" font-size="12" lengthAdjust="spacing" textLength="250.418" x="12" y="173.9655">&gt;&gt; during before abstract GlobalMonitor;</text><g class="entity" data-qualified-name="system.system__idle" id="ent0004"><rect fill="#F1F1F1" height="78.2031" rx="12.5" ry="12.5" style="stroke:#181818;stroke-width:0.5;" width="110.791" x="320.18" y="249.7956"/><line style="stroke:#181818;stroke-width:0.5;" x1="320.18" x2="430.971" y1="276.0925" y2="276.0925"/><text fill="#000000" font-family="sans-serif" font-size="14" lengthAdjust="spacing" textLength="25.5186" x="362.8162" y="267.7907">Idle</text><text fill="#000000" font-family="sans-serif" font-size="12" lengthAdjust="spacing" textLength="43.459" x="325.18" y="292.2312">enter {</text><text fill="#000000" font-family="sans-serif" font-size="12" lengthAdjust="spacing" textLength="75.5332" x="340.4378" y="306.1999">counter = 0;</text><text fill="#000000" font-family="sans-serif" font-size="12" lengthAdjust="spacing" textLength="7.6348" x="325.18" y="320.1687">}</text></g><path d="M31.5,445.9956 L399.6507,445.9956 A12.5,12.5 0 0 1 412.1507,458.4956 L412.1507,519.1987 L19,519.1987 L19,458.4956 A12.5,12.5 0 0 1 31.5,445.9956" fill="#ADD8E6"/><rect fill="none" height="400.4031" rx="12.5" ry="12.5" style="stroke:#181818;stroke-width:0.5;" width="393.1507" x="19" y="445.9956"/><line style="stroke:#181818;stroke-width:0.5;" x1="19" x2="412.1507" y1="519.1987" y2="519.1987"/><line style="stroke:#181818;stroke-width:0.5;" x1="19" x2="412.1507" y1="472.2925" y2="472.2925"/><text fill="#000000" font-family="sans-serif" font-size="14" lengthAdjust="spacing" textLength="43.5518" x="193.7995" y="463.9907">Active</text><text fill="#000000" font-family="sans-serif" font-size="12" lengthAdjust="spacing" textLength="92.8594" x="24" y="483.4312">during before {</text><text fill="#000000" font-family="sans-serif" font-size="12" lengthAdjust="spacing" textLength="139.3887" x="39.2578" y="497.3999">counter = counter + 1;</text><text fill="#000000" font-family="sans-serif" font-size="12" lengthAdjust="spacing" textLength="7.6348" x="24" y="511.3687">}</text><g class="entity" data-qualified-name="system.system__active.system__active__processing" id="ent0006"><rect fill="#F1F1F1" height="78.2031" rx="12.5" ry="12.5" style="stroke:#181818;stroke-width:0.5;" width="182.2813" x="94.31" y="587.1987"/><line style="stroke:#181818;stroke-width:0.5;" x1="94.31" x2="276.5913" y1="613.4956" y2="613.4956"/><text fill="#000000" font-family="sans-serif" font-size="14" lengthAdjust="spacing" textLength="75.3115" x="147.7949" y="605.1939">Processing</text><text fill="#000000" font-family="sans-serif" font-size="12" lengthAdjust="spacing" textLength="50.1621" x="99.31" y="629.6343">during {</text><text fill="#000000" font-family="sans-serif" font-size="12" lengthAdjust="spacing" textLength="147.0234" x="114.5678" y="643.603">counter = counter + 10;</text><text fill="#000000" font-family="sans-serif" font-size="12" lengthAdjust="spacing" textLength="7.6348" x="99.31" y="657.5718">}</text></g><rect fill="#F1F1F1" height="40" rx="12.5" ry="12.5" style="stroke:#181818;stroke-width:0.5;" width="63.4502" x="153.72" y="718.3987"/><text fill="#000000" font-family="sans-serif" font-size="14" lengthAdjust="spacing" textLength="53.4502" x="158.72" y="743.2454">Waiting</text><g class="end_entity" data-qualified-name="system.system__active..end.system__active" data-source-line="24" id="ent0002"><ellipse cx="246.45" cy="822.3987" fill="none" rx="11" ry="11" style="stroke:#222222;stroke-width:1;"/><ellipse cx="246.45" cy="822.3987" fill="#222222" rx="6" ry="6" style="stroke:#222222;stroke-width:1;"/></g><g class="start_entity" data-qualified-name="system.system__active..start.system__active" data-source-line="26" id="ent0005"><ellipse cx="185.45" cy="540.1987" fill="#222222" rx="10" ry="10" style="stroke:#222222;stroke-width:1;"/></g><!--link system__active__processing to *end*system__active--><g class="link" data-entity-1="ent0006" data-entity-2="ent0002" data-link-type="dependency" data-source-line="24" id="lnk3"><path d="M276.85,663.3687 C283.73,669.1287 289.79,675.7687 294.45,683.3987 C319.91,725.1387 318.8,751.0087 294.45,793.3987 C286.47,807.2887 274.3792,813.1248 262.8392,816.7848" fill="none" id="system__active__processing-to-*end*system__active" style="stroke:#181818;stroke-width:1;"/><polygon fill="#181818" points="257.12,818.5987,266.9081,819.6907,261.886,817.0872,264.4896,812.0651,257.12,818.5987" style="stroke:#181818;stroke-width:1;"/><text fill="#000000" font-family="sans-serif" font-size="13" lengthAdjust="spacing" textLength="68.7007" x="313.45" y="742.9656">/FatalError</text></g><!--link system__active__waiting to *end*system__active--><g class="link" data-entity-1="ent0007" data-entity-2="ent0002" data-link-type="dependency" data-source-line="25" id="lnk4"><path d="M199.16,758.7787 C206.55,769.1287 215.89,782.0387 224.45,793.3987 C229.51,800.1087 231.6632,802.9045 236.0732,808.4445" fill="none" id="system__active__waiting-to-*end*system__active" style="stroke:#181818;stroke-width:1;"/><polygon fill="#181818" points="239.81,813.1387,237.3343,803.6061,236.696,809.2268,231.0753,808.5885,239.81,813.1387" style="stroke:#181818;stroke-width:1;"/><text fill="#000000" font-family="sans-serif" font-size="13" lengthAdjust="spacing" textLength="68.7007" x="225.45" y="789.4656">/FatalError</text></g><!--link *start*system__active to system__active__processing--><g class="link" data-entity-1="ent0005" data-entity-2="ent0006" data-link-type="dependency" data-source-line="26" id="lnk6"><path d="M185.45,550.5187 C185.45,559.4087 185.45,567.4187 185.45,580.9187" fill="none" id="*start*system__active-to-system__active__processing" style="stroke:#181818;stroke-width:1;"/><polygon fill="#181818" points="185.45,586.9187,189.45,577.9187,185.45,581.9187,181.45,577.9187,185.45,586.9187" style="stroke:#181818;stroke-width:1;"/></g><!--link system__active__processing to system__active__waiting--><g class="link" data-entity-1="ent0006" data-entity-2="ent0007" data-link-type="dependency" data-source-line="27" id="lnk7"><path d="M94.09,645.7787 C58.34,657.3287 30,674.9487 49.45,700.3987 C62,716.8287 111.3182,726.7867 147.4182,732.2767" fill="none" id="system__active__processing-to-system__active__waiting" style="stroke:#181818;stroke-width:1;"/><polygon fill="#181818" points="153.35,733.1787,145.0537,727.8711,148.4068,732.427,143.8509,735.7801,153.35,733.1787" style="stroke:#181818;stroke-width:1;"/><text fill="#000000" font-family="sans-serif" font-size="13" lengthAdjust="spacing" textLength="112.8804" x="50.45" y="696.4656">Processing.Pause</text></g><!--link system__active__waiting to system__active__processing--><g class="link" data-entity-1="ent0007" data-entity-2="ent0006" data-link-type="dependency" data-source-line="28" id="lnk8"><path d="M185.45,717.9287 C185.45,703.5187 185.45,689.4187 185.45,671.8087" fill="none" id="system__active__waiting-to-system__active__processing" style="stroke:#181818;stroke-width:1;"/><polygon fill="#181818" points="185.45,665.8087,181.45,674.8087,185.45,670.8087,189.45,674.8087,185.45,665.8087" style="stroke:#181818;stroke-width:1;"/><text fill="#000000" font-family="sans-serif" font-size="13" lengthAdjust="spacing" textLength="106.4692" x="186.45" y="696.4656">Waiting.Resume</text></g><g class="entity" data-qualified-name="system.system__error" id="ent0008"><rect fill="#F1F1F1" height="78.2031" rx="12.5" ry="12.5" style="stroke:#181818;stroke-width:0.5;" width="221.0645" x="275.04" y="899.4056"/><line style="stroke:#181818;stroke-width:0.5;" x1="275.04" x2="496.1045" y1="925.7025" y2="925.7025"/><text fill="#000000" font-family="sans-serif" font-size="14" lengthAdjust="spacing" textLength="34.6787" x="368.2329" y="917.4007">Error</text><text fill="#000000" font-family="sans-serif" font-size="12" lengthAdjust="spacing" textLength="43.459" x="280.04" y="941.8412">enter {</text><text fill="#000000" font-family="sans-serif" font-size="12" lengthAdjust="spacing" textLength="185.8066" x="295.2978" y="955.8099">error_count = error_count + 1;</text><text fill="#000000" font-family="sans-serif" font-size="12" lengthAdjust="spacing" textLength="7.6348" x="280.04" y="969.7787">}</text></g><g class="start_entity" data-qualified-name="system..start.system" data-source-line="36" id="ent0012"><ellipse cx="375.58" cy="202.7956" fill="#222222" rx="10" ry="10" style="stroke:#222222;stroke-width:1;"/></g><!--link system__idle to system__error--><g class="link" data-entity-1="ent0004" data-entity-2="ent0008" data-link-type="dependency" data-source-line="33" id="lnk9"><path d="M423.83,328.4756 C428.15,333.8956 431.9,339.7656 434.58,345.9956 C458.03,400.6656 455.47,825.7056 434.58,881.4056 C432.26,887.5756 432.3417,888.5869 428.4817,894.1469" fill="none" id="system__idle-to-system__error" style="stroke:#181818;stroke-width:1;"/><polygon fill="#181818" points="425.06,899.0756,433.4784,893.9637,427.9114,894.9684,426.9068,889.4015,425.06,899.0756" style="stroke:#181818;stroke-width:1;"/><text fill="#000000" font-family="sans-serif" font-size="13" lengthAdjust="spacing" textLength="64.3208" x="452.58" y="650.7725">FatalError</text></g><!--link system__active to system__error--><g class="link" data-entity-1="ent0005" data-entity-2="ent0008" data-link-type="dependency" data-source-line="34" id="lnk10"><path d="M222.71,846.6456 C227.88,859.0456 234.4,870.7756 242.58,881.4056 C251.19,892.6056 257.1861,898.5545 269.5061,905.7345" fill="none" id="system__active-to-system__error" style="stroke:#181818;stroke-width:1;"/><polygon fill="#181818" points="274.69,908.7556,268.9282,900.768,270.3701,906.238,264.9001,907.6799,274.69,908.7556" style="stroke:#181818;stroke-width:1;"/><text fill="#000000" font-family="sans-serif" font-size="13" lengthAdjust="spacing" textLength="64.3208" x="243.58" y="877.4725">FatalError</text></g><!--link system__error to system__error--><g class="link" data-entity-1="ent0008" data-entity-2="ent0008" data-link-type="dependency" data-source-line="35" id="lnk11"><path d="M496.18,928.4756 C507.14,930.4856 514.11,933.8256 514.11,938.5056 C514.11,943.1856 513.0416,945.4433 502.0816,947.4533" fill="none" id="system__error-to-system__error" style="stroke:#181818;stroke-width:1;"/><polygon fill="#181818" points="496.18,948.5356,505.7539,950.8465,501.098,947.6337,504.3108,942.9778,496.18,948.5356" style="stroke:#181818;stroke-width:1;"/><text fill="#000000" font-family="sans-serif" font-size="13" lengthAdjust="spacing" textLength="64.3208" x="520.11" y="943.0725">FatalError</text></g><!--link *start*system to system__idle--><g class="link" data-entity-1="ent0012" data-entity-2="ent0004" data-link-type="dependency" data-source-line="36" id="lnk13"><path d="M375.58,213.1156 C375.58,222.0156 375.58,230.0256 375.58,243.5256" fill="none" id="*start*system-to-system__idle" style="stroke:#181818;stroke-width:1;"/><polygon fill="#181818" points="375.58,249.5256,379.58,240.5256,375.58,244.5256,371.58,240.5256,375.58,249.5256" style="stroke:#181818;stroke-width:1;"/></g><!--link system__idle to system__active--><g class="link" data-entity-1="ent0004" data-entity-2="ent0005" data-link-type="dependency" data-source-line="37" id="lnk14"><path d="M319.86,294.5056 C285.21,300.5756 243.11,314.4456 220.58,345.9956 C199.82,375.0656 190.4321,404.1239 186.9521,439.8239" fill="none" id="system__idle-to-system__active" style="stroke:#181818;stroke-width:1;"/><polygon fill="#181818" points="186.37,445.7956,191.2243,437.2262,186.8551,440.8192,183.262,436.45,186.37,445.7956" style="stroke:#181818;stroke-width:1;"/><text fill="#000000" font-family="sans-serif" font-size="13" lengthAdjust="spacing" textLength="59.5854" x="221.58" y="391.5625">Idle.Start</text></g><!--link system__active to system__idle--><g class="link" data-entity-1="ent0005" data-entity-2="ent0004" data-link-type="dependency" data-source-line="38" id="lnk15"><path d="M276.34,445.5056 C278.11,439.6056 279.86,433.7556 281.58,427.9956 C292.43,391.6056 284.45,377.5556 305.58,345.9956 C309.82,339.6556 310.7293,337.8899 316.3293,332.3899" fill="none" id="system__active-to-system__idle" style="stroke:#181818;stroke-width:1;"/><polygon fill="#181818" points="320.61,328.1856,311.3861,331.6382,317.0428,331.6892,316.9918,337.3458,320.61,328.1856" style="stroke:#181818;stroke-width:1;"/><text fill="#000000" font-family="sans-serif" font-size="13" lengthAdjust="spacing" textLength="74.1279" x="333.1945" y="359.0625">Active.Stop</text><path d="M310.58,368.1284 L310.58,423.1284 L429.58,423.1284 L429.58,378.1284 L419.58,368.1284 L310.58,368.1284" fill="#FEFFDD" style="stroke:#181818;stroke-width:0.5;"/><path d="M419.58,368.1284 L419.58,378.1284 L429.58,378.1284 L419.58,368.1284" fill="#FEFFDD" style="stroke:#181818;stroke-width:0.5;"/><text fill="#000000" font-family="sans-serif" font-size="13" lengthAdjust="spacing" textLength="49.7974" x="316.58" y="385.1953">effect {</text><text fill="#000000" font-family="sans-serif" font-size="13" lengthAdjust="spacing" textLength="81.8276" x="333.1093" y="400.3281">counter = 0;</text><text fill="#000000" font-family="sans-serif" font-size="13" lengthAdjust="spacing" textLength="8.271" x="316.58" y="415.461">}</text></g><!--link system__active to system__error--><g class="link" data-entity-1="ent0005" data-entity-2="ent0008" data-link-type="dependency" data-source-line="44" id="lnk16"><path d="M317.73,846.8656 C324.88,858.6956 332.19,870.2956 339.58,881.4056 C343.48,887.2756 344.1952,888.5304 348.6852,894.3004" fill="none" id="system__active-to-system__error-1" style="stroke:#181818;stroke-width:1;"/><polygon fill="#181818" points="352.37,899.0356,349.9996,889.4763,349.2994,895.0896,343.686,894.3893,352.37,899.0356" style="stroke:#181818;stroke-width:1;"/><text fill="#000000" font-family="sans-serif" font-size="13" lengthAdjust="spacing" textLength="93.9897" x="340.58" y="877.4725">counter &gt; 100</text></g><!--link system__error to system__idle--><g class="link" data-entity-1="ent0008" data-entity-2="ent0004" data-link-type="dependency" data-source-line="45" id="lnk17"><path d="M470.26,899.0956 C490.72,885.5256 510,868.0856 521.58,846.4056 C605.37,689.4056 573.34,616.2656 521.58,445.9956 C506.01,394.8156 491.89,384.3356 454.58,345.9956 C447.54,338.7656 444.2091,335.5125 435.9591,329.1425" fill="none" id="system__error-to-system__idle" style="stroke:#181818;stroke-width:1;"/><polygon fill="#181818" points="431.21,325.4756,435.8891,334.142,435.1676,328.5314,440.7782,327.8099,431.21,325.4756" style="stroke:#181818;stroke-width:1;"/><text fill="#000000" font-family="sans-serif" font-size="13" lengthAdjust="spacing" textLength="102.5908" x="574.58" y="650.7725">error_count &lt; 3</text></g><g class="start_entity" data-qualified-name=".start." data-source-line="48" id="ent0018"><ellipse cx="357.09" cy="41.27" fill="#222222" rx="10" ry="10" style="stroke:#222222;stroke-width:1;"/></g><g class="end_entity" data-qualified-name=".end." data-source-line="49" id="ent0020"><ellipse cx="357.09" cy="1061.61" fill="none" rx="11" ry="11" style="stroke:#222222;stroke-width:1;"/><ellipse cx="357.09" cy="1061.61" fill="#222222" rx="6" ry="6" style="stroke:#222222;stroke-width:1;"/></g><!--link *start* to system--><g class="link" data-entity-1="ent0018" data-entity-2="ent0003" data-link-type="dependency" data-source-line="48" id="lnk19"><path d="M357.09,51.74 C357.09,66.37 357.09,90.93 357.09,130.18" fill="none" id="*start*-to-system" style="stroke:#181818;stroke-width:1;"/><polygon fill="#181818" points="357.09,136.18,361.09,127.18,357.09,131.18,353.09,127.18,357.09,136.18" style="stroke:#181818;stroke-width:1;"/></g><!--link system to *end*--><g class="link" data-entity-1="ent0003" data-entity-2="ent0020" data-link-type="dependency" data-source-line="49" id="lnk21"><path d="M357.09,990.85 C357.09,1017.87 357.09,1032.9 357.09,1044.52" fill="none" id="system-to-*end*" style="stroke:#181818;stroke-width:1;"/><polygon fill="#181818" points="357.09,1050.52,361.09,1041.52,357.09,1045.52,353.09,1041.52,357.09,1050.52" style="stroke:#181818;stroke-width:1;"/></g><?plantuml-src fLHBRnCn4BxxLunw13KKSKj390gqGW9KaGE75gsSzMngPTUpihsWgCf_n_Rk9lPcqmHni-VnpJVF9oaGiAhj1WIQNClQIbACcRLKDTUy0cEvHNXc03SyNwyqDKfyf9BqR5ORR0JDv_1LhfxidUQRCQkSgfgCjDWRtfGDUaFI0lKGgaEv9MKNTbDYf9AMbp9dMyOKEKhSm2Sif9AUyNSdOS9_qGIouF8fG2eBkUDYKSDxkBfE5AWrwIoeM-MMeHBWmLq1GjeNYusnM5tuO2Oy8Kse3TKPVn4bHgPP9fsWDOW4C0KCX9uVbTV5_1xLDWRya5lvEuNaGJJA8dAyrvIZCLAjHfophDwfzuv7JHnVqMZ_E23Slrx3spttYCPFxffpXCEVLdSEWSlBEJoy-kM8lBdbRWW--yOTTUo0JtXvZRVulzAC8VJnfx3lmkIUDmRFelnY8xg2JdwWQQeMRyiE4VSjMs916b_it73eGfsIbk6kSebaECZfFiM_94gy2d72FUQWMOFC_i6ZLP_XC9o5yRKzR8v3yYi_MLYkxIcotUgtA-rSg0uUuPIHWbAgTH1WKM1kevK-k5zj7NUdwimYzJ1pjwjN9-hKdwceXJDuv-vZTmEdu8vEEc5yQQnsuU6kf2Kllv6xowIlMLhR7g3RpRy0?></g></svg>