<?plantuml 1.2026.3beta3?><svg xmlns="http://www.w3.org/2000/svg" xmlns:xlink="http://www.w3.org/1999/xlink" contentStyleType="text/css" data-diagram-type="STATE" height="1086px" preserveAspectRatio="none" style="width:988px;height:1086px;background:#FFFFFF;" version="1.1" viewBox="0 0 988 1086" width="988px" zoomAndPan="magnify"><defs/><g><g class="entity" data-qualified-name="DefinitionNote" data-source-line="11" id="ent0002"><path d="M255.11,6 L255.11,76.5313 L445.6496,76.5313 L445.6496,16 L435.6496,6 L255.11,6" fill="#FEFFDD" style="stroke:#181818;stroke-width:0.5;"/><path d="M435.6496,6 L435.6496,16 L445.6496,16 L435.6496,6" fill="#FEFFDD" style="stroke:#181818;stroke-width:1;"/><text fill="#000000" font-family="sans-serif" font-size="13" lengthAdjust="spacing" textLength="59.8521" x="261.11" y="23.0669">defines {</text><text fill="#000000" font-family="sans-serif" font-size="13" lengthAdjust="spacing" textLength="127.8672" x="277.6393" y="38.1997">def int counter = 0;</text><text fill="#000000" font-family="sans-serif" font-size="13" lengthAdjust="spacing" textLength="153.0103" x="277.6393" y="53.3325">def int error_count = 0;</text><text fill="#000000" font-family="sans-serif" font-size="13" lengthAdjust="spacing" textLength="8.271" x="261.11" y="68.4653">}</text></g><path d="M19.5,136.53 L961.2608,136.53 A12.5,12.5 0 0 1 973.7608,149.03 L973.7608,181.7956 L7,181.7956 L7,149.03 A12.5,12.5 0 0 1 19.5,136.53" fill="#ADD8E6"/><rect fill="none" height="854.0787" rx="12.5" ry="12.5" style="stroke:#181818;stroke-width:0.5;" width="966.7608" x="7" y="136.53"/><line style="stroke:#181818;stroke-width:0.5;" x1="7" x2="973.7608" y1="181.7956" y2="181.7956"/><line style="stroke:#181818;stroke-width:0.5;" x1="7" x2="973.7608" y1="162.8269" y2="162.8269"/><text fill="#000000" font-family="sans-serif" font-size="14" lengthAdjust="spacing" textLength="119.7861" x="430.4873" y="154.5251">System (System)</text><text fill="#000000" font-family="sans-serif" font-size="12" lengthAdjust="spacing" textLength="250.418" x="12" y="173.9655">&gt;&gt; during before abstract GlobalMonitor;</text><g class="entity" data-qualified-name="system.system__idle" id="ent0004"><rect fill="#F1F1F1" height="78.2031" rx="12.5" ry="12.5" style="stroke:#181818;stroke-width:0.5;" width="143.0674" x="501.63" y="249.7956"/><line style="stroke:#181818;stroke-width:0.5;" x1="501.63" x2="644.6974" y1="276.0925" y2="276.0925"/><text fill="#000000" font-family="sans-serif" font-size="14" lengthAdjust="spacing" textLength="123.0674" x="511.63" y="267.7907">Idle (System.Idle)</text><text fill="#000000" font-family="sans-serif" font-size="12" lengthAdjust="spacing" textLength="43.459" x="506.63" y="292.2312">enter {</text><text fill="#000000" font-family="sans-serif" font-size="12" lengthAdjust="spacing" textLength="75.5332" x="521.8878" y="306.1999">counter = 0;</text><text fill="#000000" font-family="sans-serif" font-size="12" lengthAdjust="spacing" textLength="7.6348" x="506.63" y="320.1687">}</text></g><path d="M31.5,445.9956 L606.8365,445.9956 A12.5,12.5 0 0 1 619.3365,458.4956 L619.3365,519.1987 L19,519.1987 L19,458.4956 A12.5,12.5 0 0 1 31.5,445.9956" fill="#ADD8E6"/><rect fill="none" height="400.4031" rx="12.5" ry="12.5" style="stroke:#181818;stroke-width:0.5;" width="600.3365" x="19" y="445.9956"/><line style="stroke:#181818;stroke-width:0.5;" x1="19" x2="619.3365" y1="519.1987" y2="519.1987"/><line style="stroke:#181818;stroke-width:0.5;" x1="19" x2="619.3365" y1="472.2925" y2="472.2925"/><text fill="#000000" font-family="sans-serif" font-size="14" lengthAdjust="spacing" textLength="159.1338" x="239.6013" y="463.9907">Active (System.Active)</text><text fill="#000000" font-family="sans-serif" font-size="12" lengthAdjust="spacing" textLength="92.8594" x="24" y="483.4312">during before {</text><text fill="#000000" font-family="sans-serif" font-size="12" lengthAdjust="spacing" textLength="139.3887" x="39.2578" y="497.3999">counter = counter + 1;</text><text fill="#000000" font-family="sans-serif" font-size="12" lengthAdjust="spacing" textLength="7.6348" x="24" y="511.3687">}</text><g class="entity" data-qualified-name="system.system__active.system__active__processing" id="ent0006"><rect fill="#F1F1F1" height="78.2031" rx="12.5" ry="12.5" style="stroke:#181818;stroke-width:0.5;" width="290.6553" x="113.36" y="587.1987"/><line style="stroke:#181818;stroke-width:0.5;" x1="113.36" x2="404.0153" y1="613.4956" y2="613.4956"/><text fill="#000000" font-family="sans-serif" font-size="14" lengthAdjust="spacing" textLength="270.6553" x="123.36" y="605.1939">Processing (System.Active.Processing)</text><text fill="#000000" font-family="sans-serif" font-size="12" lengthAdjust="spacing" textLength="50.1621" x="118.36" y="629.6343">during {</text><text fill="#000000" font-family="sans-serif" font-size="12" lengthAdjust="spacing" textLength="147.0234" x="133.6178" y="643.603">counter = counter + 10;</text><text fill="#000000" font-family="sans-serif" font-size="12" lengthAdjust="spacing" textLength="7.6348" x="118.36" y="657.5718">}</text></g><rect fill="#F1F1F1" height="40" rx="12.5" ry="12.5" style="stroke:#181818;stroke-width:0.5;" width="236.9326" x="140.22" y="718.3987"/><text fill="#000000" font-family="sans-serif" font-size="14" lengthAdjust="spacing" textLength="226.9326" x="145.22" y="743.2454">Waiting (System.Active.Waiting)</text><g class="end_entity" data-qualified-name="system.system__active..end.system__active" data-source-line="24" id="ent0002"><ellipse cx="352.69" cy="822.3987" fill="none" rx="11" ry="11" style="stroke:#222222;stroke-width:1;"/><ellipse cx="352.69" cy="822.3987" fill="#222222" rx="6" ry="6" style="stroke:#222222;stroke-width:1;"/></g><g class="start_entity" data-qualified-name="system.system__active..start.system__active" data-source-line="26" id="ent0005"><ellipse cx="258.69" cy="540.1987" fill="#222222" rx="10" ry="10" style="stroke:#222222;stroke-width:1;"/></g><!--link system__active__processing to *end*system__active--><g class="link" data-entity-1="ent0006" data-entity-2="ent0002" data-link-type="dependency" data-source-line="24" id="lnk3"><path d="M404.12,657.0287 C415.12,664.0787 424.93,672.7487 432.69,683.3987 C461.47,722.9187 460.97,753.5287 432.69,793.3987 C416.93,815.5987 388.1622,820.0337 370.0922,820.9537" fill="none" id="system__active__processing-to-*end*system__active" style="stroke:#181818;stroke-width:1;"/><polygon fill="#181818" points="364.1,821.2587,373.2917,824.796,369.0935,821.0045,372.885,816.8063,364.1,821.2587" style="stroke:#181818;stroke-width:1;"/><text fill="#000000" font-family="sans-serif" font-size="13" lengthAdjust="spacing" textLength="134.6465" x="454.69" y="742.9656">/FatalError #76B7B2</text></g><!--link system__active__waiting to *end*system__active--><g class="link" data-entity-1="ent0007" data-entity-2="ent0002" data-link-type="dependency" data-source-line="25" id="lnk4"><path d="M269.03,758.6987 C275.77,769.9087 285.39,783.6787 296.69,793.3987 C310.53,805.3087 324.6763,811.6119 336.6463,815.9319" fill="none" id="system__active__waiting-to-*end*system__active" style="stroke:#181818;stroke-width:1;"/><polygon fill="#181818" points="342.29,817.9687,335.1823,811.151,337.5869,816.2714,332.4666,818.676,342.29,817.9687" style="stroke:#181818;stroke-width:1;"/><text fill="#000000" font-family="sans-serif" font-size="13" lengthAdjust="spacing" textLength="134.6465" x="297.69" y="789.4656">/FatalError #76B7B2</text></g><!--link *start*system__active to system__active__processing--><g class="link" data-entity-1="ent0005" data-entity-2="ent0006" data-link-type="dependency" data-source-line="26" id="lnk6"><path d="M258.69,550.5187 C258.69,559.4087 258.69,567.4187 258.69,580.9187" fill="none" id="*start*system__active-to-system__active__processing" style="stroke:#181818;stroke-width:1;"/><polygon fill="#181818" points="258.69,586.9187,262.69,577.9187,258.69,581.9187,254.69,577.9187,258.69,586.9187" style="stroke:#181818;stroke-width:1;"/></g><!--link system__active__processing to system__active__waiting--><g class="link" data-entity-1="ent0006" data-entity-2="ent0007" data-link-type="dependency" data-source-line="27" id="lnk7"><path d="M113.14,640.2787 C65.11,650.3887 30,668.3787 56.69,700.3987 C68.33,714.3687 96.8227,722.2139 134.0327,727.6339" fill="none" id="system__active__processing-to-system__active__waiting" style="stroke:#181818;stroke-width:1;"/><polygon fill="#181818" points="139.97,728.4987,131.6405,723.2433,135.0222,727.7781,130.4874,731.1597,139.97,728.4987" style="stroke:#181818;stroke-width:1;"/><text fill="#000000" font-family="sans-serif" font-size="13" lengthAdjust="spacing" textLength="178.0962" x="57.69" y="696.4656">Processing.Pause #4E79A7</text></g><!--link system__active__waiting to system__active__processing--><g class="link" data-entity-1="ent0007" data-entity-2="ent0006" data-link-type="dependency" data-source-line="28" id="lnk8"><path d="M258.69,717.9287 C258.69,703.5187 258.69,689.4187 258.69,671.8087" fill="none" id="system__active__waiting-to-system__active__processing" style="stroke:#181818;stroke-width:1;"/><polygon fill="#181818" points="258.69,665.8087,254.69,674.8087,258.69,670.8087,262.69,674.8087,258.69,665.8087" style="stroke:#181818;stroke-width:1;"/><text fill="#000000" font-family="sans-serif" font-size="13" lengthAdjust="spacing" textLength="171.063" x="259.69" y="696.4656">Waiting.Resume #E15759</text></g><g class="entity" data-qualified-name="system.system__error" id="ent0008"><rect fill="#F1F1F1" height="78.2031" rx="12.5" ry="12.5" style="stroke:#181818;stroke-width:0.5;" width="221.0645" x="471.64" y="899.4056"/><line style="stroke:#181818;stroke-width:0.5;" x1="471.64" x2="692.7045" y1="925.7025" y2="925.7025"/><text fill="#000000" font-family="sans-serif" font-size="14" lengthAdjust="spacing" textLength="141.3877" x="511.4784" y="917.4007">Error (System.Error)</text><text fill="#000000" font-family="sans-serif" font-size="12" lengthAdjust="spacing" textLength="43.459" x="476.64" y="941.8412">enter {</text><text fill="#000000" font-family="sans-serif" font-size="12" lengthAdjust="spacing" textLength="185.8066" x="491.8978" y="955.8099">error_count = error_count + 1;</text><text fill="#000000" font-family="sans-serif" font-size="12" lengthAdjust="spacing" textLength="7.6348" x="476.64" y="969.7787">}</text></g><g class="start_entity" data-qualified-name="system..start.system" data-source-line="36" id="ent0012"><ellipse cx="573.17" cy="202.7956" fill="#222222" rx="10" ry="10" style="stroke:#222222;stroke-width:1;"/></g><!--link system__idle to system__error--><g class="link" data-entity-1="ent0004" data-entity-2="ent0008" data-link-type="dependency" data-source-line="33" id="lnk9"><path d="M629.31,328.3556 C634.05,333.7356 638.17,339.6356 641.17,345.9956 C656.71,378.9656 641.73,391.5556 641.17,427.9956 C638.28,614.0256 639.01,660.6756 628.17,846.4056 C627.26,861.9856 630.81,866.8456 625.17,881.4056 C622.82,887.4656 622.8473,888.3803 619.2173,894.0203" fill="none" id="system__idle-to-system__error" style="stroke:#181818;stroke-width:1;"/><polygon fill="#181818" points="615.97,899.0656,624.2044,893.6625,618.676,894.8612,617.4773,889.3328,615.97,899.0656" style="stroke:#181818;stroke-width:1;"/><text fill="#000000" font-family="sans-serif" font-size="13" lengthAdjust="spacing" textLength="130.2666" x="641.17" y="650.7725">FatalError #76B7B2</text></g><!--link system__active to system__error--><g class="link" data-entity-1="ent0005" data-entity-2="ent0008" data-link-type="dependency" data-source-line="34" id="lnk10"><path d="M348.19,846.7956 C355.01,859.3956 363.24,871.1156 373.17,881.4056 C398.86,908.0356 429.865,921.2098 465.495,928.8998" fill="none" id="system__active-to-system__error" style="stroke:#181818;stroke-width:1;"/><polygon fill="#181818" points="471.36,930.1656,463.4065,924.3569,466.4725,929.1108,461.7187,932.1769,471.36,930.1656" style="stroke:#181818;stroke-width:1;"/><text fill="#000000" font-family="sans-serif" font-size="13" lengthAdjust="spacing" textLength="130.2666" x="374.17" y="877.4725">FatalError #76B7B2</text></g><!--link system__error to system__error--><g class="link" data-entity-1="ent0008" data-entity-2="ent0008" data-link-type="dependency" data-source-line="35" id="lnk11"><path d="M692.78,928.4756 C703.73,930.4856 710.7,933.8256 710.7,938.5056 C710.7,943.1856 709.6314,945.4424 698.6814,947.4524" fill="none" id="system__error-to-system__error" style="stroke:#181818;stroke-width:1;"/><polygon fill="#181818" points="692.78,948.5356,702.3543,950.845,697.6978,947.6329,700.9099,942.9765,692.78,948.5356" style="stroke:#181818;stroke-width:1;"/><text fill="#000000" font-family="sans-serif" font-size="13" lengthAdjust="spacing" textLength="130.2666" x="716.7" y="943.0725">FatalError #76B7B2</text></g><!--link *start*system to system__idle--><g class="link" data-entity-1="ent0012" data-entity-2="ent0004" data-link-type="dependency" data-source-line="36" id="lnk13"><path d="M573.17,213.1156 C573.17,222.0156 573.17,230.0256 573.17,243.5256" fill="none" id="*start*system-to-system__idle" style="stroke:#181818;stroke-width:1;"/><polygon fill="#181818" points="573.17,249.5256,577.17,240.5256,573.17,244.5256,569.17,240.5256,573.17,249.5256" style="stroke:#181818;stroke-width:1;"/></g><!--link system__idle to system__active--><g class="link" data-entity-1="ent0004" data-entity-2="ent0005" data-link-type="dependency" data-source-line="37" id="lnk14"><path d="M501.37,298.3156 C442.08,306.8556 364.47,322.2256 344.17,345.9956 C320.3,373.9456 308.6162,403.2591 302.8662,439.6591" fill="none" id="system__idle-to-system__active" style="stroke:#181818;stroke-width:1;"/><polygon fill="#181818" points="301.93,445.5856,307.2853,437.32,302.7102,440.6469,299.3833,436.0717,301.93,445.5856" style="stroke:#181818;stroke-width:1;"/><text fill="#000000" font-family="sans-serif" font-size="13" lengthAdjust="spacing" textLength="124.0649" x="345.17" y="391.5625">Idle.Start #59A14F</text></g><!--link system__active to system__idle--><g class="link" data-entity-1="ent0005" data-entity-2="ent0004" data-link-type="dependency" data-source-line="38" id="lnk15"><path d="M460.49,445.7456 C463.83,439.8156 467.07,433.8956 470.17,427.9956 C488.31,393.5256 478.05,377.3656 501.17,345.9956 C505.78,339.7456 506.8811,337.9375 512.7311,332.4575" fill="none" id="system__active-to-system__idle" style="stroke:#181818;stroke-width:1;"/><polygon fill="#181818" points="517.11,328.3556,507.8071,331.5892,513.461,331.7739,513.2763,337.4277,517.11,328.3556" style="stroke:#181818;stroke-width:1;"/><text fill="#000000" font-family="sans-serif" font-size="13" lengthAdjust="spacing" textLength="138.5757" x="502.17" y="359.0625">Active.Stop #F28E2B</text><path d="M511.7794,368.1284 L511.7794,423.1284 L630.7794,423.1284 L630.7794,378.1284 L620.7794,368.1284 L511.7794,368.1284" fill="#FEFFDD" style="stroke:#181818;stroke-width:0.5;"/><path d="M620.7794,368.1284 L620.7794,378.1284 L630.7794,378.1284 L620.7794,368.1284" fill="#FEFFDD" style="stroke:#181818;stroke-width:0.5;"/><text fill="#000000" font-family="sans-serif" font-size="13" lengthAdjust="spacing" textLength="49.7974" x="517.7794" y="385.1953">effect {</text><text fill="#000000" font-family="sans-serif" font-size="13" lengthAdjust="spacing" textLength="81.8276" x="534.3087" y="400.3281">counter = 0;</text><text fill="#000000" font-family="sans-serif" font-size="13" lengthAdjust="spacing" textLength="8.271" x="517.7794" y="415.461">}</text></g><!--link system__active to system__error--><g class="link" data-entity-1="ent0005" data-entity-2="ent0008" data-link-type="dependency" data-source-line="44" id="lnk16"><path d="M500.04,846.8456 C517.72,866.3656 529.981,879.8996 543.311,894.6096" fill="none" id="system__active-to-system__error-1" style="stroke:#181818;stroke-width:1;"/><polygon fill="#181818" points="547.34,899.0556,544.2606,889.7006,543.9825,895.3506,538.3325,895.0725,547.34,899.0556" style="stroke:#181818;stroke-width:1;"/><text fill="#000000" font-family="sans-serif" font-size="13" lengthAdjust="spacing" textLength="93.9897" x="527.17" y="877.4725">counter &gt; 100</text></g><!--link system__error to system__idle--><g class="link" data-entity-1="ent0008" data-entity-2="ent0004" data-link-type="dependency" data-source-line="45" id="lnk17"><path d="M693.11,910.2456 C725.45,896.5856 757.17,876.3156 776.17,846.4056 C871.58,696.1856 850.98,607.4656 776.17,445.9956 C750.14,389.8256 697.6306,351.4612 650.3406,325.5212" fill="none" id="system__error-to-system__idle" style="stroke:#181818;stroke-width:1;"/><polygon fill="#181818" points="645.08,322.6356,651.0471,330.471,649.4638,325.0403,654.8946,323.4569,645.08,322.6356" style="stroke:#181818;stroke-width:1;"/><text fill="#000000" font-family="sans-serif" font-size="13" lengthAdjust="spacing" textLength="102.5908" x="841.17" y="650.7725">error_count &lt; 3</text></g><g class="start_entity" data-qualified-name=".start." data-source-line="48" id="ent0018"><ellipse cx="490.38" cy="41.27" fill="#222222" rx="10" ry="10" style="stroke:#222222;stroke-width:1;"/></g><g class="end_entity" data-qualified-name=".end." data-source-line="49" id="ent0020"><ellipse cx="490.38" cy="1061.61" fill="none" rx="11" ry="11" style="stroke:#222222;stroke-width:1;"/><ellipse cx="490.38" cy="1061.61" fill="#222222" rx="6" ry="6" style="stroke:#222222;stroke-width:1;"/></g><!--link *start* to system--><g class="link" data-entity-1="ent0018" data-entity-2="ent0003" data-link-type="dependency" data-source-line="48" id="lnk19"><path d="M490.38,51.74 C490.38,66.37 490.38,90.93 490.38,130.18" fill="none" id="*start*-to-system" style="stroke:#181818;stroke-width:1;"/><polygon fill="#181818" points="490.38,136.18,494.38,127.18,490.38,131.18,486.38,127.18,490.38,136.18" style="stroke:#181818;stroke-width:1;"/></g><!--link system to *end*--><g class="link" data-entity-1="ent0003" data-entity-2="ent0020" data-link-type="dependency" data-source-line="49" id="lnk21"><path d="M490.38,990.85 C490.38,1017.87 490.38,1032.9 490.38,1044.52" fill="none" id="system-to-*end*" style="stroke:#181818;stroke-width:1;"/><polygon fill="#181818" points="490.38,1050.52,494.38,1041.52,490.38,1045.52,486.38,1041.52,490.38,1050.52" style="stroke:#181818;stroke-width:1;"/></g><?plantuml-src fLNRRjf047ttLup2IoyA3JIKGYWIj11LQgkeFFIXgT1Y3sI5lMljhbEXY7_lNknuRKn2soUySpbpPcRtS4SZ14nIjOC8PIXegYXdGI2tbAL4a0Ia8WhX8G2Oad2x4JnZqKSUSp4QfHApY8_7y8LkxjIr8Bkcg90dAPTKOH4uZJCqWLn4AEfGESgSCxLGknWz5rKafc6m3mB6DIKYuHEkAQE6yJTj2I9pH6d9Wkvd3PGf23KNXG8-mCLLnO52SB6qRkVS1yWYCE1w0BRjiyLEAapWXVjzUMQgIcUhTkPgvbcVenYBdBOv-8dB9TKM5-uPO0XeUJxSCkFpQT-olGy_2HMzBmkuOxK4SI5D73sW6y53b9AoJGsiNNgQS9VBzD5VOXuDqQr5cJ0V1xqLNw-XKxRfCVn1z7eFwUNcPcw_dVCKOkVdO_ZvwfSc-6PEzFMQcIi1hVwxQN_QFGgG5pWnsqIOoFyROHD2mMC8vRhQDoIJ2AtBMNymwP_KmfEBooVT_euoIpJkhDFhzmOMTnyS8fUhNk6Q2tnou_LxxUPNhDgUgXksBxPIrLhgJwVwiFrJfQZ_-Fmv59X7Tbfh-1yoNTXV9DQlKBE07EvI8nhrQIyK4GfQlS6aSpb_hebSZFANjb0yXTQy-txMdTfCgxsSGKpPrXfmlSPGUU9o8BXkte_QUk8G2vYnbeQBP-PN2AYtwX6yrOAUQ_KGjFnLBoPPIILqURYE-Oh4Nxd-8-7YAgZEkW38d_eV?></g></svg>