<?plantuml 1.2026.3beta3?><svg xmlns="http://www.w3.org/2000/svg" xmlns:xlink="http://www.w3.org/1999/xlink" contentStyleType="text/css" data-diagram-type="STATE" height="1123px" preserveAspectRatio="none" style="width:700px;height:1123px;background:#FFFFFF;" version="1.1" viewBox="0 0 700 1123" width="700px" zoomAndPan="magnify"><defs/><g><g class="legend" data-source-line="10"><rect fill="#DDDDDD" height="62.8906" rx="7.5" ry="7.5" style="stroke:#000000;stroke-width:1;" width="252.6621" x="12" y="12"/><text fill="#000000" font-family="sans-serif" font-size="14" font-weight="bold" lengthAdjust="spacing" textLength="65.748" x="21.874" y="31.9951">Variable</text><text fill="#000000" font-family="sans-serif" font-size="14" font-weight="bold" lengthAdjust="spacing" textLength="38.1924" x="111.7188" y="31.9951">Type</text><text fill="#000000" font-family="sans-serif" font-size="14" font-weight="bold" lengthAdjust="spacing" textLength="95.1289" x="159.6592" y="31.9951">Initial Value</text><text fill="#000000" font-family="sans-serif" font-size="14" lengthAdjust="spacing" textLength="53.8672" x="21.4502" y="48.292">counter</text><text fill="#000000" font-family="sans-serif" font-size="14" lengthAdjust="spacing" textLength="18.252" x="111.2949" y="48.292">int</text><text fill="#000000" font-family="sans-serif" font-size="14" lengthAdjust="spacing" textLength="8.9072" x="159.2354" y="48.292">0</text><text fill="#000000" font-family="sans-serif" font-size="14" lengthAdjust="spacing" textLength="80.9443" x="21.4502" y="64.5889">error_count</text><text fill="#000000" font-family="sans-serif" font-size="14" lengthAdjust="spacing" textLength="18.252" x="111.2949" y="64.5889">int</text><text fill="#000000" font-family="sans-serif" font-size="14" lengthAdjust="spacing" textLength="8.9072" x="159.2354" y="64.5889">0</text><line style="stroke:#000000;stroke-width:1;" x1="17" x2="259.6621" y1="19" y2="19"/><line style="stroke:#000000;stroke-width:1;" x1="17" x2="259.6621" y1="35.2969" y2="35.2969"/><line style="stroke:#000000;stroke-width:1;" x1="17" x2="259.6621" y1="51.5938" y2="51.5938"/><line style="stroke:#000000;stroke-width:1;" x1="17" x2="259.6621" y1="67.8906" y2="67.8906"/><line style="stroke:#000000;stroke-width:1;" x1="17" x2="17" y1="19" y2="67.8906"/><line style="stroke:#000000;stroke-width:1;" x1="106.8447" x2="106.8447" y1="19" y2="67.8906"/><line style="stroke:#000000;stroke-width:1;" x1="154.7852" x2="154.7852" y1="19" y2="67.8906"/><line style="stroke:#000000;stroke-width:1;" x1="259.6621" x2="259.6621" y1="19" y2="67.8906"/></g><path d="M19.5,173.8906 L673.1808,173.8906 A12.5,12.5 0 0 1 685.6808,186.3906 L685.6808,219.1563 L7,219.1563 L7,186.3906 A12.5,12.5 0 0 1 19.5,173.8906" fill="#ADD8E6"/><rect fill="none" height="854.0787" rx="12.5" ry="12.5" style="stroke:#181818;stroke-width:0.5;" width="678.6808" x="7" y="173.8906"/><line style="stroke:#181818;stroke-width:0.5;" x1="7" x2="685.6808" y1="219.1563" y2="219.1563"/><line style="stroke:#181818;stroke-width:0.5;" x1="7" x2="685.6808" y1="200.1875" y2="200.1875"/><text fill="#000000" font-family="sans-serif" font-size="14" lengthAdjust="spacing" textLength="119.7861" x="286.4473" y="191.8857">System (System)</text><text fill="#000000" font-family="sans-serif" font-size="12" lengthAdjust="spacing" textLength="250.418" x="12" y="211.3262">&gt;&gt; during before abstract GlobalMonitor;</text><g class="entity" data-qualified-name="system.system__idle" id="ent0003"><rect fill="#F1F1F1" height="78.2031" rx="12.5" ry="12.5" style="stroke:#181818;stroke-width:0.5;" width="143.0674" x="285.55" y="287.1563"/><line style="stroke:#181818;stroke-width:0.5;" x1="285.55" x2="428.6174" y1="313.4531" y2="313.4531"/><text fill="#000000" font-family="sans-serif" font-size="14" lengthAdjust="spacing" textLength="123.0674" x="295.55" y="305.1514">Idle (System.Idle)</text><text fill="#000000" font-family="sans-serif" font-size="12" lengthAdjust="spacing" textLength="43.459" x="290.55" y="329.5918">enter {</text><text fill="#000000" font-family="sans-serif" font-size="12" lengthAdjust="spacing" textLength="75.5332" x="305.8078" y="343.5605">counter = 0;</text><text fill="#000000" font-family="sans-serif" font-size="12" lengthAdjust="spacing" textLength="7.6348" x="290.55" y="357.5293">}</text></g><path d="M31.5,483.3562 L380.6707,483.3562 A12.5,12.5 0 0 1 393.1707,495.8562 L393.1707,556.5594 L19,556.5594 L19,495.8562 A12.5,12.5 0 0 1 31.5,483.3562" fill="#ADD8E6"/><rect fill="none" height="400.4031" rx="12.5" ry="12.5" style="stroke:#181818;stroke-width:0.5;" width="374.1707" x="19" y="483.3562"/><line style="stroke:#181818;stroke-width:0.5;" x1="19" x2="393.1707" y1="556.5594" y2="556.5594"/><line style="stroke:#181818;stroke-width:0.5;" x1="19" x2="393.1707" y1="509.6531" y2="509.6531"/><text fill="#000000" font-family="sans-serif" font-size="14" lengthAdjust="spacing" textLength="159.1338" x="126.5184" y="501.3514">Active (System.Active)</text><text fill="#000000" font-family="sans-serif" font-size="12" lengthAdjust="spacing" textLength="92.8594" x="24" y="520.7918">during before {</text><text fill="#000000" font-family="sans-serif" font-size="12" lengthAdjust="spacing" textLength="139.3887" x="39.2578" y="534.7605">counter = counter + 1;</text><text fill="#000000" font-family="sans-serif" font-size="12" lengthAdjust="spacing" textLength="7.6348" x="24" y="548.7293">}</text><g class="entity" data-qualified-name="system.system__active.system__active__processing" id="ent0005"><rect fill="#F1F1F1" height="78.2031" rx="12.5" ry="12.5" style="stroke:#181818;stroke-width:0.5;" width="290.6553" x="35.14" y="624.5594"/><line style="stroke:#181818;stroke-width:0.5;" x1="35.14" x2="325.7953" y1="650.8562" y2="650.8562"/><text fill="#000000" font-family="sans-serif" font-size="14" lengthAdjust="spacing" textLength="270.6553" x="45.14" y="642.5545">Processing (System.Active.Processing)</text><text fill="#000000" font-family="sans-serif" font-size="12" lengthAdjust="spacing" textLength="50.1621" x="40.14" y="666.9949">during {</text><text fill="#000000" font-family="sans-serif" font-size="12" lengthAdjust="spacing" textLength="147.0234" x="55.3978" y="680.9637">counter = counter + 10;</text><text fill="#000000" font-family="sans-serif" font-size="12" lengthAdjust="spacing" textLength="7.6348" x="40.14" y="694.9324">}</text></g><rect fill="#F1F1F1" height="40" rx="12.5" ry="12.5" style="stroke:#181818;stroke-width:0.5;" width="236.9326" x="31" y="755.7594"/><text fill="#000000" font-family="sans-serif" font-size="14" lengthAdjust="spacing" textLength="226.9326" x="36" y="780.6061">Waiting (System.Active.Waiting)</text><g class="end_entity" data-qualified-name="system.system__active..end.system__active" data-source-line="23" id="ent0002"><ellipse cx="226.47" cy="859.7594" fill="none" rx="11" ry="11" style="stroke:#222222;stroke-width:1;"/><ellipse cx="226.47" cy="859.7594" fill="#222222" rx="6" ry="6" style="stroke:#222222;stroke-width:1;"/></g><g class="start_entity" data-qualified-name="system.system__active..start.system__active" data-source-line="25" id="ent0005"><ellipse cx="180.47" cy="577.5594" fill="#222222" rx="10" ry="10" style="stroke:#222222;stroke-width:1;"/></g><!--link system__active__processing to *end*system__active--><g class="link" data-entity-1="ent0005" data-entity-2="ent0002" data-link-type="dependency" data-source-line="23" id="lnk3"><path d="M262.38,703.1794 C267.89,708.3894 272.72,714.2294 276.47,720.7594 C300.82,763.1894 298.82,789.5394 272.47,830.7594 C264.21,843.6794 253.2817,849.4697 242.4517,853.4497" fill="none" id="system__active__processing-to-*end*system__active" style="stroke:#4E79A7;stroke-width:1;"/><polygon fill="#4E79A7" points="236.82,855.5194,246.6474,856.1694,241.5131,853.7947,243.8878,848.6604,236.82,855.5194" style="stroke:#4E79A7;stroke-width:1;"/><text fill="#000000" font-family="sans-serif" font-size="13" lengthAdjust="spacing" textLength="68.7007" x="294.47" y="780.3263">/FatalError</text></g><!--link system__active__waiting to *end*system__active--><g class="link" data-entity-1="ent0006" data-entity-2="ent0002" data-link-type="dependency" data-source-line="24" id="lnk4"><path d="M167.71,796.1894 C184.26,813.8094 203.6738,834.4846 215.2938,846.8646" fill="none" id="system__active__waiting-to-*end*system__active" style="stroke:#4E79A7;stroke-width:1;"/><polygon fill="#4E79A7" points="219.4,851.2394,216.1572,841.9397,215.9781,847.5937,210.3241,847.4147,219.4,851.2394" style="stroke:#4E79A7;stroke-width:1;"/><text fill="#000000" font-family="sans-serif" font-size="13" lengthAdjust="spacing" textLength="68.7007" x="199.47" y="826.8263">/FatalError</text></g><!--link *start*system__active to system__active__processing--><g class="link" data-entity-1="ent0005" data-entity-2="ent0005" data-link-type="dependency" data-source-line="25" id="lnk6"><path d="M180.47,587.8794 C180.47,596.7694 180.47,604.7794 180.47,618.2794" fill="none" id="*start*system__active-to-system__active__processing" style="stroke:#181818;stroke-width:1;"/><polygon fill="#181818" points="180.47,624.2794,184.47,615.2794,180.47,619.2794,176.47,615.2794,180.47,624.2794" style="stroke:#181818;stroke-width:1;"/></g><!--link system__active__processing to system__active__waiting--><g class="link" data-entity-1="ent0005" data-entity-2="ent0006" data-link-type="dependency" data-source-line="26" id="lnk7"><path d="M60.17,703.2394 C54.2,708.3694 48.87,714.1794 44.47,720.7594 C34.26,736.0094 38.6122,744.611 55.6322,752.711" fill="none" id="system__active__processing-to-system__active__waiting" style="stroke:#181818;stroke-width:1;"/><polygon fill="#181818" points="61.05,755.2894,54.6423,747.81,56.5352,753.1407,51.2045,755.0337,61.05,755.2894" style="stroke:#181818;stroke-width:1;"/><text fill="#000000" font-family="sans-serif" font-size="13" lengthAdjust="spacing" textLength="112.8804" x="45.47" y="733.8263">Processing.Pause</text></g><!--link system__active__waiting to system__active__processing--><g class="link" data-entity-1="ent0006" data-entity-2="ent0005" data-link-type="dependency" data-source-line="27" id="lnk8"><path d="M154.95,755.2894 C159.01,740.8794 163.0464,726.5555 167.9964,708.9455" fill="none" id="system__active__waiting-to-system__active__processing" style="stroke:#181818;stroke-width:1;"/><polygon fill="#181818" points="169.62,703.1694,163.3338,710.7512,168.267,707.9828,171.0353,712.916,169.62,703.1694" style="stroke:#181818;stroke-width:1;"/><text fill="#000000" font-family="sans-serif" font-size="13" lengthAdjust="spacing" textLength="106.4692" x="165.47" y="733.8263">Waiting.Resume</text></g><g class="entity" data-qualified-name="system.system__error" id="ent0007"><rect fill="#F1F1F1" height="78.2031" rx="12.5" ry="12.5" style="stroke:#181818;stroke-width:0.5;" width="221.0645" x="257.55" y="936.7662"/><line style="stroke:#181818;stroke-width:0.5;" x1="257.55" x2="478.6145" y1="963.0631" y2="963.0631"/><text fill="#000000" font-family="sans-serif" font-size="14" lengthAdjust="spacing" textLength="141.3877" x="297.3884" y="954.7614">Error (System.Error)</text><text fill="#000000" font-family="sans-serif" font-size="12" lengthAdjust="spacing" textLength="43.459" x="262.55" y="979.2018">enter {</text><text fill="#000000" font-family="sans-serif" font-size="12" lengthAdjust="spacing" textLength="185.8066" x="277.8078" y="993.1705">error_count = error_count + 1;</text><text fill="#000000" font-family="sans-serif" font-size="12" lengthAdjust="spacing" textLength="7.6348" x="262.55" y="1007.1393">}</text></g><g class="start_entity" data-qualified-name="system..start.system" data-source-line="35" id="ent0012"><ellipse cx="357.09" cy="240.1563" fill="#222222" rx="10" ry="10" style="stroke:#222222;stroke-width:1;"/></g><!--link system__idle to system__error--><g class="link" data-entity-1="ent0003" data-entity-2="ent0007" data-link-type="dependency" data-source-line="32" id="lnk9"><path d="M404.27,365.5862 C408.63,371.0862 412.41,377.0363 415.09,383.3562 C438.31,438.1262 435.41,862.8562 415.09,918.7662 C412.87,924.8562 413.0065,925.7595 409.3065,931.2895" fill="none" id="system__idle-to-system__error" style="stroke:#4E79A7;stroke-width:1;"/><polygon fill="#4E79A7" points="405.97,936.2762,414.2993,931.0205,408.7504,932.1206,407.6503,926.5718,405.97,936.2762" style="stroke:#4E79A7;stroke-width:1;"/><text fill="#000000" font-family="sans-serif" font-size="13" lengthAdjust="spacing" textLength="64.3208" x="432.09" y="688.1331">FatalError</text></g><!--link system__active to system__error--><g class="link" data-entity-1="ent0004" data-entity-2="ent0007" data-link-type="dependency" data-source-line="33" id="lnk10"><path d="M206.17,884.0663 C210.97,896.4063 217.18,908.1162 225.09,918.7662 C233.59,930.2163 239.6114,936.306 252.0014,943.556" fill="none" id="system__active-to-system__error" style="stroke:#4E79A7;stroke-width:1;"/><polygon fill="#4E79A7" points="257.18,946.5863,251.4323,938.5885,252.8645,944.0611,247.392,945.4933,257.18,946.5863" style="stroke:#4E79A7;stroke-width:1;"/><text fill="#000000" font-family="sans-serif" font-size="13" lengthAdjust="spacing" textLength="64.3208" x="226.09" y="914.8331">FatalError</text></g><!--link system__error to system__error--><g class="link" data-entity-1="ent0007" data-entity-2="ent0007" data-link-type="dependency" data-source-line="34" id="lnk11"><path d="M478.69,965.8363 C489.65,967.8462 496.62,971.1863 496.62,975.8662 C496.62,980.5463 495.5516,982.8039 484.5916,984.8139" fill="none" id="system__error-to-system__error" style="stroke:#4E79A7;stroke-width:1;"/><polygon fill="#4E79A7" points="478.69,985.8962,488.2639,988.2072,483.608,984.9943,486.8208,980.3384,478.69,985.8962" style="stroke:#4E79A7;stroke-width:1;"/><text fill="#000000" font-family="sans-serif" font-size="13" lengthAdjust="spacing" textLength="64.3208" x="502.62" y="980.4331">FatalError</text></g><!--link *start*system to system__idle--><g class="link" data-entity-1="ent0012" data-entity-2="ent0003" data-link-type="dependency" data-source-line="35" id="lnk13"><path d="M357.09,250.4762 C357.09,259.3762 357.09,267.3862 357.09,280.8862" fill="none" id="*start*system-to-system__idle" style="stroke:#181818;stroke-width:1;"/><polygon fill="#181818" points="357.09,286.8862,361.09,277.8862,357.09,281.8862,353.09,277.8862,357.09,286.8862" style="stroke:#181818;stroke-width:1;"/></g><!--link system__idle to system__active--><g class="link" data-entity-1="ent0003" data-entity-2="ent0004" data-link-type="dependency" data-source-line="36" id="lnk14"><path d="M285.42,334.9562 C254.47,342.2362 221.07,356.2963 202.09,383.3562 C181.65,412.4962 172.8555,441.4714 170.3255,477.0614" fill="none" id="system__idle-to-system__active" style="stroke:#181818;stroke-width:1;"/><polygon fill="#181818" points="169.9,483.0463,174.5281,474.3525,170.2545,478.0588,166.5482,473.7853,169.9,483.0463" style="stroke:#181818;stroke-width:1;"/><text fill="#000000" font-family="sans-serif" font-size="13" lengthAdjust="spacing" textLength="59.5854" x="203.09" y="428.9231">Idle.Start</text></g><!--link system__active to system__idle--><g class="link" data-entity-1="ent0004" data-entity-2="ent0003" data-link-type="dependency" data-source-line="37" id="lnk15"><path d="M258.86,482.9063 C273.24,428.9063 285.18,384.7362 286.09,383.3562 C290.23,377.0563 291.0327,375.3539 296.5627,369.9139" fill="none" id="system__active-to-system__idle" style="stroke:#181818;stroke-width:1;"/><polygon fill="#181818" points="300.84,365.7062,291.6189,369.1663,297.2756,369.2127,297.2292,374.8693,300.84,365.7062" style="stroke:#181818;stroke-width:1;"/><text fill="#000000" font-family="sans-serif" font-size="13" lengthAdjust="spacing" textLength="74.1279" x="313.7045" y="396.4231">Active.Stop</text><path d="M291.09,405.4891 L291.09,460.4891 L410.09,460.4891 L410.09,415.4891 L400.09,405.4891 L291.09,405.4891" fill="#FEFFDD" style="stroke:#181818;stroke-width:0.5;"/><path d="M400.09,405.4891 L400.09,415.4891 L410.09,415.4891 L400.09,405.4891" fill="#FEFFDD" style="stroke:#181818;stroke-width:0.5;"/><text fill="#000000" font-family="sans-serif" font-size="13" lengthAdjust="spacing" textLength="49.7974" x="297.09" y="422.556">effect {</text><text fill="#000000" font-family="sans-serif" font-size="13" lengthAdjust="spacing" textLength="81.8276" x="313.6193" y="437.6888">counter = 0;</text><text fill="#000000" font-family="sans-serif" font-size="13" lengthAdjust="spacing" textLength="8.271" x="297.09" y="452.8216">}</text></g><!--link system__active to system__error--><g class="link" data-entity-1="ent0004" data-entity-2="ent0007" data-link-type="dependency" data-source-line="43" id="lnk16"><path d="M298.89,884.2562 C305.75,896.1062 312.83,907.7063 320.09,918.7662 C323.95,924.6563 324.6298,925.9146 329.1898,931.6346" fill="none" id="system__active-to-system__error-1" style="stroke:#181818;stroke-width:1;"/><polygon fill="#181818" points="332.93,936.3263,330.4475,926.7954,329.8132,932.4166,324.192,931.7823,332.93,936.3263" style="stroke:#181818;stroke-width:1;"/><text fill="#000000" font-family="sans-serif" font-size="13" lengthAdjust="spacing" textLength="93.9897" x="321.09" y="914.8331">counter &gt; 100</text></g><!--link system__error to system__idle--><g class="link" data-entity-1="ent0007" data-entity-2="ent0003" data-link-type="dependency" data-source-line="44" id="lnk17"><path d="M450.6,936.3363 C470.73,922.7262 489.73,905.3063 501.09,883.7662 C584.07,726.3363 552.85,653.6263 501.09,483.3562 C485.52,432.1763 471.16,421.9263 434.09,383.3562 C428.12,377.1563 426.0675,374.9488 419.1475,369.3288" fill="none" id="system__error-to-system__idle" style="stroke:#181818;stroke-width:1;"/><polygon fill="#181818" points="414.49,365.5463,418.9546,374.3251,418.3713,368.6984,423.998,368.1151,414.49,365.5463" style="stroke:#181818;stroke-width:1;"/><text fill="#000000" font-family="sans-serif" font-size="13" lengthAdjust="spacing" textLength="102.5908" x="553.09" y="688.1331">error_count &lt; 3</text></g><g class="start_entity" data-qualified-name=".start." data-source-line="47" id="ent0018"><ellipse cx="346.34" cy="103.8906" fill="#222222" rx="10" ry="10" style="stroke:#222222;stroke-width:1;"/></g><g class="end_entity" data-qualified-name=".end." data-source-line="48" id="ent0020"><ellipse cx="346.34" cy="1098.9706" fill="none" rx="11" ry="11" style="stroke:#222222;stroke-width:1;"/><ellipse cx="346.34" cy="1098.9706" fill="#222222" rx="6" ry="6" style="stroke:#222222;stroke-width:1;"/></g><!--link *start* to system--><g class="link" data-entity-1="ent0018" data-entity-2="ent0002" data-link-type="dependency" data-source-line="47" id="lnk19"><path d="M346.34,114.3406 C346.34,125.7006 346.34,140.6706 346.34,167.7506" fill="none" id="*start*-to-system" style="stroke:#181818;stroke-width:1;"/><polygon fill="#181818" points="346.34,173.7506,350.34,164.7506,346.34,168.7506,342.34,164.7506,346.34,173.7506" style="stroke:#181818;stroke-width:1;"/></g><!--link system to *end*--><g class="link" data-entity-1="ent0002" data-entity-2="ent0020" data-link-type="dependency" data-source-line="48" id="lnk21"><path d="M346.34,1028.2106 C346.34,1055.2306 346.34,1070.2606 346.34,1081.8806" fill="none" id="system-to-*end*" style="stroke:#181818;stroke-width:1;"/><polygon fill="#181818" points="346.34,1087.8806,350.34,1078.8806,346.34,1082.8806,342.34,1078.8806,346.34,1087.8806" style="stroke:#181818;stroke-width:1;"/></g><?plantuml-src fLLPQzj047xNhnZSbnvOTMaXrB4DIKb2e8LGb_OX2M8jZPt5grsnkseHiVzxHfUrEdAqVP6qStpppSpEw8v721WdDeC8JQXvOhcIdcUsN2PCinYCPHRXtWCuPU5serKgeozAA3sR9GRJI2qMy9Llxko5PjcGLQZYH1bkiJOy5IdcXaf7gBjG5SgvadPfCu6EYbicUEZjFK_W1cK4LYKWS6sztHn-CitPIY3GzuyiATwNablE1Eae8koy7OJ4owA67N1fwJaffAYrqa6XQsaeHXc9wb5KORJCZCKONfVlDoDW1amfQoUQrmkgseqk2QRsyVE3wnW4d2IbkIE0AM11zVv6vhgQ-HmcnpToxyAVX9R_RWAKntO8LfeCSNI0hhGAqHWkDnqmlz4CuGP1Sj0tc8-QK6fHglEFNcxrrpluqAJfCFp5gADzUfLucDkVKlaIOkFhLv_EZZwV7DsE5t3zzfQOlZzdTEtEyXloA48LuQNkkMPC5lzNn264ciWKceRvLomr-3pt9maHObLZ_pkQD2xnzbuViMdk2jTAuvCzxjxaeaw7vXQdTa_nKCYMf3iixa3FMwTMK7VSMhthWdUQsCduNrnBzTzuTc_DyDRejv6GyfNZBotJTf1-1vGSgh5Qqe8jFAIYxYW9Wijj8S3r6aFhR11tFJbt8z_IkVDpSUkSQvW5pVzag61zhcvtP_2HVW_LGfu2xRZsNMGhOpM5XmkXLanyK_I3KFhOQzUs1XYNK_m0?></g></svg>