<?plantuml 1.2026.3beta3?><svg xmlns="http://www.w3.org/2000/svg" xmlns:xlink="http://www.w3.org/1999/xlink" contentStyleType="text/css" data-diagram-type="STATE" height="943px" preserveAspectRatio="none" style="width:712px;height:943px;background:#FFFFFF;" version="1.1" viewBox="0 0 712 943" width="712px" zoomAndPan="magnify"><defs/><g><g class="legend" data-source-line="10"><rect fill="#DDDDDD" height="62.8906" rx="7.5" ry="7.5" style="stroke:#000000;stroke-width:1;" width="252.6621" x="12" y="12"/><text fill="#000000" font-family="sans-serif" font-size="14" font-weight="bold" lengthAdjust="spacing" textLength="65.748" x="21.874" y="31.9951">Variable</text><text fill="#000000" font-family="sans-serif" font-size="14" font-weight="bold" lengthAdjust="spacing" textLength="38.1924" x="111.7188" y="31.9951">Type</text><text fill="#000000" font-family="sans-serif" font-size="14" font-weight="bold" lengthAdjust="spacing" textLength="95.1289" x="159.6592" y="31.9951">Initial Value</text><text fill="#000000" font-family="sans-serif" font-size="14" lengthAdjust="spacing" textLength="53.8672" x="21.4502" y="48.292">counter</text><text fill="#000000" font-family="sans-serif" font-size="14" lengthAdjust="spacing" textLength="18.252" x="111.2949" y="48.292">int</text><text fill="#000000" font-family="sans-serif" font-size="14" lengthAdjust="spacing" textLength="8.9072" x="159.2354" y="48.292">0</text><text fill="#000000" font-family="sans-serif" font-size="14" lengthAdjust="spacing" textLength="80.9443" x="21.4502" y="64.5889">error_count</text><text fill="#000000" font-family="sans-serif" font-size="14" lengthAdjust="spacing" textLength="18.252" x="111.2949" y="64.5889">int</text><text fill="#000000" font-family="sans-serif" font-size="14" lengthAdjust="spacing" textLength="8.9072" x="159.2354" y="64.5889">0</text><line style="stroke:#000000;stroke-width:1;" x1="17" x2="259.6621" y1="19" y2="19"/><line style="stroke:#000000;stroke-width:1;" x1="17" x2="259.6621" y1="35.2969" y2="35.2969"/><line style="stroke:#000000;stroke-width:1;" x1="17" x2="259.6621" y1="51.5938" y2="51.5938"/><line style="stroke:#000000;stroke-width:1;" x1="17" x2="259.6621" y1="67.8906" y2="67.8906"/><line style="stroke:#000000;stroke-width:1;" x1="17" x2="17" y1="19" y2="67.8906"/><line style="stroke:#000000;stroke-width:1;" x1="106.8447" x2="106.8447" y1="19" y2="67.8906"/><line style="stroke:#000000;stroke-width:1;" x1="154.7852" x2="154.7852" y1="19" y2="67.8906"/><line style="stroke:#000000;stroke-width:1;" x1="259.6621" x2="259.6621" y1="19" y2="67.8906"/></g><path d="M19.5,173.8906 L685.2108,173.8906 A12.5,12.5 0 0 1 697.7108,186.3906 L697.7108,200.1875 L7,200.1875 L7,186.3906 A12.5,12.5 0 0 1 19.5,173.8906" fill="#ADD8E6"/><rect fill="none" height="673.5969" rx="12.5" ry="12.5" style="stroke:#181818;stroke-width:0.5;" width="690.7108" x="7" y="173.8906"/><line style="stroke:#181818;stroke-width:0.5;" x1="7" x2="697.7108" y1="200.1875" y2="200.1875"/><text fill="#000000" font-family="sans-serif" font-size="14" lengthAdjust="spacing" textLength="52.2061" x="326.2524" y="191.8857">System</text><rect fill="#F1F1F1" height="40" rx="12.5" ry="12.5" style="stroke:#181818;stroke-width:0.5;" width="50" x="355.12" y="268.1875"/><text fill="#000000" font-family="sans-serif" font-size="14" lengthAdjust="spacing" textLength="25.5186" x="367.3607" y="293.0342">Idle</text><path d="M31.5,426.1875 L404.7407,426.1875 A12.5,12.5 0 0 1 417.2407,438.6875 L417.2407,452.4844 L19,452.4844 L19,438.6875 A12.5,12.5 0 0 1 31.5,426.1875" fill="#ADD8E6"/><rect fill="none" height="315.2969" rx="12.5" ry="12.5" style="stroke:#181818;stroke-width:0.5;" width="398.2407" x="19" y="426.1875"/><line style="stroke:#181818;stroke-width:0.5;" x1="19" x2="417.2407" y1="452.4844" y2="452.4844"/><text fill="#000000" font-family="sans-serif" font-size="14" lengthAdjust="spacing" textLength="43.5518" x="196.3445" y="444.1826">Active</text><rect fill="#F1F1F1" height="40" rx="12.5" ry="12.5" style="stroke:#181818;stroke-width:0.5;" width="85.3115" x="151.89" y="520.4844"/><text fill="#000000" font-family="sans-serif" font-size="14" lengthAdjust="spacing" textLength="75.3115" x="156.89" y="545.3311">Processing</text><rect fill="#F1F1F1" height="40" rx="12.5" ry="12.5" style="stroke:#181818;stroke-width:0.5;" width="63.4502" x="162.82" y="613.4844"/><text fill="#000000" font-family="sans-serif" font-size="14" lengthAdjust="spacing" textLength="53.4502" x="167.82" y="638.3311">Waiting</text><g class="end_entity" data-qualified-name="system.system__active..end.system__active" data-source-line="21" id="ent0002"><ellipse cx="255.54" cy="717.4844" fill="none" rx="11" ry="11" style="stroke:#222222;stroke-width:1;"/><ellipse cx="255.54" cy="717.4844" fill="#222222" rx="6" ry="6" style="stroke:#222222;stroke-width:1;"/></g><g class="start_entity" data-qualified-name="system.system__active..start.system__active" data-source-line="23" id="ent0005"><ellipse cx="194.54" cy="473.4844" fill="#222222" rx="10" ry="10" style="stroke:#222222;stroke-width:1;"/></g><!--link system__active__processing to *end*system__active--><g class="link" data-entity-1="ent0005" data-entity-2="ent0002" data-link-type="dependency" data-source-line="21" id="lnk3"><path d="M237.59,544.3444 C261.18,548.3744 288.59,557.6144 303.54,578.4844 C332.02,618.2244 327.89,646.0944 303.54,688.4844 C295.57,702.3744 283.4692,708.2105 271.9292,711.8705" fill="none" id="system__active__processing-to-*end*system__active" style="stroke:#181818;stroke-width:1;"/><polygon fill="#181818" points="266.21,713.6844,275.9981,714.7764,270.976,712.1728,273.5796,707.1507,266.21,713.6844" style="stroke:#181818;stroke-width:1;"/><text fill="#000000" font-family="sans-serif" font-size="13" lengthAdjust="spacing" textLength="68.7007" x="323.54" y="638.0513">/FatalError</text></g><!--link system__active__waiting to *end*system__active--><g class="link" data-entity-1="ent0006" data-entity-2="ent0002" data-link-type="dependency" data-source-line="22" id="lnk4"><path d="M208.25,653.8644 C215.65,664.2144 224.98,677.1244 233.54,688.4844 C238.6,695.1944 240.7632,697.9901 245.1732,703.5301" fill="none" id="system__active__waiting-to-*end*system__active" style="stroke:#181818;stroke-width:1;"/><polygon fill="#181818" points="248.91,708.2244,246.4343,698.6917,245.796,704.3125,240.1753,703.6741,248.91,708.2244" style="stroke:#181818;stroke-width:1;"/><text fill="#000000" font-family="sans-serif" font-size="13" lengthAdjust="spacing" textLength="68.7007" x="234.54" y="684.5513">/FatalError</text></g><!--link *start*system__active to system__active__processing--><g class="link" data-entity-1="ent0005" data-entity-2="ent0005" data-link-type="dependency" data-source-line="23" id="lnk6"><path d="M194.54,483.7944 C194.54,493.2044 194.54,502.0244 194.54,514.0044" fill="none" id="*start*system__active-to-system__active__processing" style="stroke:#181818;stroke-width:1;"/><polygon fill="#181818" points="194.54,520.0044,198.54,511.0044,194.54,515.0044,190.54,511.0044,194.54,520.0044" style="stroke:#181818;stroke-width:1;"/></g><!--link system__active__processing to system__active__waiting--><g class="link" data-entity-1="ent0005" data-entity-2="ent0006" data-link-type="dependency" data-source-line="24" id="lnk7"><path d="M151.73,547.4144 C116.27,553.3044 69.91,563.6144 58.54,578.4844 C30,615.8244 107.7559,626.9576 156.3959,630.5076" fill="none" id="system__active__processing-to-system__active__waiting" style="stroke:#181818;stroke-width:1;"/><polygon fill="#181818" points="162.38,630.9444,153.695,626.2999,157.3933,630.5804,153.1127,634.2786,162.38,630.9444" style="stroke:#181818;stroke-width:1;"/><text fill="#000000" font-family="sans-serif" font-size="13" lengthAdjust="spacing" textLength="112.8804" x="59.54" y="591.5513">Processing.Pause</text></g><!--link system__active__waiting to system__active__processing--><g class="link" data-entity-1="ent0006" data-entity-2="ent0005" data-link-type="dependency" data-source-line="25" id="lnk8"><path d="M194.54,613.2144 C194.54,597.7744 194.54,582.2244 194.54,566.7844" fill="none" id="system__active__waiting-to-system__active__processing" style="stroke:#181818;stroke-width:1;"/><polygon fill="#181818" points="194.54,560.7844,190.54,569.7844,194.54,565.7844,198.54,569.7844,194.54,560.7844" style="stroke:#181818;stroke-width:1;"/><text fill="#000000" font-family="sans-serif" font-size="13" lengthAdjust="spacing" textLength="106.4692" x="195.54" y="591.5513">Waiting.Resume</text></g><rect fill="#F1F1F1" height="40" rx="12.5" ry="12.5" style="stroke:#181818;stroke-width:0.5;" width="50" x="364.12" y="794.4875"/><text fill="#000000" font-family="sans-serif" font-size="14" lengthAdjust="spacing" textLength="34.6787" x="371.7806" y="819.3342">Error</text><g class="start_entity" data-qualified-name="system..start.system" data-source-line="31" id="ent0012"><ellipse cx="380.12" cy="221.1875" fill="#222222" rx="10" ry="10" style="stroke:#222222;stroke-width:1;"/></g><!--link system__idle to system__error--><g class="link" data-entity-1="ent0003" data-entity-2="ent0007" data-link-type="dependency" data-source-line="28" id="lnk9"><path d="M405.52,298.2375 C418.02,304.1275 431.92,313.1775 439.12,326.1875 C463.34,369.9675 461.64,731.8075 439.12,776.4875 C433.82,786.9975 429.0448,792.0665 419.4848,798.0965" fill="none" id="system__idle-to-system__error" style="stroke:#181818;stroke-width:1;"/><polygon fill="#181818" points="414.41,801.2975,424.1562,799.8793,418.639,798.63,419.8883,793.1128,414.41,801.2975" style="stroke:#181818;stroke-width:1;"/><text fill="#000000" font-family="sans-serif" font-size="13" lengthAdjust="spacing" textLength="64.3208" x="457.12" y="588.4044">FatalError</text></g><!--link system__active to system__error--><g class="link" data-entity-1="ent0004" data-entity-2="ent0007" data-link-type="dependency" data-source-line="29" id="lnk10"><path d="M224.71,741.5975 C229.94,754.3375 236.91,766.2275 246.12,776.4875 C261.66,793.8075 321.1079,804.3362 357.8479,809.4762" fill="none" id="system__active-to-system__error" style="stroke:#181818;stroke-width:1;"/><polygon fill="#181818" points="363.79,810.3075,355.431,805.0991,358.8382,809.6147,354.3226,813.0219,363.79,810.3075" style="stroke:#181818;stroke-width:1;"/><text fill="#000000" font-family="sans-serif" font-size="13" lengthAdjust="spacing" textLength="64.3208" x="247.12" y="772.5544">FatalError</text></g><!--link system__error to system__error--><g class="link" data-entity-1="ent0007" data-entity-2="ent0007" data-link-type="dependency" data-source-line="30" id="lnk11"><path d="M414.3,805.8075 C424.03,805.4175 432.12,808.3075 432.12,814.4875 C432.12,820.6675 430.0252,823.7978 420.2952,823.4078" fill="none" id="system__error-to-system__error" style="stroke:#181818;stroke-width:1;"/><polygon fill="#181818" points="414.3,823.1675,423.1326,827.5247,419.296,823.3678,423.453,819.5312,414.3,823.1675" style="stroke:#181818;stroke-width:1;"/><text fill="#000000" font-family="sans-serif" font-size="13" lengthAdjust="spacing" textLength="64.3208" x="438.12" y="819.0544">FatalError</text></g><!--link *start*system to system__idle--><g class="link" data-entity-1="ent0012" data-entity-2="ent0003" data-link-type="dependency" data-source-line="31" id="lnk13"><path d="M380.12,231.5075 C380.12,240.9075 380.12,249.7275 380.12,261.7175" fill="none" id="*start*system-to-system__idle" style="stroke:#181818;stroke-width:1;"/><polygon fill="#181818" points="380.12,267.7175,384.12,258.7175,380.12,262.7175,376.12,258.7175,380.12,267.7175" style="stroke:#181818;stroke-width:1;"/></g><!--link system__idle to system__active--><g class="link" data-entity-1="ent0003" data-entity-2="ent0004" data-link-type="dependency" data-source-line="32" id="lnk14"><path d="M354.84,291.4975 C314.98,295.7175 240.37,306.1275 224.12,326.1875 C201.47,354.1575 192.7848,384.0238 191.1348,420.0138" fill="none" id="system__idle-to-system__active" style="stroke:#181818;stroke-width:1;"/><polygon fill="#181818" points="190.86,426.0075,195.268,417.2001,191.089,421.0127,187.2764,416.8338,190.86,426.0075" style="stroke:#181818;stroke-width:1;"/><text fill="#000000" font-family="sans-serif" font-size="13" lengthAdjust="spacing" textLength="59.5854" x="225.12" y="371.7544">Idle.Start</text></g><!--link system__active to system__idle--><g class="link" data-entity-1="ent0004" data-entity-2="ent0003" data-link-type="dependency" data-source-line="33" id="lnk15"><path d="M278.91,425.9375 C281.04,419.9575 283.11,414.0275 285.12,408.1875 C297.51,372.1575 285.86,355.5675 310.12,326.1875 C321.67,312.1975 334.3278,304.9716 349.2978,299.1516" fill="none" id="system__active-to-system__idle" style="stroke:#181818;stroke-width:1;"/><polygon fill="#181818" points="354.89,296.9775,345.0522,296.5105,350.2298,298.7893,347.9511,303.9669,354.89,296.9775" style="stroke:#181818;stroke-width:1;"/><text fill="#000000" font-family="sans-serif" font-size="13" lengthAdjust="spacing" textLength="74.1279" x="337.7345" y="339.2544">Active.Stop</text><path d="M315.12,348.3203 L315.12,403.3203 L434.12,403.3203 L434.12,358.3203 L424.12,348.3203 L315.12,348.3203" fill="#FEFFDD" style="stroke:#181818;stroke-width:0.5;"/><path d="M424.12,348.3203 L424.12,358.3203 L434.12,358.3203 L424.12,348.3203" fill="#FEFFDD" style="stroke:#181818;stroke-width:0.5;"/><text fill="#000000" font-family="sans-serif" font-size="13" lengthAdjust="spacing" textLength="49.7974" x="321.12" y="365.3872">effect {</text><text fill="#000000" font-family="sans-serif" font-size="13" lengthAdjust="spacing" textLength="81.8276" x="337.6493" y="380.52">counter = 0;</text><text fill="#000000" font-family="sans-serif" font-size="13" lengthAdjust="spacing" textLength="8.271" x="321.12" y="395.6528">}</text></g><!--link system__active to system__error--><g class="link" data-entity-1="ent0004" data-entity-2="ent0007" data-link-type="dependency" data-source-line="39" id="lnk16"><path d="M315.36,741.5775 C324.64,753.7375 334.27,765.5275 344.12,776.4875 C349.93,782.9575 352.2803,785.4532 359.0003,790.9632" fill="none" id="system__active-to-system__error-1" style="stroke:#181818;stroke-width:1;"/><polygon fill="#181818" points="363.64,794.7675,359.2166,785.9679,359.7735,791.5972,354.1442,792.1542,363.64,794.7675" style="stroke:#181818;stroke-width:1;"/><text fill="#000000" font-family="sans-serif" font-size="13" lengthAdjust="spacing" textLength="93.9897" x="345.12" y="772.5544">counter &gt; 100</text></g><!--link system__error to system__idle--><g class="link" data-entity-1="ent0007" data-entity-2="ent0003" data-link-type="dependency" data-source-line="40" id="lnk17"><path d="M414.56,808.4475 C447.03,800.4975 501.88,781.6175 526.12,741.4875 C598.58,621.5475 566.88,560.2675 526.12,426.1875 C510.56,375.0075 499.72,361.0275 459.12,326.1875 C443.49,312.7775 427.8053,305.2275 411.2553,299.1775" fill="none" id="system__error-to-system__idle" style="stroke:#181818;stroke-width:1;"/><polygon fill="#181818" points="405.62,297.1175,412.6996,303.9644,410.3161,298.8342,415.4463,296.4507,405.62,297.1175" style="stroke:#181818;stroke-width:1;"/><text fill="#000000" font-family="sans-serif" font-size="13" lengthAdjust="spacing" textLength="102.5908" x="570.12" y="588.4044">error_count &lt; 3</text></g><g class="start_entity" data-qualified-name=".start." data-source-line="42" id="ent0018"><ellipse cx="352.36" cy="103.8906" fill="#222222" rx="10" ry="10" style="stroke:#222222;stroke-width:1;"/></g><g class="end_entity" data-qualified-name=".end." data-source-line="43" id="ent0020"><ellipse cx="352.36" cy="918.4906" fill="none" rx="11" ry="11" style="stroke:#222222;stroke-width:1;"/><ellipse cx="352.36" cy="918.4906" fill="#222222" rx="6" ry="6" style="stroke:#222222;stroke-width:1;"/></g><!--link *start* to system--><g class="link" data-entity-1="ent0018" data-entity-2="ent0002" data-link-type="dependency" data-source-line="42" id="lnk19"><path d="M352.36,114.1106 C352.36,125.4606 352.36,140.5906 352.36,167.4106" fill="none" id="*start*-to-system" style="stroke:#181818;stroke-width:1;"/><polygon fill="#181818" points="352.36,173.4106,356.36,164.4106,352.36,168.4106,348.36,164.4106,352.36,173.4106" style="stroke:#181818;stroke-width:1;"/></g><!--link system to *end*--><g class="link" data-entity-1="ent0002" data-entity-2="ent0020" data-link-type="dependency" data-source-line="43" id="lnk21"><path d="M352.36,847.7306 C352.36,874.3506 352.36,889.4906 352.36,901.2506" fill="none" id="system-to-*end*" style="stroke:#181818;stroke-width:1;"/><polygon fill="#181818" points="352.36,907.2506,356.36,898.2506,352.36,902.2506,348.36,898.2506,352.36,907.2506" style="stroke:#181818;stroke-width:1;"/></g><?plantuml-src bLJ1Rjim3BthAuWS1oHBiPkR1bYATYYmGz0Kss4O3CrcKY6o94Xq2wFflq-MdKGsuYQzs0OVtoFrHFDPv0XO6AeWHvTPOKXenPZR2cMuvGKuueJmnW0MFDjkh2vLVgkbjhEPSLZcUZw7dsBpJ3yihqvbPRemsWd2VU92bbWdQfkZxKkrAlTQqOegYH4aY4kHiNV696vGvK3QWCGriTqD_E9My7yImNy_LIQy7vGWmQN7V4NOiHralYz22piGYlnp6g9ehRPfm3g8hz5Kydu45qQhoX4M8-0ENFY4xlbgcw2rRFJWsL5gcWeVY1E-PoHUkYayX4wgHiIbrHaw9zJc13bDpG7k4tzpxyW0wxN1ZfH1LHYFv_3dorz8uEizzxToLniuI6o5px1gfCwuv30VTpPKFu6ZRvCbBnrUrF87rH9e3PqyeYkBHkyzlk9mnexTU3XrF1QTIY75Y_TSwit89nWDV06XVmd7YHtgjMqcWNhQ9olYbiur6pGIQARVKxG93AMzOLg156eR0hXUOqRHzE__tXkONaTMrwkW9bzgqbvc3bVJwHcVsbxZ3J63Rtu7TPrYxJPeH_m_?></g></svg>