<?plantuml 1.2026.3beta3?><svg xmlns="http://www.w3.org/2000/svg" xmlns:xlink="http://www.w3.org/1999/xlink" contentStyleType="text/css" data-diagram-type="STATE" height="1086px" preserveAspectRatio="none" style="width:700px;height:1086px;background:#FFFFFF;" version="1.1" viewBox="0 0 700 1086" width="700px" zoomAndPan="magnify"><defs/><g><g class="entity" data-qualified-name="DefinitionNote" data-source-line="11" id="ent0002"><path d="M111.07,6 L111.07,76.5313 L301.6096,76.5313 L301.6096,16 L291.6096,6 L111.07,6" fill="#FEFFDD" style="stroke:#181818;stroke-width:0.5;"/><path d="M291.6096,6 L291.6096,16 L301.6096,16 L291.6096,6" fill="#FEFFDD" style="stroke:#181818;stroke-width:1;"/><text fill="#000000" font-family="sans-serif" font-size="13" lengthAdjust="spacing" textLength="59.8521" x="117.07" y="23.0669">defines {</text><text fill="#000000" font-family="sans-serif" font-size="13" lengthAdjust="spacing" textLength="127.8672" x="133.5993" y="38.1997">def int counter = 0;</text><text fill="#000000" font-family="sans-serif" font-size="13" lengthAdjust="spacing" textLength="153.0103" x="133.5993" y="53.3325">def int error_count = 0;</text><text fill="#000000" font-family="sans-serif" font-size="13" lengthAdjust="spacing" textLength="8.271" x="117.07" y="68.4653">}</text></g><path d="M19.5,136.53 L673.1808,136.53 A12.5,12.5 0 0 1 685.6808,149.03 L685.6808,181.7956 L7,181.7956 L7,149.03 A12.5,12.5 0 0 1 19.5,136.53" fill="#ADD8E6"/><rect fill="none" height="854.0787" rx="12.5" ry="12.5" style="stroke:#181818;stroke-width:0.5;" width="678.6808" x="7" y="136.53"/><line style="stroke:#181818;stroke-width:0.5;" x1="7" x2="685.6808" y1="181.7956" y2="181.7956"/><line style="stroke:#181818;stroke-width:0.5;" x1="7" x2="685.6808" y1="162.8269" y2="162.8269"/><text fill="#000000" font-family="sans-serif" font-size="14" lengthAdjust="spacing" textLength="119.7861" x="286.4473" y="154.5251">System (System)</text><text fill="#000000" font-family="sans-serif" font-size="12" lengthAdjust="spacing" textLength="250.418" x="12" y="173.9655">&gt;&gt; during before abstract GlobalMonitor;</text><g class="entity" data-qualified-name="system.system__idle" id="ent0004"><rect fill="#F1F1F1" height="78.2031" rx="12.5" ry="12.5" style="stroke:#181818;stroke-width:0.5;" width="143.0674" x="285.55" y="249.7956"/><line style="stroke:#181818;stroke-width:0.5;" x1="285.55" x2="428.6174" y1="276.0925" y2="276.0925"/><text fill="#000000" font-family="sans-serif" font-size="14" lengthAdjust="spacing" textLength="123.0674" x="295.55" y="267.7907">Idle (System.Idle)</text><text fill="#000000" font-family="sans-serif" font-size="12" lengthAdjust="spacing" textLength="43.459" x="290.55" y="292.2312">enter {</text><text fill="#000000" font-family="sans-serif" font-size="12" lengthAdjust="spacing" textLength="75.5332" x="305.8078" y="306.1999">counter = 0;</text><text fill="#000000" font-family="sans-serif" font-size="12" lengthAdjust="spacing" textLength="7.6348" x="290.55" y="320.1687">}</text></g><path d="M31.5,445.9956 L380.6707,445.9956 A12.5,12.5 0 0 1 393.1707,458.4956 L393.1707,519.1987 L19,519.1987 L19,458.4956 A12.5,12.5 0 0 1 31.5,445.9956" fill="#ADD8E6"/><rect fill="none" height="400.4031" rx="12.5" ry="12.5" style="stroke:#181818;stroke-width:0.5;" width="374.1707" x="19" y="445.9956"/><line style="stroke:#181818;stroke-width:0.5;" x1="19" x2="393.1707" y1="519.1987" y2="519.1987"/><line style="stroke:#181818;stroke-width:0.5;" x1="19" x2="393.1707" y1="472.2925" y2="472.2925"/><text fill="#000000" font-family="sans-serif" font-size="14" lengthAdjust="spacing" textLength="159.1338" x="126.5184" y="463.9907">Active (System.Active)</text><text fill="#000000" font-family="sans-serif" font-size="12" lengthAdjust="spacing" textLength="92.8594" x="24" y="483.4312">during before {</text><text fill="#000000" font-family="sans-serif" font-size="12" lengthAdjust="spacing" textLength="139.3887" x="39.2578" y="497.3999">counter = counter + 1;</text><text fill="#000000" font-family="sans-serif" font-size="12" lengthAdjust="spacing" textLength="7.6348" x="24" y="511.3687">}</text><g class="entity" data-qualified-name="system.system__active.system__active__processing" id="ent0006"><rect fill="#F1F1F1" height="78.2031" rx="12.5" ry="12.5" style="stroke:#181818;stroke-width:0.5;" width="290.6553" x="35.14" y="587.1987"/><line style="stroke:#181818;stroke-width:0.5;" x1="35.14" x2="325.7953" y1="613.4956" y2="613.4956"/><text fill="#000000" font-family="sans-serif" font-size="14" lengthAdjust="spacing" textLength="270.6553" x="45.14" y="605.1939">Processing (System.Active.Processing)</text><text fill="#000000" font-family="sans-serif" font-size="12" lengthAdjust="spacing" textLength="50.1621" x="40.14" y="629.6343">during {</text><text fill="#000000" font-family="sans-serif" font-size="12" lengthAdjust="spacing" textLength="147.0234" x="55.3978" y="643.603">counter = counter + 10;</text><text fill="#000000" font-family="sans-serif" font-size="12" lengthAdjust="spacing" textLength="7.6348" x="40.14" y="657.5718">}</text></g><rect fill="#F1F1F1" height="40" rx="12.5" ry="12.5" style="stroke:#181818;stroke-width:0.5;" width="236.9326" x="31" y="718.3987"/><text fill="#000000" font-family="sans-serif" font-size="14" lengthAdjust="spacing" textLength="226.9326" x="36" y="743.2454">Waiting (System.Active.Waiting)</text><g class="end_entity" data-qualified-name="system.system__active..end.system__active" data-source-line="24" id="ent0002"><ellipse cx="226.47" cy="822.3987" fill="none" rx="11" ry="11" style="stroke:#222222;stroke-width:1;"/><ellipse cx="226.47" cy="822.3987" fill="#222222" rx="6" ry="6" style="stroke:#222222;stroke-width:1;"/></g><g class="start_entity" data-qualified-name="system.system__active..start.system__active" data-source-line="26" id="ent0005"><ellipse cx="180.47" cy="540.1987" fill="#222222" rx="10" ry="10" style="stroke:#222222;stroke-width:1;"/></g><!--link system__active__processing to *end*system__active--><g class="link" data-entity-1="ent0006" data-entity-2="ent0002" data-link-type="dependency" data-source-line="24" id="lnk3"><path d="M262.38,665.8187 C267.89,671.0287 272.72,676.8687 276.47,683.3987 C300.82,725.8287 298.82,752.1787 272.47,793.3987 C264.21,806.3187 253.2817,812.1091 242.4517,816.0891" fill="none" id="system__active__processing-to-*end*system__active" style="stroke:#4E79A7;stroke-width:1;"/><polygon fill="#4E79A7" points="236.82,818.1587,246.6474,818.8088,241.5131,816.434,243.8878,811.2998,236.82,818.1587" style="stroke:#4E79A7;stroke-width:1;"/><text fill="#000000" font-family="sans-serif" font-size="13" lengthAdjust="spacing" textLength="68.7007" x="294.47" y="742.9656">/FatalError</text></g><!--link system__active__waiting to *end*system__active--><g class="link" data-entity-1="ent0007" data-entity-2="ent0002" data-link-type="dependency" data-source-line="25" id="lnk4"><path d="M167.71,758.8287 C184.26,776.4487 203.6738,797.124 215.2938,809.504" fill="none" id="system__active__waiting-to-*end*system__active" style="stroke:#4E79A7;stroke-width:1;"/><polygon fill="#4E79A7" points="219.4,813.8787,216.1572,804.5791,215.9781,810.2331,210.3241,810.054,219.4,813.8787" style="stroke:#4E79A7;stroke-width:1;"/><text fill="#000000" font-family="sans-serif" font-size="13" lengthAdjust="spacing" textLength="68.7007" x="199.47" y="789.4656">/FatalError</text></g><!--link *start*system__active to system__active__processing--><g class="link" data-entity-1="ent0005" data-entity-2="ent0006" data-link-type="dependency" data-source-line="26" id="lnk6"><path d="M180.47,550.5187 C180.47,559.4087 180.47,567.4187 180.47,580.9187" fill="none" id="*start*system__active-to-system__active__processing" style="stroke:#181818;stroke-width:1;"/><polygon fill="#181818" points="180.47,586.9187,184.47,577.9187,180.47,581.9187,176.47,577.9187,180.47,586.9187" style="stroke:#181818;stroke-width:1;"/></g><!--link system__active__processing to system__active__waiting--><g class="link" data-entity-1="ent0006" data-entity-2="ent0007" data-link-type="dependency" data-source-line="27" id="lnk7"><path d="M60.17,665.8787 C54.2,671.0087 48.87,676.8187 44.47,683.3987 C34.26,698.6487 38.6122,707.2504 55.6322,715.3504" fill="none" id="system__active__processing-to-system__active__waiting" style="stroke:#181818;stroke-width:1;"/><polygon fill="#181818" points="61.05,717.9287,54.6423,710.4494,56.5352,715.7801,51.2045,717.673,61.05,717.9287" style="stroke:#181818;stroke-width:1;"/><text fill="#000000" font-family="sans-serif" font-size="13" lengthAdjust="spacing" textLength="112.8804" x="45.47" y="696.4656">Processing.Pause</text></g><!--link system__active__waiting to system__active__processing--><g class="link" data-entity-1="ent0007" data-entity-2="ent0006" data-link-type="dependency" data-source-line="28" id="lnk8"><path d="M154.95,717.9287 C159.01,703.5187 163.0464,689.1949 167.9964,671.5849" fill="none" id="system__active__waiting-to-system__active__processing" style="stroke:#181818;stroke-width:1;"/><polygon fill="#181818" points="169.62,665.8087,163.3338,673.3906,168.267,670.6222,171.0353,675.5554,169.62,665.8087" style="stroke:#181818;stroke-width:1;"/><text fill="#000000" font-family="sans-serif" font-size="13" lengthAdjust="spacing" textLength="106.4692" x="165.47" y="696.4656">Waiting.Resume</text></g><g class="entity" data-qualified-name="system.system__error" id="ent0008"><rect fill="#F1F1F1" height="78.2031" rx="12.5" ry="12.5" style="stroke:#181818;stroke-width:0.5;" width="221.0645" x="257.55" y="899.4056"/><line style="stroke:#181818;stroke-width:0.5;" x1="257.55" x2="478.6145" y1="925.7025" y2="925.7025"/><text fill="#000000" font-family="sans-serif" font-size="14" lengthAdjust="spacing" textLength="141.3877" x="297.3884" y="917.4007">Error (System.Error)</text><text fill="#000000" font-family="sans-serif" font-size="12" lengthAdjust="spacing" textLength="43.459" x="262.55" y="941.8412">enter {</text><text fill="#000000" font-family="sans-serif" font-size="12" lengthAdjust="spacing" textLength="185.8066" x="277.8078" y="955.8099">error_count = error_count + 1;</text><text fill="#000000" font-family="sans-serif" font-size="12" lengthAdjust="spacing" textLength="7.6348" x="262.55" y="969.7787">}</text></g><g class="start_entity" data-qualified-name="system..start.system" data-source-line="36" id="ent0012"><ellipse cx="357.09" cy="202.7956" fill="#222222" rx="10" ry="10" style="stroke:#222222;stroke-width:1;"/></g><!--link system__idle to system__error--><g class="link" data-entity-1="ent0004" data-entity-2="ent0008" data-link-type="dependency" data-source-line="33" id="lnk9"><path d="M404.27,328.2256 C408.63,333.7256 412.41,339.6756 415.09,345.9956 C438.31,400.7656 435.41,825.4956 415.09,881.4056 C412.87,887.4956 413.0065,888.3989 409.3065,893.9289" fill="none" id="system__idle-to-system__error" style="stroke:#4E79A7;stroke-width:1;"/><polygon fill="#4E79A7" points="405.97,898.9156,414.2993,893.6599,408.7504,894.76,407.6503,889.2112,405.97,898.9156" style="stroke:#4E79A7;stroke-width:1;"/><text fill="#000000" font-family="sans-serif" font-size="13" lengthAdjust="spacing" textLength="64.3208" x="432.09" y="650.7725">FatalError</text></g><!--link system__active to system__error--><g class="link" data-entity-1="ent0005" data-entity-2="ent0008" data-link-type="dependency" data-source-line="34" id="lnk10"><path d="M206.17,846.7056 C210.97,859.0456 217.18,870.7556 225.09,881.4056 C233.59,892.8556 239.6114,898.9454 252.0014,906.1954" fill="none" id="system__active-to-system__error" style="stroke:#4E79A7;stroke-width:1;"/><polygon fill="#4E79A7" points="257.18,909.2256,251.4323,901.2279,252.8645,906.7004,247.392,908.1326,257.18,909.2256" style="stroke:#4E79A7;stroke-width:1;"/><text fill="#000000" font-family="sans-serif" font-size="13" lengthAdjust="spacing" textLength="64.3208" x="226.09" y="877.4725">FatalError</text></g><!--link system__error to system__error--><g class="link" data-entity-1="ent0008" data-entity-2="ent0008" data-link-type="dependency" data-source-line="35" id="lnk11"><path d="M478.69,928.4756 C489.65,930.4856 496.62,933.8256 496.62,938.5056 C496.62,943.1856 495.5516,945.4433 484.5916,947.4533" fill="none" id="system__error-to-system__error" style="stroke:#4E79A7;stroke-width:1;"/><polygon fill="#4E79A7" points="478.69,948.5356,488.2639,950.8465,483.608,947.6337,486.8208,942.9778,478.69,948.5356" style="stroke:#4E79A7;stroke-width:1;"/><text fill="#000000" font-family="sans-serif" font-size="13" lengthAdjust="spacing" textLength="64.3208" x="502.62" y="943.0725">FatalError</text></g><!--link *start*system to system__idle--><g class="link" data-entity-1="ent0012" data-entity-2="ent0004" data-link-type="dependency" data-source-line="36" id="lnk13"><path d="M357.09,213.1156 C357.09,222.0156 357.09,230.0256 357.09,243.5256" fill="none" id="*start*system-to-system__idle" style="stroke:#181818;stroke-width:1;"/><polygon fill="#181818" points="357.09,249.5256,361.09,240.5256,357.09,244.5256,353.09,240.5256,357.09,249.5256" style="stroke:#181818;stroke-width:1;"/></g><!--link system__idle to system__active--><g class="link" data-entity-1="ent0004" data-entity-2="ent0005" data-link-type="dependency" data-source-line="37" id="lnk14"><path d="M285.42,297.5956 C254.47,304.8756 221.07,318.9356 202.09,345.9956 C181.65,375.1356 172.8555,404.1107 170.3255,439.7007" fill="none" id="system__idle-to-system__active" style="stroke:#181818;stroke-width:1;"/><polygon fill="#181818" points="169.9,445.6856,174.5281,436.9919,170.2545,440.6982,166.5482,436.4246,169.9,445.6856" style="stroke:#181818;stroke-width:1;"/><text fill="#000000" font-family="sans-serif" font-size="13" lengthAdjust="spacing" textLength="59.5854" x="203.09" y="391.5625">Idle.Start</text></g><!--link system__active to system__idle--><g class="link" data-entity-1="ent0005" data-entity-2="ent0004" data-link-type="dependency" data-source-line="38" id="lnk15"><path d="M258.86,445.5456 C273.24,391.5456 285.18,347.3756 286.09,345.9956 C290.23,339.6956 291.0327,337.9933 296.5627,332.5533" fill="none" id="system__active-to-system__idle" style="stroke:#181818;stroke-width:1;"/><polygon fill="#181818" points="300.84,328.3456,291.6189,331.8056,297.2756,331.852,297.2292,337.5087,300.84,328.3456" style="stroke:#181818;stroke-width:1;"/><text fill="#000000" font-family="sans-serif" font-size="13" lengthAdjust="spacing" textLength="74.1279" x="313.7045" y="359.0625">Active.Stop</text><path d="M291.09,368.1284 L291.09,423.1284 L410.09,423.1284 L410.09,378.1284 L400.09,368.1284 L291.09,368.1284" fill="#FEFFDD" style="stroke:#181818;stroke-width:0.5;"/><path d="M400.09,368.1284 L400.09,378.1284 L410.09,378.1284 L400.09,368.1284" fill="#FEFFDD" style="stroke:#181818;stroke-width:0.5;"/><text fill="#000000" font-family="sans-serif" font-size="13" lengthAdjust="spacing" textLength="49.7974" x="297.09" y="385.1953">effect {</text><text fill="#000000" font-family="sans-serif" font-size="13" lengthAdjust="spacing" textLength="81.8276" x="313.6193" y="400.3281">counter = 0;</text><text fill="#000000" font-family="sans-serif" font-size="13" lengthAdjust="spacing" textLength="8.271" x="297.09" y="415.461">}</text></g><!--link system__active to system__error--><g class="link" data-entity-1="ent0005" data-entity-2="ent0008" data-link-type="dependency" data-source-line="44" id="lnk16"><path d="M298.89,846.8956 C305.75,858.7456 312.83,870.3456 320.09,881.4056 C323.95,887.2956 324.6298,888.554 329.1898,894.274" fill="none" id="system__active-to-system__error-1" style="stroke:#181818;stroke-width:1;"/><polygon fill="#181818" points="332.93,898.9656,330.4475,889.4348,329.8132,895.056,324.192,894.4217,332.93,898.9656" style="stroke:#181818;stroke-width:1;"/><text fill="#000000" font-family="sans-serif" font-size="13" lengthAdjust="spacing" textLength="93.9897" x="321.09" y="877.4725">counter &gt; 100</text></g><!--link system__error to system__idle--><g class="link" data-entity-1="ent0008" data-entity-2="ent0004" data-link-type="dependency" data-source-line="45" id="lnk17"><path d="M450.6,898.9756 C470.73,885.3656 489.73,867.9456 501.09,846.4056 C584.07,688.9756 552.85,616.2656 501.09,445.9956 C485.52,394.8156 471.16,384.5656 434.09,345.9956 C428.12,339.7956 426.0675,337.5882 419.1475,331.9682" fill="none" id="system__error-to-system__idle" style="stroke:#181818;stroke-width:1;"/><polygon fill="#181818" points="414.49,328.1856,418.9546,336.9644,418.3713,331.3377,423.998,330.7544,414.49,328.1856" style="stroke:#181818;stroke-width:1;"/><text fill="#000000" font-family="sans-serif" font-size="13" lengthAdjust="spacing" textLength="102.5908" x="553.09" y="650.7725">error_count &lt; 3</text></g><g class="start_entity" data-qualified-name=".start." data-source-line="48" id="ent0018"><ellipse cx="346.34" cy="41.27" fill="#222222" rx="10" ry="10" style="stroke:#222222;stroke-width:1;"/></g><g class="end_entity" data-qualified-name=".end." data-source-line="49" id="ent0020"><ellipse cx="346.34" cy="1061.61" fill="none" rx="11" ry="11" style="stroke:#222222;stroke-width:1;"/><ellipse cx="346.34" cy="1061.61" fill="#222222" rx="6" ry="6" style="stroke:#222222;stroke-width:1;"/></g><!--link *start* to system--><g class="link" data-entity-1="ent0018" data-entity-2="ent0003" data-link-type="dependency" data-source-line="48" id="lnk19"><path d="M346.34,51.74 C346.34,66.37 346.34,90.93 346.34,130.18" fill="none" id="*start*-to-system" style="stroke:#181818;stroke-width:1;"/><polygon fill="#181818" points="346.34,136.18,350.34,127.18,346.34,131.18,342.34,127.18,346.34,136.18" style="stroke:#181818;stroke-width:1;"/></g><!--link system to *end*--><g class="link" data-entity-1="ent0003" data-entity-2="ent0020" data-link-type="dependency" data-source-line="49" id="lnk21"><path d="M346.34,990.85 C346.34,1017.87 346.34,1032.9 346.34,1044.52" fill="none" id="system-to-*end*" style="stroke:#181818;stroke-width:1;"/><polygon fill="#181818" points="346.34,1050.52,350.34,1041.52,346.34,1045.52,342.34,1041.52,346.34,1050.52" style="stroke:#181818;stroke-width:1;"/></g><?plantuml-src fLLRQzim57xNhpXqBxiGhsE3iZGBzCvWBMLvs4DRZ68VfoAsP2Hv8vJyzqgM7KksUzds5EjSllETQ-vPYe15gJUGeaeaApKJd12rPhoaaXQWDDK83mJWc2RhbHGLJqz4BkHiLYgiKZ6Vmm-skjSNacx6h19Hb48nZQtXSLwXDHGoHTc7Qb3E1TSBlSdHKp5DSvQGBI5S64fKmIbcZ3FB-Cf8I6gVg6goOFB9W74DYU6YKS8ts3yC52Yba76jTiejGPw21JS5gDFUMsoKnWBUkjztUpQgSh8mCnUpyVgUvjZwHFRXEyOnCn9dxWbW2bZpVBZbLkVJlkLR7_ueqUnt5y0zmn3KcOnnz82kfKXGASPNFR2equpXnd6vqtUOJvgOrD9Asez1RktN1_ZKfUan_4LDUuVq6l4ujpzE-HfYavitNyuElXuTt4tcSFF-pZ3zU4xDd9tPsNWIeOdmMdUhcHYB_olY649BP0fTmw9hMYbycVkpX0nYK-Fe9wggS7XRCaJichl4J4XyjiVzIQxhj6jk_GfxYhj21fB-ieIhxB-2eFww1RthW_UQsCluNroT-cyy-rCpVZM6RJH8zkH42qsb7gNV0pKEpLejj2XhZ_h02Wuvu-jQW5c6YVOkoE2gkXBl3kWBSTkSMvYvsV_ziO8DkVhTdS5dSxMRWpm5S-F2MQHBfQK93nUvMDByKfX_2o4FILZR5c3YjlWH?></g></svg>