<svg xmlns="http://www.w3.org/2000/svg" xmlns:xlink="http://www.w3.org/1999/xlink" version="1.1" data-diagram-type="STATE" style="width:718px;height:1154px;background:#FFFFFF;" width="718px" height="1154px" viewBox="0 0 718 1154" zoomAndPan="magnify" preserveAspectRatio="none" contentStyleType="text/css"><?plantuml 1.2026.7beta5?><defs/><g font-family="sans-serif" lengthAdjust="spacing"><g class="legend" data-source-line="10"><rect x="12" y="12" width="252.662" height="62.891" fill="#DDD" style="stroke:#000;stroke-width:1;" rx="7.5" ry="7.5"/><text x="21.874" y="31.995" fill="#000" font-size="14" textLength="65.748" font-weight="700">Variable</text><text x="111.719" y="31.995" fill="#000" font-size="14" textLength="38.192" font-weight="700">Type</text><text x="159.659" y="31.995" fill="#000" font-size="14" textLength="95.129" font-weight="700">Initial Value</text><text x="21.45" y="48.292" fill="#000" font-size="14" textLength="53.867">counter</text><text x="111.295" y="48.292" fill="#000" font-size="14" textLength="18.252">int</text><text x="159.235" y="48.292" fill="#000" font-size="14">0</text><text x="21.45" y="64.589" fill="#000" font-size="14" textLength="80.944">error_count</text><text x="111.295" y="64.589" fill="#000" font-size="14" textLength="18.252">int</text><text x="159.235" y="64.589" fill="#000" font-size="14">0</text><line x1="17" y1="19" x2="259.662" y2="19" style="stroke:#000;stroke-width:1;"/><line x1="17" y1="35.297" x2="259.662" y2="35.297" style="stroke:#000;stroke-width:1;"/><line x1="17" y1="51.594" x2="259.662" y2="51.594" style="stroke:#000;stroke-width:1;"/><line x1="17" y1="67.891" x2="259.662" y2="67.891" style="stroke:#000;stroke-width:1;"/><line x1="17" y1="19" x2="17" y2="67.891" style="stroke:#000;stroke-width:1;"/><line x1="106.845" y1="19" x2="106.845" y2="67.891" style="stroke:#000;stroke-width:1;"/><line x1="154.785" y1="19" x2="154.785" y2="67.891" style="stroke:#000;stroke-width:1;"/><line x1="259.662" y1="19" x2="259.662" y2="67.891" style="stroke:#000;stroke-width:1;"/></g><g class="entity" data-qualified-name="system" id="ent0001" data-source-line="16"><path d="M19.5,173.891 L690.501,173.891 A12.5,12.5 0 0 1 703.001,186.391 L703.001,200.187 L7,200.187 L7,186.391 A12.5,12.5 0 0 1 19.5,173.891" fill="#ADD8E6"/><rect x="7" y="200.187" width="696.001" height="21.297" fill="#ADD8E6" style="stroke:#ADD8E6;stroke-width:1;"/><path d="M7,221.484 L703.001,221.484 L703.001,1045.732 A12.5,12.5 0 0 1 690.501,1058.232 L19.5,1058.232 A12.5,12.5 0 0 1 7,1045.732 L7,221.484" fill="#ADD8E6"/><rect x="7" y="173.891" width="696.001" height="884.341" fill="none" style="stroke:#181818;stroke-width:0.5;" rx="12.5" ry="12.5"/><line x1="7" y1="200.187" x2="703.001" y2="200.187" style="stroke:#181818;stroke-width:0.5;"/><line x1="7" y1="221.484" x2="703.001" y2="221.484" style="stroke:#181818;stroke-width:0.5;"/><text x="328.897" y="191.886" fill="#000" font-size="14" textLength="52.206">System</text><text x="12" y="213.183" fill="#000" font-size="14" textLength="292.154">>> during before abstract GlobalMonitor;</text><g class="entity" data-qualified-name="system.system__idle" id="ent0002" data-source-line="17"><rect x="309.44" y="289.484" width="125.923" height="85.188" fill="#F1F1F1" style="stroke:#181818;stroke-width:0.5;" rx="12.5" ry="12.5"/><line x1="309.44" y1="315.781" x2="435.363" y2="315.781" style="stroke:#181818;stroke-width:0.5;"/><text x="359.642" y="307.479" fill="#000" font-size="14" textLength="25.519">Idle</text><text x="314.44" y="333.776" fill="#000" font-size="14" textLength="50.702">enter {</text><text x="332.241" y="350.073" fill="#000" font-size="14" textLength="88.122">counter = 0;</text><text x="314.44" y="366.37" fill="#000" font-size="14">}</text></g><g class="entity" data-qualified-name="system.system__active" id="ent0003" data-source-line="19"><path d="M31.5,492.664 L397.311,492.664 A12.5,12.5 0 0 1 409.811,505.164 L409.811,518.961 L19,518.961 L19,505.164 A12.5,12.5 0 0 1 31.5,492.664" fill="#ADD8E6"/><rect x="19" y="518.961" width="390.811" height="53.891" fill="#ADD8E6" style="stroke:#ADD8E6;stroke-width:1;"/><path d="M19,572.852 L409.811,572.852 L409.811,894.542 A12.5,12.5 0 0 1 397.311,907.042 L31.5,907.042 A12.5,12.5 0 0 1 19,894.542 L19,572.852" fill="#ADD8E6"/><rect x="19" y="492.664" width="390.811" height="414.378" fill="none" style="stroke:#181818;stroke-width:0.5;" rx="12.5" ry="12.5"/><line x1="19" y1="518.961" x2="409.811" y2="518.961" style="stroke:#181818;stroke-width:0.5;"/><line x1="19" y1="572.852" x2="409.811" y2="572.852" style="stroke:#181818;stroke-width:0.5;"/><text x="192.629" y="510.659" fill="#000" font-size="14" textLength="43.552">Active</text><text x="24" y="531.956" fill="#000" font-size="14" textLength="108.336">during before {</text><text x="41.801" y="548.253" fill="#000" font-size="14" textLength="162.62">counter = counter + 1;</text><text x="24" y="564.55" fill="#000" font-size="14">}</text><g class="entity" data-qualified-name="system.system__active.system__active__processing" id="ent0004" data-source-line="20"><rect x="78.44" y="640.852" width="209.328" height="85.188" fill="#F1F1F1" style="stroke:#181818;stroke-width:0.5;" rx="12.5" ry="12.5"/><line x1="78.44" y1="667.149" x2="287.768" y2="667.149" style="stroke:#181818;stroke-width:0.5;"/><text x="145.448" y="658.847" fill="#000" font-size="14" textLength="75.312">Processing</text><text x="83.44" y="685.144" fill="#000" font-size="14" textLength="58.522">during {</text><text x="101.241" y="701.441" fill="#000" font-size="14" textLength="171.527">counter = counter + 10;</text><text x="83.44" y="717.738" fill="#000" font-size="14">}</text></g><rect x="151.38" y="779.042" width="63.45" height="40" fill="#F1F1F1" style="stroke:#181818;stroke-width:0.5;" rx="12.5" ry="12.5"/><text x="156.38" y="803.889" fill="#000" font-size="14" textLength="53.45">Waiting</text><g class="end_entity" data-qualified-name="system.system__active..end.system__active" id="ent0007" data-source-line="23"><ellipse cx="244.11" cy="883.042" rx="11" ry="11" fill="none" style="stroke:#222;stroke-width:1;"/><ellipse cx="244.11" cy="883.042" rx="6" ry="6" fill="#222" style="stroke:#222;stroke-width:1;"/></g><g class="start_entity" data-qualified-name="system.system__active..start.system__active" id="ent0010" data-source-line="25"><ellipse cx="183.11" cy="593.852" rx="10" ry="10" fill="#222" style="stroke:#222;stroke-width:1;"/></g><!--link system__active__processing to *end*system__active--><g class="link" data-entity-1="ent0004" data-entity-2="ent0007" id="lnk8" data-source-line="23" data-link-type="dependency"><path d="M277.95,726.492 C283.42,731.722 288.26,737.552 292.11,744.042 C317.04,786.092 316.46,811.652 292.11,854.042 C284.13,867.932 271.086,874.07 259.546,877.73" style="stroke:#181818;stroke-width:1;" fill="none" id="system__active__processing-to-*end*system__active"/><polygon points="254.78,879.242,264.568,880.334,259.546,877.73,262.15,872.708,254.78,879.242" fill="#181818" style="stroke:#181818;stroke-width:1;stroke-linejoin:miter;stroke-miterlimit:10;"/><text x="311.11" y="803.609" fill="#000" font-size="13" textLength="68.701">/FatalError</text></g><!--link system__active__waiting to *end*system__active--><g class="link" data-entity-1="ent0005" data-entity-2="ent0007" id="lnk9" data-source-line="24" data-link-type="dependency"><path d="M196.82,819.422 C204.21,829.772 213.55,842.682 222.11,854.042 C227.17,860.752 229.946,864.33 234.356,869.87" style="stroke:#181818;stroke-width:1;" fill="none" id="system__active__waiting-to-*end*system__active"/><polygon points="237.47,873.782,234.994,864.249,234.356,869.87,228.735,869.232,237.47,873.782" fill="#181818" style="stroke:#181818;stroke-width:1;stroke-linejoin:miter;stroke-miterlimit:10;"/><text x="223.11" y="850.109" fill="#000" font-size="13" textLength="68.701">/FatalError</text></g><!--link *start*system__active to system__active__processing--><g class="link" data-entity-1="ent0010" data-entity-2="ent0004" id="lnk11" data-source-line="25" data-link-type="dependency"><path d="M183.11,604.232 C183.11,613.052 183.11,621.922 183.11,635.542" style="stroke:#181818;stroke-width:1;" fill="none" id="*start*system__active-to-system__active__processing"/><polygon points="183.11,640.542,187.11,631.542,183.11,635.542,179.11,631.542,183.11,640.542" fill="#181818" style="stroke:#181818;stroke-width:1;stroke-linejoin:miter;stroke-miterlimit:10;"/></g><!--link system__active__processing to system__active__waiting--><g class="link" data-entity-1="ent0004" data-entity-2="ent0005" id="lnk12" data-source-line="26" data-link-type="dependency"><path d="M78.11,709.712 C49.23,721.812 30,738.652 47.11,761.042 C59.66,777.472 109.967,787.58 146.067,793.07" style="stroke:#181818;stroke-width:1;" fill="none" id="system__active__processing-to-system__active__waiting"/><polygon points="151.01,793.822,142.714,788.514,146.067,793.07,141.511,796.423,151.01,793.822" fill="#181818" style="stroke:#181818;stroke-width:1;stroke-linejoin:miter;stroke-miterlimit:10;"/><text x="48.11" y="757.109" fill="#000" font-size="13" textLength="112.88">Processing.Pause</text></g><!--link system__active__waiting to system__active__processing--><g class="link" data-entity-1="ent0005" data-entity-2="ent0004" id="lnk13" data-source-line="27" data-link-type="dependency"><path d="M183.11,778.762 C183.11,764.442 183.11,749.372 183.11,731.422" style="stroke:#181818;stroke-width:1;" fill="none" id="system__active__waiting-to-system__active__processing"/><polygon points="183.11,726.422,179.11,735.422,183.11,731.422,187.11,735.422,183.11,726.422" fill="#181818" style="stroke:#181818;stroke-width:1;stroke-linejoin:miter;stroke-miterlimit:10;"/><text x="184.11" y="757.109" fill="#000" font-size="13" textLength="106.469">Waiting.Resume</text></g></g><g class="entity" data-qualified-name="system.system__error" id="ent0006" data-source-line="30"><rect x="255.12" y="960.044" width="254.575" height="85.188" fill="#F1F1F1" style="stroke:#181818;stroke-width:0.5;" rx="12.5" ry="12.5"/><line x1="255.12" y1="986.341" x2="509.695" y2="986.341" style="stroke:#181818;stroke-width:0.5;"/><text x="365.068" y="978.039" fill="#000" font-size="14" textLength="34.679">Error</text><text x="260.12" y="1004.336" fill="#000" font-size="14" textLength="50.702">enter {</text><text x="277.921" y="1020.633" fill="#000" font-size="14" textLength="216.774">error_count = error_count + 1;</text><text x="260.12" y="1036.93" fill="#000" font-size="14">}</text></g><g class="start_entity" data-qualified-name="system..start.system" id="ent0017" data-source-line="35"><ellipse cx="372.41" cy="242.484" rx="10" ry="10" fill="#222" style="stroke:#222;stroke-width:1;"/></g><!--link system__idle to system__error--><g class="link" data-entity-1="ent0002" data-entity-2="ent0006" id="lnk14" data-source-line="32" data-link-type="dependency"><path d="M421.23,375.084 C425.32,380.584 428.86,386.474 431.41,392.664 C454.62,449.124 452,884.584 431.41,942.044 C429.19,948.224 428.75,950.029 425.08,955.689" style="stroke:#181818;stroke-width:1;" fill="none" id="system__idle-to-system__error"/><polygon points="422.36,959.884,430.613,954.509,425.08,955.689,423.9,950.157,422.36,959.884" fill="#181818" style="stroke:#181818;stroke-width:1;stroke-linejoin:miter;stroke-miterlimit:10;"/><text x="448.41" y="704.421" fill="#000" font-size="13" textLength="64.321">FatalError</text></g><!--link system__active to system__error--><g class="link" data-entity-1="ent0003" data-entity-2="ent0006" id="lnk15" data-source-line="33" data-link-type="dependency"><path d="M220.1,907.444 C225.14,919.734 231.49,931.404 239.41,942.044 C244.3,948.624 246.198,951.309 252.548,956.529" style="stroke:#181818;stroke-width:1;" fill="none" id="system__active-to-system__error"/><polygon points="256.41,959.704,251.998,950.899,252.548,956.529,246.917,957.079,256.41,959.704" fill="#181818" style="stroke:#181818;stroke-width:1;stroke-linejoin:miter;stroke-miterlimit:10;"/><text x="240.41" y="938.111" fill="#000" font-size="13" textLength="64.321">FatalError</text></g><!--link system__error to system__error--><g class="link" data-entity-1="ent0006" data-entity-2="ent0006" id="lnk16" data-source-line="34" data-link-type="dependency"><path d="M509.91,992.534 C520.86,994.684 527.69,998.054 527.69,1002.644 C527.69,1007.224 525.766,1009.631 514.816,1011.781" style="stroke:#181818;stroke-width:1;" fill="none" id="system__error-to-system__error"/><polygon points="509.91,1012.744,519.512,1014.935,514.816,1011.781,517.971,1007.085,509.91,1012.744" fill="#181818" style="stroke:#181818;stroke-width:1;stroke-linejoin:miter;stroke-miterlimit:10;"/><text x="533.69" y="1007.211" fill="#000" font-size="13" textLength="64.321">FatalError</text></g><!--link *start*system to system__idle--><g class="link" data-entity-1="ent0017" data-entity-2="ent0002" id="lnk18" data-source-line="35" data-link-type="dependency"><path d="M372.41,252.854 C372.41,261.684 372.41,270.544 372.41,284.174" style="stroke:#181818;stroke-width:1;" fill="none" id="*start*system-to-system__idle"/><polygon points="372.41,289.174,376.41,280.174,372.41,284.174,368.41,280.174,372.41,289.174" fill="#181818" style="stroke:#181818;stroke-width:1;stroke-linejoin:miter;stroke-miterlimit:10;"/></g><!--link system__idle to system__active--><g class="link" data-entity-1="ent0002" data-entity-2="ent0003" id="lnk19" data-source-line="36" data-link-type="dependency"><path d="M309.11,340.484 C275.99,347.924 238.12,362.824 217.41,392.664 C197.1,421.924 187.702,451.869 184.182,487.479" style="stroke:#181818;stroke-width:1;" fill="none" id="system__idle-to-system__active"/><polygon points="183.69,492.454,188.556,483.892,184.182,487.479,180.595,483.105,183.69,492.454" fill="#181818" style="stroke:#181818;stroke-width:1;stroke-linejoin:miter;stroke-miterlimit:10;"/><text x="218.41" y="438.231" fill="#000" font-size="13" textLength="59.585">Idle.Start</text></g><!--link system__active to system__idle--><g class="link" data-entity-1="ent0003" data-entity-2="ent0002" id="lnk20" data-source-line="37" data-link-type="dependency"><path d="M273.43,492.474 C289.14,437.734 301.95,393.374 302.41,392.664 C306.38,386.494 307.745,384.248 312.965,378.758" style="stroke:#181818;stroke-width:1;" fill="none" id="system__active-to-system__idle"/><polygon points="316.41,375.134,307.31,378.9,312.965,378.758,313.107,384.413,316.41,375.134" fill="#181818" style="stroke:#181818;stroke-width:1;stroke-linejoin:miter;stroke-miterlimit:10;"/><text x="330.025" y="405.731" fill="#000" font-size="13" textLength="74.128">Active.Stop</text><path d="M307.41,414.797 L307.41,469.797 L426.41,469.797 L426.41,424.797 L416.41,414.797 L307.41,414.797" style="stroke:#181818;stroke-width:0.5;" fill="#FEFFDD"/><path d="M416.41,414.797 L416.41,424.797 L426.41,424.797 L416.41,414.797" style="stroke:#181818;stroke-width:0.5;" fill="#FEFFDD"/><text x="313.41" y="431.864" fill="#000" font-size="13" textLength="49.797">effect {</text><text x="329.939" y="446.997" fill="#000" font-size="13" textLength="81.828">counter = 0;</text><text x="313.41" y="462.13" fill="#000" font-size="13">}</text></g><!--link system__active to system__error--><g class="link" data-entity-1="ent0003" data-entity-2="ent0006" id="lnk21" data-source-line="43" data-link-type="dependency"><path d="M315.48,907.264 C322.33,919.164 329.33,930.834 336.41,942.044 C340.1,947.904 341.293,949.856 345.533,955.666" style="stroke:#181818;stroke-width:1;" fill="none" id="system__active-to-system__error-1"/><polygon points="348.48,959.704,346.406,950.076,345.533,955.666,339.943,954.792,348.48,959.704" fill="#181818" style="stroke:#181818;stroke-width:1;stroke-linejoin:miter;stroke-miterlimit:10;"/><text x="337.41" y="938.111" fill="#000" font-size="13" textLength="93.99">counter > 100</text></g><!--link system__error to system__idle--><g class="link" data-entity-1="ent0006" data-entity-2="ent0002" id="lnk22" data-source-line="44" data-link-type="dependency"><path d="M468.66,959.544 C488.18,945.674 506.37,928.244 517.41,907.044 C602.42,743.674 570.98,668.874 517.41,492.664 C501.84,441.484 487.04,431.654 450.41,392.664 C444.69,386.584 442.104,383.889 435.514,378.269" style="stroke:#181818;stroke-width:1;" fill="none" id="system__error-to-system__idle"/><polygon points="431.71,375.024,435.962,383.908,435.514,378.269,441.154,377.821,431.71,375.024" fill="#181818" style="stroke:#181818;stroke-width:1;stroke-linejoin:miter;stroke-miterlimit:10;"/><text x="570.41" y="704.421" fill="#000" font-size="13" textLength="102.591">error_count &lt; 3</text></g></g><g class="start_entity" data-qualified-name=".start." id="ent0023" data-source-line="47"><ellipse cx="355" cy="103.891" rx="10" ry="10" fill="#222" style="stroke:#222;stroke-width:1;"/></g><g class="end_entity" data-qualified-name=".end." id="ent0025" data-source-line="48"><ellipse cx="355" cy="1129.231" rx="11" ry="11" fill="none" style="stroke:#222;stroke-width:1;"/><ellipse cx="355" cy="1129.231" rx="6" ry="6" fill="#222" style="stroke:#222;stroke-width:1;"/></g><!--link *start* to system--><g class="link" data-entity-1="ent0023" data-entity-2="ent0001" id="lnk24" data-source-line="47" data-link-type="dependency"><path d="M355,114.181 C355,125.461 355,141.381 355,168.491" style="stroke:#181818;stroke-width:1;" fill="none" id="*start*-to-system"/><polygon points="355,173.491,359,164.491,355,168.491,351,164.491,355,173.491" fill="#181818" style="stroke:#181818;stroke-width:1;stroke-linejoin:miter;stroke-miterlimit:10;"/></g><!--link system to *end*--><g class="link" data-entity-1="ent0001" data-entity-2="ent0025" id="lnk26" data-source-line="48" data-link-type="dependency"><path d="M355,1058.491 C355,1085.221 355,1101.051 355,1112.741" style="stroke:#181818;stroke-width:1;" fill="none" id="system-to-*end*"/><polygon points="355,1117.741,359,1108.741,355,1112.741,351,1108.741,355,1117.741" fill="#181818" style="stroke:#181818;stroke-width:1;stroke-linejoin:miter;stroke-miterlimit:10;"/></g><?plantuml-src fLJVRzem47xtNt7YiLCPqzue8AtLMbNQf6fCsqCxHIOvg8LZHxQp2HN-zvsTf3WX5AQzW7C_lllydU-UHOQ0UU4saA5DZIYSq8enknQgu8RdO1rt22yCu9gdwvNHfSfkjDHcCYaibfcUpU2BM3sxEyCtVL6fpWjjXSCcy5gMw0EroT1qeMgKMwtSt6qaHYxXk1Gfsp4cSOKg0wSBaBXqR3k57zm8lf08TFw-ASB_lH9ES4a-gWXRjeMKU3aqi0MX7FsEWXMDqIO9lfQ7QbILI8-Wmc2-iGxp0N0BDXoXVJyl4zII3UufEmfD4a66AY0om1WmS7fvKjxNK9p2wEf9xMB0JwaJlzkGF9XwMKI93qQdQArGgvxa92bUtVl4eo74DokDFnmGRaxluCEUUqJZ9wT-7E7mf_ATG-3oSWQF5x-8oFjRJc_Yis_VqSGQ-4IMz_Y8_vEc3w6fFuPz5uOFlBHu5kKt6r4BElo6jimhl1qxHDotR85BRV3DpdKVNT2frJ9yLQvbwJxaUAgchQzMbNWKuWitc9rcTMxs3ncL-uo4xble7zl3vX2I7_dXt77ZJf6jHxyQQKhHHSXGcZJN2gHGws30vH9J5urql1-YZljzw9FF5Qc1cT6iZaxerAofg8KJ-4YBkDw1Ow2bqtvXV66TeV9m9_M2ow-QLh4sLwojRGDGp-PV?></g></svg>