<?plantuml 1.2026.3beta3?><svg xmlns="http://www.w3.org/2000/svg" xmlns:xlink="http://www.w3.org/1999/xlink" contentStyleType="text/css" data-diagram-type="STATE" height="1260px" preserveAspectRatio="none" style="width:700px;height:1260px;background:#FFFFFF;" version="1.1" viewBox="0 0 700 1260" width="700px" zoomAndPan="magnify"><defs/><g><path d="M19.5,86 L673.1808,86 A12.5,12.5 0 0 1 685.6808,98.5 L685.6808,131.2656 L7,131.2656 L7,98.5 A12.5,12.5 0 0 1 19.5,86" fill="#ADD8E6"/><rect fill="none" height="854.0787" rx="12.5" ry="12.5" style="stroke:#181818;stroke-width:0.5;" width="678.6808" x="7" y="86"/><line style="stroke:#181818;stroke-width:0.5;" x1="7" x2="685.6808" y1="131.2656" y2="131.2656"/><line style="stroke:#181818;stroke-width:0.5;" x1="7" x2="685.6808" y1="112.2969" y2="112.2969"/><text fill="#000000" font-family="sans-serif" font-size="14" lengthAdjust="spacing" textLength="119.7861" x="286.4473" y="103.9951">System (System)</text><text fill="#000000" font-family="sans-serif" font-size="12" lengthAdjust="spacing" textLength="250.418" x="12" y="123.4355">&gt;&gt; during before abstract GlobalMonitor;</text><g class="entity" data-qualified-name="system.system__idle" id="ent0003"><rect fill="#F1F1F1" height="78.2031" rx="12.5" ry="12.5" style="stroke:#181818;stroke-width:0.5;" width="143.0674" x="285.55" y="199.2656"/><line style="stroke:#181818;stroke-width:0.5;" x1="285.55" x2="428.6174" y1="225.5625" y2="225.5625"/><text fill="#000000" font-family="sans-serif" font-size="14" lengthAdjust="spacing" textLength="123.0674" x="295.55" y="217.2607">Idle (System.Idle)</text><text fill="#000000" font-family="sans-serif" font-size="12" lengthAdjust="spacing" textLength="43.459" x="290.55" y="241.7012">enter {</text><text fill="#000000" font-family="sans-serif" font-size="12" lengthAdjust="spacing" textLength="75.5332" x="305.8078" y="255.6699">counter = 0;</text><text fill="#000000" font-family="sans-serif" font-size="12" lengthAdjust="spacing" textLength="7.6348" x="290.55" y="269.6387">}</text></g><path d="M31.5,395.4656 L380.6707,395.4656 A12.5,12.5 0 0 1 393.1707,407.9656 L393.1707,468.6687 L19,468.6687 L19,407.9656 A12.5,12.5 0 0 1 31.5,395.4656" fill="#ADD8E6"/><rect fill="none" height="400.4031" rx="12.5" ry="12.5" style="stroke:#181818;stroke-width:0.5;" width="374.1707" x="19" y="395.4656"/><line style="stroke:#181818;stroke-width:0.5;" x1="19" x2="393.1707" y1="468.6687" y2="468.6687"/><line style="stroke:#181818;stroke-width:0.5;" x1="19" x2="393.1707" y1="421.7625" y2="421.7625"/><text fill="#000000" font-family="sans-serif" font-size="14" lengthAdjust="spacing" textLength="159.1338" x="126.5184" y="413.4607">Active (System.Active)</text><text fill="#000000" font-family="sans-serif" font-size="12" lengthAdjust="spacing" textLength="92.8594" x="24" y="432.9012">during before {</text><text fill="#000000" font-family="sans-serif" font-size="12" lengthAdjust="spacing" textLength="139.3887" x="39.2578" y="446.8699">counter = counter + 1;</text><text fill="#000000" font-family="sans-serif" font-size="12" lengthAdjust="spacing" textLength="7.6348" x="24" y="460.8387">}</text><g class="entity" data-qualified-name="system.system__active.system__active__processing" id="ent0005"><rect fill="#F1F1F1" height="78.2031" rx="12.5" ry="12.5" style="stroke:#181818;stroke-width:0.5;" width="290.6553" x="35.14" y="536.6687"/><line style="stroke:#181818;stroke-width:0.5;" x1="35.14" x2="325.7953" y1="562.9656" y2="562.9656"/><text fill="#000000" font-family="sans-serif" font-size="14" lengthAdjust="spacing" textLength="270.6553" x="45.14" y="554.6639">Processing (System.Active.Processing)</text><text fill="#000000" font-family="sans-serif" font-size="12" lengthAdjust="spacing" textLength="50.1621" x="40.14" y="579.1043">during {</text><text fill="#000000" font-family="sans-serif" font-size="12" lengthAdjust="spacing" textLength="147.0234" x="55.3978" y="593.073">counter = counter + 10;</text><text fill="#000000" font-family="sans-serif" font-size="12" lengthAdjust="spacing" textLength="7.6348" x="40.14" y="607.0418">}</text></g><rect fill="#F1F1F1" height="40" rx="12.5" ry="12.5" style="stroke:#181818;stroke-width:0.5;" width="236.9326" x="31" y="667.8687"/><text fill="#000000" font-family="sans-serif" font-size="14" lengthAdjust="spacing" textLength="226.9326" x="36" y="692.7154">Waiting (System.Active.Waiting)</text><g class="end_entity" data-qualified-name="system.system__active..end.system__active" data-source-line="38" id="ent0002"><ellipse cx="226.47" cy="771.8687" fill="none" rx="11" ry="11" style="stroke:#222222;stroke-width:1;"/><ellipse cx="226.47" cy="771.8687" fill="#222222" rx="6" ry="6" style="stroke:#222222;stroke-width:1;"/></g><g class="start_entity" data-qualified-name="system.system__active..start.system__active" data-source-line="40" id="ent0005"><ellipse cx="180.47" cy="489.6687" fill="#222222" rx="10" ry="10" style="stroke:#222222;stroke-width:1;"/></g><!--link system__active__processing to *end*system__active--><g class="link" data-entity-1="ent0005" data-entity-2="ent0002" data-link-type="dependency" data-source-line="38" id="lnk3"><path d="M262.38,615.2887 C267.89,620.4988 272.72,626.3387 276.47,632.8687 C300.82,675.2987 298.82,701.6488 272.47,742.8687 C264.21,755.7887 253.2817,761.5791 242.4517,765.5591" fill="none" id="system__active__processing-to-*end*system__active" style="stroke:#4E79A7;stroke-width:1;"/><polygon fill="#4E79A7" points="236.82,767.6287,246.6474,768.2788,241.5131,765.904,243.8878,760.7698,236.82,767.6287" style="stroke:#4E79A7;stroke-width:1;"/><text fill="#000000" font-family="sans-serif" font-size="13" lengthAdjust="spacing" textLength="68.7007" x="294.47" y="692.4356">/FatalError</text></g><!--link system__active__waiting to *end*system__active--><g class="link" data-entity-1="ent0006" data-entity-2="ent0002" data-link-type="dependency" data-source-line="39" id="lnk4"><path d="M167.71,708.2987 C184.26,725.9187 203.6738,746.594 215.2938,758.974" fill="none" id="system__active__waiting-to-*end*system__active" style="stroke:#4E79A7;stroke-width:1;"/><polygon fill="#4E79A7" points="219.4,763.3487,216.1572,754.0491,215.9781,759.7031,210.3241,759.524,219.4,763.3487" style="stroke:#4E79A7;stroke-width:1;"/><text fill="#000000" font-family="sans-serif" font-size="13" lengthAdjust="spacing" textLength="68.7007" x="199.47" y="738.9356">/FatalError</text></g><!--link *start*system__active to system__active__processing--><g class="link" data-entity-1="ent0005" data-entity-2="ent0005" data-link-type="dependency" data-source-line="40" id="lnk6"><path d="M180.47,499.9887 C180.47,508.8787 180.47,516.8887 180.47,530.3888" fill="none" id="*start*system__active-to-system__active__processing" style="stroke:#181818;stroke-width:1;"/><polygon fill="#181818" points="180.47,536.3888,184.47,527.3888,180.47,531.3888,176.47,527.3888,180.47,536.3888" style="stroke:#181818;stroke-width:1;"/></g><!--link system__active__processing to system__active__waiting--><g class="link" data-entity-1="ent0005" data-entity-2="ent0006" data-link-type="dependency" data-source-line="41" id="lnk7"><path d="M60.17,615.3487 C54.2,620.4788 48.87,626.2887 44.47,632.8687 C34.26,648.1187 38.6122,656.7204 55.6322,664.8204" fill="none" id="system__active__processing-to-system__active__waiting" style="stroke:#181818;stroke-width:1;"/><polygon fill="#181818" points="61.05,667.3988,54.6423,659.9194,56.5352,665.2501,51.2045,667.143,61.05,667.3988" style="stroke:#181818;stroke-width:1;"/><text fill="#000000" font-family="sans-serif" font-size="13" lengthAdjust="spacing" textLength="112.8804" x="45.47" y="645.9356">Processing.Pause</text></g><!--link system__active__waiting to system__active__processing--><g class="link" data-entity-1="ent0006" data-entity-2="ent0005" data-link-type="dependency" data-source-line="42" id="lnk8"><path d="M154.95,667.3988 C159.01,652.9888 163.0464,638.6649 167.9964,621.0549" fill="none" id="system__active__waiting-to-system__active__processing" style="stroke:#181818;stroke-width:1;"/><polygon fill="#181818" points="169.62,615.2788,163.3338,622.8606,168.267,620.0922,171.0353,625.0254,169.62,615.2788" style="stroke:#181818;stroke-width:1;"/><text fill="#000000" font-family="sans-serif" font-size="13" lengthAdjust="spacing" textLength="106.4692" x="165.47" y="645.9356">Waiting.Resume</text></g><g class="entity" data-qualified-name="system.system__error" id="ent0007"><rect fill="#F1F1F1" height="78.2031" rx="12.5" ry="12.5" style="stroke:#181818;stroke-width:0.5;" width="221.0645" x="257.55" y="848.8756"/><line style="stroke:#181818;stroke-width:0.5;" x1="257.55" x2="478.6145" y1="875.1725" y2="875.1725"/><text fill="#000000" font-family="sans-serif" font-size="14" lengthAdjust="spacing" textLength="141.3877" x="297.3884" y="866.8707">Error (System.Error)</text><text fill="#000000" font-family="sans-serif" font-size="12" lengthAdjust="spacing" textLength="43.459" x="262.55" y="891.3112">enter {</text><text fill="#000000" font-family="sans-serif" font-size="12" lengthAdjust="spacing" textLength="185.8066" x="277.8078" y="905.2799">error_count = error_count + 1;</text><text fill="#000000" font-family="sans-serif" font-size="12" lengthAdjust="spacing" textLength="7.6348" x="262.55" y="919.2487">}</text></g><g class="start_entity" data-qualified-name="system..start.system" data-source-line="50" id="ent0012"><ellipse cx="357.09" cy="152.2656" fill="#222222" rx="10" ry="10" style="stroke:#222222;stroke-width:1;"/></g><!--link system__idle to system__error--><g class="link" data-entity-1="ent0003" data-entity-2="ent0007" data-link-type="dependency" data-source-line="47" id="lnk9"><path d="M404.27,277.6956 C408.63,283.1956 412.41,289.1456 415.09,295.4656 C438.31,350.2356 435.41,774.9656 415.09,830.8756 C412.87,836.9656 413.0065,837.8689 409.3065,843.3989" fill="none" id="system__idle-to-system__error" style="stroke:#4E79A7;stroke-width:1;"/><polygon fill="#4E79A7" points="405.97,848.3856,414.2993,843.1299,408.7504,844.23,407.6503,838.6812,405.97,848.3856" style="stroke:#4E79A7;stroke-width:1;"/><text fill="#000000" font-family="sans-serif" font-size="13" lengthAdjust="spacing" textLength="64.3208" x="432.09" y="600.2425">FatalError</text></g><!--link system__active to system__error--><g class="link" data-entity-1="ent0004" data-entity-2="ent0007" data-link-type="dependency" data-source-line="48" id="lnk10"><path d="M206.17,796.1756 C210.97,808.5156 217.18,820.2256 225.09,830.8756 C233.59,842.3256 239.6114,848.4154 252.0014,855.6654" fill="none" id="system__active-to-system__error" style="stroke:#4E79A7;stroke-width:1;"/><polygon fill="#4E79A7" points="257.18,858.6956,251.4323,850.6979,252.8645,856.1704,247.392,857.6026,257.18,858.6956" style="stroke:#4E79A7;stroke-width:1;"/><text fill="#000000" font-family="sans-serif" font-size="13" lengthAdjust="spacing" textLength="64.3208" x="226.09" y="826.9425">FatalError</text></g><!--link system__error to system__error--><g class="link" data-entity-1="ent0007" data-entity-2="ent0007" data-link-type="dependency" data-source-line="49" id="lnk11"><path d="M478.69,877.9456 C489.65,879.9556 496.62,883.2956 496.62,887.9756 C496.62,892.6556 495.5516,894.9133 484.5916,896.9233" fill="none" id="system__error-to-system__error" style="stroke:#4E79A7;stroke-width:1;"/><polygon fill="#4E79A7" points="478.69,898.0056,488.2639,900.3165,483.608,897.1037,486.8208,892.4478,478.69,898.0056" style="stroke:#4E79A7;stroke-width:1;"/><text fill="#000000" font-family="sans-serif" font-size="13" lengthAdjust="spacing" textLength="64.3208" x="502.62" y="892.5425">FatalError</text></g><!--link *start*system to system__idle--><g class="link" data-entity-1="ent0012" data-entity-2="ent0003" data-link-type="dependency" data-source-line="50" id="lnk13"><path d="M357.09,162.5856 C357.09,171.4856 357.09,179.4956 357.09,192.9956" fill="none" id="*start*system-to-system__idle" style="stroke:#181818;stroke-width:1;"/><polygon fill="#181818" points="357.09,198.9956,361.09,189.9956,357.09,193.9956,353.09,189.9956,357.09,198.9956" style="stroke:#181818;stroke-width:1;"/></g><!--link system__idle to system__active--><g class="link" data-entity-1="ent0003" data-entity-2="ent0004" data-link-type="dependency" data-source-line="51" id="lnk14"><path d="M285.42,247.0656 C254.47,254.3456 221.07,268.4056 202.09,295.4656 C181.65,324.6056 172.8555,353.5807 170.3255,389.1707" fill="none" id="system__idle-to-system__active" style="stroke:#181818;stroke-width:1;"/><polygon fill="#181818" points="169.9,395.1556,174.5281,386.4619,170.2545,390.1682,166.5482,385.8946,169.9,395.1556" style="stroke:#181818;stroke-width:1;"/><text fill="#000000" font-family="sans-serif" font-size="13" lengthAdjust="spacing" textLength="59.5854" x="203.09" y="341.0325">Idle.Start</text></g><!--link system__active to system__idle--><g class="link" data-entity-1="ent0004" data-entity-2="ent0003" data-link-type="dependency" data-source-line="52" id="lnk15"><path d="M258.86,395.0156 C273.24,341.0156 285.18,296.8456 286.09,295.4656 C290.23,289.1656 291.0327,287.4633 296.5627,282.0233" fill="none" id="system__active-to-system__idle" style="stroke:#181818;stroke-width:1;"/><polygon fill="#181818" points="300.84,277.8156,291.6189,281.2756,297.2756,281.322,297.2292,286.9787,300.84,277.8156" style="stroke:#181818;stroke-width:1;"/><text fill="#000000" font-family="sans-serif" font-size="13" lengthAdjust="spacing" textLength="74.1279" x="313.7045" y="308.5325">Active.Stop</text><path d="M291.09,317.5984 L291.09,372.5984 L410.09,372.5984 L410.09,327.5984 L400.09,317.5984 L291.09,317.5984" fill="#FEFFDD" style="stroke:#181818;stroke-width:0.5;"/><path d="M400.09,317.5984 L400.09,327.5984 L410.09,327.5984 L400.09,317.5984" fill="#FEFFDD" style="stroke:#181818;stroke-width:0.5;"/><text fill="#000000" font-family="sans-serif" font-size="13" lengthAdjust="spacing" textLength="49.7974" x="297.09" y="334.6653">effect {</text><text fill="#000000" font-family="sans-serif" font-size="13" lengthAdjust="spacing" textLength="81.8276" x="313.6193" y="349.7981">counter = 0;</text><text fill="#000000" font-family="sans-serif" font-size="13" lengthAdjust="spacing" textLength="8.271" x="297.09" y="364.931">}</text></g><!--link system__active to system__error--><g class="link" data-entity-1="ent0004" data-entity-2="ent0007" data-link-type="dependency" data-source-line="58" id="lnk16"><path d="M298.89,796.3656 C305.75,808.2156 312.83,819.8156 320.09,830.8756 C323.95,836.7656 324.6298,838.024 329.1898,843.744" fill="none" id="system__active-to-system__error-1" style="stroke:#181818;stroke-width:1;"/><polygon fill="#181818" points="332.93,848.4356,330.4475,838.9048,329.8132,844.526,324.192,843.8917,332.93,848.4356" style="stroke:#181818;stroke-width:1;"/><text fill="#000000" font-family="sans-serif" font-size="13" lengthAdjust="spacing" textLength="93.9897" x="321.09" y="826.9425">counter &gt; 100</text></g><!--link system__error to system__idle--><g class="link" data-entity-1="ent0007" data-entity-2="ent0003" data-link-type="dependency" data-source-line="59" id="lnk17"><path d="M450.6,848.4456 C470.73,834.8356 489.73,817.4156 501.09,795.8756 C584.07,638.4456 552.85,565.7356 501.09,395.4656 C485.52,344.2856 471.16,334.0356 434.09,295.4656 C428.12,289.2656 426.0675,287.0582 419.1475,281.4382" fill="none" id="system__error-to-system__idle" style="stroke:#181818;stroke-width:1;"/><polygon fill="#181818" points="414.49,277.6556,418.9546,286.4344,418.3713,280.8077,423.998,280.2244,414.49,277.6556" style="stroke:#181818;stroke-width:1;"/><text fill="#000000" font-family="sans-serif" font-size="13" lengthAdjust="spacing" textLength="102.5908" x="553.09" y="600.2425">error_count &lt; 3</text></g><g class="start_entity" data-qualified-name=".start." data-source-line="62" id="ent0018"><ellipse cx="346.34" cy="16" fill="#222222" rx="10" ry="10" style="stroke:#222222;stroke-width:1;"/></g><g class="end_entity" data-qualified-name=".end." data-source-line="63" id="ent0020"><ellipse cx="346.34" cy="1011.08" fill="none" rx="11" ry="11" style="stroke:#222222;stroke-width:1;"/><ellipse cx="346.34" cy="1011.08" fill="#222222" rx="6" ry="6" style="stroke:#222222;stroke-width:1;"/></g><!--link *start* to system--><g class="link" data-entity-1="ent0018" data-entity-2="ent0002" data-link-type="dependency" data-source-line="62" id="lnk19"><path d="M346.34,26.45 C346.34,37.81 346.34,52.78 346.34,79.86" fill="none" id="*start*-to-system" style="stroke:#181818;stroke-width:1;"/><polygon fill="#181818" points="346.34,85.86,350.34,76.86,346.34,80.86,342.34,76.86,346.34,85.86" style="stroke:#181818;stroke-width:1;"/></g><!--link system to *end*--><g class="link" data-entity-1="ent0002" data-entity-2="ent0020" data-link-type="dependency" data-source-line="63" id="lnk21"><path d="M346.34,940.32 C346.34,967.34 346.34,982.37 346.34,993.99" fill="none" id="system-to-*end*" style="stroke:#181818;stroke-width:1;"/><polygon fill="#181818" points="346.34,999.99,350.34,990.99,346.34,994.99,342.34,990.99,346.34,999.99" style="stroke:#181818;stroke-width:1;"/></g><g class="legend" data-source-line="16"><rect fill="#DDDDDD" height="199.2656" rx="7.5" ry="7.5" style="stroke:#000000;stroke-width:1;" width="210.2451" x="471.4357" y="1042.08"/><text fill="#000000" font-family="sans-serif" font-size="14" font-weight="bold" lengthAdjust="spacing" textLength="112.5264" x="476.4357" y="1060.0751">Event Scoping</text><line style="stroke:#000000;stroke-width:1;" x1="471.4357" x2="681.6808" y1="1068.3769" y2="1068.3769"/><text fill="#000000" font-family="sans-serif" font-size="14" lengthAdjust="spacing" textLength="13.2275" x="476.4357" y="1086.372">&#9632;</text><text fill="#000000" font-family="sans-serif" font-size="14" lengthAdjust="spacing" textLength="4.4502" x="489.6632" y="1086.372">&#160;</text><text fill="#000000" font-family="sans-serif" font-size="14" font-weight="bold" lengthAdjust="spacing" textLength="47.5029" x="494.1134" y="1086.372">Pause</text><text fill="#000000" font-family="sans-serif" font-size="14" lengthAdjust="spacing" textLength="98.2734" x="546.0666" y="1086.372">(1 transitions)</text><text fill="#000000" font-family="sans-serif" font-size="14" lengthAdjust="spacing" textLength="8.9004" x="476.4357" y="1102.6689">&#160;&#160;</text><text fill="#808080" font-family="sans-serif" font-size="10" lengthAdjust="spacing" textLength="124.4873" x="485.3361" y="1103.6122">/Active.Processing.Pause</text><text fill="#000000" font-family="sans-serif" font-size="14" lengthAdjust="spacing" textLength="13.2275" x="476.4357" y="1118.9657">&#9632;</text><text fill="#000000" font-family="sans-serif" font-size="14" lengthAdjust="spacing" textLength="4.4502" x="489.6632" y="1118.9657">&#160;</text><text fill="#000000" font-family="sans-serif" font-size="14" font-weight="bold" lengthAdjust="spacing" textLength="36.415" x="494.1134" y="1118.9657">Stop</text><text fill="#000000" font-family="sans-serif" font-size="14" lengthAdjust="spacing" textLength="98.2734" x="534.9787" y="1118.9657">(1 transitions)</text><text fill="#000000" font-family="sans-serif" font-size="14" lengthAdjust="spacing" textLength="8.9004" x="476.4357" y="1135.2626">&#160;&#160;</text><text fill="#808080" font-family="sans-serif" font-size="10" lengthAdjust="spacing" textLength="60.3906" x="485.3361" y="1136.206">/Active.Stop</text><text fill="#000000" font-family="sans-serif" font-size="14" lengthAdjust="spacing" textLength="13.2275" x="476.4357" y="1151.5595">&#9632;</text><text fill="#000000" font-family="sans-serif" font-size="14" lengthAdjust="spacing" textLength="4.4502" x="489.6632" y="1151.5595">&#160;</text><text fill="#000000" font-family="sans-serif" font-size="14" font-weight="bold" lengthAdjust="spacing" textLength="62.6582" x="494.1134" y="1151.5595">Resume</text><text fill="#000000" font-family="sans-serif" font-size="14" lengthAdjust="spacing" textLength="98.2734" x="561.2218" y="1151.5595">(1 transitions)</text><text fill="#000000" font-family="sans-serif" font-size="14" lengthAdjust="spacing" textLength="8.9004" x="476.4357" y="1167.8564">&#160;&#160;</text><text fill="#808080" font-family="sans-serif" font-size="10" lengthAdjust="spacing" textLength="119.5557" x="485.3361" y="1168.7997">/Active.Waiting.Resume</text><text fill="#4E79A7" font-family="sans-serif" font-size="14" lengthAdjust="spacing" textLength="13.2275" x="476.4357" y="1184.1532">&#9632;</text><text fill="#000000" font-family="sans-serif" font-size="14" lengthAdjust="spacing" textLength="4.4502" x="489.6632" y="1184.1532">&#160;</text><text fill="#000000" font-family="sans-serif" font-size="14" font-weight="bold" lengthAdjust="spacing" textLength="79.8438" x="494.1134" y="1184.1532">FatalError</text><text fill="#000000" font-family="sans-serif" font-size="14" lengthAdjust="spacing" textLength="98.2734" x="578.4074" y="1184.1532">(5 transitions)</text><text fill="#000000" font-family="sans-serif" font-size="14" lengthAdjust="spacing" textLength="8.9004" x="476.4357" y="1200.4501">&#160;&#160;</text><text fill="#808080" font-family="sans-serif" font-size="10" lengthAdjust="spacing" textLength="52.8467" x="485.3361" y="1201.3935">/FatalError</text><text fill="#000000" font-family="sans-serif" font-size="14" lengthAdjust="spacing" textLength="13.2275" x="476.4357" y="1216.747">&#9632;</text><text fill="#000000" font-family="sans-serif" font-size="14" lengthAdjust="spacing" textLength="4.4502" x="489.6632" y="1216.747">&#160;</text><text fill="#000000" font-family="sans-serif" font-size="14" font-weight="bold" lengthAdjust="spacing" textLength="39.8193" x="494.1134" y="1216.747">Start</text><text fill="#000000" font-family="sans-serif" font-size="14" lengthAdjust="spacing" textLength="98.2734" x="538.383" y="1216.747">(1 transitions)</text><text fill="#000000" font-family="sans-serif" font-size="14" lengthAdjust="spacing" textLength="8.9004" x="476.4357" y="1233.0439">&#160;&#160;</text><text fill="#808080" font-family="sans-serif" font-size="10" lengthAdjust="spacing" textLength="49.2041" x="485.3361" y="1233.9872">/Idle.Start</text></g><?plantuml-src fLRTJjim5BxtKnon6yZKKhHDQAL4WWaGqYQXTTek05LkSbeiKZkoNQQEyXgxthFjINQSdzP9GsbPBjhOvvplExzsxaICW9FKpY164scHMg4aO-PUo9HhFW5ZkKLuP02dFBeVQpMLyIULADthfGQdiGf3-2p6T_P2yrcJLgGcgJB2OgbucapHAIeTewv35IZdIjg-dINeYOJbYOZO4sC9Zb76O5KA2Ouicn_3Twu57oO8zFvjbcR_br9OmHEI4IFCsHmYyikYXZa8QUcta-sYraeFCbb5GXmvqu9HE_zP49mz86dr8vKAEGu2rgA7KQGKI_TD9tl2lx__zFQphH22u8fF3GO1x1w0rLnIFYZFPez2xHdn2xi7dR2m7rC6mlsJo8e7R5zf5Q4nnDBE44h4thwp2jTpzYb1srCwgwrelgAPJbuHsmzEYXHORlySvVkpmuydXpNASqwzSERAvcW_R4QxDDeoYrpRBQAxfAPfPqPr6g-VygdQwS-CnGdivlzxEy0Dc7olEZXk_g2OnHt7KDgqtS8t70m4xUJgtWPq0RFMVxoHJbPEmZ5qZcxaam-VbsT1a2-h53nNQVBH0resRmtCQ-ictC4WNSYNcC-gK6ZnLBkNbTZAjxTmi0pJyx1emRfxnNQpRpzpuIQEjQwBzhrjXN0Tt9AdNXS-Yr0mR6hk92tI-ByaDY6KZdIXVWwzxFjQXmYnElqPtXDRHLmMTuWZfN5jZUkTdELfKTniLQqfBX9PsQaFYtz175TM5L9_t2grguFNYbYB-3MckNWRothND9yQgsKafEK9r-X-3PGCl9ibiv2AggCa94BUPniu6c5alHF4Fvwytd1ti3D-YRUCkOG9QVuxJGbRzTMlRW_UqUT6SI1tWSwuQY_oeQ4hWHo_IDIG9ryKVN0eVSIgkIq1MlaK_mC0?></g></svg>