<svg xmlns="http://www.w3.org/2000/svg" xmlns:xlink="http://www.w3.org/1999/xlink" contentStyleType="text/css" data-diagram-type="DESCRIPTION" height="524px" preserveAspectRatio="none" style="width:1160px;height:524px;background:#FFFFFF;" version="1.1" viewBox="0 0 1160 524" width="1160px" zoomAndPan="magnify"><defs/><g><!--cluster Input Layer--><g class="cluster" data-entity="Input Layer" data-source-line="1" data-uid="ent0002" id="cluster_Input Layer"><path d="M8.5,6 L100.124,6 A3.75,3.75 0 0 1 102.624,8.5 L109.624,28.2969 L655.5,28.2969 A2.5,2.5 0 0 1 658,30.7969 L658,100.8 A2.5,2.5 0 0 1 655.5,103.3 L8.5,103.3 A2.5,2.5 0 0 1 6,100.8 L6,8.5 A2.5,2.5 0 0 1 8.5,6" fill="none" style="stroke:#000000;stroke-width:1.5;"/><line style="stroke:#000000;stroke-width:1.5;" x1="6" x2="109.624" y1="28.2969" y2="28.2969"/><text fill="#000000" font-family="sans-serif" font-size="14" font-weight="bold" lengthAdjust="spacing" textLength="90.624" x="10" y="20.9951">Input Layer</text></g><!--cluster Processing Layer--><g class="cluster" data-entity="Processing Layer" data-source-line="7" data-uid="ent0006" id="cluster_Processing Layer"><path d="M70.5,152.3 L206.2979,152.3 A3.75,3.75 0 0 1 208.7979,154.8 L215.7979,174.5969 L464.5,174.5969 A2.5,2.5 0 0 1 467,177.0969 L467,514.69 A2.5,2.5 0 0 1 464.5,517.19 L70.5,517.19 A2.5,2.5 0 0 1 68,514.69 L68,154.8 A2.5,2.5 0 0 1 70.5,152.3" fill="none" style="stroke:#000000;stroke-width:1.5;"/><line style="stroke:#000000;stroke-width:1.5;" x1="68" x2="215.7979" y1="174.5969" y2="174.5969"/><text fill="#000000" font-family="sans-serif" font-size="14" font-weight="bold" lengthAdjust="spacing" textLength="134.7979" x="72" y="167.2951">Processing Layer</text></g><!--cluster Output Layer--><g class="cluster" data-entity="Output Layer" data-source-line="13" data-uid="ent0010" id="cluster_Output Layer"><path d="M493.5,419.89 L598.5088,419.89 A3.75,3.75 0 0 1 601.0088,422.39 L608.0088,442.1869 L1150.5,442.1869 A2.5,2.5 0 0 1 1153,444.6869 L1153,514.69 A2.5,2.5 0 0 1 1150.5,517.19 L493.5,517.19 A2.5,2.5 0 0 1 491,514.69 L491,422.39 A2.5,2.5 0 0 1 493.5,419.89" fill="none" style="stroke:#000000;stroke-width:1.5;"/><line style="stroke:#000000;stroke-width:1.5;" x1="491" x2="608.0088" y1="442.1869" y2="442.1869"/><text fill="#000000" font-family="sans-serif" font-size="14" font-weight="bold" lengthAdjust="spacing" textLength="104.0088" x="495" y="434.8851">Output Layer</text></g><!--entity dsl--><g class="entity" data-entity="dsl" data-source-line="2" data-uid="ent0003" id="entity_dsl"><rect fill="#F1F1F1" height="46.2969" rx="2.5" ry="2.5" style="stroke:#181818;stroke-width:0.5;" width="244.2715" x="21.86" y="41"/><rect fill="#F1F1F1" height="10" style="stroke:#181818;stroke-width:0.5;" width="15" x="246.1315" y="46"/><rect fill="#F1F1F1" height="2" style="stroke:#181818;stroke-width:0.5;" width="4" x="244.1315" y="48"/><rect fill="#F1F1F1" height="2" style="stroke:#181818;stroke-width:0.5;" width="4" x="244.1315" y="52"/><text fill="#000000" font-family="sans-serif" font-size="14" lengthAdjust="spacing" textLength="204.2715" x="36.86" y="73.9951">State Machine DSL Definition</text></g><!--entity templates--><g class="entity" data-entity="templates" data-source-line="3" data-uid="ent0004" id="entity_templates"><rect fill="#F1F1F1" height="46.2969" rx="2.5" ry="2.5" style="stroke:#181818;stroke-width:0.5;" width="142.4502" x="300.77" y="41"/><rect fill="#F1F1F1" height="10" style="stroke:#181818;stroke-width:0.5;" width="15" x="423.2202" y="46"/><rect fill="#F1F1F1" height="2" style="stroke:#181818;stroke-width:0.5;" width="4" x="421.2202" y="48"/><rect fill="#F1F1F1" height="2" style="stroke:#181818;stroke-width:0.5;" width="4" x="421.2202" y="52"/><text fill="#000000" font-family="sans-serif" font-size="14" lengthAdjust="spacing" textLength="102.4502" x="315.77" y="73.9951">Template Files</text></g><!--entity config--><g class="entity" data-entity="config" data-source-line="4" data-uid="ent0005" id="entity_config"><rect fill="#F1F1F1" height="46.2969" rx="2.5" ry="2.5" style="stroke:#181818;stroke-width:0.5;" width="163.8398" x="478.08" y="41"/><rect fill="#F1F1F1" height="10" style="stroke:#181818;stroke-width:0.5;" width="15" x="621.9198" y="46"/><rect fill="#F1F1F1" height="2" style="stroke:#181818;stroke-width:0.5;" width="4" x="619.9198" y="48"/><rect fill="#F1F1F1" height="2" style="stroke:#181818;stroke-width:0.5;" width="4" x="619.9198" y="52"/><text fill="#000000" font-family="sans-serif" font-size="14" lengthAdjust="spacing" textLength="123.8398" x="493.08" y="73.9951">Configuration File</text></g><!--entity parser--><g class="entity" data-entity="parser" data-source-line="8" data-uid="ent0007" id="entity_parser"><rect fill="#F1F1F1" height="46.2969" rx="2.5" ry="2.5" style="stroke:#181818;stroke-width:0.5;" width="84.4404" x="142.78" y="187.3"/><rect fill="#F1F1F1" height="10" style="stroke:#181818;stroke-width:0.5;" width="15" x="207.2204" y="192.3"/><rect fill="#F1F1F1" height="2" style="stroke:#181818;stroke-width:0.5;" width="4" x="205.2204" y="194.3"/><rect fill="#F1F1F1" height="2" style="stroke:#181818;stroke-width:0.5;" width="4" x="205.2204" y="198.3"/><text fill="#000000" font-family="sans-serif" font-size="14" lengthAdjust="spacing" textLength="44.4404" x="157.78" y="220.2951">Parser</text></g><!--entity engine--><g class="entity" data-entity="engine" data-source-line="9" data-uid="ent0008" id="entity_engine"><rect fill="#F1F1F1" height="46.2969" rx="2.5" ry="2.5" style="stroke:#181818;stroke-width:0.5;" width="158.6924" x="292.65" y="310.6"/><rect fill="#F1F1F1" height="10" style="stroke:#181818;stroke-width:0.5;" width="15" x="431.3424" y="315.6"/><rect fill="#F1F1F1" height="2" style="stroke:#181818;stroke-width:0.5;" width="4" x="429.3424" y="317.6"/><rect fill="#F1F1F1" height="2" style="stroke:#181818;stroke-width:0.5;" width="4" x="429.3424" y="321.6"/><text fill="#000000" font-family="sans-serif" font-size="14" lengthAdjust="spacing" textLength="118.6924" x="307.65" y="343.5951">Template Engine</text></g><!--entity expr--><g class="entity" data-entity="expr" data-source-line="10" data-uid="ent0009" id="entity_expr"><rect fill="#F1F1F1" height="46.2969" rx="2.5" ry="2.5" style="stroke:#181818;stroke-width:0.5;" width="185.5918" x="148.2" y="454.89"/><rect fill="#F1F1F1" height="10" style="stroke:#181818;stroke-width:0.5;" width="15" x="313.7918" y="459.89"/><rect fill="#F1F1F1" height="2" style="stroke:#181818;stroke-width:0.5;" width="4" x="311.7918" y="461.89"/><rect fill="#F1F1F1" height="2" style="stroke:#181818;stroke-width:0.5;" width="4" x="311.7918" y="465.89"/><text fill="#000000" font-family="sans-serif" font-size="14" lengthAdjust="spacing" textLength="145.5918" x="163.2" y="487.8851">Expression Renderer</text></g><!--entity output_c--><g class="entity" data-entity="output_c" data-source-line="14" data-uid="ent0011" id="entity_output_c"><rect fill="#F1F1F1" height="46.2969" rx="2.5" ry="2.5" style="stroke:#181818;stroke-width:0.5;" width="168.7891" x="506.61" y="454.89"/><rect fill="#F1F1F1" height="10" style="stroke:#181818;stroke-width:0.5;" width="15" x="655.3991" y="459.89"/><rect fill="#F1F1F1" height="2" style="stroke:#181818;stroke-width:0.5;" width="4" x="653.3991" y="461.89"/><rect fill="#F1F1F1" height="2" style="stroke:#181818;stroke-width:0.5;" width="4" x="653.3991" y="465.89"/><text fill="#000000" font-family="sans-serif" font-size="14" lengthAdjust="spacing" textLength="128.7891" x="521.61" y="487.8851">Generated C Code</text></g><!--entity output_h--><g class="entity" data-entity="output_h" data-source-line="15" data-uid="ent0012" id="entity_output_h"><rect fill="#F1F1F1" height="46.2969" rx="2.5" ry="2.5" style="stroke:#181818;stroke-width:0.5;" width="205.8877" x="710.06" y="454.89"/><rect fill="#F1F1F1" height="10" style="stroke:#181818;stroke-width:0.5;" width="15" x="895.9477" y="459.89"/><rect fill="#F1F1F1" height="2" style="stroke:#181818;stroke-width:0.5;" width="4" x="893.9477" y="461.89"/><rect fill="#F1F1F1" height="2" style="stroke:#181818;stroke-width:0.5;" width="4" x="893.9477" y="465.89"/><text fill="#000000" font-family="sans-serif" font-size="14" lengthAdjust="spacing" textLength="165.8877" x="725.06" y="487.8851">Generated Header Files</text></g><!--entity output_other--><g class="entity" data-entity="output_other" data-source-line="16" data-uid="ent0013" id="entity_output_other"><rect fill="#F1F1F1" height="46.2969" rx="2.5" ry="2.5" style="stroke:#181818;stroke-width:0.5;" width="185.5303" x="951.23" y="454.89"/><rect fill="#F1F1F1" height="10" style="stroke:#181818;stroke-width:0.5;" width="15" x="1116.7603" y="459.89"/><rect fill="#F1F1F1" height="2" style="stroke:#181818;stroke-width:0.5;" width="4" x="1114.7603" y="461.89"/><rect fill="#F1F1F1" height="2" style="stroke:#181818;stroke-width:0.5;" width="4" x="1114.7603" y="465.89"/><text fill="#000000" font-family="sans-serif" font-size="14" lengthAdjust="spacing" textLength="145.5303" x="966.23" y="487.8851">Other Resource Files</text></g><!--link dsl to parser--><g class="link" data-entity-1="dsl" data-entity-2="parser" data-source-line="19" data-uid="lnk14" id="link_dsl_parser"><path d="M150.41,87.7 C158.11,114.81 169.3207,154.2483 177.0007,181.2883" fill="none" id="dsl-to-parser" style="stroke:#181818;stroke-width:1;"/><polygon fill="#181818" points="178.64,187.06,180.0289,177.3096,177.2739,182.2502,172.3332,179.4953,178.64,187.06" style="stroke:#181818;stroke-width:1;"/><text fill="#000000" font-family="sans-serif" font-size="13" lengthAdjust="spacing" textLength="133.0151" x="165" y="132.3669">Parse State Machine</text></g><!--link templates to engine--><g class="link" data-entity-1="templates" data-entity-2="engine" data-source-line="20" data-uid="lnk15" id="link_templates_engine"><path d="M372,87.51 C372,137.88 372,253.78 372,304.27" fill="none" id="templates-to-engine" style="stroke:#181818;stroke-width:1;"/><polygon fill="#181818" points="372,310.27,376,301.27,372,305.27,368,301.27,372,310.27" style="stroke:#181818;stroke-width:1;"/><text fill="#000000" font-family="sans-serif" font-size="13" lengthAdjust="spacing" textLength="103.8477" x="373" y="215.0169">Load Templates</text></g><!--link config to engine--><g class="link" data-entity-1="config" data-entity-2="engine" data-source-line="21" data-uid="lnk16" id="link_config_engine"><path d="M553.4,87.76 C542.75,121.7 519.45,186.81 485,233.6 C462.56,264.07 434.1022,288.2463 409.4622,306.5963" fill="none" id="config-to-engine" style="stroke:#181818;stroke-width:1;"/><polygon fill="#181818" points="404.65,310.18,414.2574,308.0125,408.6601,307.1936,409.4791,301.5963,404.65,310.18" style="stroke:#181818;stroke-width:1;"/><text fill="#000000" font-family="sans-serif" font-size="13" lengthAdjust="spacing" textLength="134.3926" x="533" y="215.0169">Configure Rendering</text></g><!--link parser to engine--><g class="link" data-entity-1="parser" data-entity-2="engine" data-source-line="22" data-uid="lnk17" id="link_parser_engine"><path d="M187.18,233.84 C189.78,248.92 195.48,268.24 208,280.6 C230.54,302.84 256.7038,314.1765 286.4538,321.4965" fill="none" id="parser-to-engine" style="stroke:#181818;stroke-width:1;"/><polygon fill="#181818" points="292.28,322.93,284.4964,316.8955,287.4248,321.7354,282.585,324.6638,292.28,322.93" style="stroke:#181818;stroke-width:1;"/><text fill="#000000" font-family="sans-serif" font-size="13" lengthAdjust="spacing" textLength="136.1255" x="209" y="276.6669">State Machine Model</text></g><!--link engine to expr--><g class="link" data-entity-1="engine" data-entity-2="expr" data-source-line="23" data-uid="lnk18" id="link_engine_expr"><path d="M292.34,340.16 C225.68,346.55 138.02,359.93 116,386.89 C93.15,414.87 123.6059,436.1401 162.7559,452.1401" fill="none" id="engine-to-expr" style="stroke:#181818;stroke-width:1;"/><polygon fill="#181818" points="168.31,454.41,161.4921,447.3025,163.6816,452.5184,158.4656,454.7079,168.31,454.41" style="stroke:#181818;stroke-width:1;"/><text fill="#000000" font-family="sans-serif" font-size="13" lengthAdjust="spacing" textLength="144.917" x="117" y="399.9569">Expression Processing</text></g><!--link expr to engine--><g class="link" data-entity-1="expr" data-entity-2="engine" data-source-line="24" data-uid="lnk19" id="link_expr_engine"><path d="M261.66,454.6 C286.15,428 322.6466,388.3546 347.1766,361.7046" fill="none" id="expr-to-engine" style="stroke:#181818;stroke-width:1;"/><polygon fill="#181818" points="351.24,357.29,342.2018,361.2029,347.8538,360.9688,348.0879,366.6208,351.24,357.29" style="stroke:#181818;stroke-width:1;"/><text fill="#000000" font-family="sans-serif" font-size="13" lengthAdjust="spacing" textLength="144.8726" x="324" y="399.9569">Rendered Expressions</text></g><!--link engine to output_c--><g class="link" data-entity-1="engine" data-entity-2="output_c" data-source-line="25" data-uid="lnk20" id="link_engine_output_c"><path d="M422.83,357.35 C440.42,365.86 459.98,376.1 477,386.89 C509.39,407.43 538.9671,431.4406 561.3371,450.7406" fill="none" id="engine-to-output_c" style="stroke:#181818;stroke-width:1;"/><polygon fill="#181818" points="565.88,454.66,561.6786,445.7522,562.0942,451.3938,556.4527,451.8094,565.88,454.66" style="stroke:#181818;stroke-width:1;"/><text fill="#000000" font-family="sans-serif" font-size="13" lengthAdjust="spacing" textLength="98.1284" x="501" y="399.9569">Generate Code</text></g><!--link engine to output_h--><g class="link" data-entity-1="engine" data-entity-2="output_h" data-source-line="26" data-uid="lnk21" id="link_engine_output_h"><path d="M451.65,346.77 C517.95,358.43 613.94,379.23 693,411.89 C721.92,423.84 747.7419,437.7589 770.9919,451.3689" fill="none" id="engine-to-output_h" style="stroke:#181818;stroke-width:1;"/><polygon fill="#181818" points="776.17,454.4,770.4236,446.4013,771.8549,451.8741,766.3822,453.3054,776.17,454.4" style="stroke:#181818;stroke-width:1;"/><text fill="#000000" font-family="sans-serif" font-size="13" lengthAdjust="spacing" textLength="118.9551" x="669" y="399.9569">Generate Headers</text></g><!--link engine to output_other--><g class="link" data-entity-1="engine" data-entity-2="output_other" data-source-line="27" data-uid="lnk22" id="link_engine_output_other"><path d="M451.75,334.92 C562.98,337.54 769.41,351.14 933,411.89 C961.49,422.47 986.0373,436.8723 1007.4773,451.1623" fill="none" id="engine-to-output_other" style="stroke:#181818;stroke-width:1;"/><polygon fill="#181818" points="1012.47,454.49,1007.1995,446.1701,1008.3095,451.7169,1002.7626,452.8269,1012.47,454.49" style="stroke:#181818;stroke-width:1;"/><text fill="#000000" font-family="sans-serif" font-size="13" lengthAdjust="spacing" textLength="131.1997" x="905" y="399.9569">Copy Resource Files</text></g><!--SRC=[RP7FRiCW38VlF8NLUrzWXrtIxe-KgbNRspHDABW9QWO8YBHgshlFEAGBNM-8tsTZVpZPd6MBi7WrReXGomlw1NmBWBT3b15X8vjE6uJLeOOLdhJHKLlp3ZA02dtYZlZf-eG-wHu39p5VXPHNrfnqEtYP2XbYfk5hyIE4csROUTjW2DgqnI0xwGDwBd9yB5vTcvRcunJvcDBrb_Ef4psuHwFGvtga- -B9xH1lztv6WpGiAgYWicfiRPdxQ4hW1INrdYsUiIvXszXHjiTW1z_WVyYcF0r37c6vVCpBmGFmmb3u5rUbZ8wR4bfRgU1urJrABP79FsOLf5Vafmgk_EyDRTwB7397weYQcVtxBi5XqIrhLxE2C6yt2ILqyicsxp3Td1cLtsl5FdbVTxdH_Wi0]--></g></svg>