<svg xmlns="http://www.w3.org/2000/svg" xmlns:xlink="http://www.w3.org/1999/xlink" contentStyleType="text/css" data-diagram-type="DESCRIPTION" height="895px" preserveAspectRatio="none" style="width:1220px;height:895px;background:#FFFFFF;" version="1.1" viewBox="0 0 1220 895" width="1220px" zoomAndPan="magnify"><defs/><g><!--cluster model--><g class="cluster" data-entity="model" data-source-line="1" data-uid="ent0002" id="cluster_model"><rect fill="none" height="220.59" rx="2.5" ry="2.5" style="stroke:#181818;stroke-width:1;" width="404" x="162" y="7"/><rect fill="none" height="10" style="stroke:#181818;stroke-width:1;" width="15" x="546" y="12"/><rect fill="none" height="2" style="stroke:#181818;stroke-width:1;" width="4" x="544" y="14"/><rect fill="none" height="2" style="stroke:#181818;stroke-width:1;" width="4" x="544" y="18"/><text fill="#000000" font-family="sans-serif" font-size="14" font-weight="bold" lengthAdjust="spacing" textLength="165.9287" x="281.0356" y="32.9951">State Machine Model</text></g><!--cluster engine--><g class="cluster" data-entity="engine" data-source-line="7" data-uid="ent0006" id="cluster_engine"><rect fill="none" height="293.27" rx="2.5" ry="2.5" style="stroke:#181818;stroke-width:1;" width="429" x="557" y="470.89"/><rect fill="none" height="10" style="stroke:#181818;stroke-width:1;" width="15" x="966" y="475.89"/><rect fill="none" height="2" style="stroke:#181818;stroke-width:1;" width="4" x="964" y="477.89"/><rect fill="none" height="2" style="stroke:#181818;stroke-width:1;" width="4" x="964" y="481.89"/><text fill="#000000" font-family="sans-serif" font-size="14" font-weight="bold" lengthAdjust="spacing" textLength="132.7744" x="705.1128" y="496.8851">Template Engine</text></g><!--cluster config--><g class="cluster" data-entity="config" data-source-line="14" data-uid="ent0011" id="cluster_config"><rect fill="none" height="291.59" rx="2.5" ry="2.5" style="stroke:#181818;stroke-width:1;" width="393" x="7" y="292.59"/><rect fill="none" height="10" style="stroke:#181818;stroke-width:1;" width="15" x="380" y="297.59"/><rect fill="none" height="2" style="stroke:#181818;stroke-width:1;" width="4" x="378" y="299.59"/><rect fill="none" height="2" style="stroke:#181818;stroke-width:1;" width="4" x="378" y="303.59"/><text fill="#000000" font-family="sans-serif" font-size="14" font-weight="bold" lengthAdjust="spacing" textLength="141.6953" x="132.6523" y="318.5851">Configuration File</text></g><!--cluster templates--><g class="cluster" data-entity="templates" data-source-line="20" data-uid="ent0015" id="cluster_templates"><rect fill="none" height="113.3" rx="2.5" ry="2.5" style="stroke:#181818;stroke-width:1;" width="354" x="607" y="292.59"/><rect fill="none" height="10" style="stroke:#181818;stroke-width:1;" width="15" x="941" y="297.59"/><rect fill="none" height="2" style="stroke:#181818;stroke-width:1;" width="4" x="939" y="299.59"/><rect fill="none" height="2" style="stroke:#181818;stroke-width:1;" width="4" x="939" y="303.59"/><text fill="#000000" font-family="sans-serif" font-size="14" font-weight="bold" lengthAdjust="spacing" textLength="115.9512" x="726.0244" y="318.5851">Template Files</text></g><!--cluster output--><g class="cluster" data-entity="output" data-source-line="25" data-uid="ent0018" id="cluster_output"><rect fill="none" height="238.59" rx="2.5" ry="2.5" style="stroke:#181818;stroke-width:1;" width="384" x="121" y="650.87"/><rect fill="none" height="10" style="stroke:#181818;stroke-width:1;" width="15" x="485" y="655.87"/><rect fill="none" height="2" style="stroke:#181818;stroke-width:1;" width="4" x="483" y="657.87"/><rect fill="none" height="2" style="stroke:#181818;stroke-width:1;" width="4" x="483" y="661.87"/><text fill="#000000" font-family="sans-serif" font-size="14" font-weight="bold" lengthAdjust="spacing" textLength="118.4326" x="253.7837" y="676.8651">Output System</text></g><!--entity State Objects--><g class="entity" data-entity="State Objects" data-source-line="2" data-uid="ent0003" id="entity_State Objects"><rect fill="#F1F1F1" height="46.2969" rx="2.5" ry="2.5" style="stroke:#181818;stroke-width:0.5;" width="134.3975" x="185.8" y="50"/><rect fill="#F1F1F1" height="10" style="stroke:#181818;stroke-width:0.5;" width="15" x="300.1975" y="55"/><rect fill="#F1F1F1" height="2" style="stroke:#181818;stroke-width:0.5;" width="4" x="298.1975" y="57"/><rect fill="#F1F1F1" height="2" style="stroke:#181818;stroke-width:0.5;" width="4" x="298.1975" y="61"/><text fill="#000000" font-family="sans-serif" font-size="14" lengthAdjust="spacing" textLength="94.3975" x="200.8" y="82.9951">State Objects</text></g><!--entity Transition Objects--><g class="entity" data-entity="Transition Objects" data-source-line="3" data-uid="ent0004" id="entity_Transition Objects"><rect fill="#F1F1F1" height="46.2969" rx="2.5" ry="2.5" style="stroke:#181818;stroke-width:0.5;" width="167.1006" x="355.45" y="50"/><rect fill="#F1F1F1" height="10" style="stroke:#181818;stroke-width:0.5;" width="15" x="502.5506" y="55"/><rect fill="#F1F1F1" height="2" style="stroke:#181818;stroke-width:0.5;" width="4" x="500.5506" y="57"/><rect fill="#F1F1F1" height="2" style="stroke:#181818;stroke-width:0.5;" width="4" x="500.5506" y="61"/><text fill="#000000" font-family="sans-serif" font-size="14" lengthAdjust="spacing" textLength="127.1006" x="370.45" y="82.9951">Transition Objects</text></g><!--entity Event Objects--><g class="entity" data-entity="Event Objects" data-source-line="4" data-uid="ent0005" id="entity_Event Objects"><rect fill="#F1F1F1" height="46.2969" rx="2.5" ry="2.5" style="stroke:#181818;stroke-width:0.5;" width="137.4463" x="186.28" y="157.29"/><rect fill="#F1F1F1" height="10" style="stroke:#181818;stroke-width:0.5;" width="15" x="303.7263" y="162.29"/><rect fill="#F1F1F1" height="2" style="stroke:#181818;stroke-width:0.5;" width="4" x="301.7263" y="164.29"/><rect fill="#F1F1F1" height="2" style="stroke:#181818;stroke-width:0.5;" width="4" x="301.7263" y="168.29"/><text fill="#000000" font-family="sans-serif" font-size="14" lengthAdjust="spacing" textLength="97.4463" x="201.28" y="190.2851">Event Objects</text></g><!--entity Jinja2 Environment--><g class="entity" data-entity="Jinja2 Environment" data-source-line="8" data-uid="ent0007" id="entity_Jinja2 Environment"><rect fill="#F1F1F1" height="46.2969" rx="2.5" ry="2.5" style="stroke:#181818;stroke-width:0.5;" width="172.4189" x="600.79" y="513.89"/><rect fill="#F1F1F1" height="10" style="stroke:#181818;stroke-width:0.5;" width="15" x="753.2089" y="518.89"/><rect fill="#F1F1F1" height="2" style="stroke:#181818;stroke-width:0.5;" width="4" x="751.2089" y="520.89"/><rect fill="#F1F1F1" height="2" style="stroke:#181818;stroke-width:0.5;" width="4" x="751.2089" y="524.89"/><text fill="#000000" font-family="sans-serif" font-size="14" lengthAdjust="spacing" textLength="132.4189" x="615.79" y="546.8851">Jinja2 Environment</text></g><!--entity Global Variables--><g class="entity" data-entity="Global Variables" data-source-line="9" data-uid="ent0008" id="entity_Global Variables"><rect fill="#F1F1F1" height="46.2969" rx="2.5" ry="2.5" style="stroke:#181818;stroke-width:0.5;" width="154.1738" x="807.91" y="513.89"/><rect fill="#F1F1F1" height="10" style="stroke:#181818;stroke-width:0.5;" width="15" x="942.0838" y="518.89"/><rect fill="#F1F1F1" height="2" style="stroke:#181818;stroke-width:0.5;" width="4" x="940.0838" y="520.89"/><rect fill="#F1F1F1" height="2" style="stroke:#181818;stroke-width:0.5;" width="4" x="940.0838" y="524.89"/><text fill="#000000" font-family="sans-serif" font-size="14" lengthAdjust="spacing" textLength="114.1738" x="822.91" y="546.8851">Global Variables</text></g><!--entity Filters--><g class="entity" data-entity="Filters" data-source-line="10" data-uid="ent0009" id="entity_Filters"><rect fill="#F1F1F1" height="46.2969" rx="2.5" ry="2.5" style="stroke:#181818;stroke-width:0.5;" width="82.9844" x="645.51" y="693.87"/><rect fill="#F1F1F1" height="10" style="stroke:#181818;stroke-width:0.5;" width="15" x="708.4944" y="698.87"/><rect fill="#F1F1F1" height="2" style="stroke:#181818;stroke-width:0.5;" width="4" x="706.4944" y="700.87"/><rect fill="#F1F1F1" height="2" style="stroke:#181818;stroke-width:0.5;" width="4" x="706.4944" y="704.87"/><text fill="#000000" font-family="sans-serif" font-size="14" lengthAdjust="spacing" textLength="42.9844" x="660.51" y="726.8651">Filters</text></g><!--entity Expression Renderer--><g class="entity" data-entity="Expression Renderer" data-source-line="11" data-uid="ent0010" id="entity_Expression Renderer"><rect fill="#F1F1F1" height="46.2969" rx="2.5" ry="2.5" style="stroke:#181818;stroke-width:0.5;" width="185.5918" x="763.2" y="693.87"/><rect fill="#F1F1F1" height="10" style="stroke:#181818;stroke-width:0.5;" width="15" x="928.7918" y="698.87"/><rect fill="#F1F1F1" height="2" style="stroke:#181818;stroke-width:0.5;" width="4" x="926.7918" y="700.87"/><rect fill="#F1F1F1" height="2" style="stroke:#181818;stroke-width:0.5;" width="4" x="926.7918" y="704.87"/><text fill="#000000" font-family="sans-serif" font-size="14" lengthAdjust="spacing" textLength="145.5918" x="778.2" y="726.8651">Expression Renderer</text></g><!--entity Expression Styles--><g class="entity" data-entity="Expression Styles" data-source-line="15" data-uid="ent0012" id="entity_Expression Styles"><rect fill="#F1F1F1" height="46.2969" rx="2.5" ry="2.5" style="stroke:#181818;stroke-width:0.5;" width="163.2109" x="31.39" y="335.59"/><rect fill="#F1F1F1" height="10" style="stroke:#181818;stroke-width:0.5;" width="15" x="174.6009" y="340.59"/><rect fill="#F1F1F1" height="2" style="stroke:#181818;stroke-width:0.5;" width="4" x="172.6009" y="342.59"/><rect fill="#F1F1F1" height="2" style="stroke:#181818;stroke-width:0.5;" width="4" x="172.6009" y="346.59"/><text fill="#000000" font-family="sans-serif" font-size="14" lengthAdjust="spacing" textLength="123.2109" x="46.39" y="368.5851">Expression Styles</text></g><!--entity Ignore Rules--><g class="entity" data-entity="Ignore Rules" data-source-line="16" data-uid="ent0013" id="entity_Ignore Rules"><rect fill="#F1F1F1" height="46.2969" rx="2.5" ry="2.5" style="stroke:#181818;stroke-width:0.5;" width="127.6709" x="229.16" y="335.59"/><rect fill="#F1F1F1" height="10" style="stroke:#181818;stroke-width:0.5;" width="15" x="336.8309" y="340.59"/><rect fill="#F1F1F1" height="2" style="stroke:#181818;stroke-width:0.5;" width="4" x="334.8309" y="342.59"/><rect fill="#F1F1F1" height="2" style="stroke:#181818;stroke-width:0.5;" width="4" x="334.8309" y="346.59"/><text fill="#000000" font-family="sans-serif" font-size="14" lengthAdjust="spacing" textLength="87.6709" x="244.16" y="368.5851">Ignore Rules</text></g><!--entity Custom Functions--><g class="entity" data-entity="Custom Functions" data-source-line="17" data-uid="ent0014" id="entity_Custom Functions"><rect fill="#F1F1F1" height="46.2969" rx="2.5" ry="2.5" style="stroke:#181818;stroke-width:0.5;" width="165.6924" x="31.15" y="513.89"/><rect fill="#F1F1F1" height="10" style="stroke:#181818;stroke-width:0.5;" width="15" x="176.8424" y="518.89"/><rect fill="#F1F1F1" height="2" style="stroke:#181818;stroke-width:0.5;" width="4" x="174.8424" y="520.89"/><rect fill="#F1F1F1" height="2" style="stroke:#181818;stroke-width:0.5;" width="4" x="174.8424" y="524.89"/><text fill="#000000" font-family="sans-serif" font-size="14" lengthAdjust="spacing" textLength="125.6924" x="46.15" y="546.8851">Custom Functions</text></g><!--entity .j2 Templates--><g class="entity" data-entity=".j2 Templates" data-source-line="21" data-uid="ent0016" id="entity_.j2 Templates"><rect fill="#F1F1F1" height="46.2969" rx="2.5" ry="2.5" style="stroke:#181818;stroke-width:0.5;" width="135.252" x="631.37" y="335.59"/><rect fill="#F1F1F1" height="10" style="stroke:#181818;stroke-width:0.5;" width="15" x="746.622" y="340.59"/><rect fill="#F1F1F1" height="2" style="stroke:#181818;stroke-width:0.5;" width="4" x="744.622" y="342.59"/><rect fill="#F1F1F1" height="2" style="stroke:#181818;stroke-width:0.5;" width="4" x="744.622" y="346.59"/><text fill="#000000" font-family="sans-serif" font-size="14" lengthAdjust="spacing" textLength="95.252" x="646.37" y="368.5851">.j2 Templates</text></g><!--entity Static Files--><g class="entity" data-entity="Static Files" data-source-line="22" data-uid="ent0017" id="entity_Static Files"><rect fill="#F1F1F1" height="46.2969" rx="2.5" ry="2.5" style="stroke:#181818;stroke-width:0.5;" width="116.2207" x="801.89" y="335.59"/><rect fill="#F1F1F1" height="10" style="stroke:#181818;stroke-width:0.5;" width="15" x="898.1107" y="340.59"/><rect fill="#F1F1F1" height="2" style="stroke:#181818;stroke-width:0.5;" width="4" x="896.1107" y="342.59"/><rect fill="#F1F1F1" height="2" style="stroke:#181818;stroke-width:0.5;" width="4" x="896.1107" y="346.59"/><text fill="#000000" font-family="sans-serif" font-size="14" lengthAdjust="spacing" textLength="76.2207" x="816.89" y="368.5851">Static Files</text></g><!--entity Generated Code--><g class="entity" data-entity="Generated Code" data-source-line="26" data-uid="ent0019" id="entity_Generated Code"><rect fill="#F1F1F1" height="46.2969" rx="2.5" ry="2.5" style="stroke:#181818;stroke-width:0.5;" width="154.5635" x="144.72" y="693.87"/><rect fill="#F1F1F1" height="10" style="stroke:#181818;stroke-width:0.5;" width="15" x="279.2835" y="698.87"/><rect fill="#F1F1F1" height="2" style="stroke:#181818;stroke-width:0.5;" width="4" x="277.2835" y="700.87"/><rect fill="#F1F1F1" height="2" style="stroke:#181818;stroke-width:0.5;" width="4" x="277.2835" y="704.87"/><text fill="#000000" font-family="sans-serif" font-size="14" lengthAdjust="spacing" textLength="114.5635" x="159.72" y="726.8651">Generated Code</text></g><!--entity Header Files--><g class="entity" data-entity="Header Files" data-source-line="27" data-uid="ent0020" id="entity_Header Files"><rect fill="#F1F1F1" height="46.2969" rx="2.5" ry="2.5" style="stroke:#181818;stroke-width:0.5;" width="127.165" x="334.42" y="693.87"/><rect fill="#F1F1F1" height="10" style="stroke:#181818;stroke-width:0.5;" width="15" x="441.585" y="698.87"/><rect fill="#F1F1F1" height="2" style="stroke:#181818;stroke-width:0.5;" width="4" x="439.585" y="700.87"/><rect fill="#F1F1F1" height="2" style="stroke:#181818;stroke-width:0.5;" width="4" x="439.585" y="704.87"/><text fill="#000000" font-family="sans-serif" font-size="14" lengthAdjust="spacing" textLength="87.165" x="349.42" y="726.8651">Header Files</text></g><!--entity Documentation--><g class="entity" data-entity="Documentation" data-source-line="28" data-uid="ent0021" id="entity_Documentation"><rect fill="#F1F1F1" height="46.2969" rx="2.5" ry="2.5" style="stroke:#181818;stroke-width:0.5;" width="147.9258" x="148.04" y="819.16"/><rect fill="#F1F1F1" height="10" style="stroke:#181818;stroke-width:0.5;" width="15" x="275.9658" y="824.16"/><rect fill="#F1F1F1" height="2" style="stroke:#181818;stroke-width:0.5;" width="4" x="273.9658" y="826.16"/><rect fill="#F1F1F1" height="2" style="stroke:#181818;stroke-width:0.5;" width="4" x="273.9658" y="830.16"/><text fill="#000000" font-family="sans-serif" font-size="14" lengthAdjust="spacing" textLength="107.9258" x="163.04" y="852.1551">Documentation</text></g><g class="entity" data-entity="GMN26" data-source-line="37" data-uid="ent0027" id="entity_GMN26"><path d="M1010.22,494.2 L1010.22,579.8641 L1213.7786,579.8641 L1213.7786,504.2 L1203.7786,494.2 L1010.22,494.2" fill="#FEFFDD" style="stroke:#181818;stroke-width:0.5;"/><path d="M1203.7786,494.2 L1203.7786,504.2 L1213.7786,504.2 L1203.7786,494.2" fill="#FEFFDD" style="stroke:#181818;stroke-width:1;"/><text fill="#000000" font-family="sans-serif" font-size="13" lengthAdjust="spacing" textLength="182.5586" x="1016.22" y="511.2669">Template engine is the core</text><text fill="#000000" font-family="sans-serif" font-size="13" lengthAdjust="spacing" textLength="172.1992" x="1016.22" y="526.3997">of the system, responsible</text><text fill="#000000" font-family="sans-serif" font-size="13" lengthAdjust="spacing" textLength="168.0034" x="1016.22" y="541.5325">for combining data model</text><text fill="#000000" font-family="sans-serif" font-size="13" lengthAdjust="spacing" textLength="177.3789" x="1016.22" y="556.6653">with templates to generate</text><text fill="#000000" font-family="sans-serif" font-size="13" lengthAdjust="spacing" textLength="75.0166" x="1016.22" y="571.7981">final output</text></g><!--link model to engine--><g class="link" data-entity-1="model" data-entity-2="engine" data-source-line="31" data-uid="lnk22" id="link_model_engine"><path d="M560.3486,229.129 C560.3614,229.973 560.3742,230.8184 560.3871,231.6654 C560.4384,235.0531 560.4901,238.4643 560.5421,241.8957 C560.6461,248.7585 560.7513,255.702 560.8573,262.6992 C561.0694,276.6936 561.2847,290.9031 561.5,305.1125 C562.3612,361.95 563.2225,418.7856 563.8753,461.8488 C563.9161,464.5402 563.9561,467.1778 563.9952,469.7583 C564.0001,470.0809 563.914,464.4032 563.9189,464.724" fill="none" id="model-to-engine" style="stroke:#181818;stroke-width:1;"/><polygon fill="#181818" points="564.0099,470.7233,567.873,461.6637,563.9341,465.7239,559.8739,461.785,564.0099,470.7233" style="stroke:#181818;stroke-width:1;"/><text fill="#000000" font-family="sans-serif" font-size="13" lengthAdjust="spacing" textLength="82.1069" x="561" y="264.6569">Provide data</text></g><!--link config to engine--><g class="link" data-entity-1="config" data-entity-2="engine" data-source-line="32" data-uid="lnk23" id="link_config_engine"><path d="M400.1386,421.1164 C400.1869,421.2624 400.2356,421.4084 400.2845,421.5543 C400.3823,421.8461 400.4812,422.1376 400.5813,422.4288 C400.7815,423.0112 400.9862,423.5924 401.1956,424.1721 C401.6143,425.3315 402.0516,426.4848 402.5083,427.63 C403.4218,429.9204 404.4128,432.178 405.488,434.3855 C407.6383,438.8005 410.125,443.015 413,446.89 C435.97,477.845 473.15,499.9225 504.9875,514.3625 C520.9063,521.5825 535.4894,526.8931 546.2928,530.4494 C548.9937,531.3384 551.4583,532.1179 553.6485,532.79 C554.7436,533.1261 550.0179,531.7288 550.9711,532.0116" fill="none" id="config-to-engine" style="stroke:#181818;stroke-width:1;"/><polygon fill="#181818" points="556.7232,533.7182,549.2327,527.3235,551.9298,532.296,546.9572,534.9931,556.7232,533.7182" style="stroke:#181818;stroke-width:1;"/><text fill="#000000" font-family="sans-serif" font-size="13" lengthAdjust="spacing" textLength="124.4839" x="414" y="442.9569">Configure behavior</text></g><!--link templates to engine--><g class="link" data-entity-1="templates" data-entity-2="engine" data-source-line="33" data-uid="lnk24" id="link_templates_engine"><path d="M945.7391,406.0028 C945.6935,406.1026 945.6477,406.2024 945.6016,406.3019 C945.4171,406.7003 945.2283,407.0963 945.035,407.4899 C944.6483,408.277 944.2437,409.0542 943.8204,409.8194 C942.9737,411.3498 942.052,412.8326 941.0487,414.2523 C939.0423,417.0917 936.71,419.6788 934,421.89 C873.63,471.12 643.99,404.01 585,454.89 C581.5938,457.8275 578.7192,461.2434 576.2976,464.9789 C575.0868,466.8466 576.6519,463.4174 575.6577,465.425" fill="none" id="templates-to-engine" style="stroke:#181818;stroke-width:1;"/><polygon fill="#181818" points="572.9949,470.8018,580.5736,464.5118,575.2139,466.3211,573.4046,460.9614,572.9949,470.8018" style="stroke:#181818;stroke-width:1;"/><text fill="#000000" font-family="sans-serif" font-size="13" lengthAdjust="spacing" textLength="118.2822" x="917" y="442.9569">Provide templates</text></g><!--link engine to output--><g class="link" data-entity-1="engine" data-entity-2="output" data-source-line="34" data-uid="lnk25" id="link_engine_output"><path d="M556.9907,542.7722 C556.8323,542.8713 556.6719,542.9718 556.5097,543.0737 C555.8607,543.4815 555.1818,543.9127 554.4755,544.3669 C548.8247,548 541.4194,553.1 533.5838,559.415 C517.9125,572.045 500.52,589.535 492,609.87 C487.51,620.59 485.5325,632.4619 485.1028,644.2695 C485.0491,645.7455 485.0196,647.2204 485.0123,648.692 C485.0105,649.0599 485.0101,649.4276 485.0111,649.795 C485.0116,649.9787 484.9747,644.1625 484.9758,644.3461" fill="none" id="engine-to-output" style="stroke:#181818;stroke-width:1;"/><polygon fill="#181818" points="485.0135,650.346,488.9569,641.321,484.9821,645.3461,480.957,641.3713,485.0135,650.346" style="stroke:#181818;stroke-width:1;"/><text fill="#000000" font-family="sans-serif" font-size="13" lengthAdjust="spacing" textLength="91.4189" x="493" y="622.9369">Generate files</text></g><!--link engine to GMN26--><g class="link" data-entity-1="engine" data-entity-2="GMN26" data-source-line="37" data-uid="lnk28" id="link_engine_GMN26"><path d="M573.8829,470.4236 C573.9471,470.2615 574.0118,470.0997 574.0769,469.9381 C574.2072,469.6149 574.3392,469.2926 574.473,468.9714 C574.7406,468.3289 575.0154,467.6906 575.2975,467.0569 C576.4259,464.5219 577.6716,462.0605 579.0466,459.7034 C584.5463,450.275 592.1125,442.515 602.5,438.39 C639.47,423.71 922.37,427.07 960.5,438.39 C997.51,449.37 1033.93,472.58 1061.78,493.72" fill="none" id="engine-GMN26" style="stroke:#181818;stroke-width:1;stroke-dasharray:7,7;"/></g><!--SRC=[TLB1JiCm3BttAopEm6777RWCDa12Gzl41N58Mw_rrDfLaWuGujznadPi4voQFZllFJ-daBOJHlPmiVR68poPeYRMhvJON81nq8OJV6K0hwbbcU-myEuj81jhs94duHFuRXye3yXtbXM_GXjikoOGtN6bKb44up6fF1Blp4IhUxB2hTw9d8j6SjF0Yx5ayWQJq9mQZtOG_UWiEXUyh91Bj6ZFfMV2MwfwQw9ZlPpKYmWdzIEMjVySTHug5ekmwaTWrZilBSnxBWBN_qC64HTL_02v97Izcy3ObJX3l5Ia6-TyozvtlOVrfrEQI2S9YLmBPDIXi8IPRYkItQFH24Oo1Mwbw4EOSVP8dpPxTNKpnZ-5PojxAX5Auqqsn7BIC2Q8a6DjzYGs-vthJwf3EHjAeMimFuNHEMo3qInZqREbglOWsu5CtH_Y73X8uwnH5sT3LJl3dulXN8BkJsDpfAz4YrknsjVcnCHL72mzQIszaw-Frk85gi5Ek4UipoqPLUib16i_]--></g></svg>