<svg xmlns="http://www.w3.org/2000/svg" xmlns:xlink="http://www.w3.org/1999/xlink" contentStyleType="text/css" data-diagram-type="CLASS" height="779px" preserveAspectRatio="none" style="width:799px;height:779px;background:#FFFFFF;" version="1.1" viewBox="0 0 799 779" width="799px" zoomAndPan="magnify"><defs/><g><!--class StateMachine--><g class="entity" data-entity="StateMachine" data-source-line="1" data-uid="ent0002" id="entity_StateMachine"><rect fill="#F1F1F1" height="129.4844" rx="2.5" ry="2.5" style="stroke:#181818;stroke-width:0.5;" width="222.0957" x="93.95" y="7"/><ellipse cx="152.9168" cy="23" fill="#ADD1B2" rx="11" ry="11" style="stroke:#181818;stroke-width:1;"/><path d="M155.8855,28.6406 Q155.3074,28.9375 154.6668,29.0781 Q154.0262,29.2344 153.323,29.2344 Q150.823,29.2344 149.4949,27.5938 Q148.1824,25.9375 148.1824,22.8125 Q148.1824,19.6875 149.4949,18.0313 Q150.823,16.375 153.323,16.375 Q154.0262,16.375 154.6668,16.5313 Q155.323,16.6875 155.8855,16.9844 L155.8855,19.7031 Q155.2605,19.125 154.6668,18.8594 Q154.073,18.5781 153.448,18.5781 Q152.1043,18.5781 151.4168,19.6563 Q150.7293,20.7188 150.7293,22.8125 Q150.7293,24.9063 151.4168,25.9844 Q152.1043,27.0469 153.448,27.0469 Q154.073,27.0469 154.6668,26.7813 Q155.2605,26.5 155.8855,25.9219 L155.8855,28.6406 Z " fill="#000000"/><text fill="#000000" font-family="sans-serif" font-size="14" lengthAdjust="spacing" textLength="95.6621" x="173.4168" y="27.8467">StateMachine</text><line style="stroke:#181818;stroke-width:0.5;" x1="94.95" x2="315.0457" y1="39" y2="39"/><rect fill="none" height="6" style="stroke:#C82930;stroke-width:1;" width="6" x="101.95" y="49.6484"/><text fill="#000000" font-family="sans-serif" font-size="14" lengthAdjust="spacing" textLength="196.0957" x="113.95" y="55.9951">defines: Dict[str, VarDefine]</text><rect fill="none" height="6" style="stroke:#C82930;stroke-width:1;" width="6" x="101.95" y="65.9453"/><text fill="#000000" font-family="sans-serif" font-size="14" lengthAdjust="spacing" textLength="117.0654" x="113.95" y="72.292">root_state: State</text><line style="stroke:#181818;stroke-width:0.5;" x1="94.95" x2="315.0457" y1="79.5938" y2="79.5938"/><ellipse cx="104.95" cy="93.2422" fill="#84BE84" rx="3" ry="3" style="stroke:#038048;stroke-width:1;"/><text fill="#000000" font-family="sans-serif" font-size="14" lengthAdjust="spacing" textLength="95.2793" x="113.95" y="96.5889">to_ast_node()</text><ellipse cx="104.95" cy="109.5391" fill="#84BE84" rx="3" ry="3" style="stroke:#038048;stroke-width:1;"/><text fill="#000000" font-family="sans-serif" font-size="14" lengthAdjust="spacing" textLength="94.0967" x="113.95" y="112.8857">to_plantuml()</text><ellipse cx="104.95" cy="125.8359" fill="#84BE84" rx="3" ry="3" style="stroke:#038048;stroke-width:1;"/><text fill="#000000" font-family="sans-serif" font-size="14" lengthAdjust="spacing" textLength="92.709" x="113.95" y="129.1826">walk_states()</text></g><!--class State--><g class="entity" data-entity="State" data-source-line="9" data-uid="ent0003" id="entity_State"><rect fill="#F1F1F1" height="194.6719" rx="2.5" ry="2.5" style="stroke:#181818;stroke-width:0.5;" width="254.2041" x="77.89" y="213.48"/><ellipse cx="182.2132" cy="229.48" fill="#ADD1B2" rx="11" ry="11" style="stroke:#181818;stroke-width:1;"/><path d="M185.182,235.1206 Q184.6039,235.4175 183.9632,235.5581 Q183.3226,235.7144 182.6195,235.7144 Q180.1195,235.7144 178.7914,234.0738 Q177.4789,232.4175 177.4789,229.2925 Q177.4789,226.1675 178.7914,224.5113 Q180.1195,222.855 182.6195,222.855 Q183.3226,222.855 183.9632,223.0113 Q184.6195,223.1675 185.182,223.4644 L185.182,226.1831 Q184.557,225.605 183.9632,225.3394 Q183.3695,225.0581 182.7445,225.0581 Q181.4007,225.0581 180.7132,226.1363 Q180.0257,227.1988 180.0257,229.2925 Q180.0257,231.3863 180.7132,232.4644 Q181.4007,233.5269 182.7445,233.5269 Q183.3695,233.5269 183.9632,233.2613 Q184.557,232.98 185.182,232.4019 L185.182,235.1206 Z " fill="#000000"/><text fill="#000000" font-family="sans-serif" font-size="14" lengthAdjust="spacing" textLength="37.0576" x="202.7132" y="234.3267">State</text><line style="stroke:#181818;stroke-width:0.5;" x1="78.89" x2="331.0941" y1="245.48" y2="245.48"/><rect fill="none" height="6" style="stroke:#C82930;stroke-width:1;" width="6" x="85.89" y="256.1284"/><text fill="#000000" font-family="sans-serif" font-size="14" lengthAdjust="spacing" textLength="67.4092" x="97.89" y="262.4751">name: str</text><rect fill="none" height="6" style="stroke:#C82930;stroke-width:1;" width="6" x="85.89" y="272.4253"/><text fill="#000000" font-family="sans-serif" font-size="14" lengthAdjust="spacing" textLength="131.5234" x="97.89" y="278.772">path: Tuple[str, ...]</text><rect fill="none" height="6" style="stroke:#C82930;stroke-width:1;" width="6" x="85.89" y="288.7222"/><text fill="#000000" font-family="sans-serif" font-size="14" lengthAdjust="spacing" textLength="180.2568" x="97.89" y="295.0689">substates: Dict[str, State]</text><rect fill="none" height="6" style="stroke:#C82930;stroke-width:1;" width="6" x="85.89" y="305.0191"/><text fill="#000000" font-family="sans-serif" font-size="14" lengthAdjust="spacing" textLength="188.3164" x="97.89" y="311.3657">transitions: List[Transition]</text><rect fill="none" height="6" style="stroke:#C82930;stroke-width:1;" width="6" x="85.89" y="321.3159"/><text fill="#000000" font-family="sans-serif" font-size="14" lengthAdjust="spacing" textLength="92.4219" x="97.89" y="327.6626">parent: State</text><ellipse cx="88.89" cy="340.6128" fill="none" rx="3" ry="3" style="stroke:#038048;stroke-width:1;"/><text fill="#000000" font-family="sans-serif" font-size="14" lengthAdjust="spacing" textLength="125.7334" x="97.89" y="343.9595">is_leaf_state: bool</text><ellipse cx="88.89" cy="356.9097" fill="none" rx="3" ry="3" style="stroke:#038048;stroke-width:1;"/><text fill="#000000" font-family="sans-serif" font-size="14" lengthAdjust="spacing" textLength="128.0986" x="97.89" y="360.2564">is_root_state: bool</text><ellipse cx="88.89" cy="373.2066" fill="none" rx="3" ry="3" style="stroke:#038048;stroke-width:1;"/><text fill="#000000" font-family="sans-serif" font-size="14" lengthAdjust="spacing" textLength="228.2041" x="97.89" y="376.5532">transitions_from: List[Transition]</text><line style="stroke:#181818;stroke-width:0.5;" x1="78.89" x2="331.0941" y1="383.855" y2="383.855"/><ellipse cx="88.89" cy="397.5034" fill="#84BE84" rx="3" ry="3" style="stroke:#038048;stroke-width:1;"/><text fill="#000000" font-family="sans-serif" font-size="14" lengthAdjust="spacing" textLength="92.709" x="97.89" y="400.8501">walk_states()</text></g><!--class Transition--><g class="entity" data-entity="Transition" data-source-line="21" data-uid="ent0004" id="entity_Transition"><rect fill="#F1F1F1" height="129.4844" rx="2.5" ry="2.5" style="stroke:#181818;stroke-width:0.5;" width="187.7998" x="111.09" y="485.15"/><ellipse cx="165.8595" cy="501.15" fill="#ADD1B2" rx="11" ry="11" style="stroke:#181818;stroke-width:1;"/><path d="M168.8283,506.7906 Q168.2502,507.0875 167.6095,507.2281 Q166.9689,507.3844 166.2658,507.3844 Q163.7658,507.3844 162.4377,505.7438 Q161.1252,504.0875 161.1252,500.9625 Q161.1252,497.8375 162.4377,496.1813 Q163.7658,494.525 166.2658,494.525 Q166.9689,494.525 167.6095,494.6813 Q168.2658,494.8375 168.8283,495.1344 L168.8283,497.8531 Q168.2033,497.275 167.6095,497.0094 Q167.0158,496.7281 166.3908,496.7281 Q165.047,496.7281 164.3595,497.8063 Q163.672,498.8688 163.672,500.9625 Q163.672,503.0563 164.3595,504.1344 Q165.047,505.1969 166.3908,505.1969 Q167.0158,505.1969 167.6095,504.9313 Q168.2033,504.65 168.8283,504.0719 L168.8283,506.7906 Z " fill="#000000"/><text fill="#000000" font-family="sans-serif" font-size="14" lengthAdjust="spacing" textLength="69.7607" x="186.3595" y="505.9967">Transition</text><line style="stroke:#181818;stroke-width:0.5;" x1="112.09" x2="297.8898" y1="517.15" y2="517.15"/><rect fill="none" height="6" style="stroke:#C82930;stroke-width:1;" width="6" x="119.09" y="527.7984"/><text fill="#000000" font-family="sans-serif" font-size="14" lengthAdjust="spacing" textLength="103.0586" x="131.09" y="534.1451">from_state: str</text><rect fill="none" height="6" style="stroke:#C82930;stroke-width:1;" width="6" x="119.09" y="544.0953"/><text fill="#000000" font-family="sans-serif" font-size="14" lengthAdjust="spacing" textLength="84.2256" x="131.09" y="550.442">to_state: str</text><rect fill="none" height="6" style="stroke:#C82930;stroke-width:1;" width="6" x="119.09" y="560.3922"/><text fill="#000000" font-family="sans-serif" font-size="14" lengthAdjust="spacing" textLength="89.1475" x="131.09" y="566.7389">event: Event</text><rect fill="none" height="6" style="stroke:#C82930;stroke-width:1;" width="6" x="119.09" y="576.6891"/><text fill="#000000" font-family="sans-serif" font-size="14" lengthAdjust="spacing" textLength="81.9219" x="131.09" y="583.0357">guard: Expr</text><rect fill="none" height="6" style="stroke:#C82930;stroke-width:1;" width="6" x="119.09" y="592.9859"/><text fill="#000000" font-family="sans-serif" font-size="14" lengthAdjust="spacing" textLength="161.7998" x="131.09" y="599.3326">effects: List[Operation]</text><line style="stroke:#181818;stroke-width:0.5;" x1="112.09" x2="297.8898" y1="606.6344" y2="606.6344"/></g><!--class Event--><g class="entity" data-entity="Event" data-source-line="29" data-uid="ent0005" id="entity_Event"><rect fill="#F1F1F1" height="80.5938" rx="2.5" ry="2.5" style="stroke:#181818;stroke-width:0.5;" width="199.9883" x="7" y="691.64"/><ellipse cx="82.6909" cy="707.64" fill="#ADD1B2" rx="11" ry="11" style="stroke:#181818;stroke-width:1;"/><path d="M85.6597,713.2806 Q85.0815,713.5775 84.4409,713.7181 Q83.8003,713.8744 83.0972,713.8744 Q80.5972,713.8744 79.269,712.2338 Q77.9565,710.5775 77.9565,707.4525 Q77.9565,704.3275 79.269,702.6713 Q80.5972,701.015 83.0972,701.015 Q83.8003,701.015 84.4409,701.1713 Q85.0972,701.3275 85.6597,701.6244 L85.6597,704.3431 Q85.0347,703.765 84.4409,703.4994 Q83.8472,703.2181 83.2222,703.2181 Q81.8784,703.2181 81.1909,704.2963 Q80.5034,705.3588 80.5034,707.4525 Q80.5034,709.5463 81.1909,710.6244 Q81.8784,711.6869 83.2222,711.6869 Q83.8472,711.6869 84.4409,711.4213 Q85.0347,711.14 85.6597,710.5619 L85.6597,713.2806 Z " fill="#000000"/><text fill="#000000" font-family="sans-serif" font-size="14" lengthAdjust="spacing" textLength="40.1064" x="103.1909" y="712.4867">Event</text><line style="stroke:#181818;stroke-width:0.5;" x1="8" x2="205.9883" y1="723.64" y2="723.64"/><rect fill="none" height="6" style="stroke:#C82930;stroke-width:1;" width="6" x="15" y="734.2884"/><text fill="#000000" font-family="sans-serif" font-size="14" lengthAdjust="spacing" textLength="67.4092" x="27" y="740.6351">name: str</text><rect fill="none" height="6" style="stroke:#C82930;stroke-width:1;" width="6" x="15" y="750.5853"/><text fill="#000000" font-family="sans-serif" font-size="14" lengthAdjust="spacing" textLength="173.9883" x="27" y="756.932">state_path: Tuple[str, ...]</text><line style="stroke:#181818;stroke-width:0.5;" x1="8" x2="205.9883" y1="764.2338" y2="764.2338"/></g><!--class Operation--><g class="entity" data-entity="Operation" data-source-line="34" data-uid="ent0006" id="entity_Operation"><rect fill="#F1F1F1" height="80.5938" rx="2.5" ry="2.5" style="stroke:#181818;stroke-width:0.5;" width="123.0293" x="242.48" y="691.64"/><ellipse cx="267.0908" cy="707.64" fill="#ADD1B2" rx="11" ry="11" style="stroke:#181818;stroke-width:1;"/><path d="M270.0596,713.2806 Q269.4815,713.5775 268.8408,713.7181 Q268.2002,713.8744 267.4971,713.8744 Q264.9971,713.8744 263.669,712.2338 Q262.3565,710.5775 262.3565,707.4525 Q262.3565,704.3275 263.669,702.6713 Q264.9971,701.015 267.4971,701.015 Q268.2002,701.015 268.8408,701.1713 Q269.4971,701.3275 270.0596,701.6244 L270.0596,704.3431 Q269.4346,703.765 268.8408,703.4994 Q268.2471,703.2181 267.6221,703.2181 Q266.2783,703.2181 265.5908,704.2963 Q264.9033,705.3588 264.9033,707.4525 Q264.9033,709.5463 265.5908,710.6244 Q266.2783,711.6869 267.6221,711.6869 Q268.2471,711.6869 268.8408,711.4213 Q269.4346,711.14 270.0596,710.5619 L270.0596,713.2806 Z " fill="#000000"/><text fill="#000000" font-family="sans-serif" font-size="14" lengthAdjust="spacing" textLength="69.6719" x="283.2266" y="712.4867">Operation</text><line style="stroke:#181818;stroke-width:0.5;" x1="243.48" x2="364.5093" y1="723.64" y2="723.64"/><rect fill="none" height="6" style="stroke:#C82930;stroke-width:1;" width="6" x="250.48" y="734.2884"/><text fill="#000000" font-family="sans-serif" font-size="14" lengthAdjust="spacing" textLength="97.0293" x="262.48" y="740.6351">var_name: str</text><rect fill="none" height="6" style="stroke:#C82930;stroke-width:1;" width="6" x="250.48" y="750.5853"/><text fill="#000000" font-family="sans-serif" font-size="14" lengthAdjust="spacing" textLength="72.4814" x="262.48" y="756.932">expr: Expr</text><line style="stroke:#181818;stroke-width:0.5;" x1="243.48" x2="364.5093" y1="764.2338" y2="764.2338"/></g><g class="entity" data-entity="GMN12" data-source-line="46" data-uid="ent0013" id="entity_GMN12"><path d="M459.42,290.68 L459.42,306.82 L332.45,310.82 L459.42,314.82 L459.42,330.9456 A0,0 0 0 0 459.42,330.9456 L792.5723,330.9456 A0,0 0 0 0 792.5723,330.9456 L792.5723,300.68 L782.5723,290.68 L459.42,290.68 A0,0 0 0 0 459.42,290.68" fill="#FEFFDD" style="stroke:#181818;stroke-width:0.5;"/><path d="M782.5723,290.68 L782.5723,300.68 L792.5723,300.68 L782.5723,290.68" fill="#FEFFDD" style="stroke:#181818;stroke-width:0.5;"/><text fill="#000000" font-family="sans-serif" font-size="13" lengthAdjust="spacing" textLength="230.2612" x="465.42" y="307.7469">State objects form a tree structure,</text><text fill="#000000" font-family="sans-serif" font-size="13" lengthAdjust="spacing" textLength="312.1523" x="465.42" y="322.8797">supporting hierarchical state machine modeling</text></g><!--reverse link StateMachine to State--><g class="link" data-entity-1="StateMachine" data-entity-2="State" data-source-line="39" data-uid="lnk7" id="link_StateMachine_State"><path codeLine="39" d="M204.99,148.89 C204.99,172.34 204.99,187.42 204.99,213.08" fill="none" id="StateMachine-backto-State" style="stroke:#181818;stroke-width:1;"/><polygon fill="#181818" points="204.99,136.89,200.99,142.89,204.99,148.89,208.99,142.89,204.99,136.89" style="stroke:#181818;stroke-width:1;"/><text fill="#000000" font-family="sans-serif" font-size="13" lengthAdjust="spacing" textLength="65.7808" x="205.99" y="179.5469">root_state</text></g><!--reverse link State to State--><g class="link" data-entity-1="State" data-entity-2="State" data-source-line="40" data-uid="lnk8" id="link_State_State"><path codeLine="40" d="M344.2594,289.2669 C364.8294,292.6669 367.1,298.55 367.1,310.82 C367.1,323.09 352.99,330.92 332.42,334.33" fill="none" id="State-backto-State" style="stroke:#181818;stroke-width:1;"/><polygon fill="#181818" points="332.42,287.31,337.6874,292.2349,344.2594,289.2669,338.992,284.342,332.42,287.31" style="stroke:#181818;stroke-width:1;"/><text fill="#000000" font-family="sans-serif" font-size="13" lengthAdjust="spacing" textLength="62.9688" x="373.1" y="315.3869">substates</text></g><!--reverse link State to Transition--><g class="link" data-entity-1="State" data-entity-2="Transition" data-source-line="41" data-uid="lnk9" id="link_State_Transition"><path codeLine="41" d="M204.99,420.59 C204.99,446.32 204.99,461.47 204.99,484.97" fill="none" id="State-backto-Transition" style="stroke:#181818;stroke-width:1;"/><polygon fill="#181818" points="204.99,408.59,200.99,414.59,204.99,420.59,208.99,414.59,204.99,408.59" style="stroke:#181818;stroke-width:1;"/><text fill="#000000" font-family="sans-serif" font-size="13" lengthAdjust="spacing" textLength="68.707" x="205.99" y="451.2169">transitions</text></g><!--link Transition to Event--><g class="link" data-entity-1="Transition" data-entity-2="Event" data-source-line="42" data-uid="lnk10" id="link_Transition_Event"><path codeLine="42" d="M170.03,615.13 C156.18,640.58 143.5595,663.7606 131.3995,686.0906" fill="none" id="Transition-to-Event" style="stroke:#181818;stroke-width:1;"/><polygon fill="#181818" points="128.53,691.36,136.3471,685.3689,130.9212,686.9689,129.3213,681.543,128.53,691.36" style="stroke:#181818;stroke-width:1;"/><text fill="#000000" font-family="sans-serif" font-size="13" lengthAdjust="spacing" textLength="37.0259" x="154.99" y="657.7069">event</text></g><!--link Transition to Operation--><g class="link" data-entity-1="Transition" data-entity-2="Operation" data-source-line="43" data-uid="lnk11" id="link_Transition_Operation"><path codeLine="43" d="M240.32,615.13 C254.31,640.58 267.0588,663.7726 279.3388,686.1026" fill="none" id="Transition-to-Operation" style="stroke:#181818;stroke-width:1;"/><polygon fill="#181818" points="282.23,691.36,281.3981,681.5463,279.8206,686.9788,274.3882,685.4013,282.23,691.36" style="stroke:#181818;stroke-width:1;"/><text fill="#000000" font-family="sans-serif" font-size="13" lengthAdjust="spacing" textLength="44.167" x="264.99" y="657.7069">effects</text></g><!--SRC=[TLEvRiCm3Dtz5HnxEH_WeLEwjUZGe4iG68mjnsfboP3ej43HVo-jmr62T3BqIBw3aXk5pi4R8OaNR7gf1VmK02MqekE3gs0j6zewiW_mZdRjqPtliCPGxUR9AX0mUWzaQdHKQzEAczk4Z0erJOEAo1Ugpp3f6FajYkRa8ifh79YMPVrfHEehs4oZ4i7AQhKA9joq3qIvKKyKwcHHEqdIQEvubewscmNPHMuhDEKHfAkLm2vbsnkZ4fvdNl1Ce-wi6QuA_Plwr1QZpnH98os0TtY1YADt_JH_F72OqBOCV8-neUj4GodrwoWi1Y-Bif-zkc-lLL_V-ZA-K4QA8zhwd4Qmb-Y8fyuUsLrPnlkkieSKUiwAomLdjMnbLRxz8YkKvMCCM8LTNHPFzgkqgwBGXYMiFFG4fbkUH50s-u-v2JfZ1q3M5M9EEZKqMV70RMuQHsD9wWFqaiajHsrGXMt249CF_6SexYc4Rc7M-mC0]--></g></svg>