<svg xmlns="http://www.w3.org/2000/svg" xmlns:xlink="http://www.w3.org/1999/xlink" version="1.1" data-diagram-type="DESCRIPTION" style="width:351px;height:803px;" width="351px" height="803px" viewBox="0 0 351 803" zoomAndPan="magnify" preserveAspectRatio="none" contentStyleType="text/css"><?plantuml 1.2026.7beta8?><defs/><g font-family="sans-serif" lengthAdjust="spacing"><!--entity input--><g class="entity" data-qualified-name="input" id="ent0001" data-source-line="11"><rect x="100.55" y="7" width="151.4" height="52.594" fill="#F8FAFC" style="stroke:#475569;stroke-width:0.5;" rx="2.5" ry="2.5"/><text x="128.556" y="29.995" fill="#0F172A" font-size="14" textLength="95.389">FCSTM model</text><text x="110.55" y="46.292" fill="#0F172A" font-size="14" textLength="131.4">+ FBMCQ property</text></g><!--entity horizon--><g class="entity" data-qualified-name="horizon" id="ent0002" data-source-line="12"><rect x="115.66" y="120.59" width="121.186" height="68.891" fill="#F8FAFC" style="stroke:#475569;stroke-width:0.5;" rx="2.5" ry="2.5"/><text x="146.39" y="143.585" fill="#0F172A" font-size="14" textLength="59.726">Bound N</text><text x="129.618" y="159.882" fill="#0F172A" font-size="14" textLength="93.27">N + 1 frames</text><text x="125.66" y="176.179" fill="#0F172A" font-size="14" textLength="101.186">N macro steps</text></g><!--entity formula--><g class="entity" data-qualified-name="formula" id="ent0003" data-source-line="13"><rect x="84.98" y="250.48" width="182.538" height="52.594" fill="#F8FAFC" style="stroke:#475569;stroke-width:0.5;" rx="2.5" ry="2.5"/><text x="94.98" y="273.475" fill="#0F172A" font-size="14" textLength="162.538">Core transition formula</text><text x="103.85" y="289.772" fill="#0F172A" font-size="14" textLength="144.799">+ property objective</text></g><!--entity solver--><g class="entity" data-qualified-name="solver" id="ent0004" data-source-line="14"><rect x="83.45" y="364.07" width="185.601" height="52.594" fill="#F8FAFC" style="stroke:#475569;stroke-width:0.5;" rx="2.5" ry="2.5"/><text x="167.001" y="387.065" fill="#0F172A" font-size="14" textLength="18.498">Z3</text><text x="93.45" y="403.362" fill="#0F172A" font-size="14" textLength="165.601">SAT / UNSAT / unknown</text></g><!--entity decode--><g class="entity" data-qualified-name="decode" id="ent0005" data-source-line="15"><rect x="7" y="493.67" width="190.502" height="52.594" fill="#F8FAFC" style="stroke:#475569;stroke-width:0.5;" rx="2.5" ry="2.5"/><text x="17" y="516.665" fill="#0F172A" font-size="14" textLength="170.502">Decode SAT assignment</text><text x="30.364" y="532.962" fill="#0F172A" font-size="14" textLength="143.773">into a public witness</text></g><!--entity replay--><g class="entity" data-qualified-name="replay" id="ent0006" data-source-line="16"><rect x="33.51" y="623.26" width="159.487" height="52.594" fill="#F8FAFC" style="stroke:#475569;stroke-width:0.5;" rx="2.5" ry="2.5"/><text x="43.51" y="646.255" fill="#0F172A" font-size="14" textLength="139.487">Replay witness with</text><text x="46.415" y="662.552" fill="#0F172A" font-size="14" textLength="133.677">SimulationRuntime</text></g><!--entity verdict--><g class="entity" data-qualified-name="verdict" id="ent0007" data-source-line="17"><rect x="97.01" y="736.86" width="168.483" height="52.594" fill="#F8FAFC" style="stroke:#475569;stroke-width:0.5;" rx="2.5" ry="2.5"/><text x="124.821" y="759.855" fill="#0F172A" font-size="14" textLength="112.861">Property verdict</text><text x="107.01" y="776.152" fill="#0F172A" font-size="14" textLength="148.483">+ process exit status</text></g><!--link input to horizon--><g class="link" data-entity-1="ent0001" data-entity-2="ent0002" id="lnk8" data-source-line="19" data-link-type="dependency"><path d="M176.25,59.98 C176.25,77.57 176.25,96.09 176.25,115.2" style="stroke:#334155;stroke-width:1;" fill="none" id="input-to-horizon"/><polygon points="176.25,120.2,180.25,111.2,176.25,115.2,172.25,111.2,176.25,120.2" fill="#334155" style="stroke:#334155;stroke-width:1;stroke-linejoin:miter;stroke-miterlimit:10;"/></g><!--link horizon to formula--><g class="link" data-entity-1="ent0002" data-entity-2="ent0003" id="lnk9" data-source-line="20" data-link-type="dependency"><path d="M176.25,189.71 C176.25,208.94 176.25,227.66 176.25,245.33" style="stroke:#334155;stroke-width:1;" fill="none" id="horizon-to-formula"/><polygon points="176.25,250.33,180.25,241.33,176.25,245.33,172.25,241.33,176.25,250.33" fill="#334155" style="stroke:#334155;stroke-width:1;stroke-linejoin:miter;stroke-miterlimit:10;"/></g><!--link formula to solver--><g class="link" data-entity-1="ent0003" data-entity-2="ent0004" id="lnk10" data-source-line="21" data-link-type="dependency"><path d="M176.25,303.38 C176.25,321.53 176.25,340.77 176.25,358.89" style="stroke:#334155;stroke-width:1;" fill="none" id="formula-to-solver"/><polygon points="176.25,363.89,180.25,354.89,176.25,358.89,172.25,354.89,176.25,363.89" fill="#334155" style="stroke:#334155;stroke-width:1;stroke-linejoin:miter;stroke-miterlimit:10;"/></g><!--link solver to decode--><g class="link" data-entity-1="ent0004" data-entity-2="ent0005" id="lnk11" data-source-line="22" data-link-type="dependency"><path d="M161.45,416.89 C148.55,439.14 132.429,466.935 119.529,489.175" style="stroke:#334155;stroke-width:1;" fill="none" id="solver-to-decode"/><polygon points="117.02,493.5,124.996,487.722,119.529,489.175,118.076,483.708,117.02,493.5" fill="#334155" style="stroke:#334155;stroke-width:1;stroke-linejoin:miter;stroke-miterlimit:10;"/><text x="145.25" y="459.737" fill="#000" font-size="13" textLength="25.086">SAT</text></g><!--link decode to replay--><g class="link" data-entity-1="ent0005" data-entity-2="ent0006" id="lnk12" data-source-line="23" data-link-type="dependency"><path d="M104.45,546.48 C106.37,568.73 108.71,595.869 110.63,618.109" style="stroke:#334155;stroke-width:1;" fill="none" id="decode-to-replay"/><polygon points="111.06,623.09,114.271,613.779,110.63,618.109,106.301,614.467,111.06,623.09" fill="#334155" style="stroke:#334155;stroke-width:1;stroke-linejoin:miter;stroke-miterlimit:10;"/></g><!--link replay to verdict--><g class="link" data-entity-1="ent0006" data-entity-2="ent0007" id="lnk13" data-source-line="24" data-link-type="dependency"><path d="M128.85,676.16 C139.91,694.31 152.078,714.28 163.118,732.4" style="stroke:#334155;stroke-width:1;" fill="none" id="replay-to-verdict"/><polygon points="165.72,736.67,164.453,726.903,163.118,732.4,157.621,731.065,165.72,736.67" fill="#334155" style="stroke:#334155;stroke-width:1;stroke-linejoin:miter;stroke-miterlimit:10;"/></g><!--link solver to verdict--><g class="link" data-entity-1="ent0004" data-entity-2="ent0007" id="lnk14" data-source-line="25" data-link-type="dependency"><path d="M189.07,417.1 C198.41,437.35 210.26,466.56 215.25,493.67 C221.22,526.08 217.4,636.87 210.25,675.86 C206.4,696.84 200.36,715.029 193.79,731.949" style="stroke:#334155;stroke-width:1;" fill="none" id="solver-to-verdict"/><polygon points="191.98,736.61,198.966,729.668,193.79,731.949,191.509,726.772,191.98,736.61" fill="#334155" style="stroke:#334155;stroke-width:1;stroke-linejoin:miter;stroke-miterlimit:10;"/><text x="219.25" y="589.327" fill="#000" font-size="13" textLength="116.042">UNSAT / unknown</text></g><?plantuml-src NL5DRzim3BtxLn3TiIYsBCtQxJ30yU1RWtvabo4NnMOIBJ9fK7BJRjX_doJBgT2B2Js-nyT7swEcNedgOAkQurvueBPYmm9E55dVGdA5FRFiGRLyqhI7dJ8MiqwBEpKOjyONLngzfyuBeV4Vb8mbs3X5UuFmjm1OllFyKD_MPLs53akBaj3hcyNYorUFramkOP_gsStdilYNpIv5-9JQy_drRB4eYZU_YxfwMjz1nosQ3Lr2lRoh7g0Nxb7SwmKe2txGu7B9Cgm6gmsju19ciFCkQCEhKuqmM8UzZSe3Y_x3b6ih5XoFg9rcWXrBDnWLh2TJuErlBz3F68SaHZxartn3J-KQFiBFrLW7EXAVA0eicsT_tOp_0nkV3m9LMPl-meOqEGO5_R0rke6JTeHsNBoDWdp48_P6lKwaK0z-1nqs2paU1tAw6nUMICt5zrColrUh6vVIDc4IlcZdJwRSC5edIb74iyFLrVVp6LEDs7ILL2EMWeyb8cCE-1QY5-aHyFEACLH09jjCd22lVdVb_m00?></g></svg>