<svg xmlns="http://www.w3.org/2000/svg" xmlns:xlink="http://www.w3.org/1999/xlink" version="1.1" data-diagram-type="DESCRIPTION" style="width:330px;height:803px;" width="330px" height="803px" viewBox="0 0 330 803" zoomAndPan="magnify" preserveAspectRatio="none" contentStyleType="text/css"><?plantuml 1.2026.7beta8?><defs/><g font-family="sans-serif" lengthAdjust="spacing"><!--entity input--><g class="entity" data-qualified-name="input" id="ent0001" data-source-line="11"><rect x="123.48" y="7" width="119.162" height="52.594" fill="#F8FAFC" style="stroke:#475569;stroke-width:0.5;" rx="2.5" ry="2.5"/><text x="143.163" y="29.995" fill="#0F172A" font-size="14" textLength="79.796">FCSTM 模型</text><text x="133.48" y="46.292" fill="#0F172A" font-size="14" textLength="99.162">+ FBMCQ 性质</text></g><!--entity horizon--><g class="entity" data-qualified-name="horizon" id="ent0002" data-source-line="12"><rect x="143.83" y="120.59" width="78.461" height="68.891" fill="#F8FAFC" style="stroke:#475569;stroke-width:0.5;" rx="2.5" ry="2.5"/><text x="161.599" y="143.585" fill="#0F172A" font-size="14" textLength="42.923">边界 N</text><text x="153.83" y="159.882" fill="#0F172A" font-size="14" textLength="58.461">N + 1 帧</text><text x="154.599" y="176.179" fill="#0F172A" font-size="14" textLength="56.923">N 个宏步</text></g><!--entity formula--><g class="entity" data-qualified-name="formula" id="ent0003" data-source-line="13"><rect x="131.06" y="250.48" width="104" height="52.594" fill="#F8FAFC" style="stroke:#475569;stroke-width:0.5;" rx="2.5" ry="2.5"/><text x="141.06" y="273.475" fill="#0F172A" font-size="14" textLength="84">核心转换公式</text><text x="146.97" y="289.772" fill="#0F172A" font-size="14" textLength="72.18">+ 性质目标</text></g><!--entity solver--><g class="entity" data-qualified-name="solver" id="ent0004" data-source-line="14"><rect x="96.45" y="364.07" width="173.234" height="52.594" fill="#F8FAFC" style="stroke:#475569;stroke-width:0.5;" rx="2.5" ry="2.5"/><text x="173.818" y="387.065" fill="#0F172A" font-size="14" textLength="18.498">Z3</text><text x="106.45" y="403.362" fill="#0F172A" font-size="14" textLength="153.234">可满足 / 不可满足 / 未知</text></g><!--entity decode--><g class="entity" data-qualified-name="decode" id="ent0005" data-source-line="15"><rect x="42.06" y="493.67" width="145.999" height="52.594" fill="#F8FAFC" style="stroke:#475569;stroke-width:0.5;" rx="2.5" ry="2.5"/><text x="52.06" y="516.665" fill="#0F172A" font-size="14" textLength="125.999">把可满足赋值解码为</text><text x="87.06" y="532.962" fill="#0F172A" font-size="14" textLength="56">公开见证</text></g><!--entity replay--><g class="entity" data-qualified-name="replay" id="ent0006" data-source-line="16"><rect x="7" y="623.26" width="186.127" height="52.594" fill="#F8FAFC" style="stroke:#475569;stroke-width:0.5;" rx="2.5" ry="2.5"/><text x="17" y="646.255" fill="#0F172A" font-size="14" textLength="166.127">使用 SimulationRuntime</text><text x="72.064" y="662.552" fill="#0F172A" font-size="14" textLength="56">重放见证</text></g><!--entity verdict--><g class="entity" data-qualified-name="verdict" id="ent0007" data-source-line="17"><rect x="112.97" y="736.86" width="120.18" height="52.594" fill="#F8FAFC" style="stroke:#475569;stroke-width:0.5;" rx="2.5" ry="2.5"/><text x="145.06" y="759.855" fill="#0F172A" font-size="14" textLength="56">性质结论</text><text x="122.97" y="776.152" fill="#0F172A" font-size="14" textLength="100.18">+ 进程退出状态</text></g><!--link input to horizon--><g class="link" data-entity-1="ent0001" data-entity-2="ent0002" id="lnk8" data-source-line="19" data-link-type="dependency"><path d="M183.06,59.98 C183.06,77.57 183.06,96.09 183.06,115.2" style="stroke:#334155;stroke-width:1;" fill="none" id="input-to-horizon"/><polygon points="183.06,120.2,187.06,111.2,183.06,115.2,179.06,111.2,183.06,120.2" fill="#334155" style="stroke:#334155;stroke-width:1;stroke-linejoin:miter;stroke-miterlimit:10;"/></g><!--link horizon to formula--><g class="link" data-entity-1="ent0002" data-entity-2="ent0003" id="lnk9" data-source-line="20" data-link-type="dependency"><path d="M183.06,189.71 C183.06,208.94 183.06,227.66 183.06,245.33" style="stroke:#334155;stroke-width:1;" fill="none" id="horizon-to-formula"/><polygon points="183.06,250.33,187.06,241.33,183.06,245.33,179.06,241.33,183.06,250.33" fill="#334155" style="stroke:#334155;stroke-width:1;stroke-linejoin:miter;stroke-miterlimit:10;"/></g><!--link formula to solver--><g class="link" data-entity-1="ent0003" data-entity-2="ent0004" id="lnk10" data-source-line="21" data-link-type="dependency"><path d="M183.06,303.38 C183.06,321.53 183.06,340.77 183.06,358.89" style="stroke:#334155;stroke-width:1;" fill="none" id="formula-to-solver"/><polygon points="183.06,363.89,187.06,354.89,183.06,358.89,179.06,354.89,183.06,363.89" fill="#334155" style="stroke:#334155;stroke-width:1;stroke-linejoin:miter;stroke-miterlimit:10;"/></g><!--link solver to decode--><g class="link" data-entity-1="ent0004" data-entity-2="ent0005" id="lnk11" data-source-line="22" data-link-type="dependency"><path d="M169.47,416.89 C157.61,439.14 142.841,466.847 130.991,489.087" style="stroke:#334155;stroke-width:1;" fill="none" id="solver-to-decode"/><polygon points="128.64,493.5,136.402,487.438,130.991,489.087,129.342,483.676,128.64,493.5" fill="#334155" style="stroke:#334155;stroke-width:1;stroke-linejoin:miter;stroke-miterlimit:10;"/><text x="155.06" y="459.737" fill="#000" font-size="13" textLength="39">可满足</text></g><!--link decode to replay--><g class="link" data-entity-1="ent0005" data-entity-2="ent0006" id="lnk12" data-source-line="23" data-link-type="dependency"><path d="M112.06,546.48 C109.45,568.73 106.253,595.884 103.643,618.124" style="stroke:#334155;stroke-width:1;" fill="none" id="decode-to-replay"/><polygon points="103.06,623.09,108.082,614.618,103.643,618.124,100.136,613.685,103.06,623.09" fill="#334155" style="stroke:#334155;stroke-width:1;stroke-linejoin:miter;stroke-miterlimit:10;"/></g><!--link replay to verdict--><g class="link" data-entity-1="ent0006" data-entity-2="ent0007" id="lnk13" data-source-line="24" data-link-type="dependency"><path d="M116.81,676.16 C128.68,694.31 141.803,714.365 153.653,732.485" style="stroke:#334155;stroke-width:1;" fill="none" id="replay-to-verdict"/><polygon points="156.39,736.67,154.812,726.948,153.653,732.485,148.116,731.327,156.39,736.67" fill="#334155" style="stroke:#334155;stroke-width:1;stroke-linejoin:miter;stroke-miterlimit:10;"/></g><!--link solver to verdict--><g class="link" data-entity-1="ent0004" data-entity-2="ent0007" id="lnk14" data-source-line="25" data-link-type="dependency"><path d="M194.18,417.07 C197.66,426.24 201.09,436.76 203.06,446.67 C222.93,546.64 232.05,576.12 211.06,675.86 C206.55,697.32 198.66,715.526 189.96,732.226" style="stroke:#334155;stroke-width:1;" fill="none" id="solver-to-verdict"/><polygon points="187.65,736.66,195.356,730.526,189.96,732.226,188.261,726.83,187.65,736.66" fill="#334155" style="stroke:#334155;stroke-width:1;stroke-linejoin:miter;stroke-miterlimit:10;"/><text x="224.06" y="589.327" fill="#000" font-size="13" textLength="90.645">不可满足 / 未知</text></g><?plantuml-src RL3BRjD05DtxAwxAigfeI4EX2wGqadUj1EqAPJFOazIgCrEDnvI7a1mX52aXoeAoQWLf4KfKjUcYK8NqaP-9nzE_OFoe6H0RNyyvzznpx_6s7RA366h02sHjrndrYLsXBcN06IAUeZ3XXfTtULl8fhiEgKCDkHxM61lNaE_oJVoAbrsdJXfA29RwOAPrCMnnHEekXhS6mEe_dlVCHsRPhCGCPJPc6RgqN2ezVAnGanAUOOjcOVb1sNYdpIupHdSpkbXSAfHAXl77RywiR6okWHWUXbywLJ8FvkfQvIc8O21_3ES0UQ3c-5nNo9jVqUUFi5ubwp0F1GZ7W_XtDZuEHprn-ZrHRL7clA54rud-E9o-bzSdediKVZW9htgnN-eKxOz4lvKeQvGrV1VfokV5AWbxP-BoK5wSmtrbrTMVuk0u-fhQUjHzgPBLNTljl5V-x8J1bHnyY_hDsNYYXiPh17BGb6VDH6zZYzfOry-kfz7U43QSU2dkKFBC9znfu2gvRNN5teqcPdZ7HQ__Ca-Fk_maHvFuM3dTZuQTso08MvEeVI62LAXMjXsB6qQIDImiFCdposg2tIMJrGJB3avBWgGdm0haPniP5BFvZd59a3jpRKG6gHd_JVet?></g></svg>