<svg xmlns="http://www.w3.org/2000/svg" xmlns:xlink="http://www.w3.org/1999/xlink" version="1.1" data-diagram-type="STATE" style="width:517px;height:465px;" width="517px" height="465px" viewBox="0 0 517 465" zoomAndPan="magnify" preserveAspectRatio="none" contentStyleType="text/css"><?plantuml 1.2026.7beta8?><defs/><g font-family="sans-serif" lengthAdjust="spacing"><g class="legend" data-source-line="12"><rect x="12" y="12" width="173.515" height="46.594" fill="none" style="stroke:#000;stroke-width:1;" rx="7.5" ry="7.5"/><text x="21.874" y="31.995" fill="#000" font-size="14" textLength="28" font-weight="700">变量</text><text x="133.642" y="31.995" fill="#000" font-size="14" textLength="42" font-weight="700">初始值</text><text x="21.45" y="48.292" fill="#000" font-size="14" textLength="102.867">latch_engaged</text><text x="133.218" y="48.292" fill="#000" font-size="14">1</text><line x1="17" y1="19" x2="180.515" y2="19" style="stroke:#000;stroke-width:1;"/><line x1="17" y1="35.297" x2="180.515" y2="35.297" style="stroke:#000;stroke-width:1;"/><line x1="17" y1="51.594" x2="180.515" y2="51.594" style="stroke:#000;stroke-width:1;"/><line x1="17" y1="19" x2="17" y2="51.594" style="stroke:#000;stroke-width:1;"/><line x1="128.768" y1="19" x2="128.768" y2="51.594" style="stroke:#000;stroke-width:1;"/><line x1="180.515" y1="19" x2="180.515" y2="51.594" style="stroke:#000;stroke-width:1;"/></g><g class="entity" data-qualified-name="door" id="ent0001" data-source-line="17"><path d="M19.5,78.594 L490.355,78.594 A12.5,12.5 0 0 1 502.855,91.094 L502.855,121.188 L7,121.188 L7,91.094 A12.5,12.5 0 0 1 19.5,78.594" fill="#F8FAFC"/><path d="M7,121.188 L502.855,121.188 L502.855,438.471 A12.5,12.5 0 0 1 490.355,450.971 L19.5,450.971 A12.5,12.5 0 0 1 7,438.471 L7,121.188" fill="#F8FAFC"/><rect x="7" y="78.594" width="495.855" height="372.377" fill="none" style="stroke:#475569;stroke-width:0.5;" rx="12.5" ry="12.5"/><line x1="7" y1="121.188" x2="502.855" y2="121.188" style="stroke:#475569;stroke-width:0.5;"/><text x="226.928" y="96.589" fill="#0F172A" font-size="14" textLength="56">门控制器</text><text x="238.094" y="112.886" fill="#0F172A" font-size="14" textLength="33.667">Door</text><rect x="142.86" y="189.187" width="59.67" height="42.594" fill="#F8FAFC" style="stroke:#475569;stroke-width:0.5;" rx="12.5" ry="12.5"/><text x="147.86" y="207.183" fill="#0F172A" font-size="14" textLength="28">锁定</text><text x="147.86" y="223.479" fill="#0F172A" font-size="14" textLength="49.67">Locked</text><rect x="94.25" y="299.778" width="74.88" height="42.594" fill="#F8FAFC" style="stroke:#475569;stroke-width:0.5;" rx="12.5" ry="12.5"/><text x="99.25" y="317.773" fill="#0F172A" font-size="14" textLength="42">已解锁</text><text x="99.25" y="334.069" fill="#0F172A" font-size="14" textLength="64.88">Unlocked</text><rect x="195.69" y="395.377" width="50" height="42.594" fill="#F8FAFC" style="stroke:#475569;stroke-width:0.5;" rx="12.5" ry="12.5"/><text x="201.994" y="413.373" fill="#0F172A" font-size="14" textLength="28">打开</text><text x="201.994" y="429.669" fill="#0F172A" font-size="14" textLength="37.393">Open</text><g class="start_entity" data-qualified-name="door..start.door" id="ent0005" data-source-line="22"><ellipse cx="172.69" cy="142.188" rx="10" ry="10" fill="#222" style="stroke:#222;stroke-width:1;"/></g><!--link *start*door to locked--><g class="link" data-entity-1="ent0005" data-entity-2="ent0002" id="lnk6" data-source-line="22" data-link-type="dependency"><path d="M172.69,152.688 C172.69,162.068 172.69,171.717 172.69,183.787" style="stroke:#334155;stroke-width:1;" fill="none" id="*start*door-to-locked"/><polygon points="172.69,188.787,176.69,179.787,172.69,183.787,168.69,179.787,172.69,188.787" fill="#334155" style="stroke:#334155;stroke-width:1;stroke-linejoin:miter;stroke-miterlimit:10;"/></g><!--link locked to unlocked--><g class="link" data-entity-1="ent0002" data-entity-2="ent0003" id="lnk7" data-source-line="23" data-link-type="dependency"><path d="M142.63,215.057 C104.14,220.328 40.74,231.578 26.69,249.777 C18,261.037 18.54,270.127 26.69,281.778 C41.77,303.318 65.376,311.921 88.896,316.061" style="stroke:#334155;stroke-width:1;" fill="none" id="locked-to-unlocked"/><polygon points="93.82,316.927,85.65,311.428,88.896,316.061,84.263,319.307,93.82,316.927" fill="#334155" style="stroke:#334155;stroke-width:1;stroke-linejoin:miter;stroke-miterlimit:10;"/><text x="47.844" y="262.844" fill="#000" font-size="13" textLength="82.64">解锁 / Unlock</text><text x="27.69" y="277.977" fill="#000" font-size="13" textLength="122.948">latch_engaged = 0</text></g><!--reverse link locked to unlocked--><g class="link" data-entity-1="ent0002" data-entity-2="ent0003" id="lnk9" data-source-line="24" data-link-type="dependency"><path d="M165.805,236.898 C161.785,251.068 157.27,265.407 150.69,281.778 C148.31,287.708 145.39,293.968 142.55,299.678" style="stroke:#334155;stroke-width:1;" fill="none" id="locked-backto-unlocked"/><polygon points="167.17,232.087,160.866,239.654,165.805,236.898,168.562,241.838,167.17,232.087" fill="#334155" style="stroke:#334155;stroke-width:1;stroke-linejoin:miter;stroke-miterlimit:10;"/><text x="189.906" y="262.844" fill="#000" font-size="13" textLength="68.517">上锁 / Lock</text><text x="162.69" y="277.977" fill="#000" font-size="13" textLength="122.948">latch_engaged = 1</text></g><!--link unlocked to open--><g class="link" data-entity-1="ent0003" data-entity-2="ent0004" id="lnk10" data-source-line="25" data-link-type="dependency"><path d="M103.24,342.737 C92.32,353.208 84.27,366.068 92.69,377.377 C116.31,409.097 160.252,415.418 190.302,416.198" style="stroke:#334155;stroke-width:1;" fill="none" id="unlocked-to-open"/><polygon points="195.3,416.328,186.407,412.095,190.302,416.198,186.199,420.093,195.3,416.328" fill="#334155" style="stroke:#334155;stroke-width:1;stroke-linejoin:miter;stroke-miterlimit:10;"/><text x="93.69" y="373.444" fill="#000" font-size="13" textLength="104.628">开门 / OpenDoor</text></g><!--reverse link unlocked to open--><g class="link" data-entity-1="ent0003" data-entity-2="ent0004" id="lnk12" data-source-line="26" data-link-type="dependency"><path d="M173.726,340.246 C184.296,346.086 190.7,351.167 198.69,360.377 C207.23,370.208 212.69,383.747 216.04,394.977" style="stroke:#334155;stroke-width:1;" fill="none" id="unlocked-backto-open"/><polygon points="169.35,337.828,175.293,345.681,173.726,340.246,179.162,338.679,169.35,337.828" fill="#334155" style="stroke:#334155;stroke-width:1;stroke-linejoin:miter;stroke-miterlimit:10;"/><text x="209.69" y="373.444" fill="#000" font-size="13" textLength="74.058">关闭 / Close</text></g><!--link locked to open--><g class="link" data-entity-1="ent0002" data-entity-2="ent0004" id="lnk13" data-source-line="27" data-link-type="dependency"><path d="M202.82,212.047 C230.45,214.367 270,222.607 289.69,249.777 C302.26,267.107 324.74,316.427 288.69,377.377 C279.45,392.997 265.927,400.99 250.687,406.75" style="stroke:#334155;stroke-width:1;" fill="none" id="locked-to-open"/><polygon points="246.01,408.518,255.843,409.077,250.687,406.75,253.015,401.594,246.01,408.518" fill="#334155" style="stroke:#334155;stroke-width:1;stroke-linejoin:miter;stroke-miterlimit:10;"/><text x="308.69" y="318.144" fill="#000" font-size="13" textLength="169.165">维护旁路 / ServiceOverride</text><text x="360.773" y="333.277" fill="#000" font-size="13" textLength="65">未更新锁舌</text></g></g><?plantuml-src RP9DQnH148Rl_IkAU1CMioPhL8Ymhimfa8DuSaGwqvNPOMUhXvxU1743oK7SH347nVNpfB11y0CDHZ0_nnvt_uKrCvlD6BqLLS_xLhrDMvs0rR2chTLTK971m4QQH3jI2DXDx3rGc0OcIefsseaeaKPsOKq6dT3e7gcMZhK1QoIbF4Ao5IfjIwKt8mfXNSOfLYTMMeJx0k3w6QTptcMlwRNoYJOApRIxkDHeNBh2NK-JdVRclVhInQROglWsZT6Rq_72mcAzqH0YnX19SSu4ObotehyCRl_5vE4-vDNWhHizSjl7q1TzYAKDsdUHGXcYWZxKkSlQqa68ykgvoV0WUp9oW-_kvO5FDxGsSo1JK5mKaG1Em6SxxjChdrPqq45LG75HLY5tz7KyUiUeJxSeFYLxz2-RxJvrnzi-hIP81QIv40Ln-_mTgF5hK-rQTKbPpYOdfd0LogLm0SgjFlqTVXdc2uEPejPBPjOi__LZhvIl_5TSFoEUxi_lPJ67u4TaSHuaVy22BeRbcigTxi6toV0ZiwrOyn-gXZ9HsBQdhhz_7cPxxxFXplZeC_CtqMn40Qvke37ydttAtdp8NXzcpx_muUF1Ox7r1m00?></g></svg>