<svg xmlns="http://www.w3.org/2000/svg" xmlns:xlink="http://www.w3.org/1999/xlink" version="1.1" data-diagram-type="STATE" style="width:557px;height:651px;background:#FFFFFF;" width="557px" height="651px" viewBox="0 0 557 651" zoomAndPan="magnify" preserveAspectRatio="none" contentStyleType="text/css"><?plantuml 1.2026.7beta8?><defs/><g font-family="sans-serif" lengthAdjust="spacing"><g class="legend" data-source-line="10"><rect x="12" y="12" width="274.585" height="46.594" fill="#DDD" style="stroke:#000;stroke-width:1;" rx="7.5" ry="7.5"/><text x="21.874" y="31.995" fill="#000" font-size="14" textLength="65.748" font-weight="700">Variable</text><text x="133.642" y="31.995" fill="#000" font-size="14" textLength="38.192" font-weight="700">Type</text><text x="181.582" y="31.995" fill="#000" font-size="14" textLength="95.129" font-weight="700">Initial Value</text><text x="21.45" y="48.292" fill="#000" font-size="14" textLength="102.867">latch_engaged</text><text x="133.218" y="48.292" fill="#000" font-size="14" textLength="18.252">int</text><text x="181.158" y="48.292" fill="#000" font-size="14">1</text><line x1="17" y1="19" x2="281.585" y2="19" style="stroke:#000;stroke-width:1;"/><line x1="17" y1="35.297" x2="281.585" y2="35.297" style="stroke:#000;stroke-width:1;"/><line x1="17" y1="51.594" x2="281.585" y2="51.594" style="stroke:#000;stroke-width:1;"/><line x1="17" y1="19" x2="17" y2="51.594" style="stroke:#000;stroke-width:1;"/><line x1="128.768" y1="19" x2="128.768" y2="51.594" style="stroke:#000;stroke-width:1;"/><line x1="176.708" y1="19" x2="176.708" y2="51.594" style="stroke:#000;stroke-width:1;"/><line x1="281.585" y1="19" x2="281.585" y2="51.594" style="stroke:#000;stroke-width:1;"/></g><g class="entity" data-qualified-name="door" id="ent0001" data-source-line="15"><path d="M19.5,157.594 L530.271,157.594 A12.5,12.5 0 0 1 542.771,170.094 L542.771,183.891 L7,183.891 L7,170.094 A12.5,12.5 0 0 1 19.5,157.594" fill="#ADD8E6"/><path d="M7,183.891 L542.771,183.891 L542.771,543.391 A12.5,12.5 0 0 1 530.271,555.891 L19.5,555.891 A12.5,12.5 0 0 1 7,543.391 L7,183.891" fill="#ADD8E6"/><rect x="7" y="157.594" width="535.771" height="398.297" fill="none" style="stroke:#181818;stroke-width:0.5;" rx="12.5" ry="12.5"/><line x1="7" y1="183.891" x2="542.771" y2="183.891" style="stroke:#181818;stroke-width:0.5;"/><text x="258.052" y="175.589" fill="#000" font-size="14" textLength="33.667">Door</text><rect x="207.42" y="251.891" width="59.67" height="40" fill="#F1F1F1" style="stroke:#181818;stroke-width:0.5;" rx="12.5" ry="12.5"/><text x="212.42" y="276.737" fill="#000" font-size="14" textLength="49.67">Locked</text><rect x="199.81" y="409.891" width="74.88" height="40" fill="#F1F1F1" style="stroke:#181818;stroke-width:0.5;" rx="12.5" ry="12.5"/><text x="204.81" y="434.737" fill="#000" font-size="14" textLength="64.88">Unlocked</text><rect x="302.25" y="502.891" width="50" height="40" fill="#F1F1F1" style="stroke:#181818;stroke-width:0.5;" rx="12.5" ry="12.5"/><text x="308.554" y="527.737" fill="#000" font-size="14" textLength="37.393">Open</text><g class="start_entity" data-qualified-name="door..start.door" id="ent0005" data-source-line="19"><ellipse cx="237.25" cy="204.891" rx="10" ry="10" fill="#222" style="stroke:#222;stroke-width:1;"/></g><!--link *start*door to door__locked--><g class="link" data-entity-1="ent0005" data-entity-2="ent0002" id="lnk6" data-source-line="19" data-link-type="dependency"><path d="M237.25,215.201 C237.25,224.611 237.25,234.431 237.25,246.411" style="stroke:#181818;stroke-width:1;" fill="none" id="*start*door-to-door__locked"/><polygon points="237.25,251.411,241.25,242.411,237.25,246.411,233.25,242.411,237.25,251.411" fill="#181818" style="stroke:#181818;stroke-width:1;stroke-linejoin:miter;stroke-miterlimit:10;"/></g><!--link door__locked to door__unlocked--><g class="link" data-entity-1="ent0002" data-entity-2="ent0003" id="lnk7" data-source-line="20" data-link-type="dependency"><path d="M207.11,274.051 C157.48,276.671 61.97,284.901 41.25,309.891 C18,337.951 18,363.831 41.25,391.891 C60.98,415.681 143.499,423.996 194.669,427.016" style="stroke:#181818;stroke-width:1;" fill="none" id="door__locked-to-door__unlocked"/><polygon points="199.66,427.311,190.911,422.787,194.669,427.016,190.44,430.773,199.66,427.311" fill="#181818" style="stroke:#181818;stroke-width:1;stroke-linejoin:miter;stroke-miterlimit:10;"/><text x="106.681" y="322.958" fill="#000" font-size="13" textLength="43.996">Unlock</text><path d="M46.25,332.023 L46.25,387.023 L210.25,387.023 L210.25,342.023 L200.25,332.023 L46.25,332.023" style="stroke:#181818;stroke-width:0.5;" fill="#FEFFDD"/><path d="M200.25,332.023 L200.25,342.023 L210.25,342.023 L200.25,332.023" style="stroke:#181818;stroke-width:0.5;" fill="#FEFFDD"/><text x="52.25" y="349.09" fill="#000" font-size="13" textLength="49.797">effect {</text><text x="68.779" y="364.223" fill="#000" font-size="13" textLength="127.328">latch_engaged = 0;</text><text x="52.25" y="379.356" fill="#000" font-size="13">}</text></g><!--link door__unlocked to door__open--><g class="link" data-entity-1="ent0003" data-entity-2="ent0004" id="lnk8" data-source-line="26" data-link-type="dependency"><path d="M232.72,450.191 C231.25,461.261 231.45,474.891 238.25,484.891 C252.47,505.781 275.967,513.97 296.877,517.93" style="stroke:#181818;stroke-width:1;" fill="none" id="door__unlocked-to-door__open"/><polygon points="301.79,518.861,293.691,513.256,296.877,517.93,292.203,521.116,301.79,518.861" fill="#181818" style="stroke:#181818;stroke-width:1;stroke-linejoin:miter;stroke-miterlimit:10;"/><text x="239.25" y="480.958" fill="#000" font-size="13" textLength="65.984">OpenDoor</text></g><!--link door__open to door__unlocked--><g class="link" data-entity-1="ent0004" data-entity-2="ent0003" id="lnk9" data-source-line="27" data-link-type="dependency"><path d="M322.81,502.391 C319.48,491.261 313.96,477.621 305.25,467.891 C297.01,458.671 290.342,453.615 279.502,447.955" style="stroke:#181818;stroke-width:1;" fill="none" id="door__open-to-door__unlocked"/><polygon points="275.07,445.641,281.197,453.352,279.502,447.955,284.899,446.26,275.07,445.641" fill="#181818" style="stroke:#181818;stroke-width:1;stroke-linejoin:miter;stroke-miterlimit:10;"/><text x="316.25" y="480.958" fill="#000" font-size="13" textLength="35.414">Close</text></g><!--link door__unlocked to door__locked--><g class="link" data-entity-1="ent0003" data-entity-2="ent0002" id="lnk10" data-source-line="28" data-link-type="dependency"><path d="M237.25,409.691 C237.25,379.791 237.25,327.391 237.25,297.331" style="stroke:#181818;stroke-width:1;" fill="none" id="door__unlocked-to-door__locked"/><polygon points="237.25,292.331,233.25,301.331,237.25,297.331,241.25,301.331,237.25,292.331" fill="#181818" style="stroke:#181818;stroke-width:1;stroke-linejoin:miter;stroke-miterlimit:10;"/><text x="309.742" y="322.958" fill="#000" font-size="13" textLength="29.872">Lock</text><path d="M242.25,332.023 L242.25,387.023 L406.25,387.023 L406.25,342.023 L396.25,332.023 L242.25,332.023" style="stroke:#181818;stroke-width:0.5;" fill="#FEFFDD"/><path d="M396.25,332.023 L396.25,342.023 L406.25,342.023 L396.25,332.023" style="stroke:#181818;stroke-width:0.5;" fill="#FEFFDD"/><text x="248.25" y="349.09" fill="#000" font-size="13" textLength="49.797">effect {</text><text x="264.779" y="364.223" fill="#000" font-size="13" textLength="127.328">latch_engaged = 1;</text><text x="248.25" y="379.356" fill="#000" font-size="13">}</text></g><!--link door__locked to door__open--><g class="link" data-entity-1="ent0002" data-entity-2="ent0004" id="lnk11" data-source-line="34" data-link-type="dependency"><path d="M267.46,274.821 C312.62,278.391 394.36,287.821 412.25,309.891 C461.32,370.421 388.442,459.323 350.312,499.063" style="stroke:#181818;stroke-width:1;" fill="none" id="door__locked-to-door__open"/><polygon points="346.85,502.671,355.967,498.946,350.312,499.063,350.195,493.407,346.85,502.671" fill="#181818" style="stroke:#181818;stroke-width:1;stroke-linejoin:miter;stroke-miterlimit:10;"/><text x="413.25" y="434.458" fill="#000" font-size="13" textLength="104.521">ServiceOverride</text></g></g><g class="start_entity" data-qualified-name=".start." id="ent0012" data-source-line="36"><ellipse cx="274.89" cy="87.594" rx="10" ry="10" fill="#222" style="stroke:#222;stroke-width:1;"/></g><g class="end_entity" data-qualified-name=".end." id="ent0014" data-source-line="37"><ellipse cx="274.89" cy="626.894" rx="11" ry="11" fill="none" style="stroke:#222;stroke-width:1;"/><ellipse cx="274.89" cy="626.894" rx="6" ry="6" fill="#222" style="stroke:#222;stroke-width:1;"/></g><!--link *start* to door--><g class="link" data-entity-1="ent0012" data-entity-2="ent0001" id="lnk13" data-source-line="36" data-link-type="dependency"><path d="M274.89,97.794 C274.89,109.444 274.89,126.184 274.89,152.294" style="stroke:#181818;stroke-width:1;" fill="none" id="*start*-to-door"/><polygon points="274.89,157.294,278.89,148.294,274.89,152.294,270.89,148.294,274.89,157.294" fill="#181818" style="stroke:#181818;stroke-width:1;stroke-linejoin:miter;stroke-miterlimit:10;"/></g><!--link door to *end*--><g class="link" data-entity-1="ent0001" data-entity-2="ent0014" id="lnk15" data-source-line="37" data-link-type="dependency"><path d="M274.89,556.144 C274.89,581.974 274.89,598.634 274.89,610.674" style="stroke:#181818;stroke-width:1;" fill="none" id="door-to-*end*"/><polygon points="274.89,615.674,278.89,606.674,274.89,610.674,270.89,606.674,274.89,615.674" fill="#181818" style="stroke:#181818;stroke-width:1;stroke-linejoin:miter;stroke-miterlimit:10;"/></g><?plantuml-src dPDFQm8n4CNl-HI3nu9GhwrwqD9I43pOzbAAfCcu1cCcPBF2qlMxDycgZVyGkeVTPER7Utcpkqib4N1jVGqII-6KzOeCO-LA6SiTNqFfkKVuOG0ZBbQ5eyh8CMbo_RujiP8q7C945Kl_udXzYHAqjbGgZtjmf2kC83c9xbHgf_9CnizyhJ5hAS-r4cpBcCO2ZGHF5ZGkF6i6yC6TujyQ8QpVQfkUhqPvnNNe1KTeM0EQUx6SeobuWH8QKCQ7Uo_qWbwh6hAdn9qd8jS1Ne8C2pZE4SS1kz5q9YHMA0_eVAvJ8KVUZJw5AdEEJIsQ3A6mJUtFko_eTeVdydaX8_RQy02jSu8D1Gyoe9Lf2xXOeF2xCF4w7iy0xXzJQzlIOU9H8ZC--FnPnpC7svWa3Z23K-VY6SUQoXko1tRo_pIz6sckPPcXsoY1qmqw5twNy07cxuEbpoFkGlKN?></g></svg>