<svg xmlns="http://www.w3.org/2000/svg" xmlns:xlink="http://www.w3.org/1999/xlink" version="1.1" data-diagram-type="STATE" style="width:462px;height:441px;" width="462px" height="441px" viewBox="0 0 462 441" zoomAndPan="magnify" preserveAspectRatio="none" contentStyleType="text/css"><?plantuml 1.2026.7beta8?><defs/><g font-family="sans-serif" lengthAdjust="spacing"><g class="legend" data-source-line="12"><rect x="12" y="12" width="224.936" height="46.594" fill="none" style="stroke:#000;stroke-width:1;" rx="7.5" ry="7.5"/><text x="21.874" y="31.995" fill="#000" font-size="14" textLength="65.748" font-weight="700">Variable</text><text x="133.642" y="31.995" fill="#000" font-size="14" textLength="93.42" font-weight="700">Initial value</text><text x="21.45" y="48.292" fill="#000" font-size="14" textLength="102.867">latch_engaged</text><text x="133.218" y="48.292" fill="#000" font-size="14">1</text><line x1="17" y1="19" x2="231.936" y2="19" style="stroke:#000;stroke-width:1;"/><line x1="17" y1="35.297" x2="231.936" y2="35.297" style="stroke:#000;stroke-width:1;"/><line x1="17" y1="51.594" x2="231.936" y2="51.594" style="stroke:#000;stroke-width:1;"/><line x1="17" y1="19" x2="17" y2="51.594" style="stroke:#000;stroke-width:1;"/><line x1="128.768" y1="19" x2="128.768" y2="51.594" style="stroke:#000;stroke-width:1;"/><line x1="231.936" y1="19" x2="231.936" y2="51.594" style="stroke:#000;stroke-width:1;"/></g><g class="entity" data-qualified-name="door" id="ent0001" data-source-line="17"><path d="M19.5,78.594 L434.913,78.594 A12.5,12.5 0 0 1 447.413,91.094 L447.413,104.891 L7,104.891 L7,91.094 A12.5,12.5 0 0 1 19.5,78.594" fill="#F8FAFC"/><path d="M7,104.891 L447.413,104.891 L447.413,414.391 A12.5,12.5 0 0 1 434.913,426.891 L19.5,426.891 A12.5,12.5 0 0 1 7,414.391 L7,104.891" fill="#F8FAFC"/><rect x="7" y="78.594" width="440.413" height="348.297" fill="none" style="stroke:#475569;stroke-width:0.5;" rx="12.5" ry="12.5"/><line x1="7" y1="104.891" x2="447.413" y2="104.891" style="stroke:#475569;stroke-width:0.5;"/><text x="210.373" y="96.589" fill="#0F172A" font-size="14" textLength="33.667">Door</text><rect x="142.9" y="172.891" width="59.67" height="40" fill="#F8FAFC" style="stroke:#475569;stroke-width:0.5;" rx="12.5" ry="12.5"/><text x="147.9" y="197.737" fill="#0F172A" font-size="14" textLength="49.67">Locked</text><rect x="133.3" y="280.891" width="74.88" height="40" fill="#F8FAFC" style="stroke:#475569;stroke-width:0.5;" rx="12.5" ry="12.5"/><text x="138.3" y="305.737" fill="#0F172A" font-size="14" textLength="64.88">Unlocked</text><rect x="234.74" y="373.891" width="50" height="40" fill="#F8FAFC" style="stroke:#475569;stroke-width:0.5;" rx="12.5" ry="12.5"/><text x="241.044" y="398.737" fill="#0F172A" font-size="14" textLength="37.393">Open</text><g class="start_entity" data-qualified-name="door..start.door" id="ent0005" data-source-line="22"><ellipse cx="172.74" cy="125.891" rx="10" ry="10" fill="#222" style="stroke:#222;stroke-width:1;"/></g><!--link *start*door to locked--><g class="link" data-entity-1="ent0005" data-entity-2="ent0002" id="lnk6" data-source-line="22" data-link-type="dependency"><path d="M172.74,136.201 C172.74,145.611 172.74,155.431 172.74,167.411" style="stroke:#334155;stroke-width:1;" fill="none" id="*start*door-to-locked"/><polygon points="172.74,172.411,176.74,163.411,172.74,167.411,168.74,163.411,172.74,172.411" fill="#334155" style="stroke:#334155;stroke-width:1;stroke-linejoin:miter;stroke-miterlimit:10;"/></g><!--link locked to unlocked--><g class="link" data-entity-1="ent0002" data-entity-2="ent0003" id="lnk7" data-source-line="23" data-link-type="dependency"><path d="M142.69,197.191 C104.21,202.111 40.83,212.781 26.74,230.891 C18,242.111 18.02,251.651 26.74,262.891 C39.67,279.561 89.869,289.332 128.039,294.722" style="stroke:#334155;stroke-width:1;" fill="none" id="locked-to-unlocked"/><polygon points="132.99,295.421,124.638,290.202,128.039,294.722,123.519,298.123,132.99,295.421" fill="#334155" style="stroke:#334155;stroke-width:1;stroke-linejoin:miter;stroke-miterlimit:10;"/><text x="67.216" y="243.958" fill="#000" font-size="13" textLength="43.996">Unlock</text><text x="27.74" y="259.09" fill="#000" font-size="13" textLength="122.948">latch_engaged = 0</text></g><!--reverse link locked to unlocked--><g class="link" data-entity-1="ent0002" data-entity-2="ent0003" id="lnk9" data-source-line="24" data-link-type="dependency"><path d="M172.276,218.33 C171.916,237.46 171.46,261.491 171.1,280.571" style="stroke:#334155;stroke-width:1;" fill="none" id="locked-backto-unlocked"/><polygon points="172.37,213.331,168.201,222.254,172.276,218.33,176.2,222.404,172.37,213.331" fill="#334155" style="stroke:#334155;stroke-width:1;stroke-linejoin:miter;stroke-miterlimit:10;"/><text x="220.278" y="243.958" fill="#000" font-size="13" textLength="29.872">Lock</text><text x="173.74" y="259.09" fill="#000" font-size="13" textLength="122.948">latch_engaged = 1</text></g><!--link unlocked to open--><g class="link" data-entity-1="ent0003" data-entity-2="ent0004" id="lnk10" data-source-line="25" data-link-type="dependency"><path d="M165.78,321.151 C164.08,332.201 164.02,345.831 170.74,355.891 C184.85,377.051 208.664,385.21 229.674,389.1" style="stroke:#334155;stroke-width:1;" fill="none" id="unlocked-to-open"/><polygon points="234.59,390.011,226.469,384.439,229.674,389.1,225.012,392.305,234.59,390.011" fill="#334155" style="stroke:#334155;stroke-width:1;stroke-linejoin:miter;stroke-miterlimit:10;"/><text x="171.74" y="351.958" fill="#000" font-size="13" textLength="65.984">OpenDoor</text></g><!--reverse link unlocked to open--><g class="link" data-entity-1="ent0003" data-entity-2="ent0004" id="lnk12" data-source-line="26" data-link-type="dependency"><path d="M212.761,319.274 C223.331,324.914 229.7,329.851 237.74,338.891 C246.41,348.651 251.93,362.291 255.27,373.411" style="stroke:#334155;stroke-width:1;" fill="none" id="unlocked-backto-open"/><polygon points="208.35,316.921,214.407,324.687,212.761,319.274,218.173,317.628,208.35,316.921" fill="#334155" style="stroke:#334155;stroke-width:1;stroke-linejoin:miter;stroke-miterlimit:10;"/><text x="248.74" y="351.958" fill="#000" font-size="13" textLength="35.414">Close</text></g><!--link locked to open--><g class="link" data-entity-1="ent0002" data-entity-2="ent0004" id="lnk13" data-source-line="27" data-link-type="dependency"><path d="M202.87,193.351 C232.38,194.631 276,201.791 297.74,230.891 C310.33,247.751 312.13,297.431 288.74,355.891 C286.25,362.101 285.433,364.171 281.323,369.501" style="stroke:#334155;stroke-width:1;" fill="none" id="locked-to-open"/><polygon points="278.27,373.461,286.933,368.776,281.323,369.501,280.598,363.891,278.27,373.461" fill="#334155" style="stroke:#334155;stroke-width:1;stroke-linejoin:miter;stroke-miterlimit:10;"/><text x="312.316" y="297.958" fill="#000" font-size="13" textLength="104.521">ServiceOverride</text><text x="306.74" y="313.09" fill="#000" font-size="13" textLength="115.673">latch not updated</text></g></g><?plantuml-src RLBHIiD047o_hrZgcr0mjh4gLAYLW53eW-YBYbnps-JeTJTSBYrY--zUBh6DrRTXPcTkTXF71JY61Jl7Qr3QOkeqayYrGi1ruJv1OPbQNGIwN6agf9LhMCXqbLckI4tPi0Ld9PLUGdATgJANYhUQCbXAKs9NST8XV0c0-vEai-GwcIJJMc6hqBRiS1J7LpUUJPXSorqaqUXo8lQTt8crl6tbmM0OnR4G1ZCavVSimE3IYTqONgJLSc4GF7uaxRGqi96cyeJOWP4kpJ-GCfcXWXr4dlK9JOuGJVVU0xFjWIn1UH1MWNQjtepJ5QeWcW2xuZEPerpHtu5vWHH4za04vVNy7Vh-bDI_woOsyA3yXC4jD8-yqUzLnd0HV8V1VbKS4hrhzgydEl6qhzNjlATkMvyY30Mk2UsKcHhs7xzRsEeiTyUC9xGRdU9yWzRwFw-j0CGEgaBveoYn_mO0?></g></svg>