<?xml version="1.0" encoding="us-ascii" standalone="no"?><svg xmlns="http://www.w3.org/2000/svg" xmlns:xlink="http://www.w3.org/1999/xlink" contentStyleType="text/css" height="429px" preserveAspectRatio="none" style="width:441px;height:429px;" version="1.1" viewBox="0 0 441 429" width="441px" zoomAndPan="magnify"><defs/><g><rect fill="none" height="46.5938" id="_legend" rx="7.5" ry="7.5" style="stroke:#000000;stroke-width:1.0;" width="218" x="12" y="12"/><text fill="#000000" font-family="sans-serif" font-size="14" font-weight="bold" lengthAdjust="spacing" textLength="64" x="22" y="31.9951">Variable</text><text fill="#000000" font-family="sans-serif" font-size="14" font-weight="bold" lengthAdjust="spacing" textLength="88" x="132" y="31.9951">Initial value</text><text fill="#000000" font-family="sans-serif" font-size="14" lengthAdjust="spacing" textLength="102" x="21" y="48.292">latch_engaged</text><text fill="#000000" font-family="sans-serif" font-size="14" lengthAdjust="spacing" textLength="9" x="131" y="48.292">1</text><line style="stroke:#000000;stroke-width:1.0;" x1="17" x2="225" y1="19" y2="19"/><line style="stroke:#000000;stroke-width:1.0;" x1="17" x2="225" y1="35.2969" y2="35.2969"/><line style="stroke:#000000;stroke-width:1.0;" x1="17" x2="225" y1="51.5938" y2="51.5938"/><line style="stroke:#000000;stroke-width:1.0;" x1="17" x2="17" y1="19" y2="51.5938"/><line style="stroke:#000000;stroke-width:1.0;" x1="127" x2="127" y1="19" y2="51.5938"/><line style="stroke:#000000;stroke-width:1.0;" x1="225" x2="225" y1="19" y2="51.5938"/><path d="M19.5,78.5938 L415.23,78.5938 A12.5,12.5 0 0 1 427.73,91.0938 L427.73,104.8906 L7,104.8906 L7,91.0938 A12.5,12.5 0 0 1 19.5,78.5938 " fill="#F8FAFC" style="stroke:#F8FAFC;stroke-width:1.0;"/><rect fill="none" height="345.2969" rx="12.5" ry="12.5" style="stroke:#475569;stroke-width:0.5;" width="420.73" x="7" y="78.5938"/><line style="stroke:#475569;stroke-width:0.5;" x1="7" x2="427.73" y1="104.8906" y2="104.8906"/><text fill="#0F172A" font-family="sans-serif" font-size="14" lengthAdjust="spacing" textLength="34" x="200.365" y="96.5889">Door</text><rect fill="#F8FAFC" height="40" rx="12.5" ry="12.5" style="stroke:#475569;stroke-width:0.5;" width="60" x="141.73" y="172.8906"/><text fill="#0F172A" font-family="sans-serif" font-size="14" lengthAdjust="spacing" textLength="50" x="146.73" y="197.7373">Locked</text><rect fill="#F8FAFC" height="40" rx="12.5" ry="12.5" style="stroke:#475569;stroke-width:0.5;" width="75" x="132.23" y="280.8906"/><text fill="#0F172A" font-family="sans-serif" font-size="14" lengthAdjust="spacing" textLength="65" x="137.23" y="305.7373">Unlocked</text><rect fill="#F8FAFC" height="40" rx="12.5" ry="12.5" style="stroke:#475569;stroke-width:0.5;" width="50" x="232.73" y="373.8906"/><text fill="#0F172A" font-family="sans-serif" font-size="14" lengthAdjust="spacing" textLength="38" x="238.73" y="398.7373">Open</text><ellipse cx="171.73" cy="125.8906" fill="#181818" rx="10" ry="10" style="stroke:none;stroke-width:1.0;"/><!--link *start*door to locked--><g id="link_*start*door_locked"><path d="M171.73,136.2006 C171.73,144.1406 171.73,155.9306 171.73,166.6206 " fill="none" id="*start*door-to-locked" style="stroke:#334155;stroke-width:1.0;"/><polygon fill="#334155" points="171.73,171.4106,175.73,162.4106,171.73,166.4106,167.73,162.4106,171.73,171.4106" style="stroke:#334155;stroke-width:1.0;"/></g><!--link locked to unlocked--><g id="link_locked_unlocked"><path d="M141.55,197.2706 C103.31,202.2406 40.68,212.9406 26.73,230.8906 C18,242.1206 18.02,251.6406 26.73,262.8906 C38.87,278.5806 88.57,288.8206 126,294.4606 " fill="none" id="locked-to-unlocked" style="stroke:#334155;stroke-width:1.0;"/><polygon fill="#334155" points="130.89,295.3306,122.5673,290.0644,125.9431,294.6036,121.404,297.9794,130.89,295.3306" style="stroke:#334155;stroke-width:1.0;"/><text fill="#000000" font-family="sans-serif" font-size="13" lengthAdjust="spacing" textLength="43" x="66.73" y="243.9575">Unlock</text><text fill="#000000" font-family="sans-serif" font-size="13" lengthAdjust="spacing" textLength="121" x="27.73" y="259.0903">latch_engaged = 0</text></g><!--reverse link locked to unlocked--><g id="link_locked_unlocked"><path d="M171.26,218.9606 C170.9,237.8106 170.42,263.2806 170.09,280.5706 " fill="none" id="locked-backto-unlocked" style="stroke:#334155;stroke-width:1.0;"/><polygon fill="#334155" points="171.36,214.3306,167.2063,223.2607,171.2743,219.3299,175.2051,223.3979,171.36,214.3306" style="stroke:#334155;stroke-width:1.0;"/><text fill="#000000" font-family="sans-serif" font-size="13" lengthAdjust="spacing" textLength="29" x="218.73" y="243.9575">Lock</text><text fill="#000000" font-family="sans-serif" font-size="13" lengthAdjust="spacing" textLength="121" x="172.73" y="259.0903">latch_engaged = 1</text></g><!--link unlocked to open--><g id="link_unlocked_open"><path d="M164.28,321.1406 C162.32,332.2006 162.02,345.8306 168.73,355.8906 C181.58,375.1506 206.53,384.4006 226.75,388.8306 " fill="none" id="unlocked-to-open" style="stroke:#334155;stroke-width:1.0;"/><polygon fill="#334155" points="231.59,390.0106,223.5556,384.3142,226.6882,389.0245,221.9779,392.1571,231.59,390.0106" style="stroke:#334155;stroke-width:1.0;"/><text fill="#000000" font-family="sans-serif" font-size="13" lengthAdjust="spacing" textLength="65" x="169.73" y="351.9575">OpenDoor</text></g><!--reverse link unlocked to open--><g id="link_unlocked_open"><path d="M212.24,320.1306 C220.82,325.2606 229.2,331.5006 235.73,338.8906 C244.37,348.6806 249.89,362.3106 253.24,373.4306 " fill="none" id="unlocked-backto-open" style="stroke:#334155;stroke-width:1.0;"/><polygon fill="#334155" points="208.47,317.4006,214.3137,325.3285,212.8156,319.8736,218.2705,318.3755,208.47,317.4006" style="stroke:#334155;stroke-width:1.0;"/><text fill="#000000" font-family="sans-serif" font-size="13" lengthAdjust="spacing" textLength="35" x="246.73" y="351.9575">Close</text></g><!--link locked to open--><g id="link_locked_open"><path d="M202.18,193.4506 C231.45,194.8706 274.32,202.1606 295.73,230.8906 C308.31,247.7706 310.09,297.5106 286.73,355.8906 C284.94,360.3606 282.44,364.7306 279.65,368.8106 " fill="none" id="locked-to-open" style="stroke:#334155;stroke-width:1.0;"/><polygon fill="#334155" points="276.26,372.4606,284.7906,367.5383,279.2026,368.4182,278.3226,362.8302,276.26,372.4606" style="stroke:#334155;stroke-width:1.0;"/><text fill="#000000" font-family="sans-serif" font-size="13" lengthAdjust="spacing" textLength="101" x="310.73" y="297.9575">ServiceOverride</text><text fill="#000000" font-family="sans-serif" font-size="13" lengthAdjust="spacing" textLength="113" x="304.73" y="313.0903">latch not updated</text></g><!--SRC=[RLBHIiD047o_hrZgcr0mjh4gLAYLW53eW-YBYbnps-JeTJTSBYrY- -zUBh6DrRTXPcTkTXF71JY61Jl7Qr3QOkeqayYrGi1ruJv1OPbQNGIwN6agf9LhMCXqbLckI4tPi0Ld9PLUGdATgJANYhUQCbXAKs9NST8XV0c0-vEai-GwcIJJMc6hqBRiS1J7LpUUJPXSorqaqUXo8lQTt8crl6tbmM0OnR4G1ZCavVSimE3IYTqONgJLSc4GF7uaxRGqi96cyeJOWP4kpJ-GCfcXWXr4dlK9JOuGJVVU0xFjWIn1UH1MWNQjtepJ5QeWcW2xuZEPerpHtu5vWHH4za04vVNy7Vh-bDI_woOsyA3yXC4jD8-yqUzLnd0HV8V1VbKS4hrhzgydEl6qhzNjlATkMvyY30Mk2UsKcHhs7xzRsEeiTyUC9xGRdU9yWzRwFw-j0CGEgaBveoYn_mO0]--></g></svg>