<svg xmlns="http://www.w3.org/2000/svg" xmlns:xlink="http://www.w3.org/1999/xlink" version="1.1" data-diagram-type="STATE" style="width:632px;height:693px;background:#FFFFFF;" width="632px" height="693px" viewBox="0 0 632 693" zoomAndPan="magnify" preserveAspectRatio="none" contentStyleType="text/css"><?plantuml 1.2026.7beta8?><defs/><g font-family="sans-serif" lengthAdjust="spacing"><g class="legend" data-source-line="10"><rect x="12" y="12" width="274.585" height="46.594" fill="#DDD" style="stroke:#000;stroke-width:1;" rx="7.5" ry="7.5"/><text x="21.874" y="31.995" fill="#000" font-size="14" textLength="65.748" font-weight="700">Variable</text><text x="133.642" y="31.995" fill="#000" font-size="14" textLength="38.192" font-weight="700">Type</text><text x="181.582" y="31.995" fill="#000" font-size="14" textLength="95.129" font-weight="700">Initial Value</text><text x="21.45" y="48.292" fill="#000" font-size="14" textLength="102.867">latch_engaged</text><text x="133.218" y="48.292" fill="#000" font-size="14" textLength="18.252">int</text><text x="181.158" y="48.292" fill="#000" font-size="14">1</text><line x1="17" y1="19" x2="281.585" y2="19" style="stroke:#000;stroke-width:1;"/><line x1="17" y1="35.297" x2="281.585" y2="35.297" style="stroke:#000;stroke-width:1;"/><line x1="17" y1="51.594" x2="281.585" y2="51.594" style="stroke:#000;stroke-width:1;"/><line x1="17" y1="19" x2="17" y2="51.594" style="stroke:#000;stroke-width:1;"/><line x1="128.768" y1="19" x2="128.768" y2="51.594" style="stroke:#000;stroke-width:1;"/><line x1="176.708" y1="19" x2="176.708" y2="51.594" style="stroke:#000;stroke-width:1;"/><line x1="281.585" y1="19" x2="281.585" y2="51.594" style="stroke:#000;stroke-width:1;"/></g><g class="entity" data-qualified-name="door" id="ent0001" data-source-line="15"><path d="M19.5,157.594 L604.76,157.594 A12.5,12.5 0 0 1 617.26,170.094 L617.26,183.891 L7,183.891 L7,170.094 A12.5,12.5 0 0 1 19.5,157.594" fill="#ADD8E6"/><path d="M7,183.891 L617.26,183.891 L617.26,585.391 A12.5,12.5 0 0 1 604.76,597.891 L19.5,597.891 A12.5,12.5 0 0 1 7,585.391 L7,183.891" fill="#ADD8E6"/><rect x="7" y="157.594" width="610.26" height="440.297" fill="none" style="stroke:#181818;stroke-width:0.5;" rx="12.5" ry="12.5"/><line x1="7" y1="183.891" x2="617.26" y2="183.891" style="stroke:#181818;stroke-width:0.5;"/><text x="295.297" y="175.589" fill="#000" font-size="14" textLength="33.667">Door</text><rect x="207.43" y="251.891" width="59.67" height="40" fill="#F1F1F1" style="stroke:#181818;stroke-width:0.5;" rx="12.5" ry="12.5"/><text x="212.43" y="276.737" fill="#000" font-size="14" textLength="49.67">Locked</text><rect x="199.82" y="430.891" width="74.88" height="40" fill="#F1F1F1" style="stroke:#181818;stroke-width:0.5;" rx="12.5" ry="12.5"/><text x="204.82" y="455.737" fill="#000" font-size="14" textLength="64.88">Unlocked</text><rect x="302.26" y="544.891" width="50" height="40" fill="#F1F1F1" style="stroke:#181818;stroke-width:0.5;" rx="12.5" ry="12.5"/><text x="308.564" y="569.737" fill="#000" font-size="14" textLength="37.393">Open</text><g class="start_entity" data-qualified-name="door..start.door" id="ent0005" data-source-line="19"><ellipse cx="237.26" cy="204.891" rx="10" ry="10" fill="#222" style="stroke:#222;stroke-width:1;"/></g><!--link *start*door to door__locked--><g class="link" data-entity-1="ent0005" data-entity-2="ent0002" id="lnk6" data-source-line="19" data-link-type="dependency"><path d="M237.26,215.201 C237.26,224.611 237.26,234.431 237.26,246.411" style="stroke:#181818;stroke-width:1;" fill="none" id="*start*door-to-door__locked"/><polygon points="237.26,251.411,241.26,242.411,237.26,246.411,233.26,242.411,237.26,251.411" fill="#181818" style="stroke:#181818;stroke-width:1;stroke-linejoin:miter;stroke-miterlimit:10;"/></g><!--link door__locked to door__unlocked--><g class="link" data-entity-1="ent0002" data-entity-2="ent0003" id="lnk7" data-source-line="20" data-link-type="dependency"><path d="M207.12,274.051 C157.49,276.671 61.98,284.901 41.26,309.891 C18,337.951 19.45,362.691 41.26,391.891 C60.21,417.261 143.1,434.618 194.53,443.308" style="stroke:#181818;stroke-width:1;" fill="none" id="door__locked-to-door__unlocked"/><polygon points="199.46,444.141,191.252,438.697,194.53,443.308,189.919,446.585,199.46,444.141" fill="#181818" style="stroke:#181818;stroke-width:1;stroke-linejoin:miter;stroke-miterlimit:10;"/><text x="106.691" y="322.958" fill="#000" font-size="13" textLength="43.996">Unlock</text><path d="M46.26,332.023 L46.26,387.023 L210.26,387.023 L210.26,342.023 L200.26,332.023 L46.26,332.023" style="stroke:#181818;stroke-width:0.5;" fill="#FEFFDD"/><path d="M200.26,332.023 L200.26,342.023 L210.26,342.023 L200.26,332.023" style="stroke:#181818;stroke-width:0.5;" fill="#FEFFDD"/><text x="52.26" y="349.09" fill="#000" font-size="13" textLength="49.797">effect {</text><text x="68.789" y="364.223" fill="#000" font-size="13" textLength="127.328">latch_engaged = 0;</text><text x="52.26" y="379.356" fill="#000" font-size="13">}</text></g><!--link door__unlocked to door__open--><g class="link" data-entity-1="ent0003" data-entity-2="ent0004" id="lnk8" data-source-line="26" data-link-type="dependency"><path d="M232.06,471.171 C228.87,487.441 227.24,510.611 238.26,526.891 C252.42,547.811 275.927,556.003 296.857,559.953" style="stroke:#181818;stroke-width:1;" fill="none" id="door__unlocked-to-door__open"/><polygon points="301.77,560.881,293.668,555.281,296.857,559.953,292.184,563.142,301.77,560.881" fill="#181818" style="stroke:#181818;stroke-width:1;stroke-linejoin:miter;stroke-miterlimit:10;"/><text x="239.26" y="522.958" fill="#000" font-size="13" textLength="65.984">OpenDoor</text></g><!--link door__open to door__unlocked--><g class="link" data-entity-1="ent0004" data-entity-2="ent0003" id="lnk9" data-source-line="27" data-link-type="dependency"><path d="M321.87,544.511 C318.26,533.681 312.79,520.311 305.26,509.891 C294.54,495.051 283.22,484.61 269.86,474.38" style="stroke:#181818;stroke-width:1;" fill="none" id="door__open-to-door__unlocked"/><polygon points="265.89,471.341,270.604,479.988,269.86,474.38,275.468,473.636,265.89,471.341" fill="#181818" style="stroke:#181818;stroke-width:1;stroke-linejoin:miter;stroke-miterlimit:10;"/><text x="315.26" y="522.958" fill="#000" font-size="13" textLength="35.414">Close</text></g><!--link door__unlocked to door__locked--><g class="link" data-entity-1="ent0003" data-entity-2="ent0002" id="lnk10" data-source-line="28" data-link-type="dependency"><path d="M237.26,430.631 C237.26,396.601 237.26,331.221 237.26,297.171" style="stroke:#181818;stroke-width:1;" fill="none" id="door__unlocked-to-door__locked"/><polygon points="237.26,292.171,233.26,301.171,237.26,297.171,241.26,301.171,237.26,292.171" fill="#181818" style="stroke:#181818;stroke-width:1;stroke-linejoin:miter;stroke-miterlimit:10;"/><text x="309.752" y="322.958" fill="#000" font-size="13" textLength="29.872">Lock</text><path d="M242.26,332.023 L242.26,387.023 L406.26,387.023 L406.26,342.023 L396.26,332.023 L242.26,332.023" style="stroke:#181818;stroke-width:0.5;" fill="#FEFFDD"/><path d="M396.26,332.023 L396.26,342.023 L406.26,342.023 L396.26,332.023" style="stroke:#181818;stroke-width:0.5;" fill="#FEFFDD"/><text x="248.26" y="349.09" fill="#000" font-size="13" textLength="49.797">effect {</text><text x="264.789" y="364.223" fill="#000" font-size="13" textLength="127.328">latch_engaged = 1;</text><text x="248.26" y="379.356" fill="#000" font-size="13">}</text></g><!--link door__locked to door__open--><g class="link" data-entity-1="ent0002" data-entity-2="ent0004" id="lnk11" data-source-line="34" data-link-type="dependency"><path d="M267.47,274.821 C312.63,278.391 394.37,287.821 412.26,309.891 C471.41,382.861 387.555,495.034 348.175,540.704" style="stroke:#181818;stroke-width:1;" fill="none" id="door__locked-to-door__open"/><polygon points="344.91,544.491,353.817,540.287,348.175,540.704,347.758,535.063,344.91,544.491" fill="#181818" style="stroke:#181818;stroke-width:1;stroke-linejoin:miter;stroke-miterlimit:10;"/><text x="459.428" y="422.958" fill="#000" font-size="13" textLength="104.521">ServiceOverride</text><path d="M429.26,432.023 L429.26,487.023 L593.26,487.023 L593.26,442.023 L583.26,432.023 L429.26,432.023" style="stroke:#181818;stroke-width:0.5;" fill="#FEFFDD"/><path d="M583.26,432.023 L583.26,442.023 L593.26,442.023 L583.26,432.023" style="stroke:#181818;stroke-width:0.5;" fill="#FEFFDD"/><text x="435.26" y="449.09" fill="#000" font-size="13" textLength="49.797">effect {</text><text x="451.789" y="464.223" fill="#000" font-size="13" textLength="127.328">latch_engaged = 0;</text><text x="435.26" y="479.356" fill="#000" font-size="13">}</text></g></g><g class="start_entity" data-qualified-name=".start." id="ent0012" data-source-line="41"><ellipse cx="312.13" cy="87.594" rx="10" ry="10" fill="#222" style="stroke:#222;stroke-width:1;"/></g><g class="end_entity" data-qualified-name=".end." id="ent0014" data-source-line="42"><ellipse cx="312.13" cy="668.894" rx="11" ry="11" fill="none" style="stroke:#222;stroke-width:1;"/><ellipse cx="312.13" cy="668.894" rx="6" ry="6" fill="#222" style="stroke:#222;stroke-width:1;"/></g><!--link *start* to door--><g class="link" data-entity-1="ent0012" data-entity-2="ent0001" id="lnk13" data-source-line="41" data-link-type="dependency"><path d="M312.13,97.854 C312.13,109.464 312.13,126.054 312.13,152.294" style="stroke:#181818;stroke-width:1;" fill="none" id="*start*-to-door"/><polygon points="312.13,157.294,316.13,148.294,312.13,152.294,308.13,148.294,312.13,157.294" fill="#181818" style="stroke:#181818;stroke-width:1;stroke-linejoin:miter;stroke-miterlimit:10;"/></g><!--link door to *end*--><g class="link" data-entity-1="ent0001" data-entity-2="ent0014" id="lnk15" data-source-line="42" data-link-type="dependency"><path d="M312.13,598.264 C312.13,624.294 312.13,640.844 312.13,652.784" style="stroke:#181818;stroke-width:1;" fill="none" id="door-to-*end*"/><polygon points="312.13,657.784,316.13,648.784,312.13,652.784,308.13,648.784,312.13,657.784" fill="#181818" style="stroke:#181818;stroke-width:1;stroke-linejoin:miter;stroke-miterlimit:10;"/></g><?plantuml-src hPDFQm8n4CNl-HI3nu9GhwrwqD9I43pOzbAAfCcu1cCcPBF2qlMxDycgZN-AKBg7tMJcntjvixjB9H5mRNqD4alXbFMA36FbIXdB7Lz3wRb7-6808ovMXQFAo35fSls-BR6ID1p2H1LB_-HuVOaIjBPKAezxSAGhZ20vYUvKQgVoICRFVAqnQodFjH9iovZ60eq4JnOqBZnh1l36dUAV6Y6iNsgRdiz6USLrw0L7Q5W3cdkndACfU84I6b36Xtilz89UgngofyIT1oBN0Lw230iupX770RlHT2OaLYWFw7okKo57Neq-XIfpZaqjcWoXi4tjzviFw7Q7v_9v8IFssd07hNE23GKFCg2LQGkuMA3mkp3nEXxF06xlKslRqc7YKI8pFlZyMCSp1zkO90umWrFduXd7ciehiWTsylSqlIjfViioGxTH0gSRT2xyBlywootBtorBdrhSXUet?></g></svg>