<?xml version="1.0" encoding="us-ascii" standalone="no"?><svg xmlns="http://www.w3.org/2000/svg" xmlns:xlink="http://www.w3.org/1999/xlink" contentStyleType="text/css" height="680px" preserveAspectRatio="none" style="width:609px;height:680px;background:#FFFFFF;" version="1.1" viewBox="0 0 609 680" width="609px" zoomAndPan="magnify"><defs/><g><rect fill="#DDDDDD" height="46.5938" id="_legend" rx="7.5" ry="7.5" style="stroke:#000000;stroke-width:1.0;" width="269" x="12" y="12"/><text fill="#000000" font-family="sans-serif" font-size="14" font-weight="bold" lengthAdjust="spacing" textLength="64" x="22" y="31.9951">Variable</text><text fill="#000000" font-family="sans-serif" font-size="14" font-weight="bold" lengthAdjust="spacing" textLength="39" x="132" y="31.9951">Type</text><text fill="#000000" font-family="sans-serif" font-size="14" font-weight="bold" lengthAdjust="spacing" textLength="90" x="181" y="31.9951">Initial Value</text><text fill="#000000" font-family="sans-serif" font-size="14" lengthAdjust="spacing" textLength="102" x="21" y="48.292">latch_engaged</text><text fill="#000000" font-family="sans-serif" font-size="14" lengthAdjust="spacing" textLength="17" x="131" y="48.292">int</text><text fill="#000000" font-family="sans-serif" font-size="14" lengthAdjust="spacing" textLength="9" x="180" y="48.292">1</text><line style="stroke:#000000;stroke-width:1.0;" x1="17" x2="276" y1="19" y2="19"/><line style="stroke:#000000;stroke-width:1.0;" x1="17" x2="276" y1="35.2969" y2="35.2969"/><line style="stroke:#000000;stroke-width:1.0;" x1="17" x2="276" y1="51.5938" y2="51.5938"/><line style="stroke:#000000;stroke-width:1.0;" x1="17" x2="17" y1="19" y2="51.5938"/><line style="stroke:#000000;stroke-width:1.0;" x1="127" x2="127" y1="19" y2="51.5938"/><line style="stroke:#000000;stroke-width:1.0;" x1="176" x2="176" y1="19" y2="51.5938"/><line style="stroke:#000000;stroke-width:1.0;" x1="276" x2="276" y1="19" y2="51.5938"/><path d="M19.5,157.5938 L583.73,157.5938 A12.5,12.5 0 0 1 596.23,170.0938 L596.23,183.8906 L7,183.8906 L7,170.0938 A12.5,12.5 0 0 1 19.5,157.5938 " fill="#ADD8E6" style="stroke:#ADD8E6;stroke-width:1.0;"/><rect fill="none" height="437.2969" rx="12.5" ry="12.5" style="stroke:#181818;stroke-width:0.5;" width="589.23" x="7" y="157.5938"/><line style="stroke:#181818;stroke-width:0.5;" x1="7" x2="596.23" y1="183.8906" y2="183.8906"/><text fill="#000000" font-family="sans-serif" font-size="14" lengthAdjust="spacing" textLength="34" x="284.615" y="175.5889">Door</text><rect fill="#F1F1F1" height="40" rx="12.5" ry="12.5" style="stroke:#181818;stroke-width:0.5;" width="60" x="205.23" y="251.8906"/><text fill="#000000" font-family="sans-serif" font-size="14" lengthAdjust="spacing" textLength="50" x="210.23" y="276.7373">Locked</text><rect fill="#F1F1F1" height="40" rx="12.5" ry="12.5" style="stroke:#181818;stroke-width:0.5;" width="75" x="197.73" y="430.8906"/><text fill="#000000" font-family="sans-serif" font-size="14" lengthAdjust="spacing" textLength="65" x="202.73" y="455.7373">Unlocked</text><rect fill="#F1F1F1" height="40" rx="12.5" ry="12.5" style="stroke:#181818;stroke-width:0.5;" width="50" x="300.23" y="544.8906"/><text fill="#000000" font-family="sans-serif" font-size="14" lengthAdjust="spacing" textLength="38" x="306.23" y="569.7373">Open</text><ellipse cx="235.23" cy="204.8906" fill="#181818" rx="10" ry="10" style="stroke:none;stroke-width:1.0;"/><!--link *start*door to door__locked--><g id="link_*start*door_door__locked"><path d="M235.23,215.2006 C235.23,223.1406 235.23,234.9306 235.23,245.6206 " fill="none" id="*start*door-to-door__locked" style="stroke:#181818;stroke-width:1.0;"/><polygon fill="#181818" points="235.23,250.4106,239.23,241.4106,235.23,245.4106,231.23,241.4106,235.23,250.4106" style="stroke:#181818;stroke-width:1.0;"/></g><!--link door__locked to door__unlocked--><g id="link_door__locked_door__unlocked"><path d="M205,274.1206 C155.76,276.8306 61.66,285.1906 41.23,309.8906 C18,337.9706 19.46,362.6606 41.23,391.8906 C59.22,416.0506 140.08,433.8606 191.56,442.9906 " fill="none" id="door__locked-to-door__unlocked" style="stroke:#181818;stroke-width:1.0;"/><polygon fill="#181818" points="196.38,444.0106,188.1985,438.5277,191.4539,443.1539,186.8277,446.4094,196.38,444.0106" style="stroke:#181818;stroke-width:1.0;"/><text fill="#000000" font-family="sans-serif" font-size="13" lengthAdjust="spacing" textLength="43" x="105.73" y="322.9575">Unlock</text><path d="M46.23,332.0234 L46.23,387.0234 L208.23,387.0234 L208.23,342.0234 L198.23,332.0234 L46.23,332.0234 " fill="#FEFFDD" style="stroke:#181818;stroke-width:0.5;"/><path d="M198.23,332.0234 L198.23,342.0234 L208.23,342.0234 L198.23,332.0234 " fill="#FEFFDD" style="stroke:#181818;stroke-width:0.5;"/><text fill="#000000" font-family="sans-serif" font-size="13" lengthAdjust="spacing" textLength="48" x="52.23" y="349.0903">effect {</text><text fill="#000000" font-family="sans-serif" font-size="13" lengthAdjust="spacing" textLength="125" x="68.23" y="364.2231">latch_engaged = 0;</text><text fill="#000000" font-family="sans-serif" font-size="13" lengthAdjust="spacing" textLength="8" x="52.23" y="379.356">}</text></g><!--link door__unlocked to door__open--><g id="link_door__unlocked_door__open"><path d="M230.03,471.1706 C226.84,487.4406 225.2,510.6106 236.23,526.8906 C249.12,545.9306 273.82,555.1906 293.93,559.6906 " fill="none" id="door__unlocked-to-door__open" style="stroke:#181818;stroke-width:1.0;"/><polygon fill="#181818" points="298.74,560.8806,290.7376,555.1394,293.8438,559.8671,289.116,562.9733,298.74,560.8806" style="stroke:#181818;stroke-width:1.0;"/><text fill="#000000" font-family="sans-serif" font-size="13" lengthAdjust="spacing" textLength="65" x="237.23" y="522.9575">OpenDoor</text></g><!--link door__open to door__unlocked--><g id="link_door__open_door__unlocked"><path d="M319.83,544.5106 C316.23,533.6806 310.76,520.3106 303.23,509.8906 C293.68,496.6706 280.51,484.5306 268.3,474.8106 " fill="none" id="door__open-to-door__unlocked" style="stroke:#181818;stroke-width:1.0;"/><polygon fill="#181818" points="264.85,471.3406,269.4919,480.027,268.7945,474.4133,274.4081,473.7159,264.85,471.3406" style="stroke:#181818;stroke-width:1.0;"/><text fill="#000000" font-family="sans-serif" font-size="13" lengthAdjust="spacing" textLength="35" x="313.23" y="522.9575">Close</text></g><!--link door__unlocked to door__locked--><g id="link_door__unlocked_door__locked"><path d="M235.23,430.6306 C235.23,398.4706 235.23,333.8106 235.23,298.0706 " fill="none" id="door__unlocked-to-door__locked" style="stroke:#181818;stroke-width:1.0;"/><polygon fill="#181818" points="235.23,293.1706,231.23,302.1706,235.23,298.1706,239.23,302.1706,235.23,293.1706" style="stroke:#181818;stroke-width:1.0;"/><text fill="#000000" font-family="sans-serif" font-size="13" lengthAdjust="spacing" textLength="29" x="306.73" y="322.9575">Lock</text><path d="M240.23,332.0234 L240.23,387.0234 L402.23,387.0234 L402.23,342.0234 L392.23,332.0234 L240.23,332.0234 " fill="#FEFFDD" style="stroke:#181818;stroke-width:0.5;"/><path d="M392.23,332.0234 L392.23,342.0234 L402.23,342.0234 L392.23,332.0234 " fill="#FEFFDD" style="stroke:#181818;stroke-width:0.5;"/><text fill="#000000" font-family="sans-serif" font-size="13" lengthAdjust="spacing" textLength="48" x="246.23" y="349.0903">effect {</text><text fill="#000000" font-family="sans-serif" font-size="13" lengthAdjust="spacing" textLength="125" x="262.23" y="364.2231">latch_engaged = 1;</text><text fill="#000000" font-family="sans-serif" font-size="13" lengthAdjust="spacing" textLength="8" x="246.23" y="379.356">}</text></g><!--link door__locked to door__open--><g id="link_door__locked_door__open"><path d="M265.46,274.9006 C310.19,278.5706 390.6,288.1006 408.23,309.8906 C465.31,380.4806 386.63,491.5706 346.38,539.9906 " fill="none" id="door__locked-to-door__open" style="stroke:#181818;stroke-width:1.0;"/><polygon fill="#181818" points="342.61,543.4806,351.4698,539.1791,345.8333,539.6583,345.3541,534.0218,342.61,543.4806" style="stroke:#181818;stroke-width:1.0;"/><text fill="#000000" font-family="sans-serif" font-size="13" lengthAdjust="spacing" textLength="101" x="455.73" y="422.9575">ServiceOverride</text><path d="M425.23,432.0234 L425.23,487.0234 L587.23,487.0234 L587.23,442.0234 L577.23,432.0234 L425.23,432.0234 " fill="#FEFFDD" style="stroke:#181818;stroke-width:0.5;"/><path d="M577.23,432.0234 L577.23,442.0234 L587.23,442.0234 L577.23,432.0234 " fill="#FEFFDD" style="stroke:#181818;stroke-width:0.5;"/><text fill="#000000" font-family="sans-serif" font-size="13" lengthAdjust="spacing" textLength="48" x="431.23" y="449.0903">effect {</text><text fill="#000000" font-family="sans-serif" font-size="13" lengthAdjust="spacing" textLength="125" x="447.23" y="464.2231">latch_engaged = 0;</text><text fill="#000000" font-family="sans-serif" font-size="13" lengthAdjust="spacing" textLength="8" x="431.23" y="479.356">}</text></g><ellipse cx="301.5" cy="87.5938" fill="#181818" rx="10" ry="10" style="stroke:none;stroke-width:1.0;"/><ellipse cx="301.5" cy="664.5938" fill="none" rx="10" ry="10" style="stroke:#181818;stroke-width:1.0;"/><ellipse cx="302" cy="665.0938" fill="#181818" rx="6" ry="6" style="stroke:none;stroke-width:1.0;"/><!--link *start* to door--><g id="link_*start*_door"><path d="M301.5,97.8038 C301.5,108.5338 301.5,127.8338 301.5,151.4538 " fill="none" id="*start*-to-door" style="stroke:#181818;stroke-width:1.0;"/><polygon fill="#181818" points="301.5,156.2238,305.5,147.2238,301.5,151.2238,297.5,147.2238,301.5,156.2238" style="stroke:#181818;stroke-width:1.0;"/></g><!--link door to *end*--><g id="link_door_*end*"><path d="M301.5,594.9738 C301.5,617.3538 301.5,636.3638 301.5,648.6638 " fill="none" id="door-to-*end*" style="stroke:#181818;stroke-width:1.0;"/><polygon fill="#181818" points="301.5,653.4638,305.5,644.4638,301.5,648.4638,297.5,644.4638,301.5,653.4638" style="stroke:#181818;stroke-width:1.0;"/></g><!--SRC=[hPDFQm8n4CNl-HI3nu9GhwrwqD9I43pOzbAAfCcu1cCcPBF2qlMxDycgZN-AKBg7tMJcntjvixjB9H5mRNqD4alXbFMA36FbIXdB7Lz3wRb7-6808ovMXQFAo35fSls-BR6ID1p2H1LB_-HuVOaIjBPKAezxSAGhZ20vYUvKQgVoICRFVAqnQodFjH9iovZ60eq4JnOqBZnh1l36dUAV6Y6iNsgRdiz6USLrw0L7Q5W3cdkndACfU84I6b36Xtilz89UgngofyIT1oBN0Lw230iupX770RlHT2OaLYWFw7okKo57Neq-XIfpZaqjcWoXi4tjzviFw7Q7v_9v8IFssd07hNE23GKFCg2LQGkuMA3mkp3nEXxF06xlKslRqc7YKI8pFlZyMCSp1zkO90umWrFduXd7ciehiWTsylSqlIjfViioGxTH0gSRT2xyBlywootBtorBdrhSXUet]--></g></svg>